<?xml version="1.0" standalone="no"?>
<!DOCTYPE svg PUBLIC "-//W3C//DTD SVG 1.1//EN" "http://www.w3.org/Graphics/SVG/1.1/DTD/svg11.dtd" >
<svg xmlns="http://www.w3.org/2000/svg" xmlns:xlink="http://www.w3.org/1999/xlink" version="1.1">
<metadata></metadata>
<defs>
<font id="amsipro-semibolduploaded_file" horiz-adv-x="1216" >
<font-face units-per-em="2048" ascent="1749" descent="-299" />
<missing-glyph horiz-adv-x="606" />
<glyph unicode="&#xfb01;" horiz-adv-x="1198" d="M47 924v96q0 24 7 32q8 9 30 9h127v88q0 150 77 229q76 78 220 78q104 0 154 -22q30 -11 30 -35v-86q0 -19 -10 -28q-11 -9 -27 -5q-69 10 -106 10q-129 0 -129 -147v-82h584q40 0 40 -41v-981q0 -39 -40 -39h-134q-39 0 -39 39v846h-409v-848q0 -37 -39 -37h-131 q-41 0 -41 37v848h-127q-37 0 -37 39zM834 1245v158q0 37 40 37h127q39 0 39 -37v-158q0 -39 -39 -39h-127q-40 0 -40 39z" />
<glyph unicode="&#xfb02;" horiz-adv-x="1196" d="M47 924v96q0 41 37 41h127v61q0 174 101 256t345 82q224 0 347 -43q21 -7 30 -16q8 -8 8 -29v-1333q0 -39 -38 -39h-136q-37 0 -37 39v1237q-59 14 -178 14q-129 0 -181 -40t-52 -126v-63h172q37 0 37 -41v-96q0 -39 -37 -39h-170v-848q0 -37 -39 -37h-131q-41 0 -41 37 v848h-127q-37 0 -37 39z" />
<glyph unicode="&#xfb03;" horiz-adv-x="1814" d="M47 924v96q0 41 37 41h127v96q0 299 301 299q80 0 150 -22q30 -12 30 -35v-86q0 -41 -35 -33q-49 10 -104 10q-131 0 -131 -141v-88h409v96q0 299 299 299q80 0 150 -22q31 -12 31 -35v-86q0 -41 -35 -33q-49 10 -105 10q-131 0 -131 -141v-88h582q39 0 39 -41v-981 q0 -39 -39 -39h-135q-37 0 -37 39v846h-410v-848q0 -37 -36 -37h-136q-37 0 -37 37v848h-409v-848q0 -37 -39 -37h-131q-41 0 -41 37v848h-127q-37 0 -37 39zM1452 1245v158q0 37 39 37h129q39 0 39 -37v-158q0 -39 -39 -39h-129q-39 0 -39 39z" />
<glyph unicode="&#xfb04;" horiz-adv-x="1812" d="M47 924v96q0 41 37 41h127v96q0 299 301 299q80 0 150 -22q30 -12 30 -35v-86q0 -41 -35 -33q-49 10 -104 10q-131 0 -131 -141v-88h409v61q0 173 101 256q100 82 344 82q227 0 344 -43q23 -7 32 -16q7 -7 7 -29v-1333q0 -39 -37 -39h-135q-39 0 -39 39v1237 q-56 14 -176 14q-129 0 -180 -39q-52 -40 -52 -127v-63h168q39 0 39 -41v-96q0 -39 -39 -39h-168v-848q0 -37 -36 -37h-136q-37 0 -37 39v846h-409v-848q0 -37 -39 -37h-131q-41 0 -41 37v848h-127q-37 0 -37 39z" />
<glyph horiz-adv-x="0" />
<glyph unicode="&#xd;" horiz-adv-x="681" />
<glyph unicode=" "  horiz-adv-x="606" />
<glyph unicode="&#x09;" horiz-adv-x="606" />
<glyph unicode="&#xa0;" horiz-adv-x="606" />
<glyph unicode="!" horiz-adv-x="610" d="M176 1399q-2 41 41 41h176q43 0 41 -41l-41 -940q0 -39 -39 -39h-98q-36 0 -41 39zM182 39v178q0 39 39 39h168q39 0 39 -39v-178q0 -39 -37 -39h-172q-37 0 -37 39z" />
<glyph unicode="&#x22;" horiz-adv-x="716" d="M106 1399q0 80 97 80q94 0 94 -80q0 -42 -10 -129l-41 -322h-88l-43 322q-9 88 -9 129zM422 1399q0 80 94 80t94 -80q0 -51 -8 -129l-41 -322h-88l-43 322q-8 78 -8 129z" />
<glyph unicode="#" horiz-adv-x="1316" d="M37 416v71q0 39 39 39h213l100 375h-168q-39 0 -39 39v72q0 39 39 39h207l98 381q7 37 47 26l80 -20q38 -8 27 -49l-88 -338h309l100 381q7 37 48 26l77 -20q41 -11 29 -49l-90 -338h176q37 0 37 -39v-72q0 -39 -37 -39h-215l-100 -375h168q39 0 39 -39v-71 q0 -39 -39 -39h-207l-94 -367q-10 -39 -48 -28l-77 22q-36 10 -29 47l86 326h-313l-95 -367q-10 -38 -47 -28l-77 22q-36 10 -29 47l86 326h-174q-39 0 -39 39zM451 526h313l98 375h-311z" />
<glyph unicode="$" horiz-adv-x="1179" d="M92 107l39 110q17 38 53 23q175 -62 336 -62q354 0 354 207q0 23 -5 46q-4 21 -17 41q-11 17 -24 34q-13 16 -35 30q-24 15 -39 24q-16 10 -49 24q-10 4 -20.5 8t-19 7.5t-11.5 4.5q-38 15 -57 22q-14 5 -58 21q-65 26 -95 36q-25 8 -85 36t-84 46q-16 12 -65 54 q-37 31 -57 70q-15 29 -32 85q-15 50 -15 107q0 158 110 257q111 100 310 118v152q0 37 39 37h78q37 0 37 -37v-148q95 -5 185 -25q94 -21 141 -44q36 -15 24 -50l-41 -106q-12 -40 -51 -25q-132 56 -297 56q-146 0 -228 -53q-81 -53 -81 -138q0 -33 7 -55q8 -25 29 -46 l35 -36q14 -14 56 -34q15 -7 33.5 -15.5t22.5 -10.5q9 -5 71 -28q28 -10 69 -27q26 -10 59 -23t40 -16q18 -7 89 -40q60 -28 86 -48q41 -32 66 -54q39 -34 57 -69q13 -25 31 -84q15 -49 15 -104q0 -175 -111 -269q-112 -95 -299 -122v-160q0 -39 -37 -39h-78q-38 0 -38 39 v150q-251 2 -414 75q-41 17 -29 48z" />
<glyph unicode="%" horiz-adv-x="1923" d="M86 1026q0 207 94 317q95 111 254 111q160 0 254 -111q94 -110 94 -317t-94 -316q-95 -110 -254 -110t-254 110q-94 109 -94 316zM262 1026q0 -272 172 -272t172 272q0 274 -172 274t-172 -274zM449 39l841 1368q18 33 56 33h110q43 0 21 -37l-844 -1368q-18 -35 -53 -35 h-113q-42 0 -18 39zM1141 414q0 207 94 317q95 111 256 111q160 0 253 -111t93 -317q0 -208 -94 -317t-254 -109t-254 109t-94 317zM1319 414q0 -273 172 -273t172 273q0 274 -172 274t-172 -274z" />
<glyph unicode="&#x26;" horiz-adv-x="1495" d="M90 432q0 167 100 277q99 109 273 153l-43 45q-66 69 -93 129q-28 62 -28 138q0 290 397 290q148 0 267 -51q44 -18 32 -49l-30 -86q-17 -39 -60 -23q-91 33 -192 33q-219 0 -219 -129q0 -21 6 -42q4 -14 11 -35q3 -10 23 -36l10 -14t8 -11t5 -6q1 -1 32 -34 q21 -22 29 -33l523 -559q51 84 51 203q0 29 -11 66q-12 40 -12 51q0 34 37 34h111q30 0 37 -32q18 -60 18 -129q0 -198 -100 -334l192 -207q12 -15 6 -28t-22 -13h-152q-36 0 -61 25l-90 96q-158 -137 -459 -137q-267 0 -431 119q-165 120 -165 329zM311 444 q0 -116 108 -196q109 -80 283 -80q220 0 320 90l-442 469q-269 -57 -269 -283z" />
<glyph unicode="'" horiz-adv-x="403" d="M106 1399q0 80 97 80q94 0 94 -80q0 -42 -10 -129l-41 -322h-88l-43 322q-9 88 -9 129z" />
<glyph unicode="(" horiz-adv-x="755" d="M170 610q0 238 97 451q98 217 241 377q22 22 47 22h102q22 0 26 -13q5 -15 -5 -26q-128 -157 -211 -373q-82 -215 -82 -438q0 -216 83 -430q82 -212 210 -379q9 -14 5 -27q-5 -14 -26 -14h-102q-26 0 -47 21q-146 163 -242 378q-96 216 -96 451z" />
<glyph unicode=")" horiz-adv-x="755" d="M74 -225q-6 15 4 26q297 403 297 809q0 214 -83 427q-81 209 -214 384q-10 12 -4 26q6 13 24 13h105q25 0 47 -22q141 -156 239 -376q97 -218 97 -452q0 -233 -97 -451t-239 -378q-21 -21 -47 -21h-105q-18 0 -24 15z" />
<glyph unicode="*" horiz-adv-x="835" d="M91 964q7 19 40 40q31 17 101 43q78 30 110 47q-26 14 -109 45q-79 30 -102 45q-63 37 -29 92q30 58 93 24q23 -14 92 -69q83 -66 92 -72q-2 31 -15 116q-14 89 -14 114q0 39 15 54t53 15q36 0 50 -15q13 -14 13 -54q0 -29 -12 -114q-13 -91 -14 -116q23 16 92 71 q65 52 94 68q59 34 92 -22q33 -60 -28 -94q-18 -12 -103 -44q-86 -33 -108 -44q65 -27 107 -44q83 -33 104 -46q31 -20 39 -40q7 -19 -11 -53q-37 -57 -92 -24q-31 17 -93 68q-65 53 -91 71q2 -31 15 -116q13 -82 13 -113q0 -39 -14 -53q-15 -15 -51 -15q-38 0 -53 15 t-15 53q0 24 14 113q13 85 15 116q-23 -15 -93 -71q-60 -48 -93 -66q-60 -39 -93 20q-19 35 -11 55z" />
<glyph unicode="+" d="M119 653v103q0 37 39 37h352v350q0 39 39 39h121q35 0 35 -39v-350h354q39 0 39 -37v-103q0 -35 -39 -35h-354v-356q0 -39 -35 -39h-121q-39 0 -39 39v356h-352q-39 0 -39 35z" />
<glyph unicode="," horiz-adv-x="485" d="M125 39v174q0 39 41 39h153q41 0 41 -39v-160q0 -23 -8 -49l-92 -229q-11 -23 -35 -23h-51q-31 0 -20 35l57 213h-47q-39 0 -39 39z" />
<glyph unicode="-" horiz-adv-x="808" d="M84 492v102q0 37 39 37h561q41 0 41 -37v-102q0 -37 -41 -37h-563q-37 0 -37 37z" />
<glyph unicode="." horiz-adv-x="485" d="M125 39v174q0 39 41 39h153q41 0 41 -39v-174q0 -39 -38 -39h-158q-39 0 -39 39z" />
<glyph unicode="/" horiz-adv-x="903" d="M20 13q-8 14 3 32l649 1358q16 37 53 37h125q52 0 29 -47l-648 -1356q-16 -37 -53 -37h-125q-26 0 -33 13z" />
<glyph unicode="0" horiz-adv-x="1390" d="M115 721q0 359 151 550t428 191t427 -189q151 -190 151 -550q0 -359 -151 -551q-150 -190 -427 -190t-428 190t-151 549zM342 721q0 -543 352 -543q355 0 355 543t-355 543q-352 0 -352 -543z" />
<glyph unicode="1" horiz-adv-x="966" d="M80 1096q-18 25 6 43l379 284q23 17 55 17h146q41 0 41 -41v-1358q0 -41 -41 -41h-140q-43 0 -43 41v1151l-280 -193q-26 -17 -47 7z" />
<glyph unicode="2" horiz-adv-x="1282" d="M121 41v88q0 30 31 53q60 41 199 135q71 48 195 149q120 97 188 173q71 79 122 175q53 100 53 190q0 268 -291 268q-152 0 -218 -63t-66 -156q0 -22 5 -64t5 -49q0 -33 -37 -33h-127q-29 0 -41 41q-12 53 -12 113q0 174 124 288q123 113 367 113q268 0 392 -122 q123 -122 123 -322q0 -122 -65 -250q-66 -130 -172 -236q-107 -108 -211 -190q-106 -85 -216 -152h637q41 0 41 -40v-109q0 -41 -41 -41h-944q-41 0 -41 41z" />
<glyph unicode="3" horiz-adv-x="1193" d="M74 111l39 110q15 37 51 23q176 -72 360 -72q328 0 328 254q0 231 -301 231h-156q-41 0 -41 37v105q0 39 41 39h150q272 0 272 223q0 105 -75 159t-205 54q-187 0 -359 -72q-34 -15 -49 23l-39 104q-12 31 25 47q202 86 434 86q217 0 352 -96t135 -276q0 -248 -215 -322 q254 -72 254 -346q0 -219 -139 -330q-138 -110 -399 -110q-247 0 -439 86q-34 16 -24 43z" />
<glyph unicode="4" horiz-adv-x="1345" d="M82 352v107q0 29 16 51l736 903q21 27 49 27h145q41 0 41 -41v-901h197q41 0 41 -43v-103q0 -41 -41 -41h-197v-270q0 -41 -41 -41h-139q-39 0 -39 41v270h-727q-41 0 -41 41zM299 498h551v667z" />
<glyph unicode="5" horiz-adv-x="1222" d="M84 121l41 104q15 37 51 23q174 -76 369 -76q344 0 344 285q0 134 -74 200q-73 66 -242 66q-104 0 -205 -29q-97 -28 -110 -28q-11 0 -35 8l-65 20q-29 6 -23 41q41 381 41 662q0 43 45 43h766q41 0 41 -41v-109q0 -39 -41 -39h-625q-8 -195 -28 -399q120 47 274 47 q254 0 379 -116t125 -326q0 -232 -144 -354q-143 -121 -409 -121q-283 0 -450 88q-37 18 -25 51z" />
<glyph unicode="6" horiz-adv-x="1318" d="M115 666q0 368 154 582t466 214q171 0 305 -55q36 -16 29 -43l-33 -109q-12 -38 -49 -26q-138 47 -235 47q-209 0 -313 -140t-109 -388q40 93 143 160q104 67 260 67q241 0 362 -132q122 -133 122 -343q0 -230 -140 -375q-139 -143 -379 -143q-284 0 -434 187 q-149 186 -149 497zM367 487q0 -119 88 -217t239 -98q148 0 230 90q82 89 82 238q0 130 -77 216q-76 85 -233 85q-158 0 -243 -91q-86 -92 -86 -223z" />
<glyph unicode="7" horiz-adv-x="1167" d="M86 1290v109q0 41 41 41h905q41 0 41 -41v-96q0 -22 -31 -64q-187 -270 -332 -596q-142 -321 -153 -604q0 -39 -43 -39h-145q-21 0 -32 10q-11 9 -9 29q24 292 179 644q154 350 327 568h-707q-41 0 -41 39z" />
<glyph unicode="8" horiz-adv-x="1290" d="M102 377q0 291 351 371q-142 41 -227 129t-85 217q0 171 130 270q129 98 374 98q247 0 376 -98q130 -99 130 -270q0 -127 -86 -216q-87 -90 -227 -130q350 -78 350 -371q0 -179 -142 -288t-401 -109q-258 0 -400 109q-143 110 -143 288zM322 391q0 -105 85 -169t238 -64 q156 0 241 64t85 169q0 206 -326 275q-323 -69 -323 -275zM356 1090q0 -100 72 -162q73 -62 217 -101q145 39 218 101t73 162q0 94 -73 147t-218 53q-144 0 -217 -53q-72 -53 -72 -147z" />
<glyph unicode="9" horiz-adv-x="1318" d="M102 940q0 232 139 377q137 143 380 143q285 0 433 -187t148 -499q0 -372 -150 -583t-462 -211q-182 0 -305 55q-37 15 -29 45l33 106q15 37 51 25q147 -47 233 -47q203 0 310 134q106 133 112 378q-38 -84 -141 -147q-104 -64 -268 -64q-241 0 -362 133 q-122 134 -122 342zM313 942q0 -131 77 -217t233 -86q158 0 243 91q86 92 86 222q0 129 -86 224q-85 94 -241 94q-148 0 -230 -91t-82 -237z" />
<glyph unicode=":" horiz-adv-x="552" d="M160 39v174q0 39 39 39h155q39 0 39 -39v-174q0 -39 -39 -39h-157q-37 0 -37 39zM160 856v176q0 37 39 37h155q39 0 39 -39v-174q0 -39 -39 -39h-157q-37 0 -37 39z" />
<glyph unicode=";" horiz-adv-x="552" d="M160 39v174q0 39 39 39h155q39 0 39 -39v-160q0 -28 -10 -49l-88 -229q-12 -23 -35 -23h-53q-33 0 -21 35l60 213h-49q-37 0 -37 39zM160 856v174q0 39 41 39h153q39 0 39 -39v-174q0 -39 -39 -39h-157q-37 0 -37 39z" />
<glyph unicode="&#x3c;" d="M125 705q0 22 22 38l773 578q32 22 55 -2l69 -86q26 -32 -4 -53l-657 -478l657 -475q31 -21 4 -51l-69 -90q-26 -26 -53 -4l-775 580q-22 15 -22 43z" />
<glyph unicode="=" d="M145 459v96q0 37 37 37h852q37 0 37 -37v-96q0 -37 -37 -37h-852q-37 0 -37 37zM145 854v96q0 39 37 39h852q37 0 37 -39v-96q0 -37 -37 -37h-852q-37 0 -37 37z" />
<glyph unicode="&#x3e;" d="M172 176q-21 28 6 51l658 475l-658 478q-30 23 -6 53l66 86q22 28 53 4l778 -580q23 -15 23 -38q0 -25 -23 -43l-778 -580q-35 -24 -53 4z" />
<glyph unicode="?" horiz-adv-x="1089" d="M66 1331q-11 29 26 45q164 86 418 86q233 0 356 -96t123 -260q0 -93 -37 -170q-38 -79 -89 -130q-52 -51 -104 -98q-48 -43 -89 -95q-37 -47 -37 -97v-59q0 -37 -39 -37h-121q-39 0 -39 39v57q0 59 35 117q35 57 84 105q16 16 98 100q50 52 84 115q35 65 35 132 q0 187 -278 187q-153 0 -334 -70q-39 -15 -52 21zM406 39v178q0 39 40 39h166q41 0 41 -39v-178q0 -39 -41 -39h-168q-38 0 -38 39z" />
<glyph unicode="@" horiz-adv-x="1906" d="M125 434q0 350 239 574q238 223 642 223q205 0 361 -50q152 -49 243 -140q87 -87 130 -197q42 -108 42 -238q0 -251 -116 -394q-115 -142 -343 -142h-121q-43 0 -43 28l4 129q-95 -161 -307 -161q-170 0 -265 93t-95 259q0 232 144 380t411 148q176 0 329 -69 q28 -12 23 -35l-113 -645h49q167 0 238 104q72 105 72 307q0 224 -150 361q-151 137 -495 137q-346 0 -543 -184q-199 -185 -199 -488q0 -278 166 -410q168 -133 528 -133q228 0 426 70q25 8 31 -18l19 -66q4 -21 -17 -27q-195 -79 -459 -79q-831 0 -831 663zM684 434 q0 -101 50 -159q49 -56 153 -56q225 0 272 260l51 287q-78 29 -168 29q-168 0 -263 -100t-95 -261z" />
<glyph unicode="A" horiz-adv-x="1384" d="M51 45l498 1354q8 23 18 32q11 9 35 9h180q25 0 34 -9q11 -11 18 -32l497 -1354q8 -19 -1 -32t-30 -13h-153q-33 0 -49 37l-113 309h-586l-114 -309q-12 -37 -45 -37h-156q-21 0 -30 13q-9 14 -3 32zM457 543h469l-232 674h-4z" />
<glyph unicode="B" horiz-adv-x="1417" d="M168 41v1358q0 41 43 41h512q276 0 406 -91q131 -92 131 -284q0 -130 -58 -206q-57 -75 -145 -99q252 -57 252 -348q0 -218 -141 -315q-140 -97 -433 -97h-524q-43 0 -43 41zM391 193h330q202 0 284 50q80 49 80 181q0 123 -76 175t-274 52h-344v-458zM391 834h336 q173 0 243 49t70 164q0 109 -72 156q-71 46 -249 46h-328v-415z" />
<glyph unicode="C" horiz-adv-x="1251" d="M111 721q0 359 169 550t476 191q224 0 372 -86q37 -21 27 -49l-45 -104q-10 -27 -32 -27q-10 0 -23 6q-121 58 -264 58q-451 0 -451 -539q0 -541 459 -541q146 0 270 68q10 4 19 4q23 0 36 -29l47 -106q12 -26 -28 -47q-147 -90 -377 -90q-313 0 -484 190t-171 551z" />
<glyph unicode="D" horiz-adv-x="1402" d="M168 41v1358q0 41 41 41h371q359 0 537 -163q179 -164 179 -538q0 -401 -177 -570q-176 -169 -535 -169h-373q-43 0 -43 41zM393 205h185q249 0 369 114t120 420q0 279 -121 387q-123 109 -371 109h-182v-1030z" />
<glyph unicode="E" horiz-adv-x="1144" d="M168 41v1358q0 41 41 41h786q43 0 43 -41v-117q0 -41 -43 -41h-604v-410h582q39 0 39 -43v-106q0 -43 -39 -43h-582v-440h613q40 0 40 -39v-117q0 -43 -40 -43h-793q-43 0 -43 41z" />
<glyph unicode="F" horiz-adv-x="1118" d="M168 41v1358q0 41 43 41h784q39 0 39 -39v-117q0 -41 -39 -41h-602v-434h586q41 0 41 -43v-111q0 -39 -41 -39h-586v-575q0 -41 -43 -41h-139q-43 0 -43 41z" />
<glyph unicode="G" horiz-adv-x="1443" d="M111 721q0 741 708 741q242 0 402 -92q38 -20 26 -49l-41 -107q-12 -26 -34 -26q-10 0 -23 6q-150 66 -307 66q-261 0 -382 -130q-120 -129 -120 -409q0 -281 118 -411t367 -130q159 0 262 53v424h-264q-43 0 -43 39v107q0 41 43 41h434q41 0 41 -41v-653q0 -43 -41 -70 q-166 -100 -452 -100q-694 0 -694 741z" />
<glyph unicode="H" horiz-adv-x="1447" d="M168 41v1358q0 41 43 41h141q41 0 41 -41v-561h662v561q0 41 43 41h141q41 0 41 -41v-1358q0 -41 -41 -41h-141q-43 0 -43 41v592h-662v-592q0 -41 -41 -41h-141q-43 0 -43 41z" />
<glyph unicode="I" horiz-adv-x="587" d="M182 41v1358q0 41 39 41h144q43 0 43 -41v-1358q0 -41 -43 -41h-144q-39 0 -39 41z" />
<glyph unicode="J" horiz-adv-x="993" d="M47 106l41 111q17 41 49 23q114 -60 232 -60q243 0 243 289v930q0 41 41 41h144q39 0 39 -41v-948q0 -476 -443 -476q-189 0 -319 74q-30 18 -30 42q0 7 3 15z" />
<glyph unicode="K" horiz-adv-x="1280" d="M168 41v1358q0 41 43 41h141q41 0 41 -41v-525l551 533q38 33 64 33h174q24 0 31 -18q7 -17 -9 -33l-635 -615l648 -721q16 -16 10 -35q-6 -18 -31 -18h-178q-27 0 -64 37l-561 618v-614q0 -41 -41 -41h-141q-43 0 -43 41z" />
<glyph unicode="L" horiz-adv-x="1110" d="M168 41v1358q0 41 43 41h141q41 0 41 -41v-1194h590q43 0 43 -37v-127q0 -41 -43 -41h-772q-43 0 -43 41z" />
<glyph unicode="M" horiz-adv-x="1662" d="M168 41v1358q0 41 43 41h137q32 0 49 -25l434 -704l435 704q17 25 49 25h139q41 0 41 -41v-1358q0 -41 -41 -41h-139q-41 0 -41 41v1016l-402 -654q-15 -24 -41 -24q-25 0 -40 24l-402 654v-1016q0 -41 -41 -41h-137q-43 0 -43 41z" />
<glyph unicode="N" horiz-adv-x="1454" d="M168 41v1358q0 41 43 41h141q40 0 58 -29l655 -1036v1024q0 41 41 41h137q41 0 41 -39v-1360q0 -41 -41 -41h-143q-34 0 -56 31l-657 1034v-1024q0 -41 -39 -41h-137q-43 0 -43 41z" />
<glyph unicode="O" horiz-adv-x="1468" d="M106 721q0 361 163 551t464 190q303 0 466 -190t163 -551q0 -364 -163 -552q-163 -189 -466 -189q-301 0 -464 189q-163 188 -163 552zM336 721q0 -543 397 -543q400 0 400 543t-400 543q-397 0 -397 -543z" />
<glyph unicode="P" horiz-adv-x="1345" d="M168 41v1358q0 41 41 41h418q309 0 457 -119q147 -119 147 -387t-147 -386q-146 -118 -457 -118h-234v-389q0 -41 -43 -41h-139q-43 0 -43 41zM393 629h234q197 0 286 69q88 69 88 236q0 168 -88 237q-90 70 -286 70h-234v-612z" />
<glyph unicode="Q" horiz-adv-x="1468" d="M106 723q0 362 163 550q163 189 464 189q303 0 468 -190q163 -188 163 -540v-9q-1 -272 -120 -457t-324 -237q100 -41 233 -41q8 0 40 2l32 2q43 0 43 -33v-100q0 -24 -16 -35q-14 -10 -56 -10q-310 0 -524 178q-274 18 -420 204q-146 187 -146 527zM336 723 q0 -541 397 -541q400 0 400 541t-400 541q-397 0 -397 -541z" />
<glyph unicode="R" horiz-adv-x="1345" d="M168 41v1358q0 41 43 41h436q299 0 444 -115q144 -114 144 -358q0 -377 -387 -439l387 -475q15 -16 7 -35q-8 -18 -32 -18h-155q-35 0 -62 33l-377 467h-223v-459q0 -41 -43 -41h-139q-43 0 -43 41zM393 696h246q200 0 286 65q85 64 85 206q0 148 -86 211q-85 63 -281 63 h-250v-545z" />
<glyph unicode="S" horiz-adv-x="1167" d="M90 102l41 111q11 29 31 29q8 0 18 -4q147 -60 340 -60q157 0 246 52q90 52 90 151q0 52 -22 90t-77 73q-47 30 -94 51q-38 17 -128 52q-87 35 -128 52q-46 19 -110 59q-62 38 -96 80q-35 43 -58 103q-24 63 -24 140q0 184 126 283q125 98 380 98q222 0 370 -65 q37 -16 27 -49l-39 -107q-11 -26 -33 -26q-9 0 -20 4q-132 47 -287 47q-156 0 -227 -46q-72 -46 -72 -143q0 -61 39 -106t87 -69q30 -15 138 -60q2 0 13 -4q1 0 5 -2l6 -3t6.5 -3t6.5 -3q217 -91 291 -149q145 -112 145 -301q0 -195 -145 -295t-395 -100q-272 0 -422 73 q-40 18 -29 47z" />
<glyph unicode="T" horiz-adv-x="1140" d="M59 1276v123q0 41 41 41h938q43 0 43 -41v-123q0 -41 -43 -41h-354v-1194q0 -41 -43 -41h-141q-41 0 -41 41v1194h-357q-43 0 -43 41z" />
<glyph unicode="U" horiz-adv-x="1423" d="M158 514v885q0 41 41 41h141q43 0 43 -41v-867q0 -352 328 -352q329 0 329 352v867q0 41 41 41h144q39 0 39 -41v-885q0 -258 -139 -399q-138 -140 -414 -140q-277 0 -415 140q-138 139 -138 399z" />
<glyph unicode="V" horiz-adv-x="1366" d="M68 1395q-4 11 -4 19q0 26 36 26h154q37 0 49 -39l281 -830l98 -340h2l98 342l283 828q12 39 47 39h156q34 0 34 -25q0 -8 -4 -20l-469 -1352q-15 -43 -55 -43h-182q-38 0 -53 43z" />
<glyph unicode="W" horiz-adv-x="2138" d="M82 1393q-4 11 -4 20q0 27 37 27h151q38 0 45 -39l215 -770l95 -381h4l100 387l219 764q10 39 55 39h142q43 0 55 -39l215 -764l102 -387h5l94 381l215 770q12 39 47 39h149q37 0 37 -27q0 -9 -4 -20l-389 -1350q-12 -43 -55 -43h-176q-44 0 -56 43l-219 727l-90 344h-4 l-92 -344l-217 -727q-12 -43 -53 -43h-179q-43 0 -55 43z" />
<glyph unicode="X" horiz-adv-x="1325" d="M63 16q-7 16 5 33l471 674l-461 668q-12 17 -5 32q8 17 27 17h162q34 0 57 -35l345 -506l342 506q21 35 57 35h160q20 0 28 -17q7 -16 -4 -32l-463 -666l473 -676q12 -17 5 -33t-29 -16h-156q-34 0 -61 37l-352 514l-355 -514q-22 -37 -59 -37h-158q-22 0 -29 16z" />
<glyph unicode="Y" horiz-adv-x="1331" d="M59 1423q8 17 31 17h154q34 0 55 -37l260 -477l107 -209l106 209l262 477q15 37 53 37h154q22 0 30 -17q7 -15 -1 -32l-492 -861v-489q0 -41 -41 -41h-143q-41 0 -41 41v489l-492 861q-10 15 -2 32z" />
<glyph unicode="Z" horiz-adv-x="1234" d="M115 41v119q0 34 24 69l705 1006h-674q-41 0 -41 41v123q0 41 41 41h891q39 0 39 -41v-119q0 -34 -23 -68l-700 -1007h696q41 0 41 -39v-125q0 -41 -41 -41h-917q-41 0 -41 41z" />
<glyph unicode="[" horiz-adv-x="755" d="M227 -186v1589q0 37 39 37h355q36 0 36 -37v-86q0 -39 -36 -39h-195v-1341h195q36 0 36 -37v-86q0 -39 -36 -39h-355q-39 0 -39 39z" />
<glyph unicode="\" horiz-adv-x="903" d="M20 1426q8 14 33 14h125q37 0 53 -37l648 -1358q18 -45 -29 -45h-125q-37 0 -53 37l-649 1356q-10 20 -3 33z" />
<glyph unicode="]" horiz-adv-x="759" d="M102 -100q0 37 39 37h193v1341h-193q-39 0 -39 39v86q0 37 39 37h353q38 0 38 -37v-1589q0 -39 -38 -39h-353q-39 0 -39 39v86z" />
<glyph unicode="^" d="M113 711q-7 14 4 34l381 664q17 31 51 31h119q36 0 51 -31l381 -664q11 -20 3 -34q-9 -15 -32 -15h-123q-34 0 -55 35l-285 508l-284 -508q-21 -35 -56 -35h-125q-23 0 -30 15z" />
<glyph unicode="_" horiz-adv-x="1028" d="M43 -119q0 37 39 37h864q37 0 37 -37v-57q0 -37 -37 -37h-864q-39 0 -39 37v57z" />
<glyph unicode="`" horiz-adv-x="706" d="M159 1433q5 15 23 15h174q33 0 50 -29l104 -178q8 -12 1 -23q-7 -12 -24 -12h-79q-31 0 -56 23l-186 176q-12 12 -7 28z" />
<glyph unicode="a" horiz-adv-x="1157" d="M78 285q0 86 37 150q39 67 97 103q61 38 158 62q104 26 199 34q108 10 242 11v53q0 113 -59 165t-197 52q-165 0 -319 -65q-34 -12 -48 24l-30 99q-7 28 22 43q169 78 398 78q226 0 333 -98t107 -289v-668q0 -39 -41 -39h-117q-34 0 -39 35l-4 129q-107 -182 -385 -182 q-167 0 -260 80q-94 81 -94 223zM283 297q0 -70 53 -114t151 -44q156 0 240 78t84 195v90q-114 -4 -212 -13q-84 -8 -162 -28q-80 -21 -118 -62q-36 -39 -36 -102z" />
<glyph unicode="b" horiz-adv-x="1296" d="M158 39v1364q0 37 39 37h135q39 0 39 -37v-498q44 90 141 139q100 50 219 50q218 0 343 -142q124 -140 124 -415t-123 -416t-344 -141q-125 0 -224 47q-96 46 -140 139l-5 -131q0 -35 -36 -35h-129q-39 0 -39 39zM371 537q0 -188 80 -285q79 -96 229 -96q151 0 226 91 t75 290q0 198 -75 288t-226 90q-149 0 -229 -95t-80 -283z" />
<glyph unicode="c" horiz-adv-x="1038" d="M98 539q0 265 143 410t380 145q183 0 301 -66q34 -21 24 -49l-41 -94q-10 -24 -32 -24q-10 0 -23 5q-90 43 -205 43q-156 0 -243 -92q-87 -91 -87 -278t87 -282t235 -95q117 0 229 53q13 6 23 6q20 0 29 -24l38 -97q11 -29 -26 -49q-42 -26 -127 -49q-82 -22 -170 -22 q-246 0 -390 145q-145 147 -145 414z" />
<glyph unicode="d" horiz-adv-x="1296" d="M98 537q0 275 124 415q125 142 343 142q121 0 221 -50t140 -139v498q0 37 41 37h133q39 0 39 -37v-1364q0 -39 -39 -39h-127q-39 0 -39 35l-2 131q-46 -93 -142 -139q-99 -47 -225 -47q-221 0 -344 141t-123 416zM317 537q0 -199 75 -290t224 -91q150 0 231 96t81 285 t-81 283q-81 95 -231 95q-149 0 -224 -90t-75 -288z" />
<glyph unicode="e" horiz-adv-x="1177" d="M98 532q0 267 135 414q136 148 369 148q227 0 352 -139t125 -365v-101q0 -38 -41 -38h-729q12 -140 110 -224q97 -84 253 -84q149 0 268 64q11 7 20 7q19 0 31 -30l33 -84q11 -30 -27 -47q-151 -78 -340 -78q-261 0 -410 149t-149 408zM305 602h578v10q0 144 -72 229 t-207 85q-278 0 -299 -324z" />
<glyph unicode="f" horiz-adv-x="733" d="M47 924v96q0 41 37 41h127v92q0 303 307 303q90 0 152 -22q26 -10 26 -37v-88q0 -22 -8 -30.5t-24 -4.5q-53 10 -107 10q-135 0 -135 -143v-80h229q37 0 37 -41v-96q0 -39 -37 -39h-229v-848q0 -37 -39 -37h-131q-41 0 -41 37v848h-127q-37 0 -37 39z" />
<glyph unicode="g" horiz-adv-x="1228" d="M100 596q0 249 119 374q118 124 316 124q107 0 202 -48q94 -48 133 -124l4 112q5 35 39 35h125q37 0 37 -39v-864q0 -200 -131 -308t-362 -108q-245 0 -367 62q-36 19 -25 43l33 96q10 36 47 24q141 -51 299 -51q143 0 224 67q79 66 79 185v105q-40 -83 -130 -129 t-199 -46q-201 0 -322 121t-121 369zM313 596q0 -328 275 -328q132 0 205 87q73 86 73 253q0 160 -72 239t-206 79q-275 0 -275 -330z" />
<glyph unicode="h" horiz-adv-x="1247" d="M158 39v1364q0 37 39 37h135q39 0 39 -37v-490q38 75 126 127q91 54 228 54q189 0 284 -104t95 -288v-663q0 -39 -37 -39h-135q-39 0 -39 39v627q0 120 -55 179q-56 60 -181 60q-135 0 -211 -79q-75 -78 -75 -201v-588q0 -37 -39 -37h-135q-39 0 -39 39z" />
<glyph unicode="i" horiz-adv-x="520" d="M154 39v991q0 39 39 39h135q39 0 39 -39v-991q0 -39 -39 -39h-135q-39 0 -39 39zM154 1239v156q0 39 36 39h138q39 0 39 -39v-156q0 -41 -39 -41h-138q-36 0 -36 41z" />
<glyph unicode="j" horiz-adv-x="546" d="M-39 -80q0 37 37 31q61 -8 86 -8q98 0 98 133v954q0 39 37 39h135q39 0 39 -39v-975q0 -154 -61 -222q-62 -69 -199 -69q-88 0 -139 15q-33 7 -33 39v102zM180 1239v156q0 39 39 39h137q39 0 39 -39v-156q0 -41 -39 -41h-137q-39 0 -39 41z" />
<glyph unicode="k" horiz-adv-x="1067" d="M158 39v1364q0 37 39 37h135q39 0 39 -37v-694l395 338q22 22 55 22h172q23 0 29 -16q6 -17 -12 -33l-498 -424l520 -549q14 -15 7 -31t-27 -16h-174q-34 0 -58 29l-409 438v-428q0 -39 -39 -39h-135q-39 0 -39 39z" />
<glyph unicode="l" horiz-adv-x="518" d="M154 39v1364q0 37 36 37h138q37 0 37 -37v-1364q0 -39 -37 -39h-138q-36 0 -36 39z" />
<glyph unicode="m" horiz-adv-x="1863" d="M150 39v991q0 39 40 39h127q41 0 41 -35l4 -123q33 74 117 128q86 55 215 55q248 0 316 -191q105 191 364 191q172 0 260 -102q88 -101 88 -281v-672q0 -39 -39 -39h-133q-39 0 -39 39v637q0 114 -47 172q-46 57 -157 57q-122 0 -193 -71q-72 -72 -72 -181v-614 q0 -39 -38 -39h-134q-39 0 -39 39v639q0 112 -47 170q-46 57 -155 57q-125 0 -196 -74t-71 -194v-598q0 -39 -38 -39h-134q-40 0 -40 39z" />
<glyph unicode="n" horiz-adv-x="1230" d="M150 39v991q0 39 36 39h127q39 0 39 -35l6 -123q100 183 355 183q187 0 282 -104t95 -288v-663q0 -39 -41 -39h-134q-38 0 -38 39v629q0 117 -56 178q-55 59 -178 59q-131 0 -207 -76t-76 -202v-588q0 -39 -38 -39h-136q-36 0 -36 39z" />
<glyph unicode="o" horiz-adv-x="1232" d="M98 537q0 267 140 412t378 145q239 0 379 -145t140 -412q0 -268 -140 -413q-140 -144 -379 -144q-241 0 -379 144q-139 145 -139 413zM315 537q0 -192 78 -286q78 -95 223 -95q143 0 223 95q79 94 79 286q0 191 -79 285q-81 96 -223 96q-144 0 -223 -96q-78 -94 -78 -285 z" />
<glyph unicode="p" horiz-adv-x="1290" d="M150 -186v1216q0 39 40 39h125q41 0 41 -35l2 -131q44 91 144 140q104 51 223 51q218 0 342 -142q123 -141 123 -415q0 -275 -123 -416t-342 -141q-278 0 -363 184v-350q0 -39 -38 -39h-134q-40 0 -40 39zM362 537q0 -189 81 -285t231 -96q149 0 224 91t75 290 q0 198 -75 288t-224 90q-150 0 -231 -95q-81 -94 -81 -283z" />
<glyph unicode="q" horiz-adv-x="1290" d="M98 537q0 275 124 415q125 142 343 142q121 0 223 -52q101 -51 144 -139l2 131q0 35 39 35h127q39 0 39 -39v-1216q0 -39 -39 -39h-133q-41 0 -41 39v346q-80 -180 -361 -180q-221 0 -344 141t-123 416zM317 537q0 -199 75 -290t224 -91q150 0 231 96t81 285t-81 283 q-81 95 -231 95q-149 0 -224 -90t-75 -288z" />
<glyph unicode="r" horiz-adv-x="792" d="M150 39v991q0 39 40 39h127q41 0 41 -37l4 -182q35 85 123 155t213 70q33 0 33 -33v-155q0 -31 -33 -31h-3.5t-5 0.5t-6.5 1t-7 0.5q-22 2 -33 2q-119 0 -200 -105t-81 -245v-471q0 -39 -38 -39h-134q-40 0 -40 39z" />
<glyph unicode="s" horiz-adv-x="958" d="M78 78l28 94q10 37 48 25q129 -50 272 -50q121 0 180 31q58 31 58 107q0 65 -59 104t-189 84q-169 61 -213 92q-118 83 -119 238q0 142 98 216q99 75 291 75q195 0 328 -60q34 -15 24 -43l-28 -88q-11 -35 -45 -24q-123 45 -250 45q-110 0 -160 -29q-49 -28 -49 -96 q0 -69 55 -103q58 -36 191 -82q161 -57 247 -129t86 -202q0 -303 -419 -303q-203 0 -349 57q-34 12 -26 41z" />
<glyph unicode="t" horiz-adv-x="753" d="M27 924v96q0 41 41 41h135v254q0 37 37 37h125q41 0 41 -37v-254h249q41 0 41 -41v-96q0 -39 -41 -39h-249v-543q0 -104 32 -140q33 -38 127 -38q5 0 90 12q29 5 35 -33l17 -96q5 -25 -29 -37q-66 -24 -162 -24q-173 0 -245 76q-72 77 -72 257v566h-131q-41 0 -41 39z " />
<glyph unicode="u" horiz-adv-x="1214" d="M135 367v663q0 39 39 39h133q39 0 39 -39v-627q0 -239 223 -239q127 0 205 75t78 199v592q0 39 39 39h135q37 0 37 -39v-991q0 -39 -37 -39h-129q-39 0 -39 35l-4 123q-99 -178 -346 -178q-373 0 -373 387z" />
<glyph unicode="v" horiz-adv-x="1069" d="M51 1026q-4 11 -4 19q0 24 33 24h141q28 0 43 -37l174 -500l94 -315h5l96 315l170 500q15 37 45 37h143q31 0 31 -23q0 -8 -4 -20l-356 -993q-12 -33 -48 -33h-159q-37 0 -47 33z" />
<glyph unicode="w" horiz-adv-x="1712" d="M66 1026q-2 9 -2 15q0 28 32 28h140q33 0 43 -37l176 -604l47 -211h4l57 211l189 606q12 35 45 35h121q31 0 43 -35l192 -606l55 -211h4l50 211l172 604q10 37 43 37h141q33 0 33 -28q0 -7 -2 -15l-299 -989q-10 -37 -50 -37h-149q-37 0 -49 37l-178 555l-64 223h-6 l-61 -223l-179 -555q-12 -37 -49 -37h-149q-34 0 -49 37z" />
<glyph unicode="x" horiz-adv-x="1062" d="M46 14q-5 15 7 31l365 498l-357 479q-14 17 -8 33q6 14 27 14h149q32 0 54 -31l252 -348l247 348q23 31 54 31h143q19 0 25 -14t-7 -33l-354 -479l367 -498q12 -16 6 -31q-6 -14 -27 -14h-149q-34 0 -52 29l-258 366l-258 -366q-21 -29 -53 -29h-147q-22 0 -26 14z" />
<glyph unicode="y" horiz-adv-x="1060" d="M51 1026q-4 11 -4 19q0 24 33 24h141q30 0 45 -37l189 -512l98 -309h4l88 309l154 512q10 37 43 37h141q35 0 35 -24q0 -8 -4 -19l-324 -948q-60 -178 -132 -246q-73 -68 -232 -68q-94 0 -168 23q-38 15 -33 39l20 98q6 35 39 29l37 -6q40 -8 72 -8q67 0 100 26 q35 27 35 74q0 35 -14 63z" />
<glyph unicode="z" horiz-adv-x="1024" d="M98 39v82q0 27 17 49l544 717h-509q-39 0 -39 39v104q0 39 39 39h733q39 0 39 -39v-82q0 -30 -19 -55l-541 -711h519q41 0 41 -39v-104q0 -39 -41 -39h-746q-37 0 -37 39z" />
<glyph unicode="{" horiz-adv-x="755" d="M76 555v107q0 36 39 36h35q67 0 97 81q29 78 29 259q0 230 61 317q60 85 232 85h78q41 0 41 -37v-88q0 -39 -41 -39h-39q-84 0 -109 -58q-26 -60 -26 -210q0 -354 -162 -400q162 -50 162 -399q0 -150 26 -211q25 -59 109 -59h39q41 0 41 -39v-86q0 -39 -41 -39h-78 q-172 0 -232 85q-61 87 -61 318q0 181 -29 259q-30 81 -97 81h-35q-39 0 -39 37z" />
<glyph unicode="|" horiz-adv-x="589" d="M199 -186v1626q0 39 41 39h112q39 0 39 -39v-1626q0 -39 -39 -39h-112q-41 0 -41 39z" />
<glyph unicode="}" horiz-adv-x="755" d="M68 -100q0 39 41 39h38q85 0 110 59q26 61 26 211q0 350 163 399q-163 45 -163 400q0 150 -26 210q-25 58 -110 58h-38q-41 0 -41 39v88q0 37 41 37h79q173 0 233 -85t60 -317q0 -177 29 -259q28 -81 96 -81h35q39 0 39 -36v-107q0 -37 -39 -37h-35q-68 0 -96 -82 q-29 -84 -29 -260q0 -230 -60 -316q-60 -85 -233 -85h-79q-41 0 -41 39v86z" />
<glyph unicode="~" d="M147 659q10 100 71 162q60 62 147 62q84 0 204 -49l99 -41q93 -37 137 -37q64 0 98 65q4 6 9 20q2 5 5 11t3 8q11 30 45 14l82 -36q24 -10 22 -50q-10 -97 -72 -159t-149 -62q-79 0 -201 49l-92 39q-84 37 -141 37q-67 0 -101 -63q-9 -15 -16 -39q-11 -31 -47 -15l-80 37 q-24 11 -23 47z" />
<glyph unicode="&#xa1;" horiz-adv-x="604" d="M174 -207l39 815q5 39 39 39h100q34 0 39 -39l39 -815q5 -41 -39 -41h-178q-44 0 -39 41zM178 852v178q0 39 39 39h170q37 0 37 -39v-178q0 -39 -39 -39h-166q-41 0 -41 39z" />
<glyph unicode="&#xa2;" horiz-adv-x="1075" d="M98 535q0 241 126 387t337 168v145q0 39 39 39h76q39 0 39 -39v-145q147 -10 243 -66q33 -21 23 -47l-41 -92q-17 -39 -51 -23q-96 47 -225 47q-164 0 -255 -94q-92 -95 -92 -280q0 -373 347 -373q128 0 235 51q35 18 53 -20l39 -93q11 -31 -22 -49q-90 -55 -254 -67 v-150q0 -39 -39 -39h-76q-39 0 -39 39v150q-214 24 -339 166q-124 140 -124 385z" />
<glyph unicode="&#xa3;" horiz-adv-x="1378" d="M98 688v70q0 33 35 33h150q-88 151 -88 253q0 178 135 298t397 120q246 0 371 -102t125 -273q0 -92 -41 -92h-121q-19 0 -30 9q-9 7 -7 24q0 4 2 28t2 29q0 84 -76 136q-77 53 -217 53q-154 0 -238 -70q-83 -69 -83 -172q0 -77 86 -241h411q35 0 35 -33v-70 q0 -35 -35 -35h-360q53 -92 53 -170q0 -93 -52 -170q-53 -79 -151 -125q80 23 179 23q68 0 182 -20q108 -19 178 -19q98 0 133 44t41 136q4 39 43 39h98q45 0 45 -51q0 -176 -66 -265t-237 -89q-105 0 -239 26q-139 27 -230 27q-173 0 -299 -53q-38 -15 -51 4l-72 108 q-21 28 9 45q286 166 286 344q0 70 -57 166h-211q-35 0 -35 35z" />
<glyph unicode="&#xa4;" horiz-adv-x="1296" d="M178 156q-24 24 0 47l105 104q-88 106 -88 273q0 164 88 270l-105 106q-24 27 0 50l45 45q24 24 47 0l111 -111q107 72 266 72t266 -74l113 113q23 23 47 0l47 -45q27 -23 0 -50l-112 -108q90 -106 90 -268q0 -167 -90 -269l112 -108q23 -23 0 -47l-47 -45q-24 -23 -47 0 l-113 112q-101 -73 -266 -73t-266 73l-111 -112q-23 -24 -47 0zM358 580q0 -129 77 -203t212 -74t212 74t77 203q0 131 -77 203q-78 73 -212 73t-212 -73q-77 -72 -77 -203z" />
<glyph unicode="&#xa5;" horiz-adv-x="1327" d="M49 1424q8 16 33 16h154q34 0 55 -37l371 -672h6l370 672q21 37 56 37h151q25 0 33 -16q8 -15 -4 -33l-356 -607h235q35 0 35 -32v-68q0 -33 -35 -33h-303l-74 -123v-47h377q35 0 35 -32v-68q0 -33 -35 -33h-377v-307q0 -41 -41 -41h-143q-41 0 -41 41v307h-377 q-33 0 -33 33v68q0 32 33 32h377v47l-74 123h-303q-33 0 -33 33v68q0 32 33 32h236l-357 607q-12 18 -4 33z" />
<glyph unicode="&#xa6;" horiz-adv-x="589" d="M199 -186v602q0 39 41 39h112q39 0 39 -39v-602q0 -39 -39 -39h-112q-41 0 -41 39zM199 838v602q0 39 41 39h112q39 0 39 -39v-602q0 -39 -39 -39h-112q-41 0 -41 39z" />
<glyph unicode="&#xa7;" horiz-adv-x="1435" d="M186 645q-1 98 69 174t196 94q-94 52 -145 108q-50 55 -50 136q0 155 113 229t364 74q201 0 381 -47q36 -12 35 -49l-10 -92q-6 -39 -49 -27q-161 37 -324 37q-160 0 -227 -35q-66 -35 -66 -108q0 -65 115 -121q54 -25 227 -90q104 -38 175 -71q63 -29 130 -72 q65 -41 95 -94t30 -120q0 -92 -70 -156q-71 -65 -204 -93q217 -102 217 -256q0 -304 -533 -304q-258 0 -368 37q-37 12 -35 51l8 93q1 37 49 26q141 -30 328 -30q334 0 334 141q0 32 -21 61q-22 30 -65 53q-23 12 -80 37q-36 16 -100 36q-65 21 -91 32q-5 3 -26 10 q-39 15 -90.5 36t-53.5 22q-38 15 -106 50q-62 31 -87 60t-45 72q-20 45 -20 96zM391 653q0 -66 71 -107q68 -39 267 -106l25 -9l21 -7q4 -1 13 -3.5t13 -4.5q103 8 170 51q68 44 69 92q1 78 -97 130q-96 51 -320 124q-107 -7 -170 -52q-62 -44 -62 -108z" />
<glyph unicode="&#xa8;" horiz-adv-x="706" d="M59 1243v146q0 38 39 38h125q39 0 39 -38v-146q0 -37 -39 -37h-125q-39 0 -39 37zM444 1243v146q0 38 39 38h125q39 0 39 -38v-146q0 -37 -39 -37h-125q-39 0 -39 37z" />
<glyph unicode="&#xa9;" horiz-adv-x="1763" d="M111 721q0 314 204 527q205 214 566 214q360 0 565 -214t205 -527t-205 -527t-565 -214q-361 0 -566 214q-204 213 -204 527zM240 721q0 -266 168 -443q169 -178 473 -178q303 0 473 178t170 441q0 265 -170 444q-169 178 -473 178q-305 0 -473 -177t-168 -443zM473 727 q0 209 120 319q119 109 316 109q161 0 254 -59q24 -15 17 -37l-35 -84q-11 -31 -37 -17q-74 41 -176 41q-126 0 -200 -70q-75 -71 -75 -202q0 -130 75 -202t196 -72q102 0 186 41q26 15 39 -17l33 -82q6 -20 -17 -35q-110 -61 -262 -61q-191 0 -313 110q-121 109 -121 318z " />
<glyph unicode="&#xaa;" horiz-adv-x="952" d="M55 1231q0 63 21 111q22 49 64 80q44 32 94 53q44 19 126 30q77 11 142 15q66 5 160 6v53q0 85 -47 123q-46 37 -158 37q-127 0 -262 -56q-35 -17 -50 21l-30 82q-8 23 22 39q161 67 330 67q375 0 375 -305v-547q0 -41 -41 -41h-90q-43 0 -43 39l-2 76 q-82 -127 -314 -127q-137 0 -217 66t-80 178zM233 1241q0 -119 162 -119q128 0 198 59q69 59 69 148v70q-216 0 -322 -33q-107 -33 -107 -125z" />
<glyph unicode="&#xab;" horiz-adv-x="927" d="M72 565q0 13 6 21l170 278q17 29 49 29h115q20 0 26 -12q6 -13 -4 -29l-176 -287l176 -284q10 -14 4 -28q-6 -13 -26 -13h-115q-31 0 -49 28l-170 281q-6 12 -6 16zM453 565q0 9 6 21l170 278q17 29 49 29h115q44 0 20 -41l-174 -285l174 -286q10 -16 5 -29 q-5 -12 -25 -12h-115q-31 0 -49 28l-170 281q-6 7 -6 16z" />
<glyph unicode="&#xac;" horiz-adv-x="1234" d="M115 657v107q0 39 39 39h882q39 0 39 -39v-455q0 -39 -39 -39h-129q-41 0 -41 39v312h-712q-39 0 -39 36z" />
<glyph unicode="&#xad;" horiz-adv-x="806" d="M84 492v102q0 37 39 37h561q41 0 41 -37v-102q0 -37 -41 -37h-563q-37 0 -37 37z" />
<glyph unicode="&#xae;" horiz-adv-x="952" d="M121 1102q0 154 90 257t266 103q175 0 264 -102q88 -101 88 -258q0 -156 -88 -259q-89 -104 -264 -104q-176 0 -266 104q-90 103 -90 259zM193 1102q0 -132 69 -214q69 -83 215 -83q145 0 214 83q69 82 69 214t-69 214q-69 83 -214 83q-146 0 -215 -83q-69 -82 -69 -214z M330 922v368q0 19 18 19h146q81 0 128 -35q46 -34 46 -103q0 -102 -99 -120l95 -127q4 -6 1 -13q-3 -6 -12 -6h-61q-12 0 -23 13l-88 120h-63v-116q0 -17 -19 -17h-51q-18 0 -18 17zM418 1108h61q58 0 80 13q23 14 23 50q0 66 -97 66h-67v-129z" />
<glyph unicode="&#xaf;" horiz-adv-x="706" d="M18 1253v62q0 37 37 37h596q37 0 37 -37v-62q0 -36 -37 -36h-596q-37 0 -37 36z" />
<glyph unicode="&#xb0;" horiz-adv-x="759" d="M84 1171q0 128 82 207q83 80 215 80t215 -80q82 -79 82 -204q0 -127 -82 -208t-215 -81t-215 81t-82 205zM213 1171q0 -73 46 -119t122 -46t122 46t46 119q0 74 -46 120t-122 46t-122 -46t-46 -120z" />
<glyph unicode="&#xb1;" d="M119 37v74q0 39 39 39h901q39 0 39 -39v-74q0 -37 -39 -37h-901q-39 0 -39 37zM119 713v102q0 37 39 37h352v340q0 39 39 39h121q35 0 35 -39v-340h354q39 0 39 -37v-102q0 -35 -39 -35h-354v-348q0 -35 -35 -35h-121q-39 0 -39 35v348h-352q-39 0 -39 35z" />
<glyph unicode="&#xb2;" horiz-adv-x="874" d="M100 1630q0 119 80 191q78 71 248 71q172 0 251 -76t79 -196q0 -235 -391 -469h370q41 0 41 -41v-70q0 -41 -41 -41h-594q-41 0 -41 41v64q0 22 29 39q67 43 121 80q39 27 114 84q73 56 112 99q42 47 70 98q32 58 32 108q0 129 -158 129q-156 0 -156 -117q0 -2 2 -28 t2 -31q-4 -37 -39 -37h-86q-33 0 -39 33q-6 29 -6 69z" />
<glyph unicode="&#xb3;" horiz-adv-x="874" d="M84 1066q-6 9 0 26l27 69q17 40 55 25q114 -47 223 -47q184 0 184 125q0 114 -167 114h-101q-41 0 -41 41v60q0 43 41 43h103q151 0 151 112q0 109 -180 109q-92 0 -205 -43q-38 -15 -53 20l-29 70q-10 28 25 45q111 57 284 57q158 0 245 -59q89 -60 89 -178 q0 -133 -123 -189q140 -60 140 -206q0 -131 -92 -202t-252 -71q-176 0 -295 60q-24 11 -29 19z" />
<glyph unicode="&#xb4;" horiz-adv-x="706" d="M197 1218q-5 11 2 23l104 178q15 29 49 29h174q20 0 25 -15q5 -16 -10 -28l-187 -176q-23 -23 -53 -23h-80q-18 0 -24 12z" />
<glyph unicode="&#xb5;" horiz-adv-x="1222" d="M150 -186v1216q0 39 40 39h134q38 0 38 -39v-596q0 -124 78 -198q79 -74 203 -74q123 0 174 61t51 178v629q0 39 39 39h133q41 0 41 -39v-665q0 -390 -374 -390q-253 0 -345 181v-344q0 -37 -38 -37h-134q-40 0 -40 39z" />
<glyph unicode="&#xb6;" horiz-adv-x="1095" d="M96 993q0 213 138 330t370 117h430q39 0 39 -37v-62q0 -36 -39 -36h-80q-61 0 -85 -24q-23 -23 -23 -87v-1182q0 -125 -54 -185t-171 -60q-85 0 -136 22q-24 10 -22 35l4 63q1 27 35 27q12 0 42 -5t40 -5q96 0 96 127v514h-68q-226 0 -371 119t-145 329z" />
<glyph unicode="&#xb7;" horiz-adv-x="485" d="M125 457v174q0 39 41 39h153q41 0 41 -39v-174q0 -39 -38 -39h-158q-39 0 -39 39z" />
<glyph unicode="&#xb8;" horiz-adv-x="706" d="M276 -227q0 22 25 22h59q105 0 105 62q0 93 -182 159h90q97 -17 161 -68q66 -52 66 -122q0 -150 -213 -150q-61 0 -86 9q-25 6 -25 28v60z" />
<glyph unicode="&#xb9;" horiz-adv-x="874" d="M158 1651q-21 30 10 51l233 162q20 16 54 16h86q43 0 43 -41v-799q0 -41 -43 -41h-90q-41 0 -41 41v631l-152 -92q-37 -22 -59 10z" />
<glyph unicode="&#xba;" horiz-adv-x="995" d="M68 1440q0 223 113 337q114 115 317 115q202 0 316 -115q114 -116 114 -337q0 -222 -114 -336q-115 -115 -316 -115q-202 0 -317 115q-113 113 -113 336zM258 1440q0 -293 240 -293q239 0 239 293q0 295 -239 295q-240 0 -240 -295z" />
<glyph unicode="&#xbb;" horiz-adv-x="927" d="M109 252q-6 13 4 29l176 284l-176 287q-10 18 -4 30q5 11 26 11h117q30 0 47 -29l170 -278q6 -12 6 -21t-6 -16l-170 -281q-18 -28 -47 -28h-117q-20 0 -26 12zM489 252q-6 12 5 29l176 284l-176 287q-11 18 -5 30q5 11 25 11h117q32 0 49 -29l170 -278q6 -12 6 -21 t-6 -16l-170 -281q-18 -28 -49 -28h-117q-19 0 -25 12z" />
<glyph unicode="&#xbc;" horiz-adv-x="2056" d="M158 1210q-21 30 10 52l233 161q22 17 54 17h86q43 0 43 -41v-799q0 -41 -43 -41h-90q-41 0 -41 41v631l-152 -92q-37 -22 -59 10zM535 39l843 1368q18 33 54 33h110q44 0 23 -37l-846 -1368q-18 -35 -51 -35h-111q-46 0 -22 39zM1229 225v70q0 25 14 39l445 522 q22 25 45 25h94q41 0 41 -41v-502h94q43 0 43 -41v-70q0 -41 -43 -41h-94v-145q0 -41 -41 -41h-90q-43 0 -43 41v145h-424q-41 0 -41 39zM1411 338h283v334z" />
<glyph unicode="&#xbd;" horiz-adv-x="2056" d="M158 1210q-21 30 10 52l233 161q22 17 54 17h86q43 0 43 -41v-799q0 -41 -43 -41h-90q-41 0 -41 41v631l-152 -92q-37 -22 -59 10zM457 39l843 1368q18 33 54 33h110q44 0 23 -37l-846 -1368q-18 -35 -51 -35h-111q-46 0 -22 39zM1284 631q0 -41 6 -70q6 -33 39 -33h86 q35 0 39 37q0 6 -2 32t-2 28q0 116 156 116q157 0 157 -129q0 -51 -31 -107q-28 -51 -70 -98q-39 -44 -113 -100q-85 -65 -113 -84q-54 -37 -121 -80q-29 -17 -29 -39v-63q0 -41 41 -41h594q41 0 41 41v70q0 41 -41 41h-371q392 234 392 469q0 119 -79 195q-80 77 -251 77 q-168 0 -248 -72t-80 -190z" />
<glyph unicode="&#xbe;" horiz-adv-x="2056" d="M84 626q-6 9 0 25l27 70q16 39 55 24q114 -47 223 -47q184 0 184 125q0 115 -167 115h-101q-41 0 -41 41v59q0 43 41 43h103q151 0 151 113q0 109 -180 109q-92 0 -205 -43q-38 -15 -53 20l-29 70q-10 28 25 45q111 57 284 57q158 0 245 -59q89 -60 89 -179 q0 -132 -123 -188q140 -60 140 -207q0 -131 -92 -202q-91 -70 -252 -70q-178 0 -295 59q-23 11 -29 20zM569 39l844 1368q18 33 53 33h111q44 0 22 -37l-845 -1368q-18 -35 -52 -35h-110q-47 0 -23 39zM1229 225v70q0 25 14 39l445 522q22 25 45 25h94q41 0 41 -41v-502h94 q43 0 43 -41v-70q0 -41 -43 -41h-94v-145q0 -41 -41 -41h-90q-43 0 -43 41v145h-424q-41 0 -41 39zM1411 338h283v334z" />
<glyph unicode="&#xbf;" horiz-adv-x="978" d="M90 51q0 -159 107 -236t331 -77q226 0 383 80q35 17 25 45l-41 108q-11 35 -51 19q-148 -62 -281 -62q-143 0 -196 33q-54 34 -54 117q0 64 33 121t79 100q60 56 92 84q43 38 79 88q33 47 33 96v43q0 39 -39 39h-129q-41 0 -41 -39v-43q0 -39 -34 -79q-30 -35 -82 -79 q-54 -45 -97 -86q-48 -45 -83 -117q-34 -69 -34 -155zM403 852v178q0 39 39 39h168q39 0 39 -39v-178q0 -39 -39 -39h-168q-39 0 -39 39z" />
<glyph unicode="&#xc0;" horiz-adv-x="1384" d="M51 45l498 1354q8 23 18 32q11 9 35 9h180q25 0 34 -9q11 -11 18 -32l497 -1354q8 -19 -1 -32t-30 -13h-153q-33 0 -49 37l-113 309h-586l-114 -309q-12 -37 -45 -37h-156q-21 0 -30 13q-9 14 -3 32zM396 1774q4 16 24 16h174q32 0 49 -31l105 -178q6 -11 1 -23t-24 -12 h-80q-25 0 -55 25l-187 174q-12 12 -7 29zM457 543h469l-232 674h-4z" />
<glyph unicode="&#xc1;" horiz-adv-x="1384" d="M51 45l498 1354q8 23 18 32q11 9 35 9h180q25 0 34 -9q11 -11 18 -32l497 -1354q8 -19 -1 -32t-30 -13h-153q-33 0 -49 37l-113 309h-586l-114 -309q-12 -37 -45 -37h-156q-21 0 -30 13q-9 14 -3 32zM457 543h469l-232 674h-4zM635 1558q-6 12 0 23l104 178q19 31 52 31 h174q20 0 24 -16q5 -17 -10 -29l-186 -174q-19 -25 -56 -25h-78q-18 0 -24 12z" />
<glyph unicode="&#xc2;" horiz-adv-x="1384" d="M51 45l498 1354q8 23 18 32q11 9 35 9h180q25 0 34 -9q11 -11 18 -32l497 -1354q8 -19 -1 -32t-30 -13h-153q-33 0 -49 37l-113 309h-586l-114 -309q-12 -37 -45 -37h-156q-21 0 -30 13q-9 14 -3 32zM393 1560q-4 13 8 25l189 187q22 22 53 22h96q28 0 54 -22l186 -187 q14 -11 11 -25t-23 -14h-88q-21 0 -52 23l-135 104l-137 -104q-31 -23 -51 -23h-88q-18 0 -23 14zM457 543h469l-232 674h-4z" />
<glyph unicode="&#xc3;" horiz-adv-x="1384" d="M51 45l498 1354q8 23 18 32q11 9 35 9h180q25 0 34 -9q11 -11 18 -32l497 -1354q8 -19 -1 -32t-30 -13h-153q-33 0 -49 37l-113 309h-586l-114 -309q-12 -37 -45 -37h-156q-21 0 -30 13q-9 14 -3 32zM344 1591q0 70 38 114t116 44q80 0 180 -39l65 -24q75 -29 115 -29 q41 0 47 41l2 20q6 29 43 29h54q36 0 36 -53q0 -70 -38 -114t-115 -44q-75 0 -180 39l-60 20q-164 51 -170 -4l-2 -18q-5 -31 -41 -31h-55q-35 0 -35 49zM457 543h469l-232 674h-4z" />
<glyph unicode="&#xc4;" horiz-adv-x="1384" d="M51 45l498 1354q8 23 18 32q11 9 35 9h180q25 0 34 -9q11 -11 18 -32l497 -1354q8 -19 -1 -32t-30 -13h-153q-33 0 -49 37l-113 309h-586l-114 -309q-12 -37 -45 -37h-156q-21 0 -30 13q-9 14 -3 32zM389 1585v137q0 39 37 39h133q39 0 39 -39v-137q0 -39 -39 -39h-133 q-37 0 -37 39zM457 543h469l-232 674h-4zM786 1585v137q0 39 37 39h133q39 0 39 -39v-137q0 -39 -39 -39h-133q-37 0 -37 39z" />
<glyph unicode="&#xc5;" horiz-adv-x="1384" d="M51 45l492 1339q-74 57 -74 160q0 90 61 147q60 56 162 56t162 -56q61 -57 61 -147q0 -104 -77 -160l493 -1339q8 -19 -1 -32t-30 -13h-153q-33 0 -49 37l-113 309h-586l-114 -309q-12 -37 -45 -37h-156q-21 0 -30 13q-9 14 -3 32zM457 543h469l-232 674h-4zM578 1544 q0 -104 114 -104h10q103 6 103 104q0 50 -30 77q-31 28 -83 28q-114 0 -114 -105z" />
<glyph unicode="&#xc6;" horiz-adv-x="1810" d="M22 13q-9 14 1 32l690 1354q13 27 22 33q11 8 35 8h891q41 0 41 -41v-119q0 -41 -41 -41h-547v-408h524q39 0 39 -43v-106q0 -43 -39 -43h-524v-438h555q41 0 41 -39v-121q0 -41 -41 -41h-737q-41 0 -41 41v291h-475l-152 -295q-18 -37 -51 -37h-162q-20 0 -29 13z M498 524h391v719h-35z" />
<glyph unicode="&#xc7;" horiz-adv-x="1251" d="M111 721q0 359 169 550t476 191q224 0 372 -86q37 -21 27 -49l-45 -104q-15 -39 -55 -21q-121 58 -264 58q-451 0 -451 -539q0 -541 459 -541q146 0 270 68q37 15 55 -25l47 -106q12 -26 -28 -47q-147 -90 -377 -90h-4q119 -68 119 -168q0 -78 -58 -119t-164 -41 q-65 0 -86 10q-24 10 -24 29v63q0 23 26 23h60q104 0 104 67q0 84 -127 150q-240 40 -371 227q-130 185 -130 500z" />
<glyph unicode="&#xc8;" horiz-adv-x="1144" d="M168 41v1358q0 41 41 41h786q43 0 43 -41v-117q0 -41 -43 -41h-604v-410h582q39 0 39 -43v-106q0 -43 -39 -43h-582v-440h613q40 0 40 -39v-117q0 -43 -40 -43h-793q-43 0 -43 41zM394 1774q4 16 24 16h174q34 0 49 -31l104 -178q5 -11 1 -23t-23 -12h-80q-27 0 -55 25 l-187 174q-12 12 -7 29z" />
<glyph unicode="&#xc9;" horiz-adv-x="1144" d="M168 41v1358q0 41 41 41h786q43 0 43 -41v-117q0 -41 -43 -41h-604v-410h582q39 0 39 -43v-106q0 -43 -39 -43h-582v-440h613q40 0 40 -39v-117q0 -43 -40 -43h-793q-43 0 -43 41zM516 1558q-6 12 0 23l105 178q19 31 51 31h174q20 0 24 -16q5 -17 -10 -29l-186 -174 q-19 -25 -56 -25h-77q-19 0 -25 12z" />
<glyph unicode="&#xca;" horiz-adv-x="1144" d="M168 41v1358q0 41 41 41h786q43 0 43 -41v-117q0 -41 -43 -41h-604v-410h582q39 0 39 -43v-106q0 -43 -39 -43h-582v-440h613q40 0 40 -39v-117q0 -43 -40 -43h-793q-43 0 -43 41zM313 1560q-4 12 9 25l188 187q22 22 53 22h96q28 0 54 -22l186 -187q14 -11 11 -25 t-23 -14h-88q-20 0 -51 23l-136 104l-137 -104q-31 -23 -51 -23h-88q-18 0 -23 14z" />
<glyph unicode="&#xcb;" horiz-adv-x="1144" d="M168 41v1358q0 41 41 41h786q43 0 43 -41v-117q0 -41 -43 -41h-604v-410h582q39 0 39 -43v-106q0 -43 -39 -43h-582v-440h613q40 0 40 -39v-117q0 -43 -40 -43h-793q-43 0 -43 41zM307 1585v137q0 39 37 39h133q39 0 39 -39v-137q0 -39 -39 -39h-133q-37 0 -37 39z M705 1585v137q0 39 36 39h133q39 0 39 -39v-137q0 -39 -39 -39h-133q-36 0 -36 39z" />
<glyph unicode="&#xcc;" horiz-adv-x="587" d="M15 1774q4 16 24 16h174q32 0 49 -31l105 -178q6 -11 1 -23q-4 -12 -24 -12h-80q-25 0 -55 25l-186 174q-12 13 -8 29zM182 41v1358q0 41 39 41h144q43 0 43 -41v-1358q0 -41 -43 -41h-144q-39 0 -39 41z" />
<glyph unicode="&#xcd;" horiz-adv-x="587" d="M182 41v1358q0 41 39 41h144q43 0 43 -41v-1358q0 -41 -43 -41h-144q-39 0 -39 41zM223 1558q-6 12 0 23l105 178q19 31 51 31h174q21 0 25 -16q5 -17 -11 -29l-186 -174q-19 -25 -55 -25h-78q-19 0 -25 12z" />
<glyph unicode="&#xce;" horiz-adv-x="587" d="M-6 1560q-4 13 8 25l188 187q22 22 54 22h96q27 0 53 -22l187 -187q14 -11 11 -25t-24 -14h-88q-20 0 -51 23l-135 104l-137 -104q-31 -23 -52 -23h-88q-17 0 -22 14zM182 41v1358q0 41 39 41h144q43 0 43 -41v-1358q0 -41 -43 -41h-144q-39 0 -39 41z" />
<glyph unicode="&#xcf;" horiz-adv-x="587" d="M-10 1585v137q0 39 37 39h133q39 0 39 -39v-137q0 -39 -39 -39h-133q-37 0 -37 39zM182 41v1358q0 41 39 41h144q43 0 43 -41v-1358q0 -41 -43 -41h-144q-39 0 -39 41zM387 1585v137q0 39 37 39h133q39 0 39 -39v-137q0 -39 -39 -39h-133q-37 0 -37 39z" />
<glyph unicode="&#xd0;" horiz-adv-x="1406" d="M35 684v76q0 35 33 35h104v604q0 41 41 41h371q358 0 537 -165t179 -554t-177 -555q-176 -166 -535 -166h-373q-43 0 -43 41v610h-104q-33 0 -33 33zM397 205h185q249 0 369 111t120 405q0 291 -121 402q-123 112 -370 112h-183v-440h287q31 0 31 -35v-76q0 -33 -31 -33 h-287v-446z" />
<glyph unicode="&#xd1;" horiz-adv-x="1454" d="M168 41v1358q0 41 43 41h141q40 0 58 -29l655 -1036v1024q0 41 41 41h137q41 0 41 -39v-1360q0 -41 -41 -41h-143q-34 0 -56 31l-657 1034v-1024q0 -41 -39 -41h-137q-43 0 -43 41zM379 1591q0 70 38 114t115 44q80 0 181 -39l65 -24q75 -29 115 -29q41 0 47 41l2 20 q6 29 43 29h53q37 0 37 -53q0 -70 -38 -114t-115 -44q-76 0 -181 39l-59 20q-164 51 -170 -4l-2 -18q-6 -31 -41 -31h-55q-35 0 -35 49z" />
<glyph unicode="&#xd2;" horiz-adv-x="1468" d="M106 721q0 361 163 551t464 190q303 0 466 -190t163 -551q0 -364 -163 -552q-163 -189 -466 -189q-301 0 -464 189q-163 188 -163 552zM336 721q0 -543 397 -543q400 0 400 543t-400 543q-397 0 -397 -543zM470 1774q4 16 24 16h174q32 0 49 -31l104 -178q6 -11 1 -23 q-4 -12 -23 -12h-80q-25 0 -55 25l-187 174q-12 12 -7 29z" />
<glyph unicode="&#xd3;" horiz-adv-x="1468" d="M106 721q0 361 163 551t464 190q303 0 466 -190t163 -551q0 -364 -163 -552q-163 -189 -466 -189q-301 0 -464 189q-163 188 -163 552zM336 721q0 -543 397 -543q400 0 400 543t-400 543q-397 0 -397 -543zM662 1558q-6 12 0 23l104 178q19 31 51 31h174q21 0 25 -16 q5 -17 -10 -29l-187 -174q-19 -25 -55 -25h-78q-18 0 -24 12z" />
<glyph unicode="&#xd4;" horiz-adv-x="1468" d="M106 721q0 361 163 551t464 190q303 0 466 -190t163 -551q0 -364 -163 -552q-163 -189 -466 -189q-301 0 -464 189q-163 188 -163 552zM336 721q0 -543 397 -543q400 0 400 543t-400 543q-397 0 -397 -543zM436 1560q-4 13 8 25l189 187q22 22 53 22h96q28 0 54 -22 l186 -187q14 -11 11 -25t-23 -14h-88q-21 0 -52 23l-135 104l-137 -104q-31 -23 -51 -23h-88q-18 0 -23 14z" />
<glyph unicode="&#xd5;" horiz-adv-x="1468" d="M106 721q0 361 163 551t464 190q303 0 466 -190t163 -551q0 -364 -163 -552q-163 -189 -466 -189q-301 0 -464 189q-163 188 -163 552zM336 721q0 -543 397 -543q400 0 400 543t-400 543q-397 0 -397 -543zM387 1591q0 70 38 114t116 44q79 0 180 -39l65 -24 q75 -29 115 -29q41 0 47 41l2 20q6 29 43 29h54q36 0 36 -53q0 -71 -37 -114q-38 -44 -116 -44q-75 0 -180 39l-60 20q-164 51 -170 -4l-2 -18q-6 -31 -41 -31h-55q-35 0 -35 49z" />
<glyph unicode="&#xd6;" horiz-adv-x="1468" d="M106 721q0 361 163 551t464 190q303 0 466 -190t163 -551q0 -364 -163 -552q-163 -189 -466 -189q-301 0 -464 189q-163 188 -163 552zM336 721q0 -543 397 -543q400 0 400 543t-400 543q-397 0 -397 -543zM432 1585v137q0 39 37 39h133q39 0 39 -39v-137q0 -39 -39 -39 h-133q-37 0 -37 39zM829 1585v137q0 39 37 39h133q39 0 39 -39v-137q0 -39 -39 -39h-133q-37 0 -37 39z" />
<glyph unicode="&#xd7;" d="M176 401l301 301l-301 302q-24 29 0 53l76 76q28 29 57 0l299 -302l301 302q27 27 54 0l75 -76q27 -24 0 -53l-301 -302l301 -301q24 -24 0 -53l-75 -78q-25 -25 -54 2l-301 299l-301 -301q-28 -28 -55 0l-74 78q-27 28 -2 53z" />
<glyph unicode="&#xd8;" horiz-adv-x="1472" d="M102 115l115 129q-108 178 -108 477q0 362 162 551q163 190 466 190q259 0 416 -147l92 102q27 28 53 8l60 -49q30 -23 6 -53l-113 -129q113 -191 113 -473q0 -364 -163 -552q-163 -189 -464 -189q-271 0 -420 145l-98 -107q-29 -29 -53 -6l-60 54q-26 21 -4 49zM338 721 q0 -184 43 -285l633 711q-102 117 -277 117q-399 0 -399 -543zM455 291q55 -58 122 -86q65 -27 160 -27q199 0 298 139q100 141 100 404q0 155 -45 283z" />
<glyph unicode="&#xd9;" horiz-adv-x="1423" d="M158 514v885q0 41 41 41h141q43 0 43 -41v-867q0 -352 328 -352q329 0 329 352v867q0 41 41 41h144q39 0 39 -41v-885q0 -258 -139 -399q-138 -140 -414 -140q-277 0 -415 140q-138 139 -138 399zM468 1774q4 16 24 16h174q34 0 49 -31l104 -178q6 -11 1 -23 q-4 -12 -23 -12h-80q-27 0 -55 25l-187 174q-12 12 -7 29z" />
<glyph unicode="&#xda;" horiz-adv-x="1423" d="M158 514v885q0 41 41 41h141q43 0 43 -41v-867q0 -352 328 -352q329 0 329 352v867q0 41 41 41h144q39 0 39 -41v-885q0 -258 -139 -399q-138 -140 -414 -140q-277 0 -415 140q-138 139 -138 399zM602 1558q-6 12 0 23l105 178q19 31 51 31h174q20 0 24 -16 q5 -17 -10 -29l-186 -174q-19 -25 -55 -25h-78q-19 0 -25 12z" />
<glyph unicode="&#xdb;" horiz-adv-x="1423" d="M158 514v885q0 41 41 41h141q43 0 43 -41v-867q0 -352 328 -352q329 0 329 352v867q0 41 41 41h144q39 0 39 -41v-885q0 -258 -139 -399q-138 -140 -414 -140q-277 0 -415 140q-138 139 -138 399zM414 1560q-4 13 8 25l188 187q22 22 54 22h96q27 0 53 -22l186 -187 q15 -12 12 -25q-3 -14 -24 -14h-88q-20 0 -51 23l-135 104l-138 -104q-31 -23 -51 -23h-88q-17 0 -22 14z" />
<glyph unicode="&#xdc;" horiz-adv-x="1423" d="M158 514v885q0 41 41 41h141q43 0 43 -41v-867q0 -352 328 -352q329 0 329 352v867q0 41 41 41h144q39 0 39 -41v-885q0 -258 -139 -399q-138 -140 -414 -140q-277 0 -415 140q-138 139 -138 399zM410 1585v137q0 39 36 39h134q38 0 38 -39v-137q0 -39 -38 -39h-134 q-36 0 -36 39zM807 1585v137q0 39 37 39h133q39 0 39 -39v-137q0 -39 -39 -39h-133q-37 0 -37 39z" />
<glyph unicode="&#xdd;" horiz-adv-x="1331" d="M59 1423q8 17 31 17h154q34 0 55 -37l260 -477l107 -209l106 209l262 477q15 37 53 37h154q22 0 30 -17q7 -15 -1 -32l-492 -861v-489q0 -41 -41 -41h-143q-41 0 -41 41v489l-492 861q-10 15 -2 32zM592 1558q-6 12 0 23l104 178q19 31 52 31h174q20 0 24 -16 q5 -17 -10 -29l-186 -174q-19 -25 -56 -25h-78q-18 0 -24 12z" />
<glyph unicode="&#xde;" horiz-adv-x="1296" d="M168 41v1358q0 41 43 41h139q43 0 43 -41v-127h207q298 0 441 -114t143 -374q0 -259 -143 -373t-439 -114h-209v-256q0 -41 -43 -41h-141q-41 0 -41 41zM393 496h207q195 0 276 65q82 66 82 225q0 158 -84 223q-83 64 -274 64h-207v-577z" />
<glyph unicode="&#xdf;" horiz-adv-x="1325" d="M158 37v1048q0 189 132 284q133 95 361 95q217 0 329 -86t112 -221q0 -77 -45 -139q-44 -60 -100 -91q-48 -26 -99 -59q-45 -28 -45 -51q0 -21 45 -45q60 -32 108 -56q64 -32 127 -77q65 -46 109 -126q45 -81 45 -183q0 -165 -104 -254q-105 -90 -318 -90q-142 0 -205 14 q-45 10 -45 37v94q0 41 39 35q99 -12 139 -12q131 0 208 50t77 146q0 72 -44 133q-44 60 -107 98q-54 32 -128 70q-68 35 -109 73q-44 41 -44 87q0 41 45 79q44 37 100 64t101 72t45 98q0 70 -60 119q-59 49 -188 49q-126 0 -201 -56q-76 -57 -76 -169v-1030q0 -37 -36 -37 h-129q-39 0 -39 37z" />
<glyph unicode="&#xe0;" horiz-adv-x="1157" d="M78 285q0 86 37 150q39 67 97 103q61 38 158 62q104 26 199 34q108 10 242 11v53q0 113 -59 165t-197 52q-165 0 -319 -65q-34 -12 -48 24l-30 99q-7 28 22 43q169 78 398 78q226 0 333 -98t107 -289v-668q0 -39 -41 -39h-117q-34 0 -39 35l-4 129q-107 -182 -385 -182 q-167 0 -260 80q-94 81 -94 223zM283 297q0 -70 53 -114t151 -44q156 0 240 78t84 195v90q-114 -4 -212 -13q-84 -8 -162 -28q-80 -21 -118 -62q-36 -39 -36 -102zM335 1433q5 15 23 15h174q33 0 50 -29l104 -178q8 -12 1 -23q-7 -12 -23 -12h-80q-31 0 -56 23l-186 176 q-12 12 -7 28z" />
<glyph unicode="&#xe1;" horiz-adv-x="1157" d="M78 285q0 86 37 150q39 67 97 103q61 38 158 62q104 26 199 34q108 10 242 11v53q0 113 -59 165t-197 52q-165 0 -319 -65q-34 -12 -48 24l-30 99q-7 28 22 43q169 78 398 78q226 0 333 -98t107 -289v-668q0 -39 -41 -39h-117q-34 0 -39 35l-4 129q-107 -182 -385 -182 q-167 0 -260 80q-94 81 -94 223zM283 297q0 -70 53 -114t151 -44q156 0 240 78t84 195v90q-114 -4 -212 -13q-84 -8 -162 -28q-80 -21 -118 -62q-36 -39 -36 -102zM467 1218q-5 11 2 23l104 178q15 29 50 29h174q19 0 24 -15q5 -16 -10 -28l-186 -176q-23 -23 -54 -23h-79 q-19 0 -25 12z" />
<glyph unicode="&#xe2;" horiz-adv-x="1157" d="M78 285q0 86 37 150q39 67 97 103q61 38 158 62q104 26 199 34q108 10 242 11v53q0 113 -59 165t-197 52q-165 0 -319 -65q-34 -12 -48 24l-30 99q-7 28 22 43q169 78 398 78q226 0 333 -98t107 -289v-668q0 -39 -41 -39h-117q-34 0 -39 35l-4 129q-107 -182 -385 -182 q-167 0 -260 80q-94 81 -94 223zM274 1219q-4 11 9 24l192 193q22 22 53 22h97q31 0 53 -22l192 -193q8 -9 10 -16t-6 -15q-6 -6 -18 -6h-88q-20 0 -49 23l-141 110l-144 -110q-29 -23 -49 -23h-88q-18 0 -23 13zM283 297q0 -70 53 -114t151 -44q156 0 240 78t84 195v90 q-114 -4 -212 -13q-84 -8 -162 -28q-80 -21 -118 -62q-36 -39 -36 -102z" />
<glyph unicode="&#xe3;" horiz-adv-x="1157" d="M78 285q0 86 37 150q39 67 97 103q61 38 158 62q104 26 199 34q108 10 242 11v53q0 113 -59 165t-197 52q-165 0 -319 -65q-34 -12 -48 24l-30 99q-7 28 22 43q169 78 398 78q226 0 333 -98t107 -289v-668q0 -39 -41 -39h-117q-34 0 -39 35l-4 129q-107 -182 -385 -182 q-167 0 -260 80q-94 81 -94 223zM244 1255q0 150 139 150q69 0 176 -39l59 -20q79 -27 105 -27q41 0 43 41l2 14q6 31 41 31h55q33 0 33 -51q0 -150 -139 -150q-75 0 -176 37l-58 21q-135 51 -147 -7l-4 -18q-6 -29 -41 -29h-53q-35 0 -35 47zM283 297q0 -70 53 -114 t151 -44q156 0 240 78t84 195v90q-114 -4 -212 -13q-84 -8 -162 -28q-80 -21 -118 -62q-36 -39 -36 -102z" />
<glyph unicode="&#xe4;" horiz-adv-x="1157" d="M78 285q0 86 37 150q39 67 97 103q61 38 158 62q104 26 199 34q108 10 242 11v53q0 113 -59 165t-197 52q-165 0 -319 -65q-34 -12 -48 24l-30 99q-7 28 22 43q169 78 398 78q226 0 333 -98t107 -289v-668q0 -39 -41 -39h-117q-34 0 -39 35l-4 129q-107 -182 -385 -182 q-167 0 -260 80q-94 81 -94 223zM276 1243v146q0 38 39 38h125q39 0 39 -38v-146q0 -37 -39 -37h-125q-39 0 -39 37zM283 297q0 -70 53 -114t151 -44q156 0 240 78t84 195v90q-114 -4 -212 -13q-84 -8 -162 -28q-80 -21 -118 -62q-36 -39 -36 -102zM662 1243v146q0 38 38 38 h125q39 0 39 -38v-146q0 -37 -39 -37h-125q-38 0 -38 37z" />
<glyph unicode="&#xe5;" horiz-adv-x="1157" d="M78 285q0 86 37 150q39 67 97 103q61 38 158 62q104 26 199 34q108 10 242 11v53q0 113 -59 165t-197 52q-165 0 -319 -65q-34 -12 -48 24l-30 99q-7 28 22 43q169 78 398 78q226 0 333 -98t107 -289v-668q0 -39 -41 -39h-117q-34 0 -39 35l-4 129q-107 -182 -385 -182 q-167 0 -260 80q-94 81 -94 223zM283 297q0 -70 53 -114t151 -44q156 0 240 78t84 195v90q-114 -4 -212 -13q-84 -8 -162 -28q-80 -21 -118 -62q-36 -39 -36 -102zM354 1397q0 89 62 145q61 55 159 55q101 0 163 -56q63 -57 63 -144q0 -90 -63 -147q-62 -56 -160 -56 q-102 0 -162 56q-62 57 -62 147zM461 1397q0 -51 31 -79t86 -28q53 0 84 29q30 29 30 78q0 47 -32 74q-33 28 -85 28t-83 -28t-31 -74z" />
<glyph unicode="&#xe6;" horiz-adv-x="1865" d="M78 287q0 74 22 130t74 91q50 34 109 57q57 23 150 33q76 9 174 14q72 4 204 4v109q-4 190 -252 190q-173 0 -330 -65q-33 -12 -47 24l-35 99q-7 28 25 43q196 78 393 78q318 0 375 -201q47 95 145 147q102 54 230 54q210 0 331 -135q119 -132 119 -353v-114 q0 -39 -41 -39h-708q15 -143 109 -226q95 -84 243 -84q134 0 264 64q34 16 49 -23l33 -88q8 -25 -24 -47q-51 -28 -149 -51q-100 -23 -187 -23q-162 0 -281 67q-116 65 -155 171q-117 -231 -447 -231q-393 0 -393 305zM283 297q0 -154 215 -154q156 0 235 78q80 78 80 197 v53q-311 -6 -401 -33q-128 -39 -129 -141zM1012 606h555v15q0 139 -67 223q-66 82 -200 82q-124 0 -202 -84q-79 -85 -86 -236z" />
<glyph unicode="&#xe7;" horiz-adv-x="1038" d="M98 539q0 265 143 410t380 145q183 0 301 -66q34 -21 24 -49l-41 -94q-15 -35 -55 -19q-90 43 -205 43q-156 0 -243 -92q-87 -91 -87 -278t87 -282t235 -95q117 0 229 53q38 18 52 -18l38 -97q11 -29 -26 -49q-42 -26 -127 -49q-82 -22 -170 -22q117 -60 117 -154 q0 -150 -213 -150q-61 0 -86 9q-25 6 -25 28v60q0 22 25 22h59q104 0 104 62q0 79 -127 139q-182 39 -285 178q-104 140 -104 365z" />
<glyph unicode="&#xe8;" horiz-adv-x="1177" d="M98 532q0 267 135 414q136 148 369 148q227 0 352 -139t125 -365v-101q0 -38 -41 -38h-729q12 -140 110 -224q97 -84 253 -84q149 0 268 64q34 21 51 -23l33 -84q11 -30 -27 -47q-151 -78 -340 -78q-261 0 -410 149t-149 408zM305 602h578v10q0 144 -72 229t-207 85 q-278 0 -299 -324zM347 1433q5 15 24 15h174q32 0 49 -29l104 -178q8 -12 1 -23q-7 -12 -23 -12h-80q-30 0 -55 23l-187 176q-12 12 -7 28z" />
<glyph unicode="&#xe9;" horiz-adv-x="1177" d="M98 532q0 267 135 414q136 148 369 148q227 0 352 -139t125 -365v-101q0 -38 -41 -38h-729q12 -140 110 -224q97 -84 253 -84q149 0 268 64q34 21 51 -23l33 -84q11 -30 -27 -47q-151 -78 -340 -78q-261 0 -410 149t-149 408zM305 602h578v10q0 144 -72 229t-207 85 q-278 0 -299 -324zM494 1218q-6 11 2 23l104 178q15 29 49 29h174q21 0 25 -15q5 -16 -10 -28l-187 -176q-23 -23 -53 -23h-80q-18 0 -24 12z" />
<glyph unicode="&#xea;" horiz-adv-x="1177" d="M98 532q0 267 135 414q136 148 369 148q227 0 352 -139t125 -365v-101q0 -38 -41 -38h-729q12 -140 110 -224q97 -84 253 -84q149 0 268 64q34 21 51 -23l33 -84q11 -30 -27 -47q-151 -78 -340 -78q-261 0 -410 149t-149 408zM299 1219q-4 12 8 24l193 193q22 22 53 22 h96q31 0 53 -22l193 -193q7 -7 9 -16q2 -8 -5 -15q-6 -6 -18 -6h-88q-21 0 -50 23l-141 110l-143 -110q-29 -23 -49 -23h-88q-18 0 -23 13zM305 602h578v10q0 144 -72 229t-207 85q-278 0 -299 -324z" />
<glyph unicode="&#xeb;" horiz-adv-x="1177" d="M98 532q0 267 135 414q136 148 369 148q227 0 352 -139t125 -365v-101q0 -38 -41 -38h-729q12 -140 110 -224q97 -84 253 -84q149 0 268 64q34 21 51 -23l33 -84q11 -30 -27 -47q-151 -78 -340 -78q-261 0 -410 149t-149 408zM305 602h578v10q0 144 -72 229t-207 85 q-278 0 -299 -324zM307 1243v146q0 38 39 38h125q39 0 39 -38v-146q0 -37 -39 -37h-125q-39 0 -39 37zM692 1243v146q0 38 39 38h125q39 0 39 -38v-146q0 -37 -39 -37h-125q-39 0 -39 37z" />
<glyph unicode="&#xec;" horiz-adv-x="522" d="M-13 1433q5 15 23 15h174q32 0 49 -29l105 -178q8 -12 1 -23q-7 -12 -24 -12h-79q-31 0 -56 23l-186 176q-12 12 -7 28zM156 39v991q0 39 39 39h133q39 0 39 -39v-991q0 -39 -39 -39h-133q-39 0 -39 39z" />
<glyph unicode="&#xed;" horiz-adv-x="522" d="M156 39v991q0 39 39 39h133q39 0 39 -39v-991q0 -39 -39 -39h-133q-39 0 -39 39zM184 1218q-6 11 2 23l105 178q15 29 49 29h174q20 0 25 -15t-11 -28l-186 -176q-23 -23 -53 -23h-80q-19 0 -25 12z" />
<glyph unicode="&#xee;" horiz-adv-x="522" d="M-41 1219q-4 12 8 24l193 193q22 22 53 22h96q31 0 53 -22l193 -193q7 -7 9 -16q2 -8 -5 -15q-6 -6 -18 -6h-88q-21 0 -50 23l-141 110l-143 -110q-29 -23 -49 -23h-88q-18 0 -23 13zM156 39v991q0 39 39 39h133q39 0 39 -39v-991q0 -39 -39 -39h-133q-39 0 -39 39z" />
<glyph unicode="&#xef;" horiz-adv-x="522" d="M-33 1243v146q0 38 39 38h125q39 0 39 -38v-146q0 -37 -39 -37h-125q-39 0 -39 37zM156 39v991q0 39 39 39h133q39 0 39 -39v-991q0 -39 -39 -39h-133q-39 0 -39 39zM352 1243v146q0 38 39 38h125q39 0 39 -38v-146q0 -37 -39 -37h-125q-39 0 -39 37z" />
<glyph unicode="&#xf0;" horiz-adv-x="1228" d="M98 532q0 264 139 409q138 144 365 144q174 0 252 -77q-52 103 -127 186h-299q-35 0 -35 35v47q0 33 35 33h207q-40 42 -125 92q-18 11 -14 24q4 15 22 15h139q35 0 60 -19q57 -42 119 -112h198q33 0 33 -33v-47q0 -35 -33 -35h-121q222 -305 222 -655q0 -270 -140 -415 q-140 -144 -379 -144t-378 144q-140 145 -140 408zM315 532q0 -188 78 -282t223 -94q143 0 223 95q79 94 79 281q0 189 -79 287q-79 99 -223 99q-145 0 -223 -98t-78 -288z" />
<glyph unicode="&#xf1;" horiz-adv-x="1230" d="M150 39v991q0 39 36 39h127q39 0 39 -35l6 -123q100 183 355 183q187 0 282 -104t95 -288v-663q0 -39 -41 -39h-134q-38 0 -38 39v629q0 117 -56 178q-55 59 -178 59q-131 0 -207 -76t-76 -202v-588q0 -39 -38 -39h-136q-36 0 -36 39zM289 1255q0 150 139 150 q70 0 176 -39l60 -20q80 -27 104 -27q41 0 43 41l2 14q6 31 41 31h55q33 0 33 -51q0 -150 -139 -150q-75 0 -176 37l-58 21q-135 51 -147 -7l-4 -18q-6 -29 -41 -29h-53q-35 0 -35 47z" />
<glyph unicode="&#xf2;" horiz-adv-x="1232" d="M98 537q0 -268 139 -413q138 -144 379 -144q239 0 379 144q140 145 140 413q0 267 -140 412t-379 145q-238 0 -378 -145t-140 -412zM315 537q0 191 78 285q79 96 223 96q142 0 223 -96q79 -94 79 -285q0 -192 -79 -286q-80 -95 -223 -95q-145 0 -223 95q-78 94 -78 286z M361 1433q5 15 24 15h174q32 0 49 -29l105 -178q8 -12 1 -23q-8 -12 -24 -12h-80q-30 0 -55 23l-186 176q-13 13 -8 28z" />
<glyph unicode="&#xf3;" horiz-adv-x="1232" d="M98 537q0 -268 139 -413q138 -144 379 -144q239 0 379 144q140 145 140 413q0 267 -140 412t-379 145q-238 0 -378 -145t-140 -412zM315 537q0 191 78 285q79 96 223 96q142 0 223 -96q79 -94 79 -285q0 -192 -79 -286q-80 -95 -223 -95q-145 0 -223 95q-78 94 -78 286z M516 1218q-5 11 2 23l105 178q15 29 49 29h174q20 0 24 -15q5 -16 -10 -28l-186 -176q-23 -23 -53 -23h-80q-19 0 -25 12z" />
<glyph unicode="&#xf4;" horiz-adv-x="1232" d="M98 537q0 -268 139 -413q138 -144 379 -144q239 0 379 144q140 145 140 413q0 267 -140 412t-379 145q-238 0 -378 -145t-140 -412zM313 1219q-4 11 9 24l192 193q22 22 53 22h97q31 0 53 -22l192 -193q9 -9 10 -16t-6 -15q-6 -6 -18 -6h-88q-20 0 -49 23l-142 110 l-143 -110q-29 -23 -49 -23h-88q-18 0 -23 13zM315 537q0 191 78 285q79 96 223 96q142 0 223 -96q79 -94 79 -285q0 -192 -79 -286q-80 -95 -223 -95q-145 0 -223 95q-78 94 -78 286z" />
<glyph unicode="&#xf5;" horiz-adv-x="1232" d="M98 537q0 267 140 412t378 145q239 0 379 -145t140 -412q0 -268 -140 -413q-140 -144 -379 -144q-241 0 -379 144q-139 145 -139 413zM289 1255q0 150 139 150q70 0 176 -39l60 -20q80 -27 104 -27q41 0 43 41l2 14q6 31 41 31h55q33 0 33 -51q0 -150 -139 -150 q-75 0 -176 37l-58 21q-135 51 -147 -7l-4 -18q-6 -29 -41 -29h-53q-35 0 -35 47zM315 537q0 -192 78 -286q78 -95 223 -95q143 0 223 95q79 94 79 286q0 191 -79 285q-81 96 -223 96q-144 0 -223 -96q-78 -94 -78 -285z" />
<glyph unicode="&#xf6;" horiz-adv-x="1232" d="M98 537q0 -268 139 -413q138 -144 379 -144q239 0 379 144q140 145 140 413q0 267 -140 412t-379 145q-238 0 -378 -145t-140 -412zM315 537q0 191 78 285q79 96 223 96q142 0 223 -96q79 -94 79 -285q0 -192 -79 -286q-80 -95 -223 -95q-145 0 -223 95q-78 94 -78 286z M322 1243v146q0 38 38 38h125q39 0 39 -38v-146q0 -37 -39 -37h-125q-38 0 -38 37zM707 1243v146q0 38 38 38h125q39 0 39 -38v-146q0 -37 -39 -37h-125q-38 0 -38 37z" />
<glyph unicode="&#xf7;" d="M127 659v91q0 38 39 38h885q39 0 39 -38v-91q0 -38 -39 -38h-887q-37 0 -37 38zM494 238v165q0 39 38 39h152q39 0 39 -39v-165q0 -41 -39 -41h-152q-38 0 -38 41zM494 1006v165q0 39 38 39h152q39 0 39 -39v-165q0 -41 -39 -41h-152q-38 0 -38 41z" />
<glyph unicode="&#xf8;" horiz-adv-x="1241" d="M102 537q0 267 140 412t379 145q197 0 325 -99l55 64q29 31 58 8l39 -33q27 -24 6 -49l-68 -82q103 -138 103 -366q0 -268 -140 -413q-139 -144 -378 -144q-200 0 -324 94l-59 -66q-27 -29 -56 -6l-39 33q-29 24 -6 51l68 82q-103 136 -103 369zM319 537q0 -133 39 -205 l461 516q-78 70 -198 70q-145 0 -224 -96q-78 -94 -78 -285zM424 221q77 -65 197 -65q142 0 222 95q79 94 79 286q0 123 -37 200z" />
<glyph unicode="&#xf9;" horiz-adv-x="1214" d="M135 367v663q0 39 39 39h133q39 0 39 -39v-627q0 -239 223 -239q127 0 205 75t78 199v592q0 39 39 39h135q37 0 37 -39v-991q0 -39 -37 -39h-129q-39 0 -39 35l-4 123q-99 -178 -346 -178q-373 0 -373 387zM359 1433q5 15 24 15h174q32 0 49 -29l105 -178q8 -12 1 -23 q-8 -12 -24 -12h-80q-30 0 -55 23l-186 176q-13 13 -8 28z" />
<glyph unicode="&#xfa;" horiz-adv-x="1214" d="M135 367v663q0 39 39 39h133q39 0 39 -39v-627q0 -239 223 -239q127 0 205 75t78 199v592q0 39 39 39h135q37 0 37 -39v-991q0 -39 -37 -39h-129q-39 0 -39 35l-4 123q-99 -178 -346 -178q-373 0 -373 387zM500 1218q-6 11 2 23l104 178q15 29 49 29h174q21 0 25 -15 q5 -16 -10 -28l-187 -176q-23 -23 -53 -23h-80q-18 0 -24 12z" />
<glyph unicode="&#xfb;" horiz-adv-x="1214" d="M135 367v663q0 39 39 39h133q39 0 39 -39v-627q0 -239 223 -239q127 0 205 75t78 199v592q0 39 39 39h135q37 0 37 -39v-991q0 -39 -37 -39h-129q-39 0 -39 35l-4 123q-99 -178 -346 -178q-373 0 -373 387zM305 1219q-4 12 8 24l193 193q22 22 53 22h96q32 0 54 -22 l192 -193q7 -7 9 -16q2 -8 -5 -15q-6 -6 -18 -6h-88q-20 0 -49 23l-142 110l-143 -110q-29 -23 -49 -23h-88q-18 0 -23 13z" />
<glyph unicode="&#xfc;" horiz-adv-x="1214" d="M135 367v663q0 39 39 39h133q39 0 39 -39v-627q0 -239 223 -239q127 0 205 75t78 199v592q0 39 39 39h135q37 0 37 -39v-991q0 -39 -37 -39h-129q-39 0 -39 35l-4 123q-99 -178 -346 -178q-373 0 -373 387zM313 1243v146q0 38 39 38h125q39 0 39 -38v-146q0 -37 -39 -37 h-125q-39 0 -39 37zM698 1243v146q0 38 39 38h125q39 0 39 -38v-146q0 -37 -39 -37h-125q-39 0 -39 37z" />
<glyph unicode="&#xfd;" horiz-adv-x="1060" d="M51 1026q-15 43 29 43h141q30 0 45 -37l189 -512l98 -309h4l88 309l154 512q10 37 43 37h141q46 0 31 -43l-324 -948q-60 -178 -132 -246q-73 -68 -232 -68q-94 0 -168 23q-38 15 -33 39l20 98q6 35 39 29l37 -6q40 -8 72 -8q67 0 100 26q35 27 35 74q0 35 -14 63z M434 1218q-6 11 2 23l105 178q15 29 49 29h174q20 0 24 -15q5 -16 -10 -28l-186 -176q-23 -23 -53 -23h-80q-19 0 -25 12z" />
<glyph unicode="&#xfe;" horiz-adv-x="1292" d="M154 -186v1589q0 37 39 37h135q39 0 39 -37v-498q44 90 141 139q100 50 219 50q218 0 343 -142q124 -140 124 -415t-123 -416t-344 -141q-276 0 -360 184v-350q0 -39 -39 -39h-135q-39 0 -39 39zM367 537q0 -190 79 -285q80 -96 230 -96q151 0 226 91t75 290 q0 198 -75 288t-226 90q-150 0 -230 -95q-79 -94 -79 -283z" />
<glyph unicode="&#xff;" horiz-adv-x="1060" d="M51 1026q-15 43 29 43h141q30 0 45 -37l189 -512l98 -309h4l88 309l154 512q10 37 43 37h141q46 0 31 -43l-324 -948q-60 -178 -132 -246q-73 -68 -232 -68q-94 0 -168 23q-38 15 -33 39l20 98q6 35 39 29l37 -6q40 -8 72 -8q67 0 100 26q35 27 35 74q0 35 -14 63z M236 1243v146q0 38 38 38h125q39 0 39 -38v-146q0 -37 -39 -37h-125q-38 0 -38 37zM621 1243v146q0 38 38 38h125q39 0 39 -38v-146q0 -37 -39 -37h-125q-38 0 -38 37z" />
<glyph unicode="&#x152;" horiz-adv-x="1906" d="M176 721q0 392 172 555q173 164 529 164h880q43 0 43 -41v-119q0 -41 -43 -41h-553v-408h531q39 0 39 -43v-106q0 -43 -39 -43h-531v-438h561q41 0 41 -39v-121q0 -41 -41 -41h-891q-356 0 -527 165t-171 556zM406 721q0 -296 113 -406t360 -110h108v1030h-106 q-247 0 -362 -110q-113 -109 -113 -404z" />
<glyph unicode="&#x153;" horiz-adv-x="1933" d="M98 537q0 265 135 411t363 146q136 0 241 -55q102 -53 158 -154q108 209 379 209q209 0 335 -138q124 -136 124 -350v-102q0 -37 -41 -37h-700q11 -147 105 -235q95 -89 239 -89q137 0 260 64q38 18 53 -23l33 -88q11 -24 -21 -43q-151 -78 -340 -78q-141 0 -253 59 t-169 161q-53 -101 -158 -158t-241 -57q-230 0 -366 145t-136 412zM315 537q0 -190 76 -285q77 -96 211 -96t211 96q76 95 76 285q0 186 -76 283q-77 98 -211 98t-211 -98q-76 -97 -76 -283zM1090 616h544v13q0 133 -68 214q-69 83 -194 83q-121 0 -198 -80 q-76 -79 -84 -230z" />
<glyph unicode="&#x178;" horiz-adv-x="1331" d="M59 1423q8 17 31 17h154q34 0 55 -37l260 -477l107 -209l106 209l262 477q15 37 53 37h154q22 0 30 -17q7 -15 -1 -32l-492 -861v-489q0 -41 -41 -41h-143q-41 0 -41 41v489l-492 861q-10 15 -2 32zM362 1585v137q0 39 37 39h133q39 0 39 -39v-137q0 -39 -39 -39h-133 q-37 0 -37 39zM760 1585v137q0 39 37 39h133q39 0 39 -39v-137q0 -39 -39 -39h-133q-37 0 -37 39z" />
<glyph unicode="&#x2c6;" horiz-adv-x="706" d="M51 1219q-4 12 8 24l193 193q22 22 53 22h96q32 0 54 -22l192 -193q7 -7 9 -16q2 -8 -5 -15q-6 -6 -18 -6h-88q-20 0 -49 23l-142 110l-143 -110q-29 -23 -49 -23h-88q-18 0 -23 13z" />
<glyph unicode="&#x2dc;" horiz-adv-x="706" d="M27 1255q0 150 139 150q70 0 176 -39l59 -20q80 -27 105 -27q41 0 43 41l2 14q6 31 41 31h55q33 0 33 -51q0 -150 -139 -150q-75 0 -176 37l-58 21q-135 51 -147 -7l-4 -18q-6 -29 -41 -29h-54q-34 0 -34 47z" />
<glyph unicode="&#x2000;" horiz-adv-x="946" />
<glyph unicode="&#x2001;" horiz-adv-x="1892" />
<glyph unicode="&#x2002;" horiz-adv-x="946" />
<glyph unicode="&#x2003;" horiz-adv-x="1892" />
<glyph unicode="&#x2004;" horiz-adv-x="630" />
<glyph unicode="&#x2005;" horiz-adv-x="473" />
<glyph unicode="&#x2006;" horiz-adv-x="315" />
<glyph unicode="&#x2007;" horiz-adv-x="315" />
<glyph unicode="&#x2008;" horiz-adv-x="236" />
<glyph unicode="&#x2009;" horiz-adv-x="378" />
<glyph unicode="&#x200a;" horiz-adv-x="105" />
<glyph unicode="&#x2010;" horiz-adv-x="808" d="M84 492v102q0 37 39 37h561q41 0 41 -37v-102q0 -37 -41 -37h-563q-37 0 -37 37z" />
<glyph unicode="&#x2011;" horiz-adv-x="808" d="M84 492v102q0 37 39 37h561q41 0 41 -37v-102q0 -37 -41 -37h-563q-37 0 -37 37z" />
<glyph unicode="&#x2012;" horiz-adv-x="808" d="M84 492v102q0 37 39 37h561q41 0 41 -37v-102q0 -37 -41 -37h-563q-37 0 -37 37z" />
<glyph unicode="&#x2013;" horiz-adv-x="1083" d="M88 492v102q0 37 37 37h833q37 0 37 -37v-102q0 -37 -37 -37h-833q-37 0 -37 37z" />
<glyph unicode="&#x2014;" horiz-adv-x="1585" d="M88 492v102q0 37 37 37h1333q41 0 41 -37v-102q0 -37 -41 -37h-1333q-37 0 -37 37z" />
<glyph unicode="&#x2018;" horiz-adv-x="460" d="M119 1012v155q0 31 10 52l90 208q8 23 35 23h51q31 0 21 -33l-64 -198h57q37 0 37 -39v-168q0 -39 -39 -39h-157q-41 0 -41 39z" />
<glyph unicode="&#x2019;" horiz-adv-x="460" d="M104 1237v166q0 39 41 39h158q41 0 41 -39v-156q0 -30 -10 -51l-92 -207q-10 -26 -35 -26h-51q-14 0 -18 11q-5 13 -1 23l62 201h-56q-39 0 -39 39z" />
<glyph unicode="&#x201a;" horiz-adv-x="460" d="M104 39v166q0 39 41 39h158q41 0 41 -39v-156q0 -30 -10 -51l-92 -207q-10 -27 -35 -27h-51q-14 0 -18 12q-5 13 -1 23l62 201h-56q-39 0 -39 39z" />
<glyph unicode="&#x201c;" horiz-adv-x="829" d="M119 1012v155q0 31 10 52l90 208q8 23 35 23h51q31 0 21 -33l-64 -198h57q37 0 37 -39v-168q0 -39 -39 -39h-157q-41 0 -41 39zM485 1012v155q0 21 11 52l92 208q8 23 35 23h51q28 0 18 -33l-61 -198h55q39 0 39 -39v-168q0 -39 -41 -39h-158q-41 0 -41 39z" />
<glyph unicode="&#x201d;" horiz-adv-x="829" d="M104 1235v168q0 39 41 39h158q41 0 41 -39v-156q0 -31 -10 -51l-92 -207q-12 -26 -35 -26h-51q-14 0 -18 11q-5 13 -1 23l62 201h-56q-39 0 -39 37zM473 1235v168q0 39 39 39h160q39 0 39 -39v-156q0 -29 -11 -51l-90 -207q-12 -26 -37 -26h-49q-32 0 -20 34l61 201h-55 q-37 0 -37 37z" />
<glyph unicode="&#x201e;" horiz-adv-x="829" d="M104 37v168q0 39 41 39h158q41 0 41 -39v-156q0 -31 -10 -51l-92 -207q-12 -27 -35 -27h-51q-14 0 -18 12q-5 13 -1 23l62 201h-56q-39 0 -39 37zM473 37v168q0 39 39 39h160q39 0 39 -39v-156q0 -29 -11 -51l-90 -207q-12 -27 -37 -27h-49q-32 0 -20 35l61 201h-55 q-37 0 -37 37z" />
<glyph unicode="&#x2022;" horiz-adv-x="790" d="M113 557q0 123 81 204t201 81q121 0 202 -81t81 -204t-81 -205t-204 -82q-121 0 -200 82q-80 83 -80 205z" />
<glyph unicode="&#x2026;" horiz-adv-x="1456" d="M125 39v174q0 39 41 39h153q41 0 41 -39v-174q0 -39 -38 -39h-158q-39 0 -39 39zM610 39v174q0 39 41 39h156q39 0 39 -39v-174q0 -39 -39 -39h-158q-39 0 -39 39zM1096 39v174q0 39 41 39h155q39 0 39 -39v-174q0 -39 -37 -39h-157q-41 0 -41 39z" />
<glyph unicode="&#x202f;" horiz-adv-x="378" />
<glyph unicode="&#x2039;" horiz-adv-x="546" d="M72 565q0 13 6 21l170 278q17 29 49 29h115q20 0 26 -12q6 -13 -4 -29l-176 -287l176 -284q10 -14 4 -28q-6 -13 -26 -13h-115q-31 0 -49 28l-170 281q-6 12 -6 16z" />
<glyph unicode="&#x203a;" horiz-adv-x="546" d="M109 252q-6 13 4 29l176 284l-176 287q-10 18 -4 30q5 11 26 11h117q30 0 47 -29l170 -278q4 -7 4 -21q0 -11 -4 -16l-170 -281q-18 -28 -47 -28h-117q-20 0 -26 12z" />
<glyph unicode="&#x205f;" horiz-adv-x="473" />
<glyph unicode="&#x20ac;" horiz-adv-x="1337" d="M47 532v70q0 33 35 33h127q-4 47 -4 86q0 55 4 84h-127q-35 0 -35 33v71q0 33 35 33h141q46 223 218 372q170 148 438 148q203 0 370 -90q36 -17 21 -47l-49 -106q-18 -40 -54 -23q-142 64 -264 64q-179 0 -295 -93q-114 -91 -153 -225h538q40 0 25 -37l-25 -67 q-11 -33 -47 -33h-510q-2 -36 -2 -84q0 -54 2 -86h416q37 0 22 -37l-22 -68q-10 -32 -47 -32h-348q40 -136 152 -226q115 -92 298 -92q127 0 267 66q37 16 55 -25l49 -106q12 -27 -21 -45q-147 -90 -374 -90q-271 0 -442 147q-170 146 -220 371h-139q-35 0 -35 34z" />
<glyph unicode="&#x2122;" horiz-adv-x="1476" d="M80 1346v67q0 27 26 27h435q26 0 26 -27v-67q0 -29 -26 -29h-146v-518q0 -27 -28 -27h-86q-29 0 -29 27v518h-146q-26 0 -26 29zM682 799v614q0 27 29 27h92q22 0 35 -19l194 -301l195 301q13 19 35 19h92q26 0 26 -27v-614q0 -27 -28 -27h-84q-27 0 -27 27v432 l-182 -270q-13 -19 -27 -19q-15 0 -26 19l-183 272v-434q0 -27 -28 -27h-84q-29 0 -29 27z" />
<glyph unicode="&#x25fc;" horiz-adv-x="1064" d="M0 0v1065h1065v-1065h-1065z" />
</font>
</defs>
</svg>
