<?xml version="1.0" standalone="no"?>
<!DOCTYPE svg PUBLIC "-//W3C//DTD SVG 1.1//EN" "http://www.w3.org/Graphics/SVG/1.1/DTD/svg11.dtd" >
<svg xmlns="http://www.w3.org/2000/svg" xmlns:xlink="http://www.w3.org/1999/xlink" version="1.1">
<metadata></metadata>
<defs>
<font id="amsiprocond-semibuploadedfile" horiz-adv-x="964" >
<font-face units-per-em="2048" ascent="1755" descent="-293" />
<missing-glyph horiz-adv-x="382" />
<glyph unicode="&#xfb01;" horiz-adv-x="888" d="M74 35l155 887h-77q-34 0 -27 34l16 101q6 37 43 37h78l12 82q29 152 88 214t177 62q73 0 110 -12q19 -6 19 -37l-11 -82q-5 -39 -43 -35h-51q-46 0 -69 -26q-25 -28 -37 -99l-11 -67h420q34 0 27 -37l-180 -1020q-6 -37 -39 -37h-119q-37 0 -31 37l156 885h-264 l-156 -887q-6 -35 -39 -35h-117q-36 0 -30 35zM739 1264l27 141q6 35 41 35h119q36 0 30 -35l-26 -141q-2 -35 -41 -35h-119q-37 0 -31 35z" />
<glyph unicode="&#xfb02;" horiz-adv-x="894" d="M74 35l155 887h-77q-34 0 -27 34l16 101q6 37 43 37h78l6 49q30 167 118 240t280 73q164 0 266 -33q30 -12 24 -43l-237 -1343q-6 -37 -39 -37h-119q-37 0 -31 37l222 1247q-53 8 -103 8q-90 0 -135 -36t-61 -119l-7 -43h109q33 0 27 -37l-17 -101q-6 -34 -41 -34h-108 l-156 -887q-6 -35 -39 -35h-117q-36 0 -30 35z" />
<glyph unicode="&#xfb03;" horiz-adv-x="1343" d="M74 35l155 887h-77q-34 0 -27 34l16 101q6 37 43 37h78l12 88q28 144 91 208q61 62 180 62q73 0 102 -12q19 -6 19 -37l-11 -82q-5 -41 -39 -35h-51q-46 0 -70 -24q-23 -23 -34 -97l-12 -71h270l14 88q27 146 89 208t182 62q62 0 102 -12q20 -6 18 -37l-10 -82 q0 -41 -39 -35h-51q-47 0 -71 -24q-23 -23 -35 -97l-11 -71h414q35 0 29 -37l-181 -1020q-6 -37 -41 -37h-116q-37 0 -31 37l158 885h-265l-155 -887q-8 -35 -39 -35h-119q-37 0 -31 35l158 887h-272l-156 -887q-6 -35 -39 -35h-117q-36 0 -30 35zM1194 1264l29 141 q6 35 39 35h120q37 0 31 -35l-27 -141q-6 -35 -38 -35h-121q-35 0 -33 35z" />
<glyph unicode="&#xfb04;" horiz-adv-x="1349" d="M74 35l155 887h-77q-34 0 -27 34l16 101q6 37 43 37h78l12 88q28 144 91 208q61 62 180 62q61 0 102 -12q19 -6 19 -37l-11 -80q-4 -43 -39 -37h-51q-46 0 -70 -24q-23 -23 -34 -97l-12 -71h270l6 49q30 167 118 240t277 73q164 0 266 -33q32 -13 27 -43l-237 -1343 q-7 -37 -39 -37h-119q-37 0 -31 37l219 1247q-53 8 -100 8q-90 0 -134 -36q-44 -37 -59 -119l-6 -43h105q34 0 28 -37l-18 -101q-6 -34 -41 -34h-107l-155 -887q-8 -35 -39 -35h-119q-37 0 -31 37l158 885h-272l-156 -887q-6 -35 -39 -35h-117q-36 0 -30 35z" />
<glyph horiz-adv-x="0" />
<glyph unicode="&#xd;" horiz-adv-x="681" />
<glyph unicode=" "  horiz-adv-x="382" />
<glyph unicode="&#x09;" horiz-adv-x="382" />
<glyph unicode="&#xa0;" horiz-adv-x="382" />
<glyph unicode="!" horiz-adv-x="446" d="M41 37l31 170q6 35 41 35h141q35 0 29 -35l-31 -170q-6 -37 -41 -37h-139q-37 0 -31 37zM139 451l137 952q6 37 41 37h152q35 0 29 -37l-199 -952q-6 -37 -43 -37h-86q-37 0 -31 37z" />
<glyph unicode="&#x22;" horiz-adv-x="636" d="M225 961l17 317q5 76 14 123q11 48 31 65q22 19 67 19q49 0 66 -20q16 -18 8 -64q-8 -42 -15 -66q-13 -46 -16 -57l-92 -317h-80zM506 961l18 317q4 71 13 123q11 49 30 65q22 19 70 19q46 0 63 -20q16 -19 9 -64q-7 -27 -29 -123l-92 -317h-82z" />
<glyph unicode="#" horiz-adv-x="995" d="M-12 49l166 373h-103q-36 0 -28 35l12 63q1 37 41 37h139l143 326h-104q-35 0 -29 37l11 65q6 35 40 35h142l180 410q14 32 49 24l66 -20q40 -8 18 -43l-164 -371h211l183 410q14 32 49 24l65 -20q35 -11 19 -43l-164 -371h102q35 0 27 -35l-8 -65q-10 -37 -41 -37h-140 l-143 -326h102q32 0 31 -37l-12 -63q-8 -35 -43 -35h-139l-181 -410q-20 -37 -49 -26l-65 20q-33 10 -21 43l166 373h-213l-180 -410q-16 -38 -49 -26l-66 20q-32 7 -20 43zM365 557h213l141 326h-211z" />
<glyph unicode="$" horiz-adv-x="831" d="M0 72l41 98q16 43 53 27q118 -33 189 -33q107 0 185 68q79 69 79 180q0 45 -26 89q-25 42 -51 70q-22 24 -87 82q-95 79 -153 170q-56 88 -56 211q0 170 87 281t261 135l25 139q6 35 41 35h69q33 0 27 -35l-22 -133q45 -1 188 -26q34 -15 24 -52l-38 -96q-15 -44 -54 -29 q-86 23 -168 23q-104 0 -168 -62q-63 -62 -63 -167q0 -43 26 -90q25 -45 51 -73q26 -27 77 -77q111 -97 161 -176q54 -85 54 -205q0 -167 -88 -282t-252 -148l-25 -146q-6 -34 -39 -34h-72q-34 0 -28 34l22 134q-134 0 -237 41q-24 8 -32 17q-7 9 -1 30z" />
<glyph unicode="%" horiz-adv-x="1435" d="M137 903q0 58 13 141q69 410 323 410q229 0 229 -262q0 -58 -14 -148q-69 -407 -323 -407q-108 0 -168 68q-60 67 -60 198zM232 11q-3 12 8 24l876 1378q22 27 49 27h107q35 0 12 -35l-878 -1376q-23 -29 -48 -29h-106q-17 0 -20 11zM293 911q0 -129 80 -129q56 0 94 62 q37 61 61 200q15 91 15 140q0 125 -78 125q-113 0 -158 -265q-14 -90 -14 -133zM821 248q0 61 13 147q74 410 325 410q227 0 227 -262q0 -76 -14 -150q-68 -405 -321 -405q-230 0 -230 260zM977 260q0 -127 80 -127q112 0 155 262q15 78 15 137q0 127 -76 127 q-115 0 -160 -264q-14 -90 -14 -135z" />
<glyph unicode="&#x26;" horiz-adv-x="1091" d="M49 328q0 177 83 317q82 138 253 217l-23 51q-30 72 -30 201q0 163 97 254q98 92 273 92q74 0 152 -22q37 -15 27 -47l-33 -78q-12 -42 -55 -27q-59 10 -91 10q-75 0 -130 -47q-54 -47 -54 -135q0 -54 31 -156l244 -563q45 69 57 133q12 63 12 158q0 14 37 14h102 q29 0 29 -28q0 -220 -145 -428l104 -205q10 -18 4 -29q-6 -10 -22 -10h-152q-12 0 -12 -14l-57 127q-140 -129 -322 -129q-172 0 -275 91q-104 92 -104 253zM252 358q0 -96 50 -149t147 -53q127 0 217 96l-203 475q-101 -51 -156 -150q-55 -98 -55 -219zM807 -14l2 -2z" />
<glyph unicode="'" horiz-adv-x="354" d="M225 961l17 317q5 76 14 123q11 48 31 65q22 19 67 19q49 0 66 -20q16 -18 8 -64q-8 -42 -15 -66q-13 -46 -16 -57l-92 -317h-80z" />
<glyph unicode="(" horiz-adv-x="526" d="M94 317q0 289 108 579t300 540q23 20 47 20h88q33 0 12 -35q-169 -245 -263 -535q-95 -294 -95 -585q0 -263 71 -500q10 -37 -24 -37h-88q-26 0 -39 19q-117 258 -117 534z" />
<glyph unicode=")" horiz-adv-x="526" d="M-80 -223q-2 12 6 24q171 246 267 534q96 289 96 585q0 266 -76 501q-4 11 2 24q5 11 23 11h90q26 0 37 -20q114 -258 114 -529q0 -295 -106 -585q-107 -293 -301 -539q-13 -19 -43 -19h-90q-17 0 -19 13z" />
<glyph unicode="*" horiz-adv-x="727" d="M174 981q-18 51 43 84q26 14 94 38q77 27 105 40q-29 13 -67 27q-36 13 -65 27q-26 12 -40 22q-52 30 -13 81q40 54 91 25q18 -12 64 -58q39 -39 71 -67q3 31 5 111q1 67 3 88q12 65 76 65q35 0 44 -15t3 -50q-1 -16 -13 -49q-3 -10 -11.5 -35t-13.5 -40q-17 -48 -26 -75 q30 18 100 68q64 46 85 57q60 28 82 -22q15 -59 -41 -86q-14 -6 -93 -34q-76 -26 -108 -40q42 -22 96 -43q59 -23 78 -35q45 -33 8 -84q-24 -30 -44 -35q-18 -4 -44 15q-14 6 -37 26q-6 5 -52 49q-33 31 -50 47v-127q0 -43 -6 -73q-8 -62 -72 -62q-36 0 -47 15q-10 14 -4 47 q6 31 27 91q23 65 34 109q-8 -5 -65 -47q-15 -11 -38.5 -27.5t-28.5 -20.5q-27 -20 -48 -27q-60 -34 -82 20z" />
<glyph unicode="+" horiz-adv-x="974" d="M119 674l18 94q0 33 39 33h283l59 344q8 35 39 35h109q36 0 28 -35l-59 -344h280q33 0 33 -33l-18 -94q-6 -33 -41 -33h-283l-63 -352q-1 -33 -39 -33h-107q-36 0 -30 33l63 352h-283q-35 0 -28 33z" />
<glyph unicode="," horiz-adv-x="380" d="M4 -164l76 164h-37q-37 0 -31 37l31 162q6 37 43 37h127q37 0 31 -37l-27 -150q-1 -7 -14 -43l-103 -178q-15 -23 -39 -23h-45q-29 0 -12 31z" />
<glyph unicode="-" horiz-adv-x="559" d="M76 518l16 94q6 31 39 31h354q20 0 27 -7q8 -8 6 -24l-16 -94q-8 -33 -43 -33h-357q-34 0 -26 33z" />
<glyph unicode="." horiz-adv-x="380" d="M12 37l31 162q6 37 43 37h127q37 0 31 -37l-31 -162q-6 -37 -39 -37h-131q-37 0 -31 37z" />
<glyph unicode="/" horiz-adv-x="626" d="M-61 39l651 1368q12 33 47 33h115q22 0 28 -12q6 -11 -6 -29l-651 -1366q-11 -33 -43 -33h-117q-45 0 -24 39z" />
<glyph unicode="0" horiz-adv-x="978" d="M92 393q0 141 33 326q69 399 194 569t326 170q330 0 330 -416q0 -120 -33 -321q-69 -397 -197 -567t-327 -170q-326 0 -326 409zM295 403q0 -241 137 -241q104 0 179 127q76 129 128 430q33 189 33 311q0 248 -141 248q-103 0 -175 -127q-73 -129 -128 -430 q-33 -179 -33 -318z" />
<glyph unicode="1" horiz-adv-x="710" d="M162 1120q-18 23 10 39l330 266q16 15 49 15h125q37 0 31 -37l-242 -1364q-6 -39 -41 -39h-125q-41 0 -35 39l205 1161l-203 -162q-29 -18 -41 2z" />
<glyph unicode="2" horiz-adv-x="882" d="M-12 39l14 82q6 32 35 49q78 68 182 166q78 74 177 183q103 114 163 204q65 98 109 207q45 112 45 215q0 135 -133 135q-109 0 -161 -76t-52 -180q0 -63 -39 -63h-115q-33 0 -33 59q0 183 124 310q125 128 292 128q162 0 242 -86t80 -219q0 -134 -60 -281 q-60 -146 -156 -277q-96 -130 -191 -233q-86 -93 -192 -184h406l8 -4q13 -8 18 -13q9 -9 7 -22l-19 -100q-7 -39 -43 -39h-676q-44 0 -32 39z" />
<glyph unicode="3" horiz-adv-x="827" d="M-35 55l39 107q12 37 45 26q147 -30 207 -30q148 0 222 98q75 99 75 254q0 154 -160 154h-94q-39 0 -33 32l19 103q6 35 43 35h88q114 0 170 98q57 99 57 215q0 71 -39 103q-40 32 -123 32q-45 0 -87 -6q-41 -6 -85 -18q-40 -11 -49 -11q-18 -5 -28 2q-9 6 -7 25l-4 100 q1 28 41 43q166 41 248 41q154 0 246 -74t92 -206q0 -133 -53 -253q-52 -117 -166 -161q129 -51 129 -242q0 -254 -130 -396t-374 -142q-155 0 -266 32q-29 12 -23 39z" />
<glyph unicode="4" horiz-adv-x="944" d="M31 356l18 99q1 23 21 49l641 907q24 29 53 29h129q37 0 31 -37l-160 -914h119q36 0 30 -36l-14 -97q-7 -37 -43 -37h-121l-51 -280q-6 -39 -41 -39h-125q-39 0 -33 39l52 280h-476q-37 0 -30 37zM244 489h323l119 668z" />
<glyph unicode="5" horiz-adv-x="843" d="M-29 63l37 101q1 15 18 23q15 7 29 3q105 -32 191 -32q170 0 252 121t82 303q0 80 -37 117q-38 38 -123 38q-77 0 -140 -19q-66 -20 -71 -20q-13 0 -27 7l-41 18q-18 10 -10 41q78 302 141 639q10 37 43 37h523q37 0 30 -37l-16 -105q-6 -34 -45 -34h-387l-84 -379 q50 18 137 18q151 0 230 -81q79 -80 79 -222q0 -271 -141 -443q-141 -173 -393 -173q-159 0 -258 32q-31 15 -19 47z" />
<glyph unicode="6" horiz-adv-x="929" d="M86 383q0 116 33 317q67 404 192 579q128 179 373 179q127 0 205 -28q37 -12 26 -41l-36 -105q-10 -37 -45 -29q-84 29 -148 29q-148 0 -218 -101q-70 -102 -138 -372q46 71 107 97t153 26q146 0 216 -91q71 -92 71 -237q0 -148 -46 -288q-45 -136 -151 -235t-258 -99 q-168 0 -252 105t-84 294zM287 379q0 -96 35 -160q34 -63 112 -63q69 0 121 44q51 44 77 113q26 70 38 140q12 69 12 137q0 176 -143 176q-94 0 -154 -68q-59 -67 -79 -148q-19 -79 -19 -171z" />
<glyph unicode="7" horiz-adv-x="819" d="M127 37q61 320 225 660q168 349 342 567h-467q-37 0 -30 36l16 103q6 37 43 37h643q38 0 31 -37l-17 -96q-2 -21 -28 -58q-186 -260 -346 -589q-158 -325 -203 -623q-7 -37 -43 -37h-133q-39 0 -33 37z" />
<glyph unicode="8" horiz-adv-x="929" d="M47 276q0 162 81 286q81 125 224 186q-153 88 -153 286q0 195 118 309q120 115 308 115q152 0 240 -76q89 -77 89 -204q0 -300 -276 -430q166 -94 166 -314q0 -205 -127 -329q-126 -123 -326 -123q-168 0 -255 80q-89 81 -89 214zM250 307q0 -157 162 -157q115 0 173 82 t58 198q0 169 -143 236q-117 -52 -184 -147q-66 -93 -66 -212zM393 1042q0 -145 135 -217q108 46 170 133q62 86 62 195q0 143 -152 143q-107 0 -161 -73t-54 -181z" />
<glyph unicode="9" horiz-adv-x="929" d="M109 51l36 103q10 38 48 26q103 -26 145 -26q143 0 215 96q71 94 137 360q-40 -59 -103 -83q-60 -23 -163 -23q-144 0 -214 87q-71 88 -71 230q0 112 27 220q28 111 79 203q54 97 143 154q91 58 208 58q334 0 334 -403q0 -114 -35 -332q-72 -394 -195 -566 q-123 -173 -362 -173q-134 0 -205 28q-36 12 -24 41zM338 850q0 -178 145 -178q71 0 124 38q52 37 78 101q25 61 37 126q11 58 11 130q0 96 -38 155q-37 58 -117 58q-69 0 -118 -46q-52 -49 -75 -118q-24 -73 -36 -139q-11 -62 -11 -127z" />
<glyph unicode=":" horiz-adv-x="432" d="M39 37l31 162q6 37 41 37h129q36 0 30 -37l-30 -162q-6 -37 -41 -37h-129q-37 0 -31 37zM190 895l31 164q1 37 41 37h129q32 0 31 -37l-29 -164q-12 -35 -43 -35h-129q-39 0 -31 35z" />
<glyph unicode=";" horiz-adv-x="432" d="M29 -164l77 164h-36q-37 0 -31 37l31 162q6 37 41 37h129q36 0 30 -37l-28 -150q-1 -16 -15 -43l-100 -178q-15 -23 -39 -23h-45q-29 0 -14 31zM190 895l31 164q1 37 41 37h129q32 0 31 -37l-29 -164q-12 -35 -43 -35h-129q-39 0 -31 35z" />
<glyph unicode="&#x3c;" horiz-adv-x="974" d="M164 719q0 15 20 29l639 550q36 29 54 5l57 -76q15 -25 -12 -49l-529 -459l369 -459q19 -25 -8 -47l-82 -78q-27 -23 -51 0l-447 555q-12 16 -10 29z" />
<glyph unicode="=" horiz-adv-x="974" d="M106 479l17 92q1 33 39 33h698q35 0 29 -33l-17 -92q-6 -35 -41 -35h-698q-33 0 -27 35zM174 872l16 93q6 34 41 34h699q34 0 28 -34l-16 -93q-6 -32 -39 -32h-700q-30 0 -29 32z" />
<glyph unicode="&#x3e;" horiz-adv-x="974" d="M135 213q-21 26 6 47l533 461l-371 459q-18 21 10 47l74 76q33 21 49 0l455 -555q10 -11 10 -29q-2 -13 -18 -29l-652 -555q-27 -27 -51 0z" />
<glyph unicode="?" horiz-adv-x="741" d="M172 37l31 170q6 35 43 35h137q42 0 31 -35l-29 -170q-7 -37 -43 -37h-137q-39 0 -33 37zM215 1380q2 29 41 41q81 37 209 37q154 0 234 -70q81 -71 81 -200q0 -109 -46 -213q-47 -106 -101 -173q-61 -76 -110 -148q-53 -79 -64 -136l-13 -67q-7 -37 -43 -37h-110 q-37 0 -31 37l12 67q15 79 66 164q52 87 101 151q52 68 91 153q41 90 41 177q0 115 -145 115q-35 0 -73 -5q-25 -3 -62 -13q-11 -3 -23 -7l-12 -4q-19 -4 -31 1q-10 4 -8 24z" />
<glyph unicode="@" horiz-adv-x="1570" d="M90 281q0 239 101 453q102 215 305 360q201 143 458 143q274 0 414 -124q141 -124 141 -335q0 -105 -32 -220q-33 -117 -93 -229q-62 -115 -159 -186q-100 -73 -221 -73h-97q-21 0 -34 8q-11 7 -9 26l2 89q-91 -130 -209 -130q-95 0 -160 77t-65 196q0 158 56 291 q57 134 185 228q127 93 304 93q101 0 194 -41q27 -7 19 -37l-195 -675h27q92 0 163 59t112 153q39 90 61 188q20 90 20 181q0 342 -434 342q-210 0 -377 -118q-169 -119 -258 -306q-90 -189 -90 -403q0 -395 508 -395q164 0 299 32q9 4 17 -2q7 -6 6 -20l-2 -62 q-1 -22 -23 -24q-152 -41 -305 -41q-292 0 -461 125q-168 125 -168 377zM608 358q0 -65 24 -107t64 -42q136 0 203 235l105 357q-28 2 -52 2q-117 0 -199 -70q-81 -69 -113 -166q-32 -98 -32 -209z" />
<glyph unicode="A" d="M-35 41l541 1358q17 41 57 41h178q25 0 34 -9t11 -32l60 -1358q1 -4 1 -8q0 -33 -38 -33h-129q-33 0 -37 37l-6 319h-342l-119 -319q-21 -37 -47 -37h-135q-33 0 -33 23q0 8 4 18zM371 537h250v692h-5z" />
<glyph unicode="B" horiz-adv-x="956" d="M23 39l241 1364q6 37 45 37h307q168 0 267 -72q98 -71 98 -211q0 -127 -54 -241q-53 -112 -167 -162q59 -18 97 -86t38 -172q0 -223 -127 -359q-128 -137 -360 -137h-351q-40 0 -34 39zM248 184h160q142 0 212 84q70 83 70 230q0 81 -46 118t-144 37h-166zM360 827h148 q128 0 197 81t69 214q0 76 -44 106q-42 29 -136 29h-154z" />
<glyph unicode="C" horiz-adv-x="821" d="M84 387q0 122 35 334q73 414 202 576q128 161 369 161q119 0 201 -26q39 -12 27 -48l-37 -96q-9 -32 -34 -32q-9 0 -20 4q-80 14 -125 14q-159 0 -239 -115t-137 -438q-35 -218 -35 -303q0 -141 53 -196q53 -54 170 -54q56 0 135 20q9 3 16 3q25 0 25 -35l6 -99 q-2 -29 -45 -47q-77 -26 -182 -26q-193 0 -289 93t-96 310z" />
<glyph unicode="D" d="M23 39l241 1364q6 37 45 37h254q202 0 304 -99t102 -321q0 -125 -29 -279q-72 -413 -209 -578q-136 -163 -383 -163h-291q-40 0 -34 39zM254 186h108q145 0 230 118q87 120 143 435q27 147 27 248q0 146 -54 206t-163 60h-105z" />
<glyph unicode="E" horiz-adv-x="792" d="M23 39l241 1364q6 37 45 37h537q39 0 33 -37l-21 -111q-6 -39 -43 -39h-377l-73 -428h358q37 0 31 -39l-19 -102q-6 -37 -43 -37h-360l-82 -461h381q41 0 35 -36l-21 -111q-7 -39 -45 -39h-543q-40 0 -34 39z" />
<glyph unicode="F" horiz-adv-x="765" d="M23 39l241 1362q6 39 45 39h535q37 0 33 -37l-21 -109q-6 -39 -43 -39h-371l-80 -452h355q39 0 31 -39l-19 -105q-6 -36 -43 -36h-356l-105 -584q-6 -39 -43 -39h-123q-42 0 -36 39z" />
<glyph unicode="G" horiz-adv-x="927" d="M86 387q0 128 35 336q72 413 210 574t400 161q130 0 211 -28q37 -16 25 -50l-37 -98q-11 -32 -35 -32q-10 0 -21 5q-97 19 -145 19q-184 0 -265 -113q-80 -112 -136 -438q-35 -199 -35 -311q0 -138 51 -192t166 -54q34 0 82 8l88 494h-148q-38 0 -32 37l16 102 q6 37 45 37h303q37 0 31 -37l-125 -715q-6 -41 -47 -59q-89 -49 -242 -49q-197 0 -297 92q-98 91 -98 311z" />
<glyph unicode="H" horiz-adv-x="968" d="M23 39l241 1364q6 37 45 37h125q39 0 33 -37l-100 -574h362l100 574q6 37 45 37h125q39 0 33 -37l-241 -1364q-6 -39 -41 -39h-127q-41 0 -35 39l108 602h-362l-109 -602q-6 -39 -43 -39h-125q-40 0 -34 39z" />
<glyph unicode="I" horiz-adv-x="423" d="M35 39l241 1364q6 37 43 37h125q43 0 33 -37l-239 -1364q-6 -39 -43 -39h-127q-39 0 -33 39z" />
<glyph unicode="J" horiz-adv-x="612" d="M-35 53l37 101q12 34 43 28q56 -8 96 -8q65 0 99 39t57 156l182 1034q6 37 43 37h127q37 0 31 -37l-186 -1059q-33 -191 -114 -274q-81 -82 -235 -82q-105 0 -151 14q-33 13 -33 35q0 7 4 16z" />
<glyph unicode="K" horiz-adv-x="892" d="M23 39l241 1364q6 37 45 37h125q39 0 33 -37l-96 -531l395 537q25 31 55 31h183q20 0 25 -15q4 -14 -7 -30l-504 -633l270 -715q8 -18 -1 -33q-8 -14 -29 -14h-150q-26 0 -43 35l-223 643l-117 -639q-6 -39 -43 -39h-125q-40 0 -34 39z" />
<glyph unicode="L" horiz-adv-x="735" d="M23 39l241 1364q6 37 45 37h125q39 0 33 -37l-213 -1215h334q39 0 33 -36l-21 -113q-6 -39 -43 -39h-500q-40 0 -34 39z" />
<glyph unicode="M" horiz-adv-x="1138" d="M23 39l241 1364q6 37 45 37h111q30 0 41 -25l145 -692l393 692q17 25 45 25h125q39 0 33 -37l-241 -1364q-6 -39 -43 -39h-123q-41 0 -33 39l176 997l-344 -616q-11 -25 -39 -25q-22 0 -33 25l-123 616l-176 -997q-6 -39 -41 -39h-125q-40 0 -34 39z" />
<glyph unicode="N" horiz-adv-x="989" d="M23 39l241 1364q6 37 45 37h111q39 0 47 -31l211 -1014l176 1008q10 37 45 37h121q36 0 35 -37l-244 -1364q-6 -39 -43 -39h-113q-37 0 -43 33l-215 1011l-176 -1005q-7 -39 -43 -39h-121q-40 0 -34 39z" />
<glyph unicode="O" horiz-adv-x="1003" d="M84 387q0 127 35 332q74 412 199 575q126 164 341 164q171 0 259 -94t88 -309q0 -131 -35 -336q-72 -411 -197 -574q-124 -161 -340 -161q-170 0 -260 93t-90 310zM291 401q0 -131 39 -184t116 -53q118 0 190 121q74 124 130 434q35 208 35 319q0 132 -39 186t-119 54 q-117 0 -189 -122q-73 -122 -128 -437q-35 -208 -35 -318z" />
<glyph unicode="P" horiz-adv-x="909" d="M23 39l241 1362q6 39 45 39h246q196 0 289 -73q92 -72 92 -247q0 -78 -18 -186q-46 -281 -160 -392q-113 -110 -346 -110h-117l-70 -393q-6 -39 -43 -39h-125q-40 0 -34 39zM328 616h98q131 0 191 66q61 68 94 254q18 92 18 154q0 94 -45 129q-44 34 -145 34h-99z" />
<glyph unicode="Q" horiz-adv-x="1003" d="M86 389q0 129 35 334q72 410 197 572q126 163 344 163q168 0 257 -93q89 -94 89 -306q0 -144 -35 -336q-57 -319 -149 -484q-92 -164 -234 -210q58 -29 127 -29q21 0 34 1t25 1q37 0 29 -31l-17 -94q-6 -41 -53 -41q-224 0 -370 160q-279 22 -279 393zM293 401 q0 -127 38 -180t115 -53q118 0 190 122q74 124 130 433q35 205 35 313q0 132 -39 187t-119 55q-117 0 -189 -121q-74 -125 -126 -434q-35 -212 -35 -322z" />
<glyph unicode="R" horiz-adv-x="917" d="M23 39l241 1364q6 37 45 37h258q196 0 289 -73q92 -72 92 -237q0 -80 -18 -172q-34 -202 -110 -305t-202 -133l134 -473q6 -19 -1 -33t-30 -14h-129q-36 0 -47 31l-125 463h-113l-82 -455q-6 -39 -43 -39h-125q-40 0 -34 39zM340 676h117q126 0 183 61q56 61 85 226 q14 69 14 135q0 88 -43 122q-42 33 -147 33h-109z" />
<glyph unicode="S" horiz-adv-x="784" d="M-12 57l39 103q11 32 35 32q8 0 18 -4q88 -24 176 -24q111 0 177 63q67 64 67 176q0 121 -133 248q-197 159 -197 369q0 200 108 319t318 119q140 0 213 -24q41 -17 29 -48l-39 -100q-11 -31 -34 -31q-9 0 -20 5q-64 16 -151 16q-217 0 -217 -227q0 -105 135 -240 q195 -174 195 -381q0 -204 -116 -325q-115 -119 -333 -119q-169 0 -240 26q-33 11 -33 33q0 7 3 14z" />
<glyph unicode="T" horiz-adv-x="759" d="M186 1290l19 113q6 37 45 37h600q39 0 33 -37l-21 -113q-6 -39 -45 -39h-199l-215 -1212q-6 -39 -43 -39h-124q-40 0 -33 39l213 1212h-197q-39 0 -33 39z" />
<glyph unicode="U" horiz-adv-x="950" d="M72 287q0 61 12 135l174 981q6 37 45 37h125q39 0 33 -37l-170 -961q-12 -74 -12 -127q0 -80 32 -113q33 -34 111 -34q101 0 150 61q50 62 77 213l168 961q6 37 43 37h127q37 0 31 -37l-174 -981q-40 -233 -142 -336q-100 -102 -294 -102q-168 0 -252 72t-84 231z" />
<glyph unicode="V" horiz-adv-x="946" d="M207 1399q0 41 37 41h135q35 0 35 -37l16 -864l-10 -316h8l104 316l318 864q18 37 49 37h141q32 0 32 -19q0 -9 -7 -22l-524 -1356q-24 -43 -58 -43h-182q-44 0 -45 43z" />
<glyph unicode="W" horiz-adv-x="1503" d="M215 1399q5 41 37 41h135q31 0 35 -37l-10 -799l-11 -356h7l120 354l279 801q12 37 51 37h123q40 0 41 -37l-6 -801v-354h6l117 356l266 799q12 37 47 37h139q41 0 23 -41l-486 -1356q-21 -43 -55 -43h-176q-43 0 -43 43l4 684v350h-4l-125 -350l-229 -684 q-15 -43 -58 -43h-174q-39 0 -43 43z" />
<glyph unicode="X" horiz-adv-x="899" d="M-38 14q-5 15 7 31l416 686l-170 664q-1 7 -1 13q0 32 32 32h141q30 0 45 -33l96 -496l265 496q21 33 55 33h145q19 0 25 -16q6 -14 -6 -29l-404 -664l172 -686q4 -17 -4 -32q-7 -13 -26 -13h-140q-30 0 -45 33l-98 514l-281 -514q-23 -33 -55 -33h-143q-22 0 -26 14z " />
<glyph unicode="Y" horiz-adv-x="925" d="M203 1395q-6 16 3 30q9 15 32 15h133q32 0 43 -35l67 -459l23 -211h2l100 211l234 459q18 35 49 35h139q29 0 29 -19q0 -11 -8 -26l-471 -846l-91 -510q-6 -39 -43 -39h-127q-38 0 -32 39l92 510z" />
<glyph unicode="Z" horiz-adv-x="823" d="M-10 39l18 108q10 32 29 54l620 1050h-395q-37 0 -31 39l21 113q6 37 43 37h586q36 0 30 -37l-18 -109q-1 -24 -25 -55l-618 -1053h422q35 0 28 -36l-20 -111q-6 -39 -41 -39h-616q-41 0 -33 39z" />
<glyph unicode="[" horiz-adv-x="526" d="M14 -188l283 1593q6 35 41 35h264q37 0 31 -35l-17 -86q-2 -35 -38 -35h-117l-240 -1354h117q35 0 29 -34l-17 -84q-6 -37 -39 -37h-266q-37 0 -31 37z" />
<glyph unicode="\" horiz-adv-x="626" d="M184 1399q0 41 37 41h103q30 0 36 -33l170 -1368q4 -39 -36 -39h-105q-31 0 -37 33z" />
<glyph unicode="]" horiz-adv-x="528" d="M-55 -188l16 84q6 34 41 34h117l239 1354h-116q-33 0 -31 35l16 86q6 35 41 35h262q39 0 33 -35l-280 -1593q-7 -37 -43 -37h-265q-36 0 -30 37z" />
<glyph unicode="^" horiz-adv-x="974" d="M145 730q-4 11 9 30l401 647q23 33 49 33h107q31 0 41 -33l176 -647q6 -41 -35 -41h-119q-26 0 -37 33l-112 469l-279 -469q-22 -33 -49 -33h-129q-19 0 -23 11z" />
<glyph unicode="_" horiz-adv-x="788" d="M-76 -172l8 55q6 35 41 35h648q37 0 26 -35l-8 -55q-6 -35 -39 -35h-647q-40 0 -29 35z" />
<glyph unicode="`" horiz-adv-x="532" d="M283 1408q6 13 24 13h152q27 0 37 -26l45 -162q8 -29 -27 -29h-68q-25 0 -43 21l-116 157q-10 12 -4 26z" />
<glyph unicode="a" horiz-adv-x="800" d="M16 231q0 243 136 344t417 113l17 98q6 30 6 54q0 45 -19 72q-28 40 -110 40q-90 0 -215 -41q-16 -4 -28 3q-11 7 -9 26v92q5 35 37 45q93 43 248 43q280 0 280 -241q0 -47 -8 -93l-131 -749q-10 -37 -41 -37h-102q-34 0 -33 33l16 96q-94 -141 -237 -141q-104 0 -164 67 t-60 176zM199 250q0 -111 92 -111q83 0 145 73t80 179l29 158q-117 -7 -192 -28q-69 -19 -104 -60q-34 -40 -42 -85q-8 -46 -8 -126z" />
<glyph unicode="b" horiz-adv-x="888" d="M14 37l244 1368q6 35 41 35h117q38 0 30 -35l-75 -426q79 141 235 141q258 0 258 -323q0 -105 -24 -246q-56 -297 -150 -432t-254 -135q-82 0 -146 41q-63 41 -71 104l-18 -96q-7 -33 -41 -33h-113q-39 0 -33 37zM274 356q0 -206 134 -206q90 0 144 93t93 308 q25 158 25 221q0 98 -30 140t-93 42q-180 0 -252 -403q-21 -127 -21 -195z" />
<glyph unicode="c" horiz-adv-x="665" d="M55 311q0 78 25 242q49 294 156 431q106 136 290 136q111 0 174 -20q33 -15 23 -47l-41 -92q-11 -35 -47 -21q-73 6 -98 6q-110 0 -169 -89q-60 -90 -94 -304q-24 -135 -24 -219q0 -96 36 -137t109 -41q45 0 119 16q33 12 33 -25l6 -94q0 -18 -8 -26t-33 -19 q-106 -24 -137 -24q-320 0 -320 327z" />
<glyph unicode="d" horiz-adv-x="888" d="M51 307q0 91 27 244q46 289 146 430q99 139 259 139q82 0 141 -41q57 -39 72 -100l76 426q6 35 41 35h117q39 0 33 -35l-244 -1368q-6 -37 -41 -37h-113q-35 0 -33 33l17 94q-69 -143 -234 -143q-264 0 -264 323zM248 328q0 -178 121 -178q183 0 256 401q18 99 18 192 q0 211 -135 211q-90 0 -144 -93q-55 -94 -92 -310q-24 -151 -24 -223z" />
<glyph unicode="e" horiz-adv-x="796" d="M57 336q0 74 25 233q49 280 155 416q105 135 277 135q132 0 199 -76t67 -215q0 -89 -22 -215l-19 -110q-6 -37 -45 -37h-444q-12 -61 -12 -123q0 -199 196 -199q79 0 154 23q15 6 29 -2t12 -25l6 -82q-2 -35 -39 -47q-94 -28 -184 -28q-355 0 -355 352zM276 616h302l2 17 q22 125 22 184q0 146 -104 146q-78 0 -130 -81q-53 -82 -92 -266z" />
<glyph unicode="f" horiz-adv-x="536" d="M74 35l155 887h-77q-34 0 -27 34l16 101q6 37 43 37h78l10 69q29 160 94 225q64 64 195 64q62 0 101 -12q18 -6 18 -37l-10 -82q-5 -41 -41 -35h-51q-62 0 -84 -26t-37 -111l-8 -55h143q32 0 26 -37l-18 -101q-6 -34 -41 -34h-143l-156 -887q-6 -35 -39 -35h-117 q-36 0 -30 35z" />
<glyph unicode="g" horiz-adv-x="860" d="M18 -164l33 88q12 41 47 29q95 -31 187 -31q202 0 239 205l17 106q-66 -141 -222 -141q-253 0 -253 299q0 105 20 211q46 262 140 390q93 128 243 128q77 0 134 -45t73 -106l16 102q8 33 47 33h109q32 0 26 -37l-167 -948q-30 -183 -133 -273q-101 -88 -283 -88 q-165 0 -250 35q-33 15 -23 43zM260 418q0 -170 113 -170q173 0 233 354q17 102 17 162q0 197 -125 197q-81 0 -134 -88q-52 -86 -85 -271q-19 -97 -19 -184z" />
<glyph unicode="h" horiz-adv-x="862" d="M14 37l244 1368q6 35 41 35h117q38 0 30 -35l-73 -422q95 137 239 137q110 0 169 -66q59 -67 59 -180q0 -36 -11 -94l-131 -743q-6 -37 -39 -37h-118q-37 0 -31 37l127 711q8 42 8 79q0 117 -104 117q-87 0 -145 -70q-56 -67 -77 -192l-114 -645q-6 -37 -41 -37h-117 q-39 0 -33 37z" />
<glyph unicode="i" horiz-adv-x="382" d="M20 37l183 1030q6 37 43 37h119q32 0 26 -37l-182 -1030q-6 -37 -39 -37h-119q-37 0 -31 37zM233 1264l25 133q6 35 39 35h127q37 0 29 -35l-23 -133q-7 -37 -39 -37h-129q-35 0 -29 37z" />
<glyph unicode="j" horiz-adv-x="409" d="M-125 -193l12 101q1 38 39 33h39q36 0 53 20q19 22 29 82l182 1024q6 37 41 37h119q33 0 27 -37l-185 -1049q-24 -145 -71 -198t-164 -53q-78 0 -94 6q-28 6 -27 34zM258 1264l25 133q6 35 41 35h127q36 0 30 -35l-24 -133q-6 -37 -41 -37h-127q-37 0 -31 37z" />
<glyph unicode="k" horiz-adv-x="776" d="M14 37l244 1368q6 35 41 35h117q38 0 30 -35l-120 -682l295 358q23 23 57 23h164q14 0 20 -8t2 -20t-16 -19l-395 -447l227 -565q7 -16 0 -31q-7 -14 -31 -14h-139q-34 0 -51 31l-172 483l-82 -477q-6 -37 -41 -37h-117q-39 0 -33 37z" />
<glyph unicode="l" horiz-adv-x="385" d="M20 37l244 1368q6 35 39 35h119q37 0 29 -35l-242 -1368q-6 -37 -39 -37h-119q-37 0 -31 37z" />
<glyph unicode="m" horiz-adv-x="1292" d="M10 37l183 1030q6 37 45 37h112q37 0 31 -33l-14 -92q89 141 223 141q86 0 138 -42q53 -42 63 -115q99 157 262 157q106 0 162 -65q57 -66 57 -178q0 -46 -8 -89l-136 -751q-10 -37 -38 -37h-117q-39 0 -33 37l129 717q8 43 8 82q0 108 -92 108q-73 0 -129 -66 q-56 -67 -74 -167l-116 -674q-10 -37 -41 -37h-117q-39 0 -33 37l129 717q8 43 8 82q0 108 -90 108q-80 0 -132 -67t-75 -187l-114 -653q-6 -37 -41 -37h-117q-39 0 -33 37z" />
<glyph unicode="n" horiz-adv-x="851" d="M10 37l180 1030q10 37 43 37h113q35 0 29 -33l-13 -92q92 141 242 141q110 0 169 -66q58 -65 58 -180q0 -41 -10 -94l-133 -743q-6 -37 -39 -37h-119q-36 0 -30 37l125 711q8 43 8 83q0 113 -101 113q-85 0 -143 -70t-76 -192l-116 -645q-6 -37 -41 -37h-117 q-39 0 -29 37z" />
<glyph unicode="o" horiz-adv-x="851" d="M53 315q0 95 25 236q52 294 159 433q105 136 289 136q301 0 301 -336q0 -108 -22 -233q-55 -293 -161 -431q-105 -136 -288 -136q-303 0 -303 331zM248 332q0 -182 123 -182q89 0 145 93q55 92 94 308q25 158 25 219q0 184 -125 184q-90 0 -144 -93q-56 -96 -94 -310 q-24 -151 -24 -219z" />
<glyph unicode="p" horiz-adv-x="884" d="M-29 -188l222 1255q6 37 45 37h110q37 0 31 -33l-17 -96q35 63 98 104q64 41 142 41q256 0 256 -327q0 -100 -22 -242q-50 -291 -147 -431q-94 -136 -255 -136q-84 0 -145 40q-62 41 -72 101l-55 -313q-6 -37 -43 -37h-117q-37 0 -31 37zM270 356q0 -206 133 -206 q91 0 145 93t93 308q25 158 25 221q0 98 -30 140t-93 42q-180 0 -252 -403q-21 -127 -21 -195z" />
<glyph unicode="q" horiz-adv-x="884" d="M51 307q0 91 27 244q52 295 150 432t257 137q82 0 141 -43q60 -44 72 -102l19 96q6 33 43 33h112q35 0 29 -37l-221 -1255q-6 -37 -43 -37h-117q-37 0 -31 37l56 313q-28 -66 -88 -103q-61 -38 -142 -38q-264 0 -264 323zM248 328q0 -178 121 -178q189 0 256 401 q18 113 18 192q0 211 -135 211q-90 0 -144 -93q-55 -94 -92 -310q-24 -151 -24 -223z" />
<glyph unicode="r" horiz-adv-x="569" d="M10 37l183 1030q6 37 45 37h114q35 0 29 -35l-19 -117q29 70 97 118q65 46 147 46q24 0 32 -8t3 -29l-25 -145q-8 -33 -36 -33q-1 0 -25 2t-33 2q-78 0 -138 -81q-61 -82 -83 -218l-100 -569q-6 -37 -41 -37h-117q-39 0 -33 37z" />
<glyph unicode="s" horiz-adv-x="667" d="M-33 51l35 94q10 39 43 27q77 -25 168 -25q76 0 135 51q58 50 58 136q0 48 -30 82q-31 36 -108 92q-162 114 -162 262q0 161 97 256q95 94 268 94q123 0 193 -22q35 -11 24 -41l-33 -90q-10 -37 -43 -27q-70 16 -129 16q-77 0 -132 -41q-54 -41 -54 -120q0 -26 15 -50 q14 -23 35 -42q1 0 61 -52q6 -5 13 -11t9 -7q88 -67 127 -129t39 -150q0 -172 -99 -271t-278 -99q-148 0 -225 26q-38 11 -27 41z" />
<glyph unicode="t" horiz-adv-x="552" d="M102 176q0 39 13 111l110 635h-78q-36 0 -30 34l18 101q6 37 43 37h82l37 225q6 35 43 35h111q34 0 28 -35l-37 -225h138q32 0 26 -37l-16 -101q-6 -34 -43 -34h-137l-109 -611q-8 -46 -8 -80q0 -40 17 -54q18 -15 61 -15q9 0 21 3t20 3q14 1 20 -6t4 -27l-2 -92 q-2 -29 -35 -41q-29 -12 -80 -12q-111 0 -163 42q-54 43 -54 144z" />
<glyph unicode="u" horiz-adv-x="845" d="M47 231q0 45 8 91l133 745q6 37 43 37h117q37 0 27 -37l-125 -709q-8 -61 -8 -79q0 -121 104 -121q80 0 134 69q55 71 79 191l113 649q6 37 45 37h117q32 0 26 -37l-182 -1030q-6 -37 -39 -37h-113q-20 0 -28 8t-6 25l14 90q-79 -139 -225 -139q-116 0 -175 65t-59 182z " />
<glyph unicode="v" horiz-adv-x="774" d="M139 1065q-5 39 35 39h123q29 0 33 -37l20 -651l-8 -183h6l53 183l248 651q16 37 47 37h131q35 0 19 -39l-418 -1030q-18 -35 -51 -35h-144q-38 0 -38 35z" />
<glyph unicode="w" horiz-adv-x="1222" d="M147 1065q0 39 37 39h117q33 0 33 -37l-10 -573l-7 -265h5l92 265l202 575q18 35 48 35h112q28 0 33 -35l-2 -575l-4 -265h4l92 265l188 573q21 37 50 37h127q36 0 20 -39l-379 -1028q-16 -37 -51 -37h-137q-41 0 -41 37l4 512l-2 282h-6l-103 -282l-174 -512 q-15 -37 -51 -37h-139q-35 0 -39 37z" />
<glyph unicode="x" horiz-adv-x="788" d="M-42 12q-3 13 7 27l344 522l-157 502q-6 17 1 29t25 12h129q25 0 37 -27l92 -364l217 364q15 27 49 27h127q19 0 22 -13t-9 -28l-332 -502l158 -522q6 -15 0 -27t-25 -12h-129q-28 0 -39 25l-90 381l-225 -381q-17 -25 -45 -25h-135q-19 0 -22 12z" />
<glyph unicode="y" horiz-adv-x="778" d="M-55 -180l30 90q12 33 45 31l4 -1q3 -1 10 -2.5t15 -2.5q30 -5 55 -5q112 0 112 119q0 19 -3 41l-70 975q-5 39 35 39h123q29 0 33 -37l31 -657l-13 -174h4l56 174l239 657q21 37 49 37h127q35 0 23 -39l-401 -999q-60 -162 -134 -233t-225 -71q-80 0 -123 19 q-30 12 -22 39z" />
<glyph unicode="z" horiz-adv-x="731" d="M-8 37l14 72q1 18 19 47l475 776h-303q-37 0 -29 33l16 102q6 37 45 37h500q37 0 27 -37l-13 -74q-5 -29 -22 -51l-469 -770h319q37 0 31 -33l-18 -102q-6 -37 -41 -37h-520q-37 0 -31 37z" />
<glyph unicode="{" horiz-adv-x="526" d="M55 555l21 104q5 35 39 35h22q44 0 71 77q26 73 64 290q39 217 102 298t197 81h54q38 0 30 -35l-16 -84q-1 -37 -43 -37h-27q-44 0 -71 -57q-28 -60 -52 -199q-40 -224 -81 -309q-44 -91 -119 -113q82 -24 82 -162q0 -80 -29 -256q-20 -97 -20 -168q0 -90 53 -90h28 q33 0 29 -36l-14 -82q-6 -37 -43 -37h-66q-96 0 -136 39t-40 135q0 74 23 207q37 200 37 282q0 84 -44 84h-22q-35 0 -29 33z" />
<glyph unicode="|" horiz-adv-x="528" d="M174 -188v1634q0 37 37 37h108q35 0 35 -37v-1634q0 -37 -35 -37h-108q-37 0 -37 37z" />
<glyph unicode="}" horiz-adv-x="526" d="M-82 -188l14 82q6 36 43 36h27q47 0 74 58q26 54 53 200q40 223 82 309q43 88 119 109q-84 27 -84 162q0 92 30 260q19 112 19 166q0 90 -55 90h-27q-35 0 -29 37l17 84q6 35 41 35h65q97 0 137 -40q41 -41 41 -136q0 -77 -22 -203q-37 -203 -37 -285t41 -82h22 q35 0 29 -35l-18 -104q-6 -33 -41 -33h-23q-41 0 -68 -78q-30 -85 -67 -290q-38 -215 -100 -297q-63 -82 -197 -82h-55q-37 0 -31 37z" />
<glyph unicode="~" horiz-adv-x="976" d="M109 664q77 221 237 221q71 0 168 -47l96 -47q75 -35 111 -35q53 0 92 61q11 15 25 41q15 24 39 12l73 -34q17 -11 11 -37q-72 -221 -238 -221q-73 0 -168 49l-96 47q-69 33 -109 33q-54 0 -94 -60l-25 -43q-12 -22 -38 -12l-74 37q-21 7 -10 35z" />
<glyph unicode="&#xa1;" horiz-adv-x="444" d="M-4 -188l178 839q6 37 41 37h90q35 0 29 -37l-117 -839q-7 -37 -43 -37h-147q-37 0 -31 37zM193 897l28 170q6 37 43 37h142q32 0 26 -37l-29 -170q-10 -37 -41 -37h-139q-40 0 -30 37z" />
<glyph unicode="&#xa2;" horiz-adv-x="698" d="M59 326q0 103 23 227q46 267 142 402q95 134 265 161l23 137q6 35 39 35h70q36 0 30 -35l-22 -137q24 -1 64 -11q37 -9 42 -9q26 -15 19 -43l-39 -92q-15 -40 -43 -25q-59 10 -113 10q-118 0 -181 -88q-63 -89 -102 -305q-22 -126 -22 -207q0 -99 41 -145q41 -45 129 -45 q40 0 119 12q37 16 37 -23l6 -92q-2 -30 -39 -45q-92 -19 -119 -20l-22 -138q-6 -34 -41 -34h-72q-33 0 -27 34l23 140q-108 15 -168 99q-62 86 -62 237z" />
<glyph unicode="&#xa3;" horiz-adv-x="958" d="M-4 102q-10 20 14 35q271 203 260 518h-145q-35 0 -29 33l13 70q6 30 38 30h99q-23 143 -23 193q0 216 121 346q122 131 320 131q319 0 319 -276q0 -158 -47 -158h-121q-24 0 -24 27q0 5 9 43q9 37 9 73q0 115 -154 115q-129 0 -183 -89t-54 -216q0 -28 20 -189h207 q35 0 29 -30l-12 -70q-6 -33 -39 -33h-168q-3 -44 -4 -78q-1 -35 -8 -101q-4 -40 -21 -98t-57 -107q-41 -50 -103 -91q59 25 105 25q47 0 110 -23q60 -22 101 -22q107 0 135 184q6 35 43 35h96q38 0 31 -45q-28 -161 -89 -255q-60 -93 -173 -93q-73 0 -167 30 q-98 31 -161 31q-112 0 -207 -53q-29 -11 -37 6z" />
<glyph unicode="&#xa4;" horiz-adv-x="989" d="M84 215q-24 21 0 45l104 105q-30 83 -30 215q0 133 30 215l-104 104q-23 24 0 47l45 45q23 21 47 0l94 -94q80 113 226 113q145 0 223 -113l96 94q23 23 45 0l47 -45q21 -24 0 -47l-106 -106q30 -85 30 -213q0 -133 -30 -215l106 -105q23 -22 0 -45l-47 -47 q-22 -22 -45 0l-96 98q-77 -116 -223 -116q-147 0 -226 116l-94 -98q-24 -21 -47 0zM315 580q0 -287 181 -287q180 0 180 287q0 288 -180 288q-181 0 -181 -288z" />
<glyph unicode="&#xa5;" horiz-adv-x="950" d="M84 397l8 64q6 33 39 33h248l6 36l-20 127h-205q-33 0 -27 33l10 66q7 30 39 30h148l-127 609q-7 45 35 45h137q32 0 43 -35l104 -657h6l340 657q23 35 52 35h131q46 0 22 -45l-344 -609h150q34 0 28 -30l-12 -66q-6 -33 -39 -33h-205l-65 -127l-6 -36h247q33 0 27 -33 l-8 -64q-11 -35 -39 -35h-248l-59 -323q-8 -39 -43 -39h-125q-41 0 -35 39l59 323h-247q-36 0 -25 35z" />
<glyph unicode="&#xa6;" horiz-adv-x="528" d="M174 -188v610q0 37 37 37h108q35 0 35 -37v-610q0 -37 -35 -37h-108q-37 0 -37 37zM174 836v610q0 37 37 37h108q35 0 35 -37v-610q0 -37 -35 -37h-108q-37 0 -37 37z" />
<glyph unicode="&#xa7;" horiz-adv-x="985" d="M41 -158l16 99q6 37 54 26q97 -26 213 -26q91 0 171 49t80 133q0 31 -19 57q-18 25 -42 41q-9 6 -67 40q-47 27 -68 42q-115 70 -175 137q-61 69 -61 162q0 101 58 190q56 86 157 119q-84 84 -84 199q0 167 118 258q119 92 302 92q131 0 230 -30q34 -12 26 -48l-18 -98 q-6 -38 -53 -27q-100 27 -187 27q-85 0 -154 -51t-69 -125q0 -41 26 -70q25 -27 87 -64q65 -38 84 -52q108 -70 170 -143q59 -69 59 -161q0 -103 -53 -185q-53 -81 -154 -116q86 -83 86 -200q0 -162 -131 -257q-133 -96 -313 -96q-169 0 -260 31q-20 6 -27 16q-6 9 -2 31z M324 623q0 -29 10 -50q10 -22 39 -46q11 -9 45 -34q15 -11 67 -40q55 -31 68 -39q60 7 111 61q49 52 49 117q0 42 -33 83q-32 39 -71 64q-58 37 -115 70q-67 -5 -118 -60q-52 -56 -52 -126z" />
<glyph unicode="&#xa8;" horiz-adv-x="532" d="M166 1237l18 102q6 35 41 35h115q35 0 29 -35l-17 -102q-8 -33 -41 -33h-114q-37 0 -31 33zM453 1237l16 102q8 35 43 35h115q34 0 28 -35l-18 -102q-6 -33 -39 -33h-117q-34 0 -28 33z" />
<glyph unicode="&#xa9;" horiz-adv-x="1421" d="M84 719q0 323 159 531t468 208t468 -208q158 -207 158 -531q0 -323 -158 -529t-468 -206t-468 206q-159 207 -159 529zM211 719q0 -275 123 -445t377 -170q253 0 376 170q123 169 123 445t-123 447t-376 171q-254 0 -377 -171t-123 -447zM436 721q0 230 77 330 q76 98 237 98q94 0 139 -21q24 -8 24 -32l-20 -80q-5 -34 -31 -19q-25 11 -90 11q-98 0 -137 -63t-39 -224q0 -160 40 -222q41 -63 138 -63q59 0 92 10q27 12 31 -20l18 -78q2 -26 -20 -33q-73 -20 -141 -20q-163 0 -240 98q-78 99 -78 328z" />
<glyph unicode="&#xaa;" horiz-adv-x="649" d="M174 1190q0 196 113 274q112 77 327 82l17 92q8 64 -16 86q-25 23 -89 23q-66 0 -168 -31q-11 -5 -23 -1q-11 4 -9 22l-4 82q0 24 28 34q111 39 199 39q242 0 242 -194q0 -25 -7 -72l-102 -592q-6 -35 -43 -35h-82q-35 0 -29 33l9 64q-55 -105 -179 -105q-79 0 -132 55 q-52 53 -52 144zM328 1204q0 -48 16 -65q17 -19 53 -19q67 0 114 51q46 50 58 134l23 120q-127 -5 -195 -52q-69 -48 -69 -169z" />
<glyph unicode="&#xab;" horiz-adv-x="722" d="M72 567q5 14 10 19l160 278q16 27 45 27h106q32 0 17 -35l-170 -289l67 -286q6 -35 -28 -35h-107q-28 0 -35 26l-63 279q0 10 -2 16zM377 567l10 19l158 278q21 27 45 27h108q30 0 13 -35l-168 -289l67 -286q5 -35 -28 -35h-107q-23 0 -35 26l-61 279q0 10 -2 16z" />
<glyph unicode="&#xac;" horiz-adv-x="980" d="M135 678l17 100q6 33 43 33h675q35 0 29 -33l-80 -448q-1 -37 -43 -37h-108q-32 0 -31 37l57 313h-528q-39 0 -31 35z" />
<glyph unicode="&#xad;" horiz-adv-x="557" d="M76 518l16 94q6 31 39 31h354q20 0 27 -7q8 -8 6 -24l-16 -94q-8 -33 -43 -33h-357q-34 0 -26 33z" />
<glyph unicode="&#xae;" horiz-adv-x="784" d="M74 1102q0 150 85 253t232 103q150 0 234 -102t84 -254t-84 -255q-84 -104 -234 -104q-146 0 -232 105q-85 104 -85 254zM145 1102q0 -130 62 -210q61 -79 184 -79t184 79q62 80 62 210q0 129 -62 209t-184 80t-184 -80t-62 -209zM270 920v370q0 19 19 19h112 q76 0 110 -34t34 -106q0 -105 -78 -129l65 -116q8 -19 -14 -19h-53q-11 0 -19 13l-61 114h-29v-112q0 -15 -16 -15h-51q-19 0 -19 15zM356 1104h37q39 0 51 13q13 15 13 52q0 36 -13 51q-12 13 -51 13h-37v-129z" />
<glyph unicode="&#xaf;" horiz-adv-x="532" d="M156 1247l8 53q11 35 39 35h430q37 0 26 -35l-6 -53q-8 -35 -41 -35h-428q-34 0 -28 35z" />
<glyph unicode="&#xb0;" horiz-adv-x="636" d="M178 1133q0 126 86 227q85 100 219 100q103 0 165 -62q63 -63 63 -161q0 -133 -85 -233q-86 -101 -218 -101q-103 0 -166 65q-64 66 -64 165zM299 1149q-2 -60 31 -94q33 -35 90 -35q75 0 121 59q47 61 47 144q0 53 -31 89q-30 34 -86 34q-77 0 -123 -60 q-48 -61 -49 -137z" />
<glyph unicode="&#xb1;" horiz-adv-x="974" d="M4 35l14 74q6 34 41 34h740q37 0 30 -34l-12 -74q-11 -35 -41 -35h-741q-37 0 -31 35zM127 723l16 94q6 33 43 33h281l57 340q8 35 43 35h107q34 0 26 -35l-57 -340h283q32 0 30 -33l-18 -94q-7 -33 -39 -33h-283l-65 -348q-1 -33 -37 -33h-108q-32 0 -31 33l63 348h-280 q-38 0 -31 33z" />
<glyph unicode="&#xb2;" horiz-adv-x="624" d="M162 1032l14 70q6 24 27 39q5 5 51 48q12 11 26.5 25t23 22t13.5 12q11 10 63 62q43 43 66 71q8 10 55 71q32 41 50 78q17 34 30 73t13 76q5 74 -72 74q-112 0 -112 -141q0 -39 -39 -39h-82q-31 0 -31 24q0 127 69 210t210 83q108 0 163 -55q56 -56 56 -137 q0 -253 -361 -555h240q41 0 31 -33l-17 -78q-11 -33 -37 -33h-422q-38 0 -28 33z" />
<glyph unicode="&#xb3;" horiz-adv-x="624" d="M100 1051l29 75q15 30 43 23q76 -21 123 -21q85 0 131 43q47 44 47 125q0 86 -100 86h-64q-32 0 -26 33l12 70q6 33 39 33h63q62 0 98 45q35 44 35 112q0 76 -122 76q-26 0 -123 -20q-29 -8 -29 20l-4 80q-2 19 27 31q68 28 157 28q117 0 187 -47q69 -46 69 -139 q0 -80 -39 -152t-104 -94q38 -10 62 -52t24 -103q0 -152 -89 -233q-88 -81 -241 -81q-50 0 -107 10t-75 19q-27 15 -23 33z" />
<glyph unicode="&#xb4;" horiz-adv-x="532" d="M262 1233l98 162q17 26 43 26h158q19 0 22 -13q3 -14 -12 -26l-168 -157q-23 -21 -49 -21h-75q-32 0 -17 29z" />
<glyph unicode="&#xb5;" horiz-adv-x="847" d="M-29 -188l222 1255q6 37 45 37h116q35 0 29 -37l-115 -647q-8 -43 -8 -86q0 -176 129 -176q71 0 109 50q37 49 55 150l125 709q6 37 43 37h119q34 0 28 -37l-133 -748q-57 -335 -305 -335q-89 0 -144 41q-54 41 -71 98l-53 -313q-6 -35 -43 -35h-117q-37 0 -31 37z" />
<glyph unicode="&#xb6;" horiz-adv-x="911" d="M164 936q0 215 122 360q122 144 345 144h385q37 0 31 -33l-13 -66q-6 -32 -39 -32h-65q-61 0 -89 -25t-40 -94l-209 -1186q-22 -130 -73 -184q-50 -53 -157 -53q-67 0 -112 12q-24 6 -19 35l9 59q2 29 36 29q6 0 27 -3t35 -3q47 0 71 27q23 25 35 97l103 580h-31 q-158 0 -255 91t-97 245z" />
<glyph unicode="&#xb7;" horiz-adv-x="380" d="M88 473l31 162q6 37 43 37h127q36 0 30 -37l-30 -162q-6 -37 -39 -37h-131q-37 0 -31 37z" />
<glyph unicode="&#xb8;" horiz-adv-x="532" d="M43 -262l8 55q5 21 25 21h51q72 0 72 71q0 61 -107 133h78q149 -52 149 -163q0 -74 -46 -114t-123 -40q-67 0 -93 8q-19 8 -14 29z" />
<glyph unicode="&#xb9;" horiz-adv-x="624" d="M283 1630q-12 29 16 47l229 191q24 12 45 12h82q37 0 31 -35l-143 -811q-6 -35 -39 -35h-88q-37 0 -31 35l115 645l-131 -108q-28 -21 -47 4z" />
<glyph unicode="&#xba;" horiz-adv-x="679" d="M201 1260q0 75 16 180q40 235 125 344q84 108 231 108q248 0 248 -272q0 -58 -18 -180q-40 -233 -124 -343q-83 -108 -228 -108q-250 0 -250 271zM367 1274q0 -141 90 -141q67 0 110 72q43 70 70 235q18 100 18 168q0 139 -90 139q-67 0 -110 -72q-44 -72 -72 -235 q-16 -87 -16 -166z" />
<glyph unicode="&#xbb;" horiz-adv-x="722" d="M49 281l164 286l-61 289q-12 35 26 35h107q26 0 32 -27l64 -278q2 -10 -2 -19q1 -4 -6 -16l-162 -279q-14 -26 -41 -26h-109q-35 0 -12 35zM354 281l162 286l-61 289q-12 35 24 35h109q28 0 33 -27l63 -278q2 -10 -2 -19q4 -6 -6 -16l-162 -279q-12 -26 -43 -26h-106 q-35 0 -11 35z" />
<glyph unicode="&#xbc;" horiz-adv-x="1458" d="M207 1190q-12 29 16 47l230 190q26 13 45 13h82q36 0 30 -35l-143 -811q-6 -35 -39 -35h-88q-37 0 -31 35l115 645l-131 -109q-28 -21 -47 5zM286 10q-3 11 7 25l876 1378q23 27 48 27h104q34 0 16 -35l-878 -1376q-18 -29 -47 -29h-105q-18 0 -21 10zM819 223l12 70 q1 21 21 41l399 520q23 27 43 27h92q37 0 31 -35l-92 -516h49q38 0 27 -33l-10 -74q-11 -35 -39 -35h-49l-31 -153q-6 -35 -39 -35h-88q-35 0 -29 35l29 153h-297q-34 0 -29 35zM997 330h172l60 342z" />
<glyph unicode="&#xbd;" horiz-adv-x="1458" d="M207 1190q-12 29 16 47l230 190q26 13 45 13h82q36 0 30 -35l-143 -811q-6 -35 -39 -35h-88q-37 0 -31 35l115 645l-131 -109q-28 -21 -47 5zM208 10q-3 11 7 25l877 1378q22 27 47 27h104q35 0 17 -35l-879 -1376q-18 -29 -47 -29h-105q-18 0 -21 10zM821 33 q-11 -33 29 -33h422q26 0 37 33l16 78q10 32 -31 32h-239q360 301 360 555q0 83 -55 138t-164 55q-141 0 -210 -83q-68 -81 -68 -210q0 -25 30 -25h82q39 0 39 39q0 142 113 142q76 0 71 -74q0 -38 -13 -77t-30 -73t-50 -77q-8 -10 -27 -35.5t-27 -35.5q-23 -28 -67 -72 q-51 -51 -62 -61q-5 -4 -13.5 -12.5t-23.5 -22.5t-27 -25q-47 -43 -51 -48q-20 -14 -26 -39z" />
<glyph unicode="&#xbe;" horiz-adv-x="1458" d="M25 610l28 76q15 30 43 23q78 -21 123 -21q85 0 131 43q47 44 47 125q0 86 -100 86h-64q-32 0 -26 33l12 69q6 33 39 33h64q61 0 97 45t36 113q0 76 -123 76q-21 0 -123 -21q-29 -8 -29 21l-4 80q-2 18 27 30q70 29 157 29q117 0 187 -47q69 -47 69 -139q0 -82 -38 -152 q-39 -71 -105 -94q39 -11 63 -52q23 -40 23 -104q0 -151 -89 -232q-88 -81 -241 -81q-50 0 -107 10t-75 19q-26 15 -22 32zM300 10q-3 11 7 25l877 1378q22 27 47 27h104q35 0 17 -35l-879 -1376q-18 -29 -47 -29h-104q-19 0 -22 10zM819 223l12 70q1 21 21 41l399 520 q23 27 43 27h92q37 0 31 -35l-92 -516h49q38 0 27 -33l-10 -74q-11 -35 -39 -35h-49l-31 -153q-6 -35 -39 -35h-88q-35 0 -29 35l29 153h-297q-34 0 -29 35zM997 330h172l60 342z" />
<glyph unicode="&#xbf;" horiz-adv-x="694" d="M-16 0q0 -117 79 -178q80 -62 220 -62q144 0 225 37q36 12 37 39l-2 107q1 16 -7 23q-9 7 -30 1l-28 -8q-7 -2 -19.5 -5t-17.5 -5q-13 -4 -45 -7q-30 -3 -60 -3q-139 0 -139 108q0 71 41 151q38 75 92 140q49 60 100 150q48 86 64 174v-9q6 37 -31 37h-119q-37 0 -43 -35 v7q-11 -72 -47 -135q-39 -68 -82 -123q-57 -72 -88 -115q-44 -61 -72 -134q-28 -74 -28 -155zM336 897l26 170q10 37 46 37h139q36 0 26 -37l-26 -170q-10 -37 -43 -37h-137q-41 0 -31 37z" />
<glyph unicode="&#xc0;" d="M-35 41l541 1358q17 41 57 41h178q25 0 34 -9t11 -32l60 -1358q5 -41 -37 -41h-129q-33 0 -37 37l-6 319h-342l-119 -319q-21 -37 -47 -37h-135q-44 0 -29 41zM371 537h250v692h-5zM478 1729q7 14 26 14h151q25 0 33 -29l47 -162q4 -10 -3 -19q-8 -9 -21 -9h-72 q-20 0 -41 22l-119 158q-8 11 -1 25z" />
<glyph unicode="&#xc1;" d="M-35 41l541 1358q17 41 57 41h178q25 0 34 -9t11 -32l60 -1358q5 -41 -37 -41h-129q-33 0 -37 37l-6 319h-342l-119 -319q-21 -37 -47 -37h-135q-44 0 -29 41zM371 537h250v692h-5zM608 1552l97 162q21 29 49 29h157q19 0 20 -13q1 -14 -11 -26l-170 -158 q-22 -22 -52 -22h-73q-33 0 -17 28z" />
<glyph unicode="&#xc2;" d="M-35 41l541 1358q17 41 57 41h178q25 0 34 -9t11 -32l60 -1358q5 -41 -37 -41h-129q-33 0 -37 37l-6 319h-342l-119 -319q-21 -37 -47 -37h-135q-44 0 -29 41zM371 537h250v692h-5zM427 1536q-2 13 13 25l170 165q28 23 49 23h91q33 0 45 -23l110 -165q11 -12 4 -25 q-6 -12 -22 -12h-76q-17 0 -43 22l-76 94l-108 -94q-29 -22 -49 -22h-89q-18 0 -19 12z" />
<glyph unicode="&#xc3;" d="M-35 41l541 1358q17 41 57 41h178q25 0 34 -9t11 -32l60 -1358q5 -41 -37 -41h-129q-33 0 -37 37l-6 319h-342l-119 -319q-21 -37 -47 -37h-135q-44 0 -29 41zM371 537h250v692h-5zM418 1569q6 58 44 99q37 40 101 40q42 0 129 -35l47 -31q37 -20 60 -20q37 0 37 45l6 12 q8 23 35 23h49q32 0 26 -45q-27 -137 -147 -137q-46 0 -129 32l-51 31q-35 18 -57 12t-30 -17q-11 -14 -12 -24l-2 -8q-1 -20 -37 -20h-49q-30 0 -20 43z" />
<glyph unicode="&#xc4;" d="M-35 41l541 1358q17 41 57 41h178q25 0 34 -9t11 -32l60 -1358q5 -41 -37 -41h-129q-33 0 -37 37l-6 319h-342l-119 -319q-21 -37 -47 -37h-135q-44 0 -29 41zM371 537h250v692h-5zM434 1559l21 100q4 37 37 37h118q37 0 33 -37l-20 -100q-6 -35 -41 -35h-119 q-35 0 -29 35zM723 1559l22 100q4 37 35 37h119q39 0 35 -37l-23 -100q-6 -35 -41 -35h-118q-35 0 -29 35z" />
<glyph unicode="&#xc5;" d="M-35 41l541 1358q0 6 4 10q-29 40 -29 90q0 86 57 143q58 58 146 58q76 0 124 -42t48 -108q0 -94 -70 -155l60 -1354q5 -41 -37 -41h-129q-33 0 -37 37l-6 319h-342l-119 -319q-21 -37 -47 -37h-135q-44 0 -29 41zM371 537h250v692h-5zM580 1505q0 -59 69 -65h10 q42 0 69 28q28 30 28 74q0 70 -76 70q-46 0 -73 -29t-27 -78z" />
<glyph unicode="&#xc6;" horiz-adv-x="1241" d="M-57 12q-8 13 2 29l606 1358q18 41 59 41h684q37 0 31 -37l-18 -113q-6 -39 -43 -39h-344l-76 -426h327q37 0 31 -39l-18 -102q-6 -37 -43 -37h-328l-82 -461h350q39 0 33 -36l-20 -111q-8 -39 -43 -39h-512q-41 0 -35 39l57 321h-278l-127 -323q-22 -37 -50 -37h-135 q-21 0 -28 12zM381 539h211l129 716h-64z" />
<glyph unicode="&#xc7;" horiz-adv-x="821" d="M84 387q0 122 35 334q73 414 202 576q128 161 369 161q119 0 201 -26q39 -12 27 -48l-37 -96q-12 -44 -54 -28q-80 14 -125 14q-159 0 -239 -115t-137 -438q-35 -218 -35 -303q0 -141 53 -196q53 -54 170 -54q56 0 135 20q41 12 41 -32l6 -99q-2 -29 -45 -47 q-77 -26 -182 -26h-12q80 -56 80 -136q0 -79 -53 -121q-52 -42 -138 -42q-58 0 -82 12q-21 7 -16 29l10 57q6 20 25 20h55q76 0 76 70q0 62 -80 125q-250 52 -250 389z" />
<glyph unicode="&#xc8;" horiz-adv-x="792" d="M23 39l241 1364q6 37 45 37h537q39 0 33 -37l-21 -111q-6 -39 -43 -39h-377l-73 -428h358q37 0 31 -39l-19 -102q-6 -37 -43 -37h-360l-82 -461h381q41 0 35 -36l-21 -111q-7 -39 -45 -39h-543q-40 0 -34 39zM441 1729q7 14 26 14h151q25 0 33 -29l47 -162q4 -10 -3 -19 t-21 -9h-72q-20 0 -41 22l-119 158q-8 11 -1 25z" />
<glyph unicode="&#xc9;" horiz-adv-x="792" d="M23 39l241 1364q6 37 45 37h537q39 0 33 -37l-21 -111q-6 -39 -43 -39h-377l-73 -428h358q37 0 31 -39l-19 -102q-6 -37 -43 -37h-360l-82 -461h381q41 0 35 -36l-21 -111q-7 -39 -45 -39h-543q-40 0 -34 39zM520 1552l96 162q23 29 50 29h157q19 0 20 -13t-12 -26 l-169 -158q-22 -22 -52 -22h-73q-33 0 -17 28z" />
<glyph unicode="&#xca;" horiz-adv-x="792" d="M23 39l241 1364q6 37 45 37h537q39 0 33 -37l-21 -111q-6 -39 -43 -39h-377l-73 -428h358q37 0 31 -39l-19 -102q-6 -37 -43 -37h-360l-82 -461h381q41 0 35 -36l-21 -111q-7 -39 -45 -39h-543q-40 0 -34 39zM370 1536q-2 13 13 25l170 165q28 23 49 23h90q33 0 45 -23 l111 -165q10 -12 4 -25q-6 -12 -23 -12h-75q-17 0 -43 22l-76 94l-109 -94q-29 -22 -49 -22h-88q-17 0 -19 12z" />
<glyph unicode="&#xcb;" horiz-adv-x="792" d="M23 39l241 1364q6 37 45 37h537q39 0 33 -37l-21 -111q-6 -39 -43 -39h-377l-73 -428h358q37 0 31 -39l-19 -102q-6 -37 -43 -37h-360l-82 -461h381q41 0 35 -36l-21 -111q-7 -39 -45 -39h-543q-40 0 -34 39zM375 1559l20 100q1 37 37 37h119q34 0 33 -37l-21 -100 q-6 -35 -41 -35h-119q-34 0 -28 35zM664 1559l22 100q1 37 35 37h119q35 0 34 -37l-22 -100q-6 -35 -41 -35h-119q-34 0 -28 35z" />
<glyph unicode="&#xcc;" horiz-adv-x="423" d="M35 39l241 1364q6 37 43 37h125q43 0 33 -37l-239 -1364q-6 -39 -43 -39h-127q-39 0 -33 39zM208 1729q7 14 25 14h152q25 0 33 -29l47 -162q4 -10 -3 -19q-8 -9 -22 -9h-71q-20 0 -41 22l-119 158q-8 11 -1 25z" />
<glyph unicode="&#xcd;" horiz-adv-x="423" d="M35 39l241 1364q6 37 43 37h125q43 0 33 -37l-239 -1364q-6 -39 -43 -39h-127q-39 0 -33 39zM340 1552l96 162q23 29 49 29h158q19 0 20 -13t-12 -26l-170 -158q-22 -22 -51 -22h-74q-32 0 -16 28z" />
<glyph unicode="&#xce;" horiz-adv-x="423" d="M35 39l241 1364q6 37 43 37h125q43 0 33 -37l-239 -1364q-6 -39 -43 -39h-127q-39 0 -33 39zM157 1536q-2 13 13 25l170 165q28 23 49 23h90q33 0 45 -23l111 -165q11 -12 4 -25q-6 -12 -23 -12h-75q-17 0 -43 22l-76 94l-109 -94q-29 -22 -49 -22h-88q-18 0 -19 12z" />
<glyph unicode="&#xcf;" horiz-adv-x="423" d="M35 39l241 1364q6 37 43 37h125q43 0 33 -37l-239 -1364q-6 -39 -43 -39h-127q-39 0 -33 39zM164 1559l20 100q4 37 37 37h119q37 0 33 -37l-21 -100q-6 -35 -41 -35h-118q-35 0 -29 35zM453 1559l22 100q4 37 35 37h119q39 0 35 -37l-23 -100q-6 -35 -41 -35h-119 q-34 0 -28 35z" />
<glyph unicode="&#xd0;" horiz-adv-x="968" d="M27 39l112 616h-53q-37 0 -29 31l13 68q7 34 39 34h53l106 615q6 37 45 37h254q199 0 301 -100q101 -99 101 -330q0 -129 -29 -291q-67 -399 -205 -559q-137 -160 -383 -160h-291q-40 0 -34 39zM258 186h109q145 0 232 116q86 115 136 417q29 171 29 266q0 145 -54 207 q-54 61 -161 61h-105l-82 -465h148q31 0 27 -34l-13 -68q-8 -31 -37 -31h-147z" />
<glyph unicode="&#xd1;" horiz-adv-x="989" d="M23 39l241 1364q6 37 45 37h111q39 0 47 -31l211 -1014l176 1008q10 37 45 37h121q36 0 35 -37l-244 -1364q-6 -39 -43 -39h-113q-37 0 -43 33l-215 1011l-176 -1005q-7 -39 -43 -39h-121q-40 0 -34 39zM430 1569q6 58 44 99q37 40 101 40q43 0 130 -35l47 -31 q37 -20 59 -20q37 0 37 45l6 12q8 23 35 23h49q33 0 27 -45q-27 -137 -148 -137q-46 0 -129 32l-51 31q-35 18 -56 12q-23 -7 -31 -17q-10 -13 -11 -24l-2 -8q-1 -20 -37 -20h-49q-31 0 -21 43z" />
<glyph unicode="&#xd2;" horiz-adv-x="1003" d="M84 387q0 127 35 332q74 412 199 575q126 164 341 164q171 0 259 -94t88 -309q0 -131 -35 -336q-72 -411 -197 -574q-124 -161 -340 -161q-170 0 -260 93t-90 310zM291 401q0 -131 39 -184t116 -53q118 0 190 121q74 124 130 434q35 208 35 319q0 132 -39 186t-119 54 q-117 0 -189 -122q-73 -122 -128 -437q-35 -208 -35 -318zM497 1729q7 14 25 14h152q27 0 33 -29l47 -162q4 -10 -3 -19t-22 -9h-72q-20 0 -41 22l-118 158q-8 11 -1 25z" />
<glyph unicode="&#xd3;" horiz-adv-x="1003" d="M84 387q0 127 35 332q74 412 199 575q126 164 341 164q171 0 259 -94t88 -309q0 -131 -35 -336q-72 -411 -197 -574q-124 -161 -340 -161q-170 0 -260 93t-90 310zM291 401q0 -131 39 -184t116 -53q118 0 190 121q74 124 130 434q35 208 35 319q0 132 -39 186t-119 54 q-117 0 -189 -122q-73 -122 -128 -437q-35 -208 -35 -318zM629 1552l96 162q21 29 49 29h158q18 0 19 -13q1 -14 -11 -26l-170 -158q-22 -22 -51 -22h-74q-32 0 -16 28z" />
<glyph unicode="&#xd4;" horiz-adv-x="1003" d="M84 387q0 127 35 332q74 412 199 575q126 164 341 164q171 0 259 -94t88 -309q0 -131 -35 -336q-72 -411 -197 -574q-124 -161 -340 -161q-170 0 -260 93t-90 310zM291 401q0 -131 39 -184t116 -53q118 0 190 121q74 124 130 434q35 208 35 319q0 132 -39 186t-119 54 q-117 0 -189 -122q-73 -122 -128 -437q-35 -208 -35 -318zM447 1536q-2 13 14 25l170 165q28 23 49 23h90q33 0 45 -23l111 -165q10 -12 4 -25q-6 -12 -23 -12h-76q-17 0 -43 22l-75 94l-109 -94q-29 -22 -49 -22h-88q-19 0 -20 12z" />
<glyph unicode="&#xd5;" horiz-adv-x="1003" d="M84 387q0 127 35 332q74 412 199 575q126 164 341 164q171 0 259 -94t88 -309q0 -131 -35 -336q-72 -411 -197 -574q-124 -161 -340 -161q-170 0 -260 93t-90 310zM291 401q0 -131 39 -184t116 -53q118 0 190 121q74 124 130 434q35 208 35 319q0 132 -39 186t-119 54 q-117 0 -189 -122q-73 -122 -128 -437q-35 -208 -35 -318zM438 1569q6 58 44 99q37 40 102 40q42 0 129 -35l47 -31q37 -20 59 -20q37 0 37 45l6 12q8 23 35 23h49q33 0 27 -45q-27 -137 -148 -137q-46 0 -129 32l-51 31q-35 18 -56 12q-23 -7 -31 -17q-10 -13 -11 -24 l-2 -8q-1 -20 -37 -20h-49q-31 0 -21 43z" />
<glyph unicode="&#xd6;" horiz-adv-x="1003" d="M84 387q0 127 35 332q74 412 199 575q126 164 341 164q171 0 259 -94t88 -309q0 -131 -35 -336q-72 -411 -197 -574q-124 -161 -340 -161q-170 0 -260 93t-90 310zM291 401q0 -131 39 -184t116 -53q118 0 190 121q74 124 130 434q35 208 35 319q0 132 -39 186t-119 54 q-117 0 -189 -122q-73 -122 -128 -437q-35 -208 -35 -318zM455 1559l20 100q4 37 37 37h119q37 0 33 -37l-21 -100q-6 -35 -41 -35h-119q-34 0 -28 35zM743 1559l23 100q4 37 35 37h119q38 0 34 -37l-22 -100q-6 -35 -41 -35h-119q-35 0 -29 35z" />
<glyph unicode="&#xd7;" horiz-adv-x="974" d="M80 389q-26 26 4 49l332 281l-234 278q-18 24 11 47l79 68q30 27 52 2l229 -280l328 278q29 24 47 0l57 -68q20 -20 -10 -47l-326 -278l228 -281q16 -24 -7 -49l-84 -70q-27 -24 -45 3l-229 276l-330 -279q-30 -24 -51 0z" />
<glyph unicode="&#xd8;" horiz-adv-x="1013" d="M-14 41q-27 16 2 45l112 143q-14 59 -14 158q0 127 35 332q73 411 200 575q126 164 341 164q190 0 276 -117l68 93q29 33 53 12l51 -47q23 -23 0 -47l-115 -150q15 -76 15 -147q0 -131 -35 -336q-73 -411 -199 -574q-124 -161 -340 -161q-191 0 -276 110l-74 -94 q-25 -25 -47 -8zM297 465l494 690q-29 123 -146 123t-189 -122q-73 -122 -128 -437q-26 -161 -31 -254zM305 283q27 -119 144 -119t190 121q74 122 129 434q22 128 33 248z" />
<glyph unicode="&#xd9;" horiz-adv-x="950" d="M72 287q0 61 12 135l174 981q6 37 45 37h125q39 0 33 -37l-170 -961q-12 -74 -12 -127q0 -80 32 -113q33 -34 111 -34q101 0 150 61q50 62 77 213l168 961q6 37 43 37h127q37 0 31 -37l-174 -981q-40 -233 -142 -336q-100 -102 -294 -102q-168 0 -252 72t-84 231z M470 1729q7 14 26 14h151q25 0 33 -29l47 -162q4 -10 -3 -19q-8 -9 -22 -9h-71q-20 0 -41 22l-119 158q-8 11 -1 25z" />
<glyph unicode="&#xda;" horiz-adv-x="950" d="M72 287q0 61 12 135l174 981q6 37 45 37h125q39 0 33 -37l-170 -961q-12 -74 -12 -127q0 -80 32 -113q33 -34 111 -34q101 0 150 61q50 62 77 213l168 961q6 37 43 37h127q37 0 31 -37l-174 -981q-40 -233 -142 -336q-100 -102 -294 -102q-168 0 -252 72t-84 231z M602 1552l96 162q23 29 50 29h157q19 0 20 -13t-12 -26l-170 -158q-22 -22 -51 -22h-74q-32 0 -16 28z" />
<glyph unicode="&#xdb;" horiz-adv-x="950" d="M72 287q0 61 12 135l174 981q6 37 45 37h125q39 0 33 -37l-170 -961q-12 -74 -12 -127q0 -80 32 -113q33 -34 111 -34q101 0 150 61q50 62 77 213l168 961q6 37 43 37h127q37 0 31 -37l-174 -981q-40 -233 -142 -336q-100 -102 -294 -102q-168 0 -252 72t-84 231z M421 1536q-2 13 13 25l170 165q28 23 49 23h90q33 0 45 -23l111 -165q11 -12 4 -25q-6 -12 -22 -12h-76q-17 0 -43 22l-76 94l-108 -94q-29 -22 -50 -22h-88q-18 0 -19 12z" />
<glyph unicode="&#xdc;" horiz-adv-x="950" d="M72 287q0 61 12 135l174 981q6 37 45 37h125q39 0 33 -37l-170 -961q-12 -74 -12 -127q0 -80 32 -113q33 -34 111 -34q101 0 150 61q50 62 77 213l168 961q6 37 43 37h127q37 0 31 -37l-174 -981q-40 -233 -142 -336q-100 -102 -294 -102q-168 0 -252 72t-84 231z M428 1559l21 100q1 37 36 37h119q34 0 33 -37l-21 -100q-6 -35 -41 -35h-118q-35 0 -29 35zM717 1559l22 100q1 37 35 37h119q36 0 35 -37l-23 -100q-6 -35 -41 -35h-119q-34 0 -28 35z" />
<glyph unicode="&#xdd;" horiz-adv-x="925" d="M203 1395q-6 16 3 30q9 15 32 15h133q32 0 43 -35l67 -459l23 -211h2l100 211l234 459q18 35 49 35h139q44 0 21 -45l-471 -846l-91 -510q-6 -39 -43 -39h-127q-38 0 -32 39l92 510zM588 1552l96 162q21 29 49 29h158q18 0 19 -13q2 -14 -11 -26l-170 -158 q-22 -22 -51 -22h-74q-32 0 -16 28z" />
<glyph unicode="&#xde;" horiz-adv-x="901" d="M23 39l241 1364q6 37 45 37h125q39 0 33 -37l-23 -131h76q195 0 288 -72t93 -239q0 -77 -18 -173q-52 -272 -163 -380q-110 -107 -339 -107h-109l-47 -262q-6 -39 -43 -39h-127q-38 0 -32 39zM307 485h90q129 0 189 63q59 62 92 240q14 69 14 134q0 94 -44 129 q-43 34 -146 34h-90z" />
<glyph unicode="&#xdf;" horiz-adv-x="913" d="M14 35l191 1065q60 352 395 352q140 0 220 -68q79 -67 79 -174q0 -66 -36 -133q-34 -64 -80 -113q-44 -47 -80 -92q-35 -44 -35 -67q0 -29 26 -69q29 -44 60 -83t59 -109q27 -69 27 -145q0 -400 -258 -417q-62 0 -158 20q-51 11 -74 21t-20 20l18 96q8 39 43 33 q30 0 145 82t115 139q0 77 -88 195t-88 198q0 54 25 102q22 43 59 80q24 24 70 64q34 30 59 70q25 41 25 82q0 102 -131 102q-162 0 -197 -199l-184 -1052q-6 -35 -39 -35h-115q-39 0 -33 35z" />
<glyph unicode="&#xe0;" horiz-adv-x="800" d="M16 231q0 243 136 344t417 113l17 98q16 84 -13 126q-28 40 -110 40q-90 0 -215 -41q-16 -4 -28 3q-11 7 -9 26v92q5 35 37 45q93 43 248 43q280 0 280 -241q0 -47 -8 -93l-131 -749q-10 -37 -41 -37h-102q-34 0 -33 33l16 96q-94 -141 -237 -141q-104 0 -164 67t-60 176 zM199 250q0 -111 92 -111q83 0 145 73t80 179l29 158q-117 -7 -192 -28q-69 -19 -104 -60q-34 -40 -42 -85q-8 -46 -8 -126zM360 1408q6 13 25 13h152q26 0 36 -26l45 -162q8 -29 -26 -29h-68q-25 0 -43 21l-116 157q-11 13 -5 26z" />
<glyph unicode="&#xe1;" horiz-adv-x="800" d="M16 231q0 243 136 344t417 113l17 98q16 84 -13 126q-28 40 -110 40q-90 0 -215 -41q-16 -4 -28 3q-11 7 -9 26v92q5 35 37 45q93 43 248 43q280 0 280 -241q0 -47 -8 -93l-131 -749q-10 -37 -41 -37h-102q-34 0 -33 33l16 96q-94 -141 -237 -141q-104 0 -164 67t-60 176 zM199 250q0 -111 92 -111q83 0 145 73t80 179l29 158q-117 -7 -192 -28q-69 -19 -104 -60q-34 -40 -42 -85q-8 -46 -8 -126zM451 1233l98 162q17 26 43 26h158q18 0 21 -13q3 -15 -11 -26l-168 -157q-22 -21 -49 -21h-76q-31 0 -16 29z" />
<glyph unicode="&#xe2;" horiz-adv-x="800" d="M16 231q0 243 136 344t417 113l17 98q16 84 -13 126q-28 40 -110 40q-90 0 -215 -41q-16 -4 -28 3q-11 7 -9 26v92q5 35 37 45q93 43 248 43q280 0 280 -241q0 -47 -8 -93l-131 -749q-10 -37 -41 -37h-102q-34 0 -33 33l16 96q-94 -141 -237 -141q-104 0 -164 67t-60 176 zM199 250q0 -111 92 -111q83 0 145 73t80 179l29 158q-117 -7 -192 -28q-69 -19 -104 -60q-34 -40 -42 -85q-8 -46 -8 -126zM291 1215q-2 12 10 24l172 174q23 21 49 21h90q30 0 45 -21l113 -174q8 -12 3 -24q-4 -11 -21 -11h-76q-22 0 -43 21l-78 102l-111 -102 q-27 -21 -47 -21h-88q-17 0 -18 11z" />
<glyph unicode="&#xe3;" horiz-adv-x="800" d="M16 231q0 243 136 344t417 113l17 98q16 84 -13 126q-28 40 -110 40q-90 0 -215 -41q-16 -4 -28 3q-11 7 -9 26v92q5 35 37 45q93 43 248 43q280 0 280 -241q0 -47 -8 -93l-131 -749q-10 -37 -41 -37h-102q-34 0 -33 33l16 96q-94 -141 -237 -141q-104 0 -164 67t-60 176 zM199 250q0 -111 92 -111q83 0 145 73t80 179l29 158q-117 -7 -192 -28q-69 -19 -104 -60q-34 -40 -42 -85q-8 -46 -8 -126zM283 1247q21 139 137 139q60 0 131 -36l49 -29q34 -21 57 -21q33 0 39 50v8q6 24 37 24h49q34 0 23 -47q-21 -135 -133 -135q-74 0 -135 35l-48 31 q-3 2 -11.5 6.5t-13.5 6.5q-13 5 -21 5h-15q-7 0 -11 -4q-3 -3 -9 -7q-5 -4 -8 -10l-4 -12q-2 -6 -3 -10l-2 -8v-8q-7 -21 -35 -21h-47q-36 0 -26 43z" />
<glyph unicode="&#xe4;" horiz-adv-x="800" d="M16 231q0 243 136 344t417 113l17 98q16 84 -13 126q-28 40 -110 40q-90 0 -215 -41q-16 -4 -28 3q-11 7 -9 26v92q5 35 37 45q93 43 248 43q280 0 280 -241q0 -47 -8 -93l-131 -749q-10 -37 -41 -37h-102q-34 0 -33 33l16 96q-94 -141 -237 -141q-104 0 -164 67t-60 176 zM199 250q0 -111 92 -111q83 0 145 73t80 179l29 158q-117 -7 -192 -28q-69 -19 -104 -60q-34 -40 -42 -85q-8 -46 -8 -126zM299 1237l18 102q6 35 41 35h115q35 0 29 -35l-17 -102q-8 -33 -41 -33h-114q-37 0 -31 33zM586 1237l16 102q8 35 43 35h115q34 0 28 -35l-18 -102 q-6 -33 -39 -33h-117q-34 0 -28 33z" />
<glyph unicode="&#xe5;" horiz-adv-x="800" d="M16 231q0 243 136 344t417 113l17 98q16 84 -13 126q-28 40 -110 40q-90 0 -215 -41q-16 -4 -28 3q-11 7 -9 26v92q5 35 37 45q93 43 248 43q280 0 280 -241q0 -47 -8 -93l-131 -749q-10 -37 -41 -37h-102q-34 0 -33 33l16 96q-94 -141 -237 -141q-104 0 -164 67t-60 176 zM199 250q0 -111 92 -111q83 0 145 73t80 179l29 158q-117 -7 -192 -28q-69 -19 -104 -60q-34 -40 -42 -85q-8 -46 -8 -126zM371 1335q0 89 58 147t155 58q72 0 119 -41t47 -106q0 -89 -60 -146t-153 -57q-75 0 -121 41q-45 41 -45 104zM471 1348q0 -32 23 -50 q22 -18 57 -18q38 0 69 28q29 26 29 70q0 72 -78 72q-44 0 -72 -28t-28 -74z" />
<glyph unicode="&#xe6;" horiz-adv-x="1241" d="M12 225q0 126 44 214q43 86 126 130q82 43 170 61q86 17 207 19l21 133q24 170 -121 170q-84 0 -215 -41q-16 -5 -27 3q-10 7 -8 26l-6 92q7 37 39 45q116 43 239 43q214 0 244 -121q94 121 248 121q125 0 189 -70q65 -71 65 -204q0 -97 -21 -205l-20 -115 q-6 -39 -47 -39h-430q-19 -100 -19 -159q0 -183 193 -183q55 0 153 25q17 6 29 -1t12 -24l2 -86q0 -32 -37 -47q-75 -28 -184 -28q-124 0 -200 52q-77 53 -87 140q-112 -188 -295 -188q-126 0 -194 64q-70 65 -70 173zM199 246q0 -103 108 -103q78 0 131 70t74 180l20 113 q-216 -12 -275 -62q-58 -49 -58 -198zM733 637h291l2 16q0 1 1.5 13t4 29t4.5 37q8 70 8 95q0 70 -21 103t-77 33q-76 0 -127 -78q-52 -79 -86 -248z" />
<glyph unicode="&#xe7;" horiz-adv-x="665" d="M57 311q0 78 25 242q49 294 156 431q106 136 290 136q110 0 174 -20q33 -15 23 -47l-41 -92q-11 -35 -47 -21q-73 6 -98 6q-110 0 -169 -89q-60 -90 -94 -304q-24 -135 -24 -219q0 -96 36 -137t109 -41q45 0 119 16q33 12 33 -25l6 -94q0 -18 -8 -26t-33 -19 q-106 -24 -137 -24q-19 0 -33 2q82 -52 82 -131q0 -74 -46 -114t-124 -40q-66 0 -92 8q-19 8 -14 29l8 55q4 21 24 21h51q72 0 72 71q0 61 -106 133h4q-146 72 -146 293z" />
<glyph unicode="&#xe8;" horiz-adv-x="796" d="M57 336q0 74 25 233q49 280 155 416q105 135 277 135q132 0 199 -76t67 -215q0 -89 -22 -215l-19 -110q-6 -37 -45 -37h-444q-12 -61 -12 -123q0 -199 196 -199q79 0 154 23q15 6 29 -2t12 -25l6 -82q-2 -35 -39 -47q-94 -28 -184 -28q-355 0 -355 352zM276 616h302l2 17 q22 125 22 184q0 146 -104 146q-78 0 -130 -81q-53 -82 -92 -266zM358 1408q6 13 25 13h152q26 0 36 -26l45 -162q6 -29 -26 -29h-68q-25 0 -43 21l-117 157q-10 12 -4 26z" />
<glyph unicode="&#xe9;" horiz-adv-x="796" d="M57 336q0 74 25 233q49 280 155 416q105 135 277 135q132 0 199 -76t67 -215q0 -89 -22 -215l-19 -110q-6 -37 -45 -37h-444q-12 -61 -12 -123q0 -199 196 -199q79 0 154 23q15 6 29 -2t12 -25l6 -82q-2 -35 -39 -47q-94 -28 -184 -28q-355 0 -355 352zM276 616h302l2 17 q22 125 22 184q0 146 -104 146q-78 0 -130 -81q-53 -82 -92 -266zM467 1233l98 162q17 26 43 26h158q18 0 21 -13q3 -15 -11 -26l-168 -157q-22 -21 -49 -21h-76q-31 0 -16 29z" />
<glyph unicode="&#xea;" horiz-adv-x="796" d="M57 336q0 74 25 233q49 280 155 416q105 135 277 135q132 0 199 -76t67 -215q0 -89 -22 -215l-19 -110q-6 -37 -45 -37h-444q-12 -61 -12 -123q0 -199 196 -199q79 0 154 23q15 6 29 -2t12 -25l6 -82q-2 -35 -39 -47q-94 -28 -184 -28q-355 0 -355 352zM276 616h302l2 17 q22 125 22 184q0 146 -104 146q-78 0 -130 -81q-53 -82 -92 -266zM299 1215q-2 12 10 24l172 174q23 21 49 21h91q30 0 45 -21l112 -174q8 -12 3 -24q-4 -11 -21 -11h-76q-22 0 -43 21l-78 102l-110 -102q-27 -21 -47 -21h-89q-17 0 -18 11z" />
<glyph unicode="&#xeb;" horiz-adv-x="796" d="M57 336q0 74 25 233q49 280 155 416q105 135 277 135q132 0 199 -76t67 -215q0 -89 -22 -215l-19 -110q-6 -37 -45 -37h-444q-12 -61 -12 -123q0 -199 196 -199q79 0 154 23q15 6 29 -2t12 -25l6 -82q-2 -35 -39 -47q-94 -28 -184 -28q-355 0 -355 352zM276 616h302l2 17 q22 125 22 184q0 146 -104 146q-78 0 -130 -81q-53 -82 -92 -266zM307 1237l19 102q6 35 41 35h114q35 0 29 -35l-16 -102q-7 -33 -41 -33h-115q-37 0 -31 33zM594 1237l16 102q8 35 43 35h115q35 0 29 -35l-19 -102q-6 -33 -39 -33h-116q-35 0 -29 33z" />
<glyph unicode="&#xec;" horiz-adv-x="382" d="M20 37l183 1030q6 37 43 37h119q32 0 26 -37l-182 -1030q-6 -37 -39 -37h-117q-39 0 -33 37zM135 1408q6 13 25 13h151q27 0 37 -26l45 -162q8 -29 -26 -29h-68q-25 0 -43 21l-117 157q-10 12 -4 26z" />
<glyph unicode="&#xed;" horiz-adv-x="382" d="M20 37l183 1030q6 37 43 37h119q32 0 26 -37l-182 -1030q-6 -37 -39 -37h-117q-39 0 -33 37zM260 1233l98 162q17 26 43 26h158q19 0 22 -13q3 -14 -12 -26l-168 -157q-23 -21 -49 -21h-76q-31 0 -16 29z" />
<glyph unicode="&#xee;" horiz-adv-x="382" d="M20 37l183 1030q6 37 43 37h119q32 0 26 -37l-182 -1030q-6 -37 -39 -37h-117q-39 0 -33 37zM84 1215q-2 12 10 24l172 174q22 21 49 21h91q30 0 45 -21l112 -174q7 -12 3 -24q-4 -11 -21 -11h-76q-22 0 -43 21l-78 102l-110 -102q-27 -21 -48 -21h-88q-17 0 -18 11z" />
<glyph unicode="&#xef;" horiz-adv-x="382" d="M20 37l183 1030q6 37 43 37h119q32 0 26 -37l-182 -1030q-6 -37 -39 -37h-117q-39 0 -33 37zM92 1237l19 102q6 35 41 35h114q35 0 29 -35l-16 -102q-7 -33 -41 -33h-115q-37 0 -31 33zM379 1237l16 102q8 35 43 35h115q35 0 29 -35l-19 -102q-6 -33 -39 -33h-116 q-35 0 -29 33z" />
<glyph unicode="&#xf0;" horiz-adv-x="847" d="M53 313q0 95 25 236q53 293 158 430t276 137q78 0 135 -39q-16 83 -35 125h-176q-34 0 -28 35l10 45q6 31 39 31h98q-2 2 -11.5 13t-31 37t-43.5 52q-13 7 4 19l14 6h136q27 0 39 -15q55 -80 69 -112h137q33 0 27 -31l-10 -45q-6 -35 -37 -35h-74q57 -159 57 -354 q0 -133 -28 -297q-52 -296 -158 -432q-105 -135 -287 -135q-305 0 -305 329zM248 330q0 -180 123 -180q87 0 143 92q55 91 96 307q25 158 25 219q0 184 -125 184q-90 0 -144 -93q-56 -96 -94 -310q-24 -151 -24 -219z" />
<glyph unicode="&#xf1;" horiz-adv-x="851" d="M10 37l180 1030q10 37 43 37h113q35 0 29 -33l-13 -92q92 141 242 141q110 0 169 -66q58 -65 58 -180q0 -41 -10 -94l-133 -743q-6 -37 -39 -37h-119q-36 0 -30 37l125 711q8 43 8 83q0 113 -101 113q-85 0 -143 -70t-76 -192l-116 -645q-6 -37 -41 -37h-117 q-39 0 -29 37zM309 1247q21 139 137 139q61 0 132 -36l49 -29q35 -21 57 -21q33 0 39 50v8q6 24 37 24h49q33 0 22 -47q-21 -135 -133 -135q-74 0 -135 35l-47 31l-26 13q-13 5 -20 5h-15q-8 0 -12 -4q-3 -3 -9 -7q-4 -3 -7 -10l-4 -12q-2 -6 -3 -10l-2 -8v-8 q-8 -21 -35 -21h-47q-37 0 -27 43z" />
<glyph unicode="&#xf2;" horiz-adv-x="851" d="M53 315q0 -331 303 -331q183 0 288 136q106 138 161 431q22 125 22 233q0 336 -301 336q-184 0 -289 -136q-107 -139 -159 -433q-25 -141 -25 -236zM248 332q0 68 24 219q38 214 94 310q54 93 144 93q125 0 125 -184q0 -61 -25 -219q-39 -216 -94 -308q-56 -93 -145 -93 q-123 0 -123 182zM375 1408q6 13 24 13h152q27 0 37 -26l45 -162q6 -29 -27 -29h-67q-25 0 -43 21l-117 157q-10 12 -4 26z" />
<glyph unicode="&#xf3;" horiz-adv-x="851" d="M53 315q0 -331 303 -331q183 0 288 136q106 138 161 431q22 125 22 233q0 336 -301 336q-184 0 -289 -136q-107 -139 -159 -433q-25 -141 -25 -236zM248 332q0 68 24 219q38 214 94 310q54 93 144 93q125 0 125 -184q0 -61 -25 -219q-39 -216 -94 -308q-56 -93 -145 -93 q-123 0 -123 182zM485 1233l99 162q17 26 43 26h157q19 0 22 -13q3 -15 -11 -26l-168 -157q-23 -21 -49 -21h-76q-32 0 -17 29z" />
<glyph unicode="&#xf4;" horiz-adv-x="851" d="M53 315q0 -331 303 -331q183 0 288 136q106 138 161 431q22 125 22 233q0 336 -301 336q-184 0 -289 -136q-107 -139 -159 -433q-25 -141 -25 -236zM248 332q0 68 24 219q38 214 94 310q54 93 144 93q125 0 125 -184q0 -61 -25 -219q-39 -216 -94 -308q-56 -93 -145 -93 q-123 0 -123 182zM317 1215q-1 12 11 24l172 174q23 21 49 21h90q30 0 45 -21l113 -174q7 -12 3 -24q-4 -11 -22 -11h-76q-22 0 -43 21l-77 102l-111 -102q-27 -21 -47 -21h-88q-18 0 -19 11z" />
<glyph unicode="&#xf5;" horiz-adv-x="851" d="M53 315q0 95 25 236q52 294 159 433q105 136 289 136q301 0 301 -336q0 -108 -22 -233q-55 -293 -161 -431q-105 -136 -288 -136q-303 0 -303 331zM248 332q0 -182 123 -182q89 0 145 93q55 92 94 308q25 158 25 219q0 184 -125 184q-90 0 -144 -93q-56 -96 -94 -310 q-24 -151 -24 -219zM309 1247q21 139 137 139q61 0 132 -36l49 -29q35 -21 57 -21q33 0 39 50v8q6 24 37 24h49q33 0 22 -47q-21 -135 -133 -135q-74 0 -135 35l-47 31l-26 13q-13 5 -20 5h-15q-8 0 -12 -4q-3 -3 -9 -7q-4 -3 -7 -10l-4 -12q-2 -6 -3 -10l-2 -8v-8 q-8 -21 -35 -21h-47q-37 0 -27 43z" />
<glyph unicode="&#xf6;" horiz-adv-x="851" d="M53 315q0 -331 303 -331q183 0 288 136q106 138 161 431q22 125 22 233q0 336 -301 336q-184 0 -289 -136q-107 -139 -159 -433q-25 -141 -25 -236zM248 332q0 68 24 219q38 214 94 310q54 93 144 93q125 0 125 -184q0 -61 -25 -219q-39 -216 -94 -308q-56 -93 -145 -93 q-123 0 -123 182zM326 1237l18 102q6 35 41 35h115q34 0 28 -35l-16 -102q-8 -33 -41 -33h-115q-36 0 -30 33zM612 1237l17 102q8 35 43 35h114q35 0 29 -35l-18 -102q-6 -33 -39 -33h-117q-35 0 -29 33z" />
<glyph unicode="&#xf7;" horiz-adv-x="974" d="M139 678l15 88q5 35 41 35h702q35 0 29 -35l-15 -88q-8 -35 -41 -35h-704q-35 0 -27 35zM354 289l29 157q6 37 43 37h127q37 0 31 -37l-27 -157q-6 -37 -43 -37h-129q-37 0 -31 37zM479 995l29 158q6 37 41 37h127q39 0 33 -37l-27 -158q-7 -37 -43 -37h-127 q-39 0 -33 37z" />
<glyph unicode="&#xf8;" horiz-adv-x="860" d="M12 33q-22 21 0 43l68 88q-21 61 -21 151q0 95 25 236q52 294 159 433q105 136 289 136q146 0 222 -82l41 58q21 24 47 4l35 -27q22 -16 0 -43l-68 -88q22 -66 22 -158q0 -109 -20 -233q-52 -293 -161 -431q-108 -136 -290 -136q-149 0 -225 82l-41 -58q-23 -29 -47 -8z M254 375l371 506q-28 73 -109 73q-90 0 -144 -93t-93 -310q-20 -111 -25 -176zM266 231q22 -81 111 -81t145 93q55 92 94 308q24 144 25 197z" />
<glyph unicode="&#xf9;" horiz-adv-x="845" d="M47 231q0 45 8 91l133 745q6 37 43 37h117q37 0 27 -37l-125 -709q-8 -61 -8 -79q0 -121 104 -121q80 0 134 69q55 71 79 191l113 649q6 37 45 37h117q32 0 26 -37l-182 -1030q-6 -37 -39 -37h-113q-20 0 -28 8t-6 25l14 90q-79 -139 -225 -139q-116 0 -175 65t-59 182z M379 1408q6 13 24 13h152q27 0 37 -26l45 -162q6 -29 -27 -29h-67q-25 0 -43 21l-117 157q-10 12 -4 26z" />
<glyph unicode="&#xfa;" horiz-adv-x="845" d="M47 231q0 45 8 91l133 745q6 37 43 37h117q37 0 27 -37l-125 -709q-8 -61 -8 -79q0 -121 104 -121q80 0 134 69q55 71 79 191l113 649q6 37 45 37h117q32 0 26 -37l-182 -1030q-6 -37 -39 -37h-113q-20 0 -28 8t-6 25l14 90q-79 -139 -225 -139q-116 0 -175 65t-59 182z M475 1233l98 162q17 26 43 26h158q19 0 22 -13q3 -14 -12 -26l-168 -157q-22 -21 -49 -21h-75q-32 0 -17 29z" />
<glyph unicode="&#xfb;" horiz-adv-x="845" d="M47 231q0 45 8 91l133 745q6 37 43 37h117q37 0 27 -37l-125 -709q-8 -61 -8 -79q0 -121 104 -121q80 0 134 69q55 71 79 191l113 649q6 37 45 37h117q32 0 26 -37l-182 -1030q-6 -37 -39 -37h-113q-20 0 -28 8t-6 25l14 90q-79 -139 -225 -139q-116 0 -175 65t-59 182z M313 1215q-1 12 11 24l172 174q22 21 49 21h90q30 0 45 -21l113 -174q7 -12 3 -24q-4 -11 -22 -11h-76q-22 0 -43 21l-77 102l-111 -102q-27 -21 -47 -21h-88q-18 0 -19 11z" />
<glyph unicode="&#xfc;" horiz-adv-x="845" d="M47 231q0 45 8 91l133 745q6 37 43 37h117q37 0 27 -37l-125 -709q-8 -61 -8 -79q0 -121 104 -121q80 0 134 69q55 71 79 191l113 649q6 37 45 37h117q32 0 26 -37l-182 -1030q-6 -37 -39 -37h-113q-20 0 -28 8t-6 25l14 90q-79 -139 -225 -139q-116 0 -175 65t-59 182z M322 1237l18 102q6 35 41 35h115q34 0 28 -35l-16 -102q-8 -33 -41 -33h-115q-36 0 -30 33zM608 1237l17 102q8 35 43 35h114q35 0 29 -35l-18 -102q-6 -33 -39 -33h-117q-35 0 -29 33z" />
<glyph unicode="&#xfd;" horiz-adv-x="778" d="M-55 -180l30 90q12 33 45 31l4 -1q3 -1 10 -2.5t15 -2.5q30 -5 55 -5q130 0 109 160l-70 975q-5 39 35 39h123q29 0 33 -37l31 -657l-13 -174h4l56 174l239 657q21 37 49 37h127q35 0 23 -39l-401 -999q-60 -162 -134 -233t-225 -71q-80 0 -123 19q-30 12 -22 39z M459 1233l98 162q17 26 43 26h158q18 0 21 -13q3 -15 -11 -26l-168 -157q-22 -21 -49 -21h-76q-31 0 -16 29z" />
<glyph unicode="&#xfe;" horiz-adv-x="884" d="M-27 -188l281 1593q6 35 41 35h117q38 0 32 -35l-77 -428q82 143 235 143q258 0 258 -323q0 -112 -26 -254q-51 -288 -146 -424q-94 -135 -254 -135q-84 0 -146 40q-64 41 -71 101l-55 -313q-6 -37 -43 -37h-117q-39 0 -29 37zM270 356q0 -206 133 -206q91 0 145 92 q55 93 95 309q23 143 23 221q0 98 -30 140t-91 42q-91 0 -152 -96q-62 -96 -102 -307q-21 -108 -21 -195z" />
<glyph unicode="&#xff;" horiz-adv-x="778" d="M-55 -180l30 90q12 33 45 31l4 -1q3 -1 10 -2.5t15 -2.5q30 -5 55 -5q130 0 109 160l-70 975q-5 39 35 39h123q29 0 33 -37l31 -657l-13 -174h4l56 174l239 657q21 37 49 37h127q35 0 23 -39l-401 -999q-60 -162 -134 -233t-225 -71q-80 0 -123 19q-30 12 -22 39z M289 1237l18 102q6 35 41 35h115q35 0 29 -35l-17 -102q-8 -33 -41 -33h-115q-36 0 -30 33zM575 1237l17 102q8 35 43 35h115q34 0 28 -35l-18 -102q-6 -33 -39 -33h-117q-35 0 -29 33z" />
<glyph unicode="&#x152;" horiz-adv-x="1337" d="M88 436q0 129 29 283q69 401 209 561t389 160h676q38 0 32 -37l-20 -113q-6 -39 -45 -39h-371l-74 -426h355q40 0 30 -39l-18 -102q-6 -37 -43 -37h-356l-80 -461h377q38 0 32 -36l-22 -111q-5 -25 -12 -32t-31 -7h-656q-201 0 -301 101t-100 335zM293 461 q0 -152 52 -214q53 -63 161 -63h96l186 1069h-92q-145 0 -233 -115t-141 -419q-29 -162 -29 -258z" />
<glyph unicode="&#x153;" horiz-adv-x="1294" d="M53 317q0 95 25 234q52 295 155 432q102 137 277 137q189 0 240 -149q106 149 262 149q129 0 196 -76q68 -77 68 -210q0 -95 -21 -203l-18 -111q-4 -22 -13 -28q-10 -7 -32 -7h-434q-13 -120 -13 -133q0 -100 50 -153q51 -54 139 -54q68 0 151 25q18 6 32 0q13 -6 11 -25 l7 -86q-1 -37 -35 -43q-99 -32 -189 -32q-227 0 -290 155q-107 -155 -273 -155q-295 0 -295 333zM248 328q0 -178 110 -178q84 0 137 93q52 93 93 308q24 135 24 223q0 180 -114 180q-85 0 -136 -94t-90 -309q-24 -153 -24 -223zM782 633h293v10q23 133 23 186q0 64 -22 100 q-21 34 -77 34q-75 0 -128 -80q-51 -77 -89 -250z" />
<glyph unicode="&#x178;" horiz-adv-x="925" d="M203 1395q-6 16 3 30q9 15 32 15h133q32 0 43 -35l67 -459l23 -211h2l100 211l234 459q18 35 49 35h139q44 0 21 -45l-471 -846l-91 -510q-6 -39 -43 -39h-127q-38 0 -32 39l92 510zM416 1559l20 100q1 37 37 37h119q34 0 33 -37l-21 -100q-6 -35 -41 -35h-119 q-34 0 -28 35zM705 1559l22 100q1 37 35 37h119q35 0 34 -37l-22 -100q-6 -35 -41 -35h-119q-34 0 -28 35z" />
<glyph unicode="&#x2c6;" horiz-adv-x="532" d="M158 1215q-2 12 10 24l172 174q22 21 49 21h90q30 0 45 -21l113 -174q7 -12 3 -24q-4 -11 -22 -11h-75q-22 0 -43 21l-78 102l-111 -102q-27 -21 -47 -21h-88q-17 0 -18 11z" />
<glyph unicode="&#x2dc;" horiz-adv-x="532" d="M150 1247q21 139 137 139q60 0 131 -36l49 -29q35 -21 57 -21q33 0 39 50v8q6 24 37 24h49q34 0 23 -47q-21 -135 -133 -135q-75 0 -136 35l-47 31q-3 2 -11.5 6.5t-13.5 6.5q-13 5 -21 5h-15q-7 0 -11 -4q-1 -1 -10 -7q-4 -3 -7 -10l-4 -12q-2 -6 -3 -10l-2 -8v-8 q-8 -21 -35 -21h-47q-36 0 -26 43z" />
<glyph unicode="&#x2000;" horiz-adv-x="946" />
<glyph unicode="&#x2001;" horiz-adv-x="1892" />
<glyph unicode="&#x2002;" horiz-adv-x="946" />
<glyph unicode="&#x2003;" horiz-adv-x="1892" />
<glyph unicode="&#x2004;" horiz-adv-x="630" />
<glyph unicode="&#x2005;" horiz-adv-x="473" />
<glyph unicode="&#x2006;" horiz-adv-x="315" />
<glyph unicode="&#x2007;" horiz-adv-x="315" />
<glyph unicode="&#x2008;" horiz-adv-x="236" />
<glyph unicode="&#x2009;" horiz-adv-x="378" />
<glyph unicode="&#x200a;" horiz-adv-x="105" />
<glyph unicode="&#x2010;" horiz-adv-x="559" d="M76 518l16 94q6 31 39 31h354q20 0 27 -7q8 -8 6 -24l-16 -94q-8 -33 -43 -33h-357q-34 0 -26 33z" />
<glyph unicode="&#x2011;" horiz-adv-x="559" d="M76 518l16 94q6 31 39 31h354q20 0 27 -7q8 -8 6 -24l-16 -94q-8 -33 -43 -33h-357q-34 0 -26 33z" />
<glyph unicode="&#x2012;" horiz-adv-x="559" d="M76 518l16 94q6 31 39 31h354q20 0 27 -7q8 -8 6 -24l-16 -94q-8 -33 -43 -33h-357q-34 0 -26 33z" />
<glyph unicode="&#x2013;" horiz-adv-x="761" d="M76 518l16 94q6 31 39 31h559q37 0 29 -31l-17 -94q-6 -33 -38 -33h-562q-34 0 -26 33z" />
<glyph unicode="&#x2014;" horiz-adv-x="1112" d="M76 518l16 94q6 31 39 31h909q37 0 31 -31l-16 -94q-6 -33 -43 -33h-910q-34 0 -26 33z" />
<glyph unicode="&#x2018;" horiz-adv-x="370" d="M188 1034l25 150q5 28 14 47l105 188q21 23 39 23h45q24 0 18 -31l-92 -178h45q35 0 29 -37l-29 -162q-6 -35 -41 -35h-127q-39 0 -31 35z" />
<glyph unicode="&#x2019;" horiz-adv-x="370" d="M203 1026l90 178h-43q-37 0 -31 39l29 160q6 37 43 37h127q37 0 31 -37l-25 -150q-5 -27 -18 -45l-105 -188q-11 -27 -37 -27h-45q-28 0 -16 33z" />
<glyph unicode="&#x201a;" horiz-adv-x="370" d="M-8 -178l90 178h-43q-37 0 -31 39l29 160q6 37 43 37h127q37 0 31 -37l-25 -150q-5 -27 -18 -45l-105 -188q-10 -27 -37 -27h-45q-28 0 -16 33z" />
<glyph unicode="&#x201c;" horiz-adv-x="681" d="M186 1032l27 152q5 26 14 45l105 188q19 25 39 25h45q26 0 18 -33l-88 -176h41q35 0 29 -39l-29 -162q-6 -35 -41 -35h-129q-37 0 -31 35zM496 1032l24 152q1 10 8 25q1 3 3.5 8t4 7.5t1.5 4.5l104 188q23 25 39 25h45q27 0 16 -33l-86 -176h39q37 0 31 -39l-29 -162 q-6 -35 -43 -35h-127q-36 0 -30 35z" />
<glyph unicode="&#x201d;" horiz-adv-x="681" d="M203 1018l84 180h-39q-37 0 -31 35l29 162q7 37 43 37h127q37 0 30 -37l-24 -148q-2 -28 -16 -45l-105 -190q-16 -25 -39 -25h-45q-26 0 -14 31zM509 997q-3 11 3 21l84 180h-39q-37 0 -31 35l29 162q7 37 41 37h131q36 0 29 -37l-27 -148q0 -28 -14 -45l-105 -190 q-16 -25 -39 -25h-45q-14 0 -17 10z" />
<glyph unicode="&#x201e;" horiz-adv-x="681" d="M-6 -180l84 180h-39q-37 0 -31 35l29 162q7 36 43 36h127q38 0 31 -36l-25 -148q-2 -28 -16 -45l-105 -190q-16 -25 -39 -25h-45q-26 0 -14 31zM300 -201q-3 11 3 21l84 180h-39q-37 0 -31 35l29 162q7 36 41 36h131q36 0 29 -36l-27 -148q0 -28 -14 -45l-105 -190 q-16 -25 -39 -25h-45q-14 0 -17 10z" />
<glyph unicode="&#x2022;" horiz-adv-x="673" d="M94 502q0 124 87 215q87 92 214 92q97 0 155 -55t58 -148q0 -123 -87 -216t-216 -93q-93 0 -152 57t-59 148z" />
<glyph unicode="&#x2026;" horiz-adv-x="1140" d="M12 37l31 162q6 37 43 37h127q37 0 31 -37l-31 -162q-6 -37 -39 -37h-131q-37 0 -31 37zM393 37l29 162q7 37 45 37h129q35 0 29 -37l-31 -162q-6 -37 -39 -37h-131q-37 0 -31 37zM774 37l29 162q6 37 43 37h129q37 0 31 -37l-31 -162q-6 -37 -39 -37h-131q-38 0 -31 37z " />
<glyph unicode="&#x202f;" horiz-adv-x="378" />
<glyph unicode="&#x2039;" horiz-adv-x="419" d="M72 567q7 17 10 19l160 278q16 27 45 27h106q32 0 17 -35l-170 -289l67 -286q6 -35 -28 -35h-107q-28 0 -35 26l-63 279q0 10 -2 16z" />
<glyph unicode="&#x203a;" horiz-adv-x="419" d="M49 281l164 286l-61 289q-12 35 26 35h107q26 0 32 -27l64 -278q2 -10 -2 -19q1 -4 -6 -16l-162 -279q-14 -26 -41 -26h-109q-35 0 -12 35z" />
<glyph unicode="&#x205f;" horiz-adv-x="473" />
<glyph unicode="&#x20ac;" horiz-adv-x="948" d="M59 543l13 65q6 35 39 35h100q1 5 3.5 20.5t3.5 23.5q5 33 5 34l17 80h-101q-34 0 -28 35l12 67q8 31 39 31h110q73 250 205 388q130 136 357 136q57 0 210 -26q35 -12 17 -46l-51 -100q-16 -37 -52 -29q-79 17 -118 17q-146 0 -229 -90q-82 -89 -132 -250h365 q28 0 22 -33l-26 -65q-15 -35 -45 -35h-351q0 -2 -2 -11t-6 -28.5t-8 -40.5q-10 -57 -12 -78h321q35 0 23 -35l-27 -65q-11 -33 -43 -33h-282q-2 -30 -2 -68q0 -129 55 -200q55 -72 186 -72q63 0 123 16q35 8 41 -30l16 -101q5 -31 -34 -43q-77 -26 -181 -26 q-212 0 -314 122q-101 120 -101 334q0 38 2 68h-109q-37 0 -31 33z" />
<glyph unicode="&#x2122;" horiz-adv-x="1075" d="M197 1348l14 69q5 23 25 23h327q26 0 21 -23l-13 -69q-5 -25 -26 -25h-101l-92 -526q-2 -23 -26 -23h-84q-23 0 -21 23l92 526h-98q-23 0 -18 25zM537 797l110 620q5 23 25 23h84q18 0 26 -15l72 -305l180 305q8 15 25 15h96q26 0 21 -23l-111 -620q-2 -23 -29 -23h-80 q-20 0 -18 23l76 428l-158 -262q-17 -17 -29 -17q-15 0 -20 17l-68 262l-73 -428q-2 -23 -29 -23h-80q-22 0 -20 23z" />
<glyph unicode="&#x25fc;" horiz-adv-x="1105" d="M0 0v1106h1106v-1106h-1106z" />
</font>
</defs>
</svg>
