<?xml version="1.0" standalone="no"?>
<!DOCTYPE svg PUBLIC "-//W3C//DTD SVG 1.1//EN" "http://www.w3.org/Graphics/SVG/1.1/DTD/svg11.dtd" >
<svg xmlns="http://www.w3.org/2000/svg" xmlns:xlink="http://www.w3.org/1999/xlink" version="1.1">
<metadata></metadata>
<defs>
<font id="amsipro-lightitaluploadedfile" horiz-adv-x="1193" >
<font-face units-per-em="2048" ascent="1747" descent="-301" />
<missing-glyph horiz-adv-x="622" />
<glyph unicode="&#xfb01;" horiz-adv-x="1107" d="M139 967l11 57q6 27 28 27h156l18 102q52 297 303 297q106 0 150 -20q14 -10 10 -25l-12 -55q-5 -25 -29 -19q-57 12 -110 12q-162 0 -195 -196l-18 -96h561q22 0 20 -27l-176 -999q-6 -25 -29 -25h-69q-29 0 -23 25l162 917h-463l-162 -917q-6 -25 -26 -25h-72 q-26 0 -20 25l161 917h-155q-23 0 -21 25zM952 1241l31 172q6 23 29 23h65q27 0 21 -23l-31 -172q-1 -22 -29 -22h-63q-29 0 -23 22z" />
<glyph unicode="&#xfb02;" horiz-adv-x="1105" d="M139 967l11 57q6 27 28 27h156l14 82q28 162 123 242q94 79 301 79q201 0 303 -35q23 -8 19 -30l-240 -1364q-6 -25 -27 -25h-71q-27 0 -21 25l230 1306q-80 17 -197 17q-146 0 -215 -54q-68 -53 -86 -164l-16 -79h215q24 0 18 -27l-8 -57q-6 -25 -29 -25h-213l-162 -917 q-6 -25 -26 -25h-72q-26 0 -20 25l161 917h-155q-23 0 -21 25z" />
<glyph unicode="&#xfb03;" horiz-adv-x="1687" d="M139 967l10 57q6 27 29 27h156l18 106q53 293 307 293q93 0 146 -20q15 -7 10 -25l-12 -55q-4 -27 -27 -19q-46 12 -108 12q-164 0 -197 -190l-18 -102h462l19 106q53 293 307 293q96 0 145 -20q16 -8 11 -25l-13 -55q-4 -26 -26 -19q-46 12 -109 12q-163 0 -196 -190 l-19 -102h557q27 0 21 -27l-176 -999q-2 -25 -27 -25h-72q-22 0 -20 25l162 917h-463l-162 -917q-6 -25 -27 -25h-71q-27 0 -21 25l162 917h-463l-162 -917q-6 -25 -26 -25h-72q-26 0 -20 25l161 917h-155q-23 0 -21 25zM1534 1241l31 172q2 23 28 23h66q26 0 20 -23 l-30 -172q-6 -22 -27 -22h-68q-26 0 -20 22z" />
<glyph unicode="&#xfb04;" horiz-adv-x="1687" d="M139 967l10 57q6 27 29 27h156l18 106q53 293 307 293q97 0 146 -20q15 -7 10 -25l-12 -55q-4 -27 -27 -19q-46 12 -108 12q-164 0 -197 -190l-18 -102h462l15 82q30 161 124 242q92 79 302 79q197 0 299 -35q25 -8 20 -33l-239 -1361q-6 -25 -27 -25h-72q-26 0 -20 25 l229 1306q-80 17 -196 17q-147 0 -215 -53t-86 -165l-15 -79h213q23 0 21 -27l-11 -57q-6 -25 -28 -25h-213l-162 -917q-6 -25 -27 -25h-71q-27 0 -21 25l162 917h-463l-162 -917q-6 -25 -26 -25h-72q-26 0 -20 25l161 917h-155q-23 0 -21 25z" />
<glyph horiz-adv-x="0" />
<glyph unicode="&#xd;" horiz-adv-x="681" />
<glyph unicode=" "  horiz-adv-x="622" />
<glyph unicode="&#x09;" horiz-adv-x="622" />
<glyph unicode="&#xa0;" horiz-adv-x="622" />
<glyph unicode="!" horiz-adv-x="565" d="M121 25l26 145q5 23 27 23h119q24 0 18 -23l-24 -145q-6 -25 -27 -25h-119q-22 0 -20 25zM221 416l154 995q2 25 28 25h99q26 0 20 -25l-196 -995q-6 -27 -31 -27h-53q-27 0 -21 27z" />
<glyph unicode="&#x22;" horiz-adv-x="632" d="M242 985l24 287q6 63 19 131q12 63 71 63q64 0 52 -63q-11 -62 -31 -131l-74 -287h-61zM514 985l25 287q7 74 18 131q12 63 72 63q64 0 49 -63q-17 -90 -29 -131l-74 -287h-61z" />
<glyph unicode="#" horiz-adv-x="1296" d="M31 424l10 49q5 25 29 25h231l193 432h-199q-21 0 -19 24l9 50q1 24 28 24h224l180 410q7 22 33 16l51 -12q21 -4 14 -31l-172 -383h373l182 410q10 27 33 16l51 -12q23 -6 12 -31l-170 -383h205q23 0 21 -24l-9 -50q-1 -24 -28 -24h-232l-194 -432h198q27 0 21 -25 l-8 -49q-6 -25 -31 -25h-223l-174 -399q-12 -26 -33 -20l-51 16q-25 8 -13 31l164 372h-375l-174 -399q-10 -26 -32 -20l-52 16q-24 6 -12 31l166 372h-207q-22 0 -20 25zM408 498h374l189 432h-371z" />
<glyph unicode="$" horiz-adv-x="1132" d="M33 82l35 63q14 20 36 13q153 -62 355 -62q74 0 148 17q78 18 141 50q69 35 108 96q41 64 41 147q0 28 -8 57q-6 22 -19 46q-11 21 -34 41q-24 21 -39 33q-11 9 -53 29q-25 12 -53 26q-12 6 -62 27q-10 4 -62 25q-66 30 -130 62q-43 22 -104 68q-55 42 -83 101 q-27 57 -27 130q0 182 136 282t346 121l28 164q6 22 31 22h49q24 0 18 -22l-26 -162q183 -1 309 -65q22 -10 10 -31l-34 -62q-12 -22 -35 -14q-123 57 -295 57q-154 0 -281 -70t-127 -216q0 -33 7 -58q7 -26 27 -49q22 -25 36 -38q16 -15 51 -33q51 -27 54 -28 q30 -14 65 -29q45 -20 63 -27q57 -25 112 -52q41 -19 96 -55q60 -39 87 -71q28 -35 51 -87q23 -54 23 -116q0 -186 -133 -291q-132 -104 -340 -131l-31 -170q-5 -25 -28 -25h-50q-25 0 -20 25l29 162q-249 0 -404 71q-25 11 -14 29z" />
<glyph unicode="%" horiz-adv-x="1849" d="M186 911q0 44 11 119q34 204 135 312q100 108 250 108q127 0 200 -79q74 -80 74 -224q0 -53 -10 -117q-37 -205 -137 -312q-101 -108 -252 -108q-127 0 -199 77t-72 224zM293 918q0 -101 44 -154t126 -53q215 0 272 319q10 64 10 111q0 209 -170 209q-105 0 -174 -83 q-69 -82 -96 -237q-12 -63 -12 -112zM348 27l1120 1390q19 19 39 19h74q29 0 10 -25l-1122 -1391q-20 -20 -39 -20h-72q-31 0 -10 27zM1083 289q0 51 13 119q34 204 135 312q100 107 250 107q128 0 199 -77q73 -79 73 -226q0 -67 -10 -116q-35 -206 -136 -313t-251 -107 q-128 0 -200 78q-73 79 -73 223zM1192 295q0 -101 44 -154t126 -53q212 0 272 320q11 71 11 110q0 209 -170 209q-106 0 -175 -82q-69 -83 -96 -237q-12 -62 -12 -113z" />
<glyph unicode="&#x26;" horiz-adv-x="1464" d="M86 365q0 190 135 322q136 133 344 179l-37 52q-90 123 -90 225q0 156 113 236q112 79 291 79q171 0 272 -49q27 -12 14 -31l-32 -51q-15 -22 -41 -12q-84 39 -209 39q-120 0 -205 -47q-84 -47 -84 -158q0 -46 22 -92q21 -44 70 -109l479 -637q107 130 107 326 q0 49 20 49h66q25 0 25 -61q0 -221 -152 -400l149 -198q7 -8 2 -18q-5 -9 -16 -9h-88q-13 0 -21 4q-12 6 -14 8q-1 1 -4.5 5.5t-6.5 7.5t-7 8l-2 2l-78 106q-185 -157 -492 -157q-237 0 -384 105q-146 104 -146 276zM217 379q0 -126 110 -206q109 -79 296 -79q274 0 419 131 l-417 557q-167 -33 -287 -137q-121 -105 -121 -266z" />
<glyph unicode="'" horiz-adv-x="362" d="M242 985l24 287q6 63 19 131q12 63 71 63q64 0 52 -63q-11 -62 -31 -131l-74 -287h-61z" />
<glyph unicode="(" horiz-adv-x="722" d="M201 418q0 275 136 541q137 269 361 479q15 16 35 16h62q8 0 12 -4q5 -4 3 -9t-7 -9q-211 -201 -343 -470q-132 -270 -132 -548q0 -348 186 -627q8 -27 -16 -27h-62q-19 0 -30 17q-205 286 -205 641z" />
<glyph unicode=")" horiz-adv-x="722" d="M-31 -213q213 201 346 469q134 270 134 547q0 176 -53 343q-52 164 -138 286q-4 7 1 15q4 7 17 7h62q21 0 31 -16q202 -286 202 -641q0 -275 -135 -542q-135 -266 -360 -478q-22 -17 -37 -17h-62q-26 0 -8 27z" />
<glyph unicode="*" horiz-adv-x="794" d="M185 977q7 14 38 31q19 10 109 48q91 38 125 54q-23 14 -104 56q-42 22 -93 51q-42 26 -12 65q26 37 69 10q21 -12 84 -63q39 -31 91 -72q0 2 7 85q1 12 4 45.5t4 48.5q3 43 7 61q6 31 17 42t38 11q25 0 31 -11q6 -13 2 -42q-13 -75 -59 -240q27 17 78 48q14 9 44 28 t44 27q35 21 57 32q53 24 68 -10q15 -40 -37 -68q-15 -10 -113 -51q-23 -10 -50.5 -21.5t-44 -18.5t-26.5 -11q14 -9 107 -57q88 -46 90 -47q41 -29 14 -66q-33 -39 -72 -12q-21 12 -84 63t-90 72q-22 -234 -24 -240q-8 -53 -51 -53q-27 0 -34 11q-7 12 -3 42q11 49 29 118 q6 23 13.5 52t12 45t6.5 25q-27 -17 -78 -48q-68 -42 -88 -54q-45 -27 -57 -33q-52 -29 -68 10q-8 23 -1 37z" />
<glyph unicode="+" horiz-adv-x="1191" d="M162 678l10 59q2 23 29 23h389l69 389q2 25 29 25h66q20 0 18 -25l-70 -389h392q24 0 22 -23l-12 -59q-5 -23 -29 -23h-391l-68 -393q-6 -22 -26 -22h-66q-26 0 -20 22l67 393h-389q-25 0 -20 23z" />
<glyph unicode="," horiz-adv-x="440" d="M41 -205l80 205h-37q-27 0 -21 25l25 141q2 24 29 24h108q25 0 21 -24l-25 -133q-1 -14 -10 -33l-100 -211q-7 -18 -29 -18h-31q-20 0 -10 24z" />
<glyph unicode="-" horiz-adv-x="798" d="M96 500l10 59q2 23 27 23h569q27 0 21 -23l-10 -59q-2 -23 -29 -23h-569q-25 0 -19 23z" />
<glyph unicode="." horiz-adv-x="440" d="M63 25l25 141q2 24 29 24h108q25 0 21 -24l-25 -141q-6 -25 -26 -25h-111q-27 0 -21 25z" />
<glyph unicode="/" horiz-adv-x="856" d="M-53 29l930 1384q12 23 38 23h68q32 0 14 -29l-929 -1382q-12 -25 -39 -25h-68q-32 0 -14 29z" />
<glyph unicode="0" horiz-adv-x="1361" d="M150 492q0 116 20 227q63 358 233 549q169 190 437 190q222 0 341 -132q117 -130 117 -380q0 -114 -20 -225q-63 -356 -234 -549q-169 -190 -438 -190q-220 0 -339 132q-117 130 -117 378zM279 496q0 -400 335 -400q214 0 348 160q135 160 187 463q22 110 22 221 q0 401 -337 401q-423 0 -535 -622q-20 -111 -20 -223z" />
<glyph unicode="1" horiz-adv-x="892" d="M203 1112q-12 17 10 27l428 286q16 11 35 11h82q24 0 18 -25l-244 -1384q-2 -27 -26 -27h-76q-28 0 -22 27l221 1259l-361 -229q-20 -12 -30 4z" />
<glyph unicode="2" horiz-adv-x="1263" d="M57 27l11 51q5 24 24 35q151 89 179 107q88 55 183 119q116 78 188 136q70 57 161 140q87 80 141 156q50 71 87 160q36 87 36 171q0 241 -303 241q-186 0 -293 -90q-106 -90 -106 -260q0 -53 -27 -53h-68q-26 0 -26 51q0 221 151 344t373 123q221 0 325 -98 q105 -99 105 -256q0 -125 -65 -251t-155 -225q-86 -94 -227 -205q-127 -99 -234 -169q-74 -48 -226 -139h733q19 0 23 -7q5 -8 0 -20l-13 -61q-2 -27 -28 -27h-924q-26 0 -25 27z" />
<glyph unicode="3" horiz-adv-x="1157" d="M16 88l37 68q12 22 33 14q161 -76 360 -76q192 0 319 102q128 102 128 277q0 221 -309 221h-148q-28 0 -22 25l10 61q6 25 31 25h145q159 0 266 92t107 240q0 101 -78 153q-79 53 -219 53q-202 0 -377 -69q-24 -11 -29 12l-14 64q-6 15 23 26q185 82 405 82 q192 0 305 -83t113 -226q0 -146 -82 -250q-81 -103 -217 -141q94 -21 156 -89q63 -69 63 -188q0 -245 -166 -372t-414 -127q-257 0 -413 81q-21 6 -13 25z" />
<glyph unicode="4" horiz-adv-x="1310" d="M72 365l12 63q5 22 16 33l942 956q19 19 37 19h80q26 0 21 -25l-170 -962h227q26 0 20 -25l-10 -59q-1 -27 -28 -27h-230l-55 -311q-2 -27 -27 -27h-76q-26 0 -20 27l53 311h-772q-22 0 -20 27zM227 449h660l141 808z" />
<glyph unicode="5" horiz-adv-x="1185" d="M33 96l37 62q11 24 32 14q156 -78 371 -78q214 0 341 118q128 119 128 316q0 242 -321 242q-119 0 -238 -32q-115 -31 -119 -31q-12 0 -24 6l-33 12q-16 6 -8 31q104 362 157 653q4 27 33 27h737q27 0 21 -25l-10 -61q-1 -27 -31 -27h-657q-49 -238 -123 -502 q153 60 311 60q215 0 324 -95q108 -94 108 -256q0 -260 -168 -404t-428 -144q-269 0 -430 81q-21 15 -10 33z" />
<glyph unicode="6" horiz-adv-x="1282" d="M143 487q0 81 19 189q63 357 247 570q183 212 472 212q171 0 288 -55q23 -11 15 -27l-37 -65q-13 -25 -33 -15q-106 50 -235 50q-233 0 -390 -184q-155 -182 -206 -517q52 126 175 218q125 93 312 93q206 0 311 -106t105 -275q0 -254 -166 -423q-167 -170 -412 -170 q-225 0 -345 135t-120 370zM287 414q0 -129 85 -224q86 -96 244 -96q195 0 318 144t123 329q0 128 -76 204q-77 77 -236 77q-184 0 -321 -131t-137 -303z" />
<glyph unicode="7" horiz-adv-x="1134" d="M252 1350l10 61q6 25 31 25h881q22 0 20 -25l-10 -57q0 -4 -27 -41q-254 -295 -475 -653q-220 -356 -281 -635q-5 -25 -28 -25h-80q-27 0 -21 25q73 300 306 680t458 618h-764q-22 0 -20 27z" />
<glyph unicode="8" horiz-adv-x="1245" d="M86 311q0 181 134 289q135 109 329 148q-133 35 -212 116q-81 82 -81 195q0 139 84 233q83 94 198 130q114 36 244 36q208 0 320 -84t112 -217q0 -164 -122 -265q-120 -100 -297 -144q143 -29 236 -115q91 -84 91 -213q0 -114 -52 -200q-53 -88 -138 -137 q-89 -51 -183 -76q-96 -25 -200 -25q-215 0 -339 93t-124 236zM213 328q0 -106 90 -172t256 -66q173 0 304 86q130 85 130 242q0 207 -331 274q-449 -95 -449 -364zM381 1063q0 -184 299 -264q410 107 410 346q0 94 -79 149q-80 56 -235 56q-159 0 -278 -73 q-117 -72 -117 -214z" />
<glyph unicode="9" horiz-adv-x="1282" d="M186 862q0 254 164 424t412 170q225 0 344 -135q119 -136 119 -369q0 -86 -19 -194q-63 -360 -241 -569t-467 -209q-183 0 -293 55q-22 10 -12 26l34 64q12 24 33 14q116 -49 238 -49q231 0 386 179t206 511q-45 -118 -171 -209q-127 -92 -321 -92q-204 0 -308 108 q-104 109 -104 275zM313 870q0 -125 76 -202q77 -78 234 -78q188 0 324 130t136 306q0 130 -85 222q-85 93 -244 93q-195 0 -318 -141t-123 -330z" />
<glyph unicode=":" horiz-adv-x="503" d="M94 25l25 141q6 24 28 24h109q26 0 20 -24l-24 -141q-6 -25 -29 -25h-108q-27 0 -21 25zM246 883l24 143q6 25 29 25h109q26 0 20 -27l-25 -141q-6 -23 -28 -23h-109q-26 0 -20 23z" />
<glyph unicode=";" horiz-adv-x="503" d="M72 -205l80 205h-37q-27 0 -21 25l25 141q6 24 28 24h109q26 0 20 -24l-22 -133q-2 -12 -12 -33l-101 -211q-11 -18 -26 -18h-33q-21 0 -10 24zM246 883l24 141q6 27 29 27h109q26 0 20 -27l-25 -141q-6 -23 -28 -23h-109q-26 0 -20 23z" />
<glyph unicode="&#x3c;" horiz-adv-x="1191" d="M176 709q4 15 23 28l891 578q20 16 34 0l31 -49q11 -21 -10 -33l-821 -524l637 -525q14 -14 -3 -32l-49 -52q-16 -16 -32 -4l-689 580q-14 14 -12 33z" />
<glyph unicode="=" horiz-adv-x="1191" d="M152 487l8 58q4 22 28 22h850q25 0 19 -22l-8 -58q-5 -24 -29 -24h-852q-22 0 -16 24zM217 872l10 58q6 22 29 22h850q24 0 20 -22l-10 -58q-1 -22 -29 -22h-849q-22 0 -21 22z" />
<glyph unicode="&#x3e;" horiz-adv-x="1191" d="M123 152q-10 18 10 32l821 525l-637 524q-16 12 2 33l46 49q17 16 32 4l690 -582q14 -10 13 -28q-1 -21 -23 -33l-895 -580q-21 -14 -32 4z" />
<glyph unicode="?" horiz-adv-x="1052" d="M227 1348q-4 15 21 26q176 84 403 84q202 0 306 -80t104 -215q0 -100 -47 -186q-46 -84 -115 -144q-69 -59 -137 -110q-71 -52 -125 -111q-56 -60 -66 -120l-14 -78q-6 -25 -29 -25h-65q-27 0 -21 27l15 76q12 71 66 140q53 68 122 123q61 49 133 111q67 58 110 132 q44 76 44 161q0 184 -293 184q-180 0 -371 -73q-24 -7 -28 12zM346 25l25 145q5 23 28 23h117q27 0 21 -23l-25 -145q-6 -25 -29 -25h-116q-27 0 -21 25z" />
<glyph unicode="@" horiz-adv-x="1875" d="M113 295q0 397 285 663q287 267 712 267q181 0 313 -40q134 -41 208 -112q75 -72 110 -158q35 -87 35 -190q0 -125 -33 -239q-33 -113 -97 -207t-173 -150q-107 -55 -246 -55h-117q-15 0 -21 5.5t-2 16.5l50 160q-139 -190 -351 -190q-143 0 -221 77q-80 78 -80 203 q0 244 177 421q175 175 446 175q170 0 313 -65q15 -7 13 -23l-244 -690h51q147 0 250 83q102 83 147 207q45 125 45 271q0 416 -577 416q-374 0 -636 -235q-261 -234 -261 -609q0 -434 614 -434q261 0 430 74q17 8 21 -13l8 -47q0 -10 -14 -16q-185 -82 -447 -82 q-351 0 -529 133q-179 134 -179 383zM602 358q0 -89 50 -142q49 -52 151 -52q272 0 389 325l115 320q-87 37 -207 37q-215 0 -356 -140q-142 -141 -142 -348z" />
<glyph unicode="A" horiz-adv-x="1343" d="M-16 27l772 1382q15 27 39 27h94q15 0 20 -5q4 -4 9 -22l284 -1382q8 -27 -22 -27h-80q-23 0 -29 23l-78 383h-659l-215 -383q-12 -23 -31 -23h-90q-29 0 -14 27zM393 522h580l-150 778h-4z" />
<glyph unicode="B" horiz-adv-x="1396" d="M113 27l243 1384q6 25 31 25h477q471 0 471 -299q0 -142 -78 -247q-79 -106 -217 -136q105 -21 167 -89q63 -69 63 -188q0 -249 -171 -363t-460 -114h-504q-28 0 -22 27zM254 117h383q111 0 187 14q85 16 158 50q78 36 119 112q42 77 42 186q0 110 -88 159 q-89 50 -293 50h-406zM375 803h401q432 0 432 323q0 103 -83 148t-269 45h-389z" />
<glyph unicode="C" horiz-adv-x="1222" d="M147 516q0 86 19 203q63 355 254 547q190 192 489 192q225 0 344 -80q27 -12 15 -28l-37 -62q-17 -24 -37 -14q-111 65 -279 65q-250 0 -407 -158q-159 -160 -211 -462q-18 -105 -18 -193q0 -430 430 -430q158 0 305 72q24 15 30 -16l19 -62q2 -12 -27 -29 q-153 -81 -348 -81q-260 0 -400 139q-141 139 -141 397z" />
<glyph unicode="D" horiz-adv-x="1376" d="M113 27l243 1384q6 25 29 25h326q301 0 457 -114q157 -115 157 -382q0 -104 -20 -207q-69 -404 -269 -569q-199 -164 -547 -164h-354q-28 0 -22 27zM256 119h238q140 0 245 27q102 26 194 95q87 65 148 188q60 122 93 304q18 107 18 189q0 221 -123 308t-369 87h-233z " />
<glyph unicode="E" horiz-adv-x="1112" d="M113 27l243 1384q6 25 29 25h756q28 0 22 -25l-12 -65q-1 -27 -31 -27h-655l-90 -526h633q24 0 20 -27l-12 -61q-4 -27 -29 -27h-633l-100 -561h659q29 0 23 -25l-10 -65q-6 -27 -31 -27h-760q-28 0 -22 27z" />
<glyph unicode="F" horiz-adv-x="1083" d="M113 27l243 1384q6 25 31 25h752q27 0 22 -23l-12 -67q-6 -27 -31 -27h-649l-96 -539h639q21 0 20 -26l-12 -62q-2 -24 -29 -24h-637l-114 -641q-6 -27 -31 -27h-74q-28 0 -22 27z" />
<glyph unicode="G" horiz-adv-x="1413" d="M150 510q0 96 18 209q129 739 795 739q115 0 216 -25q99 -24 158 -61q23 -12 15 -29l-37 -61q-18 -26 -39 -14q-126 71 -313 71q-291 0 -450 -152q-162 -154 -214 -468q-20 -100 -20 -197q0 -426 460 -426q189 0 334 68l94 530h-340q-29 0 -24 25l10 63q6 27 33 27h438 q29 0 23 -27l-115 -651q-6 -35 -45 -57q-169 -94 -418 -94q-579 0 -579 530z" />
<glyph unicode="H" horiz-adv-x="1429" d="M113 27l243 1384q6 25 31 25h74q28 0 22 -25l-108 -616h794l107 616q6 25 33 25h75q26 0 21 -25l-246 -1384q-1 -27 -26 -27h-76q-27 0 -25 27l117 649h-795l-114 -649q-6 -27 -31 -27h-74q-28 0 -22 27z" />
<glyph unicode="I" horiz-adv-x="536" d="M125 27l246 1384q2 25 28 25h76q25 0 23 -25l-244 -1384q-6 -27 -31 -27h-76q-23 0 -22 27z" />
<glyph unicode="J" horiz-adv-x="956" d="M-12 90l35 62q16 24 34 12q108 -70 248 -70q280 0 336 332l174 985q6 25 31 25h76q25 0 20 -25l-176 -995q-37 -216 -149 -328q-111 -111 -312 -111q-88 0 -174 23q-83 22 -129 53q-25 19 -14 37z" />
<glyph unicode="K" horiz-adv-x="1220" d="M113 27l243 1384q6 25 31 25h74q28 0 22 -25l-100 -569l747 575q25 19 46 19h112q17 0 20 -12q3 -10 -10 -21l-829 -635l604 -733q10 -10 5 -23q-4 -12 -21 -12h-90q-23 0 -41 23l-566 682l-120 -678q-6 -27 -31 -27h-74q-28 0 -22 27z" />
<glyph unicode="L" horiz-adv-x="1079" d="M113 27l243 1384q6 25 31 25h74q28 0 22 -25l-227 -1292h647q28 0 23 -25l-13 -67q-6 -27 -30 -27h-748q-28 0 -22 27z" />
<glyph unicode="M" horiz-adv-x="1626" d="M113 27l243 1384q6 25 31 25h76q25 0 33 -17l342 -801l624 801q11 17 35 17h82q26 0 20 -25l-243 -1384q-6 -27 -29 -27h-76q-26 0 -20 27l207 1187l-596 -770q-15 -18 -37 -18q-23 0 -31 18l-328 770l-208 -1187q-2 -27 -29 -27h-74q-28 0 -22 27z" />
<glyph unicode="N" horiz-adv-x="1431" d="M113 27l243 1384q6 25 31 25h74q27 0 35 -19l575 -1208l211 1202q6 25 31 25h71q15 0 21 -6t4 -17l-246 -1386q-6 -27 -30 -27h-74q-28 0 -35 20l-575 1207l-211 -1200q-6 -27 -29 -27h-74q-28 0 -22 27z" />
<glyph unicode="O" horiz-adv-x="1445" d="M143 506q0 90 19 213q63 354 247 548q182 191 476 191q245 0 376 -135q130 -134 130 -389q0 -87 -21 -215q-63 -358 -245 -549q-181 -190 -474 -190q-247 0 -377 136q-131 137 -131 390zM272 512q0 -416 385 -416q234 0 382 160q147 159 200 463q21 123 21 205 q0 417 -383 417q-237 0 -384 -159t-200 -463q-21 -127 -21 -207z" />
<glyph unicode="P" horiz-adv-x="1304" d="M113 27l243 1382q6 27 29 27h363q269 0 397 -86q127 -85 127 -277q0 -72 -10 -129q-45 -261 -199 -376q-152 -113 -461 -113h-287l-75 -428q-6 -27 -31 -27h-74q-28 0 -22 27zM336 573h272q246 0 367 84q120 83 155 287q13 67 13 111q0 141 -96 202q-97 62 -308 62h-272z " />
<glyph unicode="Q" horiz-adv-x="1445" d="M145 508q0 92 19 211q61 358 245 549q183 190 476 190q249 0 379 -136q131 -137 131 -390q0 -102 -21 -213q-57 -308 -218 -498q-160 -189 -413 -219q119 -68 299 -68q19 0 33 1q28 2 29 2q19 0 26 -5q6 -5 5 -18l-11 -57q-2 -31 -69 -31q-299 0 -467 160 q-214 12 -328 147q-115 136 -115 375zM272 512q0 -416 385 -416q234 0 382 160q146 158 202 463q19 117 19 205q0 417 -386 417q-234 0 -381 -159t-198 -463q-23 -121 -23 -207z" />
<glyph unicode="R" horiz-adv-x="1312" d="M113 27l243 1384q6 25 31 25h377q265 0 393 -85q129 -85 129 -261q0 -66 -10 -113q-34 -204 -161 -310q-126 -105 -353 -126l348 -506q8 -11 2 -23t-22 -12h-78q-23 0 -39 20l-346 508h-299l-88 -501q-6 -27 -31 -27h-74q-28 0 -22 27zM350 645h287q243 0 361 79 q119 80 149 257q10 53 10 90q0 131 -95 190q-94 58 -306 58h-289z" />
<glyph unicode="S" horiz-adv-x="1118" d="M31 76l35 65q15 25 36 15q130 -60 342 -60q100 0 196 28q94 27 166 101q73 75 73 183q0 50 -22 92q-21 40 -67 73q-48 34 -85 54q-35 19 -109 51q-7 3 -13.5 6t-12 5t-7.5 3q-74 33 -126 62t-101 67q-54 42 -78 95q-25 56 -25 124q0 209 147 314q146 104 380 104 q219 0 344 -59q22 -10 14 -29l-35 -63q-15 -25 -36 -15q-116 49 -287 49q-111 0 -195 -24q-81 -23 -143 -91q-60 -66 -60 -173q0 -35 14 -66q16 -35 25 -49q13 -19 50 -43q48 -31 53 -33q3 -1 26 -12.5t45 -21.5q49 -23 70 -33q61 -29 135 -67q47 -24 110 -73 q61 -47 89 -106q29 -61 29 -133q0 -213 -163 -324q-162 -110 -403 -110q-264 0 -395 63q-24 12 -16 31z" />
<glyph unicode="T" horiz-adv-x="1093" d="M219 1343l12 68q6 25 29 25h914q26 0 20 -25l-12 -68q-4 -26 -31 -26h-391l-228 -1290q-6 -27 -30 -27h-74q-28 0 -22 27l227 1290h-391q-27 0 -23 26z" />
<glyph unicode="U" horiz-adv-x="1404" d="M172 369q0 61 12 133l160 909q6 25 31 25h74q28 0 22 -25l-158 -901q-12 -68 -12 -123q0 -295 334 -295q399 0 471 418l160 901q5 25 28 25h76q27 0 21 -25l-160 -909q-92 -527 -600 -527q-230 0 -344 102q-115 103 -115 292z" />
<glyph unicode="V" horiz-adv-x="1320" d="M244 1407q-5 29 24 29h80q22 0 27 -25l170 -919l53 -357h2l180 359l492 917q16 25 37 25h84q27 0 16 -29l-741 -1380q-16 -27 -41 -27h-97q-28 0 -30 27z" />
<glyph unicode="W" horiz-adv-x="2076" d="M260 1405q-2 31 25 31h82q22 0 24 -25l103 -885l34 -393h4l183 404l409 874q12 25 41 25h86q31 0 31 -25l102 -874l41 -406h5l176 395l411 885q11 25 35 25h80q26 0 14 -31l-647 -1376q-15 -29 -41 -29h-102q-32 0 -33 27l-111 880l-34 350h-4l-156 -350l-420 -880 q-8 -27 -41 -27h-102q-27 0 -33 29z" />
<glyph unicode="X" horiz-adv-x="1263" d="M-9 10q-3 11 5 19l610 694l-356 684q-8 29 20 29h84q21 0 33 -21l305 -590l510 590q15 21 39 21h92q15 0 18 -10q3 -8 -5 -19l-601 -684l369 -694q4 -10 -2 -20q-6 -9 -18 -9h-82q-20 0 -37 23l-311 602l-527 -602q-17 -23 -41 -23h-90q-12 0 -15 10z" />
<glyph unicode="Y" horiz-adv-x="1280" d="M240 1407q-4 9 1 19t19 10h80q22 0 33 -23l213 -541l82 -225l161 225l406 541q18 23 39 23h86q30 0 12 -29l-657 -870l-90 -510q-1 -27 -29 -27h-76q-24 0 -22 27l90 510z" />
<glyph unicode="Z" d="M45 27l10 63q6 25 27 47l971 1180h-740q-26 0 -20 26l10 68q6 25 31 25h864q27 0 21 -25l-13 -65q-2 -24 -22 -46l-969 -1181h762q26 0 20 -25l-12 -67q-1 -27 -29 -27h-890q-27 0 -21 27z" />
<glyph unicode="[" horiz-adv-x="722" d="M131 -201l285 1614q6 23 28 23h312q26 0 20 -23l-10 -53q-5 -25 -27 -25h-219l-258 -1460h219q25 0 19 -25l-8 -51q-6 -24 -29 -24h-311q-26 0 -21 24z" />
<glyph unicode="\" horiz-adv-x="856" d="M195 1407q-6 29 22 29h59q25 0 31 -23l443 -1384q5 -29 -23 -29h-59q-25 0 -33 25z" />
<glyph unicode="]" horiz-adv-x="727" d="M-2 -201l10 51q2 25 29 25h219l258 1460h-219q-23 0 -23 25l11 53q6 23 28 23h312q26 0 20 -23l-285 -1614q-6 -24 -28 -24h-312q-22 0 -20 24z" />
<glyph unicode="^" horiz-adv-x="1191" d="M170 705q-4 7 6 22l522 688q15 21 37 21h62q24 0 30 -21l281 -688q6 -31 -25 -31h-67q-25 0 -33 23l-235 594l-445 -594q-17 -23 -41 -23h-76q-11 0 -16 9z" />
<glyph unicode="_" horiz-adv-x="972" d="M-61 -158l4 41q6 23 28 23h832q24 0 18 -23l-6 -41q-5 -24 -29 -24h-831q-22 0 -16 24z" />
<glyph unicode="`" horiz-adv-x="677" d="M353 1416q4 11 20 11h102q23 0 37 -20l102 -184q5 -8 -2 -17q-6 -8 -18 -8h-37q-19 0 -35 16l-166 183q-7 7 -3 19z" />
<glyph unicode="a" horiz-adv-x="1116" d="M49 240q0 71 28 133q27 60 64 97q39 39 109 67q65 26 122 43q44 13 146 23q104 10 140 11q95 3 143 4h23q6 0 22 2q8 1 22 1l15 79q8 42 8 80q0 97 -60 142t-190 45q-165 0 -348 -70q-24 -11 -29 14l-8 60q-2 18 18 28q188 76 377 76q357 0 357 -282q0 -41 -9 -97 l-118 -671q-6 -25 -29 -25h-66q-25 0 -20 25l31 170q-141 -213 -426 -213q-158 0 -239 71q-83 72 -83 187zM168 246q0 -75 56 -119q57 -45 167 -45q179 0 297 92q116 90 143 232l21 118q-320 -11 -416 -30q-268 -55 -268 -248z" />
<glyph unicode="b" horiz-adv-x="1257" d="M98 25l246 1388q2 23 29 23h69q27 0 21 -23l-101 -569q136 231 416 231q186 0 290 -102q103 -102 103 -297q0 -81 -14 -150q-46 -267 -186 -407q-139 -139 -357 -139q-142 0 -241 57t-123 170l-33 -182q-6 -25 -27 -25h-69q-29 0 -23 25zM295 397q0 -151 78 -231t225 -80 q358 0 436 440q15 94 15 144q0 299 -295 299q-177 0 -294 -115q-115 -114 -153 -328q-12 -57 -12 -129z" />
<glyph unicode="c" horiz-adv-x="1003" d="M106 395q0 67 15 133q45 265 195 406t376 141q187 0 289 -63q20 -15 10 -31l-35 -57q-12 -28 -36 -13q-94 54 -222 54q-180 0 -299 -111q-117 -110 -155 -326q-13 -75 -13 -127q0 -155 79 -234t225 -79q142 0 266 62q20 12 28 -13l13 -59q2 -17 -23 -29 q-129 -69 -282 -69q-199 0 -315 108t-116 307z" />
<glyph unicode="d" horiz-adv-x="1257" d="M104 381q0 71 15 145q50 270 189 409q140 140 358 140q138 0 237 -60t123 -171l100 569q6 23 29 23h70q28 0 22 -23l-246 -1388q-2 -25 -28 -25h-70q-22 0 -20 25l32 182q-133 -227 -413 -227q-188 0 -292 103q-106 104 -106 298zM227 383q0 -297 295 -297q178 0 295 114 t154 326q12 57 12 131q0 153 -78 232q-78 80 -227 80q-358 0 -436 -443q-15 -90 -15 -143z" />
<glyph unicode="e" horiz-adv-x="1138" d="M109 397q0 65 12 138q45 255 189 398q143 142 366 142q184 0 283 -103q100 -105 100 -276q0 -52 -10 -116l-15 -84q-2 -25 -30 -25h-775q-4 -21 -4 -72q0 -149 87 -234q86 -85 251 -85q159 0 293 67q26 13 33 -14l12 -53q2 -19 -22 -29q-158 -76 -324 -76 q-213 0 -330 111q-116 110 -116 311zM248 571h684l2 17q10 44 10 106q0 131 -68 203q-69 74 -206 74q-338 0 -422 -400z" />
<glyph unicode="f" horiz-adv-x="688" d="M139 967l10 57q6 27 29 27h156l18 106q53 293 307 293q97 0 146 -20q15 -7 10 -25l-12 -55q-4 -27 -27 -19q-46 12 -108 12q-87 0 -133 -46q-48 -48 -64 -144l-18 -102h262q24 0 18 -27l-10 -57q-2 -25 -29 -25h-260l-162 -917q-6 -25 -26 -25h-72q-26 0 -20 25l161 917 h-155q-23 0 -21 25z" />
<glyph unicode="g" horiz-adv-x="1189" d="M92 -160l33 60q15 23 35 16q125 -59 301 -59q156 0 257 76q101 75 128 223l26 145q-61 -104 -158 -158q-98 -55 -220 -55q-173 0 -275 93t-102 274q0 57 12 125q43 243 177 369q133 126 329 126q126 0 219 -56q94 -57 117 -149l28 156q6 25 29 25h70q24 0 18 -27 l-153 -877q-33 -192 -164 -295q-130 -102 -340 -102q-226 0 -355 66q-18 12 -12 24zM240 459q0 -269 274 -269q157 0 266 106t142 298q12 57 12 106q0 135 -74 203t-209 68q-157 0 -261 -98t-138 -293q-12 -68 -12 -121z" />
<glyph unicode="h" horiz-adv-x="1210" d="M98 25l246 1388q2 23 29 23h69q27 0 21 -23l-96 -549q127 211 401 211q160 0 246 -77t86 -212q0 -43 -8 -86l-119 -675q-6 -25 -27 -25h-72q-26 0 -20 25l117 659q8 56 8 76q0 203 -244 203q-155 0 -271 -93q-114 -91 -138 -233l-107 -612q-6 -25 -29 -25h-69 q-29 0 -23 25z" />
<glyph unicode="i" horiz-adv-x="464" d="M94 25l176 999q6 27 29 27h72q24 0 18 -27l-176 -999q-5 -25 -27 -25h-71q-26 0 -21 25zM305 1225l31 170q6 24 29 24h71q25 0 19 -24l-31 -170q0 -25 -27 -25h-71q-21 0 -21 25z" />
<glyph unicode="j" horiz-adv-x="483" d="M-154 -195l13 62q6 20 30 18q43 -10 82 -10q61 0 96 39q33 37 50 125l172 985q6 27 28 27h72q25 0 19 -27l-177 -997q-23 -137 -78 -198q-56 -62 -169 -62q-82 0 -123 14q-19 2 -15 24zM324 1225l30 170q6 24 29 24h72q26 0 20 -24l-31 -170q-2 -25 -28 -25h-72 q-20 0 -20 25z" />
<glyph unicode="k" horiz-adv-x="987" d="M98 25l246 1388q2 23 29 23h69q27 0 21 -23l-131 -737l528 362q23 13 37 13h119q7 0 12 -5q4 -4 2 -14q-2 -8 -12 -14l-625 -428l475 -559q8 -11 2 -21t-18 -10h-94q-23 0 -35 16l-418 500l-86 -491q-6 -25 -29 -25h-69q-29 0 -23 25z" />
<glyph unicode="l" horiz-adv-x="464" d="M94 25l246 1388q6 23 27 23h71q27 0 21 -23l-246 -1388q-5 -25 -27 -25h-71q-26 0 -21 25z" />
<glyph unicode="m" horiz-adv-x="1837" d="M90 25l176 999q6 27 29 27h72q22 0 20 -25l-29 -158q45 84 139 146q92 61 234 61q134 0 208 -55q75 -55 85 -160q134 215 403 215q145 0 224 -74q78 -73 78 -204q0 -39 -9 -88l-121 -684q-6 -25 -28 -25h-70q-26 0 -20 25l116 669q9 49 9 84q0 185 -211 185 q-144 0 -249 -84q-106 -84 -128 -213l-113 -641q-6 -25 -28 -25h-70q-25 0 -23 25l119 671q8 42 8 82q0 185 -211 185q-143 0 -248 -87q-106 -88 -130 -227l-111 -624q-6 -25 -29 -25h-69q-29 0 -23 25z" />
<glyph unicode="n" d="M88 25l176 999q6 27 29 27h69q23 0 21 -25l-27 -160q135 209 400 209q160 0 243 -76q84 -77 84 -211q0 -45 -8 -88l-119 -675q-6 -25 -28 -25h-70q-27 0 -22 25l118 661q7 47 7 76q0 201 -240 201q-155 0 -267 -91q-114 -92 -137 -233l-110 -614q-2 -25 -27 -25h-71 q-23 0 -21 25z" />
<glyph unicode="o" d="M106 387q0 59 13 139q45 266 194 407q149 142 377 142q195 0 305 -106q111 -107 111 -303q0 -64 -12 -140q-45 -261 -195 -404q-149 -142 -375 -142q-197 0 -307 106q-111 106 -111 301zM229 393q0 -307 299 -307q175 0 290 113q114 113 153 327q12 74 12 133 q0 151 -77 231q-76 79 -222 79q-175 0 -290 -113q-113 -111 -152 -330q-13 -78 -13 -133z" />
<glyph unicode="p" horiz-adv-x="1249" d="M51 -201l215 1225q6 27 29 27h70q26 0 20 -25l-33 -182q137 231 418 231q185 0 288 -103t103 -298q0 -68 -12 -148q-45 -268 -185 -407t-358 -139q-143 0 -240 57t-124 170l-72 -408q-2 -24 -29 -24h-69q-27 0 -21 24zM287 397q0 -151 78 -231t225 -80q358 0 436 440 q14 88 14 144q0 299 -295 299q-174 0 -292 -115q-116 -113 -154 -328q-12 -57 -12 -129z" />
<glyph unicode="q" horiz-adv-x="1249" d="M104 381q0 71 15 145q46 267 188 409q140 140 359 140q138 0 237 -60t123 -171l33 182q6 25 28 25h70q27 0 21 -27l-215 -1225q-6 -24 -31 -24h-70q-22 0 -20 24l71 404q-127 -223 -411 -223q-188 0 -292 103q-106 104 -106 298zM227 383q0 -297 295 -297q178 0 295 114 t154 326q12 57 12 131q0 153 -78 232q-78 80 -227 80q-358 0 -436 -443q-15 -90 -15 -143z" />
<glyph unicode="r" horiz-adv-x="733" d="M90 25l176 999q6 27 29 27h72q22 0 20 -25l-41 -225q51 94 158 174t244 80q21 0 16 -19l-14 -88q-1 -22 -25 -22l-16 2q-16 2 -23 2q-129 0 -245 -122t-140 -273l-90 -510q-6 -25 -29 -25h-69q-29 0 -23 25z" />
<glyph unicode="s" horiz-adv-x="927" d="M16 63l31 60q12 25 31 14q129 -53 289 -53q77 0 142 15t118 65t53 131q0 50 -38 90q-36 37 -79 58q-41 19 -135 57q-59 21 -105 43q-35 17 -84 50q-47 32 -68 76q-21 43 -21 101q0 153 109 229t284 76q202 0 319 -59q18 -10 10 -27l-28 -55q-14 -20 -31 -14 q-122 51 -262 51q-281 0 -281 -189q0 -44 30 -79q28 -32 68 -53q42 -22 111 -50l31 -12q143 -61 217 -122q72 -60 72 -165q0 -163 -120 -243q-118 -78 -306 -78q-208 0 -342 59q-23 6 -15 24z" />
<glyph unicode="t" horiz-adv-x="712" d="M121 967l10 57q1 27 29 27h162l47 272q6 25 28 25h68q22 0 20 -25l-49 -272h289q21 0 20 -27l-10 -57q-6 -25 -28 -25h-289l-111 -627q-10 -63 -10 -98q0 -67 35 -94q34 -27 119 -27q34 0 106 15q12 1 16 -3q5 -5 7 -18l4 -55q2 -17 -21 -25q-59 -22 -135 -22 q-128 0 -190 48t-62 161q0 43 10 106l113 639h-158q-26 0 -20 25z" />
<glyph unicode="u" horiz-adv-x="1177" d="M125 268q0 46 8 92l117 664q6 27 31 27h69q25 0 19 -27l-115 -645q-8 -61 -8 -82q0 -207 235 -207q150 0 260 88q111 89 138 232l108 614q1 27 29 27h71q21 0 19 -27l-176 -999q-6 -25 -27 -25h-72q-26 0 -20 25l29 161q-127 -206 -385 -206q-164 0 -246 75 q-84 77 -84 213z" />
<glyph unicode="v" horiz-adv-x="999" d="M160 1022q-5 29 22 29h72q17 0 22 -25l107 -555l53 -340h4l172 340l299 555q16 25 31 25h82q30 0 12 -29l-542 -999q-12 -23 -33 -23h-86q-22 0 -27 23z" />
<glyph unicode="w" horiz-adv-x="1630" d="M176 1022q0 29 25 29h69q23 0 23 -25l92 -704l14 -197h4l91 197l350 704q16 25 33 25h75q20 0 25 -25l102 -704l23 -197h4l84 197l336 704q16 25 33 25h75q30 0 15 -29l-484 -999q-11 -23 -32 -23h-86q-24 0 -29 23l-100 667l-25 213h-6l-96 -213l-336 -667 q-11 -23 -33 -23h-86q-22 0 -27 23z" />
<glyph unicode="x" horiz-adv-x="995" d="M-26 15q2 7 8 14l460 503l-276 488q-6 12 -1 21q5 10 17 10h80q15 0 31 -19l229 -414l375 414q11 19 33 19h84q8 0 12 -4q4 -5 3 -12q-2 -8 -7 -15l-449 -488l285 -503q5 -11 0 -20q-4 -9 -16 -9h-80q-19 0 -29 16l-235 430l-389 -430q-10 -16 -33 -16h-88q-7 0 -11 4 t-3 11z" />
<glyph unicode="y" horiz-adv-x="995" d="M12 -188l29 59q7 18 31 16q49 -14 100 -14q96 0 152 65q42 48 42 106q0 17 -4 36l-202 942q-5 29 22 29h74q18 0 23 -25l116 -561l60 -336h4l166 336l286 561q11 25 31 25h80q29 0 14 -29l-512 -973q-80 -157 -157 -219q-78 -63 -203 -63q-83 0 -137 20q-21 6 -15 25z " />
<glyph unicode="z" horiz-adv-x="983" d="M29 25l8 49q1 16 16 32l744 834h-572q-25 0 -20 25l10 59q6 27 31 27h704q22 0 21 -27l-8 -47q-1 -17 -19 -35l-741 -833h579q25 0 23 -23l-12 -61q-2 -25 -29 -25h-715q-26 0 -20 25z" />
<glyph unicode="{" horiz-adv-x="722" d="M115 573l12 64q5 25 27 25h34q78 0 127 93t84 292q39 217 104 304q64 85 216 85h69q14 0 21 -5q6 -4 4 -18l-12 -55q-2 -25 -31 -25h-47q-101 0 -141 -66q-42 -69 -72 -237q-66 -380 -219 -424q92 -30 92 -213q0 -88 -21 -211q-22 -128 -22 -176q0 -67 29 -98t96 -31h49 q28 0 23 -24l-11 -54q-2 -24 -30 -24h-64q-112 0 -161 47q-48 46 -48 153q0 83 21 191q24 134 24 219q0 166 -98 166h-35q-21 0 -20 22z" />
<glyph unicode="|" horiz-adv-x="536" d="M211 -201v1651q0 25 25 25h65q25 0 25 -25v-1651q0 -24 -25 -24h-65q-25 0 -25 24z" />
<glyph unicode="}" horiz-adv-x="722" d="M-39 -201l8 54q6 24 31 24h49q99 0 140 67q40 65 73 238q66 379 221 424q-96 27 -96 209q0 77 23 215q22 128 22 174q0 68 -29 99q-29 30 -98 30h-47q-28 0 -22 25l10 55q2 23 28 23h66q115 0 162 -47t47 -154q0 -61 -21 -188q-24 -135 -24 -222q0 -163 98 -163h35 q22 0 20 -25l-12 -64q-1 -22 -29 -22h-32q-77 0 -126 -94q-51 -97 -85 -291q-39 -220 -105 -305q-66 -86 -215 -86h-71q-27 0 -21 24z" />
<glyph unicode="~" horiz-adv-x="1187" d="M203 670q33 84 93 132t132 48t186 -47l88 -37q101 -43 146 -43q64 0 115 63q6 8 26 45q16 25 39 11l39 -21q16 -10 10 -39q-35 -84 -95 -131q-61 -47 -132 -47q-72 0 -186 47l-89 39q-93 41 -141 41q-70 0 -119 -63q-6 -8 -26 -45q-16 -25 -39 -11l-39 21q-16 12 -8 37z " />
<glyph unicode="&#xa1;" horiz-adv-x="557" d="M86 -201l170 834q4 26 29 26h55q24 0 20 -26l-124 -834q-6 -24 -31 -24h-99q-26 0 -20 24zM268 881l25 143q6 27 29 27h118q25 0 19 -27l-27 -143q-2 -25 -26 -25h-117q-23 0 -21 25z" />
<glyph unicode="&#xa2;" horiz-adv-x="1038" d="M106 393q0 58 13 131q44 247 186 389q143 143 365 160l28 156q1 26 27 26h49q24 0 23 -26l-29 -158q156 -6 244 -65q16 -11 8 -27l-33 -57q-17 -25 -35 -13q-92 56 -237 56q-186 0 -311 -113q-122 -111 -162 -328q-11 -60 -11 -125q0 -311 326 -311q160 0 272 59 q23 12 31 -12l12 -57q4 -14 -20 -29q-113 -59 -277 -67l-28 -162q-2 -25 -29 -25h-49q-22 0 -20 25l28 162q-170 11 -270 118q-101 109 -101 293z" />
<glyph unicode="&#xa3;" horiz-adv-x="1359" d="M39 51q-8 15 10 27q171 70 277 180t106 252q0 77 -37 166h-221q-24 0 -18 24l8 52q6 22 29 22h176q-54 139 -54 215q0 149 84 259q85 111 210 160q127 50 274 50q210 0 317 -86t107 -233q0 -117 -33 -117h-80q-18 0 -18 16q0 7 8 44t8 59q0 89 -77 146q-75 56 -234 56 q-182 0 -312 -92q-129 -91 -129 -252q0 -59 58 -225h454q25 0 21 -22l-10 -52q-5 -24 -29 -24h-412q33 -84 33 -164q0 -135 -83 -238q-83 -102 -208 -155q87 26 205 26q89 0 211 -23q128 -24 209 -24q119 0 169 59q49 58 70 169q6 28 33 28h56q29 0 22 -32 q-29 -169 -100 -252q-72 -84 -236 -84q-102 0 -234 27q-137 28 -231 28q-196 0 -342 -57q-29 -8 -30 4z" />
<glyph unicode="&#xa4;" horiz-adv-x="1292" d="M176 141q-17 18 0 35l117 115q-94 110 -94 289q0 178 94 284l-117 119q-17 17 0 35l33 33q18 15 35 0l121 -123q107 82 280 82q176 0 281 -84l125 125q16 16 32 0l33 -33q18 -18 0 -35l-121 -121q95 -112 95 -282q0 -178 -95 -285l121 -119q18 -17 0 -35l-33 -32 q-16 -16 -32 0l-125 122q-100 -81 -281 -81q-177 0 -280 81l-121 -122q-18 -17 -35 0zM301 580q0 -159 91 -244q92 -86 253 -86t252 86q90 86 90 244t-90 243q-91 86 -252 86t-253 -86q-91 -85 -91 -243z" />
<glyph unicode="&#xa5;" horiz-adv-x="1298" d="M133 401l8 50q6 22 27 22h418l10 57l-64 148h-327q-23 0 -19 22l9 50q1 22 26 22h279l-269 635q-12 29 21 29h84q20 0 31 -23l313 -762h4l582 762q18 23 39 23h81q34 0 13 -29l-492 -635h279q19 0 18 -22l-8 -50q-6 -22 -29 -22h-327l-115 -148l-10 -57h418q24 0 18 -22 l-8 -50q-5 -24 -29 -24h-418l-61 -350q-1 -27 -29 -27h-76q-26 0 -24 27l63 350h-417q-20 0 -19 24z" />
<glyph unicode="&#xa6;" horiz-adv-x="536" d="M211 -201v627q0 25 25 25h65q25 0 25 -25v-627q0 -24 -25 -24h-65q-25 0 -25 24zM211 823v627q0 25 25 25h65q25 0 25 -25v-627q0 -24 -25 -24h-65q-25 0 -25 24z" />
<glyph unicode="&#xa7;" horiz-adv-x="1445" d="M184 -170l11 53q2 25 34 21q189 -33 324 -33q405 0 405 192q0 39 -20 68q-23 34 -69 62q-52 33 -77 45t-103 45q-72 30 -87 36q-192 83 -270 141t-78 154q0 129 105 207t257 99q-194 104 -194 235q0 88 44 150t120 92q80 31 155 44q77 13 174 13q191 0 361 -45 q25 -8 20 -29l-10 -55q-6 -24 -35 -18q-159 41 -336 41q-51 0 -112 -7q-55 -6 -117 -24q-63 -18 -101 -62t-38 -104q0 -61 78 -114q76 -51 260 -128q174 -73 262 -143q90 -72 90 -172q0 -218 -373 -281q98 -46 158 -112q59 -65 59 -142q0 -86 -49 -147q-50 -62 -132 -92 q-87 -32 -167 -43q-91 -13 -176 -13q-243 0 -352 31q-23 8 -21 35zM375 625q0 -68 75 -113q77 -46 263 -117l49 -18q40 1 98 14q54 12 116 35t101 62q41 41 41 92q0 81 -98 140q-99 60 -297 132q-122 -2 -235 -58t-113 -169z" />
<glyph unicode="&#xa8;" horiz-adv-x="677" d="M229 1223l27 147q2 25 29 25h80q24 0 18 -25l-27 -147q-2 -25 -28 -25h-78q-27 0 -21 25zM586 1223l26 147q2 25 29 25h78q22 0 20 -25l-26 -147q-2 -25 -29 -25h-78q-26 0 -20 25z" />
<glyph unicode="&#xa9;" horiz-adv-x="1726" d="M121 719q0 203 81 366q81 164 252 269q169 104 408 104q183 0 325 -59q145 -60 234 -163q91 -105 139 -236q48 -132 48 -281q0 -150 -48 -282q-47 -129 -139 -235q-89 -103 -234 -163q-142 -59 -325 -59q-239 0 -408 104q-171 105 -252 268q-81 164 -81 367zM207 719 q0 -278 171 -467t484 -189q316 0 487 189t171 467t-171 467q-170 188 -487 188q-314 0 -484 -188q-171 -189 -171 -467zM475 725q0 204 115 314t301 110q155 0 244 -57q14 -7 12 -21l-23 -53q-8 -22 -24 -12q-77 47 -197 47q-145 0 -231 -86t-86 -242q0 -155 86 -244 q85 -88 227 -88q124 0 207 47q20 10 24 -10l23 -53q2 -13 -12 -23q-102 -57 -252 -57q-184 0 -299 112t-115 316z" />
<glyph unicode="&#xaa;" horiz-adv-x="931" d="M193 1192q0 250 362 301q78 10 326 18l12 72q6 35 6 64q0 75 -48 108t-157 33q-146 0 -291 -59q-26 -10 -30 12l-11 53q-5 17 19 25q162 67 315 67q312 0 312 -231q0 -27 -7 -74l-98 -553q-5 -31 -35 -31h-47q-28 0 -22 31l18 111q-112 -154 -352 -154q-127 0 -199 59 q-73 60 -73 148zM301 1198q0 -55 46 -89t138 -34q155 0 249 72q95 73 116 182l16 94q-252 -5 -348 -26q-215 -53 -217 -199z" />
<glyph unicode="&#xab;" horiz-adv-x="802" d="M94 543l6 14l217 272q17 21 37 21h64q14 0 17 -9q3 -10 -7 -20l-225 -278l127 -277q6 -10 0 -18t-21 -8h-61q-23 0 -29 18l-123 272q-2 8 -2 13zM412 543l2 6l4 8l217 272q17 21 39 21h61q31 0 8 -29l-223 -276l125 -279q14 -26 -18 -26h-62q-22 0 -28 18l-123 272 q-2 6 -2 13z" />
<glyph unicode="&#xac;" horiz-adv-x="1196" d="M160 682l10 59q6 25 29 25h852q26 0 20 -25l-72 -405q-5 -25 -28 -25h-66q-26 0 -20 25l55 321h-760q-22 0 -20 25z" />
<glyph unicode="&#xad;" horiz-adv-x="796" d="M96 500l10 59q2 23 27 23h569q27 0 21 -23l-10 -59q-2 -23 -29 -23h-569q-25 0 -19 23z" />
<glyph unicode="&#xae;" horiz-adv-x="942" d="M125 1096q0 156 87 259t259 103t259 -103t87 -259t-87 -259q-87 -104 -259 -104t-259 104q-87 103 -87 259zM178 1096q0 -136 72 -223t221 -87q148 0 220 88q73 90 73 222q0 133 -73 223q-72 88 -220 88q-149 0 -221 -88q-72 -89 -72 -223zM336 913v377q0 13 14 13h133 q83 0 126 -34q44 -35 44 -98q0 -107 -108 -122l104 -134q12 -16 -8 -16h-43q-11 0 -18 10l-103 135h-80v-131q0 -14 -12 -14h-35q-14 0 -14 14zM397 1096h72q70 0 96 16q27 16 27 59q0 42 -26 60t-89 18h-80v-153z" />
<glyph unicode="&#xaf;" horiz-adv-x="677" d="M176 1237l6 41q2 25 29 25h549q24 0 18 -25l-6 -41q-6 -23 -29 -23h-548q-25 0 -19 23z" />
<glyph unicode="&#xb0;" horiz-adv-x="727" d="M213 1139q0 129 91 223t226 94q113 0 175 -61q63 -61 63 -158q0 -134 -91 -226q-91 -93 -228 -93q-108 0 -171 62q-65 63 -65 159zM303 1149q0 -67 42 -108q41 -40 116 -40q90 0 153 65q64 66 64 159q0 66 -43 106q-44 41 -115 41q-88 0 -152 -64q-65 -65 -65 -159z" />
<glyph unicode="&#xb1;" horiz-adv-x="1191" d="M47 25l8 47q1 24 29 24h891q28 0 22 -24l-8 -47q-6 -25 -28 -25h-893q-27 0 -21 25zM166 705l10 57q6 22 31 22h389l68 387q2 27 30 27h64q20 0 18 -27l-67 -387h389q26 0 20 -22l-10 -57q-2 -23 -29 -23h-389l-69 -393q-5 -23 -27 -23h-66q-25 0 -20 23l70 393h-392 q-22 0 -20 23z" />
<glyph unicode="&#xb2;" horiz-adv-x="845" d="M205 1026l6 39q4 16 25 31q1 0 12.5 7t33 19t45.5 27q84 50 112 70q9 6 23 15.5t38.5 26t42.5 28.5q70 47 108 85q30 30 80 85q45 50 65 100q19 48 19 98q0 129 -172 129q-103 0 -165 -52t-62 -149q0 -41 -33 -41h-49q-25 0 -25 31q0 141 92 225t250 84q142 0 208 -63 q67 -64 67 -160q0 -52 -23 -109q-23 -56 -49 -97q-28 -44 -83 -93q-76 -68 -90 -79q-41 -32 -106 -74q-67 -43 -95 -59q-38 -21 -91 -52h434q25 0 23 -29l-6 -43q-5 -29 -35 -29h-576q-30 0 -24 29z" />
<glyph unicode="&#xb3;" horiz-adv-x="845" d="M160 1071l24 45q16 27 41 19q109 -50 224 -50q103 0 181 52q77 51 77 145q0 119 -181 119h-96q-29 0 -24 29l8 40q6 29 32 29h97q87 0 151 47t64 125q0 115 -191 115q-104 0 -221 -43q-31 -11 -37 14l-10 43q-2 21 25 33q118 51 258 51q135 0 212 -53q76 -52 76 -143 q0 -79 -47 -143q-46 -62 -121 -91q119 -50 119 -168q0 -149 -108 -224t-260 -75q-180 0 -277 53q-26 15 -16 31z" />
<glyph unicode="&#xb4;" horiz-adv-x="677" d="M326 1206q-2 9 6 17l160 184q17 20 43 20h106q14 0 15 -11q1 -12 -9 -19l-223 -183q-20 -16 -41 -16h-43q-12 0 -14 8z" />
<glyph unicode="&#xb5;" horiz-adv-x="1185" d="M51 -201l215 1225q6 27 29 27h72q21 0 20 -27l-108 -618q-7 -39 -7 -64q0 -117 79 -186q81 -70 208 -70q278 0 330 289l115 649q2 27 28 27h70q26 0 20 -27l-116 -666q-68 -383 -428 -383q-152 0 -235 63t-105 144l-68 -383q-2 -24 -29 -24h-69q-27 0 -21 24z" />
<glyph unicode="&#xb6;" horiz-adv-x="1026" d="M188 938q0 224 163 360q165 138 403 138h393q28 0 22 -23l-10 -45q-2 -25 -26 -25h-82q-62 0 -92 -24q-29 -23 -41 -90l-218 -1235q-21 -118 -75 -172q-55 -55 -156 -55q-69 0 -129 18q-16 4 -10 25l12 45q6 18 29 16q69 -10 82 -10q117 0 141 145l100 565h-53 q-198 0 -326 101q-127 100 -127 266z" />
<glyph unicode="&#xb7;" horiz-adv-x="440" d="M139 457l25 141q5 25 29 25h108q23 0 21 -25l-25 -141q-6 -25 -27 -25h-110q-27 0 -21 25z" />
<glyph unicode="&#xb8;" horiz-adv-x="677" d="M158 -274l6 38q5 15 20 15h56q122 0 122 86q0 85 -155 151h72q75 -18 123 -64q49 -47 49 -102q0 -76 -59 -114q-58 -37 -144 -37q-63 0 -78 6q-16 6 -12 21z" />
<glyph unicode="&#xb9;" horiz-adv-x="845" d="M377 1651q-12 23 14 37l271 174q21 12 38 12h48q29 0 24 -29l-143 -819q-6 -29 -35 -29h-49q-29 0 -23 29l123 705l-207 -125q-28 -18 -43 6z" />
<glyph unicode="&#xba;" horiz-adv-x="974" d="M238 1323q0 49 10 113q40 217 163 334q122 116 314 116q166 0 258 -86t92 -248q0 -66 -10 -116q-37 -218 -159 -333q-122 -116 -312 -116q-170 0 -263 87t-93 249zM354 1333q0 -246 242 -246q141 0 233 89q93 90 121 260q13 65 13 106q0 246 -244 246q-140 0 -233 -90 q-94 -91 -124 -262q-8 -53 -8 -103z" />
<glyph unicode="&#xbb;" horiz-adv-x="802" d="M86 266l223 277l-125 278q-15 29 19 29h63q21 0 27 -21l123 -272q2 -8 2 -14l-6 -13l-219 -272q-17 -18 -35 -18h-62q-30 0 -10 26zM403 266l224 277l-125 278q-15 29 18 29h62q22 0 28 -21l125 -272q2 -8 0 -14q0 -7 -6 -13l-219 -272q-15 -18 -35 -18h-63q-29 0 -9 26z " />
<glyph unicode="&#xbc;" horiz-adv-x="2007" d="M299 1212q-12 23 14 37l271 174q23 13 39 13h47q29 0 24 -29l-143 -819q-6 -29 -35 -29h-49q-29 0 -23 29l123 704l-207 -125q-28 -17 -43 7zM449 27l1120 1390q19 19 39 19h71q32 0 13 -25l-1121 -1391q-20 -20 -41 -20h-71q-31 0 -10 27zM1171 229l7 41q2 17 16 29 l565 559q28 19 37 19h51q29 0 23 -29l-94 -549h120q29 0 23 -29l-6 -41q-6 -30 -35 -30h-121l-28 -170q-6 -29 -35 -29h-49q-30 0 -25 29l29 170h-455q-29 0 -23 30zM1311 299h356l76 428z" />
<glyph unicode="&#xbd;" horiz-adv-x="2007" d="M299 1212q-12 23 14 37l271 174q23 13 39 13h47q29 0 24 -29l-143 -819q-6 -29 -35 -29h-49q-29 0 -23 29l123 704l-207 -125q-28 -17 -43 7zM367 27l1120 1390q19 19 39 19h71q32 0 13 -25l-1121 -1391q-20 -20 -40 -20h-72q-31 0 -10 27zM1190 29q-6 -29 24 -29h576 q30 0 35 29l6 43q1 28 -23 28h-434q23 13 53 31t38 22q36 20 96 59t105 74q14 11 90 79q55 49 83 93q26 41 49 97q23 57 23 109q0 95 -67 159t-208 64q-158 0 -250 -84t-92 -225q0 -31 25 -31h49q33 0 33 41q0 96 62 148t165 52q172 0 172 -129q0 -50 -19 -98 q-19 -49 -65 -99q-50 -55 -80 -85q-38 -38 -108 -85q-68 -46 -104 -71q-18 -13 -112 -69q-24 -15 -45.5 -27.5t-33 -19.5t-12.5 -7q-21 -15 -25 -30z" />
<glyph unicode="&#xbe;" horiz-adv-x="2007" d="M82 633l24 45q16 26 41 18q107 -49 224 -49q105 0 181 51q77 51 77 146q0 119 -180 119h-97q-28 0 -24 28l8 41q6 29 33 29h96q87 0 151 47t64 125q0 115 -191 115q-104 0 -221 -43q-31 -11 -37 14l-10 43q-2 21 25 33q118 51 258 51q135 0 212 -53t77 -144 q0 -77 -48 -142q-46 -62 -120 -91q118 -49 118 -168q0 -149 -108 -224t-260 -75q-180 0 -277 53q-26 15 -16 31zM485 27l1121 1390q19 19 39 19h71q32 0 13 -25l-1121 -1391q-20 -20 -41 -20h-71q-32 0 -11 27zM1171 229l7 41q2 17 16 29l565 559q28 19 37 19h51 q29 0 23 -29l-94 -549h120q29 0 23 -29l-6 -41q-6 -30 -35 -30h-121l-28 -170q-6 -29 -35 -29h-49q-30 0 -25 29l29 170h-455q-29 0 -23 30zM1311 299h356l76 428z" />
<glyph unicode="&#xbf;" horiz-adv-x="946" d="M31 -2q0 -115 94 -176q95 -62 276 -62q193 0 351 76q22 10 20 27l-12 65q-5 21 -31 11q-169 -64 -305 -64q-145 0 -204 32q-58 31 -58 107q0 75 41 142q40 65 100 113t120 93q58 43 107 99q48 54 58 108l10 66q6 24 -20 24h-72q-23 0 -29 -24l-12 -66q-8 -45 -56 -92 q-50 -49 -110 -91q-61 -44 -123 -96q-62 -53 -103 -128q-42 -76 -42 -164zM498 881l26 143q4 27 31 27h115q24 0 18 -27l-24 -143q-6 -25 -29 -25h-117q-22 0 -20 25z" />
<glyph unicode="&#xc0;" horiz-adv-x="1343" d="M-16 27l772 1382q15 27 39 27h94q15 0 20 -5q4 -4 9 -22l284 -1382q8 -27 -22 -27h-80q-23 0 -29 23l-78 383h-659l-215 -383q-12 -23 -31 -23h-90q-29 0 -14 27zM393 522h580l-150 778h-4zM630 1762q4 12 19 12h101q25 0 36 -25l101 -176q5 -8 -1 -17q-5 -8 -18 -8h-41 q-15 0 -32 17l-162 178q-7 7 -3 19z" />
<glyph unicode="&#xc1;" horiz-adv-x="1343" d="M-16 27l772 1382q15 27 39 27h94q15 0 20 -5q4 -4 9 -22l284 -1382q8 -27 -22 -27h-80q-23 0 -29 23l-78 383h-659l-215 -383q-12 -23 -31 -23h-90q-29 0 -14 27zM393 522h580l-150 778h-4zM839 1556q-2 9 5 17l157 176q22 25 46 25h106q14 0 14 -12t-10 -19l-219 -178 q-17 -17 -41 -17h-45q-11 0 -13 8z" />
<glyph unicode="&#xc2;" horiz-adv-x="1343" d="M-16 27l772 1382q15 27 39 27h94q15 0 20 -5q4 -4 9 -22l284 -1382q8 -27 -22 -27h-80q-23 0 -29 23l-78 383h-659l-215 -383q-12 -23 -31 -23h-90q-29 0 -14 27zM393 522h580l-150 778h-4zM601 1556q-2 8 9 19l219 178q17 16 41 16h62q17 0 37 -16l153 -178q8 -12 4 -19 q-5 -8 -18 -8h-57q-16 0 -33 17l-127 121l-172 -121q-23 -17 -41 -17h-62q-13 0 -15 8z" />
<glyph unicode="&#xc3;" horiz-adv-x="1343" d="M-16 27l772 1382q15 27 39 27h94q15 0 20 -5q4 -4 9 -22l284 -1382q8 -27 -22 -27h-80q-23 0 -29 23l-78 383h-659l-215 -383q-12 -23 -31 -23h-90q-29 0 -14 27zM393 522h580l-150 778h-4zM553 1575q11 63 51 102t111 39q55 0 162 -43l49 -22q76 -33 116 -33q49 0 64 49 l6 21q8 24 37 24h33q26 0 18 -33q-10 -62 -51 -103q-40 -40 -111 -40q-56 0 -161 43l-46 16q-85 33 -124 33q-48 0 -60 -37l-8 -24q-6 -25 -35 -25h-35q-21 0 -16 33z" />
<glyph unicode="&#xc4;" horiz-adv-x="1343" d="M-16 27l772 1382q15 27 39 27h94q15 0 20 -5q4 -4 9 -22l284 -1382q8 -27 -22 -27h-80q-23 0 -29 23l-78 383h-659l-215 -383q-12 -23 -31 -23h-90q-29 0 -14 27zM393 522h580l-150 778h-4zM614 1573l25 137q6 27 29 27h86q26 0 20 -27l-24 -137q-6 -25 -31 -25h-84 q-23 0 -21 25zM985 1573l25 137q6 27 28 27h84q27 0 21 -27l-25 -137q-2 -25 -28 -25h-86q-21 0 -19 25z" />
<glyph unicode="&#xc5;" horiz-adv-x="1343" d="M-16 27l757 1357q-86 41 -86 140q0 91 67 152t165 61q81 0 131 -44q49 -43 49 -112q0 -70 -39 -124q-40 -55 -104 -77l278 -1353q8 -27 -22 -27h-80q-23 0 -29 23l-78 383h-659l-215 -383q-12 -23 -31 -23h-90q-29 0 -14 27zM393 522h580l-150 778h-4zM733 1528 q0 -88 111 -88q59 0 101 36t42 99q0 90 -108 90q-62 0 -104 -36t-42 -101z" />
<glyph unicode="&#xc6;" horiz-adv-x="1755" d="M-51 8q-5 8 2 19l991 1382q21 27 43 27h799q26 0 20 -25l-12 -68q-4 -26 -29 -26h-592l-92 -524h570q25 0 20 -27l-10 -61q-6 -27 -31 -27h-569l-98 -559h595q29 0 23 -25l-12 -67q-6 -27 -29 -27h-698q-26 0 -25 27l64 356h-531l-254 -360q-18 -23 -35 -23h-94 q-11 0 -16 8zM430 496h467l145 823h-32z" />
<glyph unicode="&#xc7;" horiz-adv-x="1222" d="M147 516q0 86 19 203q63 355 254 547q190 192 489 192q225 0 344 -80q27 -12 15 -28l-37 -62q-17 -24 -37 -14q-111 65 -279 65q-250 0 -407 -158q-159 -160 -211 -462q-18 -105 -18 -193q0 -430 430 -430q158 0 305 72q24 15 30 -16l19 -62q2 -12 -27 -29 q-153 -81 -348 -81q-27 0 -47 2q88 -63 88 -150q0 -81 -65 -118q-67 -38 -158 -38q-50 0 -68 7q-14 7 -12 22l6 41q4 16 21 16h55q129 0 129 86t-113 148q-183 40 -280 173t-97 347z" />
<glyph unicode="&#xc8;" horiz-adv-x="1112" d="M113 27l243 1384q6 25 29 25h756q28 0 22 -25l-12 -65q-1 -27 -31 -27h-655l-90 -526h633q24 0 20 -27l-12 -61q-4 -27 -29 -27h-633l-100 -561h659q29 0 23 -25l-10 -65q-6 -27 -31 -27h-760q-28 0 -22 27zM652 1762q4 12 20 12h100q26 0 37 -25l100 -176q5 -8 -1 -17 q-5 -8 -17 -8h-41q-16 0 -33 17l-162 178q-7 7 -3 19z" />
<glyph unicode="&#xc9;" horiz-adv-x="1112" d="M113 27l243 1384q6 25 29 25h756q28 0 22 -25l-12 -65q-1 -27 -31 -27h-655l-90 -526h633q24 0 20 -27l-12 -61q-4 -27 -29 -27h-633l-100 -561h659q29 0 23 -25l-10 -65q-6 -27 -31 -27h-760q-28 0 -22 27zM724 1556q-2 9 5 17l158 176q22 25 45 25h106q15 0 15 -12 q0 -11 -11 -19l-219 -178q-17 -17 -41 -17h-45q-11 0 -13 8z" />
<glyph unicode="&#xca;" horiz-adv-x="1112" d="M113 27l243 1384q6 25 29 25h756q28 0 22 -25l-12 -65q-1 -27 -31 -27h-655l-90 -526h633q24 0 20 -27l-12 -61q-4 -27 -29 -27h-633l-100 -561h659q29 0 23 -25l-10 -65q-6 -27 -31 -27h-760q-28 0 -22 27zM531 1556q-1 8 10 19l219 178q17 16 41 16h61q17 0 37 -16 l154 -178q8 -12 4 -19q-5 -8 -19 -8h-57q-16 0 -33 17l-127 121l-172 -121q-23 -17 -41 -17h-61q-14 0 -16 8z" />
<glyph unicode="&#xcb;" horiz-adv-x="1112" d="M113 27l243 1384q6 25 29 25h756q28 0 22 -25l-12 -65q-1 -27 -31 -27h-655l-90 -526h633q24 0 20 -27l-12 -61q-4 -27 -29 -27h-633l-100 -561h659q29 0 23 -25l-10 -65q-6 -27 -31 -27h-760q-28 0 -22 27zM543 1573l24 137q6 27 29 27h86q26 0 20 -27l-24 -137 q-6 -25 -31 -25h-84q-22 0 -20 25zM913 1573l25 137q6 27 29 27h84q26 0 20 -27l-24 -137q-2 -25 -29 -25h-86q-21 0 -19 25z" />
<glyph unicode="&#xcc;" horiz-adv-x="536" d="M125 27l246 1384q2 25 28 25h76q25 0 23 -25l-244 -1384q-6 -27 -31 -27h-76q-23 0 -22 27zM245 1762q4 12 19 12h101q25 0 36 -25l101 -176q5 -8 -1 -17q-5 -8 -18 -8h-41q-15 0 -32 17l-162 178q-7 7 -3 19z" />
<glyph unicode="&#xcd;" horiz-adv-x="536" d="M125 27l246 1384q2 25 28 25h76q25 0 23 -25l-244 -1384q-6 -27 -31 -27h-76q-23 0 -22 27zM417 1556q-2 9 5 17l158 176q22 25 45 25h106q14 0 14 -12t-10 -19l-219 -178q-17 -17 -41 -17h-45q-11 0 -13 8z" />
<glyph unicode="&#xce;" horiz-adv-x="536" d="M125 27l246 1384q2 25 28 25h76q25 0 23 -25l-244 -1384q-6 -27 -31 -27h-76q-23 0 -22 27zM194 1556q-2 8 9 19l219 178q17 16 41 16h61q17 0 37 -16l154 -178q8 -12 4 -19q-5 -8 -19 -8h-57q-16 0 -33 17l-127 121l-172 -121q-23 -17 -41 -17h-61q-13 0 -15 8z" />
<glyph unicode="&#xcf;" horiz-adv-x="536" d="M125 27l246 1384q2 25 28 25h76q25 0 23 -25l-244 -1384q-6 -27 -31 -27h-76q-23 0 -22 27zM207 1573l24 137q6 27 29 27h86q27 0 21 -27l-25 -137q-6 -25 -31 -25h-84q-22 0 -20 25zM578 1573l24 137q6 27 29 27h84q26 0 20 -27l-24 -137q-2 -25 -29 -25h-86 q-20 0 -18 25z" />
<glyph unicode="&#xd0;" horiz-adv-x="1380" d="M88 694l8 51q2 25 27 25h125l112 641q6 25 29 25h326q297 0 454 -115q156 -114 156 -387q0 -106 -20 -215q-67 -397 -266 -558t-545 -161h-355q-28 0 -22 27l112 645h-123q-19 0 -18 22zM260 119h238q288 0 451 130q164 131 225 470q20 103 20 199q0 222 -122 311 q-121 88 -367 88h-234l-96 -547h325q21 0 19 -25l-8 -51q-4 -22 -27 -22h-328z" />
<glyph unicode="&#xd1;" horiz-adv-x="1431" d="M113 27l243 1384q6 25 31 25h74q27 0 35 -19l575 -1208l211 1202q6 25 31 25h71q15 0 21 -6t4 -17l-246 -1386q-6 -27 -30 -27h-74q-28 0 -35 20l-575 1207l-211 -1200q-6 -27 -29 -27h-74q-28 0 -22 27zM596 1575q10 63 51 102t111 39q55 0 162 -43l49 -22 q77 -33 116 -33q49 0 64 49l6 21q7 24 37 24h33q25 0 18 -33q-10 -62 -51 -103q-40 -40 -111 -40q-54 0 -161 43l-45 16q-85 33 -125 33q-48 0 -60 -37l-8 -24q-6 -25 -35 -25h-35q-21 0 -16 33z" />
<glyph unicode="&#xd2;" horiz-adv-x="1445" d="M143 506q0 90 19 213q63 354 247 548q182 191 476 191q245 0 376 -135q130 -134 130 -389q0 -87 -21 -215q-63 -358 -245 -549q-181 -190 -474 -190q-247 0 -377 136q-131 137 -131 390zM272 512q0 -416 385 -416q234 0 382 160q147 159 200 463q21 123 21 205 q0 417 -383 417q-237 0 -384 -159t-200 -463q-21 -127 -21 -207zM730 1762q4 12 20 12h100q26 0 37 -25l100 -176q5 -8 -1 -17q-5 -8 -17 -8h-41q-16 0 -33 17l-162 178q-7 7 -3 19z" />
<glyph unicode="&#xd3;" horiz-adv-x="1445" d="M143 506q0 90 19 213q63 354 247 548q182 191 476 191q245 0 376 -135q130 -134 130 -389q0 -87 -21 -215q-63 -358 -245 -549q-181 -190 -474 -190q-247 0 -377 136q-131 137 -131 390zM272 512q0 -416 385 -416q234 0 382 160q147 159 200 463q21 123 21 205 q0 417 -383 417q-237 0 -384 -159t-200 -463q-21 -127 -21 -207zM863 1556q-2 9 5 17l158 176q22 25 45 25h107q14 0 14 -12t-10 -19l-219 -178q-17 -17 -41 -17h-45q-12 0 -14 8z" />
<glyph unicode="&#xd4;" horiz-adv-x="1445" d="M143 506q0 90 19 213q63 354 247 548q182 191 476 191q245 0 376 -135q130 -134 130 -389q0 -87 -21 -215q-63 -358 -245 -549q-181 -190 -474 -190q-247 0 -377 136q-131 137 -131 390zM272 512q0 -416 385 -416q234 0 382 160q147 159 200 463q21 123 21 205 q0 417 -383 417q-237 0 -384 -159t-200 -463q-21 -127 -21 -207zM650 1556q-2 8 9 19l220 178q17 16 41 16h61q17 0 37 -16l153 -178q9 -12 5 -19q-5 -8 -19 -8h-57q-16 0 -33 17l-127 121l-172 -121q-23 -17 -41 -17h-61q-14 0 -16 8z" />
<glyph unicode="&#xd5;" horiz-adv-x="1445" d="M143 506q0 90 19 213q63 354 247 548q182 191 476 191q245 0 376 -135q130 -134 130 -389q0 -87 -21 -215q-63 -358 -245 -549q-181 -190 -474 -190q-247 0 -377 136q-131 137 -131 390zM272 512q0 -416 385 -416q234 0 382 160q147 159 200 463q21 123 21 205 q0 417 -383 417q-237 0 -384 -159t-200 -463q-21 -127 -21 -207zM602 1575q10 63 51 102t111 39q55 0 162 -43l49 -22q77 -33 117 -33q48 0 63 49l6 21q7 24 37 24h33q25 0 18 -33q-10 -62 -51 -103q-40 -40 -111 -40q-56 0 -161 43l-45 16q-86 33 -125 33q-48 0 -60 -37 l-8 -24q-6 -25 -35 -25h-35q-21 0 -16 33z" />
<glyph unicode="&#xd6;" horiz-adv-x="1445" d="M143 506q0 90 19 213q63 354 247 548q182 191 476 191q245 0 376 -135q130 -134 130 -389q0 -87 -21 -215q-63 -358 -245 -549q-181 -190 -474 -190q-247 0 -377 136q-131 137 -131 390zM272 512q0 -416 385 -416q234 0 382 160q147 159 200 463q21 123 21 205 q0 417 -383 417q-237 0 -384 -159t-200 -463q-21 -127 -21 -207zM664 1573l24 137q6 27 29 27h86q26 0 20 -27l-24 -137q-6 -25 -31 -25h-84q-22 0 -20 25zM1034 1573l25 137q6 27 28 27h84q27 0 21 -27l-25 -137q-2 -25 -28 -25h-86q-21 0 -19 25z" />
<glyph unicode="&#xd7;" horiz-adv-x="1191" d="M168 342q-12 17 4 33l389 332l-272 329q-12 17 6 35l49 41q23 18 37 -2l270 -328l389 330q18 15 33 0l35 -41q15 -18 -8 -35l-387 -329l270 -332q12 -17 -4 -33l-49 -43q-18 -15 -33 2l-272 328l-389 -330q-20 -16 -35 0z" />
<glyph unicode="&#xd8;" horiz-adv-x="1452" d="M20 63q-12 16 5 31l163 152q-45 108 -45 260q0 102 21 213q61 355 245 548q182 191 476 191q289 0 418 -186l141 131q24 21 35 6l34 -35q15 -16 -2 -35l-163 -151q45 -105 45 -254q0 -94 -23 -215q-62 -359 -243 -549t-474 -190q-288 0 -417 184l-150 -135 q-19 -19 -31 -2zM274 512q0 -98 21 -172l909 840q-91 161 -327 161q-235 0 -382 -159q-146 -158 -202 -463q-19 -119 -19 -207zM330 254q92 -158 327 -158q237 0 383 160q147 160 199 463q21 105 21 205q0 97 -21 166z" />
<glyph unicode="&#xd9;" horiz-adv-x="1404" d="M172 369q0 61 12 133l160 909q6 25 31 25h74q28 0 22 -25l-158 -901q-12 -68 -12 -123q0 -295 334 -295q399 0 471 418l160 901q5 25 28 25h76q27 0 21 -25l-160 -909q-92 -527 -600 -527q-230 0 -344 102q-115 103 -115 292zM730 1762q4 12 20 12h100q26 0 37 -25 l100 -176q5 -8 -1 -17q-5 -8 -17 -8h-41q-16 0 -33 17l-162 178q-7 7 -3 19z" />
<glyph unicode="&#xda;" horiz-adv-x="1404" d="M172 369q0 61 12 133l160 909q6 25 31 25h74q28 0 22 -25l-158 -901q-12 -68 -12 -123q0 -295 334 -295q399 0 471 418l160 901q5 25 28 25h76q27 0 21 -25l-160 -909q-92 -527 -600 -527q-230 0 -344 102q-115 103 -115 292zM802 1556q-2 9 5 17l158 176q22 25 45 25 h106q14 0 14 -12t-10 -19l-219 -178q-17 -17 -41 -17h-45q-11 0 -13 8z" />
<glyph unicode="&#xdb;" horiz-adv-x="1404" d="M172 369q0 61 12 133l160 909q6 25 31 25h74q28 0 22 -25l-158 -901q-12 -68 -12 -123q0 -295 334 -295q399 0 471 418l160 901q5 25 28 25h76q27 0 21 -25l-160 -909q-92 -527 -600 -527q-230 0 -344 102q-115 103 -115 292zM630 1556q-2 8 9 19l219 178q17 16 41 16h62 q16 0 36 -16l154 -178q8 -12 4 -19q-5 -8 -18 -8h-58q-15 0 -32 17l-127 121l-172 -121q-23 -17 -41 -17h-62q-13 0 -15 8z" />
<glyph unicode="&#xdc;" horiz-adv-x="1404" d="M172 369q0 61 12 133l160 909q6 25 31 25h74q28 0 22 -25l-158 -901q-12 -68 -12 -123q0 -295 334 -295q399 0 471 418l160 901q5 25 28 25h76q27 0 21 -25l-160 -909q-92 -527 -600 -527q-230 0 -344 102q-115 103 -115 292zM643 1573l25 137q6 27 28 27h86q27 0 21 -27 l-25 -137q-6 -25 -30 -25h-84q-23 0 -21 25zM1014 1573l24 137q6 27 29 27h84q26 0 20 -27l-24 -137q-2 -25 -29 -25h-86q-20 0 -18 25z" />
<glyph unicode="&#xdd;" horiz-adv-x="1280" d="M240 1407q-4 9 1 19t19 10h80q22 0 33 -23l213 -541l82 -225l161 225l406 541q18 23 39 23h86q30 0 12 -29l-657 -870l-90 -510q-1 -27 -29 -27h-76q-24 0 -22 27l90 510zM779 1556q-2 9 5 17l158 176q22 25 45 25h107q14 0 14 -12t-10 -19l-219 -178q-17 -17 -41 -17 h-45q-12 0 -14 8z" />
<glyph unicode="&#xde;" horiz-adv-x="1236" d="M113 27l243 1384q6 25 31 25h74q28 0 22 -25l-24 -145h221q253 0 378 -83q124 -82 124 -265q0 -42 -11 -117q-44 -249 -190 -358t-434 -109h-252l-55 -307q-6 -27 -31 -27h-76q-26 0 -20 27zM313 451h238q229 0 342 80q114 81 147 272q11 60 11 94q0 135 -90 194 q-89 58 -287 58h-236z" />
<glyph unicode="&#xdf;" horiz-adv-x="1269" d="M98 25l193 1085q28 171 163 260q133 88 330 88q182 0 274 -75q91 -75 91 -183q0 -71 -40 -127q-42 -59 -95 -92q-54 -33 -112 -61q-50 -23 -96 -51q-40 -24 -40 -44t40 -47q21 -14 97 -60q68 -41 115 -77q56 -43 97 -114q40 -70 40 -156q0 -191 -128 -287 q-127 -96 -331 -96q-35 0 -63 2q-37 0 -106 12q-68 12 -66 25l10 57q6 28 31 22q30 -6 80 -6q93 0 193 23q96 22 179 87q82 64 82 159q0 86 -61 154q-62 70 -135 107q-74 38 -135 87q-62 50 -62 100q0 51 40 88q42 39 97 62t115 50q56 25 97 69q40 43 40 106q0 68 -61 114 t-197 46q-140 0 -243 -63q-104 -63 -126 -189l-190 -1075q-2 -25 -27 -25h-67q-29 0 -23 25z" />
<glyph unicode="&#xe0;" horiz-adv-x="1116" d="M49 240q0 71 28 133q27 60 64 97q39 39 109 67q65 26 122 43q44 13 146 23q104 10 140 11q95 3 143 4h23q6 0 22 2q8 1 22 1l15 79q8 42 8 80q0 97 -60 142t-190 45q-165 0 -348 -70q-24 -11 -29 14l-8 60q-2 18 18 28q188 76 377 76q357 0 357 -282q0 -41 -9 -97 l-118 -671q-6 -25 -29 -25h-66q-25 0 -20 25l31 170q-141 -213 -426 -213q-158 0 -239 71q-83 72 -83 187zM168 246q0 -75 56 -119q57 -45 167 -45q179 0 297 92q116 90 143 232l21 118q-320 -11 -416 -30q-268 -55 -268 -248zM513 1416q4 11 19 11h103q23 0 37 -20 l102 -184q5 -8 -2 -17q-6 -8 -18 -8h-37q-19 0 -35 16l-166 183q-7 7 -3 19z" />
<glyph unicode="&#xe1;" horiz-adv-x="1116" d="M49 240q0 71 28 133q27 60 64 97q39 39 109 67q65 26 122 43q44 13 146 23q104 10 140 11q95 3 143 4h23q6 0 22 2q8 1 22 1l15 79q8 42 8 80q0 97 -60 142t-190 45q-165 0 -348 -70q-24 -11 -29 14l-8 60q-2 18 18 28q188 76 377 76q357 0 357 -282q0 -41 -9 -97 l-118 -671q-6 -25 -29 -25h-66q-25 0 -20 25l31 170q-141 -213 -426 -213q-158 0 -239 71q-83 72 -83 187zM168 246q0 -75 56 -119q57 -45 167 -45q179 0 297 92q116 90 143 232l21 118q-320 -11 -416 -30q-268 -55 -268 -248zM600 1206q-2 9 6 17l160 184q17 20 43 20h106 q15 0 16 -11q1 -12 -9 -19l-224 -183q-20 -16 -41 -16h-43q-12 0 -14 8z" />
<glyph unicode="&#xe2;" horiz-adv-x="1116" d="M49 240q0 71 28 133q27 60 64 97q39 39 109 67q65 26 122 43q44 13 146 23q104 10 140 11q95 3 143 4h23q6 0 22 2q8 1 22 1l15 79q8 42 8 80q0 97 -60 142t-190 45q-165 0 -348 -70q-24 -11 -29 14l-8 60q-2 18 18 28q188 76 377 76q357 0 357 -282q0 -41 -9 -97 l-118 -671q-6 -25 -29 -25h-66q-25 0 -20 25l31 170q-141 -213 -426 -213q-158 0 -239 71q-83 72 -83 187zM168 246q0 -75 56 -119q57 -45 167 -45q179 0 297 92q116 90 143 232l21 118q-320 -11 -416 -30q-268 -55 -268 -248zM419 1207q-2 10 9 18l225 186q16 16 41 16h62 q20 0 35 -16l159 -186q4 -5 4 -13q0 -5 -5 -10q-4 -4 -13 -4h-57q-16 0 -31 16l-135 134l-181 -134q-17 -16 -38 -16h-60q-14 0 -15 9z" />
<glyph unicode="&#xe3;" horiz-adv-x="1116" d="M49 240q0 71 28 133q27 60 64 97q39 39 109 67q65 26 122 43q44 13 146 23q104 10 140 11q95 3 143 4h23q6 0 22 2q8 1 22 1l15 79q8 42 8 80q0 97 -60 142t-190 45q-165 0 -348 -70q-24 -11 -29 14l-8 60q-2 18 18 28q188 76 377 76q357 0 357 -282q0 -41 -9 -97 l-118 -671q-6 -25 -29 -25h-66q-25 0 -20 25l31 170q-141 -213 -426 -213q-158 0 -239 71q-83 72 -83 187zM168 246q0 -75 56 -119q57 -45 167 -45q179 0 297 92q116 90 143 232l21 118q-320 -11 -416 -30q-268 -55 -268 -248zM393 1233q10 59 48 95q37 36 102 36 q51 0 153 -41l45 -18q71 -31 103 -31q43 0 59 43l6 20q6 23 35 23h37q19 0 14 -31q-10 -59 -48 -95q-37 -36 -99 -36q-72 0 -156 39l-41 18q-69 29 -104 29q-43 0 -58 -35l-10 -24q-12 -23 -35 -23h-34q-22 0 -17 31z" />
<glyph unicode="&#xe4;" horiz-adv-x="1116" d="M49 240q0 71 28 133q27 60 64 97q39 39 109 67q65 26 122 43q44 13 146 23q104 10 140 11q95 3 143 4h23q6 0 22 2q8 1 22 1l15 79q8 42 8 80q0 97 -60 142t-190 45q-165 0 -348 -70q-24 -11 -29 14l-8 60q-2 18 18 28q188 76 377 76q357 0 357 -282q0 -41 -9 -97 l-118 -671q-6 -25 -29 -25h-66q-25 0 -20 25l31 170q-141 -213 -426 -213q-158 0 -239 71q-83 72 -83 187zM168 246q0 -75 56 -119q57 -45 167 -45q179 0 297 92q116 90 143 232l21 118q-320 -11 -416 -30q-268 -55 -268 -248zM442 1223l27 147q2 25 29 25h80q24 0 18 -25 l-27 -147q-2 -25 -28 -25h-78q-27 0 -21 25zM799 1223l26 147q2 25 29 25h78q22 0 20 -25l-26 -147q-2 -25 -29 -25h-78q-26 0 -20 25z" />
<glyph unicode="&#xe5;" horiz-adv-x="1116" d="M49 240q0 71 28 133q27 60 64 97q39 39 109 67q65 26 122 43q44 13 146 23q104 10 140 11q95 3 143 4h23q6 0 22 2q8 1 22 1l15 79q8 42 8 80q0 97 -60 142t-190 45q-165 0 -348 -70q-24 -11 -29 14l-8 60q-2 18 18 28q188 76 377 76q357 0 357 -282q0 -41 -9 -97 l-118 -671q-6 -25 -29 -25h-66q-25 0 -20 25l31 170q-141 -213 -426 -213q-158 0 -239 71q-83 72 -83 187zM168 246q0 -75 56 -119q57 -45 167 -45q179 0 297 92q116 90 143 232l21 118q-320 -11 -416 -30q-268 -55 -268 -248zM502 1339q0 93 66 153t165 60q84 0 134 -44 q51 -45 51 -113q0 -92 -68 -152q-66 -59 -166 -59q-82 0 -132 44t-50 111zM582 1346q0 -93 112 -93q60 0 102 36t42 100q0 43 -30 67q-31 25 -81 25q-61 0 -103 -36t-42 -99z" />
<glyph unicode="&#xe6;" horiz-adv-x="1839" d="M49 229q0 86 32 150q31 63 91 100q58 36 129 61q65 23 158 32q105 11 165 13q77 3 164 3h70l25 133q6 33 6 65q0 181 -248 181q-168 0 -354 -70q-21 -8 -27 14l-12 60q-4 16 20 28q207 76 377 76q165 0 251 -60q85 -59 83 -181q62 115 171 178q110 63 247 63 q174 0 268 -101t94 -269q0 -56 -8 -109l-16 -94q-2 -25 -31 -25h-750q-4 -21 -4 -76q0 -149 86 -235t240 -86q159 0 285 65q24 10 30 -14l13 -55q4 -16 -21 -29q-135 -72 -317 -72q-163 0 -269 76q-107 77 -125 201q-144 -270 -489 -270q-164 0 -249 67t-85 180zM168 240 q0 -154 227 -154q183 0 294 90t138 232l15 81q-300 -6 -373 -14q-270 -33 -297 -192q-4 -19 -4 -43zM971 580h659l4 18q11 60 11 102q0 126 -66 198q-67 73 -197 73q-151 0 -262 -105q-110 -104 -149 -286z" />
<glyph unicode="&#xe7;" horiz-adv-x="1003" d="M106 395q0 67 15 133q45 265 195 406t376 141q187 0 289 -63q20 -15 10 -31l-35 -57q-12 -28 -36 -13q-94 54 -222 54q-180 0 -299 -111q-117 -110 -155 -326q-13 -75 -13 -127q0 -155 79 -234t225 -79q142 0 266 62q20 12 28 -13l13 -59q2 -17 -23 -29 q-129 -69 -282 -69q-21 0 -37 2q86 -53 86 -132q0 -76 -59 -114q-58 -37 -144 -37q-63 0 -78 6q-17 6 -12 21l6 38q5 15 20 15h56q123 0 123 86q0 77 -123 137q-129 38 -198 138q-71 103 -71 255z" />
<glyph unicode="&#xe8;" horiz-adv-x="1138" d="M109 397q0 65 12 138q45 255 189 398q143 142 366 142q184 0 283 -103q100 -105 100 -276q0 -52 -10 -116l-15 -84q-2 -25 -30 -25h-775q-4 -21 -4 -72q0 -149 87 -234q86 -85 251 -85q159 0 293 67q26 13 33 -14l12 -53q2 -19 -22 -29q-158 -76 -324 -76 q-213 0 -330 111q-116 110 -116 311zM248 571h684l2 17q10 44 10 106q0 131 -68 203q-69 74 -206 74q-338 0 -422 -400zM525 1416q4 11 20 11h102q23 0 37 -20l102 -184q5 -8 -2 -17q-6 -8 -18 -8h-37q-19 0 -35 16l-166 183q-7 7 -3 19z" />
<glyph unicode="&#xe9;" horiz-adv-x="1138" d="M109 397q0 65 12 138q45 255 189 398q143 142 366 142q184 0 283 -103q100 -105 100 -276q0 -52 -10 -116l-15 -84q-2 -25 -30 -25h-775q-4 -21 -4 -72q0 -149 87 -234q86 -85 251 -85q159 0 293 67q26 13 33 -14l12 -53q2 -19 -22 -29q-158 -76 -324 -76 q-213 0 -330 111q-116 110 -116 311zM248 571h684l2 17q10 44 10 106q0 131 -68 203q-69 74 -206 74q-338 0 -422 -400zM627 1206q-2 9 6 17l160 184q17 20 43 20h106q14 0 15 -11q1 -12 -9 -19l-223 -183q-20 -16 -41 -16h-43q-12 0 -14 8z" />
<glyph unicode="&#xea;" horiz-adv-x="1138" d="M109 397q0 65 12 138q45 255 189 398q143 142 366 142q184 0 283 -103q100 -105 100 -276q0 -52 -10 -116l-15 -84q-2 -25 -30 -25h-775q-4 -21 -4 -72q0 -149 87 -234q86 -85 251 -85q159 0 293 67q26 13 33 -14l12 -53q2 -19 -22 -29q-158 -76 -324 -76 q-213 0 -330 111q-116 110 -116 311zM248 571h684l2 17q10 44 10 106q0 131 -68 203q-69 74 -206 74q-338 0 -422 -400zM443 1207q-2 10 10 18l225 186q16 16 41 16h61q20 0 35 -16l160 -186q4 -5 4 -13q0 -5 -5 -10q-4 -4 -13 -4h-58q-16 0 -31 16l-135 134l-180 -134 q-17 -16 -39 -16h-59q-15 0 -16 9z" />
<glyph unicode="&#xeb;" horiz-adv-x="1138" d="M109 397q0 65 12 138q45 255 189 398q143 142 366 142q184 0 283 -103q100 -105 100 -276q0 -52 -10 -116l-15 -84q-2 -25 -30 -25h-775q-4 -21 -4 -72q0 -149 87 -234q86 -85 251 -85q159 0 293 67q26 13 33 -14l12 -53q2 -19 -22 -29q-158 -76 -324 -76 q-213 0 -330 111q-116 110 -116 311zM248 571h684l2 17q10 44 10 106q0 131 -68 203q-69 74 -206 74q-338 0 -422 -400zM471 1223l27 147q2 25 28 25h80q25 0 19 -25l-27 -147q-2 -25 -29 -25h-77q-27 0 -21 25zM827 1223l27 147q2 25 29 25h78q22 0 20 -25l-27 -147 q-2 -25 -28 -25h-78q-27 0 -21 25z" />
<glyph unicode="&#xec;" horiz-adv-x="464" d="M94 25l176 999q6 27 31 27h70q24 0 18 -27l-176 -999q-5 -25 -27 -25h-69q-28 0 -23 25zM153 1416q4 11 19 11h102q23 0 37 -20l103 -184q5 -8 -2 -17q-6 -8 -19 -8h-37q-18 0 -34 16l-166 183q-7 7 -3 19z" />
<glyph unicode="&#xed;" horiz-adv-x="464" d="M94 25l176 999q6 27 31 27h70q24 0 18 -27l-176 -999q-5 -25 -27 -25h-69q-28 0 -23 25zM315 1206q-2 8 7 17l159 184q17 20 43 20h107q14 0 15 -11q1 -12 -9 -19l-223 -183q-20 -16 -41 -16h-43q-13 0 -15 8z" />
<glyph unicode="&#xee;" horiz-adv-x="464" d="M94 25l176 999q6 27 31 27h70q24 0 18 -27l-176 -999q-5 -25 -27 -25h-69q-28 0 -23 25zM97 1207q-2 10 9 18l226 186q16 16 41 16h61q20 0 35 -16l160 -186q4 -5 4 -13q0 -5 -5 -10q-4 -4 -14 -4h-57q-16 0 -31 16l-135 134l-180 -134q-17 -16 -39 -16h-59q-15 0 -16 9z " />
<glyph unicode="&#xef;" horiz-adv-x="464" d="M94 25l176 999q6 27 31 27h70q24 0 18 -27l-176 -999q-5 -25 -27 -25h-69q-28 0 -23 25zM125 1223l27 147q5 25 28 25h80q25 0 19 -25l-27 -147q-2 -25 -29 -25h-78q-26 0 -20 25zM481 1223l27 147q5 25 29 25h77q26 0 21 -25l-27 -147q-2 -25 -28 -25h-78q-27 0 -21 25z " />
<glyph unicode="&#xf0;" horiz-adv-x="1191" d="M106 387q0 59 13 139q45 263 193 405t372 142q219 0 295 -121q-28 132 -113 258h-307q-26 0 -20 23l4 33q6 22 28 22h244q-50 67 -121 117q-14 10 -10 20q5 11 21 11h73q28 0 43 -15q67 -58 117 -133h192q25 0 19 -22l-6 -33q-5 -23 -25 -23h-137q129 -230 129 -497 q0 -88 -16 -187q-45 -263 -193 -405q-147 -141 -375 -141q-198 0 -308 106q-112 107 -112 301zM229 393q0 -307 299 -307q175 0 290 113q114 113 153 327q12 72 12 133q0 151 -77 231q-76 79 -222 79q-175 0 -290 -113q-113 -111 -152 -330q-13 -80 -13 -133z" />
<glyph unicode="&#xf1;" d="M88 25l176 999q6 27 29 27h69q23 0 21 -25l-27 -160q135 209 400 209q160 0 243 -76q84 -77 84 -211q0 -45 -8 -88l-119 -675q-6 -25 -28 -25h-70q-27 0 -22 25l118 661q7 47 7 76q0 201 -240 201q-155 0 -267 -91q-114 -92 -137 -233l-110 -614q-2 -25 -27 -25h-71 q-23 0 -21 25zM438 1233q10 59 48 95t102 36q51 0 153 -41l45 -18q71 -31 103 -31q43 0 59 43l6 20q6 23 35 23h37q19 0 14 -31q-10 -59 -48 -95t-99 -36q-72 0 -156 39l-41 18q-69 29 -104 29q-42 0 -57 -35l-11 -24q-12 -23 -35 -23h-34q-22 0 -17 31z" />
<glyph unicode="&#xf2;" d="M106 387q0 -195 111 -301q110 -106 307 -106q226 0 375 142q150 143 195 404q12 76 12 140q0 196 -111 303q-110 106 -305 106q-228 0 -377 -142q-149 -141 -194 -407q-13 -80 -13 -139zM229 393q0 55 13 133q39 219 152 330q115 113 290 113q146 0 222 -79 q77 -80 77 -231q0 -59 -12 -133q-39 -214 -153 -327q-115 -113 -290 -113q-299 0 -299 307zM546 1416q4 11 19 11h103q23 0 37 -20l102 -184q5 -8 -2 -17q-6 -8 -19 -8h-36q-19 0 -35 16l-166 183q-7 7 -3 19z" />
<glyph unicode="&#xf3;" d="M106 387q0 -195 111 -301q110 -106 307 -106q226 0 375 142q150 143 195 404q12 76 12 140q0 196 -111 303q-110 106 -305 106q-228 0 -377 -142q-149 -141 -194 -407q-13 -80 -13 -139zM229 393q0 55 13 133q39 219 152 330q115 113 290 113q146 0 222 -79 q77 -80 77 -231q0 -59 -12 -133q-39 -214 -153 -327q-115 -113 -290 -113q-299 0 -299 307zM647 1206q-2 9 6 17l160 184q17 20 43 20h107q14 0 15 -11q1 -12 -9 -19l-224 -183q-20 -16 -40 -16h-43q-13 0 -15 8z" />
<glyph unicode="&#xf4;" d="M106 387q0 -195 111 -301q110 -106 307 -106q226 0 375 142q150 143 195 404q12 76 12 140q0 196 -111 303q-110 106 -305 106q-228 0 -377 -142q-149 -141 -194 -407q-13 -80 -13 -139zM229 393q0 55 13 133q39 219 152 330q115 113 290 113q146 0 222 -79 q77 -80 77 -231q0 -59 -12 -133q-39 -214 -153 -327q-115 -113 -290 -113q-299 0 -299 307zM460 1207q-2 10 9 18l225 186q16 16 41 16h62q19 0 34 -16l160 -186q4 -5 4 -13q0 -5 -5 -10q-4 -4 -13 -4h-57q-16 0 -31 16l-135 134l-181 -134q-17 -16 -38 -16h-60q-13 0 -15 9 z" />
<glyph unicode="&#xf5;" d="M106 387q0 59 13 139q45 266 194 407q149 142 377 142q195 0 305 -106q111 -107 111 -303q0 -64 -12 -140q-45 -261 -195 -404q-149 -142 -375 -142q-197 0 -307 106q-111 106 -111 301zM229 393q0 -307 299 -307q175 0 290 113q114 113 153 327q12 74 12 133 q0 151 -77 231q-76 79 -222 79q-175 0 -290 -113q-113 -111 -152 -330q-13 -78 -13 -133zM438 1233q10 59 48 95t102 36q51 0 153 -41l45 -18q71 -31 103 -31q43 0 59 43l6 20q6 23 35 23h37q19 0 14 -31q-10 -59 -48 -95t-99 -36q-72 0 -156 39l-41 18q-69 29 -104 29 q-42 0 -57 -35l-11 -24q-12 -23 -35 -23h-34q-22 0 -17 31z" />
<glyph unicode="&#xf6;" d="M106 387q0 -195 111 -301q110 -106 307 -106q226 0 375 142q150 143 195 404q12 76 12 140q0 196 -111 303q-110 106 -305 106q-228 0 -377 -142q-149 -141 -194 -407q-13 -80 -13 -139zM229 393q0 55 13 133q39 219 152 330q115 113 290 113q146 0 222 -79 q77 -80 77 -231q0 -59 -12 -133q-39 -214 -153 -327q-115 -113 -290 -113q-299 0 -299 307zM487 1223l27 147q2 25 29 25h80q24 0 18 -25l-27 -147q-2 -25 -28 -25h-78q-27 0 -21 25zM844 1223l26 147q2 25 29 25h78q22 0 20 -25l-26 -147q-2 -25 -29 -25h-78q-26 0 -20 25z " />
<glyph unicode="&#xf7;" horiz-adv-x="1191" d="M172 680l8 55q6 25 29 25h876q26 0 21 -25l-10 -55q-2 -25 -29 -25h-879q-22 0 -16 25zM483 285l25 137q6 27 31 27h106q27 0 21 -27l-25 -137q-1 -27 -29 -27h-108q-22 0 -21 27zM608 991l27 139q2 25 29 25h106q25 0 23 -25l-27 -139q-4 -24 -27 -24h-108q-25 0 -23 24 z" />
<glyph unicode="&#xf8;" horiz-adv-x="1202" d="M59 27q-14 14 2 32l103 97q-55 91 -55 231q0 59 14 139q45 265 193 407t376 142q210 0 318 -119l94 88q17 19 33 3l24 -23q18 -15 -2 -31l-104 -98q55 -98 55 -229q0 -64 -12 -140q-46 -260 -196 -404q-148 -142 -374 -142q-209 0 -317 114l-90 -88q-18 -17 -37 -4z M233 393q0 -87 25 -151l666 632q-77 95 -236 95q-175 0 -290 -113q-113 -111 -152 -330q-13 -78 -13 -133zM297 176q78 -90 235 -90q175 0 290 113q113 112 151 327q14 64 14 133q0 84 -26 150z" />
<glyph unicode="&#xf9;" horiz-adv-x="1177" d="M125 268q0 46 8 92l117 664q6 27 31 27h69q25 0 19 -27l-115 -645q-8 -61 -8 -82q0 -207 235 -207q150 0 260 88q111 89 138 232l108 614q1 27 29 27h71q21 0 19 -27l-176 -999q-6 -25 -27 -25h-72q-26 0 -20 25l29 161q-127 -206 -385 -206q-164 0 -246 75 q-84 77 -84 213zM544 1416q4 11 19 11h103q22 0 36 -20l103 -184q5 -8 -2 -17q-6 -8 -19 -8h-36q-19 0 -35 16l-166 183q-7 7 -3 19z" />
<glyph unicode="&#xfa;" horiz-adv-x="1177" d="M125 268q0 46 8 92l117 664q6 27 31 27h69q25 0 19 -27l-115 -645q-8 -61 -8 -82q0 -207 235 -207q150 0 260 88q111 89 138 232l108 614q1 27 29 27h71q21 0 19 -27l-176 -999q-6 -25 -27 -25h-72q-26 0 -20 25l29 161q-127 -206 -385 -206q-164 0 -246 75 q-84 77 -84 213zM633 1206q-2 9 6 17l160 184q17 20 43 20h106q15 0 16 -11t-10 -19l-223 -183q-20 -16 -41 -16h-43q-12 0 -14 8z" />
<glyph unicode="&#xfb;" horiz-adv-x="1177" d="M125 268q0 46 8 92l117 664q6 27 31 27h69q25 0 19 -27l-115 -645q-8 -61 -8 -82q0 -207 235 -207q150 0 260 88q111 89 138 232l108 614q1 27 29 27h71q21 0 19 -27l-176 -999q-6 -25 -27 -25h-72q-26 0 -20 25l29 161q-127 -206 -385 -206q-164 0 -246 75 q-84 77 -84 213zM452 1207q-2 10 9 18l225 186q16 16 41 16h61q20 0 35 -16l160 -186q4 -5 4 -13q0 -5 -5 -10q-4 -4 -13 -4h-58q-15 0 -30 16l-136 134l-180 -134q-17 -16 -39 -16h-59q-13 0 -15 9z" />
<glyph unicode="&#xfc;" horiz-adv-x="1177" d="M125 268q0 46 8 92l117 664q6 27 31 27h69q25 0 19 -27l-115 -645q-8 -61 -8 -82q0 -207 235 -207q150 0 260 88q111 89 138 232l108 614q1 27 29 27h71q21 0 19 -27l-176 -999q-6 -25 -27 -25h-72q-26 0 -20 25l29 161q-127 -206 -385 -206q-164 0 -246 75 q-84 77 -84 213zM479 1223l27 147q2 25 29 25h79q25 0 19 -25l-27 -147q-2 -25 -28 -25h-78q-27 0 -21 25zM836 1223l26 147q2 25 29 25h78q22 0 20 -25l-26 -147q-2 -25 -29 -25h-78q-26 0 -20 25z" />
<glyph unicode="&#xfd;" horiz-adv-x="995" d="M12 -188l29 59q7 18 31 16q49 -14 100 -14q96 0 152 65q55 63 38 142l-202 942q-5 29 22 29h74q18 0 23 -25l116 -561l60 -336h4l166 336l286 561q11 25 31 25h80q29 0 14 -29l-512 -973q-80 -157 -157 -219q-78 -63 -203 -63q-83 0 -137 20q-21 6 -15 25zM555 1206 q-2 9 6 17l160 184q17 20 43 20h106q15 0 16 -11q1 -12 -9 -19l-224 -183q-20 -16 -41 -16h-43q-12 0 -14 8z" />
<glyph unicode="&#xfe;" horiz-adv-x="1255" d="M55 -201l287 1614q2 23 27 23h71q27 0 21 -23l-101 -569q136 231 416 231q186 0 290 -102q103 -102 103 -297q0 -81 -14 -150q-46 -267 -186 -407q-139 -139 -357 -139q-142 0 -241 57t-123 170l-72 -408q-6 -24 -29 -24h-71q-22 0 -21 24zM293 397q0 -151 77 -231 t226 -80q358 0 436 440q15 94 15 144q0 299 -295 299q-178 0 -295 -114q-116 -113 -154 -329q-10 -57 -10 -129z" />
<glyph unicode="&#xff;" horiz-adv-x="995" d="M12 -188l29 59q7 18 31 16q49 -14 100 -14q96 0 152 65q55 63 38 142l-202 942q-5 29 22 29h74q18 0 23 -25l116 -561l60 -336h4l166 336l286 561q11 25 31 25h80q29 0 14 -29l-512 -973q-80 -157 -157 -219q-78 -63 -203 -63q-83 0 -137 20q-21 6 -15 25zM389 1223 l27 147q2 25 28 25h80q25 0 19 -25l-27 -147q-2 -25 -29 -25h-77q-27 0 -21 25zM745 1223l27 147q2 25 29 25h78q22 0 20 -25l-27 -147q-2 -25 -28 -25h-78q-27 0 -21 25z" />
<glyph unicode="&#x152;" horiz-adv-x="1884" d="M217 498q0 89 23 221q69 395 264 556q196 161 540 161h869q24 0 22 -25l-12 -68q-6 -26 -31 -26h-600l-90 -524h578q24 0 20 -27l-12 -61q-6 -27 -31 -27h-577l-99 -559h607q26 0 20 -25l-12 -67q-2 -27 -29 -27h-846q-298 0 -451 114t-153 384zM350 512q0 -219 118 -306 t357 -87h136l208 1198h-131q-289 0 -448 -129t-219 -469q-21 -114 -21 -207z" />
<glyph unicode="&#x153;" horiz-adv-x="1923" d="M106 391q0 57 13 135q45 261 192 405t363 144q151 0 249 -71q100 -73 124 -199q147 270 430 270q176 0 272 -103t96 -272q0 -64 -10 -108l-14 -84q-6 -25 -31 -25h-741q-9 -68 -9 -80q0 -150 85 -236q85 -87 237 -87q151 0 280 65q26 13 33 -14l13 -55q6 -16 -17 -27 q-159 -74 -319 -74q-156 0 -262 74q-105 73 -132 205q-150 -274 -446 -274q-190 0 -297 107q-109 109 -109 304zM229 393q0 -150 74 -229q73 -78 211 -78q164 0 277 114q111 113 149 326q12 74 12 135q0 150 -73 229t-209 79q-165 0 -277 -114q-112 -113 -151 -329 q-13 -78 -13 -133zM1065 584h651l4 18q9 52 9 100q0 124 -64 197q-63 72 -192 72q-153 0 -261 -102t-147 -285z" />
<glyph unicode="&#x178;" horiz-adv-x="1280" d="M240 1407q-4 9 1 19t19 10h80q22 0 33 -23l213 -541l82 -225l161 225l406 541q18 23 39 23h86q30 0 12 -29l-657 -870l-90 -510q-1 -27 -29 -27h-76q-24 0 -22 27l90 510zM582 1573l24 137q6 27 29 27h86q26 0 20 -27l-24 -137q-6 -25 -31 -25h-84q-22 0 -20 25z M952 1573l25 137q6 27 29 27h84q26 0 20 -27l-25 -137q-2 -25 -28 -25h-86q-21 0 -19 25z" />
<glyph unicode="&#x2c6;" horiz-adv-x="677" d="M202 1207q-2 10 9 18l225 186q16 16 41 16h62q19 0 34 -16l160 -186q4 -5 4 -13q0 -5 -5 -10q-4 -4 -13 -4h-57q-16 0 -31 16l-135 134l-181 -134q-17 -16 -39 -16h-59q-13 0 -15 9z" />
<glyph unicode="&#x2dc;" horiz-adv-x="677" d="M180 1233q10 59 48 95t102 36q51 0 153 -41l45 -18q71 -31 103 -31q43 0 59 43l6 20q6 23 35 23h37q19 0 14 -31q-10 -59 -48 -95t-99 -36q-72 0 -156 39l-41 18q-69 29 -104 29q-43 0 -58 -35l-10 -24q-12 -23 -35 -23h-34q-22 0 -17 31z" />
<glyph unicode="&#x2000;" horiz-adv-x="943" />
<glyph unicode="&#x2001;" horiz-adv-x="1886" />
<glyph unicode="&#x2002;" horiz-adv-x="943" />
<glyph unicode="&#x2003;" horiz-adv-x="1886" />
<glyph unicode="&#x2004;" horiz-adv-x="628" />
<glyph unicode="&#x2005;" horiz-adv-x="471" />
<glyph unicode="&#x2006;" horiz-adv-x="314" />
<glyph unicode="&#x2007;" horiz-adv-x="314" />
<glyph unicode="&#x2008;" horiz-adv-x="235" />
<glyph unicode="&#x2009;" horiz-adv-x="377" />
<glyph unicode="&#x200a;" horiz-adv-x="104" />
<glyph unicode="&#x2010;" horiz-adv-x="798" d="M96 500l10 59q2 23 27 23h569q27 0 21 -23l-10 -59q-2 -23 -29 -23h-569q-25 0 -19 23z" />
<glyph unicode="&#x2011;" horiz-adv-x="798" d="M96 500l10 59q2 23 27 23h569q27 0 21 -23l-10 -59q-2 -23 -29 -23h-569q-25 0 -19 23z" />
<glyph unicode="&#x2012;" horiz-adv-x="798" d="M96 500l10 59q2 23 27 23h569q27 0 21 -23l-10 -59q-2 -23 -29 -23h-569q-25 0 -19 23z" />
<glyph unicode="&#x2013;" horiz-adv-x="1058" d="M98 500l11 59q6 23 28 23h824q22 0 20 -23l-10 -59q-6 -23 -29 -23h-825q-21 0 -19 23z" />
<glyph unicode="&#x2014;" horiz-adv-x="1560" d="M98 500l11 59q6 23 28 23h1325q25 0 23 -23l-12 -59q-2 -23 -29 -23h-1327q-21 0 -19 23z" />
<glyph unicode="&#x2018;" horiz-adv-x="411" d="M238 1065l22 133q1 14 10 33l107 196q13 19 29 19h30q21 0 13 -23l-84 -192h43q24 0 18 -27l-25 -139q-5 -25 -28 -25h-115q-26 0 -20 25z" />
<glyph unicode="&#x2019;" horiz-adv-x="411" d="M236 1055l81 192h-41q-22 0 -20 25l25 139q6 25 30 25h115q26 0 20 -25l-22 -131q-2 -19 -12 -35l-105 -196q-8 -19 -28 -19h-33q-18 0 -10 25z" />
<glyph unicode="&#x201a;" horiz-adv-x="411" d="M16 -193l82 193h-41q-25 0 -20 25l24 139q6 24 31 24h115q26 0 20 -24l-22 -131q-2 -19 -12 -35l-105 -197q-10 -18 -29 -18h-32q-19 0 -11 24z" />
<glyph unicode="&#x201c;" horiz-adv-x="718" d="M238 1065l22 133q1 14 10 33l107 196q13 19 29 19h30q21 0 13 -23l-87 -192h46q24 0 18 -27l-25 -139q-5 -25 -28 -25h-115q-26 0 -20 25zM543 1065l24 133q1 9 13 33l104 196q13 19 29 19h30q23 0 11 -23l-82 -192h41q26 0 20 -27l-24 -139q-5 -25 -29 -25h-117 q-22 0 -20 25z" />
<glyph unicode="&#x201d;" horiz-adv-x="718" d="M236 1057l83 194h-40q-27 0 -21 23l25 141q5 25 28 25h117q23 0 21 -25l-25 -133q-2 -18 -12 -33l-105 -196q-8 -19 -28 -19h-31q-20 0 -12 23zM543 1057l86 194h-45q-25 0 -19 23l25 141q5 25 28 25h117q24 0 19 -25l-23 -133q-1 -18 -12 -33l-105 -196q-8 -19 -28 -19 h-31q-20 0 -12 23z" />
<glyph unicode="&#x201e;" horiz-adv-x="718" d="M16 -195l84 195h-41q-26 0 -20 23l24 141q1 24 29 24h117q25 0 20 -24l-24 -133q-1 -18 -12 -33l-105 -197q-8 -18 -29 -18h-30q-20 0 -13 22zM324 -195l86 195h-45q-25 0 -19 23l25 141q1 24 28 24h117q20 0 19 -24l-23 -133q-2 -18 -12 -33l-105 -197q-7 -18 -28 -18 h-31q-19 0 -12 22z" />
<glyph unicode="&#x2022;" horiz-adv-x="737" d="M121 502q0 120 90 215q90 94 217 94q99 0 158 -58t59 -151q0 -123 -89 -218t-218 -95q-99 0 -158 59t-59 154z" />
<glyph unicode="&#x2026;" horiz-adv-x="1320" d="M63 25l25 141q2 24 29 24h108q25 0 21 -24l-25 -141q-6 -25 -26 -25h-111q-27 0 -21 25zM504 25l24 141q6 24 29 24h111q24 0 18 -24l-24 -141q-6 -25 -27 -25h-111q-26 0 -20 25zM944 25l25 141q6 24 28 24h111q24 0 18 -24l-24 -141q-6 -25 -27 -25h-110q-27 0 -21 25z " />
<glyph unicode="&#x202f;" horiz-adv-x="377" />
<glyph unicode="&#x2039;" horiz-adv-x="485" d="M94 543l2 6l4 8l217 272q17 21 37 21h64q14 0 17 -9q3 -10 -7 -20l-225 -278l127 -277q6 -10 0 -18t-21 -8h-61q-23 0 -29 18l-123 272q-2 8 -2 13z" />
<glyph unicode="&#x203a;" horiz-adv-x="485" d="M86 266l223 277l-125 278q-15 29 19 29h63q21 0 27 -21l123 -272q2 -8 2 -14l-6 -13l-219 -272q-17 -18 -35 -18h-62q-30 0 -10 26z" />
<glyph unicode="&#x205f;" horiz-adv-x="471" />
<glyph unicode="&#x20ac;" horiz-adv-x="1314" d="M68 545l10 49q1 22 26 22h150q7 38 14 103q12 67 23 98h-152q-24 0 -18 25l8 51q6 22 29 22h159q84 241 270 392q185 151 449 151q202 0 348 -84q18 -11 11 -28l-41 -62q-19 -25 -37 -14q-121 69 -279 69q-218 0 -369 -117q-155 -120 -223 -307h601q22 0 12 -26l-25 -47 q-16 -25 -39 -25h-575q-12 -38 -23 -98q-12 -93 -14 -103h475q24 0 12 -24l-24 -47q-16 -25 -39 -25h-428q0 -187 113 -306q112 -118 335 -118q160 0 308 74q23 8 30 -16l19 -64q2 -17 -19 -27q-166 -83 -354 -83q-273 0 -418 152q-146 153 -147 388h-160q-20 0 -18 25z" />
<glyph unicode="&#x2122;" horiz-adv-x="1386" d="M250 1374l8 45q2 17 21 17h401q16 0 14 -17l-10 -45q0 -18 -20 -18h-156l-98 -565q0 -17 -21 -17h-55q-15 0 -15 17l99 565h-156q-16 0 -12 18zM705 791l110 628q2 17 21 17h57q17 0 22 -13l154 -346l277 346q13 13 26 13h62q16 0 14 -17l-111 -628q-5 -17 -20 -17h-53 q-18 0 -13 17l90 509l-264 -325q-17 -12 -26 -12q-15 0 -19 12l-149 328l-90 -512q-5 -17 -21 -17h-53q-19 0 -14 17z" />
<glyph unicode="&#x25fc;" horiz-adv-x="1054" d="M0 0v1055h1055v-1055h-1055z" />
</font>
</defs>
</svg>
