<?xml version="1.0" standalone="no"?>
<!DOCTYPE svg PUBLIC "-//W3C//DTD SVG 1.1//EN" "http://www.w3.org/Graphics/SVG/1.1/DTD/svg11.dtd" >
<svg xmlns="http://www.w3.org/2000/svg" xmlns:xlink="http://www.w3.org/1999/xlink" version="1.1">
<metadata></metadata>
<defs>
<font id="amsipronarw-bolduploaded_file" horiz-adv-x="1107" >
<font-face units-per-em="2048" ascent="1753" descent="-295" />
<missing-glyph horiz-adv-x="483" />
<glyph unicode="&#xfb01;" horiz-adv-x="1097" d="M35 901v125q0 24 9 35q9 10 34 10h88v86q0 158 67 229q67 72 211 72q82 0 138 -18q36 -10 36 -45v-99q0 -43 -43 -43q-7 0 -31 3q-32 4 -36 4q-50 0 -72 -27q-22 -26 -22 -94v-68h524q45 0 45 -45v-981q0 -45 -45 -45h-164q-45 0 -45 45v813h-313v-815q0 -43 -45 -43 h-158q-47 0 -47 43v815h-88q-43 0 -43 43zM729 1251v148q0 43 45 43h162q47 0 47 -43v-148q0 -43 -47 -43h-162q-45 0 -45 43z" />
<glyph unicode="&#xfb02;" horiz-adv-x="1097" d="M35 901v125q0 45 43 45h88v49q0 183 95 263q94 79 337 79q202 0 340 -41q45 -15 45 -53v-1323q0 -45 -43 -45h-164q-45 0 -45 45v1204q-58 11 -135 11q-100 0 -141 -33t-41 -109v-47h121q45 0 45 -45v-123q0 -45 -45 -45h-119v-815q0 -43 -45 -43h-158q-47 0 -47 43v815 h-88q-43 0 -43 43z" />
<glyph unicode="&#xfb03;" horiz-adv-x="1660" d="M35 901v125q0 45 43 45h88v90q0 158 68 227q69 70 215 70q73 0 129 -18q36 -14 36 -45v-99q0 -21 -9 -33t-30 -10q-17 2 -33.5 3.5t-24 2.5t-9.5 1q-47 0 -70 -27q-22 -26 -22 -90v-72h315v90q0 157 69 227t214 70q73 0 133 -18q37 -15 37 -45v-99q0 -22 -10 -33t-31 -10 q-17 2 -34 3.5t-24.5 2.5t-9.5 1q-49 0 -71 -27q-23 -28 -23 -90v-72h520q45 0 45 -45v-981q0 -45 -45 -45h-162q-45 0 -45 45v813h-313v-815q0 -43 -45 -43h-160q-45 0 -45 43v815h-315v-815q0 -43 -45 -43h-158q-47 0 -47 43v815h-88q-43 0 -43 43zM1294 1251v148 q0 43 45 43h164q43 0 43 -43v-148q0 -43 -43 -43h-164q-45 0 -45 43z" />
<glyph unicode="&#xfb04;" horiz-adv-x="1662" d="M35 901v125q0 45 43 45h88v90q0 158 68 227q69 70 215 70q69 0 129 -18q36 -14 36 -45v-99q0 -21 -9 -33t-30 -10q-17 2 -33.5 3.5t-24 2.5t-9.5 1q-47 0 -70 -27q-22 -26 -22 -90v-72h315v49q0 184 96 263q95 79 338 79q200 0 338 -41q27 -7 36 -18t9 -35v-1323 q0 -45 -45 -45h-162q-45 0 -45 45v1204q-60 11 -135 11q-99 0 -140 -33q-40 -33 -40 -109v-47h119q45 0 45 -45v-123q0 -45 -45 -45h-119v-815q0 -43 -45 -43h-160q-45 0 -45 43v815h-315v-815q0 -43 -45 -43h-158q-47 0 -47 43v815h-88q-43 0 -43 43z" />
<glyph horiz-adv-x="0" />
<glyph unicode="&#xd;" horiz-adv-x="681" />
<glyph unicode=" "  horiz-adv-x="483" />
<glyph unicode="&#x09;" horiz-adv-x="483" />
<glyph unicode="&#xa0;" horiz-adv-x="483" />
<glyph unicode="!" horiz-adv-x="548" d="M127 1395q-2 47 45 47h205q49 0 47 -47l-43 -916q-5 -45 -47 -45h-117q-43 0 -47 45zM137 47v193q0 45 47 45h181q47 0 47 -45v-193q0 -47 -45 -47h-183q-47 0 -47 47z" />
<glyph unicode="&#x22;" horiz-adv-x="718" d="M90 1397q0 48 25 70t84 22q57 0 82 -22q24 -21 24 -70q0 -64 -10 -123l-49 -342h-94l-52 342q-10 59 -10 123zM414 1397q0 49 24 70q25 22 84 22q57 0 82 -22t25 -70q0 -59 -11 -123l-49 -342h-96l-49 342q-10 87 -10 123z" />
<glyph unicode="#" horiz-adv-x="1165" d="M31 440v66q0 47 45 47h164l88 334h-123q-43 0 -43 45v67q0 45 43 45h166l100 381q12 43 53 31l78 -20q45 -12 33 -56l-90 -336h248l102 381q12 43 53 31l78 -20q43 -12 31 -56l-88 -336h121q45 0 45 -45v-67q0 -45 -45 -45h-164l-90 -334h122q46 0 46 -47v-66 q0 -45 -46 -45h-163l-99 -377q-12 -44 -55 -32l-76 22q-45 12 -33 53l89 334h-250l-99 -377q-12 -44 -55 -32l-76 22q-44 12 -32 53l88 334h-121q-45 0 -45 45zM412 553h252l86 334h-248z" />
<glyph unicode="$" horiz-adv-x="1034" d="M80 100l31 131q11 47 61 31q136 -47 258 -47q264 0 264 174q0 72 -52 117q-50 43 -167 106q-18 8 -33 17q-94 49 -135 74q-46 28 -109 85q-59 53 -86 125q-28 75 -28 164q0 340 360 379v139q0 41 45 41h78q43 0 43 -41v-135q149 -6 258 -47q46 -18 35 -59l-31 -129 q-12 -48 -61 -33q-105 37 -229 37q-228 0 -228 -158q0 -51 41 -98q43 -50 81 -72q63 -37 124 -70q100 -54 144 -82q49 -31 110 -86q59 -53 85 -121q26 -67 26 -155q0 -333 -349 -393v-146q0 -43 -43 -43h-77q-45 0 -45 43v136q-203 2 -332 57q-50 18 -39 59z" />
<glyph unicode="%" horiz-adv-x="1710" d="M61 1034q0 207 82 314q83 108 236 108q155 0 237 -108q82 -107 82 -314q0 -206 -82 -313q-83 -109 -237 -109q-153 0 -236 109q-82 107 -82 313zM258 1034q0 -250 121 -250q63 0 93 59t30 191q0 252 -123 252q-121 0 -121 -252zM395 45l719 1360q18 37 60 37h118 q45 0 23 -43l-721 -1362q-21 -37 -57 -37h-119q-46 0 -23 45zM1010 408q0 204 83 314q82 109 236 109q155 0 237 -109q83 -110 83 -314q0 -203 -83 -312q-82 -108 -237 -108q-153 0 -236 108q-83 109 -83 312zM1208 408q0 -250 121 -250q123 0 123 250q0 251 -123 251 q-121 0 -121 -251z" />
<glyph unicode="&#x26;" horiz-adv-x="1308" d="M74 430q0 160 81 271q82 113 222 159l-33 47q-96 135 -96 262q0 136 92 216q91 79 291 79q123 0 221 -37q49 -16 41 -57l-21 -102q-10 -50 -63 -33q-64 20 -143 20q-179 0 -179 -112q0 -73 86 -182l394 -521q30 80 30 162q0 22 -8 62t-8 53q0 39 43 39h133q31 0 43 -39 q10 -54 10 -125q0 -192 -98 -338l162 -207q14 -17 8 -33q-6 -14 -27 -14h-186q-30 0 -47 20l-64 82q-140 -118 -368 -118q-234 0 -375 114t-141 332zM336 446q0 -108 73 -175q72 -66 205 -66q138 0 211 67l-321 422q-168 -68 -168 -248z" />
<glyph unicode="'" horiz-adv-x="395" d="M90 1397q0 48 25 70t84 22q57 0 82 -22q24 -21 24 -70q0 -64 -10 -123l-49 -342h-94l-52 342q-10 59 -10 123z" />
<glyph unicode="(" horiz-adv-x="657" d="M119 610q0 234 81 449q81 214 206 377q22 26 53 26h119q22 0 28 -16q6 -17 -4 -31q-104 -161 -166 -374q-63 -215 -63 -431q0 -215 64 -423t165 -377q10 -16 4 -33t-28 -17h-119q-31 0 -53 25q-125 163 -206 377t-81 448z" />
<glyph unicode=")" horiz-adv-x="657" d="M52 -223q-5 18 5 33q101 170 165 378q65 213 65 422q0 213 -64 431q-62 213 -166 374q-10 14 -5 31q4 16 28 16h121q31 0 53 -26q125 -160 205 -375q80 -216 80 -451q0 -232 -80 -448q-79 -213 -205 -377q-22 -25 -53 -25h-121q-23 0 -28 17z" />
<glyph unicode="*" horiz-adv-x="798" d="M76 991q6 22 43 43q23 12 93 36q77 26 103 38q-27 10 -99 36q-76 27 -97 40q-66 39 -29 102q39 66 105 31q20 -13 79 -65q55 -49 82 -70q-9 60 -18 105q-14 70 -14 102q0 41 16 58t59 17q44 0 60 -17t16 -58q0 -32 -14 -102q-13 -65 -19 -105q20 13 83 68q59 51 81 65 q64 38 103 -29q21 -38 13 -61q-7 -22 -42 -43q-19 -13 -95 -38t-100 -36q27 -13 102 -39q65 -22 93 -37q37 -21 43 -42q6 -22 -14 -60q-39 -67 -103 -29q-26 16 -82 65q-54 47 -80 66q1 -23 18 -106q15 -74 15 -101q0 -39 -16 -56t-60 -17q-45 0 -61 17t-16 56q0 27 15 101 q16 77 17 106q-6 -5 -16 -13.5t-29 -24.5t-33 -28q-59 -50 -83 -65q-64 -40 -105 29q-20 38 -14 61z" />
<glyph unicode="+" d="M96 653v123q0 43 45 43h295v324q0 45 45 45h146q43 0 43 -45v-324h297q45 0 45 -43v-123q0 -43 -45 -43h-297v-331q0 -46 -43 -46h-146q-45 0 -45 46v331h-297q-43 0 -43 43z" />
<glyph unicode="," horiz-adv-x="454" d="M96 47v186q0 46 47 46h168q47 0 47 -46v-170q0 -31 -10 -57l-94 -211q-12 -26 -41 -26h-61q-38 0 -23 41l61 190h-49q-45 0 -45 47z" />
<glyph unicode="-" horiz-adv-x="688" d="M72 506v123q0 43 43 43h456q45 0 45 -43v-123q0 -43 -45 -43h-456q-43 0 -43 43z" />
<glyph unicode="." horiz-adv-x="454" d="M96 47v186q0 46 47 46h168q47 0 47 -46v-186q0 -47 -45 -47h-172q-45 0 -45 47z" />
<glyph unicode="/" horiz-adv-x="792" d="M18 53l508 1348q17 41 60 41h151q58 0 37 -53l-508 -1348q-17 -41 -57 -41h-154q-58 0 -37 53z" />
<glyph unicode="0" horiz-adv-x="1196" d="M90 721q0 743 508 743q506 0 506 -741t-506 -741q-508 0 -508 739zM360 721q0 -267 59 -387q59 -119 179 -119t179 119q59 120 59 387q0 269 -59 389q-59 119 -179 119t-179 -119q-59 -120 -59 -389z" />
<glyph unicode="1" horiz-adv-x="874" d="M59 1096q-24 27 7 51l331 276q25 19 64 19h172q49 0 49 -47v-1346q0 -49 -49 -49h-170q-47 0 -47 49v1100l-211 -162q-28 -21 -53 4z" />
<glyph unicode="2" horiz-adv-x="1099" d="M86 47v109q0 36 35 59q115 83 203 161q101 90 192 191q95 105 153 226q56 116 56 229q0 215 -195 215q-100 0 -146 -52t-46 -132q0 -27 4 -56t4 -45q0 -39 -43 -39h-156q-34 0 -45 52q-8 42 -8 98q0 180 113 291q111 110 330 110q239 0 347 -117q109 -118 109 -307 q0 -119 -50 -245t-134 -231q-82 -103 -167 -186q-85 -84 -173 -151h489q48 0 48 -47v-133q0 -47 -48 -47h-825q-47 0 -47 47z" />
<glyph unicode="3" horiz-adv-x="1032" d="M51 96l31 133q7 43 55 31q159 -51 285 -51q134 0 196 55q64 56 64 174q0 201 -221 201h-129q-47 0 -47 45v125q0 45 47 45h119q202 0 202 197q0 186 -221 186q-130 0 -276 -49q-46 -15 -54 29l-30 126q-11 38 32 56q160 65 361 65q204 0 326 -91t122 -279 q0 -247 -182 -320q215 -69 215 -348q0 -444 -495 -444q-217 0 -367 63q-40 17 -33 51z" />
<glyph unicode="4" horiz-adv-x="1163" d="M61 352v129q0 31 19 60l582 870q22 31 57 31h178q47 0 47 -47v-871h141q45 0 45 -47v-125q0 -47 -45 -47h-141v-256q0 -49 -47 -49h-168q-47 0 -47 49v256h-576q-45 0 -45 47zM291 524h391v592z" />
<glyph unicode="5" horiz-adv-x="1056" d="M59 102l31 129q7 43 55 31q168 -53 285 -53q144 0 211 63q68 63 68 197q0 117 -55 177q-54 59 -181 59q-80 0 -162 -22q-78 -21 -90 -21t-33 6l-63 24q-22 10 -21 47q28 306 35 656q0 47 47 47h664q47 0 47 -45v-135q0 -45 -47 -45h-492q-7 -198 -20 -336q85 30 201 30 q434 0 434 -440q0 -489 -520 -489q-221 0 -361 63q-43 21 -33 57z" />
<glyph unicode="6" horiz-adv-x="1140" d="M90 682q0 395 128 589q127 193 425 193q154 0 252 -43q45 -16 39 -49l-25 -131q-8 -44 -55 -33q-112 33 -190 33q-166 0 -238 -103q-71 -103 -82 -323q89 146 307 146q208 0 310 -131q102 -130 102 -338q0 -233 -122 -372q-121 -138 -337 -138q-514 0 -514 700zM369 487 q0 -111 58 -196q59 -86 171 -86q107 0 162 76t55 208q0 119 -53 192t-166 73q-227 0 -227 -267z" />
<glyph unicode="7" horiz-adv-x="1013" d="M61 1264v131q0 47 50 47h788q47 0 47 -47v-119q0 -30 -31 -72q-157 -234 -274 -553q-116 -317 -121 -604q0 -47 -49 -47h-178q-52 0 -47 47q27 303 149 635q123 335 271 535h-555q-50 0 -50 47z" />
<glyph unicode="8" horiz-adv-x="1134" d="M82 373q0 284 274 375q-245 100 -245 346q0 176 118 273t338 97t338 -96q119 -96 119 -274q0 -245 -244 -346q275 -95 275 -375q0 -183 -125 -288q-124 -105 -363 -105q-237 0 -361 105t-124 288zM344 393q0 -95 56 -147q58 -53 167 -53t167 53q57 52 57 147 q0 186 -224 260q-223 -73 -223 -260zM367 1087q0 -93 50 -151q49 -57 150 -96q102 40 151 96q50 58 50 151q0 175 -201 175q-200 0 -200 -175z" />
<glyph unicode="9" horiz-adv-x="1140" d="M78 950q0 235 122 374q122 138 337 138q512 0 512 -704q0 -393 -125 -586q-124 -192 -420 -192q-155 0 -256 40q-43 16 -35 54l25 129q6 41 53 30q109 -32 190 -32q163 0 236 98q74 99 84 315q-85 -133 -312 -133q-207 0 -309 130q-102 131 -102 339zM326 954 q0 -120 53 -193t166 -73q227 0 227 266q0 118 -57 201q-57 82 -172 82q-107 0 -162 -76t-55 -207z" />
<glyph unicode=":" horiz-adv-x="518" d="M129 47v186q0 46 45 46h168q47 0 47 -46v-186q0 -47 -45 -47h-170q-45 0 -45 47zM129 864v187q0 47 45 47h168q47 0 47 -47v-187q0 -45 -45 -45h-170q-45 0 -45 45z" />
<glyph unicode=";" horiz-adv-x="518" d="M129 47v186q0 46 45 46h168q47 0 47 -46v-170q0 -31 -10 -57l-94 -211q-12 -26 -41 -26h-60q-35 0 -24 41l63 190h-49q-45 0 -45 47zM129 864v187q0 47 47 47h166q47 0 47 -47v-187q0 -45 -45 -45h-170q-45 0 -45 45z" />
<glyph unicode="&#x3c;" d="M119 713q0 24 20 41l647 563q36 31 66 -2l88 -98q31 -35 -4 -64l-514 -440l514 -441q30 -29 4 -61l-88 -102q-29 -33 -64 -3l-649 566q-20 17 -20 41z" />
<glyph unicode="=" d="M125 444v117q0 43 45 43h768q45 0 45 -43v-117q0 -43 -45 -43h-770q-43 0 -43 43zM125 868v117q0 45 45 45h768q45 0 45 -45v-117q0 -43 -45 -43h-770q-43 0 -43 43z" />
<glyph unicode="&#x3e;" d="M170 211q-28 34 2 61l516 441l-516 440q-31 29 -2 64l84 98q30 33 61 4l654 -565q22 -21 22 -41t-22 -41l-654 -566q-33 -28 -61 3z" />
<glyph unicode="?" horiz-adv-x="929" d="M61 1350q-6 33 33 51q150 63 330 63q206 0 313 -90t107 -258q0 -85 -28 -166q-28 -80 -67 -131q-55 -71 -80 -100q-42 -48 -68 -96q-28 -51 -28 -95v-49q0 -45 -45 -45h-145q-47 0 -47 47v49q0 65 38 138t84 125q45 51 84 130q38 78 38 150q0 160 -197 160 q-95 0 -236 -45q-44 -15 -55 26zM313 47v193q0 45 47 45h181q47 0 47 -45v-193q0 -47 -47 -47h-183q-45 0 -45 47z" />
<glyph unicode="@" horiz-adv-x="1751" d="M115 432q0 374 219 591q220 218 592 218q362 0 538 -164t176 -450q0 -257 -112 -408t-311 -151h-115q-47 0 -53 34l-15 103q-83 -142 -250 -142q-142 0 -227 94q-84 93 -84 257q0 230 122 384q121 152 376 152q159 0 278 -57q33 -15 29 -43l-90 -643h39q266 0 266 422 q0 236 -134 358q-133 121 -435 121q-309 0 -484 -178q-176 -179 -176 -498q0 -281 155 -406q154 -124 484 -124q185 0 369 49q27 6 33 -25l12 -65q5 -25 -23 -31q-176 -59 -391 -59q-390 0 -589 157t-199 504zM690 432q0 -190 137 -190q157 0 191 229l41 289q-41 14 -101 14 q-136 0 -202 -96t-66 -246z" />
<glyph unicode="A" horiz-adv-x="1193" d="M41 53l375 1342q12 47 63 47h236q51 0 63 -47l375 -1342q6 -23 -4 -38q-11 -15 -35 -15h-180q-43 0 -55 45l-74 272h-416l-72 -272q-12 -45 -55 -45h-182q-22 0 -34 15q-11 14 -5 38zM438 551h316l-154 623h-4z" />
<glyph unicode="B" horiz-adv-x="1198" d="M121 49v1346q0 47 49 47h432q243 0 362 -86q117 -84 117 -285q0 -238 -178 -307q96 -29 157 -115q60 -85 60 -231q0 -220 -127 -319q-128 -99 -372 -99h-451q-49 0 -49 49zM387 227h215q138 0 195 45t57 160q0 111 -55 157t-191 46h-221v-408zM387 848h207q121 0 173 45 t52 145q0 98 -51 139q-50 40 -174 40h-207v-369z" />
<glyph unicode="C" horiz-adv-x="1054" d="M86 723q0 394 139 567q139 174 424 174q175 0 289 -57q39 -19 39 -47q0 -6 -2 -12l-33 -127q-9 -35 -40 -35q-10 0 -23 4q-83 33 -185 33q-179 0 -258 -112q-78 -111 -78 -388q0 -280 79 -390q80 -112 265 -112q99 0 189 37q12 4 22 4q30 0 39 -37l37 -127q2 -6 2 -12 q0 -29 -41 -47q-131 -59 -293 -59q-289 0 -430 174t-141 569z" />
<glyph unicode="D" horiz-adv-x="1198" d="M121 49v1346q0 47 49 47h342q309 0 458 -161q148 -160 148 -546q0 -404 -146 -569q-147 -166 -456 -166h-346q-49 0 -49 49zM391 242h119q176 0 255 104t79 389q0 267 -81 366t-257 99h-115v-958z" />
<glyph unicode="E" horiz-adv-x="989" d="M121 49v1346q0 47 49 47h686q47 0 47 -47v-142q0 -49 -47 -49h-469v-354h447q47 0 47 -49v-131q0 -49 -47 -49h-447v-383h475q49 0 49 -48v-141q0 -49 -49 -49h-692q-49 0 -49 49z" />
<glyph unicode="F" horiz-adv-x="960" d="M121 49v1346q0 47 51 47h678q47 0 47 -45v-144q0 -49 -47 -49h-461v-381h442q50 0 50 -49v-137q0 -47 -50 -47h-442v-541q0 -49 -49 -49h-168q-51 0 -51 49z" />
<glyph unicode="G" horiz-adv-x="1202" d="M86 723q0 399 150 570t466 171q168 0 314 -63q41 -19 41 -47q0 -6 -2 -13l-33 -127q-9 -35 -39 -35q-12 0 -27 5q-123 39 -221 39q-211 0 -294 -109t-83 -391t80 -394t267 -112q74 0 143 25v403h-172q-49 0 -49 47v123q0 47 49 47h371q49 0 49 -47v-684q0 -50 -45 -74 q-127 -77 -373 -77q-302 0 -447 171q-145 170 -145 572z" />
<glyph unicode="H" horiz-adv-x="1218" d="M121 49v1346q0 47 49 47h172q49 0 49 -47v-537h436v537q0 47 50 47h172q47 0 47 -47v-1346q0 -49 -47 -49h-172q-50 0 -50 49v563h-436v-563q0 -49 -49 -49h-172q-49 0 -49 49z" />
<glyph unicode="I" horiz-adv-x="534" d="M133 49v1346q0 47 47 47h174q47 0 47 -47v-1346q0 -49 -47 -49h-174q-47 0 -47 49z" />
<glyph unicode="J" horiz-adv-x="821" d="M39 92l31 133q8 37 35 37q8 0 18 -4q87 -31 151 -31q82 0 124 51q40 49 40 164v953q0 47 47 47h174q48 0 48 -47v-983q0 -224 -97 -327q-95 -101 -295 -101q-144 0 -237 43q-41 18 -41 51q0 7 2 14z" />
<glyph unicode="K" horiz-adv-x="1120" d="M121 49v1346q0 47 49 47h172q49 0 49 -47v-500l377 508q28 39 68 39h200q26 0 36 -19q9 -18 -7 -39l-459 -608l471 -717q16 -22 7 -41q-9 -18 -35 -18h-205q-42 0 -66 45l-387 594v-590q0 -49 -49 -49h-172q-49 0 -49 49z" />
<glyph unicode="L" horiz-adv-x="937" d="M121 49v1346q0 47 49 47h172q49 0 49 -47v-1149h430q49 0 49 -47v-150q0 -49 -49 -49h-651q-49 0 -49 49z" />
<glyph unicode="M" horiz-adv-x="1425" d="M121 49v1346q0 47 49 47h162q40 0 57 -31l324 -643l323 643q17 31 60 31h159q50 0 50 -47v-1346q0 -49 -50 -49h-168q-47 0 -47 49v909l-282 -563q-12 -28 -45 -28t-45 28l-283 563v-909q0 -49 -47 -49h-168q-49 0 -49 49z" />
<glyph unicode="N" horiz-adv-x="1234" d="M121 49v1346q0 47 49 47h164q44 0 61 -35l457 -909v897q0 47 47 47h166q49 0 49 -45v-1348q0 -49 -49 -49h-164q-45 0 -61 37l-457 907v-895q0 -49 -47 -49h-166q-49 0 -49 49z" />
<glyph unicode="O" horiz-adv-x="1245" d="M84 721q0 393 136 568t403 175q266 0 402 -175t136 -568q0 -391 -135 -566t-403 -175q-269 0 -404 175t-135 566zM358 721q0 -273 64 -389q64 -115 201 -115q136 0 200 115q64 116 64 389t-64 390q-63 116 -200 116q-138 0 -201 -116q-64 -117 -64 -390z" />
<glyph unicode="P" horiz-adv-x="1148" d="M121 49v1346q0 47 49 47h365q277 0 404 -116q126 -116 126 -396t-126 -396q-127 -116 -404 -116h-146v-369q0 -49 -47 -49h-172q-49 0 -49 49zM389 655h143q146 0 203 59q58 60 58 216q0 154 -58 215q-56 59 -203 59h-143v-549z" />
<glyph unicode="Q" horiz-adv-x="1243" d="M84 727q0 389 135 563t404 174q267 0 403 -175q135 -174 135 -556v-6q-1 -277 -86 -448q-84 -170 -237 -230q66 -26 147 -26q9 0 39 2t31 2h2q41 0 41 -37v-121q0 -51 -64 -51q-270 0 -475 178q-238 18 -356 192q-119 175 -119 539zM358 727q0 -271 64 -387 q64 -115 201 -115q136 0 200 115q64 116 64 387q0 267 -64 384q-63 116 -202 116q-137 0 -200 -116q-63 -115 -63 -384z" />
<glyph unicode="R" horiz-adv-x="1155" d="M121 49v1346q0 47 49 47h381q274 0 400 -112q124 -111 124 -376q0 -362 -289 -438l277 -457q15 -22 7 -41q-8 -18 -36 -18h-184q-44 0 -68 39l-260 438h-133v-428q0 -49 -47 -49h-172q-49 0 -49 49zM389 707h160q144 0 199 56t55 191q0 142 -57 196t-199 54h-158v-497z " />
<glyph unicode="S" horiz-adv-x="1001" d="M72 94l30 131q8 39 37 39q11 0 25 -6q116 -43 250 -43q248 0 248 168q0 75 -54 126q-56 53 -180 120q-82 42 -131 75q-53 36 -104 87q-54 54 -80 124q-27 72 -27 162q0 194 112 291q111 96 345 96q165 0 297 -49q41 -15 41 -44q0 -6 -2 -13l-31 -129q-8 -37 -39 -37 q-10 0 -23 4q-99 33 -217 33q-111 0 -160 -37q-51 -39 -51 -119q0 -73 56 -126q53 -50 168 -113q94 -52 140 -84q48 -33 105 -87q58 -55 82 -124q25 -72 25 -160q0 -200 -130 -299q-129 -98 -349 -98q-216 0 -342 53q-42 18 -42 50q0 4 1 9z" />
<glyph unicode="T" horiz-adv-x="970" d="M47 1247v148q0 47 49 47h778q50 0 50 -47v-148q0 -49 -50 -49h-253v-1149q0 -49 -50 -49h-172q-49 0 -49 49v1149h-254q-49 0 -49 49z" />
<glyph unicode="U" horiz-adv-x="1198" d="M115 469v926q0 47 47 47h172q49 0 49 -47v-897q0 -141 50 -208t167 -67q116 0 166 66q49 65 49 207v899q0 47 47 47h174q47 0 47 -47v-926q0 -251 -118 -370t-365 -119q-249 0 -367 119t-118 370z" />
<glyph unicode="V" horiz-adv-x="1179" d="M47 1389q-3 12 -3 21q0 32 42 32h188q42 0 54 -45l194 -799l64 -317h6l63 317l195 799q12 45 55 45h189q38 0 38 -34q0 -8 -2 -19l-358 -1338q-15 -51 -63 -51h-240q-46 0 -61 51z" />
<glyph unicode="W" horiz-adv-x="1832" d="M57 1389q-2 10 -2 19q0 34 39 34h187q41 0 53 -45l149 -723l64 -350h6l70 352l153 721q6 45 58 45h165q48 0 60 -45l151 -721l70 -352h6l66 350l147 723q7 45 55 45h185q41 0 41 -36q0 -8 -2 -17l-308 -1338q-12 -51 -61 -51h-219q-50 0 -62 51l-143 617l-67 336h-5 l-67 -336l-139 -617q-12 -51 -64 -51h-217q-49 0 -64 51z" />
<glyph unicode="X" horiz-adv-x="1142" d="M48 18q-9 18 3 39l369 672l-361 657q-11 20 -4 38t33 18h191q44 0 65 -41l229 -445l226 445q23 41 65 41h191q25 0 34 -19q9 -18 -4 -37l-362 -655l371 -674q12 -21 3 -39t-34 -18h-186q-46 0 -68 43l-238 459l-237 -459q-22 -43 -66 -43h-186q-25 0 -34 18z" />
<glyph unicode="Y" horiz-adv-x="1155" d="M44 1423q10 19 36 19h184q46 0 62 -43l178 -424l71 -205h3l73 205l178 424q16 43 62 43h184q27 0 36 -19t-1 -39l-397 -845v-490q0 -49 -49 -49h-175q-47 0 -47 49v490l-397 845q-10 20 -1 39z" />
<glyph unicode="Z" horiz-adv-x="1052" d="M84 49v141q0 38 25 74l538 934h-495q-48 0 -48 49v148q0 47 48 47h753q47 0 47 -47v-142q0 -36 -24 -75l-535 -934h525q47 0 47 -47v-148q0 -49 -47 -49h-785q-49 0 -49 49z" />
<glyph unicode="[" horiz-adv-x="657" d="M164 -180v1579q0 43 45 43h336q43 0 43 -43v-109q0 -45 -43 -45h-142v-1274h142q43 0 43 -43v-108q0 -45 -43 -45h-336q-45 0 -45 45z" />
<glyph unicode="\" horiz-adv-x="792" d="M18 1389q-21 53 37 53h154q40 0 57 -41l508 -1348q18 -53 -37 -53h-151q-43 0 -60 41z" />
<glyph unicode="]" horiz-adv-x="661" d="M72 -72q0 43 45 43h141v1274h-141q-45 0 -45 45v109q0 43 45 43h334q45 0 45 -43v-1579q0 -45 -45 -45h-334q-45 0 -45 45v108z" />
<glyph unicode="^" d="M99 724q-9 15 3 40l322 641q16 37 59 37h142q41 0 59 -37l322 -641q12 -25 3 -40t-36 -15h-148q-38 0 -59 39l-213 438l-211 -438q-21 -39 -59 -39h-150q-25 0 -34 15z" />
<glyph unicode="_" horiz-adv-x="935" d="M35 -121q0 45 45 45h776q45 0 45 -45v-59q0 -45 -45 -45h-776q-45 0 -45 45v59z" />
<glyph unicode="`" horiz-adv-x="632" d="M120 1430q4 16 27 16h197q39 0 51 -33l80 -168q15 -37 -26 -37h-101q-34 0 -59 25l-160 164q-14 15 -9 33z" />
<glyph unicode="a" horiz-adv-x="997" d="M59 305q0 87 29 154q27 63 77 105q49 42 127 65q82 25 162 35q82 10 197 12v67q0 86 -43 125q-44 39 -143 39q-114 0 -258 -51q-10 -4 -19 -4q-26 0 -34 35l-23 119q-1 6 -1 11q0 28 32 42q134 57 336 57q208 0 302 -87q95 -87 95 -267v-717q0 -45 -45 -45h-135 q-43 0 -47 39l-6 94q-86 -147 -300 -147q-141 0 -222 83t-81 236zM301 319q0 -149 139 -149q103 0 157 64t54 165v117q-182 -6 -266 -45t-84 -152z" />
<glyph unicode="b" horiz-adv-x="1110" d="M113 45v1354q0 43 45 43h164q45 0 45 -43v-426q32 64 109 105q76 40 171 40q389 0 389 -569q0 -567 -391 -567q-95 0 -174 41q-78 40 -111 110l-6 -94q-4 -39 -47 -39h-149q-45 0 -45 45zM365 549q0 -356 213 -356q104 0 152 82q48 83 48 274t-48 273q-48 83 -152 83 q-213 0 -213 -356z" />
<glyph unicode="c" horiz-adv-x="868" d="M74 551q0 287 117 426q119 141 339 141q152 0 242 -45q35 -17 35 -44q0 -6 -2 -13l-33 -119q-8 -29 -35 -29q-11 0 -24 4q-77 25 -144 25q-123 0 -180 -81t-57 -265q0 -185 57 -267q57 -83 176 -83q76 0 160 30q13 5 23 5q25 0 32 -29l31 -121q1 -5 1 -10q0 -27 -34 -45 q-94 -49 -235 -49q-469 0 -469 569z" />
<glyph unicode="d" horiz-adv-x="1110" d="M76 549q0 569 389 569q95 0 171 -40q78 -41 107 -105v426q0 43 48 43h161q45 0 45 -43v-1354q0 -45 -45 -45h-149q-43 0 -47 39l-4 94q-33 -70 -112 -110q-80 -41 -177 -41q-387 0 -387 567zM332 549q0 -192 49 -274t154 -82q213 0 213 356t-213 356q-104 0 -154 -83 q-49 -82 -49 -273z" />
<glyph unicode="e" horiz-adv-x="1009" d="M74 549q0 286 113 427q114 142 331 142q208 0 313 -134q105 -133 105 -378v-110q0 -47 -47 -47h-565q23 -269 276 -269q113 0 213 41q13 5 23 5q27 0 36 -36l23 -100q1 -5 1 -10q0 -30 -36 -47q-130 -53 -280 -53q-506 0 -506 569zM319 621h383v16q0 285 -182 285 q-96 0 -144 -72q-50 -74 -57 -229z" />
<glyph unicode="f" horiz-adv-x="657" d="M35 901v125q0 45 43 45h88v80q0 165 70 237q69 70 223 70q83 0 135 -18q34 -11 35 -45v-105q0 -22 -9 -34q-8 -11 -32 -9q-33 4 -70 4q-58 0 -80 -26t-22 -97v-57h166q43 0 43 -45v-123q0 -45 -43 -45h-166v-815q0 -43 -45 -43h-158q-47 0 -47 43v815h-88q-43 0 -43 43z " />
<glyph unicode="g" horiz-adv-x="1060" d="M76 612q0 504 366 504q92 0 164 -42t105 -105l6 90q5 39 47 39h143q43 0 43 -45v-897q0 -402 -454 -402q-207 0 -312 49q-33 13 -33 42q0 6 1 12l22 110q8 35 35 35q9 0 20 -4q125 -41 244 -41q236 0 236 211v88q-29 -65 -101 -104q-68 -37 -162 -37q-370 0 -370 497z M330 612q0 -305 184 -305q92 0 141 79q50 80 50 230q0 302 -191 302q-184 0 -184 -306z" />
<glyph unicode="h" horiz-adv-x="1069" d="M113 45v1354q0 43 45 43h164q45 0 45 -43v-424q82 143 282 143q160 0 239 -97t79 -273v-703q0 -45 -45 -45h-164q-43 0 -43 45v653q0 96 -35 145q-35 48 -119 48q-95 0 -145 -65q-49 -64 -49 -175v-606q0 -45 -45 -45h-164q-45 0 -45 45z" />
<glyph unicode="i" horiz-adv-x="481" d="M113 1257v136q0 45 43 45h170q43 0 43 -45v-136q0 -47 -43 -47h-170q-43 0 -43 47zM115 45v1008q0 45 45 45h162q45 0 45 -45v-1008q0 -45 -45 -45h-162q-45 0 -45 45z" />
<glyph unicode="j" horiz-adv-x="514" d="M-25 -53q0 40 33 40q4 0 8 -1q33 -4 58 -4q39 0 56 23t17 87v961q0 45 46 45h163q43 0 43 -45v-996q0 -162 -59 -227q-60 -66 -205 -66q-74 0 -123 13q-37 10 -37 45v125zM145 1257v136q0 45 43 45h170q45 0 45 -45v-136q0 -47 -45 -47h-170q-43 0 -43 47z" />
<glyph unicode="k" horiz-adv-x="964" d="M113 45v1354q0 43 45 43h164q45 0 45 -43v-668l276 336q25 31 66 31h190q27 0 33 -20q6 -19 -12 -40l-369 -430l387 -553q14 -19 6 -38q-7 -17 -33 -17h-192q-44 0 -66 37l-286 428v-420q0 -45 -45 -45h-164q-45 0 -45 45z" />
<glyph unicode="l" horiz-adv-x="481" d="M115 45v1354q0 43 45 43h162q45 0 45 -43v-1354q0 -45 -45 -45h-162q-45 0 -45 45z" />
<glyph unicode="m" horiz-adv-x="1595" d="M109 45v1008q0 45 45 45h149q45 0 49 -39l6 -90q33 61 102 105q70 44 169 44q194 0 260 -164q96 164 303 164q151 0 225 -95t74 -265v-713q0 -45 -43 -45h-162q-45 0 -45 45v660q0 92 -31 140q-30 46 -106 46q-84 0 -131 -62t-47 -157v-627q0 -45 -45 -45h-160 q-45 0 -45 45v660q0 92 -31 140q-30 46 -104 46q-89 0 -135 -63q-48 -65 -48 -169v-614q0 -45 -45 -45h-159q-45 0 -45 45z" />
<glyph unicode="n" horiz-adv-x="1058" d="M106 45v1008q0 45 46 45h147q45 0 49 -39l6 -90q88 149 287 149q158 0 237 -97q78 -96 78 -273v-703q0 -45 -45 -45h-163q-46 0 -46 45v653q0 98 -34 145q-34 48 -117 48q-93 0 -143 -64t-50 -176v-606q0 -45 -45 -45h-161q-46 0 -46 45z" />
<glyph unicode="o" horiz-adv-x="1060" d="M74 549q0 569 456 569q457 0 457 -569q0 -567 -457 -567q-456 0 -456 567zM332 549q0 -189 48 -274t150 -85q101 0 150 85t49 274q0 187 -48 273q-48 85 -151 85q-102 0 -150 -84t-48 -274z" />
<glyph unicode="p" horiz-adv-x="1105" d="M109 -180v1233q0 45 45 45h147q45 0 49 -39l4 -94q33 67 112 110t175 43q389 0 389 -569q0 -567 -389 -567q-97 0 -172 37t-109 106v-305q0 -45 -45 -45h-161q-45 0 -45 45zM358 549q0 -356 213 -356q105 0 153 82q48 83 48 274t-48 273q-48 83 -153 83q-213 0 -213 -356 z" />
<glyph unicode="q" horiz-adv-x="1105" d="M76 549q0 569 389 569q95 0 174 -43q81 -44 113 -110l4 94q4 39 47 39h149q45 0 45 -45v-1233q0 -45 -45 -45h-161q-48 0 -48 45v303q-30 -68 -106 -105q-73 -36 -174 -36q-387 0 -387 567zM332 549q0 -192 49 -274t154 -82q213 0 213 356t-213 356q-104 0 -154 -83 q-49 -82 -49 -273z" />
<glyph unicode="r" horiz-adv-x="710" d="M109 45v1008q0 45 45 45h151q43 0 47 -43l6 -133q26 72 97 130q68 56 168 56q45 0 45 -43v-191q0 -38 -39 -38q-2 0 -28 2t-36 2h-2q-89 0 -146 -79q-57 -81 -57 -204v-512q0 -45 -45 -45h-161q-45 0 -45 45z" />
<glyph unicode="s" horiz-adv-x="835" d="M57 74l21 116q4 34 31 34q10 0 22 -5q99 -33 215 -33q182 0 182 119q0 53 -44 88q-46 37 -150 82q-142 66 -189 109q-86 80 -86 225q0 309 373 309q151 0 266 -41q34 -10 34 -39q0 -5 -1 -10l-20 -113q-3 -34 -31 -34q-9 0 -21 4q-88 28 -186 28q-86 0 -126 -25t-40 -85 q0 -51 44 -84q40 -30 153 -82q139 -63 206 -136q66 -72 66 -204q0 -315 -395 -315q-169 0 -289 43q-36 10 -36 40q0 4 1 9z" />
<glyph unicode="t" horiz-adv-x="673" d="M25 901v125q0 45 43 45h94v240q0 41 43 41h153q45 0 45 -41v-240h175q45 0 45 -45v-123q0 -45 -45 -45h-172v-510q0 -85 22 -114t90 -29q12 0 32 3t28 3q38 0 40 -41l11 -119q2 -35 -35 -47q-48 -16 -139 -16q-163 0 -230 72q-67 71 -67 253v545h-90q-43 0 -43 43z" />
<glyph unicode="u" horiz-adv-x="1050" d="M100 342v711q0 45 45 45h162q45 0 45 -45v-654q0 -95 33 -145q33 -49 115 -49q91 0 140 62q50 64 50 173v613q0 45 45 45h162q45 0 45 -45v-1008q0 -45 -45 -45h-149q-46 0 -50 39l-6 90q-82 -147 -274 -147q-318 0 -318 360z" />
<glyph unicode="v" horiz-adv-x="956" d="M37 1047q-4 12 -4 21q0 30 37 30h172q40 0 51 -45l131 -533l51 -239h6l54 239l129 533q10 45 51 45h172q38 0 38 -30q0 -9 -3 -21l-291 -1006q-12 -41 -58 -41h-192q-43 0 -55 41z" />
<glyph unicode="w" horiz-adv-x="1501" d="M45 1047q-3 11 -3 20q0 31 40 31h172q40 0 51 -45l113 -539l37 -231h4l45 231l129 543q11 41 49 41h137q38 0 49 -41l129 -543l43 -231h7l38 231l111 539q10 45 51 45h174q37 0 37 -30q0 -9 -4 -21l-242 -1002q-12 -45 -57 -45h-176q-45 0 -57 45l-115 465l-53 254h-6 l-54 -254l-112 -465q-12 -45 -60 -45h-176q-45 0 -57 45z" />
<glyph unicode="x" horiz-adv-x="960" d="M37 15q-6 15 6 36l301 506l-293 487q-12 21 -6 37q6 17 29 17h178q40 0 61 -35l168 -313l168 313q17 35 62 35h174q19 0 27 -17q7 -16 -5 -37l-291 -487l302 -506q12 -19 5 -35t-30 -16h-182q-42 0 -60 35l-172 325l-174 -325q-18 -35 -59 -35h-180q-23 0 -29 15z" />
<glyph unicode="y" horiz-adv-x="954" d="M39 1047q-4 13 -4 23q0 28 37 28h172q41 0 53 -45l143 -539l54 -240h6l47 240l115 539q10 45 51 45h170q40 0 40 -31q0 -9 -3 -20l-258 -963q-46 -179 -120 -251q-73 -71 -243 -71q-121 0 -172 21q-41 12 -39 45l14 119q6 38 43 37q1 0 5.5 -1t13.5 -2.5t18 -2.5 q37 -5 62 -5q100 0 100 86q0 29 -12 66z" />
<glyph unicode="z" horiz-adv-x="901" d="M76 45v98q0 31 18 58l418 676h-377q-45 0 -45 45v131q0 45 45 45h635q45 0 45 -45v-99q0 -25 -20 -61l-414 -674h395q45 0 45 -43v-131q0 -45 -45 -45h-655q-45 0 -45 45z" />
<glyph unicode="{" horiz-adv-x="657" d="M49 543v131q0 43 43 43h27q51 0 72 74q22 77 22 253q0 235 56 316q57 82 223 82h75q47 0 47 -43v-107q0 -47 -47 -47h-28q-56 0 -74 -52q-19 -55 -19 -189q0 -193 -36 -281q-38 -93 -119 -115q82 -22 119 -113q36 -88 36 -280q0 -136 19 -191q18 -53 74 -53h28 q47 0 47 -45v-106q0 -45 -47 -45h-75q-166 0 -223 82q-56 81 -56 317q0 174 -22 253q-21 75 -72 75h-27q-43 0 -43 41z" />
<glyph unicode="|" horiz-adv-x="585" d="M176 -180v1618q0 45 45 45h144q43 0 43 -45v-1618q0 -45 -43 -45h-144q-45 0 -45 45z" />
<glyph unicode="}" horiz-adv-x="657" d="M45 -74q0 45 45 45h29q58 0 76 53q18 52 18 191q0 190 37 280q37 91 119 113q-81 22 -119 115q-37 90 -37 281q0 139 -18 190t-76 51h-29q-45 0 -45 47v107q0 43 45 43h78q164 0 221 -82q57 -83 57 -316q0 -176 22 -253q21 -74 73 -74h24q45 0 45 -43v-131q0 -41 -45 -41 h-24q-52 0 -73 -75q-22 -79 -22 -255q0 -232 -57 -315q-57 -82 -221 -82h-78q-45 0 -45 45v106z" />
<glyph unicode="~" d="M98 662q10 112 68 179q57 66 151 66q92 0 197 -49l102 -47q76 -33 115 -33q58 0 88 64q0 1 2 5.5t6.5 14.5t8.5 19q11 35 51 14l96 -45q28 -15 27 -53q-10 -110 -68 -177t-151 -67q-92 0 -197 49l-100 45q-75 35 -117 35q-59 0 -88 -64q0 -1 -2 -5.5t-6.5 -13.5t-8.5 -19 q-11 -36 -51 -15l-96 45q-28 15 -27 52z" />
<glyph unicode="&#xa1;" horiz-adv-x="544" d="M125 -201l41 817q5 46 47 46h119q40 0 45 -46l41 -817q2 -47 -45 -47h-201q-49 0 -47 47zM135 858v193q0 47 45 47h185q45 0 45 -47v-193q0 -47 -48 -47h-180q-47 0 -47 47z" />
<glyph unicode="&#xa2;" horiz-adv-x="903" d="M76 549q0 514 393 565v133q0 45 43 45h78q45 0 45 -45v-135q91 -7 170 -43q41 -21 31 -53l-33 -119q-11 -42 -55 -27q-67 27 -160 27q-129 0 -192 -82q-62 -81 -62 -266t62 -266q63 -82 194 -82q89 0 166 28q45 17 57 -26l31 -117q7 -37 -31 -55q-68 -38 -178 -45v-138 q0 -43 -45 -43h-78q-43 0 -43 43v140q-393 50 -393 561z" />
<glyph unicode="&#xa3;" horiz-adv-x="1175" d="M72 688v72q0 37 37 37h108q-70 166 -70 262q0 183 117 294t355 111q215 0 326 -96q112 -97 112 -272q0 -101 -41 -101h-150q-19 0 -32 9q-10 7 -9 28q0 5 2 29t2 31q0 68 -51 108q-52 41 -149 41q-113 0 -168 -52t-55 -145q0 -77 65 -247h293q39 0 39 -37v-72 q0 -37 -39 -37h-246q31 -88 31 -151q0 -180 -154 -277q56 21 127 21q49 0 131 -19q78 -18 123 -18q67 0 93 41q25 40 30 114q5 41 49 41h121q49 0 49 -55q0 -178 -59 -269q-60 -93 -203 -93q-90 0 -207 29q-121 30 -194 30q-131 0 -232 -51q-38 -18 -53 4l-92 133 q-21 26 8 49q225 159 225 324q0 66 -32 147h-170q-37 0 -37 37z" />
<glyph unicode="&#xa4;" horiz-adv-x="1146" d="M137 190q-25 29 0 54l96 96q-55 89 -55 240q0 150 55 239l-96 99q-24 24 0 53l45 47q25 29 54 0l92 -92q92 86 245 86q157 0 246 -88l92 94q25 25 54 0l47 -47q24 -27 0 -53l-101 -101q58 -101 58 -237q0 -137 -58 -238l101 -98q28 -23 0 -54l-47 -47q-29 -29 -54 0 l-92 95q-89 -88 -246 -88t-245 88l-92 -95q-27 -27 -54 0zM371 580q0 -125 53 -190q52 -64 149 -64q96 0 148 64q53 65 53 190q0 124 -53 189t-148 65q-96 0 -149 -65t-53 -189z" />
<glyph unicode="&#xa5;" horiz-adv-x="1155" d="M40 1423q10 19 36 19h182q45 0 61 -43l256 -615h7l254 615q16 43 61 43h182q27 0 36 -19t-1 -39l-283 -593h170q39 0 39 -37v-68q0 -39 -39 -39h-235l-53 -121v-37h288q39 0 39 -36v-68q0 -39 -39 -39h-288v-297q0 -49 -49 -49h-172q-50 0 -50 49v297h-288q-37 0 -37 39 v68q0 36 37 36h288v37l-55 121h-233q-37 0 -37 39v68q0 37 37 37h168l-281 593q-10 20 -1 39z" />
<glyph unicode="&#xa6;" horiz-adv-x="585" d="M176 -180v594q0 45 45 45h144q43 0 43 -45v-594q0 -45 -43 -45h-144q-45 0 -45 45zM176 844v594q0 45 45 45h144q43 0 43 -45v-594q0 -45 -43 -45h-144q-45 0 -45 45z" />
<glyph unicode="&#xa7;" horiz-adv-x="1204" d="M129 651q0 92 49 160q51 70 139 94q-135 107 -135 236q0 165 105 244q104 79 334 79q165 0 311 -41q44 -15 43 -57l-8 -119q-5 -49 -60 -33q-116 31 -248 31q-116 0 -167 -31q-50 -30 -50 -96q0 -15 4 -27q4 -13 14 -26q12 -16 18 -22t27 -20q7 -5 31 -18q27 -15 37 -20 q20 -10 40 -18q3 -1 11 -4.5t17.5 -7t18.5 -7.5q31 -12 49 -20q186 -81 276 -156q88 -73 88 -201q0 -178 -188 -247q147 -94 147 -236q0 -161 -126 -243q-127 -83 -365 -83q-210 0 -320 37q-45 15 -43 60l8 116q5 47 60 35q117 -30 270 -30q256 0 256 126q0 31 -14 53 q-15 23 -47 44q-31 20 -61 33q-9 4 -35 14.5t-43 17.5q-53 22 -74 33q-200 83 -285 152q-84 67 -84 198zM369 659q0 -66 65 -106q67 -41 230 -104q8 -3 18.5 -7.5t13.5 -5.5q62 8 100 44q39 37 40 81q0 68 -77 116t-253 116q-60 -7 -100 -47q-37 -37 -37 -87z" />
<glyph unicode="&#xa8;" horiz-adv-x="632" d="M20 1251v123q0 43 46 43h143q43 0 43 -43v-123q0 -43 -43 -43h-143q-46 0 -46 43zM381 1251v123q0 43 45 43h143q43 0 43 -43v-123q0 -43 -43 -43h-143q-45 0 -45 43z" />
<glyph unicode="&#xa9;" horiz-adv-x="1605" d="M96 721q0 318 184 531q183 212 523 212q339 0 524 -212q184 -211 184 -531q0 -154 -45 -286q-45 -131 -131 -234q-85 -101 -223 -162q-134 -59 -309 -59q-228 0 -391 103q-164 103 -240 267q-76 162 -76 371zM244 721q0 -266 141 -434t418 -168t418 168t141 434 q0 265 -141 435q-141 169 -418 169t-418 -169q-141 -170 -141 -435zM459 729q2 428 379 428q106 0 192 -39q32 -15 25 -41l-27 -94q-11 -33 -41 -18q-50 20 -123 20q-101 0 -150 -59q-50 -61 -50 -197q0 -137 50 -199q49 -61 152 -61q63 0 127 23q35 15 41 -21l25 -92 q6 -26 -23 -41q-86 -39 -196 -39q-380 0 -381 430z" />
<glyph unicode="&#xaa;" horiz-adv-x="808" d="M45 1245q0 93 36 153q36 61 107 90q70 29 148 40q77 11 188 12v64q0 66 -34 91t-113 25q-87 0 -207 -41q-41 -15 -49 27l-25 94q-6 28 29 43q123 51 272 51q330 0 330 -274v-576q0 -43 -43 -43h-106q-42 0 -46 39l-4 58q-66 -107 -235 -107q-115 0 -181 66 q-67 67 -67 188zM246 1262q0 -117 108 -117q83 0 127 47q43 46 43 125v90q-141 0 -211 -31q-67 -30 -67 -114z" />
<glyph unicode="&#xab;" horiz-adv-x="892" d="M59 580q0 10 7 22l139 283q17 33 53 33h141q21 0 29 -14q8 -15 -2 -32l-147 -292l147 -291q21 -45 -27 -45h-141q-36 0 -53 32l-139 283q-7 9 -7 21zM436 580q0 6 6 22l140 283q16 33 53 33h141q22 0 29 -13q6 -13 -4 -33l-144 -292l144 -291q10 -21 4 -33t-29 -12h-141 q-36 0 -53 32l-140 283q-6 12 -6 21z" />
<glyph unicode="&#xac;" horiz-adv-x="1126" d="M102 657v127q0 43 45 43h795q45 0 45 -43v-481q0 -47 -45 -47h-154q-45 0 -45 45v311h-596q-45 0 -45 45z" />
<glyph unicode="&#xad;" horiz-adv-x="686" d="M72 506v123q0 43 43 43h456q45 0 45 -43v-123q0 -43 -45 -43h-456q-43 0 -43 43z" />
<glyph unicode="&#xae;" horiz-adv-x="870" d="M92 1104q0 154 90 257t254 103q165 0 253 -103q89 -104 89 -257q0 -150 -89 -256q-89 -105 -253 -105t-254 105t-90 256zM170 1104q0 -128 66 -208q66 -79 200 -79q133 0 199 79q65 78 65 208q0 131 -65 209q-66 80 -199 80q-134 0 -200 -80q-66 -79 -66 -209zM299 928 v364q0 19 20 19h130q161 0 161 -140q0 -100 -82 -124l74 -117q4 -7 1 -16q-3 -7 -13 -7h-66q-12 0 -22 15l-68 112h-37v-106q0 -21 -18 -21h-60q-20 0 -20 21zM397 1112h41q42 0 57 12t15 47q0 34 -15 46t-55 12h-43v-117z" />
<glyph unicode="&#xaf;" horiz-adv-x="632" d="M6 1262v69q0 41 43 41h535q43 0 43 -41v-69q0 -43 -43 -43h-535q-43 0 -43 43z" />
<glyph unicode="&#xb0;" horiz-adv-x="716" d="M68 1169q0 130 80 210q81 81 210 81t210 -81t81 -208q0 -129 -81 -212q-81 -82 -210 -82q-130 0 -210 81t-80 211zM209 1169q0 -72 40 -115q41 -44 109 -44t109 44t41 115q0 72 -41 116t-109 44q-67 0 -108 -44t-41 -116z" />
<glyph unicode="&#xb1;" d="M96 45v88q0 43 45 43h826q45 0 45 -43v-88q0 -45 -45 -45h-828q-43 0 -43 45zM96 727v123q0 43 45 43h295v311q0 45 45 45h146q43 0 43 -45v-311h297q45 0 45 -43v-123q0 -43 -45 -43h-297v-322q0 -43 -43 -43h-146q-45 0 -45 43v322h-297q-43 0 -43 43z" />
<glyph unicode="&#xb2;" horiz-adv-x="759" d="M74 1636q0 120 76 189t223 69q150 0 221 -70q72 -70 72 -188q0 -238 -312 -467h285q41 0 41 -41v-86q0 -41 -41 -41h-516q-41 0 -41 41v78q0 22 29 43q358 268 358 461q0 105 -107 105q-104 0 -104 -97q0 -3 2 -27t2 -28q0 -35 -41 -35h-102q-33 0 -39 39q-6 21 -6 55z " />
<glyph unicode="&#xb3;" horiz-adv-x="759" d="M68 1075l20 88q11 41 51 25q87 -31 174 -31q150 0 150 113q0 102 -125 102h-84q-41 0 -41 41v76q0 41 41 41h82q117 0 117 102q0 97 -148 97q-49 0 -158 -31q-39 -12 -49 22l-20 90q-6 26 24 41q89 43 236 43q309 0 309 -231q0 -146 -115 -190q130 -51 130 -211 q0 -273 -322 -273q-149 0 -244 43q-18 9 -26 19q-6 8 -2 24z" />
<glyph unicode="&#xb4;" horiz-adv-x="632" d="M160 1245l78 168q16 33 51 33h198q22 0 26 -16q5 -18 -9 -33l-160 -164q-23 -25 -59 -25h-99q-41 0 -26 37z" />
<glyph unicode="&#xb5;" horiz-adv-x="1054" d="M109 -180v1233q0 45 45 45h161q45 0 45 -45v-613q0 -108 52 -172q51 -63 139 -63q85 0 116 48q31 47 31 144v656q0 45 45 45h162q45 0 45 -45v-715q0 -358 -313 -358q-196 0 -279 149l2 -311q0 -43 -47 -43h-159q-45 0 -45 45z" />
<glyph unicode="&#xb6;" horiz-adv-x="1032" d="M84 999q0 217 122 330t337 113h411q43 0 43 -41v-66q0 -41 -43 -41h-67q-59 0 -83 -24t-24 -88v-1170q0 -128 -51 -188t-166 -60q-81 0 -127 21q-26 7 -26 39v65q0 31 34 31q11 0 35 -4t41 -4q44 0 66 28q20 26 20 93v524h-59q-213 0 -338 114t-125 328z" />
<glyph unicode="&#xb7;" horiz-adv-x="454" d="M96 463v186q0 45 47 45h168q47 0 47 -45v-186q0 -47 -45 -47h-172q-45 0 -45 47z" />
<glyph unicode="&#xb8;" horiz-adv-x="632" d="M217 -213q0 23 25 23h61q76 0 76 55q0 86 -158 155h92q93 -23 154 -74q63 -53 63 -122q0 -146 -196 -146q-61 0 -92 11q-25 8 -25 32v66z" />
<glyph unicode="&#xb9;" horiz-adv-x="759" d="M113 1638q-22 29 6 54l215 174q20 16 53 16h109q43 0 43 -43v-795q0 -43 -43 -43h-111q-43 0 -43 43v613l-121 -90q-33 -23 -57 6z" />
<glyph unicode="&#xba;" horiz-adv-x="847" d="M55 1442q0 454 369 454t369 -454q0 -451 -369 -451t-369 451zM268 1442q0 -142 38 -209q37 -66 118 -66q80 0 118 66q38 67 38 209q0 144 -38 211q-37 65 -118 65t-118 -65q-38 -67 -38 -211z" />
<glyph unicode="&#xbb;" horiz-adv-x="892" d="M89 256q-7 12 3 33l146 291l-146 292q-10 21 -3 33q8 13 30 13h139q34 0 51 -33l142 -283q6 -15 6 -22q0 -9 -6 -21l-142 -283q-15 -32 -51 -32h-139q-23 0 -30 12zM466 256q-8 12 3 33l145 291l-145 292q-11 21 -3 33q8 13 28 13h141q37 0 53 -33l139 -283q7 -12 7 -22 q0 -7 -7 -21l-139 -283q-17 -32 -53 -32h-141q-20 0 -28 12z" />
<glyph unicode="&#xbc;" horiz-adv-x="1777" d="M113 1198q-21 29 6 53l215 174q22 17 53 17h109q43 0 43 -43v-795q0 -43 -43 -43h-111q-43 0 -43 43v613l-121 -91q-32 -22 -57 7zM459 45l721 1360q18 37 57 37h119q46 0 24 -43l-721 -1362q-18 -37 -57 -37h-119q-47 0 -24 45zM1057 221v84q0 28 14 45l361 504 q21 27 47 27h114q43 0 43 -43v-492h64q43 0 43 -41v-82q0 -41 -43 -41h-64v-139q0 -43 -43 -43h-110q-41 0 -41 43v139h-346q-39 0 -39 39zM1233 346h209v303z" />
<glyph unicode="&#xbd;" horiz-adv-x="1777" d="M113 1198q-21 29 6 53l215 174q22 17 53 17h109q43 0 43 -43v-795q0 -43 -43 -43h-111q-43 0 -43 43v613l-121 -91q-32 -22 -57 7zM389 45l721 1360q18 37 57 37h119q47 0 25 -43l-721 -1362q-18 -37 -58 -37h-118q-48 0 -25 45zM1096 635q0 -33 6 -55q6 -39 39 -39h102 q41 0 41 34q0 4 -2 28t-2 28q0 96 104 96q107 0 107 -104q0 -193 -358 -461q-29 -21 -29 -43v-78q0 -41 41 -41h516q41 0 41 41v86q0 41 -41 41h-285q312 230 312 467q0 117 -72 187q-73 71 -221 71q-146 0 -224 -70q-75 -68 -75 -188z" />
<glyph unicode="&#xbe;" horiz-adv-x="1777" d="M68 635l20 88q11 41 51 25q87 -31 174 -31q150 0 150 112q0 103 -125 103h-84q-41 0 -41 41v76q0 41 41 41h82q117 0 117 102q0 96 -148 96q-49 0 -158 -31q-38 -12 -49 23l-20 90q-6 26 24 41q89 43 236 43q309 0 309 -231q0 -147 -115 -191q130 -51 130 -211 q0 -272 -322 -272q-149 0 -244 43q-19 10 -26 18t-2 25zM483 45l721 1360q18 37 58 37h118q47 0 25 -43l-721 -1362q-18 -37 -57 -37h-119q-48 0 -25 45zM1057 221v84q0 28 14 45l361 504q21 27 47 27h114q43 0 43 -43v-492h64q43 0 43 -41v-82q0 -41 -43 -41h-64v-139 q0 -43 -43 -43h-110q-41 0 -41 43v139h-346q-39 0 -39 39zM1233 346h209v303z" />
<glyph unicode="&#xbf;" horiz-adv-x="860" d="M72 53q0 -317 395 -317q187 0 324 59q40 16 32 51l-30 136q-11 41 -56 26q-123 -43 -215 -43q-102 0 -143 32t-41 107q0 62 37 126q40 68 82 112q42 43 82 117q36 66 36 141v16q0 48 -47 48h-149q-47 0 -47 -48v-16q0 -61 -41 -125q-42 -66 -89 -114q-49 -51 -89 -132 q-41 -84 -41 -176zM319 858v193q0 47 46 47h182q45 0 45 -47v-193q0 -47 -45 -47h-180q-48 0 -48 47z" />
<glyph unicode="&#xc0;" horiz-adv-x="1193" d="M41 53l375 1342q12 47 63 47h236q51 0 63 -47l375 -1342q6 -23 -4 -38q-11 -15 -35 -15h-180q-43 0 -55 45l-74 272h-416l-72 -272q-12 -45 -55 -45h-182q-22 0 -34 15q-11 14 -5 38zM321 1756q5 18 27 18h199q36 0 51 -33l78 -168q6 -17 -1 -28t-26 -11h-98 q-38 0 -62 27l-159 163q-14 14 -9 32zM438 551h316l-154 623h-4z" />
<glyph unicode="&#xc1;" horiz-adv-x="1193" d="M41 53l375 1342q12 47 63 47h236q51 0 63 -47l375 -1342q6 -23 -4 -38q-11 -15 -35 -15h-180q-43 0 -55 45l-74 272h-416l-72 -272q-12 -45 -55 -45h-182q-22 0 -34 15q-11 14 -5 38zM438 551h316l-154 623h-4zM518 1545q-6 12 0 28l78 168q15 33 51 33h199q20 0 25 -17 q5 -18 -9 -33l-160 -163q-24 -27 -59 -27h-100q-19 0 -25 11z" />
<glyph unicode="&#xc2;" horiz-adv-x="1193" d="M41 53l375 1342q12 47 63 47h236q51 0 63 -47l375 -1342q6 -23 -4 -38q-11 -15 -35 -15h-180q-43 0 -55 45l-74 272h-416l-72 -272q-12 -45 -55 -45h-182q-22 0 -34 15q-11 14 -5 38zM308 1549q-5 16 9 30l166 178q23 25 60 25h108q35 0 60 -25l166 -178q14 -14 9 -30 q-4 -15 -26 -15h-98q-26 0 -55 29l-109 94l-109 -94q-34 -29 -57 -29h-98q-22 0 -26 15zM438 551h316l-154 623h-4z" />
<glyph unicode="&#xc3;" horiz-adv-x="1193" d="M41 53l375 1342q12 47 63 47h236q51 0 63 -47l375 -1342q6 -23 -4 -38q-11 -15 -35 -15h-180q-43 0 -55 45l-74 272h-416l-72 -272q-12 -45 -55 -45h-182q-22 0 -34 15q-11 14 -5 38zM279 1589q0 160 145 160q56 0 158 -35l63 -26q121 -52 127 12l2 16q6 29 43 29h57 q44 0 44 -59q0 -158 -146 -158q-74 0 -158 35l-61 26q-45 17 -80 17q-46 0 -51 -31l-2 -12q-6 -29 -41 -29h-60q-40 0 -40 55zM438 551h316l-154 623h-4z" />
<glyph unicode="&#xc4;" horiz-adv-x="1193" d="M41 53l375 1342q12 47 63 47h236q51 0 63 -47l375 -1342q6 -23 -4 -38q-11 -15 -35 -15h-180q-43 0 -55 45l-74 272h-416l-72 -272q-12 -45 -55 -45h-182q-22 0 -34 15q-11 14 -5 38zM295 1579v119q0 45 43 45h149q43 0 43 -45v-119q0 -45 -43 -45h-149q-43 0 -43 45z M438 551h316l-154 623h-4zM664 1579v119q0 45 45 45h147q43 0 43 -45v-119q0 -45 -43 -45h-147q-45 0 -45 45z" />
<glyph unicode="&#xc5;" horiz-adv-x="1193" d="M41 53l375 1342l6 18q-37 49 -37 123q0 88 58 142q60 55 155 55t155 -55q58 -54 58 -142q0 -72 -39 -123l6 -18l375 -1342q6 -23 -4 -38q-11 -15 -35 -15h-180q-43 0 -55 45l-74 272h-416l-72 -272q-12 -45 -55 -45h-182q-22 0 -34 15q-11 14 -5 38zM438 551h316 l-154 623h-4zM502 1536q0 -92 96 -92q46 0 71 24t25 68q0 42 -25 67t-71 25t-71 -24t-25 -68z" />
<glyph unicode="&#xc6;" horiz-adv-x="1556" d="M20 53l478 1342q8 24 21 36q12 11 44 11h858q47 0 47 -47v-144q0 -49 -47 -49h-426v-352h406q45 0 45 -49v-131q0 -49 -45 -49h-406v-381h435q47 0 47 -47v-144q0 -49 -47 -49h-652q-49 0 -49 49v266h-338l-90 -270q-15 -45 -57 -45h-187q-23 0 -34 15t-3 38zM463 545 h266v659h-51z" />
<glyph unicode="&#xc7;" horiz-adv-x="1054" d="M86 723q0 394 139 567q139 174 424 174q175 0 289 -57q47 -23 37 -59l-33 -127q-12 -47 -63 -31q-83 33 -185 33q-179 0 -258 -112q-78 -111 -78 -388q0 -280 79 -390q80 -112 265 -112q99 0 189 37q49 16 61 -33l37 -127q10 -37 -39 -59q-118 -53 -274 -59 q112 -67 112 -166q0 -154 -204 -154q-64 0 -97 12q-24 8 -24 33v68q0 24 26 24h64q80 0 80 60q0 72 -98 133q-226 30 -337 206q-112 177 -112 527z" />
<glyph unicode="&#xc8;" horiz-adv-x="989" d="M121 49v1346q0 47 49 47h686q47 0 47 -47v-142q0 -49 -47 -49h-469v-354h447q47 0 47 -49v-131q0 -49 -47 -49h-447v-383h475q49 0 49 -48v-141q0 -49 -49 -49h-692q-49 0 -49 49zM290 1756q4 18 27 18h199q36 0 51 -33l78 -168q6 -17 -1 -28t-26 -11h-98q-37 0 -61 27 l-160 163q-14 14 -9 32z" />
<glyph unicode="&#xc9;" horiz-adv-x="989" d="M121 49v1346q0 47 49 47h686q47 0 47 -47v-142q0 -49 -47 -49h-469v-354h447q47 0 47 -49v-131q0 -49 -47 -49h-447v-383h475q49 0 49 -48v-141q0 -49 -49 -49h-692q-49 0 -49 49zM414 1545q-6 12 0 28l78 168q15 33 51 33h198q21 0 26 -17q5 -18 -9 -33l-160 -163 q-24 -27 -59 -27h-101q-18 0 -24 11z" />
<glyph unicode="&#xca;" horiz-adv-x="989" d="M121 49v1346q0 47 49 47h686q47 0 47 -47v-142q0 -49 -47 -49h-469v-354h447q47 0 47 -49v-131q0 -49 -47 -49h-447v-383h475q49 0 49 -48v-141q0 -49 -49 -49h-692q-49 0 -49 49zM234 1549q-5 15 10 30l166 178q23 25 59 25h109q34 0 59 -25l166 -178q14 -14 9 -30 q-4 -15 -26 -15h-98q-26 0 -55 29l-109 94l-108 -94q-34 -29 -58 -29h-98q-22 0 -26 15z" />
<glyph unicode="&#xcb;" horiz-adv-x="989" d="M121 49v1346q0 47 49 47h686q47 0 47 -47v-142q0 -49 -47 -49h-469v-354h447q47 0 47 -49v-131q0 -49 -47 -49h-447v-383h475q49 0 49 -48v-141q0 -49 -49 -49h-692q-49 0 -49 49zM219 1579v119q0 45 43 45h150q43 0 43 -45v-119q0 -45 -43 -45h-150q-43 0 -43 45z M588 1579v119q0 45 45 45h147q43 0 43 -45v-119q0 -45 -43 -45h-147q-45 0 -45 45z" />
<glyph unicode="&#xcc;" horiz-adv-x="534" d="M-1 1756q5 18 28 18h198q36 0 51 -33l78 -168q6 -17 -1 -28t-25 -11h-99q-37 0 -61 27l-160 163q-14 14 -9 32zM133 49v1346q0 47 47 47h174q47 0 47 -47v-1346q0 -49 -47 -49h-174q-47 0 -47 49z" />
<glyph unicode="&#xcd;" horiz-adv-x="534" d="M133 49v1346q0 47 47 47h174q47 0 47 -47v-1346q0 -49 -47 -49h-174q-47 0 -47 49zM184 1545q-6 12 0 28l78 168q15 33 51 33h199q21 0 26 -17t-10 -33l-159 -163q-24 -27 -60 -27h-100q-19 0 -25 11z" />
<glyph unicode="&#xce;" horiz-adv-x="534" d="M-24 1549q-5 15 10 30l166 178q23 25 59 25h108q35 0 60 -25l166 -178q14 -14 9 -30q-4 -15 -26 -15h-98q-26 0 -55 29l-109 94l-108 -94q-34 -29 -58 -29h-98q-22 0 -26 15zM133 49v1346q0 47 47 47h174q47 0 47 -47v-1346q0 -49 -47 -49h-174q-47 0 -47 49z" />
<glyph unicode="&#xcf;" horiz-adv-x="534" d="M-37 1579v119q0 45 43 45h150q43 0 43 -45v-119q0 -45 -43 -45h-150q-43 0 -43 45zM133 49v1346q0 47 47 47h174q47 0 47 -47v-1346q0 -49 -47 -49h-174q-47 0 -47 49zM332 1579v119q0 45 45 45h147q43 0 43 -45v-119q0 -45 -43 -45h-147q-45 0 -45 45z" />
<glyph unicode="&#xd0;" horiz-adv-x="1202" d="M20 682v80q0 39 39 39h66v594q0 47 49 47h342q309 0 458 -164q148 -163 148 -557q0 -395 -146 -557q-147 -164 -456 -164h-346q-49 0 -49 49v596h-66q-39 0 -39 37zM395 242h119q174 0 254 102q80 103 80 377q0 276 -81 378q-80 101 -257 101h-115v-399h187q39 0 39 -39 v-80q0 -37 -39 -37h-187v-403z" />
<glyph unicode="&#xd1;" horiz-adv-x="1234" d="M121 49v1346q0 47 49 47h164q44 0 61 -35l457 -909v897q0 47 47 47h166q49 0 49 -45v-1348q0 -49 -49 -49h-164q-45 0 -61 37l-457 907v-895q0 -49 -47 -49h-166q-49 0 -49 49zM299 1589q0 160 145 160q56 0 158 -35l64 -26q121 -52 127 12l2 16q6 29 43 29h57 q43 0 43 -59q0 -158 -145 -158q-74 0 -158 35l-62 26q-45 17 -79 17q-47 0 -52 -31l-2 -12q-6 -29 -41 -29h-59q-41 0 -41 55z" />
<glyph unicode="&#xd2;" horiz-adv-x="1245" d="M84 721q0 393 136 568t403 175q266 0 402 -175t136 -568q0 -391 -135 -566t-403 -175q-269 0 -404 175t-135 566zM357 1756q5 18 28 18h199q36 0 51 -33l78 -168q6 -17 -1 -28t-26 -11h-98q-38 0 -62 27l-159 163q-14 14 -10 32zM358 721q0 -273 64 -389 q64 -115 201 -115q136 0 200 115q64 116 64 389t-64 390q-63 116 -200 116q-138 0 -201 -116q-64 -117 -64 -390z" />
<glyph unicode="&#xd3;" horiz-adv-x="1245" d="M84 721q0 393 136 568t403 175q266 0 402 -175t136 -568q0 -391 -135 -566t-403 -175q-269 0 -404 175t-135 566zM358 721q0 -273 64 -389q64 -115 201 -115q136 0 200 115q64 116 64 389t-64 390q-63 116 -200 116q-138 0 -201 -116q-64 -117 -64 -390zM539 1545 q-6 12 0 28l77 168q15 33 52 33h198q21 0 26 -17q5 -18 -9 -33l-160 -163q-24 -27 -59 -27h-101q-19 0 -24 11z" />
<glyph unicode="&#xd4;" horiz-adv-x="1245" d="M84 721q0 393 136 568t403 175q266 0 402 -175t136 -568q0 -391 -135 -566t-403 -175q-269 0 -404 175t-135 566zM333 1549q-5 16 9 30l166 178q23 25 59 25h109q34 0 59 -25l166 -178q14 -14 9 -30q-4 -15 -25 -15h-99q-26 0 -55 29l-108 94l-109 -94q-34 -29 -57 -29 h-99q-20 0 -25 15zM358 721q0 -273 64 -389q64 -115 201 -115q136 0 200 115q64 116 64 389t-64 390q-63 116 -200 116q-138 0 -201 -116q-64 -117 -64 -390z" />
<glyph unicode="&#xd5;" horiz-adv-x="1245" d="M84 721q0 393 136 568t403 175q266 0 402 -175t136 -568q0 -391 -135 -566t-403 -175q-269 0 -404 175t-135 566zM303 1589q0 160 146 160q55 0 157 -35l64 -26q121 -52 127 12l2 16q6 29 43 29h57q43 0 43 -59q0 -158 -145 -158q-74 0 -158 35l-61 26q-45 17 -80 17 q-47 0 -52 -31l-2 -12q-6 -29 -41 -29h-59q-41 0 -41 55zM358 721q0 -273 64 -389q64 -115 201 -115q136 0 200 115q64 116 64 389t-64 390q-63 116 -200 116q-138 0 -201 -116q-64 -117 -64 -390z" />
<glyph unicode="&#xd6;" horiz-adv-x="1245" d="M84 721q0 393 136 568t403 175q266 0 402 -175t136 -568q0 -391 -135 -566t-403 -175q-269 0 -404 175t-135 566zM319 1579v119q0 45 43 45h150q43 0 43 -45v-119q0 -45 -43 -45h-150q-43 0 -43 45zM358 721q0 -273 64 -389q64 -115 201 -115q136 0 200 115 q64 116 64 389t-64 390q-63 116 -200 116q-138 0 -201 -116q-64 -117 -64 -390zM688 1579v119q0 45 45 45h148q43 0 43 -45v-119q0 -45 -43 -45h-148q-45 0 -45 45z" />
<glyph unicode="&#xd7;" d="M125 438l272 275l-272 270q-33 28 0 61l94 95q34 30 64 0l270 -273l272 273q33 29 62 0l94 -95q30 -29 -2 -61l-270 -270l270 -275q31 -30 0 -61l-92 -94q-31 -29 -62 2l-272 270l-270 -272q-34 -34 -64 0l-92 94q-30 33 -2 61z" />
<glyph unicode="&#xd8;" horiz-adv-x="1253" d="M86 106l88 127q-88 172 -88 488q0 392 136 567q137 176 405 176q215 0 344 -123l61 86q27 37 60 13l61 -45q37 -27 10 -62l-88 -127q92 -181 92 -485q0 -391 -136 -566t-404 -175q-225 0 -346 122l-66 -92q-24 -35 -59 -8l-62 47q-32 24 -8 57zM360 723q0 -146 19 -217 l432 616q-61 105 -184 105q-140 0 -203 -116q-64 -117 -64 -388zM440 317q37 -54 79 -77q43 -23 108 -23q136 0 201 116t65 386q0 132 -19 219z" />
<glyph unicode="&#xd9;" horiz-adv-x="1198" d="M115 469v926q0 47 47 47h172q49 0 49 -47v-897q0 -141 50 -208t167 -67q116 0 166 66q49 65 49 207v899q0 47 47 47h174q47 0 47 -47v-926q0 -251 -118 -370t-365 -119q-249 0 -367 119t-118 370zM345 1756q5 18 28 18h198q37 0 52 -33l77 -168q6 -17 -1 -28t-25 -11h-99 q-37 0 -61 27l-160 163q-14 14 -9 32z" />
<glyph unicode="&#xda;" horiz-adv-x="1198" d="M115 469v926q0 47 47 47h172q49 0 49 -47v-897q0 -141 50 -208t167 -67q116 0 166 66q49 65 49 207v899q0 47 47 47h174q47 0 47 -47v-926q0 -251 -118 -370t-365 -119q-249 0 -367 119t-118 370zM500 1545q-6 12 0 28l78 168q15 33 51 33h198q21 0 26 -17q5 -18 -9 -33 l-160 -163q-24 -27 -59 -27h-101q-18 0 -24 11z" />
<glyph unicode="&#xdb;" horiz-adv-x="1198" d="M115 469v926q0 47 47 47h172q49 0 49 -47v-897q0 -141 50 -208t167 -67q116 0 166 66q49 65 49 207v899q0 47 47 47h174q47 0 47 -47v-926q0 -251 -118 -370t-365 -119q-249 0 -367 119t-118 370zM310 1549q-5 16 9 30l166 178q23 25 60 25h108q35 0 60 -25l166 -178 q14 -14 9 -30q-4 -15 -26 -15h-98q-26 0 -55 29l-109 94l-108 -94q-34 -29 -58 -29h-98q-21 0 -26 15z" />
<glyph unicode="&#xdc;" horiz-adv-x="1198" d="M115 469v926q0 47 47 47h172q49 0 49 -47v-897q0 -141 50 -208t167 -67q116 0 166 66q49 65 49 207v899q0 47 47 47h174q47 0 47 -47v-926q0 -251 -118 -370t-365 -119q-249 0 -367 119t-118 370zM297 1579v119q0 45 43 45h149q43 0 43 -45v-119q0 -45 -43 -45h-149 q-43 0 -43 45zM666 1579v119q0 45 45 45h147q43 0 43 -45v-119q0 -45 -43 -45h-147q-45 0 -45 45z" />
<glyph unicode="&#xdd;" horiz-adv-x="1155" d="M44 1423q10 19 36 19h184q46 0 62 -43l178 -424l71 -205h3l73 205l178 424q16 43 62 43h184q27 0 36 -19t-1 -39l-397 -845v-490q0 -49 -49 -49h-175q-47 0 -47 49v490l-397 845q-10 20 -1 39zM489 1545q-6 12 0 28l78 168q15 33 51 33h199q21 0 26 -17q5 -18 -9 -33 l-160 -163q-24 -27 -60 -27h-100q-20 0 -25 11z" />
<glyph unicode="&#xde;" horiz-adv-x="1128" d="M121 49v1346q0 47 49 47h172q47 0 47 -47v-121h133q273 0 399 -112q123 -110 123 -384t-123 -385q-124 -112 -399 -112h-133v-232q0 -49 -47 -49h-172q-49 0 -49 49zM389 516h133q139 0 196 57q56 56 56 207q0 145 -57 202q-56 56 -195 56h-133v-522z" />
<glyph unicode="&#xdf;" horiz-adv-x="1138" d="M115 43v1042q0 375 446 375q196 0 302 -83t106 -224q0 -73 -32 -132q-31 -57 -71 -88q-31 -24 -70 -61q-32 -30 -32 -55q0 -26 32 -56q31 -29 76 -64q55 -42 92 -78q44 -43 77 -122q32 -78 32 -171q0 -171 -92 -254q-91 -82 -279 -82q-110 0 -153 10q-45 12 -45 47v123 q0 43 45 43q7 0 39 -2t37 -2q200 0 200 162q0 71 -48 134t-104 100q-55 36 -105 91q-48 52 -48 109q0 40 32 80q31 38 71 66q36 25 70 72q32 44 32 93q0 59 -43 98q-44 39 -133 39q-193 0 -193 -188v-1022q0 -43 -43 -43h-153q-45 0 -45 43z" />
<glyph unicode="&#xe0;" horiz-adv-x="997" d="M59 305q0 87 29 154q27 63 77 105q49 42 127 65q82 25 162 35q82 10 197 12v67q0 86 -43 125q-44 39 -143 39q-114 0 -258 -51q-42 -15 -53 31l-23 119q-7 37 31 53q134 57 336 57q208 0 302 -87q95 -87 95 -267v-717q0 -45 -45 -45h-135q-43 0 -47 39l-6 94 q-86 -147 -300 -147q-141 0 -222 83t-81 236zM259 1430q4 16 28 16h196q40 0 52 -33l79 -168q15 -37 -26 -37h-101q-34 0 -59 25l-160 164q-14 15 -9 33zM301 319q0 -149 139 -149q103 0 157 64t54 165v117q-182 -6 -266 -45t-84 -152z" />
<glyph unicode="&#xe1;" horiz-adv-x="997" d="M59 305q0 87 29 154q27 63 77 105q49 42 127 65q82 25 162 35q82 10 197 12v67q0 86 -43 125q-44 39 -143 39q-114 0 -258 -51q-42 -15 -53 31l-23 119q-7 37 31 53q134 57 336 57q208 0 302 -87q95 -87 95 -267v-717q0 -45 -45 -45h-135q-43 0 -47 39l-6 94 q-86 -147 -300 -147q-141 0 -222 83t-81 236zM301 319q0 -149 139 -149q103 0 157 64t54 165v117q-182 -6 -266 -45t-84 -152zM385 1245l78 168q17 33 51 33h199q21 0 25 -16q5 -18 -9 -33l-160 -164q-23 -25 -59 -25h-98q-42 0 -27 37z" />
<glyph unicode="&#xe2;" horiz-adv-x="997" d="M59 305q0 87 29 154q27 63 77 105q49 42 127 65q82 25 162 35q82 10 197 12v67q0 86 -43 125q-44 39 -143 39q-114 0 -258 -51q-42 -15 -53 31l-23 119q-7 37 31 53q134 57 336 57q208 0 302 -87q95 -87 95 -267v-717q0 -45 -45 -45h-135q-43 0 -47 39l-6 94 q-86 -147 -300 -147q-141 0 -222 83t-81 236zM209 1223q-6 14 8 28l168 183q23 26 59 26h109q33 0 59 -26l168 -183q14 -14 10 -28q-4 -15 -26 -15h-98q-31 0 -56 25l-110 102l-113 -102q-25 -25 -55 -25h-96q-21 0 -27 15zM301 319q0 -149 139 -149q103 0 157 64t54 165 v117q-182 -6 -266 -45t-84 -152z" />
<glyph unicode="&#xe3;" horiz-adv-x="997" d="M59 305q0 87 29 154q27 63 77 105q49 42 127 65q82 25 162 35q82 10 197 12v67q0 86 -43 125q-44 39 -143 39q-114 0 -258 -51q-42 -15 -53 31l-23 119q-7 37 31 53q134 57 336 57q208 0 302 -87q95 -87 95 -267v-717q0 -45 -45 -45h-135q-43 0 -47 39l-6 94 q-86 -147 -300 -147q-141 0 -222 83t-81 236zM188 1264q0 155 136 155q67 0 157 -35l62 -26q52 -19 75 -19q42 0 46 37l2 10q2 31 39 31h61q41 0 41 -59q0 -154 -135 -154q-75 0 -160 35l-59 27q-47 18 -74 18q-41 0 -47 -35l-2 -12q-6 -29 -41 -29h-60q-41 0 -41 56z M301 319q0 -149 139 -149q103 0 157 64t54 165v117q-182 -6 -266 -45t-84 -152z" />
<glyph unicode="&#xe4;" horiz-adv-x="997" d="M59 305q0 87 29 154q27 63 77 105q49 42 127 65q82 25 162 35q82 10 197 12v67q0 86 -43 125q-44 39 -143 39q-114 0 -258 -51q-42 -15 -53 31l-23 119q-7 37 31 53q134 57 336 57q208 0 302 -87q95 -87 95 -267v-717q0 -45 -45 -45h-135q-43 0 -47 39l-6 94 q-86 -147 -300 -147q-141 0 -222 83t-81 236zM199 1251v123q0 43 45 43h143q43 0 43 -43v-123q0 -43 -43 -43h-143q-45 0 -45 43zM301 319q0 -149 139 -149q103 0 157 64t54 165v117q-182 -6 -266 -45t-84 -152zM559 1251v123q0 43 45 43h144q43 0 43 -43v-123 q0 -43 -43 -43h-144q-45 0 -45 43z" />
<glyph unicode="&#xe5;" horiz-adv-x="997" d="M59 305q0 87 29 154q27 63 77 105q49 42 127 65q82 25 162 35q82 10 197 12v67q0 86 -43 125q-44 39 -143 39q-114 0 -258 -51q-42 -15 -53 31l-23 119q-7 37 31 53q134 57 336 57q208 0 302 -87q95 -87 95 -267v-717q0 -45 -45 -45h-135q-43 0 -47 39l-6 94 q-86 -147 -300 -147q-141 0 -222 83t-81 236zM289 1393q0 88 58 142q59 54 157 54q95 0 155 -54t60 -142q0 -91 -60 -145t-155 -54q-98 0 -157 54q-58 54 -58 145zM301 319q0 -149 139 -149q103 0 157 64t54 165v117q-182 -6 -266 -45t-84 -152zM405 1393q0 -44 27 -68 q28 -25 72 -25q43 0 71 25q27 24 27 68q0 41 -27 65q-28 25 -71 25q-44 0 -72 -25q-27 -24 -27 -65z" />
<glyph unicode="&#xe6;" horiz-adv-x="1566" d="M59 299q0 84 29 147q29 62 76 100t126 59q88 23 162 30q88 8 199 8v109q0 155 -184 155q-99 0 -262 -51q-44 -15 -55 31l-25 119q-7 37 33 53q153 57 327 57q245 0 312 -141q89 143 299 143q199 0 298 -129t99 -364v-117q0 -47 -49 -47h-549q21 -281 268 -281 q107 0 211 43q47 17 58 -30l22 -105q7 -34 -33 -55q-112 -53 -278 -53q-143 0 -241 53q-97 52 -136 143q-106 -190 -358 -190q-349 0 -349 313zM301 313q0 -141 150 -141q100 0 150 65t50 166v78q-179 -1 -265 -36q-85 -34 -85 -132zM889 635h368v16q0 138 -39 203 q-41 68 -135 68q-179 0 -194 -287z" />
<glyph unicode="&#xe7;" horiz-adv-x="868" d="M74 551q0 287 117 426q119 141 339 141q152 0 242 -45q43 -21 33 -57l-33 -119q-11 -41 -59 -25q-77 25 -144 25q-123 0 -180 -81t-57 -265q0 -185 57 -267q57 -83 176 -83q76 0 160 30q45 16 55 -24l31 -121q7 -34 -33 -55q-87 -44 -229 -49q115 -62 115 -158 q0 -146 -197 -146q-61 0 -92 11q-25 8 -25 32v66q0 23 25 23h61q76 0 76 55q0 73 -111 133q-327 76 -327 553z" />
<glyph unicode="&#xe8;" horiz-adv-x="1009" d="M74 549q0 286 113 427q114 142 331 142q208 0 313 -134q105 -133 105 -378v-110q0 -47 -47 -47h-565q23 -269 276 -269q113 0 213 41q47 18 59 -31l23 -100q7 -37 -35 -57q-130 -53 -280 -53q-506 0 -506 569zM261 1430q4 16 28 16h196q40 0 52 -33l79 -168 q15 -37 -26 -37h-101q-34 0 -59 25l-160 164q-14 15 -9 33zM319 621h383v16q0 285 -182 285q-96 0 -144 -72q-50 -74 -57 -229z" />
<glyph unicode="&#xe9;" horiz-adv-x="1009" d="M74 549q0 286 113 427q114 142 331 142q208 0 313 -134q105 -133 105 -378v-110q0 -47 -47 -47h-565q23 -269 276 -269q113 0 213 41q47 18 59 -31l23 -100q7 -37 -35 -57q-130 -53 -280 -53q-506 0 -506 569zM319 621h383v16q0 285 -182 285q-96 0 -144 -72 q-50 -74 -57 -229zM406 1245l77 168q17 33 52 33h198q22 0 26 -16q5 -18 -9 -33l-160 -164q-23 -25 -60 -25h-98q-41 0 -26 37z" />
<glyph unicode="&#xea;" horiz-adv-x="1009" d="M74 549q0 286 113 427q114 142 331 142q208 0 313 -134q105 -133 105 -378v-110q0 -47 -47 -47h-565q23 -269 276 -269q113 0 213 41q47 18 59 -31l23 -100q7 -37 -35 -57q-130 -53 -280 -53q-506 0 -506 569zM225 1223q-6 14 8 28l168 183q23 26 60 26h108q34 0 60 -26 l168 -183q13 -13 9 -28t-26 -15h-98q-30 0 -55 25l-111 102l-113 -102q-25 -25 -55 -25h-96q-21 0 -27 15zM319 621h383v16q0 285 -182 285q-96 0 -144 -72q-50 -74 -57 -229z" />
<glyph unicode="&#xeb;" horiz-adv-x="1009" d="M74 549q0 286 113 427q114 142 331 142q208 0 313 -134q105 -133 105 -378v-110q0 -47 -47 -47h-565q23 -269 276 -269q113 0 213 41q47 18 59 -31l23 -100q7 -37 -35 -57q-130 -53 -280 -53q-506 0 -506 569zM219 1251v123q0 43 45 43h144q43 0 43 -43v-123 q0 -43 -43 -43h-144q-45 0 -45 43zM319 621h383v16q0 285 -182 285q-96 0 -144 -72q-50 -74 -57 -229zM580 1251v123q0 43 45 43h143q43 0 43 -43v-123q0 -43 -43 -43h-143q-45 0 -45 43z" />
<glyph unicode="&#xec;" horiz-adv-x="483" d="M-26 1430q4 16 28 16h197q39 0 51 -33l80 -168q15 -37 -27 -37h-100q-35 0 -60 25l-159 164q-15 16 -10 33zM115 45v1008q0 45 47 45h162q43 0 43 -45v-1008q0 -45 -43 -45h-162q-47 0 -47 45z" />
<glyph unicode="&#xed;" horiz-adv-x="483" d="M115 45v1008q0 45 47 45h162q43 0 43 -45v-1008q0 -45 -43 -45h-162q-47 0 -47 45zM156 1245l77 168q17 33 52 33h198q22 0 26 -16q5 -18 -9 -33l-160 -164q-23 -25 -59 -25h-99q-41 0 -26 37z" />
<glyph unicode="&#xee;" horiz-adv-x="483" d="M-47 1223q-6 14 8 28l168 183q23 26 59 26h109q33 0 59 -26l168 -183q14 -14 10 -28q-4 -15 -26 -15h-98q-31 0 -56 25l-110 102l-113 -102q-25 -25 -55 -25h-96q-21 0 -27 15zM115 45v1008q0 45 47 45h162q43 0 43 -45v-1008q0 -45 -43 -45h-162q-47 0 -47 45z" />
<glyph unicode="&#xef;" horiz-adv-x="483" d="M-53 1251v123q0 43 45 43h143q43 0 43 -43v-123q0 -43 -43 -43h-143q-45 0 -45 43zM115 45v1008q0 45 47 45h162q43 0 43 -45v-1008q0 -45 -43 -45h-162q-47 0 -47 45zM307 1251v123q0 43 45 43h144q43 0 43 -43v-123q0 -43 -43 -43h-144q-45 0 -45 43z" />
<glyph unicode="&#xf0;" horiz-adv-x="1058" d="M74 545q0 281 114 422t318 141q114 0 176 -49q-26 61 -80 135h-235q-39 0 -39 39v53q0 37 39 37h137q-14 16 -98 80q-14 10 -10 24q4 15 24 15h166q32 0 55 -23q53 -47 90 -96h172q37 0 37 -37v-53q0 -39 -37 -39h-90q174 -285 174 -643q0 -569 -457 -569 q-224 0 -340 140t-116 423zM332 545q0 -187 48 -271t150 -84q101 0 150 85t49 270q0 360 -199 360q-102 0 -150 -86q-48 -85 -48 -274z" />
<glyph unicode="&#xf1;" horiz-adv-x="1058" d="M106 45v1008q0 45 46 45h147q45 0 49 -39l6 -90q88 149 287 149q158 0 237 -97q78 -96 78 -273v-703q0 -45 -45 -45h-163q-46 0 -46 45v653q0 98 -34 145q-34 48 -117 48q-93 0 -143 -64t-50 -176v-606q0 -45 -45 -45h-161q-46 0 -46 45zM221 1264q0 155 135 155 q68 0 158 -35l61 -26q52 -19 76 -19q41 0 45 37l2 10q2 31 39 31h62q41 0 41 -59q0 -154 -135 -154q-75 0 -160 35l-60 27q-46 18 -73 18q-41 0 -47 -35l-3 -12q-6 -29 -40 -29h-60q-41 0 -41 56z" />
<glyph unicode="&#xf2;" horiz-adv-x="1060" d="M74 549q0 -567 456 -567q457 0 457 567q0 569 -457 569q-456 0 -456 -569zM275 1430q4 16 28 16h197q39 0 51 -33l80 -168q15 -37 -27 -37h-100q-35 0 -60 25l-159 164q-15 16 -10 33zM332 549q0 190 48 274t150 84q103 0 151 -85q48 -86 48 -273q0 -189 -49 -274 t-150 -85q-102 0 -150 85t-48 274z" />
<glyph unicode="&#xf3;" horiz-adv-x="1060" d="M74 549q0 -567 456 -567q457 0 457 567q0 569 -457 569q-456 0 -456 -569zM332 549q0 190 48 274t150 84q103 0 151 -85q48 -86 48 -273q0 -189 -49 -274t-150 -85q-102 0 -150 85t-48 274zM430 1245l78 168q16 33 51 33h199q21 0 25 -16q5 -18 -9 -33l-160 -164 q-23 -25 -59 -25h-98q-42 0 -27 37z" />
<glyph unicode="&#xf4;" horiz-adv-x="1060" d="M74 549q0 -567 456 -567q457 0 457 567q0 569 -457 569q-456 0 -456 -569zM240 1223q-6 14 8 28l168 183q23 26 59 26h109q33 0 59 -26l168 -183q13 -13 9 -28t-25 -15h-99q-30 0 -55 25l-111 102l-112 -102q-25 -25 -56 -25h-96q-20 0 -26 15zM332 549q0 190 48 274 t150 84q103 0 151 -85q48 -86 48 -273q0 -189 -49 -274t-150 -85q-102 0 -150 85t-48 274z" />
<glyph unicode="&#xf5;" horiz-adv-x="1060" d="M74 549q0 569 456 569q457 0 457 -569q0 -567 -457 -567q-456 0 -456 567zM223 1264q0 155 135 155q71 0 158 -35l62 -26q52 -19 75 -19q41 0 45 37l2 10q2 31 39 31h62q41 0 41 -59q0 -154 -135 -154q-75 0 -160 35l-60 27q-45 18 -73 18q-41 0 -47 -35l-2 -12 q-6 -29 -41 -29h-60q-41 0 -41 56zM332 549q0 -189 48 -274t150 -85q101 0 150 85t49 274q0 187 -48 273q-48 85 -151 85q-102 0 -150 -84t-48 -274z" />
<glyph unicode="&#xf6;" horiz-adv-x="1060" d="M74 549q0 -567 456 -567q457 0 457 567q0 569 -457 569q-456 0 -456 -569zM233 1251v123q0 43 46 43h143q43 0 43 -43v-123q0 -43 -43 -43h-143q-46 0 -46 43zM332 549q0 190 48 274t150 84q103 0 151 -85q48 -86 48 -273q0 -189 -49 -274t-150 -85q-102 0 -150 85 t-48 274zM594 1251v123q0 43 45 43h143q43 0 43 -43v-123q0 -43 -43 -43h-143q-45 0 -45 43z" />
<glyph unicode="&#xf7;" d="M113 662v108q0 43 43 43h794q45 0 45 -43v-108q0 -46 -45 -46h-794q-43 0 -43 46zM426 246v176q0 45 47 45h162q47 0 47 -45v-176q0 -45 -45 -45h-166q-45 0 -45 45zM426 1008v174q0 47 47 47h162q47 0 47 -47v-174q0 -47 -47 -47h-164q-45 0 -45 47z" />
<glyph unicode="&#xf8;" horiz-adv-x="1069" d="M78 549q0 288 118 428q118 141 339 141q174 0 280 -88l39 57q27 39 61 9l41 -33q30 -25 9 -53l-56 -82q84 -136 84 -379q0 -284 -119 -426q-118 -141 -339 -141q-175 0 -281 86l-41 -60q-27 -34 -59 -8l-41 33q-29 28 -9 57l56 80q-82 136 -82 379zM334 553 q0 -98 16 -156l318 445q-43 65 -133 65q-103 0 -152 -84q-49 -83 -49 -270zM401 254q52 -64 134 -64q101 0 151 84q49 83 49 271q0 101 -14 153z" />
<glyph unicode="&#xf9;" horiz-adv-x="1050" d="M100 342v711q0 45 45 45h162q45 0 45 -45v-654q0 -95 33 -145q33 -49 115 -49q91 0 140 62q50 64 50 173v613q0 45 45 45h162q45 0 45 -45v-1008q0 -45 -45 -45h-149q-46 0 -50 39l-6 90q-82 -147 -274 -147q-318 0 -318 360zM275 1430q4 16 28 16h197q39 0 51 -33 l80 -168q15 -37 -27 -37h-100q-35 0 -60 25l-159 164q-15 16 -10 33z" />
<glyph unicode="&#xfa;" horiz-adv-x="1050" d="M100 342v711q0 45 45 45h162q45 0 45 -45v-654q0 -95 33 -145q33 -49 115 -49q91 0 140 62q50 64 50 173v613q0 45 45 45h162q45 0 45 -45v-1008q0 -45 -45 -45h-149q-46 0 -50 39l-6 90q-82 -147 -274 -147q-318 0 -318 360zM418 1245l78 168q16 33 51 33h198 q22 0 26 -16q5 -18 -9 -33l-160 -164q-23 -25 -59 -25h-99q-41 0 -26 37z" />
<glyph unicode="&#xfb;" horiz-adv-x="1050" d="M100 342v711q0 45 45 45h162q45 0 45 -45v-654q0 -95 33 -145q33 -49 115 -49q91 0 140 62q50 64 50 173v613q0 45 45 45h162q45 0 45 -45v-1008q0 -45 -45 -45h-149q-46 0 -50 39l-6 90q-82 -147 -274 -147q-318 0 -318 360zM236 1223q-6 14 8 28l168 183q23 26 59 26 h109q33 0 59 -26l168 -183q13 -13 9 -28t-25 -15h-99q-30 0 -55 25l-111 102l-112 -102q-25 -25 -56 -25h-96q-20 0 -26 15z" />
<glyph unicode="&#xfc;" horiz-adv-x="1050" d="M100 342v711q0 45 45 45h162q45 0 45 -45v-654q0 -95 33 -145q33 -49 115 -49q91 0 140 62q50 64 50 173v613q0 45 45 45h162q45 0 45 -45v-1008q0 -45 -45 -45h-149q-46 0 -50 39l-6 90q-82 -147 -274 -147q-318 0 -318 360zM229 1251v123q0 43 45 43h144q43 0 43 -43 v-123q0 -43 -43 -43h-144q-45 0 -45 43zM590 1251v123q0 43 45 43h143q43 0 43 -43v-123q0 -43 -43 -43h-143q-45 0 -45 43z" />
<glyph unicode="&#xfd;" horiz-adv-x="954" d="M39 1047q-17 51 33 51h172q41 0 53 -45l143 -539l54 -240h6l47 240l115 539q10 45 51 45h170q52 0 37 -51l-258 -963q-46 -179 -120 -251q-73 -71 -243 -71q-121 0 -172 21q-41 12 -39 45l14 119q6 38 43 37q1 0 5.5 -1t13.5 -2.5t18 -2.5q37 -5 62 -5q100 0 100 86 q0 29 -12 66zM381 1245l78 168q17 33 51 33h199q21 0 25 -16q5 -18 -9 -33l-160 -164q-23 -25 -59 -25h-98q-42 0 -27 37z" />
<glyph unicode="&#xfe;" d="M111 -180v1579q0 43 45 43h161q45 0 45 -43v-430q32 64 110 107q76 42 171 42q389 0 389 -569q0 -567 -389 -567q-98 0 -173 37q-78 38 -108 106v-305q0 -45 -45 -45h-161q-45 0 -45 45zM360 549q0 -356 213 -356q105 0 153 82q48 83 48 274t-48 273q-48 83 -153 83 q-213 0 -213 -356z" />
<glyph unicode="&#xff;" horiz-adv-x="954" d="M39 1047q-17 51 33 51h172q41 0 53 -45l143 -539l54 -240h6l47 240l115 539q10 45 51 45h170q52 0 37 -51l-258 -963q-46 -179 -120 -251q-73 -71 -243 -71q-121 0 -172 21q-41 12 -39 45l14 119q6 38 43 37q1 0 5.5 -1t13.5 -2.5t18 -2.5q37 -5 62 -5q100 0 100 86 q0 29 -12 66zM180 1251v123q0 43 45 43h144q43 0 43 -43v-123q0 -43 -43 -43h-144q-45 0 -45 43zM541 1251v123q0 43 45 43h143q43 0 43 -43v-123q0 -43 -43 -43h-143q-45 0 -45 43z" />
<glyph unicode="&#x152;" horiz-adv-x="1632" d="M111 721q0 395 145 558t455 163h786q49 0 49 -47v-144q0 -49 -49 -49h-438v-352h418q47 0 47 -49v-131q0 -49 -47 -49h-418v-381h446q47 0 47 -47v-144q0 -49 -47 -49h-798q-308 0 -452 164t-144 557zM383 721q0 -275 78 -377t250 -102h84v958h-80q-174 0 -253 -101 t-79 -378z" />
<glyph unicode="&#x153;" horiz-adv-x="1626" d="M74 549q0 286 113 427q114 142 327 142q222 0 322 -157q100 157 311 157q199 0 302 -133t103 -369v-110q0 -45 -49 -45h-549q21 -281 269 -281q106 0 209 41q47 21 57 -28l24 -105q8 -36 -30 -53q-128 -55 -279 -55q-249 0 -362 165q-100 -163 -324 -163q-216 0 -330 141 t-114 426zM332 549q0 -189 46 -274t142 -85q98 0 144 85q47 86 47 274q0 186 -47 272t-144 86q-95 0 -142 -86q-46 -85 -46 -272zM952 633h365v16q0 273 -172 273q-181 0 -193 -289z" />
<glyph unicode="&#x178;" horiz-adv-x="1155" d="M44 1423q10 19 36 19h184q46 0 62 -43l178 -424l71 -205h3l73 205l178 424q16 43 62 43h184q27 0 36 -19t-1 -39l-397 -845v-490q0 -49 -49 -49h-175q-47 0 -47 49v490l-397 845q-10 20 -1 39zM274 1579v119q0 45 43 45h150q43 0 43 -45v-119q0 -45 -43 -45h-150 q-43 0 -43 45zM643 1579v119q0 45 45 45h148q43 0 43 -45v-119q0 -45 -43 -45h-148q-45 0 -45 45z" />
<glyph unicode="&#x2c6;" horiz-adv-x="632" d="M27 1223q-6 14 8 28l168 183q23 26 59 26h109q33 0 59 -26l168 -183q13 -13 9 -28q-5 -15 -25 -15h-99q-30 0 -55 25l-111 102l-112 -102q-25 -25 -55 -25h-97q-20 0 -26 15z" />
<glyph unicode="&#x2dc;" horiz-adv-x="632" d="M8 1264q0 155 135 155q68 0 158 -35l61 -26q52 -19 76 -19q41 0 45 37l2 10q2 31 39 31h62q41 0 41 -59q0 -154 -135 -154q-75 0 -160 35l-60 27q-47 18 -73 18q-41 0 -47 -35l-2 -12q-6 -29 -41 -29h-60q-41 0 -41 56z" />
<glyph unicode="&#x2000;" horiz-adv-x="948" />
<glyph unicode="&#x2001;" horiz-adv-x="1896" />
<glyph unicode="&#x2002;" horiz-adv-x="948" />
<glyph unicode="&#x2003;" horiz-adv-x="1896" />
<glyph unicode="&#x2004;" horiz-adv-x="632" />
<glyph unicode="&#x2005;" horiz-adv-x="474" />
<glyph unicode="&#x2006;" horiz-adv-x="316" />
<glyph unicode="&#x2007;" horiz-adv-x="316" />
<glyph unicode="&#x2008;" horiz-adv-x="237" />
<glyph unicode="&#x2009;" horiz-adv-x="379" />
<glyph unicode="&#x200a;" horiz-adv-x="105" />
<glyph unicode="&#x2010;" horiz-adv-x="688" d="M72 506v123q0 43 43 43h456q45 0 45 -43v-123q0 -43 -45 -43h-456q-43 0 -43 43z" />
<glyph unicode="&#x2011;" horiz-adv-x="688" d="M72 506v123q0 43 43 43h456q45 0 45 -43v-123q0 -43 -45 -43h-456q-43 0 -43 43z" />
<glyph unicode="&#x2012;" horiz-adv-x="688" d="M72 506v123q0 43 43 43h456q45 0 45 -43v-123q0 -43 -45 -43h-456q-43 0 -43 43z" />
<glyph unicode="&#x2013;" horiz-adv-x="931" d="M72 506v123q0 43 45 43h700q43 0 43 -43v-123q0 -43 -43 -43h-702q-43 0 -43 43z" />
<glyph unicode="&#x2014;" horiz-adv-x="1357" d="M72 506v123q0 43 45 43h1124q47 0 47 -43v-123q0 -43 -47 -43h-1126q-43 0 -43 43z" />
<glyph unicode="&#x2018;" horiz-adv-x="442" d="M96 989v168q0 37 10 57l91 205q17 29 43 29h59q35 0 23 -39l-68 -192h57q45 0 45 -46v-182q0 -45 -47 -45h-166q-47 0 -47 45z" />
<glyph unicode="&#x2019;" horiz-adv-x="442" d="M88 1214v181q0 47 47 47h166q49 0 49 -47v-166q0 -28 -12 -58l-92 -204q-12 -29 -43 -29h-58q-34 0 -22 39l65 192h-55q-45 0 -45 45z" />
<glyph unicode="&#x201a;" horiz-adv-x="442" d="M88 45v180q0 47 47 47h166q49 0 49 -47v-166q0 -27 -12 -57l-92 -205q-12 -28 -43 -28h-58q-34 0 -22 38l65 193h-55q-45 0 -45 45z" />
<glyph unicode="&#x201c;" horiz-adv-x="817" d="M96 991v168q0 38 10 58l91 204q12 27 43 27h59q33 0 23 -37l-66 -192h55q45 0 45 -48v-180q0 -45 -47 -45h-166q-47 0 -47 45zM467 991v168q0 28 12 58l92 204q12 27 41 27h60q32 0 22 -37l-65 -192h53q47 0 47 -48v-180q0 -45 -47 -45h-168q-47 0 -47 45z" />
<glyph unicode="&#x201d;" horiz-adv-x="817" d="M88 1217v180q0 45 47 45h166q49 0 49 -45v-166q0 -30 -12 -57l-92 -205q-12 -29 -43 -29h-58q-34 0 -22 37l65 194h-55q-45 0 -45 46zM461 1217v180q0 45 47 45h166q47 0 47 -45v-166q0 -36 -10 -57l-93 -205q-12 -29 -40 -29h-60q-34 0 -22 37l65 194h-55q-45 0 -45 46z " />
<glyph unicode="&#x201e;" horiz-adv-x="817" d="M88 45v180q0 45 47 45h166q49 0 49 -45v-166q0 -29 -12 -57l-92 -205q-12 -28 -43 -28h-58q-34 0 -22 36l65 195h-55q-45 0 -45 45zM461 45v180q0 45 47 45h166q47 0 47 -45v-166q0 -36 -10 -57l-93 -205q-12 -28 -40 -28h-60q-34 0 -22 36l65 195h-55q-45 0 -45 45z" />
<glyph unicode="&#x2022;" horiz-adv-x="759" d="M96 559q0 125 81 205q82 80 204 80q123 0 203 -80t80 -205t-81 -205q-82 -80 -204 -80q-120 0 -202 80q-81 80 -81 205z" />
<glyph unicode="&#x2026;" horiz-adv-x="1363" d="M96 47v186q0 46 47 46h168q47 0 47 -46v-186q0 -47 -45 -47h-172q-45 0 -45 47zM551 47v186q0 46 47 46h168q47 0 47 -46v-186q0 -47 -45 -47h-172q-45 0 -45 47zM1006 47v186q0 46 49 46h166q47 0 47 -46v-186q0 -47 -45 -47h-170q-47 0 -47 47z" />
<glyph unicode="&#x202f;" horiz-adv-x="379" />
<glyph unicode="&#x2039;" horiz-adv-x="516" d="M59 580q0 10 7 22l139 283q17 33 53 33h141q21 0 29 -14q8 -15 -2 -32l-147 -292l147 -291q21 -45 -27 -45h-141q-36 0 -53 32l-139 283q-7 14 -7 21z" />
<glyph unicode="&#x203a;" horiz-adv-x="516" d="M89 256q-7 12 3 33l146 291l-146 292q-10 21 -3 33q8 13 30 13h139q34 0 51 -33l142 -283q6 -15 6 -22q0 -9 -6 -21l-142 -283q-15 -32 -51 -32h-139q-23 0 -30 12z" />
<glyph unicode="&#x205f;" horiz-adv-x="474" />
<glyph unicode="&#x20ac;" horiz-adv-x="1155" d="M41 539v71q0 37 39 37h104q-2 32 -2 76q0 46 2 74h-104q-39 0 -39 39v71q0 37 39 37h117q39 247 183 383q145 137 396 137q169 0 295 -61q43 -21 29 -57l-45 -127q-17 -48 -62 -31q-107 35 -182 35q-279 0 -336 -279h428q40 0 29 -41l-21 -69q-12 -37 -49 -37h-405 q-2 -30 -2 -74q0 -46 2 -76h352q39 0 27 -41l-19 -67q-12 -37 -49 -37h-293q61 -279 338 -279q79 0 184 37q43 15 60 -33l47 -129q12 -37 -29 -55q-113 -61 -297 -61q-253 0 -398 137q-144 136 -183 383h-117q-39 0 -39 37z" />
<glyph unicode="&#x2122;" horiz-adv-x="1312" d="M57 1333v80q0 29 31 29h391q31 0 31 -29v-80q0 -33 -31 -33h-114v-497q0 -31 -31 -31h-101q-32 0 -32 31v497h-113q-31 0 -31 33zM594 803v608q0 31 31 31h104q25 0 37 -21l147 -276l148 276q12 21 37 21h104q31 0 31 -31v-608q0 -31 -33 -31h-96q-31 0 -31 31v391 l-131 -238q-16 -20 -29 -20q-17 0 -28 20l-131 238v-391q0 -31 -31 -31h-98q-31 0 -31 31z" />
<glyph unicode="&#x25fc;" horiz-adv-x="1095" d="M0 0v1096h1096v-1096h-1096z" />
</font>
</defs>
</svg>
