<?xml version="1.0" standalone="no"?>
<!DOCTYPE svg PUBLIC "-//W3C//DTD SVG 1.1//EN" "http://www.w3.org/Graphics/SVG/1.1/DTD/svg11.dtd" >
<svg xmlns="http://www.w3.org/2000/svg" xmlns:xlink="http://www.w3.org/1999/xlink" version="1.1">
<metadata></metadata>
<defs>
<font id="amsipronarw-xlighuploadedfile" horiz-adv-x="909" >
<font-face units-per-em="2048" ascent="1751" descent="-297" />
<missing-glyph horiz-adv-x="514" />
<glyph unicode="&#xfb01;" horiz-adv-x="911" d="M49 1008v32q0 17 17 17h141v110q0 279 215 279q48 0 98 -12q15 -2 15 -23l-3 -27q-4 -17 -20 -16q-39 10 -82 10q-80 0 -116 -52q-35 -51 -35 -163v-106h464q17 0 17 -17v-1024q0 -16 -17 -16h-41q-16 0 -16 16v973h-405v-973q0 -16 -17 -16h-39q-18 0 -18 16v973h-141 q-17 0 -17 19zM684 1260v157q0 19 18 19h41q17 0 17 -19v-157q0 -19 -17 -19h-41q-18 0 -18 19z" />
<glyph unicode="&#xfb02;" horiz-adv-x="915" d="M49 1008v32q0 17 17 17h141v82q0 157 72 233t243 76q134 0 223 -27q19 -5 19 -20v-1385q0 -16 -16 -16h-41q-17 0 -17 16v1350q-72 12 -168 12q-138 0 -190 -58q-53 -59 -53 -185v-78h196q19 0 19 -17v-32q0 -19 -19 -19h-194v-973q0 -16 -17 -16h-39q-18 0 -18 16v973 h-141q-17 0 -17 19z" />
<glyph unicode="&#xfb03;" horiz-adv-x="1394" d="M49 1008v32q0 17 17 17h141v114q0 275 217 275q44 0 96 -12q15 -2 15 -23l-3 -27q-4 -20 -20 -16q-39 10 -82 10q-80 0 -115 -51q-34 -50 -34 -164v-106h409v114q0 275 217 275q49 0 94 -12q19 -5 17 -23l-4 -27q-4 -17 -19 -16q-39 10 -82 10q-79 0 -114 -51 q-35 -52 -35 -164v-106h461q16 0 16 -17v-1024q0 -16 -16 -16h-39q-19 0 -19 16v973h-403v-973q0 -16 -16 -16h-41q-17 0 -17 16v973h-409v-973q0 -16 -17 -16h-39q-18 0 -18 16v973h-141q-17 0 -17 19zM1167 1260v157q0 19 17 19h43q18 0 18 -19v-157q0 -19 -18 -19h-43 q-17 0 -17 19z" />
<glyph unicode="&#xfb04;" horiz-adv-x="1396" d="M49 1008v32q0 17 17 17h141v114q0 275 217 275q46 0 96 -12q15 -2 15 -23l-3 -27q-4 -20 -20 -16q-39 10 -82 10q-80 0 -115 -51q-34 -50 -34 -164v-106h409v82q0 157 72 233t242 76q92 0 225 -27q18 -6 18 -22v-1383q0 -16 -18 -16h-39q-19 0 -19 16v1350 q-69 12 -165 12q-137 0 -189 -58q-53 -59 -53 -185v-78h194q19 0 19 -17v-32q0 -19 -19 -19h-194v-973q0 -16 -16 -16h-41q-17 0 -17 16v973h-409v-973q0 -16 -17 -16h-39q-18 0 -18 16v973h-141q-17 0 -17 19z" />
<glyph horiz-adv-x="0" />
<glyph unicode="&#xd;" horiz-adv-x="681" />
<glyph unicode=" "  horiz-adv-x="514" />
<glyph unicode="&#x09;" horiz-adv-x="514" />
<glyph unicode="&#xa0;" horiz-adv-x="514" />
<glyph unicode="!" horiz-adv-x="458" d="M172 16v127q0 15 18 15h78q19 0 19 -15v-127q0 -16 -19 -16h-78q-18 0 -18 16zM184 1417q0 19 17 19h57q16 0 16 -19l-12 -1026q0 -16 -16 -16h-33q-16 0 -16 16z" />
<glyph unicode="&#x22;" horiz-adv-x="559" d="M117 1407q0 33 9 45t34 12q26 0 33 -12q8 -13 8 -45q0 -47 -4 -131l-15 -266h-43l-16 266q-6 69 -6 131zM356 1407q0 32 10 45q9 12 33 12q23 0 32 -13t9 -46q0 -45 -4 -129l-16 -266h-43l-15 266q0 10 -3 58t-3 73z" />
<glyph unicode="#" horiz-adv-x="1112" d="M33 453v32q0 17 16 17h193l118 434h-172q-18 0 -18 18v33q0 17 18 17h189l119 434q1 14 20 12l35 -8q17 -2 12 -21l-114 -417h368l119 434q2 18 18 12l37 -8q15 -4 10 -21l-112 -417h176q14 0 14 -17v-33q0 -18 -14 -18h-195l-118 -434h172q18 0 18 -17v-32 q0 -17 -18 -17h-191l-117 -438q-4 -20 -20 -14l-35 10q-16 4 -12 20l115 422h-369l-117 -438q-4 -20 -20 -14l-37 10q-14 4 -10 20l114 422h-176q-16 0 -16 17zM313 502h369l115 434h-365z" />
<glyph unicode="$" horiz-adv-x="933" d="M98 55l8 33q5 23 23 12q108 -47 311 -47q149 0 236 73q86 72 86 208q0 70 -24 125q-25 57 -75 100q-54 46 -94 73q-48 32 -116 68q-8 4 -23 13q-82 45 -123 72q-34 23 -96 78q-55 49 -80 114q-25 66 -25 143q0 143 83 231q83 87 255 99v162q0 18 19 18h33q16 0 16 -18 v-158q129 -1 254 -43q20 -6 14 -25l-8 -32q-6 -21 -24 -15q-159 41 -246 41q-316 0 -316 -260q0 -51 19 -100q18 -47 38 -76q19 -28 68 -65q43 -33 74 -52q7 -4 19 -11.5t33 -19.5t38 -22q182 -101 246 -164q119 -114 119 -276q0 -154 -87 -243q-87 -88 -239 -105v-162 q0 -19 -16 -19h-35q-14 0 -14 19v158q-208 0 -336 49q-19 8 -15 24z" />
<glyph unicode="%" horiz-adv-x="1560" d="M82 1042q0 195 71 301q71 105 203 105q133 0 205 -105t72 -301t-72 -300q-72 -103 -205 -103t-203 103q-71 104 -71 300zM154 1042q0 -337 202 -337q203 0 203 337q0 340 -203 340q-202 0 -202 -340zM352 20l776 1399q11 17 27 17h43q20 0 10 -21l-778 -1399 q-7 -16 -27 -16h-41q-24 0 -10 20zM928 393q0 197 70 300q71 104 204 104q131 0 203 -104q72 -103 72 -300q0 -196 -72 -301q-71 -104 -201 -104q-134 0 -205 104t-71 301zM997 393q0 -340 205 -340t205 340q0 338 -205 338t-205 -338z" />
<glyph unicode="&#x26;" horiz-adv-x="1236" d="M98 414q0 159 88 283q87 123 248 167l-41 58q-114 156 -114 276q0 256 319 256q117 0 207 -35q17 -10 16 -22l-10 -29q-6 -18 -27 -12q-85 30 -182 30q-250 0 -250 -188q0 -103 111 -250l518 -682q49 98 49 223q0 41 -14 125q-5 19 16 19h39q11 0 19 -19q14 -42 14 -127 q0 -146 -74 -280l146 -189q6 -6 3 -12t-12 -6h-51q-17 0 -39 25l-90 125q-139 -166 -403 -166q-226 0 -356 112t-130 318zM178 416q0 -167 109 -265t297 -98q246 0 354 152l-459 606q-147 -41 -224 -149q-77 -109 -77 -246z" />
<glyph unicode="'" horiz-adv-x="319" d="M117 1407q0 33 9 45t34 12q26 0 33 -12q8 -13 8 -45q0 -47 -4 -131l-15 -266h-43l-16 266q-6 69 -6 131z" />
<glyph unicode="(" horiz-adv-x="581" d="M166 606q0 241 76 456q79 222 192 376q8 12 25 12h37q18 0 8 -16q-114 -155 -186 -375q-72 -221 -72 -453q0 -403 258 -823q8 -19 -8 -19h-37q-17 0 -25 11q-114 158 -192 378q-76 215 -76 453z" />
<glyph unicode=")" horiz-adv-x="581" d="M80 -217q258 415 258 823q0 234 -72 454q-72 221 -186 374q-10 16 10 16h37q13 0 23 -12q114 -153 192 -374q76 -215 76 -458q0 -240 -76 -455q-79 -222 -192 -376q-8 -11 -23 -11h-37q-21 0 -10 19z" />
<glyph unicode="*" horiz-adv-x="737" d="M100 987q-16 27 25 51q38 24 207 105q-195 95 -207 102q-41 24 -25 51q15 28 58 4q2 -1 18 -11t28 -18q10 -6 33.5 -22t38.5 -26q65 -42 72 -47q-14 200 -14 229q0 27 6 37t27 10q20 0 27 -10t7 -37q0 -18 -3 -54q-1 -9 -3 -38.5t-4 -49.5q-5 -53 -6 -87q89 58 193 124 q43 24 57 -2q16 -30 -25 -53q-22 -12 -207 -102q173 -84 207 -105q25 -17 28 -24q4 -10 -3 -27q-17 -31 -57 -4q-39 22 -193 127q16 -179 16 -229t-32 -50q-33 0 -33 50q0 78 14 229q-141 -96 -192 -127q-43 -24 -58 4z" />
<glyph unicode="+" horiz-adv-x="1054" d="M106 707v32q0 19 19 19h367v403q0 17 16 17h39q16 0 16 -17v-403h367q16 0 16 -19v-32q0 -19 -16 -19h-367v-405q0 -17 -16 -17h-39q-16 0 -16 17v405h-367q-19 0 -19 19z" />
<glyph unicode="," horiz-adv-x="364" d="M127 16v125q0 17 18 17h74q19 0 19 -17v-121q0 -8 -2 -22l-50 -180q-2 -15 -18 -15h-16q-18 0 -13 19l35 178h-31q-16 0 -16 16z" />
<glyph unicode="-" horiz-adv-x="667" d="M86 520v37q0 16 18 16h461q17 0 17 -16v-37q0 -14 -17 -14h-461q-18 0 -18 14z" />
<glyph unicode="." horiz-adv-x="364" d="M127 16v125q0 17 18 17h74q19 0 19 -17v-125q0 -16 -17 -16h-78q-16 0 -16 16z" />
<glyph unicode="/" horiz-adv-x="684" d="M20 18l566 1401q6 17 24 17h39q21 0 15 -21l-566 -1399q-6 -16 -22 -16h-41q-21 0 -15 18z" />
<glyph unicode="0" horiz-adv-x="1120" d="M109 717q0 737 452 737q451 0 451 -737q0 -735 -451 -735q-452 0 -452 735zM188 717q0 -664 373 -664q371 0 371 662q0 665 -371 665q-373 0 -373 -663z" />
<glyph unicode="1" horiz-adv-x="706" d="M72 1149q-10 14 2 22l315 256q9 9 25 9h43q18 0 18 -19v-1401q0 -16 -18 -16h-43q-17 0 -17 16v1319l-276 -217q-15 -12 -23 0z" />
<glyph unicode="2" horiz-adv-x="1042" d="M113 16v33q0 19 12 29q130 111 227 203q99 94 215 228q121 140 185 276q65 139 65 272q0 325 -307 325q-160 0 -232 -79q-73 -81 -73 -209q0 -9 2 -47t2 -39q0 -17 -16 -17h-39q-14 0 -19 19q-8 35 -8 88q0 155 95 256q94 100 288 100q201 0 294 -109t93 -288 q0 -111 -48 -233q-48 -120 -114 -220q-63 -95 -165 -209q-99 -111 -171 -177q-92 -84 -163 -146h673q17 0 17 -17v-39q0 -16 -17 -16h-780q-16 0 -16 16z" />
<glyph unicode="3" horiz-adv-x="940" d="M63 55l11 35q5 18 22 14q191 -53 297 -53q178 0 270 88q93 89 93 258q0 318 -316 318h-114q-21 0 -21 18v35q0 18 21 18h114q130 0 206 76q77 77 77 230q0 290 -317 290q-150 0 -285 -51q-15 -6 -21 12l-12 33q-5 12 14 23q144 55 304 55q397 0 397 -360q0 -144 -63 -228 t-156 -108q108 -21 180 -109q72 -89 72 -252q0 -415 -443 -415q-181 0 -313 55q-18 6 -17 18z" />
<glyph unicode="4" horiz-adv-x="1085" d="M74 377v37q0 10 8 26l659 981q11 15 23 15h47q18 0 18 -19v-987h197q16 0 16 -18v-35q0 -19 -16 -19h-197v-342q0 -16 -18 -16h-41q-18 0 -18 16v342h-662q-16 0 -16 19zM162 430h590v881z" />
<glyph unicode="5" horiz-adv-x="966" d="M84 57l10 35q4 16 23 10q133 -51 295 -51q372 0 372 389q0 361 -325 361q-74 0 -141 -14q-69 -15 -100 -26q-35 -13 -44 -13q-1 0 -16 6l-23 8q-15 6 -10 24q31 365 37 631q0 19 18 19h594q19 0 19 -19v-37q0 -16 -19 -16h-543q-6 -275 -32 -543q126 49 264 49 q403 0 403 -430q0 -223 -115 -341q-114 -117 -337 -117q-186 0 -316 53q-20 7 -14 22z" />
<glyph unicode="6" horiz-adv-x="1052" d="M109 696q0 758 489 758q126 0 217 -39q15 -6 14 -20l-10 -35q-4 -20 -22 -14q-120 36 -197 36q-205 0 -308 -161q-104 -163 -104 -508q0 -53 2 -97q21 128 117 213q97 86 258 86q205 0 301 -127q97 -129 97 -333q0 -213 -105 -344t-295 -131q-454 0 -454 716zM219 451 q0 -94 34 -180t115 -152t195 -66q153 0 235 111q83 112 83 291q0 175 -76 282q-77 109 -246 109q-157 0 -248 -102q-92 -103 -92 -293z" />
<glyph unicode="7" horiz-adv-x="935" d="M82 1380v37q0 19 18 19h729q19 0 19 -19v-35q0 -8 -10 -28q-181 -260 -326 -648q-146 -391 -152 -690q0 -16 -16 -16h-47q-18 0 -18 16q12 316 155 701q145 391 322 647h-656q-18 0 -18 16z" />
<glyph unicode="8" horiz-adv-x="1030" d="M98 344q0 158 96 259q94 98 242 142q-311 106 -311 375q0 151 101 242q103 92 290 92q188 0 289 -92q100 -91 100 -242q0 -268 -309 -375q148 -44 242 -142t94 -259q0 -165 -109 -265q-108 -99 -307 -99q-201 0 -309 99q-109 100 -109 265zM178 346q0 -135 87 -216 t251 -81t250 81t86 216q0 146 -92 235t-244 128q-151 -39 -245 -128q-93 -89 -93 -235zM203 1120q0 -244 313 -338q311 91 311 338q0 122 -81 194t-230 72q-151 0 -232 -72t-81 -194z" />
<glyph unicode="9" horiz-adv-x="1052" d="M90 979q0 213 105 344t294 131q455 0 455 -717q0 -378 -118 -566q-118 -189 -367 -189q-134 0 -219 36q-19 8 -15 23l13 33q4 16 22 12q91 -35 195 -35q201 0 307 160q104 157 104 506q0 50 -2 94q-18 -122 -115 -207q-98 -86 -262 -86q-202 0 -300 128q-97 127 -97 333z M172 979q0 -173 77 -282q76 -107 247 -107q154 0 245 100q93 102 93 293q0 150 -89 274q-89 123 -253 123q-155 0 -237 -110q-83 -112 -83 -291z" />
<glyph unicode=":" horiz-adv-x="423" d="M156 16v125q0 17 18 17h76q18 0 18 -17v-125q0 -16 -18 -16h-76q-18 0 -18 16zM156 913v121q0 19 18 19h76q18 0 18 -17v-123q0 -18 -18 -18h-76q-18 0 -18 18z" />
<glyph unicode=";" horiz-adv-x="423" d="M156 16v125q0 17 18 17h76q18 0 18 -17v-121q0 -3 -4 -22l-47 -180q-1 -15 -18 -15h-19q-17 0 -12 19l35 178h-29q-18 0 -18 16zM156 913v123q0 17 16 17h78q18 0 18 -17v-123q0 -18 -18 -18h-76q-18 0 -18 18z" />
<glyph unicode="&#x3c;" horiz-adv-x="1054" d="M135 721q0 11 12 22l668 564q13 13 23 -2l26 -29q11 -12 -2 -25l-633 -530l633 -531q10 -10 2 -22l-26 -31q-8 -13 -23 -2l-668 565q-12 8 -12 21z" />
<glyph unicode="=" horiz-adv-x="1054" d="M125 502v37q0 14 16 14h772q17 0 17 -14v-37q0 -15 -17 -15h-774q-14 0 -14 15zM125 907v35q0 16 16 16h772q17 0 17 -16v-35q0 -16 -17 -16h-774q-14 0 -14 16z" />
<glyph unicode="&#x3e;" horiz-adv-x="1054" d="M190 168q-10 11 3 22l630 531l-630 530q-16 12 -3 25l25 29q8 13 23 2l669 -564q11 -11 11 -22q0 -10 -11 -21l-669 -565q-13 -13 -23 2z" />
<glyph unicode="?" horiz-adv-x="860" d="M76 1376q-2 14 14 21q118 57 295 57q365 0 365 -330q0 -102 -49 -197q-49 -94 -105 -152q-61 -62 -106 -136q-48 -78 -48 -156v-90q0 -18 -18 -18h-39q-18 0 -18 16v92q0 71 30 137q29 63 76 120q30 36 90 110q47 59 76 127q31 74 31 147q0 258 -287 258q-146 0 -272 -53 q-17 -6 -23 12zM348 16v127q0 15 17 15h79q17 0 17 -15v-127q0 -16 -17 -16h-79q-17 0 -17 16z" />
<glyph unicode="@" horiz-adv-x="1673" d="M133 424q0 370 202 590q201 219 552 219q353 0 504 -160q149 -158 149 -448q0 -247 -107 -399t-317 -152h-65q-16 0 -24 7.5t-7 22.5l18 148q-88 -189 -282 -189q-125 0 -195 91q-69 90 -69 239q0 105 24 198q23 89 75 174q49 81 140 129q90 48 211 48q114 0 236 -39 q14 -7 12 -20l-109 -750h35q183 0 273 134q90 133 90 360q0 265 -133 405q-134 142 -461 142q-321 0 -506 -200q-184 -199 -184 -550q0 -310 158 -446t491 -136q156 0 327 49q17 2 21 -12l6 -24q2 -14 -12 -19q-136 -51 -342 -51q-360 0 -536 150q-175 150 -175 489z M565 397q0 -123 51 -195q52 -73 148 -73q119 0 195 94q78 97 102 252l53 379q-86 25 -174 25q-192 0 -284 -139q-91 -137 -91 -343z" />
<glyph unicode="A" horiz-adv-x="1099" d="M59 18l443 1399q5 19 22 19h51q17 0 25 -19l442 -1399q6 -18 -14 -18h-47q-14 0 -20 16l-134 422h-555l-131 -422q-6 -16 -20 -16h-49q-19 0 -13 18zM295 510h512l-254 821h-4z" />
<glyph unicode="B" horiz-adv-x="1122" d="M160 16v1401q0 19 18 19h367q221 0 327 -84q107 -84 107 -273q0 -148 -65 -230q-65 -81 -166 -99q272 -45 272 -359q0 -209 -118 -300t-363 -91h-361q-18 0 -18 16zM238 74h299q213 0 308 72t95 247q0 166 -89 241t-294 75h-319v-635zM238 780h313q186 0 269 71t83 224 q0 157 -84 222q-85 65 -274 65h-307v-582z" />
<glyph unicode="C" horiz-adv-x="983" d="M106 717q0 379 125 558t390 179q140 0 245 -49q21 -11 17 -25l-13 -30q-6 -21 -24 -13q-98 43 -219 43q-230 0 -334 -158q-105 -159 -105 -505t107 -504t340 -158q131 0 225 45q12 5 23 -14l14 -33q6 -13 -16 -20q-125 -51 -254 -51q-267 0 -394 178t-127 557z" />
<glyph unicode="D" horiz-adv-x="1124" d="M160 16v1401q0 19 18 19h275q285 0 426 -159t141 -554q0 -405 -140 -563q-142 -160 -425 -160h-277q-18 0 -18 16zM238 74h217q121 0 205 28q85 28 150 101q65 72 96 200q32 131 32 320q0 183 -32 313q-32 128 -97 198q-66 71 -151 99q-87 29 -205 29h-215v-1288z" />
<glyph unicode="E" horiz-adv-x="907" d="M160 16v1401q0 19 18 19h610q19 0 19 -19v-39q0 -16 -19 -16h-550v-590h534q19 0 19 -18v-37q0 -19 -19 -19h-534v-624h555q18 0 18 -17v-39q0 -18 -18 -18h-615q-18 0 -18 16z" />
<glyph unicode="F" horiz-adv-x="878" d="M160 16v1401q0 19 18 19h604q19 0 19 -19v-39q0 -16 -19 -16h-544v-596h532q18 0 18 -16v-39q0 -17 -18 -17h-532v-678q0 -16 -17 -16h-43q-18 0 -18 16z" />
<glyph unicode="G" horiz-adv-x="1103" d="M106 719q0 384 131 560q130 175 412 175q148 0 262 -51q21 -11 17 -25l-13 -32q-6 -21 -24 -13q-132 47 -240 47q-247 0 -354 -155q-109 -157 -109 -506q0 -351 109 -508q108 -156 354 -156q138 0 240 45v613h-311q-19 0 -19 18v37q0 16 19 16h370q19 0 19 -16v-688 q0 -22 -25 -39q-112 -59 -295 -59q-281 0 -411 175q-132 178 -132 562z" />
<glyph unicode="H" horiz-adv-x="1153" d="M160 16v1401q0 19 18 19h43q17 0 17 -19v-645h675v645q0 19 19 19h43q18 0 18 -19v-1401q0 -16 -18 -16h-43q-19 0 -19 16v682h-675v-682q0 -16 -17 -16h-43q-18 0 -18 16z" />
<glyph unicode="I" horiz-adv-x="419" d="M172 16v1401q0 19 16 19h43q19 0 19 -19v-1401q0 -16 -19 -16h-43q-16 0 -16 16z" />
<glyph unicode="J" horiz-adv-x="743" d="M55 57l11 35q6 20 22 10q80 -45 193 -45q122 0 177 70q54 69 54 223v1067q0 19 14 19h45q17 0 17 -19v-1073q0 -185 -73 -273q-72 -87 -232 -87q-126 0 -211 49q-21 8 -17 24z" />
<glyph unicode="K" horiz-adv-x="976" d="M160 16v1401q0 19 18 19h43q17 0 17 -19v-624l579 628q15 15 27 15h57q12 0 14 -8t-4 -15l-612 -661l629 -729q6 -8 3 -16q-3 -7 -11 -7h-62q-13 0 -27 14l-593 691v-689q0 -16 -17 -16h-43q-18 0 -18 16z" />
<glyph unicode="L" horiz-adv-x="864" d="M160 16v1401q0 19 18 19h43q17 0 17 -19v-1343h532q21 0 21 -19v-39q0 -16 -21 -16h-592q-18 0 -18 16z" />
<glyph unicode="M" horiz-adv-x="1318" d="M160 16v1401q0 19 18 19h45q17 0 25 -15l414 -852l411 852q6 15 23 15h47q16 0 16 -19v-1401q0 -16 -16 -16h-43q-19 0 -19 16v1264l-397 -817q-8 -17 -22 -17q-19 0 -27 17l-397 817v-1264q0 -16 -17 -16h-43q-18 0 -18 16z" />
<glyph unicode="N" horiz-adv-x="1163" d="M160 16v1401q0 19 18 19h43q21 0 27 -15l680 -1276v1272q0 19 16 19h43q17 0 17 -19v-1401q0 -16 -17 -16h-45q-20 0 -27 14l-677 1274v-1272q0 -16 -17 -16h-43q-18 0 -18 16z" />
<glyph unicode="O" horiz-adv-x="1183" d="M104 717q0 378 121 557q121 180 367 180q245 0 365 -179t120 -558q0 -377 -120 -556t-363 -179q-246 0 -368 179t-122 556zM186 717q0 -345 99 -504q100 -160 307 -160q208 0 307 161q98 159 98 503t-98 503q-99 160 -307 160t-307 -159t-99 -504z" />
<glyph unicode="P" horiz-adv-x="1042" d="M160 16v1401q0 19 18 19h275q263 0 375 -110t112 -374q0 -265 -112 -374t-375 -109h-215v-453q0 -16 -17 -16h-43q-18 0 -18 16zM238 543h215q227 0 316 89t89 320q0 232 -89 321t-316 89h-215v-819z" />
<glyph unicode="Q" horiz-adv-x="1183" d="M104 719q0 378 121 556q122 179 367 179t365 -179q120 -178 120 -556q0 -694 -430 -727q121 -78 291 -78q19 0 31 1t26 1q25 0 25 -18v-31q0 -15 -9 -19q-8 -4 -38 -4q-258 0 -426 142q-224 17 -333 194q-110 179 -110 539zM186 719q0 -345 99 -505q99 -161 307 -161 t307 161q98 159 98 505q0 345 -98 502q-99 159 -305 159q-210 0 -309 -159t-99 -502z" />
<glyph unicode="R" horiz-adv-x="1064" d="M160 16v1401q0 19 18 19h287q264 0 377 -104q112 -103 112 -347q0 -215 -89 -321q-88 -105 -283 -121l358 -520q6 -8 3 -16q-3 -7 -13 -7h-49q-17 0 -27 14l-358 521h-258v-519q0 -16 -17 -16h-43q-18 0 -18 16zM238 608h233q219 0 311 84t92 293q0 211 -92 294t-317 83 h-227v-754z" />
<glyph unicode="S" horiz-adv-x="888" d="M90 45l12 35q6 18 21 12q96 -39 270 -39q163 0 246 75q82 75 82 206q0 72 -23 130q-22 56 -76 104t-93 73q-65 41 -119 72q-82 47 -119 72q-35 23 -93 78q-52 49 -75 113t-23 144q0 334 379 334q136 0 248 -41q17 -6 16 -22l-10 -35q-5 -19 -22 -13q-87 37 -230 37 q-163 0 -231 -67q-70 -68 -70 -193q0 -65 19 -119q17 -50 65 -94q41 -39 80 -65q36 -24 109 -66q64 -36 105 -61q25 -15 88 -65q60 -47 83 -84q26 -40 47 -100q23 -64 23 -134q0 -166 -102 -258q-103 -92 -302 -92q-180 0 -289 41q-20 10 -16 22z" />
<glyph unicode="T" horiz-adv-x="868" d="M57 1378v39q0 19 19 19h719q16 0 16 -19v-39q0 -16 -16 -16h-322v-1346q0 -16 -16 -16h-43q-19 0 -19 16v1346h-319q-19 0 -19 16z" />
<glyph unicode="U" horiz-adv-x="1134" d="M152 453v964q0 19 16 19h43q18 0 18 -19v-960q0 -211 78 -309q78 -97 260 -97t260 97q78 98 78 309v960q0 19 17 19h45q18 0 18 -19v-964q0 -243 -100 -358t-318 -115t-317 115q-98 114 -98 358z" />
<glyph unicode="V" horiz-adv-x="1073" d="M68 1415q-7 21 14 21h45q14 0 20 -19l287 -956l98 -363h7l100 361l287 958q6 19 20 19h45q23 0 15 -21l-418 -1397q-6 -18 -23 -18h-57q-19 0 -25 18z" />
<glyph unicode="W" horiz-adv-x="1671" d="M80 1413q-6 23 14 23h45q17 0 23 -19l219 -928l86 -391h6l92 394l223 925q2 19 25 19h47q17 0 23 -19l223 -925l90 -394h6l88 391l221 928q5 19 21 19h45q20 0 14 -23l-336 -1393q-6 -20 -24 -20h-60q-18 0 -24 18l-234 951l-75 334h-4l-78 -334l-232 -951 q-6 -18 -22 -18h-62q-18 0 -24 20z" />
<glyph unicode="X" horiz-adv-x="1013" d="M61 20l402 709l-387 686q-12 21 12 21h49q15 0 23 -15l346 -622l344 622q6 15 22 15h54q22 0 10 -21l-387 -686l401 -709q11 -20 -10 -20h-49q-20 0 -27 14l-358 645l-359 -645q-6 -14 -24 -14h-49q-24 0 -13 20z" />
<glyph unicode="Y" horiz-adv-x="1046" d="M68 1415q-8 19 12 19h47q17 0 25 -15l266 -557l102 -229h4l105 229l266 557q6 15 25 15h47q20 0 12 -19l-416 -860v-537q0 -18 -18 -18h-43q-19 0 -19 18v537z" />
<glyph unicode="Z" horiz-adv-x="952" d="M98 16v39q0 5 11 27l647 1280h-621q-18 0 -18 16v39q0 19 18 19h694q17 0 17 -19v-37q0 -12 -8 -28l-648 -1278h646q16 0 16 -17v-41q0 -16 -16 -16h-721q-17 0 -17 16z" />
<glyph unicode="[" horiz-adv-x="581" d="M207 -209v1626q0 19 18 19h244q14 0 14 -19v-31q0 -18 -14 -18h-188v-1528h188q14 0 14 -16v-33q0 -16 -14 -16h-244q-18 0 -18 16z" />
<glyph unicode="\" horiz-adv-x="684" d="M20 1415q-6 21 15 21h41q16 0 22 -17l566 -1401q6 -18 -15 -18h-39q-18 0 -24 16z" />
<glyph unicode="]" horiz-adv-x="583" d="M100 -176q0 16 19 16h184v1528h-184q-19 0 -19 18v31q0 19 19 19h241q17 0 17 -19v-1626q0 -16 -17 -16h-241q-19 0 -19 16v33z" />
<glyph unicode="^" horiz-adv-x="1054" d="M133 731l352 688q8 17 25 17h35q16 0 22 -17l355 -688q7 -20 -13 -20h-43q-18 0 -24 14l-316 616l-313 -616q-7 -14 -25 -14h-43q-23 0 -12 20z" />
<glyph unicode="_" horiz-adv-x="823" d="M45 -119q0 17 16 17h701q16 0 16 -17v-26q0 -17 -16 -17h-701q-16 0 -16 17v26z" />
<glyph unicode="`" horiz-adv-x="579" d="M173 1401q2 8 13 8h62q18 0 33 -18l122 -179q0 -1 1.5 -3.5t1.5 -4.5q0 -3 -4 -7q-3 -3 -9 -3h-24q-13 0 -25 12l-166 178q-7 8 -5 17z" />
<glyph unicode="a" d="M78 285q0 76 20 129q21 55 63 91t93 60q52 25 128 38q86 15 148 19q93 6 172 7v125q0 136 -56 195q-58 61 -189 61q-102 0 -281 -58q-15 -6 -20 13l-9 32q-5 17 13 23q134 57 303 57q161 0 237 -78q76 -77 76 -241v-742q0 -16 -18 -16h-37q-19 0 -19 16v177 q-78 -205 -331 -205q-140 0 -217 80q-76 79 -76 217zM149 287q0 -108 58 -172t174 -64q150 0 235 94q86 95 86 238v184q-123 -6 -149 -8q-68 -6 -129 -13q-72 -8 -116 -28q-39 -17 -82 -48q-41 -29 -59 -76q-18 -46 -18 -107z" />
<glyph unicode="b" horiz-adv-x="1007" d="M145 16v1401q0 19 19 19h41q16 0 16 -19v-571q34 108 118 170q82 61 204 61q372 0 372 -547q0 -548 -372 -548q-121 0 -205 60t-119 169v-195q0 -16 -14 -16h-41q-19 0 -19 16zM221 530q0 -238 81 -359q81 -122 235 -122q303 0 303 481q0 480 -303 480q-154 0 -235 -122 t-81 -358z" />
<glyph unicode="c" horiz-adv-x="790" d="M92 530q0 547 393 547q128 0 213 -43q19 -11 15 -24l-13 -31q-6 -16 -22 -10q-79 41 -186 41q-168 0 -246 -119t-78 -361q0 -479 319 -479q120 0 199 41q19 12 23 -8l10 -33q4 -11 -14 -22q-96 -47 -216 -47q-397 0 -397 548z" />
<glyph unicode="d" horiz-adv-x="1007" d="M92 530q0 267 94 407t279 140q120 0 203 -61t118 -170v571q0 19 17 19h41q18 0 18 -19v-1401q0 -16 -18 -16h-41q-17 0 -17 16v197q-35 -109 -117 -170t-204 -61q-185 0 -279 140t-94 408zM168 530q0 -481 303 -481q153 0 236 122q81 119 81 359q0 239 -81 358 q-83 122 -236 122q-303 0 -303 -480z" />
<glyph unicode="e" d="M92 530q0 547 377 547q181 0 266 -133q86 -134 86 -366v-68q0 -16 -16 -16h-637q5 -225 88 -335q85 -112 260 -112q153 0 232 47q12 11 20 -12l10 -29q4 -11 -14 -22q-111 -51 -252 -51q-420 0 -420 550zM168 559h580v21q0 432 -279 432q-295 0 -301 -453z" />
<glyph unicode="f" horiz-adv-x="573" d="M49 1008v32q0 17 17 17h141v104q0 145 53 215t170 70q51 0 96 -12q17 -5 15 -23l-2 -27q0 -22 -21 -16q-36 10 -82 10q-86 0 -121 -53q-34 -52 -34 -172v-96h229q16 0 16 -17v-32q0 -19 -16 -19h-229v-973q0 -16 -17 -16h-39q-18 0 -18 16v973h-141q-17 0 -17 19z" />
<glyph unicode="g" horiz-adv-x="966" d="M92 578q0 238 89 369q88 130 263 130q114 0 194 -59q81 -60 114 -160v182q0 17 18 17h39q16 0 16 -17v-915q0 -371 -366 -371q-139 0 -275 58q-22 7 -16 20l12 33q4 16 21 10q126 -53 256 -53q147 0 221 74t74 233v174q-33 -103 -113 -163q-79 -60 -193 -60 q-171 0 -263 131q-91 130 -91 367zM168 578q0 -210 72 -321q73 -112 213 -112q142 0 222 116q79 115 79 325q0 204 -78 315t-223 111q-285 0 -285 -434z" />
<glyph unicode="h" horiz-adv-x="985" d="M145 16v1401q0 19 19 19h41q16 0 16 -19v-547q30 84 112 146q80 61 212 61q152 0 228 -91q77 -92 77 -251v-719q0 -16 -16 -16h-39q-19 0 -19 16v713q0 279 -241 279q-136 0 -226 -93q-88 -91 -88 -237v-660q0 -18 -16 -18h-41q-19 0 -19 16z" />
<glyph unicode="i" horiz-adv-x="376" d="M147 1235v160q0 16 19 16h45q16 0 16 -16v-160q0 -16 -16 -16h-45q-19 0 -19 16zM150 16v1024q0 17 18 17h41q14 0 14 -17v-1024q0 -16 -14 -16h-41q-18 0 -18 16z" />
<glyph unicode="j" horiz-adv-x="391" d="M-16 -205l2 33q0 13 20 12q29 -6 60 -6q57 0 78 38q22 39 22 122v1046q0 17 18 17h39q17 0 17 -17v-1052q0 -112 -38 -167q-38 -54 -130 -54q-42 0 -72 6q-16 6 -16 22zM164 1235v160q0 16 18 16h43q17 0 17 -16v-160q0 -16 -17 -16h-43q-18 0 -18 16z" />
<glyph unicode="k" horiz-adv-x="804" d="M145 16v1401q0 19 19 19h41q16 0 16 -19v-786l432 416q14 10 29 10h57q7 0 11 -3q5 -3 3 -10q-1 -5 -8 -10l-471 -442l490 -569q8 -8 4 -16q-4 -7 -14 -7h-54q-19 0 -30 14l-449 531v-529q0 -16 -16 -16h-41q-19 0 -19 16z" />
<glyph unicode="l" horiz-adv-x="376" d="M150 16v1401q0 19 18 19h41q14 0 14 -19v-1401q0 -16 -14 -16h-41q-18 0 -18 16z" />
<glyph unicode="m" horiz-adv-x="1517" d="M139 16v1024q0 17 19 17h41q16 0 16 -17v-163q24 78 103 139t196 61q227 0 266 -211q28 85 112 149q81 62 206 62q141 0 213 -89q71 -87 71 -245v-727q0 -16 -18 -16h-39q-18 0 -18 16v723q0 269 -220 269q-123 0 -206 -86q-82 -85 -82 -222v-684q0 -16 -19 -16h-39 q-16 0 -16 16v723q0 269 -221 269q-123 0 -206 -92t-83 -230v-670q0 -16 -16 -16h-41q-19 0 -19 16z" />
<glyph unicode="n" horiz-adv-x="976" d="M139 16v1024q0 17 19 17h39q16 0 16 -17v-170q35 85 114 146t210 61q153 0 228 -90t75 -252v-719q0 -16 -17 -16h-39q-18 0 -18 16v715q0 277 -240 277q-136 0 -225 -94q-88 -92 -88 -238v-660q0 -16 -16 -16h-39q-19 0 -19 16z" />
<glyph unicode="o" horiz-adv-x="964" d="M92 530q0 547 391 547q389 0 389 -547q0 -548 -389 -548q-391 0 -391 548zM168 530q0 -481 315 -481q312 0 312 481q0 480 -312 480q-315 0 -315 -480z" />
<glyph unicode="p" horiz-adv-x="1001" d="M139 -209v1249q0 17 19 17h39q16 0 16 -17v-194q38 109 120 170t204 61q372 0 372 -547q0 -548 -372 -548q-121 0 -204 60q-83 61 -118 169v-420q0 -16 -16 -16h-41q-19 0 -19 16zM215 530q0 -238 81 -359q81 -122 234 -122q304 0 304 481q0 480 -304 480 q-153 0 -234 -122t-81 -358z" />
<glyph unicode="q" horiz-adv-x="1001" d="M92 530q0 267 94 407t279 140q120 0 203 -61t118 -170v194q0 17 17 17h41q18 0 18 -17v-1249q0 -16 -18 -16h-41q-17 0 -17 16v422q-35 -109 -117 -170t-204 -61q-185 0 -279 140t-94 408zM168 530q0 -481 303 -481q153 0 236 122q81 119 81 359q0 239 -81 358 q-83 122 -236 122q-303 0 -303 -480z" />
<glyph unicode="r" horiz-adv-x="591" d="M139 16v1024q0 17 19 17h41q16 0 16 -17v-209q23 91 104 165q83 75 199 75q23 0 23 -20v-43q0 -19 -17 -19q-8 0 -16 1t-19 1q-109 0 -191 -110q-83 -112 -83 -260v-605q0 -16 -16 -16h-41q-19 0 -19 16z" />
<glyph unicode="s" horiz-adv-x="763" d="M76 49l8 29q4 18 22 12q120 -41 248 -41q256 0 256 217q0 24 -3 45q-3 22 -13 39q-4 7 -9.5 18t-7.5 14q-8 14 -28 30q-23 18 -29 24q-9 9 -38 25q-30 17 -39 21q-2 1 -8.5 4.5t-16.5 9t-21 10.5q-31 15 -47 24q-144 72 -190 115q-76 72 -76 180q0 252 305 252 q142 0 232 -37q20 -6 14 -22l-8 -31q-4 -16 -21 -10q-110 35 -211 35q-123 0 -180 -45t-57 -142q0 -49 14 -81q15 -35 56 -64q40 -28 68 -45q23 -14 97 -49q161 -84 205 -123q86 -77 86 -197q0 -137 -83 -211q-82 -73 -243 -73q-160 0 -268 45q-15 6 -14 22z" />
<glyph unicode="t" horiz-adv-x="595" d="M37 1008v32q0 17 18 17h142v272q0 19 16 19h39q16 0 16 -19v-272h242q18 0 18 -17v-32q0 -19 -18 -19h-242v-715q0 -128 34 -172q34 -45 124 -45q17 0 86 11q16 4 18 -15l7 -30q5 -19 -15 -21q-50 -12 -102 -12q-121 0 -173 61t-52 217v721h-140q-18 0 -18 19z" />
<glyph unicode="u" horiz-adv-x="964" d="M131 336v704q0 17 19 17h40q17 0 17 -17v-698q0 -291 246 -291q133 0 215 94t82 240v655q0 17 16 17h41q16 0 16 -17v-1024q0 -16 -16 -16h-41q-16 0 -16 16v172q-28 -80 -105 -144q-75 -62 -203 -62q-158 0 -234 93q-77 94 -77 261z" />
<glyph unicode="v" horiz-adv-x="821" d="M55 1038q-6 19 15 19h43q14 0 20 -17l195 -657l82 -283h4l82 283l196 657q6 17 21 17h43q18 0 12 -19l-313 -1022q-4 -16 -21 -16h-47q-16 0 -20 16z" />
<glyph unicode="w" horiz-adv-x="1320" d="M72 1038q-6 19 14 19h41q18 0 20 -17l181 -729l47 -215h4l49 215l190 731q2 15 19 15h45q18 0 20 -15l189 -731l49 -215h4l47 215l180 729q2 17 21 17h43q18 0 12 -19l-258 -1022q-4 -16 -22 -16h-47q-19 0 -23 16l-182 705l-53 227h-5l-51 -227l-186 -705 q-4 -16 -23 -16h-45q-18 0 -22 16z" />
<glyph unicode="x" horiz-adv-x="831" d="M59 20l314 517l-305 499q-15 21 8 21h49q18 0 22 -10l269 -447l268 447q4 10 23 10h47q20 0 10 -21l-307 -499l317 -517q11 -20 -10 -20h-49q-15 0 -21 12l-278 463l-279 -463q-6 -12 -20 -12h-49q-20 0 -9 20z" />
<glyph unicode="y" horiz-adv-x="829" d="M59 1038q-6 19 13 19h45q14 0 20 -17l205 -659l84 -279h4l80 279l186 659q6 17 21 17h43q20 0 14 -19l-299 -1013q-39 -140 -93 -200q-55 -61 -161 -61q-56 0 -110 17q-18 6 -17 20l8 31q6 16 23 14q43 -14 94 -14q91 0 135 78q30 53 30 99q0 22 -7 42z" />
<glyph unicode="z" horiz-adv-x="821" d="M92 16v29q0 15 6 21l529 923h-506q-17 0 -17 17v34q0 17 17 17h581q17 0 17 -17v-28q0 -10 -8 -23l-527 -921h525q18 0 18 -15v-37q0 -16 -18 -16h-600q-17 0 -17 16z" />
<glyph unicode="{" horiz-adv-x="581" d="M86 586v37q0 18 18 18h25q65 0 92 98q27 99 27 324q0 204 38 289q38 84 158 84h56q18 0 18 -19v-33q0 -16 -18 -16h-47q-83 0 -108 -69q-26 -70 -26 -242q0 -238 -28 -335q-29 -100 -92 -118q63 -18 92 -118q28 -97 28 -332q0 -174 26 -244t108 -70h47q18 0 18 -16v-33 q0 -16 -18 -16h-56q-120 0 -158 84q-38 85 -38 286q0 227 -27 326q-27 98 -92 98h-25q-18 0 -18 17z" />
<glyph unicode="|" horiz-adv-x="489" d="M209 -209v1665q0 19 18 19h37q19 0 19 -19v-1665q0 -16 -19 -16h-37q-18 0 -18 16z" />
<glyph unicode="}" horiz-adv-x="581" d="M63 -176q0 16 19 16h49q82 0 108 70q25 68 25 244q0 231 29 332q29 100 90 118q-61 18 -90 118q-29 101 -29 335q0 174 -25 242q-25 69 -108 69h-49q-19 0 -19 16v33q0 19 19 19h57q121 0 159 -84q38 -85 38 -289q0 -229 26 -324q27 -98 93 -98h24q17 0 17 -18v-37 q0 -17 -17 -17h-24q-66 0 -93 -98q-26 -95 -26 -326q0 -203 -38 -287q-38 -83 -159 -83h-57q-19 0 -19 16v33z" />
<glyph unicode="~" horiz-adv-x="1054" d="M137 674q45 157 176 157q68 0 176 -45l97 -38q102 -41 149 -41q62 0 99 59q9 14 20 49q6 17 25 6l28 -12q13 -6 8 -23q-41 -159 -174 -159q-59 0 -178 45l-100 41q-97 41 -144 41q-63 0 -100 -60q-9 -14 -20 -49q-5 -18 -25 -8l-29 14q-13 6 -8 23z" />
<glyph unicode="&#xa1;" horiz-adv-x="454" d="M170 915v125q0 17 18 17h78q19 0 19 -17v-125q0 -18 -19 -18h-78q-18 0 -18 18zM182 -209l13 875q0 18 16 18h33q16 0 16 -18l12 -875q0 -16 -16 -16h-57q-17 0 -17 16z" />
<glyph unicode="&#xa2;" horiz-adv-x="827" d="M94 528q0 519 371 549v158q0 16 18 16h31q18 0 18 -16v-158q93 -5 197 -47q18 -6 12 -22l-8 -29q-7 -20 -22 -12q-85 43 -201 43q-340 0 -340 -482q0 -241 82 -359t260 -118q120 0 205 43q18 10 22 -10l11 -31q4 -14 -15 -22q-85 -46 -203 -47v-160q0 -19 -18 -19h-31 q-18 0 -18 19v160q-371 24 -371 544z" />
<glyph unicode="&#xa3;" horiz-adv-x="1114" d="M92 35q-8 12 6 18q262 141 262 387q0 105 -63 258h-182q-17 0 -17 17v33q0 14 17 14h153q-84 196 -84 330q0 159 104 261q102 101 304 101q191 0 284 -90t93 -236q0 -77 -23 -77h-35q-18 0 -18 16q0 17 1 31t1 30q0 116 -74 185q-73 69 -225 69q-164 0 -249 -79t-85 -211 q0 -114 88 -330h359q16 0 16 -14v-33q0 -17 -16 -17h-334q65 -148 65 -262q0 -105 -52 -200q-53 -98 -152 -152q99 33 167 33q75 0 190 -30t187 -30q101 0 136 70q34 68 34 190q0 19 19 19h35q20 0 20 -19q0 -71 -9 -123q-9 -54 -33 -103q-24 -50 -74 -77q-48 -26 -124 -26 q-85 0 -195 29q-114 30 -200 30q-145 0 -252 -55q-16 -7 -22 4z" />
<glyph unicode="&#xa4;" horiz-adv-x="1112" d="M129 174q-15 15 0 25l117 116q-68 103 -68 265t68 262l-117 119q-12 12 0 24l23 21q12 10 22 0l113 -111q97 115 268 115t268 -115l113 111q12 12 25 0l22 -21q12 -12 0 -24l-119 -119q68 -107 68 -262q0 -160 -68 -263l119 -118q15 -15 0 -25l-22 -20q-13 -12 -25 0 l-113 112q-91 -116 -268 -116t-268 116l-113 -112q-7 -10 -22 0zM246 580q0 -179 82 -273t227 -94q148 0 227 94q80 95 80 273q0 177 -80 272q-79 94 -227 94q-145 0 -227 -94t-82 -272z" />
<glyph unicode="&#xa5;" horiz-adv-x="1079" d="M63 1415q-7 21 13 21h47q14 0 22 -17l394 -807h2l393 807q8 17 24 17h48q20 0 12 -21l-326 -653h250q14 0 14 -17v-30q0 -17 -14 -17h-280l-84 -170v-55h364q14 0 14 -18v-29q0 -18 -14 -18h-364v-392q0 -16 -17 -16h-43q-16 0 -16 16v392h-363q-16 0 -16 18v29 q0 18 16 18h363v55l-84 170h-279q-16 0 -16 17v30q0 17 16 17h248z" />
<glyph unicode="&#xa6;" horiz-adv-x="489" d="M209 -209v641q0 19 18 19h37q19 0 19 -19v-641q0 -16 -19 -16h-37q-18 0 -18 16zM209 815v641q0 19 18 19h37q19 0 19 -19v-641q0 -16 -19 -16h-37q-18 0 -18 16z" />
<glyph unicode="&#xa7;" horiz-adv-x="1185" d="M195 643q0 106 75 182q77 78 205 90q-103 61 -159 121t-56 152q0 131 84 197q85 67 279 67q100 0 286 -39q19 -2 19 -22v-29q0 -22 -23 -14q-125 36 -278 36q-159 0 -226 -50q-65 -49 -65 -150q0 -46 19 -83q20 -38 71 -74q43 -30 95 -59q35 -19 132 -67q106 -54 130 -68 q46 -27 101 -69q57 -44 81 -91q24 -48 24 -108q0 -94 -76 -166q-77 -72 -206 -90q229 -123 229 -278q0 -264 -389 -264q-195 0 -281 30q-20 6 -20 25v28q0 22 22 15q102 -33 275 -33q317 0 317 201q0 25 -6 46q-7 23 -20 42q-15 21 -27 36t-39 33t-42 30q-12 10 -49 29 l-31 15.5t-18 8.5q-5 2 -22.5 10.5t-30.5 14.5q-25 12 -49 24q-87 42 -137 69q-39 22 -97 65q-56 42 -76 84q-21 44 -21 103zM268 643q0 -45 23 -83t65 -67q47 -33 98 -58q54 -27 126 -60q46 -21 51 -23q120 6 203 71q81 63 81 144q0 51 -26 91q-27 43 -85 81 q-61 41 -109 64q-51 25 -142 65q-126 -1 -206 -66q-79 -64 -79 -159z" />
<glyph unicode="&#xa8;" horiz-adv-x="579" d="M102 1210v115q0 18 17 18h49q16 0 16 -18v-115q0 -16 -16 -16h-49q-17 0 -17 16zM395 1210v115q0 18 19 18h47q18 0 18 -18v-115q0 -16 -18 -16h-47q-19 0 -19 16z" />
<glyph unicode="&#xa9;" horiz-adv-x="1529" d="M123 717q0 204 63 366t212 267q147 104 366 104q168 0 292 -59q125 -60 200 -163q76 -105 113 -234q38 -132 38 -281q0 -150 -38 -282q-37 -128 -113 -233q-76 -104 -200 -162q-125 -58 -292 -58q-165 0 -290 58q-126 58 -201 162q-75 103 -112 233q-38 132 -38 282z M184 717q0 -295 144 -486q144 -190 436 -190q293 0 437 190q145 192 145 486q0 141 -33 260t-101 214t-182 149q-116 55 -266 55q-149 0 -265 -55q-114 -54 -182 -149q-66 -93 -100 -214q-33 -119 -33 -260zM463 719q0 428 336 428q107 0 180 -37q15 -6 10 -18l-8 -31 q-6 -16 -18 -10q-55 32 -158 32q-268 0 -268 -364q0 -363 266 -363q93 0 166 33q12 4 16 -10l8 -31q2 -12 -10 -18q-81 -37 -184 -37q-336 0 -336 426z" />
<glyph unicode="&#xaa;" horiz-adv-x="768" d="M66 1229q0 73 27 126q26 51 71 82q41 28 117 47q67 16 140 23q86 8 167 9v102q0 108 -47 155q-46 46 -156 46q-143 0 -233 -45q-16 -10 -21 8l-8 30q-2 16 12 21q113 49 252 49q270 0 270 -260v-604q0 -19 -20 -19h-31q-16 0 -16 19v129q-72 -158 -275 -158 q-118 0 -184 66q-65 65 -65 174zM133 1229q0 -84 48 -132t143 -48q126 0 194 74q70 76 70 190v143q-91 -2 -149 -6q-66 -5 -123 -17q-65 -14 -100 -37q-34 -23 -59 -66q-24 -42 -24 -101z" />
<glyph unicode="&#xab;" horiz-adv-x="651" d="M78 535q0 4 2 12l141 268q7 14 21 14h39q21 0 10 -18l-141 -276l141 -275q11 -18 -10 -18h-39q-15 0 -21 12l-141 272q-2 6 -2 9zM330 535l4 12l139 268q6 14 21 14h41q17 0 10 -18l-142 -276l142 -275q7 -18 -10 -18h-41q-15 0 -21 12l-139 272z" />
<glyph unicode="&#xac;" horiz-adv-x="1056" d="M119 707v34q0 17 18 17h733q17 0 17 -17v-379q0 -16 -17 -16h-36q-19 0 -19 16v326h-678q-18 0 -18 19z" />
<glyph unicode="&#xad;" horiz-adv-x="667" d="M86 520v37q0 16 18 16h461q17 0 17 -16v-37q0 -14 -17 -14h-461q-18 0 -18 14z" />
<glyph unicode="&#xae;" horiz-adv-x="856" d="M98 1094q0 153 86 257q85 103 244 103t244 -103q86 -104 86 -257t-86 -257t-244 -104t-244 104t-86 257zM143 1094q0 -135 74 -226q74 -90 211 -90q138 0 211 90q74 91 74 226q0 134 -74 225q-74 90 -211 90q-138 0 -211 -90q-74 -91 -74 -225zM311 909v379q0 12 13 12 h106q154 0 154 -129q0 -113 -103 -124l92 -136q7 -14 -8 -14h-28q-9 0 -17 8l-92 137h-68v-133q0 -12 -10 -12h-26q-13 0 -13 12zM360 1087h66q60 0 84 19q22 18 22 65q0 46 -22 65t-84 19h-66v-168z" />
<glyph unicode="&#xaf;" horiz-adv-x="579" d="M59 1227v26q0 17 19 17h426q16 0 16 -17v-26q0 -17 -16 -17h-426q-19 0 -19 17z" />
<glyph unicode="&#xb0;" horiz-adv-x="643" d="M82 1200q0 115 64 185q65 71 176 71q110 0 176 -71q65 -69 65 -183t-65 -185q-67 -73 -176 -73q-112 0 -176 72q-64 71 -64 184zM143 1200q0 -88 48 -142t131 -54q82 0 130 54t48 142t-48 143q-48 56 -130 56q-83 0 -131 -56q-48 -55 -48 -143z" />
<glyph unicode="&#xb1;" horiz-adv-x="1054" d="M106 16v31q0 19 19 19h805q16 0 16 -19v-31q0 -16 -16 -16h-805q-19 0 -19 16zM106 715v35q0 18 19 18h367v401q0 19 16 19h39q16 0 16 -19v-401h367q16 0 16 -18v-35q0 -17 -16 -17h-367v-405q0 -17 -16 -17h-39q-16 0 -16 17v405h-367q-19 0 -19 17z" />
<glyph unicode="&#xb2;" horiz-adv-x="692" d="M84 1020v24q0 13 10 23q84 72 136 121q45 42 128 132q75 81 115 164q39 81 39 156q0 183 -178 183q-176 0 -176 -162q0 -18 4 -51q0 -19 -19 -19h-30q-13 0 -19 17q-6 30 -6 53q0 102 59 162q60 61 189 61q246 0 246 -242q0 -82 -37 -166t-107 -165q-59 -68 -123 -132 q-55 -55 -129 -116h396q18 0 18 -19v-24q0 -21 -18 -21h-480q-18 0 -18 21z" />
<glyph unicode="&#xb3;" horiz-adv-x="692" d="M80 1047l6 26q5 18 23 12q81 -34 180 -34q221 0 221 192q0 180 -191 180h-73q-21 0 -21 19v24q0 21 21 21h73q79 0 125 43q48 45 48 129q0 162 -199 162q-73 0 -168 -31q-21 -7 -25 8l-8 29q-2 13 14 20q73 37 191 37q264 0 264 -223q0 -156 -125 -203q63 -15 104 -67 q42 -53 42 -148q0 -256 -289 -256q-119 0 -201 39q-16 6 -12 21z" />
<glyph unicode="&#xb4;" horiz-adv-x="579" d="M174 1204q0 4 4 8l123 179q11 18 31 18h63q11 0 13 -8t-7 -17l-165 -178q-10 -12 -23 -12h-27q-6 0 -9 3t-3 7z" />
<glyph unicode="&#xb5;" horiz-adv-x="966" d="M139 -209v1249q0 17 19 17h41q16 0 16 -17v-657q0 -146 82 -240t215 -94q244 0 244 291v700q0 17 18 17h41q16 0 16 -17v-706q0 -169 -76 -261q-77 -93 -233 -93q-129 0 -204 62q-76 63 -103 144v-395q0 -16 -16 -16h-41q-19 0 -19 16z" />
<glyph unicode="&#xb6;" horiz-adv-x="888" d="M96 1028q0 196 112 302t306 106h313q19 0 19 -19v-28q0 -17 -19 -17h-71q-62 0 -85 -26q-24 -27 -24 -97v-1267q0 -116 -43 -165q-44 -50 -143 -50q-49 0 -90 12q-18 6 -17 20l2 27q2 17 19 12q48 -8 80 -8q67 0 94 36q26 35 26 122v635h-55q-191 0 -307 106 q-117 107 -117 299z" />
<glyph unicode="&#xb7;" horiz-adv-x="364" d="M127 467v125q0 16 18 16h74q19 0 19 -16v-125q0 -16 -17 -16h-78q-16 0 -16 16z" />
<glyph unicode="&#xb8;" horiz-adv-x="579" d="M236 18h53q76 -30 123 -83t47 -105q0 -115 -152 -115q-44 0 -55 4q-12 5 -12 19v22q0 13 14 13h45q94 0 94 65q0 101 -157 180z" />
<glyph unicode="&#xb9;" horiz-adv-x="692" d="M133 1649q-12 14 2 24l223 191q13 8 25 8h29q18 0 18 -21v-831q0 -21 -18 -21h-31q-19 0 -19 21v756l-184 -154q-15 -12 -26 4z" />
<glyph unicode="&#xba;" horiz-adv-x="796" d="M72 1436q0 446 327 446q324 0 324 -446q0 -449 -324 -449q-161 0 -244 115t-83 334zM145 1436q0 -387 254 -387t254 387q0 385 -254 385t-254 -385z" />
<glyph unicode="&#xbb;" horiz-adv-x="651" d="M109 260l139 275l-139 276q-10 18 8 18h41q14 0 20 -14l139 -268q2 -8 2 -12q0 -3 -2 -9l-139 -272q-6 -12 -20 -12h-41q-19 0 -8 18zM360 260l142 275l-142 276q-10 18 9 18h41q13 0 20 -14l141 -268q2 -8 2 -12q0 -3 -2 -9l-141 -272q-6 -12 -20 -12h-41q-19 0 -9 18z " />
<glyph unicode="&#xbc;" horiz-adv-x="1654" d="M133 1212q-12 15 2 25l223 190q14 9 25 9h29q18 0 18 -21v-831q0 -21 -18 -21h-31q-19 0 -19 21v755l-184 -153q-15 -12 -26 4zM432 20l776 1399q11 17 27 17h41q22 0 12 -21l-778 -1399q-7 -16 -27 -16h-41q-24 0 -10 20zM1008 229v27q0 7 10 23l403 579q10 14 23 14h33 q18 0 18 -20v-580h111q20 0 20 -18v-25q0 -20 -20 -20h-111v-189q0 -20 -18 -20h-31q-21 0 -21 20v189h-397q-20 0 -20 20zM1090 272h335v494z" />
<glyph unicode="&#xbd;" horiz-adv-x="1654" d="M133 1212q-12 15 2 25l223 190q14 9 25 9h29q18 0 18 -21v-831q0 -21 -18 -21h-31q-19 0 -19 21v755l-184 -153q-15 -12 -26 4zM350 20l776 1399q11 17 27 17h41q22 0 12 -21l-778 -1399q-7 -16 -27 -16h-41q-24 0 -10 20zM1047 20q0 -20 18 -20h479q19 0 19 20v25 q0 18 -19 18h-395q74 61 129 116q64 64 123 132q68 78 106 165q37 84 37 167q0 242 -246 242q-128 0 -188 -62q-59 -60 -59 -161q0 -24 6 -54q6 -16 18 -16h31q18 0 18 18q-4 33 -4 52q0 161 176 161q179 0 179 -182q0 -76 -39 -157t-115 -163q-91 -98 -128 -133 q-40 -38 -136 -120q-10 -10 -10 -23v-25z" />
<glyph unicode="&#xbe;" horiz-adv-x="1654" d="M80 610l6 27q5 18 23 12q84 -35 180 -35q221 0 221 193q0 180 -191 180h-73q-21 0 -21 19v24q0 21 21 21h73q79 0 125 43q48 45 48 129q0 161 -199 161q-77 0 -168 -30q-21 -7 -25 8l-8 29q-2 13 14 20q73 37 191 37q264 0 264 -223q0 -156 -125 -203q62 -15 104 -68 q42 -52 42 -147q0 -256 -289 -256q-119 0 -201 39q-16 6 -12 20zM461 20l776 1399q11 17 27 17h41q23 0 12 -21l-778 -1399q-7 -16 -27 -16h-41q-24 0 -10 20zM1008 229v27q0 7 10 23l403 579q10 14 23 14h33q18 0 18 -20v-580h111q20 0 20 -18v-25q0 -20 -20 -20h-111v-189 q0 -20 -18 -20h-31q-21 0 -21 20v189h-397q-20 0 -20 20zM1090 272h335v494z" />
<glyph unicode="&#xbf;" horiz-adv-x="796" d="M106 51q0 -147 80 -218t252 -71q152 0 269 54q18 6 16 18l-12 35q-6 18 -23 12q-115 -47 -244 -47q-135 0 -196 52q-62 53 -62 167q0 58 29 116q26 52 71 102q42 47 84 96q41 49 70 112q29 64 29 133v54q0 18 -18 18h-43q-17 0 -17 -18v-54q0 -63 -30 -123t-70 -106 q-51 -59 -83 -94q-41 -45 -72 -109q-30 -62 -30 -129zM373 915v125q0 17 18 17h78q18 0 18 -17v-125q0 -18 -18 -18h-80q-16 0 -16 18z" />
<glyph unicode="&#xc0;" horiz-adv-x="1099" d="M59 18l443 1399q5 19 22 19h51q17 0 25 -19l442 -1399q6 -18 -14 -18h-47q-14 0 -20 16l-134 422h-555l-131 -422q-6 -16 -20 -16h-49q-19 0 -13 18zM295 510h512l-254 821h-4zM334 1739q2 8 12 8h64q17 0 32 -21l119 -167q4 -5 2 -13q-1 -6 -10 -6h-27q-12 0 -24 12 l-164 170q-6 7 -4 17z" />
<glyph unicode="&#xc1;" horiz-adv-x="1099" d="M59 18l443 1399q5 19 22 19h51q17 0 25 -19l442 -1399q6 -18 -14 -18h-47q-14 0 -20 16l-134 422h-555l-131 -422q-6 -16 -20 -16h-49q-19 0 -13 18zM295 510h512l-254 821h-4zM539 1559l118 167q17 21 31 21h64q10 0 13 -8q3 -9 -5 -17l-162 -170q-12 -12 -27 -12h-24 q-19 0 -8 19z" />
<glyph unicode="&#xc2;" horiz-adv-x="1099" d="M59 18l443 1399q5 19 22 19h51q17 0 25 -19l442 -1399q6 -18 -14 -18h-47q-14 0 -20 16l-134 422h-555l-131 -422q-6 -16 -20 -16h-49q-19 0 -13 18zM295 510h512l-254 821h-4zM336 1546q-2 7 4 13l162 174q14 14 28 14h39q17 0 31 -14l160 -174q6 -6 4 -13q-2 -6 -12 -6 h-31q-13 0 -25 12l-145 136l-148 -136q-17 -12 -22 -12h-33q-10 0 -12 6z" />
<glyph unicode="&#xc3;" horiz-adv-x="1099" d="M59 18l443 1399q5 19 22 19h51q17 0 25 -19l442 -1399q6 -18 -14 -18h-47q-14 0 -20 16l-134 422h-555l-131 -422q-6 -16 -20 -16h-49q-19 0 -13 18zM295 510h512l-254 821h-4zM295 1559q0 56 32 93q31 36 87 36q51 0 125 -39l51 -31q52 -29 90 -29q55 0 63 53l2 21 q5 18 23 18h20q19 0 19 -22q0 -54 -32 -91q-31 -36 -87 -36q-49 0 -127 39l-53 31q-46 24 -82 24q-62 0 -68 -49l-2 -21q-2 -18 -22 -18h-21q-18 0 -18 21z" />
<glyph unicode="&#xc4;" horiz-adv-x="1099" d="M59 18l443 1399q5 19 22 19h51q17 0 25 -19l442 -1399q6 -18 -14 -18h-47q-14 0 -20 16l-134 422h-555l-131 -422q-6 -16 -20 -16h-49q-19 0 -13 18zM295 510h512l-254 821h-4zM358 1559v108q0 16 15 16h53q18 0 18 -16v-108q0 -19 -18 -19h-53q-15 0 -15 19zM657 1559 v108q0 16 17 16h53q16 0 16 -16v-108q0 -19 -16 -19h-53q-17 0 -17 19z" />
<glyph unicode="&#xc5;" horiz-adv-x="1099" d="M59 18l433 1371q-57 16 -86 57q-31 45 -31 102q0 74 47 119q46 45 129 45q81 0 127 -45q47 -45 47 -119q0 -57 -31 -102q-29 -41 -86 -57l434 -1371q6 -18 -14 -18h-47q-14 0 -20 16l-134 422h-555l-131 -422q-6 -16 -20 -16h-49q-19 0 -13 18zM295 510h512l-254 821h-4z M430 1548q0 -112 121 -112h10q109 6 109 112q0 53 -31 84t-88 31q-56 0 -89 -31q-32 -30 -32 -84z" />
<glyph unicode="&#xc6;" horiz-adv-x="1417" d="M33 18l571 1399q11 19 25 19h669q19 0 19 -19v-39q0 -16 -19 -16h-499v-590h483q18 0 18 -18v-37q0 -19 -18 -19h-483v-624h504q18 0 18 -17v-41q0 -16 -18 -16h-568q-16 0 -16 16v406h-440l-162 -406q-6 -16 -21 -16h-49q-21 0 -14 18zM311 494h406v868h-60z" />
<glyph unicode="&#xc7;" horiz-adv-x="983" d="M106 717q0 379 125 558t390 179q140 0 245 -49q21 -11 17 -25l-13 -30q-6 -21 -24 -13q-98 43 -219 43q-230 0 -334 -158q-105 -159 -105 -505t107 -504t340 -158q131 0 225 45q12 5 23 -14l14 -33q6 -13 -16 -20q-125 -51 -254 -51q-10 0 -18 1t-17 1q104 -67 104 -162 q0 -123 -159 -123q-40 0 -58 6q-14 4 -14 19v24q0 12 14 12h51q99 0 99 70q0 88 -113 162q-208 34 -309 211q-101 176 -101 514z" />
<glyph unicode="&#xc8;" horiz-adv-x="907" d="M160 16v1401q0 19 18 19h610q19 0 19 -19v-39q0 -16 -19 -16h-550v-590h534q19 0 19 -18v-37q0 -19 -19 -19h-534v-624h555q18 0 18 -17v-39q0 -18 -18 -18h-615q-18 0 -18 16zM336 1739q2 8 12 8h64q17 0 32 -21l119 -167q4 -5 2 -13q-1 -6 -10 -6h-27q-12 0 -24 12 l-164 170q-6 7 -4 17z" />
<glyph unicode="&#xc9;" horiz-adv-x="907" d="M160 16v1401q0 19 18 19h610q19 0 19 -19v-39q0 -16 -19 -16h-550v-590h534q19 0 19 -18v-37q0 -19 -19 -19h-534v-624h555q18 0 18 -17v-39q0 -18 -18 -18h-615q-18 0 -18 16zM444 1559l119 167q17 21 31 21h63q11 0 14 -8q3 -9 -5 -17l-162 -170q-12 -12 -27 -12h-24 q-20 0 -9 19z" />
<glyph unicode="&#xca;" horiz-adv-x="907" d="M160 16v1401q0 19 18 19h610q19 0 19 -19v-39q0 -16 -19 -16h-550v-590h534q19 0 19 -18v-37q0 -19 -19 -19h-534v-624h555q18 0 18 -17v-39q0 -18 -18 -18h-615q-18 0 -18 16zM283 1546q-2 7 4 13l162 174q14 14 28 14h39q17 0 31 -14l160 -174q6 -6 4 -13q-1 -6 -13 -6 h-30q-13 0 -25 12l-145 136l-148 -136q-17 -12 -22 -12h-33q-11 0 -12 6z" />
<glyph unicode="&#xcb;" horiz-adv-x="907" d="M160 16v1401q0 19 18 19h610q19 0 19 -19v-39q0 -16 -19 -16h-550v-590h534q19 0 19 -18v-37q0 -19 -19 -19h-534v-624h555q18 0 18 -17v-39q0 -18 -18 -18h-615q-18 0 -18 16zM305 1559v108q0 16 14 16h54q18 0 18 -16v-108q0 -19 -18 -19h-54q-14 0 -14 19zM604 1559 v108q0 16 17 16h53q16 0 16 -16v-108q0 -19 -16 -19h-53q-17 0 -17 19z" />
<glyph unicode="&#xcc;" horiz-adv-x="419" d="M4 1739q2 8 12 8h64q18 0 33 -21l118 -167q4 -5 2 -13q-1 -6 -10 -6h-26q-13 0 -25 12l-164 170q-6 7 -4 17zM172 16v1401q0 19 16 19h43q19 0 19 -19v-1401q0 -16 -19 -16h-43q-16 0 -16 16z" />
<glyph unicode="&#xcd;" horiz-adv-x="419" d="M172 16v1401q0 19 16 19h43q19 0 19 -19v-1401q0 -16 -19 -16h-43q-16 0 -16 16zM190 1559l119 167q17 21 31 21h63q11 0 14 -8q3 -9 -5 -17l-162 -170q-12 -12 -27 -12h-24q-20 0 -9 19z" />
<glyph unicode="&#xce;" horiz-adv-x="419" d="M-4 1546q-2 7 4 13l162 174q14 14 28 14h39q17 0 31 -14l160 -174q6 -6 4 -13q-2 -6 -12 -6h-31q-13 0 -25 12l-145 136l-148 -136q-17 -12 -22 -12h-33q-10 0 -12 6zM172 16v1401q0 19 16 19h43q19 0 19 -19v-1401q0 -16 -19 -16h-43q-16 0 -16 16z" />
<glyph unicode="&#xcf;" horiz-adv-x="419" d="M18 1559v108q0 16 15 16h53q18 0 18 -16v-108q0 -19 -18 -19h-53q-15 0 -15 19zM172 16v1401q0 19 16 19h43q19 0 19 -19v-1401q0 -16 -19 -16h-43q-16 0 -16 16zM317 1559v108q0 16 17 16h53q16 0 16 -16v-108q0 -19 -16 -19h-53q-17 0 -17 19z" />
<glyph unicode="&#xd0;" horiz-adv-x="1128" d="M43 705v28q0 17 16 17h105v667q0 19 18 19h275q137 0 239 -35q98 -33 176 -115q76 -79 114 -221q38 -143 38 -348q0 -209 -37 -348q-38 -145 -113 -222q-76 -79 -176 -113q-99 -34 -239 -34h-277q-18 0 -18 16v672h-105q-16 0 -16 17zM242 74h217q122 0 206 28 q83 28 149 101q65 73 96 198q32 130 32 316q0 366 -119 506q-118 139 -366 139h-215v-612h260q16 0 16 -17v-28q0 -17 -16 -17h-260v-614z" />
<glyph unicode="&#xd1;" horiz-adv-x="1163" d="M160 16v1401q0 19 18 19h43q21 0 27 -15l680 -1276v1272q0 19 16 19h43q17 0 17 -19v-1401q0 -16 -17 -16h-45q-20 0 -27 14l-677 1274v-1272q0 -16 -17 -16h-43q-18 0 -18 16zM326 1559q0 58 31 93q31 36 87 36q52 0 125 -39l52 -31q52 -29 90 -29q55 0 63 53l2 21 q2 18 23 18h20q19 0 19 -22q0 -54 -32 -91q-32 -36 -87 -36q-49 0 -127 39l-53 31q-46 24 -82 24q-62 0 -68 -49l-2 -21q-1 -18 -22 -18h-21q-18 0 -18 21z" />
<glyph unicode="&#xd2;" horiz-adv-x="1183" d="M104 717q0 378 121 557q121 180 367 180q245 0 365 -179t120 -558q0 -377 -120 -556t-363 -179q-246 0 -368 179t-122 556zM186 717q0 -345 99 -504q100 -160 307 -160q208 0 307 161q98 159 98 503t-98 503q-99 160 -307 160t-307 -159t-99 -504zM410 1739q2 8 12 8h63 q18 0 33 -21l119 -167q4 -5 2 -13q-1 -6 -10 -6h-27q-12 0 -24 12l-164 170q-6 7 -4 17z" />
<glyph unicode="&#xd3;" horiz-adv-x="1183" d="M104 717q0 378 121 557q121 180 367 180q245 0 365 -179t120 -558q0 -377 -120 -556t-363 -179q-246 0 -368 179t-122 556zM186 717q0 -345 99 -504q100 -160 307 -160q208 0 307 161q98 159 98 503t-98 503q-99 160 -307 160t-307 -159t-99 -504zM557 1559l119 167 q16 21 31 21h63q10 0 13 -8q3 -9 -5 -17l-162 -170q-12 -12 -26 -12h-25q-19 0 -8 19z" />
<glyph unicode="&#xd4;" horiz-adv-x="1183" d="M104 717q0 378 121 557q121 180 367 180q245 0 365 -179t120 -558q0 -377 -120 -556t-363 -179q-246 0 -368 179t-122 556zM186 717q0 -345 99 -504q100 -160 307 -160q208 0 307 161q98 159 98 503t-98 503q-99 160 -307 160t-307 -159t-99 -504zM377 1546q-2 7 4 13 l162 174q14 14 28 14h39q17 0 31 -14l160 -174q6 -6 4 -13q-1 -6 -12 -6h-31q-13 0 -25 12l-145 136l-148 -136q-16 -12 -22 -12h-33q-11 0 -12 6z" />
<glyph unicode="&#xd5;" horiz-adv-x="1183" d="M104 717q0 378 121 557q121 180 367 180q245 0 365 -179t120 -558q0 -377 -120 -556t-363 -179q-246 0 -368 179t-122 556zM186 717q0 -345 99 -504q100 -160 307 -160q208 0 307 161q98 159 98 503t-98 503q-99 160 -307 160t-307 -159t-99 -504zM336 1559q0 56 32 93 q32 36 87 36q51 0 125 -39l51 -31q52 -29 90 -29q55 0 63 53l2 21q4 18 23 18h20q19 0 19 -22q0 -54 -32 -91q-32 -36 -87 -36q-49 0 -127 39l-53 31q-45 24 -82 24q-62 0 -68 -49l-2 -21q-1 -18 -22 -18h-21q-18 0 -18 21z" />
<glyph unicode="&#xd6;" horiz-adv-x="1183" d="M104 717q0 378 121 557q121 180 367 180q245 0 365 -179t120 -558q0 -377 -120 -556t-363 -179q-246 0 -368 179t-122 556zM186 717q0 -345 99 -504q100 -160 307 -160q208 0 307 161q98 159 98 503t-98 503q-99 160 -307 160t-307 -159t-99 -504zM399 1559v108 q0 16 15 16h53q18 0 18 -16v-108q0 -19 -18 -19h-53q-15 0 -15 19zM698 1559v108q0 16 17 16h53q16 0 16 -16v-108q0 -19 -16 -19h-53q-17 0 -17 19z" />
<glyph unicode="&#xd7;" horiz-adv-x="1054" d="M150 395l327 328l-327 326q-12 12 0 24l26 25q15 15 27 0l323 -328l328 328q12 12 25 0l24 -25q14 -10 0 -24l-325 -326l325 -328q12 -12 0 -24l-24 -25q-13 -12 -25 0l-328 326l-325 -326q-13 -12 -25 0l-24 25q-14 12 -2 24z" />
<glyph unicode="&#xd8;" horiz-adv-x="1193" d="M76 66l119 161q-84 179 -84 490q0 382 120 558q122 179 367 179q246 0 363 -184l100 137q7 14 24 6l27 -20q13 -8 2 -25l-117 -162q86 -190 86 -489q0 -380 -120 -556q-122 -179 -365 -179q-253 0 -365 182l-104 -139q-11 -16 -23 -5l-26 23q-10 10 -4 23zM190 717 q0 -271 60 -418l659 905q-99 176 -311 176q-209 0 -308 -159q-100 -161 -100 -504zM283 229q102 -176 315 -176q205 0 305 160q98 157 98 504q0 259 -59 418z" />
<glyph unicode="&#xd9;" horiz-adv-x="1134" d="M152 453v964q0 19 16 19h43q18 0 18 -19v-960q0 -211 78 -309q78 -97 260 -97t260 97q78 98 78 309v960q0 19 17 19h45q18 0 18 -19v-964q0 -243 -100 -358t-318 -115t-317 115q-98 114 -98 358zM395 1739q2 8 13 8h63q18 0 33 -21l119 -167q4 -5 2 -13q-1 -6 -11 -6h-26 q-13 0 -25 12l-164 170q-6 7 -4 17z" />
<glyph unicode="&#xda;" horiz-adv-x="1134" d="M152 453v964q0 19 16 19h43q18 0 18 -19v-960q0 -211 78 -309q78 -97 260 -97t260 97q78 98 78 309v960q0 19 17 19h45q18 0 18 -19v-964q0 -243 -100 -358t-318 -115t-317 115q-98 114 -98 358zM514 1559l119 167q17 21 31 21h63q10 0 13 -8q3 -9 -5 -17l-162 -170 q-12 -12 -26 -12h-25q-19 0 -8 19z" />
<glyph unicode="&#xdb;" horiz-adv-x="1134" d="M152 453v964q0 19 16 19h43q18 0 18 -19v-960q0 -211 78 -309q78 -97 260 -97t260 97q78 98 78 309v960q0 19 17 19h45q18 0 18 -19v-964q0 -243 -100 -358t-318 -115t-317 115q-98 114 -98 358zM352 1546q-2 7 4 13l162 174q14 14 29 14h39q16 0 30 -14l160 -174 q6 -6 4 -13q-2 -6 -12 -6h-31q-12 0 -24 12l-146 136l-147 -136q-16 -12 -23 -12h-32q-11 0 -13 6z" />
<glyph unicode="&#xdc;" horiz-adv-x="1134" d="M152 453v964q0 19 16 19h43q18 0 18 -19v-960q0 -211 78 -309q78 -97 260 -97t260 97q78 98 78 309v960q0 19 17 19h45q18 0 18 -19v-964q0 -243 -100 -358t-318 -115t-317 115q-98 114 -98 358zM375 1559v108q0 16 14 16h53q19 0 19 -16v-108q0 -19 -19 -19h-53 q-14 0 -14 19zM674 1559v108q0 16 16 16h53q17 0 17 -16v-108q0 -19 -17 -19h-53q-16 0 -16 19z" />
<glyph unicode="&#xdd;" horiz-adv-x="1044" d="M68 1415q-8 19 12 19h47q17 0 25 -15l266 -557l102 -229h4l105 229l266 557q6 15 25 15h47q20 0 12 -19l-416 -860v-537q0 -18 -18 -18h-43q-19 0 -19 18v537zM485 1559l119 167q16 21 31 21h63q11 0 14 -8q3 -9 -5 -17l-162 -170q-12 -12 -27 -12h-24q-20 0 -9 19z" />
<glyph unicode="&#xde;" horiz-adv-x="991" d="M160 16v1401q0 19 18 19h43q17 0 17 -19v-153h186q244 0 355 -106q110 -105 110 -347t-110 -347q-111 -106 -353 -106h-188v-342q0 -16 -17 -16h-43q-18 0 -18 16zM238 432h188q206 0 295 86q88 85 88 293t-88 293q-89 86 -295 86h-188v-758z" />
<glyph unicode="&#xdf;" horiz-adv-x="1021" d="M145 16v1098q0 168 99 252t258 84q163 0 243 -74t80 -178q0 -65 -26 -113t-65 -79q-44 -35 -76 -57q-34 -23 -64 -53q-27 -27 -27 -58q0 -35 38 -71q39 -38 93 -74q53 -36 111 -86q56 -48 93 -127q38 -81 38 -175q0 -315 -326 -315q-58 0 -131 10q-32 1 -32 23v28 q0 17 18 17q12 0 63 -7q44 -6 66 -6q264 0 264 252q0 74 -27 137q-26 61 -69 104q-35 35 -90 80q-41 33 -90 68q-43 30 -69 65q-28 37 -28 73q0 48 41 92q37 40 91 71q49 28 90 80t41 115q0 77 -62 133q-61 55 -190 55q-122 0 -200 -65q-79 -66 -79 -209v-1090 q0 -16 -16 -16h-43q-17 0 -17 16z" />
<glyph unicode="&#xe0;" d="M78 285q0 76 20 129q21 55 63 91t93 60q52 25 128 38q86 15 148 19q93 6 172 7v125q0 136 -56 195q-58 61 -189 61q-102 0 -281 -58q-15 -6 -20 13l-9 32q-5 17 13 23q134 57 303 57q161 0 237 -78q76 -77 76 -241v-742q0 -16 -18 -16h-37q-19 0 -19 16v177 q-78 -205 -331 -205q-140 0 -217 80q-76 79 -76 217zM149 287q0 -108 58 -172t174 -64q150 0 235 94q86 95 86 238v184q-123 -6 -149 -8q-68 -6 -129 -13q-72 -8 -116 -28q-39 -17 -82 -48q-41 -29 -59 -76q-18 -46 -18 -107zM277 1401q2 8 14 8h61q18 0 33 -18l123 -179 q2 -6 2 -8q0 -4 -3 -7t-9 -3h-25q-12 0 -24 12l-166 178q-8 9 -6 17z" />
<glyph unicode="&#xe1;" d="M78 285q0 76 20 129q21 55 63 91t93 60q52 25 128 38q86 15 148 19q93 6 172 7v125q0 136 -56 195q-58 61 -189 61q-102 0 -281 -58q-15 -6 -20 13l-9 32q-5 17 13 23q134 57 303 57q161 0 237 -78q76 -77 76 -241v-742q0 -16 -18 -16h-37q-19 0 -19 16v177 q-78 -205 -331 -205q-140 0 -217 80q-76 79 -76 217zM149 287q0 -108 58 -172t174 -64q150 0 235 94q86 95 86 238v184q-123 -6 -149 -8q-68 -6 -129 -13q-72 -8 -116 -28q-39 -17 -82 -48q-41 -29 -59 -76q-18 -46 -18 -107zM397 1204q0 4 4 8l123 179q10 18 31 18h63 q11 0 13 -8q2 -9 -6 -17l-166 -178q-11 -12 -23 -12h-26q-7 0 -10 3t-3 7z" />
<glyph unicode="&#xe2;" d="M78 285q0 76 20 129q21 55 63 91t93 60q52 25 128 38q86 15 148 19q93 6 172 7v125q0 136 -56 195q-58 61 -189 61q-102 0 -281 -58q-15 -6 -20 13l-9 32q-5 17 13 23q134 57 303 57q161 0 237 -78q76 -77 76 -241v-742q0 -16 -18 -16h-37q-19 0 -19 16v177 q-78 -205 -331 -205q-140 0 -217 80q-76 79 -76 217zM149 287q0 -108 58 -172t174 -64q150 0 235 94q86 95 86 238v184q-123 -6 -149 -8q-68 -6 -129 -13q-72 -8 -116 -28q-39 -17 -82 -48q-41 -29 -59 -76q-18 -46 -18 -107zM241 1200q-3 6 3 12l161 187q7 12 29 12h39 q19 0 31 -12l162 -187q4 -5 2 -12q-2 -6 -11 -6h-32q-11 0 -23 12l-147 150l-148 -150q-12 -12 -22 -12h-33q-8 0 -11 6z" />
<glyph unicode="&#xe3;" d="M78 285q0 76 20 129q21 55 63 91t93 60q52 25 128 38q86 15 148 19q93 6 172 7v125q0 136 -56 195q-58 61 -189 61q-102 0 -281 -58q-15 -6 -20 13l-9 32q-5 17 13 23q134 57 303 57q161 0 237 -78q76 -77 76 -241v-742q0 -16 -18 -16h-37q-19 0 -19 16v177 q-78 -205 -331 -205q-140 0 -217 80q-76 79 -76 217zM149 287q0 -108 58 -172t174 -64q150 0 235 94q86 95 86 238v184q-123 -6 -149 -8q-68 -6 -129 -13q-72 -8 -116 -28q-39 -17 -82 -48q-41 -29 -59 -76q-18 -46 -18 -107zM213 1219q0 53 30 88q30 34 81 34q52 0 122 -38 l50 -29q42 -25 79 -25q56 0 62 49l2 19q1 16 20 16h23q16 0 16 -20q0 -56 -28 -88q-28 -33 -82 -33q-56 0 -121 37l-51 28q-41 25 -76 25q-53 0 -64 -47l-4 -21q-2 -18 -20 -18h-21q-18 0 -18 23z" />
<glyph unicode="&#xe4;" d="M78 285q0 76 20 129q21 55 63 91t93 60q52 25 128 38q86 15 148 19q93 6 172 7v125q0 136 -56 195q-58 61 -189 61q-102 0 -281 -58q-15 -6 -20 13l-9 32q-5 17 13 23q134 57 303 57q161 0 237 -78q76 -77 76 -241v-742q0 -16 -18 -16h-37q-19 0 -19 16v177 q-78 -205 -331 -205q-140 0 -217 80q-76 79 -76 217zM149 287q0 -108 58 -172t174 -64q150 0 235 94q86 95 86 238v184q-123 -6 -149 -8q-68 -6 -129 -13q-72 -8 -116 -28q-39 -17 -82 -48q-41 -29 -59 -76q-18 -46 -18 -107zM268 1210v115q0 18 17 18h49q16 0 16 -18v-115 q0 -16 -16 -16h-49q-17 0 -17 16zM561 1210v115q0 18 19 18h47q18 0 18 -18v-115q0 -16 -18 -16h-47q-19 0 -19 16z" />
<glyph unicode="&#xe5;" d="M78 285q0 76 20 129q21 55 63 91t93 60q52 25 128 38q86 15 148 19q93 6 172 7v125q0 136 -56 195q-58 61 -189 61q-102 0 -281 -58q-15 -6 -20 13l-9 32q-5 17 13 23q134 57 303 57q161 0 237 -78q76 -77 76 -241v-742q0 -16 -18 -16h-37q-19 0 -19 16v177 q-78 -205 -331 -205q-140 0 -217 80q-76 79 -76 217zM149 287q0 -108 58 -172t174 -64q150 0 235 94q86 95 86 238v184q-123 -6 -149 -8q-68 -6 -129 -13q-72 -8 -116 -28q-39 -17 -82 -48q-41 -29 -59 -76q-18 -46 -18 -107zM281 1339q0 74 47 119q46 45 129 45 q80 0 128 -45t48 -119q0 -73 -48 -118t-128 -45q-83 0 -129 45q-47 45 -47 118zM338 1339q0 -112 119 -112q59 0 88 29q30 30 30 83q0 113 -118 113q-119 0 -119 -113z" />
<glyph unicode="&#xe6;" horiz-adv-x="1478" d="M78 279q0 69 18 121q18 51 62 85t88 54q42 20 125 29q95 11 145 13q82 4 174 5v157q0 141 -56 203q-58 64 -183 64q-80 0 -275 -58q-15 -6 -20 13l-11 32q-5 17 15 23q152 57 291 57q262 0 292 -219q73 219 312 219q168 0 251 -128t83 -347v-65q0 -19 -17 -19h-610 q10 -471 334 -471q119 0 221 47q14 6 20 -12l11 -31q4 -11 -15 -22q-105 -49 -239 -49q-142 0 -233 72q-90 71 -128 206q-27 -121 -120 -196q-92 -74 -236 -74q-146 0 -222 79q-77 80 -77 212zM150 279q0 -103 58 -165q58 -63 175 -63q145 0 226 94q81 95 81 238v139 q-288 -6 -377 -30q-157 -60 -163 -213zM762 586h553v18q0 408 -264 408q-279 0 -289 -426z" />
<glyph unicode="&#xe7;" horiz-adv-x="790" d="M92 530q0 547 393 547q128 0 213 -43q19 -11 15 -24l-13 -31q-6 -16 -22 -10q-79 41 -186 41q-168 0 -246 -119t-78 -361q0 -479 319 -479q120 0 199 41q19 12 23 -8l10 -33q4 -11 -14 -22q-96 -47 -216 -47q-18 0 -32 2q102 -69 102 -154q0 -115 -151 -115q-45 0 -56 4 q-12 5 -12 19v22q0 13 14 13h45q95 0 95 65q0 85 -115 158q-287 69 -287 534z" />
<glyph unicode="&#xe8;" d="M92 530q0 547 377 547q181 0 266 -133q86 -134 86 -366v-68q0 -16 -16 -16h-637q5 -225 88 -335q85 -112 260 -112q153 0 232 47q12 11 20 -12l10 -29q4 -11 -14 -22q-111 -51 -252 -51q-420 0 -420 550zM168 559h580v21q0 432 -279 432q-295 0 -301 -453zM278 1401 q2 8 13 8h61q18 0 33 -18l123 -179q2 -6 2 -8q0 -4 -3 -7t-9 -3h-25q-12 0 -24 12l-166 178q-7 8 -5 17z" />
<glyph unicode="&#xe9;" d="M92 530q0 547 377 547q181 0 266 -133q86 -134 86 -366v-68q0 -16 -16 -16h-637q5 -225 88 -335q85 -112 260 -112q153 0 232 47q12 11 20 -12l10 -29q4 -11 -14 -22q-111 -51 -252 -51q-420 0 -420 550zM168 559h580v21q0 432 -279 432q-295 0 -301 -453zM403 1204 q0 3 5 8l122 179q10 18 31 18h64q10 0 12 -8q2 -9 -6 -17l-166 -178q-10 -12 -23 -12h-26q-6 0 -9 3q-4 4 -4 7z" />
<glyph unicode="&#xea;" d="M92 530q0 547 377 547q181 0 266 -133q86 -134 86 -366v-68q0 -16 -16 -16h-637q5 -225 88 -335q85 -112 260 -112q153 0 232 47q12 11 20 -12l10 -29q4 -11 -14 -22q-111 -51 -252 -51q-420 0 -420 550zM168 559h580v21q0 432 -279 432q-295 0 -301 -453zM253 1200 q-3 6 3 12l162 187q8 12 28 12h39q19 0 31 -12l162 -187q4 -5 2 -12q-2 -6 -10 -6h-33q-11 0 -23 12l-147 150l-148 -150q-12 -12 -22 -12h-33q-8 0 -11 6z" />
<glyph unicode="&#xeb;" d="M92 530q0 547 377 547q181 0 266 -133q86 -134 86 -366v-68q0 -16 -16 -16h-637q5 -225 88 -335q85 -112 260 -112q153 0 232 47q12 11 20 -12l10 -29q4 -11 -14 -22q-111 -51 -252 -51q-420 0 -420 550zM168 559h580v21q0 432 -279 432q-295 0 -301 -453zM279 1210v115 q0 18 16 18h49q16 0 16 -18v-115q0 -16 -16 -16h-49q-16 0 -16 16zM571 1210v115q0 18 19 18h47q18 0 18 -18v-115q0 -16 -18 -16h-47q-19 0 -19 16z" />
<glyph unicode="&#xec;" horiz-adv-x="376" d="M-17 1401q2 8 13 8h61q18 0 33 -18l123 -179q2 -6 2 -8q0 -4 -3 -7t-9 -3h-25q-12 0 -24 12l-166 178q-7 8 -5 17zM150 16v1024q0 17 18 17h41q14 0 14 -17v-1024q0 -16 -14 -16h-41q-18 0 -18 16z" />
<glyph unicode="&#xed;" horiz-adv-x="376" d="M150 16v1024q0 17 18 17h41q14 0 14 -17v-1024q0 -16 -14 -16h-41q-18 0 -18 16zM162 1204q0 4 4 8l123 179q10 18 30 18h64q10 0 12 -8q2 -9 -6 -17l-166 -178q-10 -12 -22 -12h-27q-6 0 -9 3t-3 7z" />
<glyph unicode="&#xee;" horiz-adv-x="376" d="M-24 1200q-3 5 4 12l161 187q10 12 29 12h39q19 0 31 -12l161 -187q4 -5 2 -12q-1 -6 -10 -6h-33q-10 0 -22 12l-148 150l-147 -150q-12 -12 -23 -12h-32q-9 0 -12 6zM150 16v1024q0 17 18 17h41q14 0 14 -17v-1024q0 -16 -14 -16h-41q-18 0 -18 16z" />
<glyph unicode="&#xef;" horiz-adv-x="376" d="M2 1210v115q0 18 16 18h50q16 0 16 -18v-115q0 -16 -16 -16h-50q-16 0 -16 16zM150 16v1024q0 17 18 17h41q14 0 14 -17v-1024q0 -16 -14 -16h-41q-18 0 -18 16zM295 1210v115q0 18 18 18h47q19 0 19 -18v-115q0 -16 -19 -16h-47q-18 0 -18 16z" />
<glyph unicode="&#xf0;" horiz-adv-x="964" d="M92 530q0 547 389 547q171 0 256 -112q-46 132 -135 256h-233q-17 0 -17 16v23q0 16 17 16h192q-48 60 -133 137q-8 8 -7 15q2 8 11 8h43q15 0 31 -13q82 -78 133 -147h162q16 0 16 -16v-23q0 -16 -16 -16h-123q194 -291 194 -691q0 -548 -389 -548q-391 0 -391 548z M168 530q0 -481 315 -481q312 0 312 481q0 480 -312 480q-315 0 -315 -480z" />
<glyph unicode="&#xf1;" horiz-adv-x="976" d="M139 16v1024q0 17 19 17h39q16 0 16 -17v-170q35 85 114 146t210 61q153 0 228 -90t75 -252v-719q0 -16 -17 -16h-39q-18 0 -18 16v715q0 277 -240 277q-136 0 -225 -94q-88 -92 -88 -238v-660q0 -16 -16 -16h-39q-19 0 -19 16zM246 1219q0 55 29 88q30 34 81 34 q53 0 123 -38l49 -29q42 -25 80 -25q56 0 62 49l2 19q1 16 20 16h23q16 0 16 -20q0 -54 -29 -88q-28 -33 -81 -33q-56 0 -121 37l-51 28q-41 25 -76 25q-53 0 -64 -47l-4 -21q-1 -18 -20 -18h-21q-18 0 -18 23z" />
<glyph unicode="&#xf2;" horiz-adv-x="964" d="M92 530q0 -548 391 -548q389 0 389 548q0 547 -389 547q-391 0 -391 -547zM168 530q0 480 315 480q312 0 312 -480q0 -481 -312 -481q-315 0 -315 481zM302 1401q2 8 13 8h62q18 0 33 -18l122 -179q0 -1 1.5 -3.5t1.5 -4.5q0 -3 -4 -7q-3 -3 -9 -3h-24q-13 0 -25 12 l-166 178q-7 8 -5 17z" />
<glyph unicode="&#xf3;" horiz-adv-x="964" d="M92 530q0 -548 391 -548q389 0 389 548q0 547 -389 547q-391 0 -391 -547zM168 530q0 480 315 480q312 0 312 -480q0 -481 -312 -481q-315 0 -315 481zM428 1204q0 4 4 8l123 179q11 18 31 18h63q11 0 13 -8t-7 -17l-166 -178q-11 -12 -22 -12h-27q-6 0 -9 3t-3 7z" />
<glyph unicode="&#xf4;" horiz-adv-x="964" d="M92 530q0 -548 391 -548q389 0 389 548q0 547 -389 547q-391 0 -391 -547zM168 530q0 480 315 480q312 0 312 -480q0 -481 -312 -481q-315 0 -315 481zM267 1200q-3 6 3 12l162 187q10 12 29 12h39q18 0 30 -12l162 -187q4 -5 2 -12q-2 -6 -10 -6h-33q-10 0 -22 12 l-148 150l-147 -150q-12 -12 -23 -12h-32q-9 0 -12 6z" />
<glyph unicode="&#xf5;" horiz-adv-x="964" d="M92 530q0 547 391 547q389 0 389 -547q0 -548 -389 -548q-391 0 -391 548zM168 530q0 -481 315 -481q312 0 312 481q0 480 -312 480q-315 0 -315 -480zM238 1219q0 55 29 88q30 34 81 34q53 0 123 -38l49 -29q42 -25 80 -25q56 0 62 49l2 19q1 16 20 16h23q16 0 16 -20 q0 -54 -29 -88q-28 -33 -82 -33q-55 0 -120 37l-52 28q-41 25 -75 25q-53 0 -64 -47l-4 -21q-1 -18 -21 -18h-20q-18 0 -18 23z" />
<glyph unicode="&#xf6;" horiz-adv-x="964" d="M92 530q0 -548 391 -548q389 0 389 548q0 547 -389 547q-391 0 -391 -547zM168 530q0 480 315 480q312 0 312 -480q0 -481 -312 -481q-315 0 -315 481zM293 1210v115q0 18 16 18h49q17 0 17 -18v-115q0 -16 -17 -16h-49q-16 0 -16 16zM586 1210v115q0 18 18 18h47 q19 0 19 -18v-115q0 -16 -19 -16h-47q-18 0 -18 16z" />
<glyph unicode="&#xf7;" horiz-adv-x="1054" d="M119 707v32q0 19 14 19h787q16 0 16 -19v-32q0 -19 -16 -19h-787q-14 0 -14 19zM473 338v125q0 14 16 14h76q17 0 17 -14v-125q0 -16 -17 -16h-76q-16 0 -16 16zM473 983v125q0 16 16 16h76q17 0 17 -16v-125q0 -16 -17 -16h-76q-16 0 -16 16z" />
<glyph unicode="&#xf8;" horiz-adv-x="972" d="M96 530q0 547 391 547q178 0 273 -116l63 90q10 11 25 4l18 -13q10 -7 4 -22l-73 -109q80 -136 80 -381q0 -548 -390 -548q-180 0 -274 116l-63 -90q-15 -18 -27 -6l-17 16q-13 13 -6 21l76 108q-80 136 -80 383zM172 530q0 -197 53 -317l488 688q-77 109 -226 109 q-315 0 -315 -480zM260 158q80 -109 227 -109q312 0 312 481q0 194 -54 314z" />
<glyph unicode="&#xf9;" horiz-adv-x="964" d="M131 336v704q0 17 19 17h40q17 0 17 -17v-698q0 -291 246 -291q133 0 215 94t82 240v655q0 17 16 17h41q16 0 16 -17v-1024q0 -16 -16 -16h-41q-16 0 -16 16v172q-28 -80 -105 -144q-75 -62 -203 -62q-158 0 -234 93q-77 94 -77 261zM304 1401q2 8 13 8h62q18 0 33 -18 l123 -179q2 -6 2 -8q0 -4 -3 -7t-10 -3h-24q-13 0 -25 12l-166 178q-7 8 -5 17z" />
<glyph unicode="&#xfa;" horiz-adv-x="964" d="M131 336v704q0 17 19 17h40q17 0 17 -17v-698q0 -291 246 -291q133 0 215 94t82 240v655q0 17 16 17h41q16 0 16 -17v-1024q0 -16 -16 -16h-41q-16 0 -16 16v172q-28 -80 -105 -144q-75 -62 -203 -62q-158 0 -234 93q-77 94 -77 261zM426 1204q0 4 4 8l123 179 q11 18 31 18h63q10 0 12 -8q2 -9 -6 -17l-166 -178q-7 -12 -22 -12h-27q-6 0 -9 3t-3 7z" />
<glyph unicode="&#xfb;" horiz-adv-x="964" d="M131 336v704q0 17 19 17h40q17 0 17 -17v-698q0 -291 246 -291q133 0 215 94t82 240v655q0 17 16 17h41q16 0 16 -17v-1024q0 -16 -16 -16h-41q-16 0 -16 16v172q-28 -80 -105 -144q-75 -62 -203 -62q-158 0 -234 93q-77 94 -77 261zM269 1200q-3 6 3 12l162 187 q8 12 29 12h39q18 0 30 -12l162 -187q4 -5 2 -12q-2 -6 -10 -6h-33q-10 0 -22 12l-148 150l-147 -150q-12 -12 -23 -12h-32q-9 0 -12 6z" />
<glyph unicode="&#xfc;" horiz-adv-x="964" d="M131 336v704q0 17 19 17h40q17 0 17 -17v-698q0 -291 246 -291q133 0 215 94t82 240v655q0 17 16 17h41q16 0 16 -17v-1024q0 -16 -16 -16h-41q-16 0 -16 16v172q-28 -80 -105 -144q-75 -62 -203 -62q-158 0 -234 93q-77 94 -77 261zM295 1210v115q0 18 16 18h49 q17 0 17 -18v-115q0 -16 -17 -16h-49q-16 0 -16 16zM588 1210v115q0 18 18 18h47q19 0 19 -18v-115q0 -16 -19 -16h-47q-18 0 -18 16z" />
<glyph unicode="&#xfd;" horiz-adv-x="829" d="M59 1038q-6 19 13 19h45q14 0 20 -17l205 -659l84 -279h4l80 279l186 659q6 17 21 17h43q20 0 14 -19l-299 -1013q-39 -140 -93 -200q-55 -61 -161 -61q-56 0 -110 17q-18 6 -17 20l8 31q6 16 23 14q43 -14 94 -14q91 0 135 78q44 79 23 141zM363 1204q0 4 4 8l122 179 q11 18 31 18h64q10 0 12 -8q2 -9 -6 -17l-166 -178q-10 -12 -23 -12h-26q-6 0 -9 3t-3 7z" />
<glyph unicode="&#xfe;" horiz-adv-x="1007" d="M145 -209v1626q0 19 19 19h39q16 0 16 -19v-571q35 108 119 170q83 61 205 61q184 0 278 -140t94 -407q0 -268 -94 -408t-278 -140q-121 0 -205 60t-119 169v-420q0 -16 -16 -16h-39q-19 0 -19 16zM219 530q0 -238 81 -359q81 -122 235 -122q303 0 303 481 q0 480 -303 480q-154 0 -235 -122t-81 -358z" />
<glyph unicode="&#xff;" horiz-adv-x="829" d="M59 1038q-6 19 13 19h45q14 0 20 -17l205 -659l84 -279h4l80 279l186 659q6 17 21 17h43q20 0 14 -19l-299 -1013q-39 -140 -93 -200q-55 -61 -161 -61q-56 0 -110 17q-18 6 -17 20l8 31q6 16 23 14q43 -14 94 -14q91 0 135 78q44 79 23 141zM227 1210v115q0 18 17 18h49 q16 0 16 -18v-115q0 -16 -16 -16h-49q-17 0 -17 16zM520 1210v115q0 18 19 18h47q18 0 18 -18v-115q0 -16 -18 -16h-47q-19 0 -19 16z" />
<glyph unicode="&#x152;" horiz-adv-x="1568" d="M143 717q0 203 38 347q37 141 115 222t178 115q103 35 241 35h733q20 0 20 -19v-39q0 -16 -20 -16h-518v-590h504q16 0 16 -18v-37q0 -19 -16 -19h-504v-624h524q19 0 19 -17v-41q0 -16 -19 -16h-739q-140 0 -241 34q-103 35 -178 113q-78 81 -115 223q-38 144 -38 347z M223 717q0 -189 33 -317t99 -198q67 -71 153 -100q84 -28 207 -28h139v1288h-137q-119 0 -208 -29t-154 -100q-66 -72 -99 -200q-33 -127 -33 -316z" />
<glyph unicode="&#x153;" horiz-adv-x="1566" d="M92 530q0 268 95 408q94 139 282 139q266 0 342 -278q69 278 328 278q170 0 254 -133q84 -134 84 -362v-68q0 -16 -19 -16h-612q11 -451 340 -451q116 0 217 45q16 7 22 -10l11 -31q1 -14 -15 -20q-123 -51 -241 -51q-291 0 -369 282q-72 -280 -342 -280q-186 0 -281 140 q-96 141 -96 408zM168 530q0 -481 301 -481q303 0 303 481q0 480 -303 480q-301 0 -301 -480zM846 563h557v23q0 426 -264 426q-282 0 -293 -449z" />
<glyph unicode="&#x178;" horiz-adv-x="1044" d="M68 1415q-8 19 12 19h47q17 0 25 -15l266 -557l102 -229h4l105 229l266 557q6 15 25 15h47q20 0 12 -19l-416 -860v-537q0 -18 -18 -18h-43q-19 0 -19 18v537zM330 1559v108q0 16 14 16h53q19 0 19 -16v-108q0 -19 -19 -19h-53q-14 0 -14 19zM629 1559v108q0 16 16 16h53 q17 0 17 -16v-108q0 -19 -17 -19h-53q-16 0 -16 19z" />
<glyph unicode="&#x2c6;" horiz-adv-x="579" d="M77 1200q-3 6 3 12l162 187q8 12 28 12h39q19 0 31 -12l162 -187q4 -5 2 -12q-2 -6 -10 -6h-33q-11 0 -23 12l-147 150l-148 -150q-12 -12 -22 -12h-33q-8 0 -11 6z" />
<glyph unicode="&#x2dc;" horiz-adv-x="581" d="M47 1219q0 53 30 88q30 34 81 34q53 0 123 -38l49 -29q42 -25 80 -25q55 0 61 49l2 19q1 16 21 16h22q16 0 16 -20q0 -56 -28 -88q-29 -33 -82 -33q-59 0 -121 37l-51 28q-41 25 -76 25q-52 0 -63 -47l-5 -21q-4 -18 -20 -18h-20q-19 0 -19 23z" />
<glyph unicode="&#x2000;" horiz-adv-x="942" />
<glyph unicode="&#x2001;" horiz-adv-x="1884" />
<glyph unicode="&#x2002;" horiz-adv-x="942" />
<glyph unicode="&#x2003;" horiz-adv-x="1884" />
<glyph unicode="&#x2004;" horiz-adv-x="628" />
<glyph unicode="&#x2005;" horiz-adv-x="471" />
<glyph unicode="&#x2006;" horiz-adv-x="314" />
<glyph unicode="&#x2007;" horiz-adv-x="314" />
<glyph unicode="&#x2008;" horiz-adv-x="235" />
<glyph unicode="&#x2009;" horiz-adv-x="376" />
<glyph unicode="&#x200a;" horiz-adv-x="104" />
<glyph unicode="&#x2010;" horiz-adv-x="667" d="M86 520v37q0 16 18 16h461q17 0 17 -16v-37q0 -14 -17 -14h-461q-18 0 -18 14z" />
<glyph unicode="&#x2011;" horiz-adv-x="667" d="M86 520v37q0 16 18 16h461q17 0 17 -16v-37q0 -14 -17 -14h-461q-18 0 -18 14z" />
<glyph unicode="&#x2012;" horiz-adv-x="667" d="M86 520v37q0 16 18 16h461q17 0 17 -16v-37q0 -14 -17 -14h-461q-18 0 -18 14z" />
<glyph unicode="&#x2013;" horiz-adv-x="884" d="M86 520v37q0 16 16 16h680q17 0 17 -16v-37q0 -14 -17 -14h-680q-16 0 -16 14z" />
<glyph unicode="&#x2014;" horiz-adv-x="1294" d="M86 520v37q0 16 16 16h1092q16 0 16 -16v-37q0 -14 -16 -14h-1092q-16 0 -16 14z" />
<glyph unicode="&#x2018;" horiz-adv-x="348" d="M121 1100v121q0 13 4 22l53 182q2 15 19 15h18q17 0 12 -19l-41 -180h33q19 0 19 -18v-123q0 -17 -19 -17h-80q-18 0 -18 17z" />
<glyph unicode="&#x2019;" horiz-adv-x="348" d="M111 1294v123q0 19 18 19h80q18 0 18 -19v-119q0 -13 -4 -22l-53 -184q-4 -15 -18 -15h-17q-17 0 -12 19l39 180h-33q-18 0 -18 18z" />
<glyph unicode="&#x201a;" horiz-adv-x="348" d="M111 18v123q0 19 18 19h80q18 0 18 -19v-118q0 -14 -4 -23l-53 -184q-4 -15 -18 -15h-17q-17 0 -12 19l39 180h-33q-18 0 -18 18z" />
<glyph unicode="&#x201c;" horiz-adv-x="604" d="M121 1100v121q0 13 4 22l53 182q2 15 19 15h18q17 0 12 -19l-41 -180h33q19 0 19 -18v-123q0 -17 -19 -17h-80q-18 0 -18 17zM377 1100v121q0 8 2 22l53 182q6 15 21 15h16q17 0 12 -19l-41 -180h33q19 0 19 -18v-123q0 -17 -19 -17h-80q-16 0 -16 17z" />
<glyph unicode="&#x201d;" horiz-adv-x="604" d="M111 1296v123q0 17 18 17h80q18 0 18 -17v-119q0 -7 -4 -22l-53 -184q-2 -13 -18 -13h-17q-17 0 -12 17l39 182h-33q-18 0 -18 16zM367 1296v123q0 17 16 17h82q16 0 16 -17v-119q0 -12 -2 -22l-55 -184q-2 -13 -18 -13h-17q-17 0 -12 17l39 182h-33q-16 0 -16 16z" />
<glyph unicode="&#x201e;" horiz-adv-x="604" d="M111 16v123q0 17 18 17h80q18 0 18 -17v-119q0 -7 -4 -22l-53 -184q-2 -13 -18 -13h-17q-17 0 -12 17l39 182h-33q-18 0 -18 16zM367 16v123q0 17 16 17h82q16 0 16 -17v-119q0 -12 -2 -22l-55 -184q-2 -13 -18 -13h-17q-17 0 -12 17l39 182h-33q-16 0 -16 16z" />
<glyph unicode="&#x2022;" horiz-adv-x="665" d="M102 545q0 101 66 165q65 64 164 64q101 0 165 -64t64 -165t-64 -166q-65 -66 -165 -66q-98 0 -164 66t-66 166z" />
<glyph unicode="&#x2026;" horiz-adv-x="1091" d="M127 16v125q0 17 18 17h74q19 0 19 -17v-125q0 -16 -17 -16h-78q-16 0 -16 16zM492 16v125q0 17 16 17h78q14 0 14 -17v-125q0 -16 -14 -16h-78q-16 0 -16 16zM856 16v125q0 17 16 17h78q15 0 15 -17v-125q0 -16 -15 -16h-78q-16 0 -16 16z" />
<glyph unicode="&#x202f;" horiz-adv-x="376" />
<glyph unicode="&#x2039;" horiz-adv-x="397" d="M78 535q0 4 2 12l141 268q7 14 21 14h39q21 0 10 -18l-141 -276l141 -275q11 -18 -10 -18h-39q-15 0 -21 12l-141 272q-2 6 -2 9z" />
<glyph unicode="&#x203a;" horiz-adv-x="397" d="M109 260l139 275l-139 276q-10 18 8 18h41q14 0 20 -14l139 -268q2 -8 2 -12q0 -3 -2 -9l-139 -272q-6 -12 -20 -12h-41q-19 0 -8 18z" />
<glyph unicode="&#x205f;" horiz-adv-x="471" />
<glyph unicode="&#x20ac;" horiz-adv-x="1095" d="M59 567v31q0 16 17 16h147q-4 59 -4 103q0 55 4 102h-147q-17 0 -17 17v30q0 19 17 19h151q55 569 529 569q137 0 248 -51q18 -6 12 -23l-10 -34q-8 -22 -27 -11q-108 45 -221 45q-400 0 -449 -495h537q19 0 14 -19l-8 -30q-2 -17 -21 -17h-528q-2 -44 -2 -102 q0 -59 2 -103h465q14 0 12 -18l-8 -29q-6 -18 -22 -18h-441q50 -494 455 -494q93 0 225 47q18 8 25 -12l14 -35q6 -14 -14 -20q-132 -53 -254 -53q-473 0 -533 567h-151q-17 0 -17 18z" />
<glyph unicode="&#x2122;" horiz-adv-x="1153" d="M76 1391v30q0 15 14 15h340q10 0 10 -15v-30q0 -13 -10 -13h-141v-592q0 -12 -10 -12h-37q-15 0 -15 12v592h-137q-14 0 -14 13zM537 786v635q0 15 14 15h43q8 0 14 -11l185 -374l188 374q6 11 14 11h43q15 0 15 -15v-635q0 -12 -15 -12h-34q-11 0 -11 12v551l-180 -350 q-6 -14 -20 -14q-12 0 -19 14l-178 350v-551q0 -12 -12 -12h-33q-14 0 -14 12z" />
<glyph unicode="&#x25fc;" horiz-adv-x="1054" d="M0 0v1055h1055v-1055h-1055z" />
</font>
</defs>
</svg>
