<?xml version="1.0" standalone="no"?>
<!DOCTYPE svg PUBLIC "-//W3C//DTD SVG 1.1//EN" "http://www.w3.org/Graphics/SVG/1.1/DTD/svg11.dtd" >
<svg xmlns="http://www.w3.org/2000/svg" xmlns:xlink="http://www.w3.org/1999/xlink" version="1.1">
<metadata></metadata>
<defs>
<font id="amsiprocond-blackuploadedfile" horiz-adv-x="1032" >
<font-face units-per-em="2048" ascent="1757" descent="-291" />
<missing-glyph horiz-adv-x="362" />
<glyph unicode="&#xfb01;" horiz-adv-x="1011" d="M47 49l133 758h-51q-49 0 -43 47l31 172q8 47 55 47h55l15 82q30 174 94 238q63 63 207 63q107 0 145 -14q35 -12 29 -51l-23 -129q-6 -50 -57 -50h-37q-40 0 -57 -20q-19 -22 -29 -76l-6 -43h479q51 0 45 -51l-172 -971q-8 -51 -55 -51h-187q-52 0 -45 51l134 756h-246 l-133 -758q-7 -49 -56 -49h-180q-52 0 -45 49zM780 1239l27 158q12 49 57 49h191q52 0 45 -49l-29 -158q-7 -49 -55 -49h-191q-52 0 -45 49z" />
<glyph unicode="&#xfb02;" horiz-adv-x="1015" d="M47 49l133 758h-51q-49 0 -43 47l31 172q8 47 55 47h55l6 41q34 198 133 275q96 75 339 75q203 0 348 -37q48 -12 41 -61l-232 -1315q-8 -51 -55 -51h-186q-53 0 -46 51l205 1161q-68 9 -114 9q-69 0 -106 -26q-35 -25 -46 -83l-6 -39h84q50 0 43 -51l-29 -166 q-12 -49 -57 -49h-88l-133 -758q-7 -49 -56 -49h-180q-52 0 -45 49z" />
<glyph unicode="&#xfb03;" horiz-adv-x="1540" d="M47 49l133 758h-51q-49 0 -43 47l31 172q8 47 55 47h55l15 84q30 173 98 236t213 63q89 0 127 -14q35 -12 29 -51l-23 -129q-6 -51 -57 -50h-29q-37 0 -56 -20q-21 -22 -28 -74l-6 -45h248l12 84q33 174 100 236q68 63 215 63q94 0 132 -14q34 -12 28 -51l-22 -129 q-6 -52 -58 -50h-35q-40 0 -58 -19q-17 -19 -28 -75l-6 -45h478q50 0 43 -51l-170 -971q-12 -51 -56 -51h-186q-53 0 -45 51l133 756h-246l-133 -758q-7 -49 -55 -49h-180q-53 0 -46 49l134 758h-248l-133 -758q-7 -49 -56 -49h-180q-52 0 -45 49zM1307 1239l28 158 q7 49 56 49h192q52 0 45 -49l-29 -158q-7 -49 -55 -49h-192q-52 0 -45 49z" />
<glyph unicode="&#xfb04;" horiz-adv-x="1544" d="M47 49l133 758h-51q-49 0 -43 47l31 172q8 47 55 47h55l15 84q30 173 98 236t213 63q89 0 127 -14q35 -12 29 -51l-23 -129q-6 -51 -57 -50h-29q-37 0 -56 -20q-21 -22 -28 -74l-6 -45h248l6 41q34 198 130 275q93 75 335 75q203 0 352 -37q48 -12 41 -61l-231 -1315 q-12 -51 -56 -51h-186q-53 0 -45 51l205 1161q-74 9 -115 9q-133 0 -150 -109l-6 -39h82q50 0 43 -51l-28 -166q-12 -49 -58 -49h-88l-133 -758q-7 -49 -55 -49h-180q-53 0 -46 51l134 756h-248l-133 -758q-7 -49 -56 -49h-180q-52 0 -45 49z" />
<glyph horiz-adv-x="0" />
<glyph unicode="&#xd;" horiz-adv-x="681" />
<glyph unicode=" "  horiz-adv-x="362" />
<glyph unicode="&#x09;" horiz-adv-x="362" />
<glyph unicode="&#xa0;" horiz-adv-x="362" />
<glyph unicode="!" horiz-adv-x="497" d="M23 55l36 209q12 53 64 53h194q56 0 45 -53l-36 -209q-10 -55 -60 -55h-196q-57 0 -47 55zM133 504l115 887q6 55 57 55h227q53 0 41 -55l-198 -887q-12 -55 -62 -55h-135q-55 0 -45 55z" />
<glyph unicode="&#x22;" horiz-adv-x="714" d="M217 911l6 363q-2 54 10 123q11 54 41 78t95 24q63 0 90 -24t16 -78q-7 -35 -33 -123l-123 -363h-102zM551 911l8 363q-2 54 10 123q11 54 41 78t95 24q63 0 89 -24t15 -78q-7 -35 -33 -123l-121 -363h-104z" />
<glyph unicode="#" horiz-adv-x="1038" d="M-2 70l154 344h-78q-55 0 -43 51l8 51q7 51 59 51h123l139 312h-88q-50 0 -43 51l9 53q7 49 57 49h133l174 389q21 47 68 35l61 -18q50 -15 27 -62l-154 -344h195l174 389q23 47 67 35l64 -18q47 -17 24 -62l-153 -344h80q49 0 43 -49l-11 -53q-6 -51 -57 -51h-123 l-139 -312h88q49 0 43 -51l-10 -51q-7 -51 -58 -51h-133l-174 -387q-21 -49 -65 -37l-64 18q-49 15 -26 62l155 344h-196l-174 -387q-22 -49 -68 -37l-63 18q-46 15 -25 62zM395 567h197l139 312h-194z" />
<glyph unicode="$" horiz-adv-x="903" d="M0 84l37 158q17 64 80 41q96 -27 180 -27q86 0 154 41q67 40 67 123q0 44 -33 85q-32 40 -120 111q-61 51 -102 95q-38 41 -72 119q-33 76 -33 178q0 393 395 450l22 127q7 45 52 45h71q46 0 39 -45l-22 -121q114 -2 190 -22q52 -15 41 -68l-37 -164q-12 -59 -75 -41 q-89 21 -172 21q-74 0 -126 -37q-53 -38 -53 -111q0 -34 28 -78q27 -42 50 -65q28 -28 72 -68q109 -95 158 -174t49 -208q0 -176 -100 -299q-99 -122 -281 -156l-23 -133q-8 -45 -51 -45h-72q-47 0 -39 45l21 121q-164 5 -248 34q-30 10 -42 24q-11 13 -5 44z" />
<glyph unicode="%" horiz-adv-x="1509" d="M125 887q0 67 12 149q38 212 117 317q80 105 229 105q244 0 244 -270q0 -79 -14 -152q-37 -211 -115 -317q-78 -107 -229 -107q-244 0 -244 275zM270 47l850 1364q23 35 64 35h125q44 0 20 -45l-852 -1364q-22 -37 -61 -37h-125q-48 0 -21 47zM332 899q0 -94 55 -94 q43 0 69 50q25 49 48 181q14 94 14 140q0 92 -55 92q-41 0 -67 -51q-25 -50 -48 -181q-16 -92 -16 -137zM872 258q0 66 13 152q38 212 116 317q80 107 230 107q244 0 244 -273q0 -73 -15 -151q-38 -213 -115 -316q-79 -106 -231 -106q-242 0 -242 270zM1077 268 q0 -88 53 -88q43 0 70 50q27 49 51 180q15 86 15 143q0 88 -52 88q-43 0 -70 -51q-28 -52 -50 -180q-17 -102 -17 -142z" />
<glyph unicode="&#x26;" horiz-adv-x="1148" d="M33 344q0 175 88 312q89 138 256 210l-19 47q-34 89 -34 193q0 172 114 266q113 94 303 94q115 0 201 -20q54 -17 43 -68l-31 -127q-12 -55 -73 -43q-54 13 -107 13q-69 0 -118 -32q-48 -31 -48 -104q0 -49 21 -96l202 -475q43 83 43 201q0 67 60 67h151q41 0 41 -55 q0 -245 -178 -465l96 -211q10 -22 0 -37q-10 -14 -32 -14h-213q-37 0 -45 18l-27 60q-143 -94 -287 -94q-188 0 -298 95q-109 94 -109 265zM338 389q0 -145 156 -145q68 0 135 47l-154 362q-63 -44 -100 -113q-37 -70 -37 -151z" />
<glyph unicode="'" horiz-adv-x="380" d="M217 911l6 363q-2 54 10 123q11 54 41 78t95 24q63 0 90 -24t16 -78q-7 -35 -33 -123l-123 -363h-102z" />
<glyph unicode="(" horiz-adv-x="579" d="M72 348q0 289 109 574q109 286 308 512q30 30 66 30h137q25 0 29 -17t-8 -34q-351 -533 -351 -1108q0 -261 68 -491q6 -21 -3 -37q-9 -17 -36 -17h-137q-36 0 -55 31q-127 236 -127 557z" />
<glyph unicode=")" horiz-adv-x="579" d="M-89 -221q-3 18 9 35q348 532 348 1108q0 269 -67 491q-6 19 4 35t35 16h137q37 0 55 -30q125 -236 125 -551q0 -289 -108 -577q-106 -282 -308 -515q-28 -31 -65 -31h-137q-25 0 -28 19z" />
<glyph unicode="*" horiz-adv-x="743" d="M152 1017q10 23 51 44q27 14 88 31q66 18 96 30q-50 18 -82 28q-62 20 -82 34q-61 34 -4 110q53 75 115 37q18 -12 58 -58q44 -50 61 -65q0 3 -6 99q-4 71 2 84q7 41 29 60q20 17 71 17q48 0 62 -17t7 -60q-2 -23 -13 -51q-24 -60 -28 -69q-20 -45 -26 -63q18 12 83 65 q56 46 79 58q39 21 62 14q24 -7 42 -51q26 -75 -45 -112q-26 -14 -90 -31q-63 -17 -96 -29q27 -12 87 -30q59 -18 79 -31q31 -21 32 -44q2 -24 -28 -67q-32 -42 -59 -50q-26 -8 -56 13q-17 10 -61 60q-35 40 -60 63q0 -19 5 -99q5 -74 -1 -85q-6 -40 -27 -58t-71 -18t-65 18 t-9 58q6 25 33 89q23 55 37 95q-24 -16 -81 -63q-62 -50 -81 -60q-37 -21 -61 -13q-25 8 -41 50q-16 43 -6 67z" />
<glyph unicode="+" horiz-adv-x="1013" d="M106 651l27 146q6 49 55 49h250l51 293q7 49 56 49h170q55 0 43 -49l-51 -293h245q51 0 45 -49l-26 -146q-7 -49 -58 -49h-249l-54 -309q-7 -49 -55 -49h-170q-52 0 -45 49l55 309h-245q-51 0 -44 49z" />
<glyph unicode="," horiz-adv-x="428" d="M-7 -201q-5 13 7 31l92 170h-47q-56 0 -49 55l35 195q12 55 61 55h180q59 0 47 -55l-30 -176q-6 -30 -23 -64l-121 -190q-24 -33 -55 -33h-72q-20 0 -25 12z" />
<glyph unicode="-" horiz-adv-x="567" d="M63 522l25 144q7 49 55 49h361q52 0 45 -49l-25 -144q-7 -49 -57 -49h-361q-55 0 -43 49z" />
<glyph unicode="." horiz-adv-x="428" d="M-4 55l35 195q12 55 61 55h180q59 0 47 -55l-34 -195q-10 -55 -60 -55h-180q-56 0 -49 55z" />
<glyph unicode="/" horiz-adv-x="706" d="M-57 59l624 1338q22 49 70 49h182q29 0 39 -16q11 -17 -4 -44l-627 -1337q-22 -49 -67 -49h-183q-62 0 -34 59z" />
<glyph unicode="0" horiz-adv-x="1034" d="M82 408q0 124 31 315q74 418 205 580q132 163 356 163q179 0 273 -98q95 -100 95 -330q0 -124 -32 -315q-72 -416 -205 -579q-132 -162 -356 -162q-179 0 -273 97t-94 329zM389 418q0 -89 23 -126q22 -36 67 -36q71 0 121 98q52 100 98 369q37 203 37 303q0 164 -92 164 q-71 0 -121 -98q-52 -100 -98 -369q-35 -199 -35 -305z" />
<glyph unicode="1" horiz-adv-x="817" d="M158 1067q-24 27 10 55l364 305q25 19 66 19h201q55 0 49 -55l-238 -1336q-7 -55 -59 -55h-199q-61 0 -49 55l184 1047l-182 -150q-34 -27 -55 0z" />
<glyph unicode="2" horiz-adv-x="952" d="M-16 51l22 133q11 42 51 70q105 78 205 172q103 97 198 208q96 112 156 237t60 233q0 94 -92 94q-77 0 -112 -63q-34 -62 -34 -146q0 -42 -10 -63q-11 -23 -47 -23h-176q-47 0 -47 62q0 226 130 363q130 138 339 138q182 0 274 -89t92 -230q0 -125 -51 -256 q-52 -132 -137 -246t-176 -206q-88 -89 -189 -169h355q20 0 34 -13q16 -14 11 -38l-29 -168q-12 -51 -57 -51h-725q-57 0 -45 51z" />
<glyph unicode="3" horiz-adv-x="905" d="M-31 72l39 178q10 49 62 37q158 -33 221 -33q116 0 182 68t66 182q0 112 -133 112h-99q-49 0 -43 50l29 161q12 50 59 50h88q87 0 133 61q48 63 48 147q0 111 -162 111q-51 0 -94 -6q-46 -6 -82 -16l-41 -11q-25 -4 -37 4q-10 7 -8 31l20 170q4 38 53 53q123 45 281 45 q173 0 277 -71q106 -73 106 -215q0 -129 -57 -240t-166 -158q135 -57 135 -256q0 -261 -137 -403q-137 -141 -392 -141q-208 0 -315 36q-22 7 -30 19q-8 11 -3 35z" />
<glyph unicode="4" horiz-adv-x="999" d="M27 348l26 162q6 34 33 68l584 825q33 43 71 43h205q57 0 47 -55l-147 -840h90q52 0 45 -51l-27 -152q-8 -51 -57 -51h-94l-45 -242q-7 -55 -60 -55h-194q-56 0 -49 55l45 242h-430q-50 0 -43 51zM291 551h252l88 496z" />
<glyph unicode="5" horiz-adv-x="919" d="M-31 76l39 176q8 47 62 35q152 -33 223 -33q137 0 205 80q67 79 67 219q0 67 -37 97t-116 30q-70 0 -137 -16q-71 -17 -85 -17q-12 0 -28 10l-31 19q-23 17 -8 57q76 291 145 662q8 51 56 51h579q53 0 45 -51l-28 -168q-7 -49 -58 -49h-379q-26 -130 -61 -273 q66 21 147 21q155 0 231 -82q77 -83 77 -230q0 -299 -152 -466q-151 -166 -424 -166q-194 0 -301 36q-42 17 -31 58z" />
<glyph unicode="6" horiz-adv-x="993" d="M78 406q0 146 20 280q51 376 204 578t433 202q131 0 215 -28q44 -16 33 -54l-37 -172q-7 -40 -61 -34q-1 0 -13.5 3t-24.5 5q-20 4 -62 10q-28 4 -62 4q-125 0 -185 -72q-62 -75 -102 -251q78 81 223 81q153 0 225 -94t72 -243q0 -166 -51 -307q-50 -140 -168 -236 q-117 -96 -280 -96q-196 0 -287 112q-92 113 -92 312zM371 401q0 -67 27 -112t85 -45q54 0 91 34q39 36 56 89t25 106q9 61 9 102q0 61 -29 98q-29 36 -82 36q-71 0 -114 -57q-45 -59 -56 -118q-12 -63 -12 -133z" />
<glyph unicode="7" horiz-adv-x="880" d="M100 55q52 289 209 609q155 316 332 514h-418q-58 0 -47 53l29 160q6 55 59 55h690q57 0 47 -55l-26 -148q-6 -37 -43 -82q-172 -233 -316 -529q-147 -301 -192 -577q-10 -55 -59 -55h-215q-60 0 -50 55z" />
<glyph unicode="8" horiz-adv-x="997" d="M35 299q0 307 289 451q-140 83 -140 270q0 218 131 332t344 114q174 0 276 -81q101 -80 101 -222q0 -282 -260 -413q158 -92 158 -295q0 -228 -139 -352q-138 -123 -367 -123q-193 0 -293 88t-100 231zM348 358q0 -120 113 -120q87 0 127 63q41 64 41 150q0 124 -101 184 q-180 -95 -180 -277zM477 1030q0 -113 92 -170q168 92 168 258q0 109 -104 109q-81 0 -119 -58q-37 -56 -37 -139z" />
<glyph unicode="9" horiz-adv-x="993" d="M100 63l39 170q8 41 60 35q1 0 13.5 -3t24.5 -5q24 -5 62 -10q29 -4 63 -4q122 0 182 69q61 70 101 248q-77 -76 -217 -76q-155 0 -229 94t-74 242q0 261 130 451t370 190q379 0 379 -424q0 -169 -35 -362q-63 -340 -209 -519t-398 -179q-143 0 -227 28q-41 15 -35 55z M418 879q0 -66 27 -105t83 -39q70 0 114 56q44 57 56 116q13 67 13 131q0 70 -28 118q-27 46 -83 46q-69 0 -112 -61q-44 -61 -57 -129q-13 -65 -13 -133z" />
<glyph unicode=":" horiz-adv-x="479" d="M20 55l37 195q7 55 60 55h180q59 0 49 -55l-37 -195q-10 -55 -59 -55h-180q-57 0 -50 55zM166 874l35 197q11 53 61 53h180q58 0 47 -53l-32 -197q-12 -55 -62 -55h-182q-57 0 -47 55z" />
<glyph unicode=";" horiz-adv-x="479" d="M17 -201q-5 12 8 31l92 170h-47q-57 0 -50 55l37 195q7 55 60 55h180q59 0 49 -55l-33 -176q-5 -35 -22 -64l-121 -190q-24 -33 -53 -33h-74q-21 0 -26 12zM166 874l35 197q11 53 61 53h180q58 0 47 -53l-32 -197q-12 -55 -62 -55h-182q-57 0 -47 55z" />
<glyph unicode="&#x3c;" horiz-adv-x="1013" d="M156 723q1 18 26 39l643 551q44 39 74 2l90 -113q25 -38 -12 -72l-483 -413l333 -410q26 -37 -12 -69l-125 -107q-44 -38 -74 0l-446 551q-16 20 -14 41z" />
<glyph unicode="=" horiz-adv-x="1013" d="M104 424l27 145q7 49 55 49h686q53 0 46 -49l-27 -145q-6 -49 -55 -49h-689q-49 0 -43 49zM184 879l27 143q7 49 55 49h688q50 0 43 -49l-26 -143q-6 -50 -56 -50h-688q-49 0 -43 50z" />
<glyph unicode="&#x3e;" horiz-adv-x="1013" d="M117 242q-29 39 10 69l483 414l-336 410q-28 34 15 71l121 109q47 35 71 0l453 -553q16 -16 12 -39q-1 -19 -26 -41l-648 -551q-38 -38 -71 0z" />
<glyph unicode="?" horiz-adv-x="772" d="M154 55l36 209q11 53 62 53h194q59 0 48 -53l-37 -209q-12 -55 -60 -55h-194q-61 0 -49 55zM188 1198l23 178q1 22 14 33q12 11 39 21q96 36 219 36q344 0 344 -274q0 -102 -42 -204q-41 -100 -93 -170q-53 -72 -99 -145q-47 -75 -58 -130l-9 -39q-10 -55 -61 -55h-166 q-53 0 -47 55l8 39q11 65 53 143q40 75 81 130t72 130q32 78 32 148q0 96 -107 96q-39 0 -72 -5q-20 -3 -55 -14q-26 -8 -28 -8q-26 -5 -38.5 4t-9.5 31z" />
<glyph unicode="@" horiz-adv-x="1622" d="M78 279q0 189 61 362t174 310q111 135 285 218q171 82 377 82q295 0 446 -123q152 -123 152 -348q0 -101 -32 -221q-31 -116 -89 -231q-57 -113 -158 -188q-99 -74 -219 -74h-127q-45 0 -49 34l-18 97q-89 -134 -213 -134q-101 0 -168 67q-66 66 -66 183q0 154 59 298 t187 242q129 99 303 99q66 0 133 -16q73 -17 101 -33q30 -18 24 -47l-182 -631h41q76 0 140 62q61 60 95 153q30 83 50 182q18 88 18 162q0 170 -104 245q-103 75 -332 75q-315 0 -517 -232t-202 -587q0 -195 127 -283t393 -88q177 0 346 39q17 6 24 0t3 -25l-8 -73 q-5 -25 -29 -31q-153 -51 -340 -51q-328 0 -507 126t-179 380zM680 371q0 -101 63 -101q53 0 91 52q35 48 69 165l74 258l-51 7q-82 0 -141 -68q-58 -67 -82 -150q-23 -79 -23 -163z" />
<glyph unicode="A" d="M-39 59l483 1327q22 60 86 60h308q69 0 69 -60l19 -1327v-7q0 -52 -54 -52h-200q-29 0 -42.5 13.5t-11.5 39.5v234h-260l-82 -234q-13 -30 -25 -41q-14 -12 -40 -12h-209q-28 0 -40 16t-1 43zM438 557h195l10 584h-8z" />
<glyph unicode="B" d="M10 55l236 1336q12 55 61 55h361q397 0 397 -291q0 -123 -55 -226q-56 -105 -172 -157q64 -22 105 -95q40 -71 40 -175q0 -228 -131 -365t-369 -137h-424q-50 0 -50 40q0 7 1 15zM352 272h133q97 0 144 64t47 166q0 112 -127 112h-137zM457 872h112q86 0 131 56t45 147 q0 101 -118 101h-115z" />
<glyph unicode="C" horiz-adv-x="882" d="M76 391q0 124 35 336q53 296 132 455q80 160 192 222t300 62q98 0 201 -22q45 -10 45 -49q0 -9 -2 -19l-35 -157q-10 -48 -49 -48q-10 0 -23 3q-85 12 -122 12q-146 0 -209 -89q-64 -90 -115 -370q-31 -197 -31 -268q0 -115 45 -157t154 -42q59 0 129 16q30 6 45 -6 t10 -41l-18 -157q-4 -27 -20 -43q-16 -15 -44 -23q-99 -24 -190 -24q-220 0 -326 89q-104 88 -104 320z" />
<glyph unicode="D" horiz-adv-x="1034" d="M10 55l236 1336q7 55 65 55h293q227 0 334 -98q109 -100 109 -338q0 -105 -27 -279q-69 -413 -216 -572t-419 -159h-328q-48 0 -48 40q0 7 1 15zM360 281h68q110 0 170 91q61 93 107 359q26 146 26 242q0 109 -37 150q-37 42 -119 42h-59z" />
<glyph unicode="E" horiz-adv-x="866" d="M10 55l236 1336q7 55 61 55h606q49 0 49 -40q0 -7 -1 -15l-31 -172q-8 -56 -62 -56h-356l-51 -291h332q50 0 50 -45q0 -5 -1 -10l-31 -162q-6 -55 -59 -55h-338l-58 -317h359q51 0 51 -40q0 -7 -2 -16l-31 -172q-12 -55 -61 -55h-613q-50 0 -50 40q0 7 1 15z" />
<glyph unicode="F" horiz-adv-x="829" d="M10 57l236 1332q10 57 65 57h588q50 0 50 -45q0 -5 -1 -10l-30 -172q-11 -56 -62 -56h-340l-57 -323h321q48 0 48 -43q0 -6 -1 -13l-30 -172q-11 -53 -62 -53h-325l-91 -502q-11 -57 -63 -57h-193q-54 0 -54 42q0 7 1 15z" />
<glyph unicode="G" horiz-adv-x="1015" d="M78 406q0 126 35 321q51 294 137 456q86 161 210 222q123 61 326 61q146 0 234 -30q28 -10 39 -24q10 -13 4 -44l-37 -158q-9 -47 -53 -47q-13 0 -29 4q-97 19 -164 19q-170 0 -236 -87q-67 -89 -118 -372q-31 -180 -31 -276q0 -114 41 -158q40 -43 131 -43q36 0 60 6 l67 381h-96q-50 0 -50 43q0 6 1 12l24 146q12 53 64 53h321q50 0 50 -38q0 -7 -2 -15l-125 -711q-7 -56 -70 -90q-110 -55 -301 -55q-220 0 -326 93t-106 331z" />
<glyph unicode="H" d="M10 55l236 1336q7 55 61 55h199q50 0 50 -40q0 -7 -1 -15l-90 -512h246l90 512q10 55 61 55h201q48 0 48 -43q0 -6 -1 -12l-236 -1336q-10 -55 -59 -55h-201q-50 0 -50 43q0 5 1 12l97 539h-246l-97 -539q-7 -55 -61 -55h-199q-50 0 -50 40q0 7 1 15z" />
<glyph unicode="I" horiz-adv-x="495" d="M20 55l236 1336q10 55 61 55h199q50 0 50 -43q0 -5 -1 -12l-235 -1336q-12 -55 -62 -55h-198q-52 0 -52 39q0 7 2 16z" />
<glyph unicode="J" horiz-adv-x="663" d="M-37 78l37 164q10 43 50 43h7q79 -6 88 -6q50 0 76 29t43 118l170 965q7 55 62 55h200q48 0 48 -40q0 -7 -1 -15l-180 -1018q-38 -219 -125 -300q-89 -83 -264 -83q-102 0 -166 16q-48 13 -48 51q0 10 3 21z" />
<glyph unicode="K" horiz-adv-x="995" d="M10 55l236 1336q7 55 61 55h199q50 0 50 -40q0 -7 -1 -15l-80 -453l305 459q30 49 76 49h231q31 0 40 -21q9 -20 -9 -47l-407 -592l190 -718q8 -30 -4 -49t-43 -19h-207q-55 0 -65 51l-154 613l-109 -609q-7 -55 -61 -55h-199q-50 0 -50 40q0 7 1 15z" />
<glyph unicode="L" horiz-adv-x="794" d="M10 55l236 1336q7 55 61 55h199q50 0 50 -40q0 -7 -1 -15l-195 -1104h289q49 0 49 -39q0 -8 -2 -17l-30 -176q-10 -55 -62 -55h-545q-50 0 -50 40q0 7 1 15z" />
<glyph unicode="M" horiz-adv-x="1236" d="M10 55l236 1336q7 55 61 55h174q56 0 68 -43l129 -555l328 555q27 43 73 43h187q50 0 50 -43q0 -5 -1 -12l-236 -1336q-12 -55 -61 -55h-193q-51 0 -51 38q0 8 2 17l139 791l-251 -438q-22 -43 -64 -43q-39 0 -49 43l-96 438l-142 -791q-10 -55 -59 -55h-195 q-50 0 -50 40q0 7 1 15z" />
<glyph unicode="N" horiz-adv-x="1062" d="M10 55l236 1336q7 55 61 55h174q56 0 68 -45l164 -748l129 738q10 55 61 55h189q52 0 52 -45q0 -5 -1 -10l-238 -1336q-7 -55 -61 -55h-172q-57 0 -68 47l-164 746l-131 -738q-10 -55 -59 -55h-191q-50 0 -50 40q0 7 1 15z" />
<glyph unicode="O" horiz-adv-x="1056" d="M76 393q0 125 35 330q52 294 131 459q78 164 180 224t262 60q194 0 289 -91q96 -92 96 -322q0 -129 -35 -330q-51 -294 -129 -458q-78 -163 -180 -223t-262 -60q-193 0 -290 91t-97 320zM387 406q0 -83 25 -117q24 -33 80 -33q84 0 131 92q46 91 96 375q39 234 39 317 q0 85 -25 118q-24 32 -78 32q-57 0 -94 -36q-36 -34 -69 -136q-33 -101 -66 -295q-39 -234 -39 -317z" />
<glyph unicode="P" horiz-adv-x="995" d="M10 55l236 1336q12 55 61 55h301q223 0 324 -77q100 -76 100 -263q0 -95 -16 -184q-50 -300 -170 -410q-122 -111 -385 -111h-80l-62 -346q-7 -55 -61 -55h-199q-50 0 -50 40q0 7 1 15zM430 678h64q100 0 140 48q38 45 66 196q17 91 17 131q0 64 -32 88q-31 24 -105 24 h-64z" />
<glyph unicode="Q" horiz-adv-x="1050" d="M80 408q0 138 33 323q74 424 202 579q129 156 367 156q190 0 287 -92q96 -92 96 -317q0 -140 -35 -326q-91 -525 -328 -655q41 -13 68 -13q11 0 35 4q18 3 24 3q40 0 40 -33q0 -5 -1 -12l-26 -146q-7 -59 -66 -59q-225 0 -391 182q-150 10 -227 104q-78 94 -78 302z M389 420q0 -81 25 -115q24 -33 78 -33q82 0 129 93q48 94 94 366q39 209 39 309q0 83 -25 117q-24 33 -78 33q-82 0 -129 -92q-48 -94 -94 -367q-39 -229 -39 -311z" />
<glyph unicode="R" horiz-adv-x="1005" d="M10 55l236 1336q7 55 61 55h318q223 0 325 -75q103 -76 103 -253q0 -74 -19 -178q-30 -185 -101 -291q-69 -103 -190 -147l121 -434q5 -16 5 -29q0 -39 -50 -39h-190q-58 0 -70 47l-100 406h-70l-70 -398q-7 -55 -61 -55h-199q-50 0 -50 40q0 7 1 15zM438 719h80 q98 0 139 47q42 48 64 176q10 69 10 109q0 63 -31 89q-29 25 -106 25h-78z" />
<glyph unicode="S" horiz-adv-x="860" d="M-14 78l37 160q11 48 49 48q12 0 28 -5q77 -25 183 -25q83 0 140 39q56 38 56 125q0 45 -28 88q-28 42 -105 106q-188 152 -188 371q0 481 477 481q154 0 235 -22q27 -7 40 -23q11 -14 3 -45l-36 -164q-9 -45 -49 -45q-12 0 -27 4q-84 19 -156 19q-164 0 -164 -150 q0 -88 127 -206q195 -173 195 -373q0 -217 -131 -348t-359 -131q-192 0 -280 28q-30 10 -42 24q-11 13 -5 44z" />
<glyph unicode="T" horiz-adv-x="821" d="M168 1219l31 172q10 55 61 55h639q50 0 50 -40q0 -7 -1 -15l-30 -172q-8 -56 -62 -56h-168l-196 -1108q-7 -55 -62 -55h-199q-50 0 -50 40q0 7 1 15l197 1108h-162q-50 0 -50 43q0 6 1 13z" />
<glyph unicode="U" horiz-adv-x="1019" d="M57 291q0 52 13 125l172 975q7 55 61 55h199q50 0 50 -40q0 -7 -1 -15l-164 -934q-10 -63 -10 -95q0 -53 22 -75q23 -23 74 -23q69 0 104 42q32 39 54 151l164 934q7 55 61 55h199q50 0 50 -45q0 -5 -1 -10l-174 -975q-39 -236 -152 -335q-112 -99 -334 -99 q-195 0 -290 74q-97 76 -97 235z" />
<glyph unicode="V" horiz-adv-x="1021" d="M193 1386q0 60 53 60h215q53 0 53 -45v-8l-20 -795l-19 -279h6l82 279l258 795q17 53 66 53h225q28 0 40 -16t-1 -44l-479 -1318q-27 -68 -82 -68h-318q-63 0 -63 68z" />
<glyph unicode="W" horiz-adv-x="1591" d="M190 68l5 1318q0 60 55 60h215q48 0 53 -53l-20 -697l-19 -307h6l90 307l220 697q12 53 65 53h199q55 0 55 -53l-29 -697l-16 -307h6l92 307l224 697q17 53 63 53h225q45 0 45 -32q0 -12 -6 -28l-458 -1318q-27 -68 -82 -68h-273q-63 0 -63 68l10 460l14 342h-4 l-104 -342l-150 -460q-23 -68 -82 -68h-270q-64 0 -66 68z" />
<glyph unicode="X" horiz-adv-x="985" d="M-44 22q-10 22 5 44l393 669l-155 645q-6 24 6 45t41 21h215q54 0 65 -47l66 -375l192 375q24 47 76 47h217q30 0 38 -23q7 -22 -5 -43l-385 -645l156 -669q6 -23 -7 -46q-11 -20 -43 -20h-208q-54 0 -66 49l-70 387l-204 -387q-27 -49 -76 -49h-211q-31 0 -40 22z" />
<glyph unicode="Y" horiz-adv-x="995" d="M188 1380q-6 23 7 45q12 21 47 21h204q58 0 66 -51l37 -367l4 -197h6l76 197l166 367q27 51 76 51h215q34 0 42 -23q7 -22 -8 -43l-460 -833l-86 -492q-12 -55 -62 -55h-199q-51 0 -51 38q0 8 2 17l86 492z" />
<glyph unicode="Z" horiz-adv-x="901" d="M-12 55l28 164q7 43 37 84l553 860h-342q-48 0 -48 43q0 6 1 13l31 172q10 55 61 55h631q48 0 48 -43q0 -6 -1 -12l-26 -164q-7 -43 -37 -84l-551 -860h377q49 0 49 -37q0 -8 -2 -17l-31 -174q-7 -55 -59 -55h-670q-51 0 -51 38q0 8 2 17z" />
<glyph unicode="[" horiz-adv-x="579" d="M-8 -174l276 1571q12 49 58 49h327q52 0 45 -49l-24 -142q-8 -51 -56 -51h-100l-211 -1188h94q55 0 43 -51l-24 -139q-6 -51 -55 -51h-328q-53 0 -45 51z" />
<glyph unicode="\" horiz-adv-x="706" d="M184 1386q-4 60 54 60h163q50 0 56 -49l155 -1338q4 -59 -53 -59h-178q-27 0 -33 10q-7 11 -8 39z" />
<glyph unicode="]" horiz-adv-x="581" d="M-68 -174l25 139q7 51 57 51h99l211 1188h-95q-51 0 -45 51l25 142q12 49 57 49h328q52 0 45 -49l-279 -1571q-6 -51 -55 -51h-328q-53 0 -45 51z" />
<glyph unicode="^" horiz-adv-x="1013" d="M133 737q-8 17 8 43l379 623q30 43 70 43h170q49 0 61 -43l160 -623q12 -59 -41 -59h-170q-47 0 -59 45l-82 362l-213 -362q-24 -45 -68 -45h-182q-26 0 -33 16z" />
<glyph unicode="_" horiz-adv-x="858" d="M-88 -188l12 69q6 49 53 49h707q53 0 43 -49l-12 -69q-8 -50 -56 -50h-704q-51 0 -43 50z" />
<glyph unicode="`" horiz-adv-x="557" d="M261 1420q9 20 32 20h221q43 0 49 -37l33 -152q10 -43 -35 -43h-112q-41 0 -66 31l-119 147q-12 15 -3 34z" />
<glyph unicode="a" horiz-adv-x="854" d="M6 240q0 240 135 345q134 104 410 115l12 78q4 21 4 38q0 34 -16 51q-24 26 -92 26q-82 0 -217 -39q-27 -4 -43 5q-15 9 -11 36l21 149q6 48 51 58q111 39 264 39q166 0 247 -58q79 -57 79 -180q0 -44 -8 -94l-133 -758q-7 -51 -56 -51h-141q-55 0 -55 43l6 57 q-89 -110 -225 -110q-103 0 -167 65q-65 67 -65 185zM285 285q0 -78 67 -78q111 0 144 184l22 131q-140 -7 -187 -63q-46 -55 -46 -174z" />
<glyph unicode="b" horiz-adv-x="962" d="M2 51l238 1346q7 49 55 49h186q46 0 46 -38q0 -5 -1 -11l-63 -353q80 101 221 101q264 0 264 -330q0 -107 -24 -252q-55 -317 -153 -448t-263 -131q-78 0 -140 34q-61 34 -77 82l-15 -57q-16 -43 -61 -43h-168q-46 0 -46 39q0 5 1 12zM356 379q0 -146 97 -146 q65 0 105 72q40 71 73 258q24 147 24 201q0 129 -88 129q-67 0 -113 -75q-47 -76 -77 -255q-21 -127 -21 -184z" />
<glyph unicode="c" horiz-adv-x="718" d="M49 336q0 88 23 231q52 307 170 443q117 135 319 135q111 0 180 -23q35 -12 35 -42q0 -7 -2 -15l-37 -162q-8 -36 -41 -36q-9 0 -20 3q-64 11 -94 11q-95 0 -140 -65q-44 -63 -77 -249q-21 -108 -21 -182q0 -79 30 -109t97 -30q44 0 107 14q25 4 36 -4t9 -31l-21 -162 q-4 -40 -53 -55q-78 -24 -160 -24q-169 0 -254 84q-86 84 -86 268z" />
<glyph unicode="d" horiz-adv-x="962" d="M47 311q0 111 27 252q51 311 149 446q99 136 264 136q75 0 137 -31q59 -29 76 -70l64 353q7 49 55 49h187q46 0 46 -38q0 -5 -1 -11l-238 -1346q-7 -51 -55 -51h-168q-53 0 -53 43l4 55q-29 -46 -91 -81q-57 -33 -137 -33q-131 0 -198 76q-68 77 -68 251zM342 360 q0 -127 86 -127q68 0 114 75q46 74 79 255q18 113 18 182q0 148 -96 148q-67 0 -107 -73q-37 -69 -71 -257q-23 -138 -23 -203z" />
<glyph unicode="e" horiz-adv-x="876" d="M49 348q0 69 25 227q52 304 165 438q111 132 316 132q313 0 313 -316q0 -81 -20 -202l-23 -129q-6 -33 -20 -44q-15 -12 -47 -12h-426q-8 -43 -8 -77q0 -76 42 -109t136 -33q85 0 174 25q30 8 44 -2q15 -11 11 -37l-14 -133q-8 -47 -58 -64q-90 -28 -208 -28 q-206 0 -304 85t-98 279zM365 643h215l4 25q16 92 16 147q0 103 -74 103q-58 0 -95 -61q-36 -60 -66 -214z" />
<glyph unicode="f" horiz-adv-x="581" d="M47 49l133 758h-51q-44 0 -44 37q0 5 1 10l31 172q8 47 55 47h55l15 78q30 176 100 241q68 64 221 64q91 0 129 -14q30 -10 30 -40q0 -5 -1 -11l-21 -129q-8 -50 -55 -50h-4h-35q-47 0 -64 -20q-18 -21 -28 -80l-4 -39h102q44 0 44 -39q0 -6 -1 -12l-28 -166 q-7 -49 -56 -49h-110l-133 -758q-7 -49 -56 -49h-180q-46 0 -46 38q0 5 1 11z" />
<glyph unicode="g" horiz-adv-x="923" d="M14 -145l31 131q8 43 43 43q11 0 25 -4q121 -31 198 -31q91 0 141 38q49 37 64 124l12 65q-72 -100 -217 -100q-127 0 -188 68q-62 70 -62 219q0 85 23 223q49 274 141 394q91 120 252 120q79 0 132 -36t71 -83l16 59q15 43 68 43h154q39 0 39 -37q0 -6 -1 -14l-163 -930 q-34 -205 -144 -298q-107 -91 -321 -91q-193 0 -277 35q-39 17 -39 47q0 7 2 15zM358 471q0 -115 78 -115q119 0 164 275q14 74 14 145q0 129 -82 129q-60 0 -95 -65q-36 -66 -60 -209q-19 -104 -19 -160z" />
<glyph unicode="h" horiz-adv-x="919" d="M2 51l238 1346q7 49 55 49h186q46 0 46 -38q0 -5 -1 -11l-61 -353q101 101 219 101q112 0 171 -66q58 -65 58 -182q0 -46 -8 -96l-131 -750q-12 -51 -55 -51h-187q-46 0 -46 40q0 5 1 11l119 678q8 37 8 70q0 73 -63 73q-116 0 -154 -198l-108 -623q-7 -51 -56 -51h-186 q-46 0 -46 39q0 5 1 12z" />
<glyph unicode="i" horiz-adv-x="442" d="M4 51l180 1026q8 51 58 51h186q44 0 44 -39q0 -5 -1 -12l-180 -1026q-12 -51 -55 -51h-187q-46 0 -46 39q0 5 1 12zM215 1268l21 125q12 51 57 51h194q44 0 44 -38q0 -6 -1 -13l-22 -125q-7 -49 -53 -49h-197q-45 0 -45 33q0 7 2 16z" />
<glyph unicode="j" horiz-adv-x="481" d="M-127 -172l27 162q6 49 55 49h29q33 0 49 19q15 18 26 77l166 942q7 51 58 51h186q44 0 44 -40q0 -5 -1 -11l-178 -1003q-30 -183 -93 -246q-64 -64 -214 -64q-82 0 -123 13q-32 9 -32 40q0 5 1 11zM254 1268l22 125q8 51 56 51h194q46 0 46 -40q0 -5 -1 -11l-22 -125 q-7 -49 -55 -49h-195q-46 0 -46 38q0 5 1 11z" />
<glyph unicode="k" horiz-adv-x="870" d="M2 51l238 1346q7 49 55 49h186q46 0 46 -38q0 -5 -1 -11l-112 -627l227 320q26 38 72 38h217q33 0 37 -22t-17 -45l-323 -440l155 -558q2 -11 2 -20q0 -43 -47 -43l-196 2q-54 0 -64 43l-112 438l-76 -432q-7 -51 -56 -51h-186q-46 0 -46 39q0 5 1 12z" />
<glyph unicode="l" horiz-adv-x="448" d="M6 51l238 1346q7 49 55 49h186q46 0 46 -38q0 -5 -1 -11l-237 -1346q-7 -51 -55 -51h-187q-46 0 -46 39q0 5 1 12z" />
<glyph unicode="m" horiz-adv-x="1370" d="M-2 51l180 1026q7 51 58 51h167q54 0 54 -43l-4 -55q97 115 223 115q162 0 196 -133q124 133 269 133q114 0 172 -64q57 -63 57 -178q0 -44 -8 -90l-135 -762q-12 -51 -56 -51h-184q-46 0 -46 39q0 6 1 12l121 680q6 38 6 68q0 73 -59 73q-112 0 -146 -186l-110 -635 q-12 -51 -58 -51h-180q-46 0 -46 40q0 5 1 11l121 680q6 38 6 68q0 73 -59 73q-109 0 -148 -194l-108 -627q-12 -51 -56 -51h-184q-46 0 -46 39q0 5 1 12z" />
<glyph unicode="n" horiz-adv-x="913" d="M-2 51l180 1026q7 51 58 51h165q54 0 54 -43l-4 -55q92 115 229 115q112 0 171 -66q58 -65 58 -180q0 -44 -10 -98l-131 -750q-12 -51 -55 -51h-187q-47 0 -47 35q0 7 2 16l119 678q8 56 8 68q0 75 -63 75q-117 0 -152 -198l-110 -623q-7 -51 -56 -51h-186q-45 0 -45 34 q0 8 2 17z" />
<glyph unicode="o" horiz-adv-x="921" d="M49 336q0 89 23 227q55 315 167 449q111 133 322 133q173 0 259 -84q85 -84 85 -273q0 -108 -20 -225q-56 -311 -169 -446q-111 -133 -323 -133q-173 0 -258 84q-86 84 -86 268zM338 350q0 -119 82 -119q65 0 101 71q37 72 71 261q26 134 26 215q0 119 -81 119 q-66 0 -102 -71q-35 -69 -70 -263q-27 -139 -27 -213z" />
<glyph unicode="p" horiz-adv-x="958" d="M-43 -174l221 1251q7 51 58 51h167q52 0 52 -43l-4 -57q79 117 223 117q270 0 270 -334q0 -103 -24 -248q-55 -309 -151 -445q-95 -134 -259 -134q-80 0 -141 29q-63 30 -80 71l-45 -258q-6 -51 -56 -51h-186q-46 0 -46 41q0 5 1 10zM352 381q0 -148 97 -148q65 0 105 72 q40 71 73 258q22 128 22 201q0 70 -20 99q-21 30 -66 30q-67 0 -113 -75q-47 -76 -77 -255q-21 -127 -21 -182z" />
<glyph unicode="q" horiz-adv-x="958" d="M47 311q0 111 27 252q56 321 153 450q99 132 262 132q76 0 139 -36q62 -35 77 -81l16 57q15 43 63 43h166q44 0 44 -39q0 -6 -1 -12l-221 -1251q-6 -51 -55 -51h-187q-46 0 -46 41q0 5 1 10l45 258q-66 -100 -217 -100q-266 0 -266 327zM342 362q0 -70 20 -99 q21 -30 66 -30q68 0 114 75q46 74 79 255q18 113 18 182q0 148 -96 148q-67 0 -107 -73q-37 -69 -71 -257q-23 -138 -23 -201z" />
<glyph unicode="r" horiz-adv-x="632" d="M-2 51l180 1026q7 51 58 51h174q48 0 48 -41q0 -5 -1 -10l-11 -90q33 62 91 106t129 44q30 0 40 -13q9 -12 3 -41l-41 -237q-8 -47 -52 -47l-28 2q-28 2 -35 2h-2q-65 0 -110 -57q-46 -57 -62 -162l-94 -533q-7 -51 -56 -51h-186q-46 0 -46 39q0 5 1 12z" />
<glyph unicode="s" horiz-adv-x="731" d="M-31 66l35 159q8 40 39 40q10 0 23 -5q69 -24 176 -24q59 0 104 26q47 27 47 76q0 25 -19 48q-20 24 -42 39q-6 4 -76 50q-84 51 -128 113t-44 157q0 400 410 400q150 0 231 -25q34 -7 34 -39q0 -6 -1 -14l-35 -156q-8 -41 -42 -41q-8 0 -17 2q-76 21 -144 21 q-147 0 -147 -96q0 -7 2 -17q1 -5 7 -15q3 -5 9 -13q7 -9 15 -16q15 -13 17 -14t8.5 -6t12.5 -8q12 -7 23 -16q3 -2 12 -7.5t15 -9.5q21 -14 28 -18q158 -102 158 -272q0 -401 -424 -401q-153 0 -252 28q-37 10 -37 39q0 7 2 15z" />
<glyph unicode="t" horiz-adv-x="589" d="M80 199q0 51 12 123l86 485h-51q-44 0 -44 35q0 6 1 12l31 172q8 47 55 47h57l39 227q8 50 58 50h178q44 0 44 -37q0 -6 -1 -13l-39 -227h102q44 0 44 -39q0 -5 -1 -12l-28 -166q-7 -49 -58 -49h-106l-76 -428q-8 -56 -8 -66q0 -28 13 -40q12 -11 48 -11q9 0 17 1t14 1 q25 2 34 -10q9 -13 5 -39l-23 -158q-6 -38 -47 -53q-41 -14 -102 -14q-133 0 -194 47q-60 47 -60 162z" />
<glyph unicode="u" horiz-adv-x="909" d="M33 221q0 45 8 88l135 768q8 51 57 51h187q44 0 44 -39q0 -5 -1 -12l-119 -674q-6 -39 -6 -67q0 -82 65 -82q110 0 144 190l110 633q7 51 58 51h186q44 0 44 -38q0 -6 -1 -13l-180 -1026q-12 -51 -55 -51h-168q-54 0 -54 43l5 55q-27 -33 -52 -56q-25 -24 -65 -40 q-43 -18 -99 -18q-117 0 -180 60t-63 177z" />
<glyph unicode="v" horiz-adv-x="845" d="M129 1073q0 55 47 55h197q49 0 49 -44v-9l-12 -540l-15 -183h6l52 183l174 540q21 53 65 53h207q37 0 37 -27q0 -11 -6 -28l-400 -1020q-24 -53 -71 -53h-230q-59 0 -59 53z" />
<glyph unicode="w" horiz-adv-x="1318" d="M133 1073q0 55 47 55h191q49 0 49 -44v-9l-17 -485l-14 -230h4l74 230l162 489q18 49 59 49h160q47 0 47 -49l-10 -489l-11 -230h5l69 230l152 485q21 53 65 53h203q37 0 37 -27q0 -11 -6 -28l-367 -1018q-22 -55 -71 -55h-207q-60 0 -60 55l2 355l6 282h-6l-96 -282 l-123 -355q-21 -55 -69 -55h-207q-60 0 -60 55z" />
<glyph unicode="x" horiz-adv-x="860" d="M-50 16q-5 17 7 37l330 520l-144 500q-6 23 3 39t34 16h191q51 0 57 -38l57 -281l156 281q20 38 68 38h198q25 0 29 -17t-8 -38l-320 -500l148 -520q6 -22 -2 -38q-8 -15 -31 -15h-201q-52 0 -59 37l-53 287l-158 -287q-16 -37 -64 -37h-208q-26 0 -30 16z" />
<glyph unicode="y" horiz-adv-x="849" d="M-57 -168l30 148q12 49 62 49q68 -6 74 -6q87 0 87 92q0 11 -1 24l-62 934v8q0 47 45 47h195q51 0 51 -53v-532l-12 -191h6l51 191l162 532q17 53 63 53h205q39 0 39 -29q0 -11 -6 -26l-379 -1007q-62 -171 -143 -235q-84 -67 -256 -67q-137 0 -183 17q-29 12 -29 39 q0 6 1 12z" />
<glyph unicode="z" horiz-adv-x="780" d="M-16 51l20 121q6 31 31 66l411 622h-256q-46 0 -46 38q0 5 1 11l31 168q6 51 57 51h543q44 0 44 -39q0 -5 -1 -12l-22 -123q-6 -35 -31 -67l-410 -619h279q44 0 44 -38q0 -6 -1 -13l-29 -166q-7 -51 -55 -51h-567q-45 0 -45 34q0 8 2 17z" />
<glyph unicode="{" horiz-adv-x="579" d="M35 528l28 164q6 49 58 49h16q35 0 62 66t57 235q43 245 114 325q70 79 232 79h74q53 0 41 -49l-25 -140q-6 -49 -59 -49h-19q-33 0 -51 -46q-19 -49 -41 -175q-30 -178 -83 -265q-52 -85 -142 -112q111 -38 111 -196q0 -64 -19 -178q-20 -121 -20 -164q0 -60 34 -60h21 q48 0 41 -49l-25 -137q-8 -51 -59 -51h-76q-122 0 -174 41q-51 40 -51 153q0 80 24 209q27 146 27 217q0 84 -41 84h-16q-51 0 -39 49z" />
<glyph unicode="|" horiz-adv-x="567" d="M143 -174v1612q0 49 50 49h182q49 0 49 -49v-1612q0 -51 -49 -51h-182q-50 0 -50 51z" />
<glyph unicode="}" horiz-adv-x="579" d="M-86 -174l23 137q7 49 59 49h18q34 0 52 47q17 43 40 177q33 181 85 264t143 110q-113 38 -113 201q0 65 19 176q20 100 20 162q0 59 -35 59h-20q-47 0 -41 49l24 140q12 49 60 49h78q123 0 173 -41t50 -156q0 -74 -23 -207q-26 -142 -26 -221q0 -80 39 -80h16 q47 0 41 -49l-29 -164q-7 -49 -59 -49h-16q-35 0 -62 -64q-27 -65 -57 -237q-44 -244 -114 -323q-71 -80 -232 -80h-74q-47 0 -39 51z" />
<glyph unicode="~" horiz-adv-x="1013" d="M92 649q80 277 268 277q94 0 183 -47l96 -56q55 -26 86 -26q52 0 86 61l23 39q16 32 51 14l108 -55q29 -15 19 -51q-80 -277 -269 -277q-95 0 -180 50l-96 53q-52 28 -88 28q-47 0 -86 -61l-21 -39q-18 -37 -53 -16l-108 57q-26 15 -19 49z" />
<glyph unicode="&#xa1;" horiz-adv-x="485" d="M-29 -170l179 793q10 55 59 55h135q53 0 47 -55l-102 -793q-10 -55 -58 -55h-217q-55 0 -43 55zM162 864l35 209q12 55 63 55h195q55 0 45 -55l-35 -209q-12 -55 -62 -55h-194q-59 0 -47 55z" />
<glyph unicode="&#xa2;" horiz-adv-x="745" d="M55 348q0 98 21 219q50 283 152 415q104 135 282 157l20 129q8 45 54 45h71q45 0 37 -45l-20 -129q21 -3 94 -19q38 -15 31 -55l-37 -162q-12 -43 -60 -35q-80 13 -104 13q-98 0 -146 -66t-81 -248q-19 -97 -19 -172q0 -83 33 -116t104 -33q31 0 111 12q27 6 39 -3 q13 -9 8 -32l-20 -160q-4 -40 -52 -55q-40 -12 -104 -18l-23 -129q-8 -45 -53 -45h-71q-44 0 -37 45l22 129q-252 30 -252 358z" />
<glyph unicode="&#xa3;" horiz-adv-x="1019" d="M-8 166q-15 28 14 45q259 189 252 436h-129q-47 0 -41 43l12 72q8 45 52 45h77q-20 91 -20 164q0 229 133 362t350 133q166 0 259 -68q96 -70 96 -214q0 -68 -17 -133q-17 -64 -51 -64h-174q-39 0 -39 29q0 14 9 49t9 57q0 82 -110 82q-94 0 -134 -66q-40 -65 -40 -163 q0 -43 18 -168h199q47 0 39 -45l-13 -72q-6 -43 -49 -43h-164q-5 -80 -14 -140q-7 -51 -46 -125q-37 -71 -108 -122q58 16 91 16q37 0 85 -15t76 -15q71 0 95 116q8 48 57 48h145q59 0 47 -64q-63 -362 -272 -362q-83 0 -183 33q-103 34 -167 34q-119 0 -211 -53 q-37 -16 -49 6z" />
<glyph unicode="&#xa4;" horiz-adv-x="1036" d="M102 213q-30 29 0 59l93 93q-29 81 -29 217q0 132 29 217l-93 92q-29 30 0 59l48 49q30 27 59 0l72 -73q85 88 237 88q153 0 238 -88l73 73q27 27 60 0l47 -49q30 -29 0 -59l-94 -94q28 -88 28 -215q0 -129 -28 -217l94 -93q30 -30 0 -59l-47 -49q-31 -29 -60 0l-73 74 q-83 -91 -238 -91q-157 0 -237 91l-72 -74q-29 -27 -59 0zM403 582q0 -226 115 -226t115 226q0 223 -115 223t-115 -223z" />
<glyph unicode="&#xa5;" horiz-adv-x="1015" d="M82 385l12 72q6 43 49 43h215l4 28l-20 119h-168q-45 0 -39 45l12 70q7 43 50 43h112l-121 575q-10 66 54 66h209q55 0 63 -51l57 -543h9l249 543q23 51 76 51h207q35 0 41 -23t-8 -43l-322 -575h109q45 0 39 -43l-13 -70q-8 -45 -49 -45h-174l-63 -119l-4 -28h211 q46 0 36 -43l-10 -72q-7 -43 -49 -43h-215l-53 -287q-10 -55 -60 -55h-198q-58 0 -51 55l53 287h-211q-46 0 -39 43z" />
<glyph unicode="&#xa6;" horiz-adv-x="567" d="M143 -174v588q0 49 50 49h182q49 0 49 -49v-588q0 -51 -49 -51h-182q-50 0 -50 51zM143 850v588q0 49 50 49h182q49 0 49 -49v-588q0 -51 -49 -51h-182q-50 0 -50 51z" />
<glyph unicode="&#xa7;" horiz-adv-x="1034" d="M25 -139l28 162q10 57 78 40q106 -24 211 -24q47 0 90 10q47 11 86 40q41 30 41 77q0 33 -25 55q-24 22 -88 51q-49 23 -81 41q-127 68 -186 131q-58 61 -58 160q0 92 42 174t120 129q-54 71 -54 156q0 197 130 300t341 103q164 0 252 -26q54 -15 43 -68l-28 -164 q-8 -56 -78 -39q-101 23 -176 23t-125 -30t-56 -85q0 -40 26 -66q27 -27 89 -55q70 -32 80 -38q120 -70 181 -136q59 -64 59 -159q0 -199 -158 -301q53 -64 53 -154q0 -197 -145 -299t-365 -102q-201 0 -282 26q-31 6 -40 21t-5 47zM385 645q0 -11 3 -23q3 -10 11 -22 q5 -7 16 -18q12 -12 23 -20l15 -10l12 -8q14 -10 34 -20l36 -18l42 -21q24 -12 44 -20q33 11 58 44q26 35 26 71q0 50 -55 90q-53 38 -179 96q-35 -8 -60 -45q-26 -38 -26 -76z" />
<glyph unicode="&#xa8;" horiz-adv-x="557" d="M113 1255l20 119q6 47 51 47h168q54 0 43 -47l-20 -119q-11 -47 -53 -47h-168q-53 0 -41 47zM461 1255l20 119q11 47 54 47h167q52 0 41 -47l-20 -119q-11 -47 -53 -47h-166q-54 0 -43 47z" />
<glyph unicode="&#xa9;" horiz-adv-x="1464" d="M70 723q0 326 169 534q170 209 492 209q324 0 494 -209t170 -534q0 -324 -170 -533q-169 -208 -494 -208q-323 0 -492 208t-169 533zM250 723q0 -266 114 -422t367 -156q255 0 369 156t114 422q0 267 -114 423q-115 157 -369 157q-252 0 -367 -157q-114 -156 -114 -423z M451 733q2 245 76 336q75 92 247 92q78 0 127 -14q35 -8 33 -43l-6 -103q-4 -33 -41 -26q-30 8 -78 8q-86 0 -119 -51t-33 -199q0 -150 34 -202t122 -52q40 0 80 8q39 11 39 -26l8 -105q0 -32 -33 -39q-69 -18 -129 -18q-172 0 -249 93q-76 93 -78 341z" />
<glyph unicode="&#xaa;" horiz-adv-x="673" d="M162 1192q0 192 108 273q107 80 322 85l12 68q8 47 -13 65q-22 19 -75 19q-48 0 -170 -27q-20 -4 -32 2q-11 5 -9 29l12 115q6 32 41 43q96 32 205 32q136 0 199 -45t63 -147q0 -39 -8 -82l-100 -573q-6 -43 -49 -43h-115q-43 0 -43 36l2 39q-63 -84 -168 -84 q-77 0 -130 53q-52 52 -52 142zM383 1233q0 -66 53 -66q89 0 113 142l18 100q-184 -4 -184 -176z" />
<glyph unicode="&#xab;" horiz-adv-x="860" d="M68 594q5 13 10 22l166 289q18 39 61 39h160q50 0 22 -49l-172 -301l68 -299q11 -51 -37 -51h-162q-40 0 -51 41l-63 286q0 8 -1 13t-1 10zM442 594q5 14 11 22l163 289q18 39 62 39h162q49 0 22 -49l-172 -301l68 -299q6 -51 -39 -51h-162q-43 0 -49 41l-64 286 q-2 10 -2 23z" />
<glyph unicode="&#xac;" horiz-adv-x="1015" d="M121 653l26 146q6 51 56 51h715q50 0 43 -51l-93 -516q-6 -52 -57 -52h-170q-51 0 -45 52l57 319h-489q-50 0 -43 51z" />
<glyph unicode="&#xad;" horiz-adv-x="567" d="M63 522l25 144q7 49 55 49h361q52 0 45 -49l-25 -144q-7 -49 -57 -49h-361q-55 0 -43 49z" />
<glyph unicode="&#xae;" horiz-adv-x="788" d="M63 1108q0 150 88 255q87 103 242 103q156 0 243 -103t87 -255t-87 -255t-243 -103q-155 0 -242 103q-88 105 -88 255zM147 1108q0 -127 62 -204t184 -77q123 0 185 77q61 76 61 204t-61 204q-62 77 -185 77q-122 0 -184 -77t-62 -204zM266 932v362q0 21 21 21h116 q78 0 114 -33t36 -111q0 -100 -66 -127l58 -108q4 -10 0 -17q-5 -8 -15 -8h-71q-17 0 -23 15l-49 104h-14v-98q0 -21 -21 -21h-65q-21 0 -21 21zM373 1118h24q28 0 36 11q9 12 9 42q0 29 -9 39q-9 11 -36 11h-24v-103z" />
<glyph unicode="&#xaf;" horiz-adv-x="557" d="M125 1268l14 84q8 47 49 47h502q47 0 39 -47l-12 -84q-7 -45 -53 -45h-500q-46 0 -39 45z" />
<glyph unicode="&#xb0;" horiz-adv-x="684" d="M172 1110q0 141 92 247q92 105 240 105q115 0 184 -69q70 -70 70 -179q0 -142 -92 -246t-240 -104q-111 0 -183 70q-71 69 -71 176zM328 1128q-2 -54 28 -86q29 -32 84 -32q72 0 116 54q44 55 44 136q0 54 -30 85q-30 32 -83 32q-72 0 -115 -56q-44 -58 -44 -133z" />
<glyph unicode="&#xb1;" horiz-adv-x="1013" d="M0 49l20 113q7 49 56 49h764q52 0 45 -49l-21 -113q-7 -49 -55 -49h-764q-52 0 -45 49zM121 733l24 146q8 47 58 47h250l49 286q12 52 57 52h170q53 0 41 -52l-49 -286h246q51 0 43 -47l-25 -146q-7 -49 -55 -49h-250l-55 -301q-7 -49 -56 -49h-170q-50 0 -43 49l54 301 h-244q-52 0 -45 49z" />
<glyph unicode="&#xb2;" horiz-adv-x="659" d="M170 1040l18 101q4 23 33 45q337 257 361 456q6 70 -50 70q-83 0 -83 -117q0 -51 -39 -51h-127q-33 0 -33 41q0 146 81 230t234 84q112 0 176 -58t64 -145q0 -254 -338 -506h215q44 0 33 -35l-21 -115q-6 -34 -39 -34h-454q-38 0 -31 34z" />
<glyph unicode="&#xb3;" horiz-adv-x="659" d="M137 1055l27 123q7 28 43 22q91 -20 135 -20q150 0 150 125q0 65 -84 65h-64q-37 0 -31 35l19 104q6 33 39 33h63q51 0 81 30t30 79q0 63 -115 63q-25 0 -49 -4t-49 -9t-29 -5q-19 -4 -28 1q-7 4 -5 19l13 119q2 23 32 35q84 28 181 28q119 0 193 -46q75 -46 75 -138 q0 -81 -42 -147q-41 -65 -112 -88q95 -30 95 -168q0 -157 -93 -238q-92 -80 -247 -80q-59 0 -125 11q-64 11 -80 18q-27 12 -23 33z" />
<glyph unicode="&#xb4;" horiz-adv-x="557" d="M238 1251l84 152q18 37 57 37h223q24 0 29 -20q4 -18 -15 -34l-159 -147q-34 -31 -72 -31h-125q-43 0 -22 43z" />
<glyph unicode="&#xb5;" horiz-adv-x="911" d="M-43 -174l221 1251q7 51 58 51h186q50 0 43 -51l-111 -624q-8 -66 -8 -82q0 -117 88 -117q50 0 71 33t36 112l118 678q7 51 58 51h186q51 0 43 -51l-137 -778q-29 -164 -97 -240q-68 -75 -200 -75q-84 0 -143 34t-82 80l-43 -272q-6 -30 -19 -41q-11 -10 -41 -10h-182 q-51 0 -45 51z" />
<glyph unicode="&#xb6;" horiz-adv-x="983" d="M145 903q0 235 135 390q134 153 382 153h405q50 0 39 -41l-14 -76q-6 -41 -45 -41h-60q-62 0 -91 -26q-30 -27 -42 -97l-203 -1163q-23 -130 -70 -183q-49 -55 -151 -55q-92 0 -139 13q-31 8 -25 45l10 67q6 35 46 33q2 0 6 -0.5t11.5 -1t13.5 -0.5q32 -2 40 -2 q43 0 62 22q17 20 28 87l92 522h-38q-180 0 -286 95t-106 259z" />
<glyph unicode="&#xb7;" horiz-adv-x="428" d="M68 463l34 194q12 56 62 56h180q59 0 47 -56l-35 -194q-7 -55 -59 -55h-180q-59 0 -49 55z" />
<glyph unicode="&#xb8;" horiz-adv-x="557" d="M29 -258l10 70q6 22 29 22h67q60 0 60 64t-117 133h96q74 -24 124 -74t50 -115q0 -71 -51 -110t-135 -39q-82 0 -117 12q-21 7 -16 37z" />
<glyph unicode="&#xb9;" horiz-adv-x="659" d="M276 1622q-21 30 13 53l233 195q22 16 51 16h132q44 0 38 -41l-143 -798q-6 -41 -43 -41h-133q-45 0 -39 41l107 593l-109 -88q-29 -24 -53 0z" />
<glyph unicode="&#xba;" horiz-adv-x="716" d="M199 1272q0 88 16 174q44 246 130 349q87 103 249 103q268 0 268 -278q0 -88 -16 -174q-44 -243 -129 -348t-248 -105q-134 0 -203 67q-67 66 -67 212zM420 1282q0 -94 65 -94q52 0 81 56q32 60 55 202q20 100 20 166q0 94 -63 94q-54 0 -82 -56q-29 -59 -56 -204 q-20 -113 -20 -164z" />
<glyph unicode="&#xbb;" horiz-adv-x="860" d="M35 257q-7 15 8 38l170 299l-66 301q-10 49 39 49h160q40 0 51 -39l62 -289q4 -14 2 -22q-7 -20 -10 -23l-164 -286q-23 -41 -60 -41h-161q-25 0 -31 13zM410 257q-7 15 8 38l168 299l-64 301q-12 49 37 49h160q43 0 53 -39l62 -289q4 -12 0 -22q0 -10 -9 -23l-163 -286 q-23 -41 -62 -41h-162q-22 0 -28 13z" />
<glyph unicode="&#xbc;" horiz-adv-x="1544" d="M201 1182q-21 30 12 53l233 195q22 16 52 16h131q45 0 39 -41l-144 -799q-6 -41 -43 -41h-133q-45 0 -39 41l107 594l-109 -88q-29 -24 -53 0zM326 47l848 1364q24 35 61 35h125q23 0 29 -13t-7 -32l-847 -1364q-24 -37 -64 -37h-125q-44 0 -20 47zM870 211l19 108 q2 21 20 46l369 485q22 31 45 31h139q43 0 37 -41l-86 -492h41q40 0 33 -37l-17 -96q-8 -39 -43 -39h-45l-24 -135q-6 -41 -45 -41h-129q-45 0 -39 41l26 135h-270q-37 0 -31 35zM1051 348h151l47 275z" />
<glyph unicode="&#xbd;" horiz-adv-x="1544" d="M201 1182q-21 30 12 53l233 195q22 16 52 16h131q45 0 39 -41l-144 -799q-6 -41 -43 -41h-133q-45 0 -39 41l107 594l-109 -88q-29 -24 -53 0zM268 47l848 1364q24 35 62 35h125q22 0 28 -13q6 -14 -6 -32l-848 -1364q-24 -37 -63 -37h-125q-45 0 -21 47zM879 35 q-8 -35 30 -35h455q33 0 39 35l20 115q10 34 -32 34h-215q337 252 337 506q0 89 -63 146t-176 57q-154 0 -235 -84t-81 -229q0 -41 33 -41h127q39 0 39 51q0 117 84 117q55 0 49 -70q-24 -200 -360 -457q-28 -22 -33 -45z" />
<glyph unicode="&#xbe;" horiz-adv-x="1544" d="M59 614l27 123q8 29 43 23q96 -21 135 -21q150 0 150 125q0 66 -84 66h-64q-36 0 -30 35l18 104q6 33 39 33h63q51 0 81 30t30 78q0 64 -115 64q-25 0 -49 -4t-49 -9q-6 -1 -13 -2.5t-10.5 -2.5t-5.5 -1q-19 -4 -27 1q-7 4 -5 20l12 119q1 22 33 35q84 28 180 28 q119 0 193 -46q75 -46 75 -138q0 -82 -42 -148q-41 -65 -112 -88q95 -30 95 -168q0 -157 -92 -237t-248 -80q-65 0 -125 10t-80 19q-27 12 -23 32zM344 47l848 1364q24 35 61 35h125q23 0 29 -13q6 -14 -6 -32l-848 -1364q-24 -37 -64 -37h-124q-45 0 -21 47zM870 211 l19 108q2 21 20 46l369 485q22 31 45 31h139q43 0 37 -41l-86 -492h41q40 0 33 -37l-17 -96q-8 -39 -43 -39h-45l-24 -135q-6 -41 -45 -41h-129q-45 0 -39 41l26 135h-270q-37 0 -31 35zM1051 348h151l47 275z" />
<glyph unicode="&#xbf;" horiz-adv-x="743" d="M-20 8q0 -118 82 -184t237 -66q145 0 244 37q46 18 51 53l22 177q4 22 -8 31t-39 3q-3 -1 -29 -8q-22 -6 -53 -11q-33 -5 -71 -5q-107 0 -107 88q0 66 50 148q34 55 109 171q58 89 73 172l2 11q11 53 -49 53h-168q-51 0 -62 -53l-2 -11q-12 -70 -60 -147 q-41 -66 -97 -132q-48 -57 -87 -144q-38 -85 -38 -183zM297 864l37 209q10 55 61 55h197q55 0 45 -55l-37 -209q-10 -55 -59 -55h-195q-59 0 -49 55z" />
<glyph unicode="&#xc0;" d="M-39 59l483 1327q22 60 86 60h308q69 0 69 -60l19 -1327q4 -59 -54 -59h-200q-29 0 -42.5 13.5t-11.5 39.5v234h-260l-82 -234q-13 -30 -25 -41q-14 -12 -40 -12h-209q-28 0 -40 16t-1 43zM438 557h195l10 584h-8zM474 1734q8 17 32 17h221q42 0 47 -35l35 -153 q8 -41 -33 -41h-123q-43 0 -65 30l-111 148q-12 16 -3 34z" />
<glyph unicode="&#xc1;" d="M-39 59l483 1327q22 60 86 60h308q69 0 69 -60l19 -1327q4 -59 -54 -59h-200q-29 0 -42.5 13.5t-11.5 39.5v234h-260l-82 -234q-13 -30 -25 -41q-14 -12 -40 -12h-209q-28 0 -40 16t-1 43zM438 557h195l10 584h-8zM604 1534q-6 13 4 29l84 153q18 35 58 35h223 q24 0 28 -17t-14 -34l-160 -148q-33 -30 -73 -30h-123q-21 0 -27 12z" />
<glyph unicode="&#xc2;" d="M-39 59l483 1327q22 60 86 60h308q69 0 69 -60l19 -1327q4 -59 -54 -59h-200q-29 0 -42.5 13.5t-11.5 39.5v234h-260l-82 -234q-13 -30 -25 -41q-14 -12 -40 -12h-209q-28 0 -40 16t-1 43zM419 1550q3 13 17 23l178 156q30 24 66 24h121q39 0 61 -24l123 -156 q14 -15 6 -34q-7 -17 -30 -17h-113q-43 0 -66 32l-55 78l-86 -78q-33 -32 -72 -32h-123q-14 0 -22 8t-5 20zM438 557h195l10 584h-8z" />
<glyph unicode="&#xc3;" d="M-39 59l483 1327q22 60 86 60h308q69 0 69 -60l19 -1327q4 -59 -54 -59h-200q-29 0 -42.5 13.5t-11.5 39.5v234h-260l-82 -234q-13 -30 -25 -41q-14 -12 -40 -12h-209q-28 0 -40 16t-1 43zM420 1587q24 154 160 154q62 0 141 -31l45 -22q84 -39 102 10l6 10q15 29 48 29 h65q46 0 35 -68q-24 -151 -160 -151q-73 0 -141 28l-45 23q-82 37 -105 -10l-4 -11q-12 -26 -47 -26h-67q-43 0 -33 65zM438 557h195l10 584h-8z" />
<glyph unicode="&#xc4;" d="M-39 59l483 1327q22 60 86 60h308q69 0 69 -60l19 -1327q4 -59 -54 -59h-200q-29 0 -42.5 13.5t-11.5 39.5v234h-260l-82 -234q-13 -30 -25 -41q-14 -12 -40 -12h-209q-28 0 -40 16t-1 43zM397 1569l23 117q6 47 51 47h170q49 0 43 -47l-22 -117q-8 -47 -54 -47h-170 q-49 0 -41 47zM438 557h195l10 584h-8zM758 1569l22 117q6 47 51 47h170q49 0 43 -47l-22 -117q-8 -47 -53 -47h-170q-47 0 -41 47z" />
<glyph unicode="&#xc5;" d="M-39 59l483 1327q17 47 58 58q-6 22 -6 49q0 98 62 157q63 60 163 60q84 0 135 -45t51 -115q0 -66 -28 -112q28 -15 28 -52l19 -1327q4 -59 -54 -59h-200q-29 0 -42.5 13.5t-11.5 39.5v234h-260l-82 -234q-13 -30 -25 -41q-14 -12 -40 -12h-209q-28 0 -40 16t-1 43z M438 557h195l10 584h-8zM625 1507q0 -27 18 -43q17 -16 49 -16q37 0 62 25q24 24 24 65q0 24 -18 42q-17 17 -49 17q-39 0 -63 -24q-23 -23 -23 -66z" />
<glyph unicode="&#xc6;" horiz-adv-x="1349" d="M-49 16q-10 16 0 43l522 1327q23 60 86 60h836q55 0 49 -55l-33 -172q-6 -56 -59 -56h-328l-51 -291h303q55 0 49 -55l-31 -162q-7 -55 -61 -55h-307l-56 -317h328q59 0 47 -54l-31 -174q-10 -55 -59 -55h-577q-62 0 -50 55l41 234h-217l-88 -236q-24 -53 -67 -53h-207 q-29 0 -39 16zM451 559h165l109 604h-55z" />
<glyph unicode="&#xc7;" horiz-adv-x="882" d="M76 391q0 124 35 336q53 296 132 455q80 160 192 222t300 62q98 0 201 -22q55 -12 43 -68l-35 -157q-12 -61 -72 -45q-85 12 -122 12q-146 0 -209 -89q-64 -90 -115 -370q-31 -197 -31 -268q0 -115 45 -157t154 -42q59 0 129 16q30 6 45 -6t10 -41l-18 -157 q-4 -27 -20 -43q-16 -15 -44 -23q-75 -19 -159 -24q73 -55 73 -132q0 -82 -55 -125q-56 -44 -145 -44q-82 0 -115 12q-26 8 -21 37l15 71q6 21 26 21h72q68 0 68 65q0 49 -60 101q-160 18 -240 110q-79 91 -79 293z" />
<glyph unicode="&#xc8;" horiz-adv-x="866" d="M10 55l236 1336q7 55 61 55h606q58 0 48 -55l-31 -172q-8 -56 -62 -56h-356l-51 -291h332q55 0 49 -55l-31 -162q-6 -55 -59 -55h-338l-58 -317h359q60 0 49 -56l-31 -172q-12 -55 -61 -55h-613q-59 0 -49 55zM435 1734q9 17 32 17h221q42 0 47 -35l35 -153 q8 -41 -33 -41h-123q-42 0 -65 30l-111 148q-12 16 -3 34z" />
<glyph unicode="&#xc9;" horiz-adv-x="866" d="M10 55l236 1336q7 55 61 55h606q58 0 48 -55l-31 -172q-8 -56 -62 -56h-356l-51 -291h332q55 0 49 -55l-31 -162q-6 -55 -59 -55h-338l-58 -317h359q60 0 49 -56l-31 -172q-12 -55 -61 -55h-613q-59 0 -49 55zM510 1534q-6 13 4 29l84 153q18 35 57 35h224q24 0 28 -17 t-14 -34l-160 -148q-33 -30 -74 -30h-122q-21 0 -27 12z" />
<glyph unicode="&#xca;" horiz-adv-x="866" d="M10 55l236 1336q7 55 61 55h606q58 0 48 -55l-31 -172q-8 -56 -62 -56h-356l-51 -291h332q55 0 49 -55l-31 -162q-6 -55 -59 -55h-338l-58 -317h359q60 0 49 -56l-31 -172q-12 -55 -61 -55h-613q-59 0 -49 55zM353 1550q3 13 18 23l178 156q30 24 65 24h121q39 0 62 -24 l123 -156q14 -15 6 -34q-7 -17 -31 -17h-113q-42 0 -65 32l-55 78l-87 -78q-33 -32 -71 -32h-123q-15 0 -23 8t-5 20z" />
<glyph unicode="&#xcb;" horiz-adv-x="866" d="M10 55l236 1336q7 55 61 55h606q58 0 48 -55l-31 -172q-8 -56 -62 -56h-356l-51 -291h332q55 0 49 -55l-31 -162q-6 -55 -59 -55h-338l-58 -317h359q60 0 49 -56l-31 -172q-12 -55 -61 -55h-613q-59 0 -49 55zM330 1569l22 117q6 47 51 47h170q49 0 43 -47l-22 -117 q-8 -47 -53 -47h-170q-49 0 -41 47zM690 1569l23 117q6 47 51 47h170q49 0 43 -47l-23 -117q-8 -47 -53 -47h-170q-47 0 -41 47z" />
<glyph unicode="&#xcc;" horiz-adv-x="495" d="M20 55l236 1336q10 55 61 55h199q56 0 49 -55l-235 -1336q-12 -55 -62 -55h-198q-62 0 -50 55zM206 1734q8 17 32 17h221q42 0 47 -35l35 -153q8 -41 -33 -41h-123q-43 0 -66 30l-110 148q-12 16 -3 34z" />
<glyph unicode="&#xcd;" horiz-adv-x="495" d="M20 55l236 1336q10 55 61 55h199q56 0 49 -55l-235 -1336q-12 -55 -62 -55h-198q-62 0 -50 55zM338 1534q-6 13 4 29l84 153q18 35 57 35h224q24 0 28 -17t-14 -34l-160 -148q-33 -30 -74 -30h-122q-21 0 -27 12z" />
<glyph unicode="&#xce;" horiz-adv-x="495" d="M20 55l236 1336q10 55 61 55h199q56 0 49 -55l-235 -1336q-12 -55 -62 -55h-198q-62 0 -50 55zM151 1550q3 13 17 23l178 156q30 24 66 24h120q41 0 62 -24l123 -156q14 -15 6 -34q-7 -17 -31 -17h-112q-43 0 -66 32l-55 78l-86 -78q-33 -32 -72 -32h-123q-14 0 -22 8 t-5 20z" />
<glyph unicode="&#xcf;" horiz-adv-x="495" d="M20 55l236 1336q10 55 61 55h199q56 0 49 -55l-235 -1336q-12 -55 -62 -55h-198q-62 0 -50 55zM129 1569l23 117q6 47 51 47h170q49 0 43 -47l-23 -117q-8 -47 -53 -47h-170q-49 0 -41 47zM489 1569l23 117q6 47 51 47h170q49 0 43 -47l-22 -117q-8 -47 -54 -47h-170 q-47 0 -41 47z" />
<glyph unicode="&#xd0;" horiz-adv-x="1038" d="M14 55l103 582h-29q-48 0 -41 45l14 84q7 45 52 45h37l100 580q7 55 65 55h293q225 0 333 -99t108 -341q0 -108 -27 -283q-67 -407 -213 -565t-420 -158h-328q-57 0 -47 55zM365 281h67q110 0 170 90t105 352q28 164 28 250q0 107 -38 150q-37 42 -117 42h-60l-63 -354 h100q47 0 41 -45l-16 -84q-8 -45 -50 -45h-106z" />
<glyph unicode="&#xd1;" horiz-adv-x="1062" d="M10 55l236 1336q7 55 61 55h174q56 0 68 -45l164 -748l129 738q10 55 61 55h189q57 0 51 -55l-238 -1336q-7 -55 -61 -55h-172q-57 0 -68 47l-164 746l-131 -738q-10 -55 -59 -55h-191q-59 0 -49 55zM434 1587q24 154 160 154q62 0 141 -31l45 -22q85 -39 103 10l6 10 q15 29 47 29h65q46 0 35 -68q-24 -151 -159 -151q-74 0 -142 28l-45 23q-81 37 -104 -10l-4 -11q-12 -26 -47 -26h-68q-43 0 -33 65z" />
<glyph unicode="&#xd2;" horiz-adv-x="1056" d="M76 393q0 125 35 330q52 294 131 459q78 164 180 224t262 60q194 0 289 -91q96 -92 96 -322q0 -129 -35 -330q-51 -294 -129 -458q-78 -163 -180 -223t-262 -60q-193 0 -290 91t-97 320zM387 406q0 -83 25 -117q24 -33 80 -33q84 0 131 92q46 91 96 375q39 234 39 317 q0 85 -25 118q-24 32 -78 32q-57 0 -94 -36q-36 -34 -69 -136q-33 -101 -66 -295q-39 -234 -39 -317zM491 1734q9 17 31 17h221q43 0 48 -35l34 -153q8 -41 -32 -41h-123q-44 0 -66 30l-110 148q-12 16 -3 34z" />
<glyph unicode="&#xd3;" horiz-adv-x="1056" d="M76 393q0 125 35 330q52 294 131 459q78 164 180 224t262 60q194 0 289 -91q96 -92 96 -322q0 -129 -35 -330q-51 -294 -129 -458q-78 -163 -180 -223t-262 -60q-193 0 -290 91t-97 320zM387 406q0 -83 25 -117q24 -33 80 -33q84 0 131 92q46 91 96 375q39 234 39 317 q0 85 -25 118q-24 32 -78 32q-57 0 -94 -36q-36 -34 -69 -136q-33 -101 -66 -295q-39 -234 -39 -317zM612 1534q-6 13 4 29l84 153q18 35 58 35h223q25 0 29 -17q4 -16 -15 -34l-159 -148q-33 -30 -74 -30h-123q-21 0 -27 12z" />
<glyph unicode="&#xd4;" horiz-adv-x="1056" d="M76 393q0 125 35 330q52 294 131 459q78 164 180 224t262 60q194 0 289 -91q96 -92 96 -322q0 -129 -35 -330q-51 -294 -129 -458q-78 -163 -180 -223t-262 -60q-193 0 -290 91t-97 320zM387 406q0 -83 25 -117q24 -33 80 -33q84 0 131 92q46 91 96 375q39 234 39 317 q0 85 -25 118q-24 32 -78 32q-57 0 -94 -36q-36 -34 -69 -136q-33 -101 -66 -295q-39 -234 -39 -317zM431 1550q3 13 18 23l178 156q30 24 65 24h121q39 0 62 -24l122 -156q15 -16 7 -34q-7 -17 -31 -17h-113q-42 0 -65 32l-56 78l-86 -78q-33 -32 -71 -32h-123q-15 0 -23 8 t-5 20z" />
<glyph unicode="&#xd5;" horiz-adv-x="1056" d="M76 393q0 125 35 330q52 294 131 459q78 164 180 224t262 60q194 0 289 -91q96 -92 96 -322q0 -129 -35 -330q-51 -294 -129 -458q-78 -163 -180 -223t-262 -60q-193 0 -290 91t-97 320zM387 406q0 -83 25 -117q24 -33 80 -33q84 0 131 92q46 91 96 375q39 234 39 317 q0 85 -25 118q-24 32 -78 32q-57 0 -94 -36q-36 -34 -69 -136q-33 -101 -66 -295q-39 -234 -39 -317zM432 1587q24 154 160 154q62 0 141 -31l45 -22q85 -39 103 10l6 10q15 29 47 29h65q46 0 35 -68q-24 -151 -160 -151q-73 0 -141 28l-45 23q-81 37 -104 -10l-4 -11 q-12 -26 -48 -26h-67q-43 0 -33 65z" />
<glyph unicode="&#xd6;" horiz-adv-x="1056" d="M76 393q0 125 35 330q52 294 131 459q78 164 180 224t262 60q194 0 289 -91q96 -92 96 -322q0 -129 -35 -330q-51 -294 -129 -458q-78 -163 -180 -223t-262 -60q-193 0 -290 91t-97 320zM387 406q0 -83 25 -117q24 -33 80 -33q84 0 131 92q46 91 96 375q39 234 39 317 q0 85 -25 118q-24 32 -78 32q-57 0 -94 -36q-36 -34 -69 -136q-33 -101 -66 -295q-39 -234 -39 -317zM410 1569l22 117q6 47 51 47h170q49 0 43 -47l-22 -117q-8 -47 -53 -47h-170q-49 0 -41 47zM770 1569l23 117q6 47 51 47h170q49 0 43 -47l-23 -117q-8 -47 -53 -47h-170 q-47 0 -41 47z" />
<glyph unicode="&#xd7;" horiz-adv-x="1013" d="M68 399q-28 37 12 70l291 248l-205 246q-26 32 14 69l127 109q45 35 72 2l203 -248l288 246q41 35 70 0l92 -109q29 -35 -14 -69l-289 -246l203 -248q27 -35 -12 -70l-129 -110q-43 -33 -70 2l-203 244l-289 -246q-43 -34 -71 0z" />
<glyph unicode="&#xd8;" horiz-adv-x="1071" d="M-10 102l106 129q-16 74 -16 162q0 125 35 330q51 295 129 459q79 165 181 224q104 60 263 60q212 0 303 -108l58 74q32 38 67 14l49 -39q35 -29 2 -64l-108 -137q14 -71 14 -153q0 -129 -35 -330q-52 -292 -131 -458q-78 -163 -180 -223t-262 -60q-209 0 -301 102 l-58 -72q-33 -34 -63 -12l-51 39q-35 24 -2 63zM391 377q4 -66 29 -94q24 -27 74 -27q84 0 131 92t98 375l16 102zM410 610l352 455q-4 70 -29 98q-24 27 -76 27q-84 0 -131 -92q-46 -91 -96 -375z" />
<glyph unicode="&#xd9;" horiz-adv-x="1019" d="M57 291q0 52 13 125l172 975q7 55 61 55h199q59 0 49 -55l-164 -934q-10 -63 -10 -95q0 -53 22 -75q23 -23 74 -23q69 0 104 42q32 39 54 151l164 934q7 55 61 55h199q55 0 49 -55l-174 -975q-39 -236 -152 -335q-112 -99 -334 -99q-195 0 -290 74q-97 76 -97 235z M472 1734q8 17 32 17h221q42 0 47 -35l35 -153q8 -41 -33 -41h-123q-43 0 -65 30l-111 148q-12 16 -3 34z" />
<glyph unicode="&#xda;" horiz-adv-x="1019" d="M57 291q0 52 13 125l172 975q7 55 61 55h199q59 0 49 -55l-164 -934q-10 -63 -10 -95q0 -53 22 -75q23 -23 74 -23q69 0 104 42q32 39 54 151l164 934q7 55 61 55h199q55 0 49 -55l-174 -975q-39 -236 -152 -335q-112 -99 -334 -99q-195 0 -290 74q-97 76 -97 235z M596 1534q-6 13 4 29l84 153q18 35 57 35h224q24 0 28 -17t-14 -34l-160 -148q-33 -30 -74 -30h-122q-21 0 -27 12z" />
<glyph unicode="&#xdb;" horiz-adv-x="1019" d="M57 291q0 52 13 125l172 975q7 55 61 55h199q59 0 49 -55l-164 -934q-10 -63 -10 -95q0 -53 22 -75q23 -23 74 -23q69 0 104 42q32 39 54 151l164 934q7 55 61 55h199q55 0 49 -55l-174 -975q-39 -236 -152 -335q-112 -99 -334 -99q-195 0 -290 74q-97 76 -97 235z M413 1550q3 13 17 23l178 156q30 24 66 24h121q40 0 61 -24l123 -156q14 -15 6 -34q-7 -17 -31 -17h-112q-43 0 -66 32l-55 78l-86 -78q-33 -32 -72 -32h-123q-14 0 -22 8t-5 20z" />
<glyph unicode="&#xdc;" horiz-adv-x="1019" d="M57 291q0 52 13 125l172 975q7 55 61 55h199q59 0 49 -55l-164 -934q-10 -63 -10 -95q0 -53 22 -75q23 -23 74 -23q69 0 104 42q32 39 54 151l164 934q7 55 61 55h199q55 0 49 -55l-174 -975q-39 -236 -152 -335q-112 -99 -334 -99q-195 0 -290 74q-97 76 -97 235z M391 1569l23 117q6 47 51 47h170q49 0 43 -47l-23 -117q-8 -47 -53 -47h-170q-49 0 -41 47zM752 1569l22 117q6 47 51 47h170q49 0 43 -47l-22 -117q-8 -47 -53 -47h-170q-47 0 -41 47z" />
<glyph unicode="&#xdd;" horiz-adv-x="995" d="M188 1380q-6 23 7 45q12 21 47 21h204q58 0 66 -51l37 -367l4 -197h6l76 197l166 367q27 51 76 51h215q34 0 42 -23q7 -22 -8 -43l-460 -833l-86 -492q-12 -55 -62 -55h-199q-61 0 -49 55l86 492zM573 1534q-6 12 5 29l84 153q18 35 57 35h223q25 0 29 -17q4 -16 -15 -34 l-159 -148q-33 -30 -74 -30h-123q-21 0 -27 12z" />
<glyph unicode="&#xde;" horiz-adv-x="989" d="M10 55l236 1336q12 55 61 55h199q59 0 49 -55l-18 -113h51q210 0 310 -74q99 -74 99 -256q0 -77 -18 -182q-52 -290 -173 -400t-376 -110h-76l-35 -201q-7 -55 -61 -55h-199q-59 0 -49 55zM406 535h57q96 0 136 46t67 187q12 69 12 115q0 66 -30 90t-103 24h-58z" />
<glyph unicode="&#xdf;" horiz-adv-x="970" d="M2 49l184 1049q63 362 447 362q161 0 256 -75q94 -75 94 -195q0 -84 -47 -167q-48 -84 -93 -143q-46 -59 -46 -89q0 -34 28 -84q32 -57 58 -123q28 -71 28 -158q0 -204 -74 -318q-75 -115 -274 -120q-41 0 -82 7q-45 8 -75 24q-33 18 -29 40l33 177q12 51 59 49 q40 0 101 50t61 103q0 58 -64 159q-63 99 -63 165q0 54 30 103q31 52 65 84q36 35 66 81q29 45 29 96q0 82 -94 82q-115 0 -137 -133l-180 -1026q-12 -49 -58 -49h-180q-50 0 -43 49z" />
<glyph unicode="&#xe0;" horiz-adv-x="854" d="M6 240q0 240 135 345q134 104 410 115l12 78q12 63 -12 89t-92 26q-82 0 -217 -39q-27 -4 -43 5q-15 9 -11 36l21 149q6 48 51 58q111 39 264 39q166 0 247 -58q79 -57 79 -180q0 -44 -8 -94l-133 -758q-7 -51 -56 -51h-141q-55 0 -55 43l6 57q-89 -110 -225 -110 q-103 0 -167 65q-65 67 -65 185zM285 285q0 -78 67 -78q111 0 144 184l22 131q-140 -7 -187 -63q-46 -55 -46 -174zM364 1420q9 20 31 20h221q44 0 50 -37l32 -152q10 -43 -34 -43h-113q-41 0 -66 31l-118 147q-12 15 -3 34z" />
<glyph unicode="&#xe1;" horiz-adv-x="854" d="M6 240q0 240 135 345q134 104 410 115l12 78q12 63 -12 89t-92 26q-82 0 -217 -39q-27 -4 -43 5q-15 9 -11 36l21 149q6 48 51 58q111 39 264 39q166 0 247 -58q79 -57 79 -180q0 -44 -8 -94l-133 -758q-7 -51 -56 -51h-141q-55 0 -55 43l6 57q-89 -110 -225 -110 q-103 0 -167 65q-65 67 -65 185zM285 285q0 -78 67 -78q111 0 144 184l22 131q-140 -7 -187 -63q-46 -55 -46 -174zM438 1251l84 152q18 37 58 37h223q23 0 28 -20q4 -19 -14 -34l-160 -147q-34 -31 -71 -31h-125q-44 0 -23 43z" />
<glyph unicode="&#xe2;" horiz-adv-x="854" d="M6 240q0 240 135 345q134 104 410 115l12 78q12 63 -12 89t-92 26q-82 0 -217 -39q-27 -4 -43 5q-15 9 -11 36l21 149q6 48 51 58q111 39 264 39q166 0 247 -58q79 -57 79 -180q0 -44 -8 -94l-133 -758q-7 -51 -56 -51h-141q-55 0 -55 43l6 57q-89 -110 -225 -110 q-103 0 -167 65q-65 67 -65 185zM275 1226q-4 18 16 34l178 157q29 27 66 27h120q39 0 62 -27l125 -157q14 -15 6 -34q-8 -18 -31 -18h-112q-43 0 -66 35l-57 80l-86 -80q-35 -35 -70 -35h-123q-23 0 -28 18zM285 285q0 -78 67 -78q111 0 144 184l22 131q-140 -7 -187 -63 q-46 -55 -46 -174z" />
<glyph unicode="&#xe3;" horiz-adv-x="854" d="M6 240q0 240 135 345q134 104 410 115l12 78q12 63 -12 89t-92 26q-82 0 -217 -39q-27 -4 -43 5q-15 9 -11 36l21 149q6 48 51 58q111 39 264 39q166 0 247 -58q79 -57 79 -180q0 -44 -8 -94l-133 -758q-7 -51 -56 -51h-141q-55 0 -55 43l6 57q-89 -110 -225 -110 q-103 0 -167 65q-65 67 -65 185zM281 1276q15 79 50 115t105 36q80 0 142 -30l47 -23q81 -38 102 12l4 11q14 26 45 26h68q50 0 35 -65q-12 -77 -49 -116q-36 -38 -105 -38q-80 0 -145 31l-45 22q-79 38 -103 -12l-4 -8q-15 -29 -45 -29h-68q-49 0 -34 68zM285 285 q0 -78 67 -78q111 0 144 184l22 131q-140 -7 -187 -63q-46 -55 -46 -174z" />
<glyph unicode="&#xe4;" horiz-adv-x="854" d="M6 240q0 240 135 345q134 104 410 115l12 78q12 63 -12 89t-92 26q-82 0 -217 -39q-27 -4 -43 5q-15 9 -11 36l21 149q6 48 51 58q111 39 264 39q166 0 247 -58q79 -57 79 -180q0 -44 -8 -94l-133 -758q-7 -51 -56 -51h-141q-55 0 -55 43l6 57q-89 -110 -225 -110 q-103 0 -167 65q-65 67 -65 185zM260 1255l21 119q6 47 51 47h168q54 0 43 -47l-21 -119q-11 -47 -53 -47h-168q-53 0 -41 47zM285 285q0 -78 67 -78q111 0 144 184l22 131q-140 -7 -187 -63q-46 -55 -46 -174zM608 1255l21 119q11 47 53 47h168q52 0 41 -47l-21 -119 q-11 -47 -53 -47h-166q-54 0 -43 47z" />
<glyph unicode="&#xe5;" horiz-adv-x="854" d="M6 240q0 240 135 345q134 104 410 115l12 78q12 63 -12 89t-92 26q-82 0 -217 -39q-27 -4 -43 5q-15 9 -11 36l21 149q6 48 51 58q111 39 264 39q166 0 247 -58q79 -57 79 -180q0 -44 -8 -94l-133 -758q-7 -51 -56 -51h-141q-55 0 -55 43l6 57q-89 -110 -225 -110 q-103 0 -167 65q-65 67 -65 185zM285 285q0 -78 67 -78q111 0 144 184l22 131q-140 -7 -187 -63q-46 -55 -46 -174zM379 1354q0 100 64 163q63 62 173 62q89 0 141 -46t52 -118q0 -101 -66 -162q-65 -61 -174 -61q-88 0 -139 45t-51 117zM510 1372q0 -27 21 -45t55 -18 q37 0 64 24q28 25 28 64q0 65 -74 65q-40 0 -67 -24t-27 -66z" />
<glyph unicode="&#xe6;" horiz-adv-x="1327" d="M4 242q0 126 39 212q39 85 118 128q78 43 168 61q91 19 218 23l18 112q21 115 -104 115q-77 0 -221 -39q-27 -4 -42 4q-14 8 -12 37l19 149q8 47 53 58q117 39 264 39q190 0 250 -86q99 90 238 90q313 0 313 -295q0 -101 -20 -207l-25 -129q-6 -32 -22 -45 q-15 -12 -48 -12h-420q-10 -54 -10 -92q0 -76 43 -109t133 -33q82 0 174 27q30 6 44 -5q16 -13 12 -36l-17 -133q-8 -48 -57 -64q-84 -28 -207 -28q-252 0 -319 151q-118 -145 -301 -145q-129 0 -204 66t-75 186zM285 285q0 -78 77 -78q103 0 136 184l16 94 q-136 -7 -183 -48q-46 -40 -46 -152zM821 659h211l4 25q17 110 17 139q0 49 -17 72t-57 23q-58 0 -93 -56t-65 -203z" />
<glyph unicode="&#xe7;" horiz-adv-x="718" d="M57 336q0 88 23 231q52 307 170 443q117 135 319 135q112 0 181 -23q42 -15 32 -57l-37 -162q-10 -45 -61 -33q-64 11 -94 11q-94 0 -139 -65q-45 -64 -78 -249q-21 -108 -21 -182q0 -79 30 -109t97 -30q44 0 107 14q25 4 37 -4q10 -7 8 -31l-21 -162q-4 -40 -53 -55 q-78 -24 -160 -24h-6q82 -61 82 -142q0 -71 -51 -110t-135 -39q-83 0 -117 12q-21 7 -16 37l10 70q6 22 29 22h67q59 0 59 64q0 58 -81 110q-181 66 -181 328z" />
<glyph unicode="&#xe8;" horiz-adv-x="876" d="M49 348q0 69 25 227q52 304 165 438q111 132 316 132q313 0 313 -316q0 -81 -20 -202l-23 -129q-6 -33 -20 -44q-15 -12 -47 -12h-426q-8 -43 -8 -77q0 -76 42 -109t136 -33q85 0 174 25q30 8 44 -2q15 -11 11 -37l-14 -133q-8 -47 -58 -64q-90 -28 -208 -28 q-206 0 -304 85t-98 279zM361 1420q9 20 32 20h221q44 0 50 -37l32 -152q10 -43 -34 -43h-113q-41 0 -66 31l-118 147q-12 16 -4 34zM365 643h215l4 25q16 92 16 147q0 103 -74 103q-58 0 -95 -61q-36 -60 -66 -214z" />
<glyph unicode="&#xe9;" horiz-adv-x="876" d="M49 348q0 69 25 227q52 304 165 438q111 132 316 132q313 0 313 -316q0 -81 -20 -202l-23 -129q-6 -33 -20 -44q-15 -12 -47 -12h-426q-8 -43 -8 -77q0 -76 42 -109t136 -33q85 0 174 25q30 8 44 -2q15 -11 11 -37l-14 -133q-8 -47 -58 -64q-90 -28 -208 -28 q-206 0 -304 85t-98 279zM365 643h215l4 25q16 92 16 147q0 103 -74 103q-58 0 -95 -61q-36 -60 -66 -214zM457 1221q-6 12 4 30l84 152q18 37 57 37h223q24 0 29 -20q4 -19 -14 -34l-160 -147q-34 -31 -72 -31h-125q-19 0 -26 13z" />
<glyph unicode="&#xea;" horiz-adv-x="876" d="M49 348q0 69 25 227q52 304 165 438q111 132 316 132q313 0 313 -316q0 -81 -20 -202l-23 -129q-6 -33 -20 -44q-15 -12 -47 -12h-426q-8 -43 -8 -77q0 -76 42 -109t136 -33q85 0 174 25q30 8 44 -2q15 -11 11 -37l-14 -133q-8 -47 -58 -64q-90 -28 -208 -28 q-206 0 -304 85t-98 279zM292 1226q-5 19 15 34l178 157q29 27 66 27h121q38 0 61 -27l125 -157q14 -15 6 -34q-8 -18 -30 -18h-113q-43 0 -66 35l-57 80l-86 -80q-35 -35 -70 -35h-123q-23 0 -27 18zM365 643h215l4 25q16 92 16 147q0 103 -74 103q-58 0 -95 -61 q-36 -60 -66 -214z" />
<glyph unicode="&#xeb;" horiz-adv-x="876" d="M49 348q0 69 25 227q52 304 165 438q111 132 316 132q313 0 313 -316q0 -81 -20 -202l-23 -129q-6 -33 -20 -44q-15 -12 -47 -12h-426q-8 -43 -8 -77q0 -76 42 -109t136 -33q85 0 174 25q30 8 44 -2q15 -11 11 -37l-14 -133q-8 -47 -58 -64q-90 -28 -208 -28 q-206 0 -304 85t-98 279zM276 1255l21 119q6 47 51 47h168q54 0 43 -47l-20 -119q-11 -47 -54 -47h-168q-53 0 -41 47zM365 643h215l4 25q16 92 16 147q0 103 -74 103q-58 0 -95 -61q-36 -60 -66 -214zM625 1255l20 119q11 47 53 47h168q52 0 41 -47l-20 -119 q-11 -47 -53 -47h-166q-54 0 -43 47z" />
<glyph unicode="&#xec;" horiz-adv-x="442" d="M4 51l180 1026q8 51 58 51h186q50 0 43 -51l-180 -1026q-12 -51 -55 -51h-187q-53 0 -45 51zM126 1420q9 20 32 20h221q43 0 49 -37l33 -152q10 -43 -35 -43h-113q-40 0 -65 31l-119 147q-12 15 -3 34z" />
<glyph unicode="&#xed;" horiz-adv-x="442" d="M4 51l180 1026q8 51 58 51h186q50 0 43 -51l-180 -1026q-12 -51 -55 -51h-187q-53 0 -45 51zM258 1251l84 152q18 37 57 37h224q23 0 28 -20q4 -19 -14 -34l-160 -147q-34 -31 -71 -31h-125q-44 0 -23 43z" />
<glyph unicode="&#xee;" horiz-adv-x="442" d="M4 51l180 1026q8 51 58 51h186q50 0 43 -51l-180 -1026q-12 -51 -55 -51h-187q-53 0 -45 51zM71 1226q-5 19 15 34l178 157q28 27 66 27h121q39 0 61 -27l125 -157q14 -15 6 -34q-7 -18 -31 -18h-112q-43 0 -66 35l-57 80l-86 -80q-35 -35 -70 -35h-123q-22 0 -27 18z " />
<glyph unicode="&#xef;" horiz-adv-x="442" d="M4 51l180 1026q8 51 58 51h186q50 0 43 -51l-180 -1026q-12 -51 -55 -51h-187q-53 0 -45 51zM55 1255l21 119q6 47 51 47h168q54 0 43 -47l-21 -119q-11 -47 -53 -47h-168q-53 0 -41 47zM403 1255l21 119q11 47 53 47h168q52 0 41 -47l-20 -119q-11 -47 -54 -47h-166 q-54 0 -43 47z" />
<glyph unicode="&#xf0;" horiz-adv-x="919" d="M47 332q0 87 23 225q56 310 162 441q109 135 288 135q86 0 133 -31q-6 46 -24 96h-195q-45 0 -39 45l13 64q10 43 51 43h92q-23 33 -51 61q-8 8 -3 22q4 13 23 13h182q37 0 54 -23q31 -43 47 -73h137q47 0 37 -43l-10 -64q-7 -45 -49 -45h-56q47 -155 47 -336 q0 -139 -28 -303q-55 -310 -167 -443q-111 -132 -323 -132q-172 0 -258 83t-86 265zM336 346q0 -115 82 -115q64 0 101 70q36 68 69 256q26 147 26 213q0 115 -82 115q-64 0 -101 -70q-36 -69 -69 -258q-26 -144 -26 -211z" />
<glyph unicode="&#xf1;" horiz-adv-x="913" d="M-2 51l180 1026q7 51 58 51h165q54 0 54 -43l-4 -55q92 115 229 115q112 0 171 -66q58 -65 58 -180q0 -44 -10 -98l-131 -750q-12 -51 -55 -51h-187q-57 0 -45 51l119 678q8 56 8 68q0 75 -63 75q-117 0 -152 -198l-110 -623q-7 -51 -56 -51h-186q-55 0 -43 51zM309 1276 q15 79 50 115t106 36q79 0 141 -30l47 -23q82 -39 103 12l4 11q14 26 45 26h67q50 0 35 -65q-12 -79 -48 -116q-36 -38 -105 -38q-81 0 -146 31l-45 22q-78 37 -102 -12l-4 -8q-15 -29 -45 -29h-68q-50 0 -35 68z" />
<glyph unicode="&#xf2;" horiz-adv-x="921" d="M49 336q0 -184 86 -268q85 -84 258 -84q212 0 323 133q113 135 169 446q20 117 20 225q0 189 -85 273q-86 84 -259 84q-211 0 -322 -133q-112 -134 -167 -449q-23 -138 -23 -227zM338 350q0 74 27 213q35 194 70 263q36 71 102 71q81 0 81 -119q0 -81 -26 -215 q-34 -189 -71 -261q-36 -71 -101 -71q-82 0 -82 119zM382 1420q9 20 32 20h221q43 0 49 -37l33 -152q10 -43 -35 -43h-113q-40 0 -65 31l-119 147q-12 15 -3 34z" />
<glyph unicode="&#xf3;" horiz-adv-x="921" d="M49 336q0 -184 86 -268q85 -84 258 -84q212 0 323 133q113 135 169 446q20 117 20 225q0 189 -85 273q-86 84 -259 84q-211 0 -322 -133q-112 -134 -167 -449q-23 -138 -23 -227zM338 350q0 74 27 213q35 194 70 263q36 71 102 71q81 0 81 -119q0 -81 -26 -215 q-34 -189 -71 -261q-36 -71 -101 -71q-82 0 -82 119zM477 1221q-6 12 4 30l84 152q18 37 58 37h223q23 0 28 -20q4 -19 -14 -34l-160 -147q-34 -31 -71 -31h-125q-20 0 -27 13z" />
<glyph unicode="&#xf4;" horiz-adv-x="921" d="M49 336q0 -184 86 -268q85 -84 258 -84q212 0 323 133q113 135 169 446q20 117 20 225q0 189 -85 273q-86 84 -259 84q-211 0 -322 -133q-112 -134 -167 -449q-23 -138 -23 -227zM310 1226q-4 18 16 34l178 157q28 27 65 27h121q40 0 62 -27l125 -157q14 -15 6 -34 q-7 -18 -31 -18h-113q-42 0 -65 35l-58 80l-86 -80q-35 -35 -69 -35h-123q-24 0 -28 18zM338 350q0 74 27 213q35 194 70 263q36 71 102 71q81 0 81 -119q0 -81 -26 -215q-34 -189 -71 -261q-36 -71 -101 -71q-82 0 -82 119z" />
<glyph unicode="&#xf5;" horiz-adv-x="921" d="M49 336q0 89 23 227q55 315 167 449q111 133 322 133q173 0 259 -84q85 -84 85 -273q0 -108 -20 -225q-56 -311 -169 -446q-111 -133 -323 -133q-173 0 -258 84q-86 84 -86 268zM313 1276q15 77 51 115q35 36 105 36q79 0 141 -30l47 -23q82 -39 103 12l4 11q14 26 45 26 h68q49 0 34 -65q-12 -79 -48 -116q-36 -38 -105 -38q-81 0 -146 31l-45 22q-78 37 -102 -12l-4 -8q-15 -29 -45 -29h-68q-50 0 -35 68zM338 350q0 -119 82 -119q65 0 101 71q37 72 71 261q26 134 26 215q0 119 -81 119q-66 0 -102 -71q-35 -69 -70 -263q-27 -139 -27 -213z " />
<glyph unicode="&#xf6;" horiz-adv-x="921" d="M49 336q0 -184 86 -268q85 -84 258 -84q212 0 323 133q113 135 169 446q20 117 20 225q0 189 -85 273q-86 84 -259 84q-211 0 -322 -133q-112 -134 -167 -449q-23 -138 -23 -227zM295 1255l20 119q6 47 52 47h168q54 0 43 -47l-21 -119q-11 -47 -53 -47h-168 q-53 0 -41 47zM338 350q0 74 27 213q35 194 70 263q36 71 102 71q81 0 81 -119q0 -81 -26 -215q-34 -189 -71 -261q-36 -71 -101 -71q-82 0 -82 119zM643 1255l21 119q11 47 53 47h168q52 0 41 -47l-21 -119q-11 -47 -53 -47h-166q-54 0 -43 47z" />
<glyph unicode="&#xf7;" horiz-adv-x="1013" d="M141 657l23 134q6 49 55 49h701q49 0 43 -49l-23 -134q-7 -49 -57 -49h-699q-50 0 -43 49zM324 256l32 182q11 54 62 54h180q58 0 47 -54l-31 -182q-12 -55 -63 -55h-180q-54 0 -47 55zM457 1010l32 180q10 55 62 55h180q54 0 47 -55l-33 -180q-8 -56 -61 -56h-180 q-58 0 -47 56z" />
<glyph unicode="&#xf8;" horiz-adv-x="929" d="M4 31q-28 27 0 55l72 86q-23 63 -23 164q0 89 23 227q56 316 168 449t323 133q168 0 254 -80l41 51q18 21 29 24t29 -12l38 -30q19 -17 19 -26q0 -8 -19 -30l-71 -86q24 -72 24 -168q0 -109 -22 -225q-55 -312 -168 -446q-112 -133 -322 -133q-171 0 -256 79l-43 -53 q-30 -39 -57 -12zM344 309q12 -78 80 -78q65 0 103 71q38 72 71 261l12 78zM356 492l265 327q-12 78 -80 78q-66 0 -102 -71q-35 -69 -70 -263q-1 -4 -3.5 -15.5t-3.5 -19.5z" />
<glyph unicode="&#xf9;" horiz-adv-x="909" d="M33 221q0 45 8 88l135 768q8 51 57 51h187q50 0 43 -51l-119 -674q-6 -39 -6 -67q0 -82 65 -82q110 0 144 190l110 633q7 51 58 51h186q51 0 43 -51l-180 -1026q-12 -51 -55 -51h-168q-54 0 -54 43l5 55q-27 -33 -52 -56q-25 -24 -65 -40q-43 -18 -99 -18q-117 0 -180 60 t-63 177zM378 1420q9 20 32 20h221q43 0 49 -37l33 -152q10 -43 -35 -43h-113q-40 0 -65 31l-119 147q-12 15 -3 34z" />
<glyph unicode="&#xfa;" horiz-adv-x="909" d="M33 221q0 45 8 88l135 768q8 51 57 51h187q50 0 43 -51l-119 -674q-6 -39 -6 -67q0 -82 65 -82q110 0 144 190l110 633q7 51 58 51h186q51 0 43 -51l-180 -1026q-12 -51 -55 -51h-168q-54 0 -54 43l5 55q-27 -33 -52 -56q-25 -24 -65 -40q-43 -18 -99 -18q-117 0 -180 60 t-63 177zM471 1251l84 152q18 37 57 37h224q23 0 28 -20q4 -19 -14 -34l-160 -147q-34 -31 -72 -31h-124q-44 0 -23 43z" />
<glyph unicode="&#xfb;" horiz-adv-x="909" d="M33 221q0 45 8 88l135 768q8 51 57 51h187q50 0 43 -51l-119 -674q-6 -39 -6 -67q0 -82 65 -82q110 0 144 190l110 633q7 51 58 51h186q51 0 43 -51l-180 -1026q-12 -51 -55 -51h-168q-54 0 -54 43l5 55q-27 -33 -52 -56q-25 -24 -65 -40q-43 -18 -99 -18q-117 0 -180 60 t-63 177zM304 1226q-5 19 15 34l179 157q28 27 65 27h121q38 0 61 -27l125 -157q15 -16 7 -34t-31 -18h-113q-42 0 -65 35l-58 80l-86 -80q-35 -35 -69 -35h-123q-24 0 -28 18z" />
<glyph unicode="&#xfc;" horiz-adv-x="909" d="M33 221q0 45 8 88l135 768q8 51 57 51h187q50 0 43 -51l-119 -674q-6 -39 -6 -67q0 -82 65 -82q110 0 144 190l110 633q7 51 58 51h186q51 0 43 -51l-180 -1026q-12 -51 -55 -51h-168q-54 0 -54 43l5 55q-27 -33 -52 -56q-25 -24 -65 -40q-43 -18 -99 -18q-117 0 -180 60 t-63 177zM289 1255l20 119q6 47 51 47h168q54 0 43 -47l-20 -119q-11 -47 -53 -47h-168q-53 0 -41 47zM637 1255l20 119q11 47 54 47h168q52 0 41 -47l-21 -119q-11 -47 -53 -47h-166q-54 0 -43 47z" />
<glyph unicode="&#xfd;" horiz-adv-x="849" d="M-57 -168l30 148q12 49 62 49q68 -6 74 -6q98 0 86 116l-62 934q-4 55 45 55h195q51 0 51 -53v-532l-12 -191h6l51 191l162 532q17 53 63 53h205q54 0 33 -55l-379 -1007q-62 -171 -143 -235q-84 -67 -256 -67q-137 0 -183 17q-35 14 -28 51zM463 1251l84 152 q18 37 57 37h223q24 0 29 -20q4 -19 -14 -34l-160 -147q-34 -31 -72 -31h-125q-43 0 -22 43z" />
<glyph unicode="&#xfe;" horiz-adv-x="960" d="M-39 -174l277 1571q7 49 55 49h186q52 0 45 -49l-63 -363q79 111 217 111q270 0 270 -330q0 -118 -26 -254q-55 -309 -152 -443q-96 -134 -260 -134q-80 0 -139 29q-61 30 -78 71l-45 -258q-8 -51 -58 -51h-186q-50 0 -43 51zM356 381q0 -148 95 -148q65 0 106 73t74 257 q20 116 20 201q0 129 -84 129q-67 0 -112 -75t-78 -255q-21 -108 -21 -182z" />
<glyph unicode="&#xff;" horiz-adv-x="849" d="M-57 -168l30 148q12 49 62 49q68 -6 74 -6q98 0 86 116l-62 934q-4 55 45 55h195q51 0 51 -53v-532l-12 -191h6l51 191l162 532q17 53 63 53h205q54 0 33 -55l-379 -1007q-62 -171 -143 -235q-84 -67 -256 -67q-137 0 -183 17q-35 14 -28 51zM260 1255l21 119q6 47 51 47 h168q54 0 43 -47l-21 -119q-11 -47 -53 -47h-168q-53 0 -41 47zM608 1255l21 119q11 47 53 47h168q52 0 41 -47l-21 -119q-11 -47 -53 -47h-166q-54 0 -43 47z" />
<glyph unicode="&#x152;" horiz-adv-x="1394" d="M76 432q0 136 28 291q74 412 214 567q141 156 411 156h711q59 0 49 -55l-31 -172q-8 -56 -61 -56h-342l-54 -291h320q59 0 47 -55l-29 -162q-7 -55 -61 -55h-324l-55 -317h344q58 0 47 -54l-30 -174q-12 -55 -60 -55h-694q-219 0 -324 98q-106 99 -106 334zM389 467 q0 -105 36 -145q36 -41 112 -41h57l154 884h-50q-108 0 -171 -90q-62 -88 -107 -352q-31 -172 -31 -256z" />
<glyph unicode="&#x153;" horiz-adv-x="1384" d="M49 334q0 108 23 229q56 316 166 448q111 134 317 134q170 0 242 -105q108 105 268 105q313 0 313 -314q0 -77 -20 -198l-23 -129q-6 -33 -20 -44t-47 -11h-424q-6 -50 -6 -82q0 -75 42 -110q41 -34 132 -34q68 0 174 25q30 8 44 -2q15 -11 11 -37l-14 -133 q-8 -50 -58 -62q-99 -30 -206 -30q-215 0 -299 108q-112 -108 -279 -108q-168 0 -252 84t-84 266zM338 348q0 -63 18 -90t60 -27q63 0 98 71q36 74 70 261q26 134 26 215q0 119 -78 119q-63 0 -98 -71q-34 -70 -69 -263q-27 -139 -27 -215zM877 649h210l5 23q18 106 18 147 q0 99 -74 99q-60 0 -94 -60q-36 -62 -65 -209z" />
<glyph unicode="&#x178;" horiz-adv-x="995" d="M188 1380q-6 23 7 45q12 21 47 21h204q58 0 66 -51l37 -367l4 -197h6l76 197l166 367q27 51 76 51h215q34 0 42 -23q7 -22 -8 -43l-460 -833l-86 -492q-12 -55 -62 -55h-199q-61 0 -49 55l86 492zM379 1569l22 117q6 47 52 47h170q49 0 43 -47l-23 -117q-8 -47 -53 -47 h-170q-49 0 -41 47zM739 1569l23 117q6 47 51 47h170q49 0 43 -47l-22 -117q-8 -47 -54 -47h-170q-47 0 -41 47z" />
<glyph unicode="&#x2c6;" horiz-adv-x="557" d="M128 1226q-5 19 15 34l179 157q28 27 65 27h121q38 0 61 -27l125 -157q14 -15 6 -34q-8 -18 -30 -18h-113q-42 0 -65 35l-58 80l-86 -80q-35 -35 -69 -35h-123q-24 0 -28 18z" />
<glyph unicode="&#x2dc;" horiz-adv-x="557" d="M129 1276q15 79 50 115t106 36q79 0 141 -30l47 -23q81 -38 102 12l5 11q14 26 45 26h67q50 0 35 -65q-12 -79 -48 -116q-36 -38 -106 -38q-80 0 -145 31l-45 22q-78 37 -102 -12l-5 -8q-15 -29 -45 -29h-67q-50 0 -35 68z" />
<glyph unicode="&#x2000;" horiz-adv-x="949" />
<glyph unicode="&#x2001;" horiz-adv-x="1899" />
<glyph unicode="&#x2002;" horiz-adv-x="949" />
<glyph unicode="&#x2003;" horiz-adv-x="1899" />
<glyph unicode="&#x2004;" horiz-adv-x="633" />
<glyph unicode="&#x2005;" horiz-adv-x="474" />
<glyph unicode="&#x2006;" horiz-adv-x="316" />
<glyph unicode="&#x2007;" horiz-adv-x="316" />
<glyph unicode="&#x2008;" horiz-adv-x="237" />
<glyph unicode="&#x2009;" horiz-adv-x="379" />
<glyph unicode="&#x200a;" horiz-adv-x="105" />
<glyph unicode="&#x2010;" horiz-adv-x="567" d="M63 522l25 144q7 49 55 49h361q52 0 45 -49l-25 -144q-7 -49 -57 -49h-361q-55 0 -43 49z" />
<glyph unicode="&#x2011;" horiz-adv-x="567" d="M63 522l25 144q7 49 55 49h361q52 0 45 -49l-25 -144q-7 -49 -57 -49h-361q-55 0 -43 49z" />
<glyph unicode="&#x2012;" horiz-adv-x="567" d="M63 522l25 144q7 49 55 49h361q52 0 45 -49l-25 -144q-7 -49 -57 -49h-361q-55 0 -43 49z" />
<glyph unicode="&#x2013;" horiz-adv-x="784" d="M63 522l25 144q7 49 55 49h578q52 0 45 -49l-25 -144q-12 -49 -57 -49h-578q-55 0 -43 49z" />
<glyph unicode="&#x2014;" horiz-adv-x="1159" d="M63 522l25 144q7 49 55 49h953q51 0 45 -49l-25 -144q-12 -49 -57 -49h-953q-55 0 -43 49z" />
<glyph unicode="&#x2018;" horiz-adv-x="425" d="M160 977l28 176q12 44 25 66l129 202q24 33 53 33h72q21 0 27 -12t-5 -31l-104 -182h49q57 0 47 -55l-32 -197q-12 -53 -62 -53h-180q-59 0 -47 53z" />
<glyph unicode="&#x2019;" horiz-adv-x="425" d="M188 958l103 183h-49q-57 0 -47 55l34 195q7 55 62 55h180q57 0 47 -55l-31 -174q-5 -37 -22 -66l-131 -201q-21 -35 -51 -35h-74q-42 0 -21 43z" />
<glyph unicode="&#x201a;" horiz-adv-x="425" d="M-10 -182l102 182h-49q-54 0 -47 55l35 195q10 55 61 55h180q54 0 47 -55l-30 -174q-5 -35 -23 -66l-131 -200q-21 -35 -51 -35h-74q-42 0 -20 43z" />
<glyph unicode="&#x201c;" horiz-adv-x="802" d="M158 969l30 176q4 37 23 65l129 203q24 33 53 33h74q41 0 20 -43l-102 -182h49q57 0 45 -56l-33 -196q-11 -54 -61 -54h-180q-58 0 -47 54zM537 969l28 176q6 33 25 65l129 203q24 33 53 33h72q20 0 26 -12q6 -13 -4 -31l-102 -182h47q58 0 47 -56l-33 -196 q-12 -54 -63 -54h-178q-59 0 -47 54z" />
<glyph unicode="&#x201d;" horiz-adv-x="802" d="M183 925q-5 14 5 29l101 185h-47q-58 0 -47 53l34 197q7 55 62 55h180q57 0 47 -55l-31 -177q-6 -40 -22 -63l-131 -203q-21 -35 -53 -35h-72q-21 0 -26 14zM561 925q-6 13 4 29l103 185h-47q-59 0 -48 53l35 197q10 55 60 55h180q56 0 49 -55l-33 -177q-6 -41 -20 -63 l-131 -203q-23 -35 -54 -35h-71q-21 0 -27 14z" />
<glyph unicode="&#x201e;" horiz-adv-x="802" d="M-15 -214q-5 15 5 30l100 184h-47q-58 0 -47 53l35 197q10 55 61 55h180q54 0 47 -55l-30 -176q-6 -39 -23 -64l-131 -203q-21 -34 -53 -34h-72q-21 0 -25 13zM363 -214q-6 14 4 30l102 184h-47q-58 0 -47 53l35 197q7 55 59 55h180q59 0 49 -55l-32 -176q-6 -40 -21 -64 l-131 -203q-22 -34 -53 -34h-72q-20 0 -26 13z" />
<glyph unicode="&#x2022;" horiz-adv-x="722" d="M82 508q0 142 97 245t245 103q112 0 181 -65q71 -66 71 -173q0 -138 -99 -242t-245 -104q-111 0 -180 66q-70 67 -70 170z" />
<glyph unicode="&#x2026;" horiz-adv-x="1286" d="M-4 55l35 195q12 55 61 55h180q59 0 47 -55l-34 -195q-10 -55 -60 -55h-180q-56 0 -49 55zM424 55l37 195q10 55 59 55h180q57 0 50 -55l-37 -195q-7 -55 -60 -55h-180q-59 0 -49 55zM852 55l37 195q7 55 59 55h182q58 0 48 -55l-35 -195q-12 -55 -60 -55h-182 q-56 0 -49 55z" />
<glyph unicode="&#x202f;" horiz-adv-x="379" />
<glyph unicode="&#x2039;" horiz-adv-x="487" d="M68 594q6 17 10 22l166 289q18 39 61 39h160q50 0 22 -49l-172 -301l68 -299q11 -51 -37 -51h-162q-40 0 -51 41l-63 286q0 8 -1 13t-1 10z" />
<glyph unicode="&#x203a;" horiz-adv-x="487" d="M35 257q-7 15 8 38l170 299l-66 301q-10 49 39 49h160q40 0 51 -39l62 -289q4 -14 2 -22q-7 -20 -10 -23l-164 -286q-23 -41 -60 -41h-161q-25 0 -31 13z" />
<glyph unicode="&#x205f;" horiz-adv-x="474" />
<glyph unicode="&#x20ac;" horiz-adv-x="1003" d="M45 541l12 71q7 45 52 45h90q1 13 10 68q5 30 14 72h-86q-46 0 -39 43l13 71q7 45 49 45h98q80 274 216 392t382 118q137 0 240 -26q49 -15 28 -66l-59 -157q-23 -53 -72 -46q-67 15 -123 15q-122 0 -189 -56q-67 -57 -106 -174h332q44 0 29 -45l-25 -71q-16 -43 -53 -43 h-326l-16 -72l-8 -68h293q43 0 28 -45l-24 -71q-15 -43 -53 -43h-256q-4 -118 44 -174t171 -56q57 0 125 15q53 11 53 -45l8 -158q0 -53 -53 -64q-91 -26 -209 -26q-235 0 -345 104q-112 106 -112 330q0 42 2 74h-94q-47 0 -41 43z" />
<glyph unicode="&#x2122;" horiz-adv-x="1132" d="M190 1317l19 98q5 31 33 31h333q35 0 29 -31l-18 -98q-5 -31 -33 -31h-80l-84 -481q-6 -31 -33 -31h-120q-31 0 -29 31l86 481h-74q-35 0 -29 31zM553 805l109 610q2 31 32 31h113q31 0 37 -23l61 -249l152 249q12 23 37 23h118q33 0 27 -31l-106 -610q-6 -31 -35 -31 h-115q-33 0 -27 31l62 348l-119 -197q-16 -22 -35 -22q-18 0 -24 22l-49 197l-62 -348q-5 -31 -33 -31h-114q-35 0 -29 31z" />
<glyph unicode="&#x25fc;" horiz-adv-x="1126" d="M0 0v1126h1126v-1126h-1126z" />
</font>
</defs>
</svg>
