<?xml version="1.0" standalone="no"?>
<!DOCTYPE svg PUBLIC "-//W3C//DTD SVG 1.1//EN" "http://www.w3.org/Graphics/SVG/1.1/DTD/svg11.dtd" >
<svg xmlns="http://www.w3.org/2000/svg" xmlns:xlink="http://www.w3.org/1999/xlink" version="1.1">
<metadata></metadata>
<defs>
<font id="amsipronarw-ultrauploadedfile" horiz-adv-x="1142" >
<font-face units-per-em="2048" ascent="1753" descent="-295" />
<missing-glyph horiz-adv-x="458" />
<glyph unicode="&#xfb01;" horiz-adv-x="1241" d="M59 59l121 686h-49q-67 0 -55 62l33 190q12 62 69 62h55l17 84q30 178 111 250q80 71 255 71q117 0 170 -14q63 -18 52 -66l-25 -139q-10 -61 -68 -61q-13 0 -25 1t-24 1q-32 0 -50 -18t-25 -60l-9 -49h578q69 0 57 -64l-164 -932q-12 -63 -71 -63h-258q-70 0 -58 63 l121 682h-260l-121 -686q-12 -59 -71 -59h-248q-70 0 -58 59zM903 1247l25 139q12 64 71 64h261q69 0 57 -64l-23 -139q-12 -63 -73 -63h-263q-67 0 -55 63z" />
<glyph unicode="&#xfb02;" horiz-adv-x="1243" d="M59 59l121 686h-49q-67 0 -55 62l33 190q12 62 69 62h55l7 28q39 221 160 301q120 80 425 80q259 0 432 -43q62 -18 52 -77l-226 -1285q-12 -63 -71 -63h-258q-70 0 -58 63l197 1108q-61 7 -123 7q-74 0 -110 -19q-35 -18 -42 -67l-6 -33h68q69 0 57 -64l-30 -186 q-12 -64 -74 -64h-76l-121 -686q-12 -59 -71 -59h-248q-70 0 -58 59z" />
<glyph unicode="&#xfb03;" horiz-adv-x="1880" d="M59 59l121 686h-51q-65 0 -53 62l33 190q12 62 69 62h55l17 84q30 178 112 249q83 72 256 72q109 0 162 -14q62 -18 51 -66l-24 -139q-10 -61 -70 -61q-11 0 -21 1t-22 1q-58 0 -73 -78l-9 -49h260l15 84q30 177 114 249t259 72q112 0 165 -14q61 -18 50 -66l-25 -139 q-10 -61 -68 -61q-13 0 -25 1t-24 1q-33 0 -49 -18q-17 -18 -24 -60l-11 -49h578q69 0 57 -64l-164 -932q-12 -63 -71 -63h-258q-70 0 -58 63l121 682h-258l-121 -686q-12 -59 -74 -59h-245q-72 0 -60 59l121 686h-260l-121 -686q-12 -59 -71 -59h-248q-70 0 -58 59z M1540 1247l25 139q12 64 71 64h262q70 0 58 -64l-25 -139q-12 -63 -71 -63h-263q-69 0 -57 63z" />
<glyph unicode="&#xfb04;" horiz-adv-x="1880" d="M59 59l121 686h-49q-67 0 -55 62l33 190q12 62 69 62h55l17 84q30 178 112 249q83 72 256 72q109 0 162 -14q62 -18 51 -66l-24 -139q-10 -61 -70 -61q-11 0 -21 1t-22 1q-58 0 -73 -78l-9 -49h260l5 28q39 221 159 301t424 80q261 0 434 -43q64 -18 54 -77l-228 -1285 q-12 -63 -71 -63h-258q-70 0 -58 63l197 1108q-60 7 -123 7q-73 0 -109 -19t-43 -67l-6 -33h70q69 0 57 -64l-33 -186q-12 -64 -71 -64h-76l-121 -686q-12 -59 -74 -59h-245q-72 0 -60 59l121 686h-260l-121 -686q-12 -59 -71 -59h-248q-70 0 -58 59z" />
<glyph horiz-adv-x="0" />
<glyph unicode="&#xd;" horiz-adv-x="681" />
<glyph unicode=" "  horiz-adv-x="458" />
<glyph unicode="&#x09;" horiz-adv-x="458" />
<glyph unicode="&#xa0;" horiz-adv-x="458" />
<glyph unicode="!" horiz-adv-x="608" d="M37 68l43 241q12 68 80 68h250q73 0 61 -68l-43 -241q-12 -68 -76 -68h-256q-71 0 -59 68zM158 543l84 837q6 70 73 70h316q72 0 57 -70l-211 -837q-18 -64 -80 -64h-180q-65 0 -59 64z" />
<glyph unicode="&#x22;" horiz-adv-x="829" d="M225 1272q-5 56 6 119q11 57 51 89q36 29 119 29q85 0 114 -29q30 -30 20 -89q-6 -33 -35 -119l-146 -393h-123zM614 1272q-4 52 7 119q12 58 50 89q36 29 120 29q83 0 112 -29q31 -31 21 -89q-10 -43 -35 -119l-146 -393h-122z" />
<glyph unicode="#" horiz-adv-x="1196" d="M27 446l12 68q8 64 74 64h133l129 294h-86q-65 0 -53 64l12 68q8 63 74 63h141l153 346q30 60 89 43l75 -18q62 -18 35 -80l-131 -291h221l154 346q27 61 86 43l76 -18q61 -18 34 -80l-129 -291h80q66 0 54 -63l-13 -68q-8 -64 -73 -64h-136l-131 -294h88q64 0 56 -64 l-13 -68q-12 -63 -75 -63h-142l-153 -346q-28 -61 -86 -43l-78 18q-62 18 -33 80l129 291h-219l-156 -346q-27 -61 -84 -43l-78 18q-62 18 -32 80l129 291h-80q-65 0 -53 63zM467 578h221l129 294h-219z" />
<glyph unicode="$" horiz-adv-x="1114" d="M7 78q-9 16 3 55l70 195q24 75 98 45q101 -43 236 -43q221 0 221 100q0 30 -38 60q-35 28 -138 85q-57 26 -111 62q-44 29 -92 79q-49 51 -72 115q-24 67 -24 154q0 413 481 479l21 119q12 62 67 62h94q62 0 54 -62l-21 -115q165 -15 252 -55q34 -12 41 -30q8 -18 -4 -56 l-66 -192q-27 -66 -98 -45q-91 30 -225 30q-170 0 -170 -86q0 -72 174 -162q76 -42 119 -72q40 -28 91 -79q45 -45 67 -107q22 -63 22 -137q0 -195 -124 -320q-125 -126 -335 -165l-22 -125q-12 -62 -68 -62h-94q-65 0 -54 62l21 115q-217 11 -332 65q-36 15 -44 31z" />
<glyph unicode="%" horiz-adv-x="1798" d="M133 909q0 57 12 125q73 430 406 430q145 0 222 -83t77 -228q0 -74 -10 -127q-78 -430 -406 -430q-145 0 -223 83t-78 230zM345 16q-8 17 13 45l910 1334q37 55 90 55h145q31 0 38 -16q8 -17 -13 -45l-907 -1334q-39 -55 -93 -55h-145q-31 0 -38 16zM405 907 q0 -84 54 -84q38 0 62 46q22 43 44 161q15 92 15 123q0 84 -54 84q-38 0 -62 -46q-22 -43 -44 -161q-15 -92 -15 -123zM1038 297q0 69 11 127q78 430 405 430q145 0 223 -83t78 -228q0 -59 -12 -127q-73 -430 -406 -430q-145 0 -222 83t-77 228zM1309 293q0 -80 51 -80 q39 0 63 46t45 161q15 78 15 127q0 80 -51 80q-40 0 -64 -46t-45 -161q-14 -73 -14 -127z" />
<glyph unicode="&#x26;" horiz-adv-x="1355" d="M43 360q0 172 99 303q97 128 274 195l-19 39q-53 108 -53 211q0 186 135 275q137 90 344 90q157 0 277 -37q64 -24 47 -86l-43 -152q-18 -68 -92 -53q-92 18 -148 18q-47 0 -74 -4q-33 -5 -58 -27q-27 -24 -27 -65q0 -36 38 -96l220 -404q41 90 41 189q0 86 71 86h199 q49 0 49 -84q0 -248 -203 -486l115 -206q12 -23 0 -44q-13 -22 -39 -22h-250q-62 0 -84 39l-20 29q-151 -86 -324 -86q-214 0 -344 99q-131 99 -131 279zM449 430q0 -117 167 -117q48 0 86 15l-153 284q-100 -69 -100 -182z" />
<glyph unicode="'" horiz-adv-x="442" d="M225 1272q-5 56 6 119q11 57 51 89q36 29 119 29q85 0 114 -29q30 -30 20 -89q-6 -33 -35 -119l-146 -393h-123z" />
<glyph unicode="(" horiz-adv-x="706" d="M88 385q0 286 121 564q123 282 334 487q38 34 78 34h182q24 0 32 -11q9 -12 6 -27t-16 -33q-170 -232 -266 -509t-96 -566q0 -280 86 -494q10 -26 -2 -49t-45 -23h-183q-42 0 -65 35q-166 239 -166 592z" />
<glyph unicode=")" horiz-adv-x="706" d="M-82 -218q-5 24 16 48q171 239 264 512q95 280 95 563q0 277 -84 494q-10 26 2 49q12 22 45 22h182q44 0 66 -34q164 -242 164 -588q0 -286 -120 -567t-333 -488q-40 -35 -78 -35h-182q-33 0 -37 24z" />
<glyph unicode="*" horiz-adv-x="851" d="M147 942q0 48 68 86q29 17 100 30q78 15 97 23q-19 10 -87 25q-70 16 -92 31q-43 27 -43 59q0 36 39 82q41 52 75 63q34 10 71 -16q22 -15 63 -70q38 -51 54 -67q0 19 -11 90q-10 66 -4 100q11 53 37 73q28 22 88 22t82 -22q21 -21 10 -73q-6 -32 -39 -100 q-35 -71 -41 -90q27 20 78 68q55 52 86 69q33 18 60 18q42 0 69 -65q15 -30 15 -57q0 -49 -68 -84q-31 -17 -102 -32q-61 -13 -95 -24q15 -8 87 -24q70 -16 92 -31q41 -24 41 -59q0 -32 -37 -82q-41 -51 -76 -62q-34 -10 -70 15q-25 17 -63 70q-42 58 -53 69q0 -28 10 -92 q10 -66 4 -101q-7 -48 -36 -70q-28 -22 -89 -22q-60 0 -82 22q-20 20 -10 70q6 34 39 101q34 69 41 92q-23 -19 -76 -68q-56 -51 -88 -69q-40 -19 -62 -19q-42 0 -69 64q-13 36 -13 57z" />
<glyph unicode="+" d="M113 629l32 184q12 64 72 64h250l47 266q12 65 72 65h223q69 0 57 -65l-47 -266h242q65 0 57 -64l-33 -184q-12 -66 -73 -66h-248l-49 -276q-12 -66 -72 -66h-225q-68 0 -56 66l50 276h-242q-64 0 -57 66z" />
<glyph unicode="," horiz-adv-x="512" d="M-8 -242q-6 18 8 41l123 201h-66q-71 0 -59 68l41 233q12 68 78 68h233q76 0 64 -68l-37 -207q-7 -44 -31 -80l-172 -235q-24 -37 -61 -37h-90q-25 0 -31 16z" />
<glyph unicode="-" horiz-adv-x="702" d="M68 510l32 184q12 66 72 66h451q69 0 57 -64l-33 -186q-12 -64 -72 -64h-450q-69 0 -57 64z" />
<glyph unicode="." horiz-adv-x="512" d="M-2 68l41 233q12 68 78 68h233q76 0 64 -68l-41 -233q-12 -68 -76 -68h-240q-71 0 -59 68z" />
<glyph unicode="/" horiz-adv-x="868" d="M-56 22q-12 20 7 56l688 1313q29 59 90 59h234q37 0 50 -22q12 -20 -7 -56l-687 -1313q-29 -59 -90 -59h-235q-37 0 -50 22z" />
<glyph unicode="0" horiz-adv-x="1232" d="M90 467q0 102 27 258q69 402 232 574q165 174 423 174q461 0 461 -490q0 -119 -27 -260q-69 -400 -232 -572q-165 -174 -423 -174q-461 0 -461 490zM500 481q0 -149 94 -149q70 0 117 84q47 85 86 309q26 152 26 242q0 151 -94 151q-69 0 -116 -84q-46 -83 -85 -309 q-28 -165 -28 -244z" />
<glyph unicode="1" horiz-adv-x="968" d="M158 1069q-28 42 16 72l385 282q39 27 94 27h273q69 0 61 -70l-231 -1310q-15 -70 -78 -70h-268q-74 0 -62 70l170 958l-184 -119q-48 -31 -74 6z" />
<glyph unicode="2" horiz-adv-x="1146" d="M-4 66l29 167q7 49 67 82q111 62 216 139q108 80 212 176q103 96 170 208q66 111 66 209q0 90 -97 90q-70 0 -101 -55q-30 -54 -30 -128q0 -92 -67 -92h-244q-59 0 -59 78q0 251 154 392t405 141q227 0 342 -101t115 -254q0 -411 -582 -780h385q71 0 59 -68l-35 -204 q-12 -66 -75 -66h-871q-71 0 -59 66z" />
<glyph unicode="3" horiz-adv-x="1097" d="M-18 131l67 199q27 63 86 41q142 -52 271 -52q98 0 162 41q63 40 63 129q0 95 -135 95h-138q-65 0 -53 65l33 187q12 65 78 65h123q73 0 120 35q48 36 48 102q0 99 -162 99q-128 0 -264 -47q-73 -18 -74 40v191q-2 56 59 80q174 69 396 69q195 0 324 -74 q130 -75 130 -235q0 -128 -65 -227q-66 -100 -179 -150q73 -28 116 -98q44 -73 44 -174q0 -266 -165 -399q-164 -133 -431 -133q-130 0 -249 21q-116 21 -175 50q-51 23 -30 80z" />
<glyph unicode="4" horiz-adv-x="1214" d="M27 344l34 197q6 42 41 86l662 778q34 45 84 45h274q72 0 64 -70l-139 -780h94q71 0 59 -65l-35 -191q-7 -65 -75 -65h-99l-37 -209q-15 -70 -77 -70h-263q-76 0 -61 70l37 209h-506q-69 0 -57 65zM371 600h274l72 404z" />
<glyph unicode="5" horiz-adv-x="1120" d="M-16 80q-6 16 6 51l67 199q24 65 86 41q142 -52 281 -52q242 0 242 203q0 117 -158 117q-69 0 -139 -16q-74 -17 -93 -17q-18 0 -34 10l-86 31q-20 10 -25 24q-4 12 4 42q33 117 84 342q54 236 68 323q15 72 78 72h714q72 0 60 -66l-37 -204q-8 -68 -76 -68h-457 q-25 -118 -51 -201q84 23 176 23q193 0 286 -90t93 -248q0 -310 -176 -463q-175 -153 -473 -153q-262 0 -404 71q-30 12 -36 29z" />
<glyph unicode="6" horiz-adv-x="1189" d="M84 451q0 102 16 217q60 389 235 597t507 208q164 0 270 -39q30 -13 37 -27q7 -15 0 -49l-51 -191q-21 -59 -88 -47q-136 21 -181 21q-133 0 -200 -55q-66 -54 -90 -177q108 66 243 66q180 0 274 -103q93 -102 93 -266q0 -266 -165 -447q-165 -182 -423 -182 q-241 0 -359 126q-118 125 -118 348zM465 442q0 -131 133 -131q86 0 133 77t47 167q0 57 -34 91t-95 34q-91 0 -138 -73q-46 -71 -46 -165z" />
<glyph unicode="7" horiz-adv-x="1069" d="M121 68q62 265 232 562q169 295 356 482h-476q-71 0 -59 70l35 198q12 70 78 70h833q74 0 62 -70l-31 -174q-5 -18 -12 -36q-6 -14 -16 -26q-1 -1 -8 -10t-12 -15q-9 -10 -16 -17q-171 -203 -326 -486q-157 -287 -218 -548q-11 -38 -27 -53t-51 -15h-281q-78 0 -63 68z " />
<glyph unicode="8" horiz-adv-x="1200" d="M39 324q0 302 311 426q-77 35 -117 109t-40 163q0 120 48 212t130 141q85 51 180 74q99 24 211 24q211 0 339 -87q126 -86 126 -241q0 -138 -74 -241q-73 -101 -201 -154q84 -35 134 -110q51 -77 51 -181q0 -107 -34 -188q-35 -84 -91 -137q-57 -54 -136 -90 q-80 -36 -164 -51q-91 -16 -182 -16q-234 0 -364 96q-127 94 -127 251zM453 397q0 -47 31 -75q32 -29 89 -29q77 0 121 48q43 47 43 120q0 109 -110 160q-174 -79 -174 -224zM582 1020q0 -102 90 -146q155 76 155 213q0 93 -104 93q-73 0 -107 -45q-34 -44 -34 -115z" />
<glyph unicode="9" horiz-adv-x="1189" d="M131 92l53 191q16 59 86 47q144 -21 183 -21q132 0 199 55q67 54 89 177q-108 -66 -235 -66q-184 0 -279 103q-94 101 -94 264q0 267 161 449t429 182q242 0 357 -124q116 -125 116 -348q0 -147 -27 -280q-66 -364 -234 -553q-170 -191 -484 -191q-179 0 -281 39 q-57 21 -39 76zM502 903q0 -58 35 -96q34 -37 94 -37q91 0 138 70q46 68 46 161q0 60 -33 99t-100 39q-84 0 -132 -74q-48 -73 -48 -162z" />
<glyph unicode=":" horiz-adv-x="585" d="M35 68l41 233q12 68 78 68h233q76 0 64 -68l-43 -233q-12 -68 -74 -68h-240q-71 0 -59 68zM168 823l41 236q12 65 80 65h233q74 0 62 -65l-41 -236q-12 -67 -76 -67h-240q-71 0 -59 67z" />
<glyph unicode=";" horiz-adv-x="585" d="M29 -242q-6 18 8 41l123 201h-66q-71 0 -59 68l41 233q12 68 78 68h233q76 0 64 -68l-37 -207q-7 -44 -31 -80l-172 -235q-24 -37 -61 -37h-91q-24 0 -30 16zM168 823l41 236q12 65 80 65h233q74 0 62 -65l-41 -236q-12 -67 -76 -67h-240q-71 0 -59 67z" />
<glyph unicode="&#x3c;" d="M152 717q4 33 34 55l727 561q56 44 91 -4l110 -151q33 -49 -20 -93l-486 -372l350 -373q41 -41 -10 -90l-160 -146q-53 -50 -94 -6l-526 564q-20 20 -16 55z" />
<glyph unicode="=" d="M111 385l30 174q12 64 72 64h762q69 0 57 -64l-31 -174q-12 -66 -73 -66h-760q-64 0 -57 66zM199 883l30 174q12 63 72 63h762q65 0 57 -63l-33 -174q-7 -66 -71 -66h-762q-67 0 -55 66z" />
<glyph unicode="&#x3e;" d="M117 254q-33 49 20 90l484 373l-351 373q-39 43 11 90l159 149q55 46 92 4l529 -561q22 -21 18 -53q-5 -33 -37 -57l-727 -564q-53 -45 -92 6z" />
<glyph unicode="?" horiz-adv-x="972" d="M207 68l43 241q12 68 80 68h250q73 0 61 -68l-43 -241q-12 -68 -74 -68h-256q-73 0 -61 68zM213 1130v199q-2 34 12 50q15 19 47 30q152 61 336 61q209 0 313 -76q105 -77 105 -223q0 -92 -34 -173q-35 -84 -82 -141q-46 -56 -98 -108q-49 -49 -88 -99q-38 -49 -44 -87 l-4 -20q-11 -64 -78 -64h-223q-71 0 -60 66l4 18q15 63 63 129q49 68 96 113q49 48 86 111q38 65 38 131q0 81 -108 81q-99 0 -209 -38q-71 -17 -72 40z" />
<glyph unicode="@" horiz-adv-x="1787" d="M82 295q0 268 121 488q122 221 347 351q226 130 513 130q327 0 500 -134q172 -133 172 -376q0 -152 -58 -308q-58 -155 -183 -268q-127 -115 -288 -115h-133q-55 0 -67 41l-27 86q-94 -127 -246 -127q-118 0 -196 69t-78 190q0 257 159 446q158 188 426 188 q197 0 312 -65q21 -11 29 -26q7 -13 -1 -38l-184 -591h41q101 0 173 96q74 99 102 210q28 112 28 216q0 176 -120 258q-119 82 -373 82q-337 0 -557 -217q-222 -219 -222 -582q0 -202 139 -291q137 -88 429 -88q190 0 393 43q21 5 30 -3q8 -7 7 -28l-4 -73q-2 -34 -39 -41 q-200 -58 -393 -58q-360 0 -556 134t-196 401zM774 397q0 -84 66 -84q93 0 149 181l66 211q-39 10 -72 10q-91 0 -150 -106t-59 -212z" />
<glyph unicode="A" horiz-adv-x="1255" d="M-44 22q-14 21 1 58l551 1300q17 38 37 54t61 16h379q78 0 84 -70l92 -1300v-12q0 -68 -67 -68h-275q-71 0 -71 66l-7 167h-299l-63 -167q-29 -66 -88 -66h-287q-34 0 -48 22zM551 580h203l-13 469h-8z" />
<glyph unicode="B" horiz-adv-x="1230" d="M18 70l232 1310q15 70 78 70h452q473 0 473 -307q0 -259 -233 -365q71 -25 114 -99q44 -76 44 -175q0 -246 -159 -375t-423 -129h-516q-64 0 -64 52q0 8 2 18zM469 328h139q75 0 119 44q43 43 43 124q0 94 -119 94h-137zM567 893h119q150 0 150 147q0 82 -107 82h-121z " />
<glyph unicode="C" horiz-adv-x="1107" d="M84 461q0 117 27 268q74 415 245 579q172 165 482 165q179 0 309 -64q45 -17 45 -54q0 -15 -8 -34l-74 -191q-22 -50 -67 -50q-14 0 -31 5q-72 25 -154 25q-152 0 -221 -78q-70 -79 -109 -303q-22 -122 -22 -192q0 -111 52 -154t173 -43q82 0 166 27q18 5 33 5 q45 0 49 -50l8 -191q2 -36 -13 -53q-16 -19 -52 -35q-144 -66 -308 -66q-259 0 -395 113q-135 112 -135 371z" />
<glyph unicode="D" horiz-adv-x="1243" d="M18 70l232 1310q12 70 80 70h379q273 0 407 -114q133 -114 133 -373q0 -100 -22 -238q-63 -396 -237 -561q-173 -164 -501 -164h-411q-62 0 -62 51q0 9 2 19zM481 362h54q119 0 179 74q59 72 97 289q20 109 20 188q0 100 -40 137t-134 37h-47z" />
<glyph unicode="E" horiz-adv-x="1050" d="M18 70l232 1310q12 70 78 70h749q64 0 64 -52q0 -8 -2 -18l-39 -217q-8 -69 -78 -69h-416l-35 -187h385q63 0 63 -53q0 -7 -1 -16l-37 -203q-12 -70 -78 -70h-391l-37 -209h420q63 0 62 -51q0 -8 -1 -18l-38 -217q-12 -70 -78 -70h-760q-64 0 -64 52q0 8 2 18z" />
<glyph unicode="F" horiz-adv-x="1013" d="M18 72l232 1306q12 72 80 72h733q63 0 63 -52q0 -8 -2 -18l-39 -217q-7 -69 -77 -69h-398l-41 -228h371q63 0 63 -51q0 -8 -2 -18l-36 -213q-12 -70 -80 -70h-379l-78 -442q-12 -72 -80 -72h-266q-66 0 -66 54q0 8 2 18z" />
<glyph unicode="G" horiz-adv-x="1249" d="M84 471q0 119 27 260q40 217 103 358q64 142 164 229q99 86 222 120q125 35 293 35q225 0 348 -72q32 -18 39 -34q8 -18 -4 -54l-70 -191q-18 -49 -65 -49q-17 0 -37 6q-99 31 -205 31q-177 0 -254 -77t-117 -304q-20 -111 -20 -197q0 -113 49 -156q50 -44 156 -44 q49 0 75 8l46 256h-89q-63 0 -63 52q0 8 2 18l31 174q12 69 78 69h383q61 0 61 -50q0 -9 -2 -19l-121 -686q-10 -60 -74 -93q-159 -84 -422 -84q-261 0 -397 114q-137 114 -137 380z" />
<glyph unicode="H" horiz-adv-x="1249" d="M18 70l232 1310q12 70 78 70h272q64 0 64 -52q0 -8 -2 -18l-82 -460h249l80 460q12 70 78 70h270q65 0 65 -57q0 -6 -1 -13l-231 -1310q-15 -70 -78 -70h-273q-63 0 -63 52q0 8 2 18l86 483h-248l-86 -483q-12 -70 -78 -70h-272q-64 0 -64 52q0 8 2 18z" />
<glyph unicode="I" horiz-adv-x="606" d="M27 70l231 1310q12 70 78 70h272q64 0 63 -52q0 -8 -1 -18l-232 -1310q-12 -70 -78 -70h-272q-63 0 -63 52q0 8 2 18z" />
<glyph unicode="J" horiz-adv-x="876" d="M-31 129l72 199q19 52 62 52q10 0 22 -3q61 -21 119 -21q116 0 143 148l154 876q12 70 77 70h271q64 0 64 -57q0 -6 -1 -13l-166 -931q-44 -256 -162 -359q-119 -104 -345 -104q-168 0 -271 53q-44 18 -44 59q0 14 5 31z" />
<glyph unicode="K" horiz-adv-x="1210" d="M18 70l232 1310q12 70 78 70h272q64 0 64 -52q0 -8 -2 -18l-72 -403l303 409q46 64 102 64h297q40 0 47 -27t-16 -59l-434 -576l225 -702q11 -35 -4 -60q-15 -26 -51 -26h-277q-65 0 -86 63l-168 560l-98 -553q-12 -70 -78 -70h-272q-64 0 -64 52q0 8 2 18z" />
<glyph unicode="L" horiz-adv-x="985" d="M18 70l232 1310q12 70 78 70h272q64 0 64 -52q0 -8 -2 -18l-181 -1009h353q63 0 62 -52q0 -8 -1 -18l-41 -231q-12 -70 -78 -70h-696q-64 0 -64 52q0 8 2 18z" />
<glyph unicode="M" horiz-adv-x="1497" d="M18 70l232 1310q12 70 78 70h239q67 0 82 -47l168 -506l348 506q29 47 88 47h252q65 0 65 -57q0 -6 -1 -13l-232 -1310q-15 -70 -77 -70h-261q-63 0 -63 49q0 10 2 21l117 663l-267 -381q-27 -45 -67 -45q-43 0 -55 45l-131 381l-117 -663q-12 -70 -78 -70h-260 q-64 0 -64 52q0 8 2 18z" />
<glyph unicode="N" horiz-adv-x="1275" d="M18 70l232 1310q12 70 78 70h245q69 0 84 -51l189 -617l104 598q12 70 78 70h258q64 0 64 -52q0 -8 -2 -18l-232 -1310q-12 -70 -78 -70h-247q-67 0 -84 51l-187 617l-104 -598q-12 -70 -78 -70h-258q-64 0 -64 52q0 8 2 18z" />
<glyph unicode="O" horiz-adv-x="1277" d="M82 457q0 108 29 270q74 415 236 580q163 166 448 166q235 0 364 -112q127 -111 127 -368q0 -108 -29 -270q-72 -415 -236 -580q-165 -166 -448 -166q-235 0 -364 112q-127 111 -127 368zM500 485q0 -81 28 -115t88 -34q86 0 136 80t90 309q28 169 28 240q0 81 -28 115 t-88 34q-89 0 -137 -80q-49 -81 -89 -309q-28 -169 -28 -240z" />
<glyph unicode="P" horiz-adv-x="1208" d="M18 70l232 1310q12 70 78 70h415q254 0 377 -87t123 -292q0 -82 -14 -156q-46 -293 -195 -413q-148 -119 -440 -119h-111l-55 -313q-12 -70 -76 -70h-270q-66 0 -66 52q0 8 2 18zM545 735h90q87 0 125 38q37 37 55 142q10 54 10 86q0 53 -29 73q-31 22 -98 22h-88z" />
<glyph unicode="Q" horiz-adv-x="1273" d="M86 477q0 119 27 260q73 408 234 571q164 165 446 165q236 0 363 -112q126 -111 126 -366q0 -117 -27 -262q-80 -460 -360 -635q22 -2 53 -2q17 0 47 5t37 5q44 0 44 -40q0 -6 -1 -13l-33 -180q-7 -40 -26 -57t-60 -17q-274 0 -471 203q-185 7 -292 125t-107 350z M502 504q0 -80 28 -114t88 -34q88 0 134 78q47 79 86 301q28 143 28 230q0 80 -28 114q-29 35 -88 35q-87 0 -135 -79q-47 -78 -85 -300q-28 -164 -28 -231z" />
<glyph unicode="R" horiz-adv-x="1220" d="M18 70l232 1310q12 70 78 70h428q256 0 383 -85t127 -284q0 -61 -17 -155q-56 -320 -307 -432l143 -408q12 -38 -1 -61q-14 -25 -52 -25h-256q-74 0 -90 57l-115 371h-79l-64 -358q-12 -70 -76 -70h-270q-66 0 -66 52q0 8 2 18zM551 762h102q87 0 127 38q39 38 56 128 q6 44 6 71q0 54 -30 75q-31 22 -101 22h-101z" />
<glyph unicode="S" horiz-adv-x="1071" d="M1 75q-9 18 1 56l70 195q21 52 63 52q16 0 35 -7q103 -41 231 -41q195 0 195 104q0 32 -35 62q-37 32 -125 82q-274 141 -274 389q0 255 146 379t421 124q227 0 344 -55q33 -12 41 -31t-2 -55l-68 -192q-21 -52 -67 -52q-14 0 -31 5q-92 30 -207 30q-151 0 -151 -90 q0 -77 149 -160q144 -84 213 -165q72 -84 72 -213q0 -239 -161 -376q-160 -136 -417 -136q-272 0 -401 65q-33 12 -42 30z" />
<glyph unicode="T" horiz-adv-x="1030" d="M158 1151l41 229q12 70 77 70h814q64 0 64 -57q0 -6 -1 -13l-41 -229q-12 -70 -80 -70h-203l-180 -1011q-12 -70 -76 -70h-272q-63 0 -63 49q0 10 2 21l178 1011h-199q-63 0 -63 52q0 8 2 18z" />
<glyph unicode="U" horiz-adv-x="1234" d="M74 348q0 57 12 129l160 903q8 70 76 70h272q64 0 64 -57q0 -6 -1 -13l-151 -856q-10 -49 -10 -80q0 -98 100 -98q67 0 102 41q36 42 52 137l151 856q8 70 76 70h272q64 0 64 -52q0 -8 -2 -18l-160 -903q-45 -264 -186 -381q-140 -116 -410 -116q-481 0 -481 368z" />
<glyph unicode="V" horiz-adv-x="1243" d="M184 1370v10q0 70 66 70h289q69 0 73 -66l-2 -673l-8 -291h8l95 291l239 673q18 66 86 66h299q34 0 48 -22q14 -21 -1 -58l-545 -1296q-30 -74 -96 -74h-383q-74 0 -80 74z" />
<glyph unicode="W" horiz-adv-x="1875" d="M188 1370v10q0 70 66 70h283q71 0 75 -66l-8 -561l-8 -305h6l98 305l189 563q23 64 84 64h250q75 0 75 -64l-10 -563l-10 -305h6l100 305l191 561q23 66 84 66h297q34 0 48 -22q14 -21 -1 -58l-506 -1296q-30 -74 -98 -74h-322q-78 0 -80 74l-10 397l6 297h-6l-98 -297 l-152 -397q-30 -74 -96 -74h-324q-75 0 -77 74z" />
<glyph unicode="X" horiz-adv-x="1232" d="M-43 27q-10 26 12 59l459 651l-223 629q-13 30 2 56q16 28 51 28h291q70 0 88 -61l90 -306l197 306q39 61 98 61h289q37 0 46 -29q9 -28 -14 -55l-444 -629l227 -651q12 -32 -3 -59t-52 -27h-287q-65 0 -86 63l-98 320l-211 -320q-43 -63 -100 -63h-285q-36 0 -47 27z " />
<glyph unicode="Y" horiz-adv-x="1228" d="M186 1364q-7 32 9 59t55 27h280q73 0 84 -64l52 -317l14 -184h8l78 184l164 317q34 64 96 64h289q38 0 50 -29t-9 -57l-525 -823l-81 -471q-15 -70 -78 -70h-273q-63 0 -63 52q0 8 2 18l84 471z" />
<glyph unicode="Z" horiz-adv-x="1118" d="M0 70l39 215q11 58 55 108l574 688h-394q-61 0 -61 51q0 9 2 19l41 229q8 70 76 70h794q64 0 64 -52q0 -8 -2 -18l-37 -215q-11 -58 -55 -108l-574 -688h430q64 0 63 -52q0 -8 -1 -18l-39 -229q-15 -70 -78 -70h-836q-63 0 -63 52q0 8 2 18z" />
<glyph unicode="[" horiz-adv-x="706" d="M16 -162l273 1548q12 64 71 64h402q69 0 57 -64l-28 -163q-8 -64 -72 -64h-111l-194 -1093h104q69 0 57 -64l-28 -164q-12 -63 -74 -63h-399q-66 0 -58 63z" />
<glyph unicode="\" horiz-adv-x="868" d="M193 1372q-15 78 63 78h209q66 0 76 -59l225 -1313q15 -78 -66 -78h-219q-35 0 -46 14q-11 13 -17 45z" />
<glyph unicode="]" horiz-adv-x="706" d="M-63 -162l28 164q12 64 72 64h113l192 1093h-102q-70 0 -58 64l27 163q12 64 72 64h401q69 0 57 -64l-272 -1548q-12 -63 -72 -63h-401q-64 0 -57 63z" />
<glyph unicode="^" d="M131 733q-10 22 14 60l394 606q35 51 90 51h221q66 0 82 -51l180 -606q10 -37 -5 -60q-15 -22 -50 -22h-207q-64 0 -80 55l-86 311l-199 -311q-33 -55 -90 -55h-217q-37 0 -47 22z" />
<glyph unicode="_" horiz-adv-x="1011" d="M-92 -199l12 74q8 64 70 64h833q70 0 58 -64l-13 -74q-12 -65 -71 -65h-836q-65 0 -53 65z" />
<glyph unicode="`" horiz-adv-x="673" d="M250 1450q11 25 39 25h272q53 0 64 -45l32 -162q11 -51 -45 -51h-141q-55 0 -82 34l-133 156q-17 18 -6 43z" />
<glyph unicode="a" horiz-adv-x="1056" d="M8 248q0 108 34 186q35 82 89 128q56 49 140 78q86 30 173 42q93 13 201 14l8 49q3 14 3 25q0 30 -21 46q-30 22 -105 22q-106 0 -251 -45q-36 -11 -55 1q-18 11 -17 44l4 170q2 57 61 75q168 60 353 60q210 0 313 -68q102 -67 102 -211q0 -40 -10 -94l-123 -707 q-12 -63 -71 -63h-203q-62 0 -68 51l-4 45q-101 -108 -270 -108q-131 0 -206 65q-77 66 -77 195zM385 317q0 -71 74 -71q109 0 133 147l18 101q-95 -4 -160 -48t-65 -129z" />
<glyph unicode="b" horiz-adv-x="1161" d="M12 63l232 1324q12 63 71 63h258q60 0 60 -46q0 -8 -2 -17l-60 -340q91 98 252 98q318 0 318 -369q0 -98 -21 -215q-55 -310 -167 -446q-111 -135 -302 -135q-80 0 -157 34q-79 35 -103 82l-20 -45q-18 -51 -76 -51h-225q-60 0 -60 46q0 8 2 17zM467 418q0 -125 92 -125 q67 0 104 59t64 211q18 114 18 152q0 116 -90 116q-65 0 -105 -59t-67 -209q-16 -80 -16 -145z" />
<glyph unicode="c" horiz-adv-x="917" d="M53 389q0 72 19 180q53 302 200 439q148 137 394 137q67 0 152 -16q82 -15 114 -35q33 -18 33 -49q0 -14 -7 -31l-65 -180q-17 -41 -58 -41q-14 0 -30 4q-73 20 -121 20q-95 0 -144 -55q-51 -57 -75 -197q-14 -80 -14 -116q0 -79 35 -110q37 -32 110 -32q55 0 133 23 q19 6 33 6q39 0 43 -43l2 -178q2 -54 -55 -82q-108 -53 -258 -53q-213 0 -326 101q-115 103 -115 308z" />
<glyph unicode="d" horiz-adv-x="1161" d="M51 340q0 85 23 223q53 305 166 444q112 138 301 138q77 0 153 -28t99 -70l59 339q12 64 72 64h258q59 0 59 -46q0 -8 -2 -18l-233 -1323q-12 -63 -72 -63h-225q-65 0 -66 51l-4 45q-42 -48 -118 -83q-72 -33 -150 -33q-320 0 -320 360zM451 410q0 -64 21 -91 q20 -26 67 -26q65 0 105 59t67 211q16 92 16 144q0 67 -24 96q-24 28 -70 28q-65 0 -102 -58q-37 -57 -64 -210q-16 -87 -16 -153z" />
<glyph unicode="e" horiz-adv-x="1075" d="M53 391q0 70 19 178q53 297 194 437q140 139 385 139q201 0 304 -97q104 -98 104 -282q0 -76 -15 -156l-22 -118q-11 -70 -82 -70h-510q-2 -16 -2 -33q2 -66 48 -93q48 -28 142 -28q107 0 232 41q35 11 54 -1t18 -44l-4 -145q-1 -54 -66 -82q-130 -57 -305 -57 q-494 0 -494 411zM459 649h241l5 23q10 59 10 92q0 102 -90 102q-65 0 -103 -47q-35 -44 -63 -170z" />
<glyph unicode="f" horiz-adv-x="720" d="M59 59l121 686h-49q-57 0 -57 45q0 8 2 17l33 190q12 62 69 62h55l15 76q33 186 121 258q87 71 268 71q116 0 170 -16q46 -15 46 -52q0 -6 -1 -12l-29 -153q-12 -66 -69 -66q-14 0 -26 1t-21 1q-47 0 -64 -16q-20 -18 -27 -61l-4 -31h113q59 0 59 -46q0 -9 -2 -18 l-32 -186q-12 -64 -72 -64h-121l-121 -686q-12 -59 -71 -59h-248q-60 0 -60 43q0 7 2 16z" />
<glyph unicode="g" horiz-adv-x="1110" d="M23 -115l49 154q13 51 56 51q14 0 32 -6q127 -39 233 -39q104 0 157 38q51 37 68 126l9 43q-85 -98 -244 -98q-309 0 -309 313q0 77 18 182q46 264 154 379q107 115 280 115q87 0 151 -34t91 -81l20 45q21 51 78 51h211q59 0 59 -51q0 -6 -1 -12l-154 -864 q-40 -229 -176 -336t-393 -107q-252 0 -353 49q-29 15 -36 30t0 52zM467 537q0 -103 78 -103q55 0 89 51q34 50 52 162q10 49 10 103q0 106 -80 106q-55 0 -87 -50t-50 -159q-12 -69 -12 -110z" />
<glyph unicode="h" horiz-adv-x="1118" d="M12 63l232 1323q12 64 71 64h258q60 0 60 -47q0 -8 -2 -17l-60 -346q108 105 260 105q269 0 269 -277q0 -56 -13 -131l-118 -674q-12 -63 -72 -63h-258q-59 0 -59 46q0 8 2 17l106 609q8 53 8 65q0 68 -63 68q-56 0 -86 -40q-31 -42 -47 -122l-103 -580q-12 -63 -69 -63 h-258q-60 0 -60 46q0 8 2 17z" />
<glyph unicode="i" horiz-adv-x="561" d="M16 63l177 998q7 63 71 63h256q60 0 60 -46q0 -8 -2 -17l-177 -998q-12 -63 -71 -63h-256q-60 0 -60 46q0 8 2 17zM225 1272l19 114q12 64 71 64h267q59 0 59 -46q0 -8 -2 -18l-21 -114q-12 -64 -71 -64h-266q-58 0 -58 46q0 8 2 18z" />
<glyph unicode="j" horiz-adv-x="610" d="M-129 -158l33 185q12 59 67 59q9 0 18 -1t21 -1q32 0 49 18q18 19 25 68l158 891q8 63 71 63h256q60 0 60 -46q0 -8 -2 -17l-168 -955q-33 -194 -118 -270t-267 -76q-103 0 -160 17q-44 14 -44 53q0 6 1 12zM274 1272l19 114q12 64 72 64h266q59 0 59 -46q0 -9 -2 -18 l-20 -114q-12 -64 -72 -64h-266q-58 0 -58 46q0 8 2 18z" />
<glyph unicode="k" horiz-adv-x="1081" d="M12 63l232 1323q12 64 71 64h258q60 0 60 -47q0 -8 -2 -17l-105 -591l217 276q38 53 97 53h278q37 0 44 -26q8 -28 -19 -56l-350 -430l194 -532q15 -30 1 -55t-48 -25l-258 2q-67 0 -88 53l-129 389l-68 -381q-12 -63 -69 -63h-258q-60 0 -60 46q0 8 2 17z" />
<glyph unicode="l" horiz-adv-x="561" d="M16 63l232 1323q12 64 71 64h259q59 0 59 -46q0 -8 -2 -18l-234 -1323q-12 -63 -69 -63h-258q-60 0 -60 46q0 8 2 17z" />
<glyph unicode="m" horiz-adv-x="1650" d="M8 63l176 998q8 63 72 63h227q61 0 66 -51l6 -51q119 123 272 123q189 0 234 -137q142 137 313 137q262 0 262 -264q0 -57 -12 -125l-123 -693q-12 -63 -71 -63h-252q-62 0 -62 46q0 8 2 17l109 613q6 33 6 61q0 70 -59 70q-100 0 -127 -160l-103 -584q-12 -63 -72 -63 h-249q-60 0 -60 46q0 8 2 17l109 613q6 37 6 63q0 68 -57 68q-98 0 -131 -160l-103 -584q-12 -63 -70 -63h-253q-60 0 -60 46q0 8 2 17z" />
<glyph unicode="n" horiz-adv-x="1114" d="M8 63l176 998q8 63 72 63h227q61 0 66 -51l6 -51q111 123 274 123q267 0 267 -273q0 -56 -13 -131l-118 -678q-12 -63 -72 -63h-258q-59 0 -59 46q0 8 2 17l106 609q8 53 8 65q0 68 -63 68q-56 0 -86 -40q-31 -42 -47 -122l-103 -580q-12 -63 -69 -63h-258q-60 0 -60 46 q0 8 2 17z" />
<glyph unicode="o" horiz-adv-x="1116" d="M53 387q0 70 19 178q53 304 195 442q143 138 388 138q439 0 439 -408q0 -70 -17 -178q-56 -307 -197 -442q-143 -137 -388 -137q-439 0 -439 407zM444 397q0 -57 20 -83q19 -25 62 -25q63 0 97 59t61 215q21 105 21 166q0 107 -82 107q-64 0 -97 -59q-32 -57 -61 -214 q-21 -108 -21 -166z" />
<glyph unicode="p" horiz-adv-x="1157" d="M-33 -162l217 1223q8 63 72 63h225q61 0 66 -51l4 -45q42 48 115 83q71 34 147 34q324 0 324 -371q0 -96 -21 -213q-56 -308 -166 -444q-111 -137 -299 -137q-78 0 -153 28t-103 70l-41 -240q-12 -63 -71 -63h-258q-59 0 -59 51q0 6 1 12zM463 418q0 -125 92 -125 q66 0 103 59q38 61 65 211q16 99 16 150q0 65 -21 92q-20 26 -67 26q-65 0 -105 -59t-67 -209q-16 -80 -16 -145z" />
<glyph unicode="q" horiz-adv-x="1157" d="M53 348q0 96 21 217q56 313 168 446q113 134 301 134q78 0 150 -33q73 -33 110 -84l20 45q23 51 76 51h225q60 0 60 -46q0 -8 -2 -17l-215 -1223q-12 -63 -74 -63h-256q-58 0 -58 50q0 6 1 13l43 240q-94 -98 -252 -98q-318 0 -318 368zM451 410q0 -64 21 -91 q20 -26 67 -26q63 0 104 60q41 61 68 210q16 89 16 144q0 124 -94 124q-65 0 -102 -59t-64 -209q-16 -102 -16 -153z" />
<glyph unicode="r" horiz-adv-x="792" d="M8 63l176 998q8 63 72 63h231q36 0 50 -14t12 -45v-90q43 66 114 114t150 48q36 0 48 -15q11 -13 3 -49l-49 -289q-10 -55 -65 -55q-12 0 -36 3t-40 3q-164 0 -193 -180l-88 -492q-12 -63 -69 -63h-258q-60 0 -60 46q0 8 2 17z" />
<glyph unicode="s" horiz-adv-x="894" d="M-18 51q-8 18 2 49l49 168q16 48 55 48q13 0 29 -5q81 -28 192 -28q146 0 146 55q0 26 -30 47q-29 20 -103 55q-107 45 -171 110q-63 64 -63 181q0 414 479 414q202 0 301 -39q38 -13 38 -48q0 -12 -5 -28l-47 -166q-14 -49 -57 -49q-12 0 -25 4q-92 25 -172 25 q-127 0 -127 -60q0 -29 36 -53q32 -21 116 -61q213 -94 213 -289q0 -401 -498 -401q-194 0 -322 45q-29 11 -36 26z" />
<glyph unicode="t" horiz-adv-x="731" d="M70 807l32 190q12 62 70 62h57l41 233q12 62 74 62h244q59 0 59 -45q0 -8 -2 -17l-41 -233h119q59 0 59 -46q0 -8 -2 -18l-32 -186q-12 -64 -72 -64h-125l-62 -344q-3 -19 -3 -34q0 -25 8 -38q12 -20 59 -20q10 0 22 1t27 1q49 0 49 -42q0 -9 -2 -19l-33 -182 q-11 -51 -67 -66q-60 -16 -148 -16q-159 0 -235 55t-76 186q0 53 12 121l72 397h-49q-57 0 -57 45q0 8 2 17z" />
<glyph unicode="u" horiz-adv-x="1107" d="M45 242q0 44 10 108l127 711q8 63 72 63h258q58 0 58 -51q0 -6 -1 -12l-110 -615q-6 -37 -6 -61q0 -70 63 -70q55 0 84 38q28 36 43 116l105 592q12 63 71 63h258q59 0 59 -51q0 -6 -1 -12l-177 -998q-12 -63 -71 -63h-228q-61 0 -67 51l-6 51q-91 -122 -256 -122 q-285 0 -285 262z" />
<glyph unicode="v" horiz-adv-x="1052" d="M123 1051q-1 6 -1 12q0 61 58 61h264q68 0 68 -63l-2 -422l-4 -223h8l76 223l147 422q23 63 84 63h277q33 0 43 -19q11 -20 -4 -54l-451 -990q-27 -61 -88 -61h-299q-71 0 -78 61z" />
<glyph unicode="w" horiz-adv-x="1595" d="M127 1051v8q0 65 59 65h265q67 0 67 -63l-6 -412l-10 -215h4l72 215l155 418q21 57 74 57h192q62 0 62 -57l8 -418l-4 -215h4l66 215l137 412q24 63 84 63h276q33 0 43 -19q11 -20 -4 -54l-403 -985q-24 -66 -88 -66h-258q-74 0 -80 68l-15 292l-2 254h-6l-90 -254 l-119 -292q-29 -68 -94 -68h-258q-70 0 -76 66z" />
<glyph unicode="x" horiz-adv-x="1058" d="M-52 23q-8 23 15 53l375 495l-195 478q-11 31 1 53t42 22h258q74 0 86 -51l64 -219l141 219q30 51 96 51h265q33 0 39 -22t-17 -53l-360 -478l198 -495q11 -31 -1 -53q-12 -23 -42 -23h-264q-73 0 -88 51l-63 225l-146 -225q-30 -51 -96 -51h-268q-32 0 -40 23z" />
<glyph unicode="y" horiz-adv-x="1050" d="M-29 -156l33 174q8 60 68 60q14 0 46 -3t54 -3q82 0 82 66q0 10 -2 22l-125 891q-1 10 -1 18q0 55 56 55h264q70 0 70 -63l10 -424l2 -236h9l67 236l131 424q21 63 82 63h273q33 0 45 -19q13 -20 -2 -54l-404 -957q-56 -132 -106 -198q-50 -67 -135 -101 q-87 -35 -228 -35q-171 0 -244 19q-46 14 -46 54q0 5 1 11z" />
<glyph unicode="z" horiz-adv-x="964" d="M-12 63l26 148q6 40 41 84l453 502h-307q-60 0 -60 47q0 8 2 18l37 199q8 63 72 63h690q58 0 58 -51q0 -6 -1 -12l-26 -148q-11 -49 -47 -88l-447 -497h336q57 0 57 -46q0 -8 -2 -18l-34 -201q-12 -63 -72 -63h-719q-59 0 -59 46q0 8 2 17z" />
<glyph unicode="{" horiz-adv-x="706" d="M31 516l32 193q12 63 76 63h21q40 0 70 57q31 60 55 203q45 259 126 338q82 80 275 80h100q66 0 54 -64l-29 -161q-8 -64 -76 -64h-20q-35 0 -51 -39q-16 -37 -37 -153q-52 -307 -250 -357q139 -39 139 -221q0 -51 -14 -135q-19 -125 -19 -141q0 -52 37 -52h23 q65 0 53 -63l-29 -162q-12 -63 -75 -63h-101q-150 0 -214 44q-62 43 -62 171q0 77 22 203q19 112 19 163q0 97 -54 97h-20q-63 0 -51 63z" />
<glyph unicode="|" horiz-adv-x="653" d="M154 -162v1589q0 64 63 64h219q66 0 66 -64v-1589q0 -63 -66 -63h-219q-63 0 -63 63z" />
<glyph unicode="}" horiz-adv-x="706" d="M-82 -162l27 162q12 63 75 63h23q35 0 51 39q17 41 35 152q52 307 250 358q-137 39 -137 219q0 54 14 138q16 99 16 137q0 55 -36 55h-21q-65 0 -53 64l26 161q12 64 76 64h101q150 0 214 -44q62 -43 62 -169q0 -72 -23 -205q-18 -107 -18 -164q0 -96 53 -96h21 q60 0 53 -63l-35 -193q-12 -63 -76 -63h-20q-42 0 -70 -57q-28 -56 -55 -203q-30 -177 -77 -267q-46 -88 -119 -120q-71 -31 -205 -31h-101q-63 0 -51 63z" />
<glyph unicode="~" d="M104 666q33 137 108 221t191 84q111 0 201 -51l96 -56q50 -28 88 -28q58 0 91 63l18 33q29 53 82 22l123 -67q46 -27 31 -86q-33 -134 -109 -217q-76 -84 -190 -84q-112 0 -201 53l-96 53q-52 29 -88 29q-55 0 -93 -64l-16 -32q-29 -53 -82 -23l-123 70q-43 22 -31 80z " />
<glyph unicode="&#xa1;" horiz-adv-x="600" d="M-39 -213l199 795q15 63 78 63h180q67 0 61 -63l-82 -795q-6 -70 -73 -70h-308q-73 0 -55 70zM166 815l43 242q12 67 76 67h254q71 0 59 -67l-43 -242q-12 -67 -78 -67h-250q-73 0 -61 67z" />
<glyph unicode="&#xa2;" horiz-adv-x="956" d="M59 395q0 85 17 172q96 533 518 572l20 121q12 59 70 59h94q58 0 51 -59l-20 -121q108 -17 154 -45q49 -27 26 -80l-67 -180q-22 -55 -88 -37q-74 20 -132 20q-98 0 -153 -55q-56 -56 -80 -197q-12 -67 -12 -110q0 -79 39 -114q38 -34 120 -34q64 0 142 23q70 21 76 -37 l4 -178q2 -53 -56 -82q-56 -30 -176 -45l-22 -121q-11 -62 -70 -62h-92q-63 0 -51 62l20 121q-154 18 -243 122t-89 285z" />
<glyph unicode="&#xa3;" horiz-adv-x="1204" d="M18 207q-22 46 25 74q123 78 184 161q61 84 49 199h-139q-53 0 -45 51l12 74q7 51 56 51h71q-20 74 -20 139q0 248 161 382q162 135 406 135q208 0 323 -83q113 -82 113 -243q0 -189 -84 -189h-233q-49 0 -49 33q0 20 7 47t7 43q0 64 -104 64q-160 0 -160 -205 q0 -45 12 -123h250q52 0 45 -51l-14 -74q-7 -51 -55 -51h-207q0 -111 -39 -184q-41 -76 -127 -138q51 15 102 15q37 0 84 -11q51 -12 80 -12q72 0 96 88q12 58 78 58h182q76 0 64 -82q-38 -198 -110 -295q-72 -96 -218 -96q-92 0 -208 33q-120 34 -187 34q-123 0 -223 -47 q-61 -27 -80 4z" />
<glyph unicode="&#xa4;" horiz-adv-x="1157" d="M152 205q-34 35 0 69l77 76q-49 95 -49 232q0 136 49 231l-77 78q-33 34 0 67l49 50q35 33 69 0l62 -64q96 72 248 72q148 0 247 -72l62 64q33 33 67 0l50 -50q34 -33 0 -67l-78 -78q49 -95 49 -231q0 -137 -49 -232l78 -76q34 -34 0 -69l-50 -47q-34 -34 -67 0l-62 61 q-96 -72 -247 -72q-156 0 -248 72l-62 -61q-32 -32 -69 0zM459 582q0 -185 121 -185q120 0 120 185q0 184 -120 184q-121 0 -121 -184z" />
<glyph unicode="&#xa5;" horiz-adv-x="1204" d="M96 373l13 73q8 52 57 52h235l5 24l-27 109h-182q-52 0 -45 49l12 76q7 49 57 49h113l-152 559q-8 33 8 59q17 27 56 27h282q73 0 84 -64l60 -489h8l233 489q34 64 99 64h282q39 0 51 -29q11 -27 -12 -57l-346 -559h109q50 0 43 -49l-13 -76q-7 -49 -55 -49h-188 l-66 -109l-4 -24h227q51 0 43 -52l-12 -73q-7 -51 -55 -51h-234l-45 -252q-15 -70 -78 -70h-272q-76 0 -61 70l45 252h-230q-53 0 -45 51z" />
<glyph unicode="&#xa6;" horiz-adv-x="653" d="M154 -162v565q0 64 63 64h219q66 0 66 -64v-565q0 -63 -66 -63h-219q-63 0 -63 63zM154 862v565q0 64 63 64h219q66 0 66 -64v-565q0 -63 -66 -63h-219q-63 0 -63 63z" />
<glyph unicode="&#xa7;" horiz-adv-x="1196" d="M16 -111l52 174q23 69 94 48q88 -31 256 -31q217 0 217 82q0 20 -10 34q-11 15 -33 27q-36 19 -42 22q-12 6 -54 22q-8 3 -20.5 8t-21 8.5t-14.5 5.5q-183 77 -262 139q-80 63 -80 178q0 93 46 170q47 80 128 125q-51 72 -51 158q0 216 149 315t388 99q224 0 350 -46 q33 -11 42 -28q9 -19 -1 -56l-51 -174q-21 -65 -94 -47q-101 29 -220 29q-162 0 -170 -80q0 -19 11 -38q11 -18 32 -31q23 -14 42 -21q3 -1 22.5 -9t33.5 -13q36 -13 54 -21q172 -72 253 -141t81 -185q0 -163 -172 -286q55 -61 55 -158q0 -114 -52 -196q-53 -83 -141 -128 q-84 -43 -190 -65q-101 -21 -215 -21q-243 0 -369 47q-61 21 -43 84zM467 655q0 -46 59 -80q65 -37 209 -92q39 35 39 88q0 45 -61 82t-207 90q-39 -29 -39 -88z" />
<glyph unicode="&#xa8;" horiz-adv-x="673" d="M104 1278l21 119q12 61 70 61h202q68 0 56 -61l-21 -119q-12 -61 -70 -61h-202q-68 0 -56 61zM528 1278l21 119q7 61 67 61h203q65 0 58 -61l-21 -119q-12 -61 -72 -61h-202q-66 0 -54 61z" />
<glyph unicode="&#xa9;" horiz-adv-x="1648" d="M92 725q0 322 192 535t541 213q350 0 542 -213t192 -535t-192 -535t-542 -213q-349 0 -541 213t-192 535zM295 725q0 -258 130 -410q131 -153 400 -153q271 0 401 153q130 152 130 410t-130 410q-130 153 -401 153q-269 0 -400 -153q-130 -152 -130 -410zM473 739 q1 231 97 331q94 99 290 99q110 0 191 -34q43 -18 32 -62l-26 -121q-10 -40 -60 -28q-53 14 -96 14q-73 0 -107 -43t-34 -156q0 -118 34 -161t111 -43q51 0 99 16t59 -29l27 -121q10 -42 -31 -59q-67 -39 -195 -39q-197 0 -293 100q-97 101 -98 336z" />
<glyph unicode="&#xaa;" horiz-adv-x="839" d="M168 1206q0 82 28 147q26 61 70 99q42 36 112 59q74 24 136 31q78 9 158 10l6 39q6 39 -14 56q-21 18 -76 18q-83 0 -203 -37q-61 -16 -61 39l2 127q0 44 51 61q132 48 276 48q163 0 245 -56q81 -55 81 -176q0 -37 -6 -76l-94 -532q-8 -53 -64 -53h-158q-50 0 -55 41 l-4 26q-89 -80 -211 -80q-93 0 -156 57t-63 152zM469 1264q0 -62 59 -62q82 0 103 115l12 76q-174 -5 -174 -129z" />
<glyph unicode="&#xab;" horiz-adv-x="1071" d="M72 612q5 17 12 29l192 293q30 47 80 47h217q32 0 39 -17q8 -18 -10 -46l-199 -306l93 -305q8 -29 -4 -46q-11 -17 -43 -17h-216q-57 0 -69 47l-88 293q-6 15 -4 28zM539 610q5 17 14 31l192 293q29 47 80 47h215q32 0 40 -17q9 -18 -9 -46l-201 -306l95 -305 q17 -63 -47 -63h-218q-55 0 -67 47l-90 293q-4 9 -4 26z" />
<glyph unicode="&#xac;" horiz-adv-x="1181" d="M119 629l35 188q8 64 71 64h844q65 0 57 -64l-100 -557q-7 -65 -72 -65h-247q-68 0 -56 63l54 307h-529q-65 0 -57 64z" />
<glyph unicode="&#xad;" horiz-adv-x="702" d="M68 510l32 184q12 66 72 66h451q69 0 57 -64l-33 -186q-12 -64 -72 -64h-450q-69 0 -57 64z" />
<glyph unicode="&#xae;" horiz-adv-x="884" d="M82 1112q0 153 95 257t265 104q171 0 266 -104t95 -257t-95 -257q-94 -103 -266 -103q-171 0 -265 103q-95 104 -95 257zM174 1112q0 -124 68 -200q67 -74 200 -74q134 0 201 74q68 76 68 200t-68 200q-67 74 -201 74q-133 0 -200 -74q-68 -76 -68 -200zM297 940v354 q0 25 27 25h129q85 0 126 -34q42 -35 42 -114q0 -90 -66 -120l59 -107q6 -11 2 -19q-5 -10 -14 -10h-84q-23 0 -31 19l-47 96h-14v-90q0 -25 -27 -25h-75q-27 0 -27 25zM426 1130h25q21 0 31 10t10 31q0 24 -10 34q-9 9 -31 9h-25v-84z" />
<glyph unicode="&#xaf;" horiz-adv-x="673" d="M125 1288l16 98q12 60 66 60h596q61 0 53 -60l-18 -98q-7 -59 -68 -59h-594q-63 0 -51 59z" />
<glyph unicode="&#xb0;" horiz-adv-x="761" d="M172 1098q0 150 106 259q104 107 267 107q127 0 205 -74q79 -75 79 -190q0 -152 -106 -259t-266 -107q-127 0 -205 74q-80 75 -80 190zM358 1118q0 -52 34 -83t87 -31q68 0 115 50t47 124q0 53 -33 86q-32 32 -86 32q-70 0 -116 -52q-48 -54 -48 -126z" />
<glyph unicode="&#xb1;" d="M14 63l21 125q12 64 71 64h844q70 0 58 -64l-23 -125q-12 -63 -72 -63h-841q-70 0 -58 63zM135 750l33 184q12 65 72 65h247l43 242q12 64 72 64h225q70 0 58 -64l-43 -242h239q70 0 58 -65l-33 -184q-8 -64 -72 -64h-248l-45 -252q-12 -65 -73 -65h-224q-67 0 -55 65 l43 252h-242q-67 0 -55 64z" />
<glyph unicode="&#xb2;" horiz-adv-x="786" d="M178 1059l19 106q5 30 45 54q144 83 261 189q117 107 128 214q6 61 -49 61q-76 0 -76 -102q0 -53 -47 -53h-156q-45 0 -45 49q0 160 100 244t263 84q143 0 219 -63q75 -62 75 -167q0 -237 -344 -446h226q53 0 47 -49l-23 -121q-10 -49 -55 -49h-545q-53 0 -43 49z" />
<glyph unicode="&#xb3;" horiz-adv-x="786" d="M178 1094l41 125q18 45 66 26q84 -28 168 -28q120 0 120 94q0 49 -73 49h-84q-52 0 -45 49l18 98q6 49 53 49h86q42 0 67 21q26 21 26 57q0 54 -99 54q-84 0 -157 -29q-54 -16 -56 27v122q0 39 39 54q105 43 250 43q133 0 219 -50t86 -147q0 -79 -43 -141 q-45 -65 -112 -88q100 -43 100 -166q0 -159 -105 -239q-104 -79 -264 -79q-188 0 -278 45q-38 17 -23 54z" />
<glyph unicode="&#xb4;" horiz-adv-x="673" d="M295 1231q-8 16 2 37l88 162q18 45 68 45h276q31 0 36 -25q5 -26 -17 -43l-177 -156q-37 -34 -86 -34h-155q-28 0 -35 14z" />
<glyph unicode="&#xb5;" horiz-adv-x="1107" d="M-33 -162l217 1223q8 63 72 63h258q67 0 55 -63l-102 -586q-6 -37 -6 -65q0 -95 82 -95q47 0 65 29q19 30 31 98l111 619q8 63 71 63h258q65 0 58 -63l-129 -731q-35 -191 -115 -271q-79 -79 -238 -79q-96 0 -165 35q-70 36 -97 87l-41 -264q-10 -63 -76 -63h-251 q-65 0 -58 63z" />
<glyph unicode="&#xb6;" horiz-adv-x="1107" d="M152 891q2 244 151 401q150 158 406 158h454q63 0 51 -57l-12 -72q-10 -57 -63 -57h-64q-57 0 -85 -26q-27 -26 -38 -89l-198 -1129q-24 -135 -78 -197q-53 -61 -178 -61q-118 0 -164 23q-34 15 -27 51l12 76q6 39 50 39q12 0 39 -3t43 -3q38 0 58 21q19 21 30 83l84 467 h-43q-194 0 -311 98t-117 277z" />
<glyph unicode="&#xb7;" horiz-adv-x="512" d="M66 459l40 233q12 68 78 68h234q75 0 63 -68l-41 -233q-12 -68 -75 -68h-240q-71 0 -59 68z" />
<glyph unicode="&#xb8;" horiz-adv-x="673" d="M66 -291l14 84q6 31 39 31h71q34 0 56 18t22 47q0 80 -135 140h115q85 -21 148 -78t63 -129q0 -86 -66 -128t-168 -42q-99 0 -135 14q-30 10 -24 43z" />
<glyph unicode="&#xb9;" horiz-adv-x="786" d="M299 1640q-23 35 14 62l240 170q29 18 68 18h167q61 0 50 -53l-138 -774q-11 -53 -59 -53h-168q-58 0 -47 53l96 547l-104 -64q-44 -24 -66 6z" />
<glyph unicode="&#xba;" horiz-adv-x="880" d="M205 1313q0 72 14 139q43 240 154 346q112 107 303 107q342 0 342 -316q0 -65 -12 -141q-43 -240 -154 -346q-112 -107 -303 -107q-344 0 -344 318zM508 1325q0 -88 67 -88q51 0 78 46q26 44 47 167q15 78 15 127q0 86 -66 86q-49 0 -76 -46t-49 -167q-16 -83 -16 -125z " />
<glyph unicode="&#xbb;" horiz-adv-x="1071" d="M39 261q-8 18 10 46l201 305l-94 306q-16 63 45 63h217q54 0 71 -47l89 -293q6 -17 2 -29q0 -12 -13 -28l-190 -293q-30 -47 -82 -47h-217q-32 0 -39 17zM506 261q-8 18 10 46l201 305l-94 306q-17 63 47 63h217q54 0 71 -47l86 -293q6 -19 5 -29q-4 -15 -13 -28 l-190 -293q-35 -47 -84 -47h-217q-32 0 -39 17z" />
<glyph unicode="&#xbc;" horiz-adv-x="1839" d="M221 1200q-23 35 15 62l239 170q27 18 68 18h168q60 0 49 -53l-137 -774q-11 -54 -60 -54h-168q-58 0 -47 54l96 546l-104 -63q-44 -24 -66 6zM412 61l907 1334q37 55 88 55h145q32 0 39 -16q8 -18 -12 -45l-905 -1334q-39 -55 -92 -55h-146q-64 0 -24 61zM1040 211 l23 125q1 27 27 57l403 457q28 31 59 31h172q61 0 50 -54l-80 -450h43q57 0 45 -53l-19 -107q-7 -51 -57 -51h-49l-21 -113q-11 -53 -59 -53h-164q-60 0 -49 53l20 113h-301q-49 0 -43 45zM1266 377h155l39 219z" />
<glyph unicode="&#xbd;" horiz-adv-x="1839" d="M221 1200q-23 35 15 62l239 170q27 18 68 18h168q60 0 49 -53l-137 -774q-11 -54 -60 -54h-168q-58 0 -47 54l96 546l-104 -63q-44 -24 -66 6zM358 61l908 1334q37 55 88 55h145q32 0 39 -16q8 -18 -12 -45l-905 -1334q-39 -55 -93 -55h-145q-65 0 -25 61zM1063 49 q-10 -49 43 -49h545q45 0 55 49l23 121q6 49 -48 49h-225q344 209 344 447q0 104 -76 167q-75 62 -219 62q-161 0 -262 -84q-100 -84 -100 -244q0 -49 45 -49h155q48 0 48 53q0 103 75 103q56 0 50 -62q-11 -107 -128 -214q-115 -105 -262 -189q-40 -24 -45 -53z" />
<glyph unicode="&#xbe;" horiz-adv-x="1839" d="M100 653l41 125q18 46 66 27q87 -29 168 -29q121 0 121 94q0 50 -74 50h-84q-52 0 -45 49l18 98q6 49 54 49h86q41 0 66 21q26 21 26 57q0 53 -99 53q-86 0 -157 -28q-54 -16 -56 26v123q0 38 39 53q105 43 250 43q134 0 219 -49q86 -50 86 -147q0 -80 -43 -142 q-45 -65 -112 -88q100 -43 100 -166q0 -159 -104 -238t-265 -79q-188 0 -278 45q-38 17 -23 53zM434 61l907 1334q37 55 89 55h145q32 0 39 -16q8 -18 -12 -45l-906 -1334q-40 -55 -92 -55h-145q-65 0 -25 61zM1040 211l23 125q1 27 27 57l403 457q28 31 59 31h172 q61 0 50 -54l-80 -450h43q57 0 45 -53l-19 -107q-7 -51 -57 -51h-49l-21 -113q-11 -53 -59 -53h-164q-60 0 -49 53l20 113h-301q-49 0 -43 45zM1266 377h155l39 219z" />
<glyph unicode="&#xbf;" horiz-adv-x="925" d="M-25 -25q0 -131 108 -204q109 -74 298 -74q193 0 350 63q32 11 47 30q14 17 13 50v197q-2 62 -72 41q-123 -37 -209 -37q-111 0 -111 76q0 56 40 115q45 67 89 108q49 46 95 109q46 62 53 112l4 19q10 65 -62 65h-221q-68 0 -78 -65l-2 -19q-6 -45 -45 -93 q-37 -46 -87 -94q-45 -43 -96 -101q-48 -54 -81 -132t-33 -166zM354 815l43 242q12 67 76 67h254q71 0 59 -67l-43 -244q-12 -65 -77 -65h-250q-74 0 -62 67z" />
<glyph unicode="&#xc0;" horiz-adv-x="1255" d="M-44 22q-14 21 1 58l551 1300q17 38 37 54t61 16h379q78 0 84 -70l92 -1300q6 -80 -67 -80h-275q-71 0 -71 66l-7 167h-299l-63 -167q-29 -66 -88 -66h-287q-34 0 -48 22zM541 1772q11 24 39 24h278q58 0 64 -45l30 -164q6 -51 -45 -51h-155q-55 0 -82 35l-123 155 q-17 21 -6 46zM551 580h203l-13 469h-8z" />
<glyph unicode="&#xc1;" horiz-adv-x="1255" d="M-44 22q-14 21 1 58l551 1300q17 38 37 54t61 16h379q78 0 84 -70l92 -1300q6 -80 -67 -80h-275q-71 0 -71 66l-7 167h-299l-63 -167q-29 -66 -88 -66h-287q-34 0 -48 22zM551 580h203l-13 469h-8zM698 1587l86 164q27 45 72 45h279q21 0 28 -12q8 -13 4 -29 q-5 -19 -18 -29l-174 -155q-41 -35 -90 -35h-156q-58 0 -31 51z" />
<glyph unicode="&#xc2;" horiz-adv-x="1255" d="M-44 22q-14 21 1 58l551 1300q17 38 37 54t61 16h379q78 0 84 -70l92 -1300q6 -80 -67 -80h-275q-71 0 -71 66l-7 167h-299l-63 -167q-29 -66 -88 -66h-287q-34 0 -48 22zM481 1556q-6 20 17 41l204 183q41 35 86 35h144q55 0 82 -35l143 -183q15 -21 3 -41 q-11 -20 -40 -20h-123q-47 0 -71 35l-84 90l-115 -90q-40 -35 -80 -35h-131q-29 0 -35 20zM551 580h203l-13 469h-8z" />
<glyph unicode="&#xc3;" horiz-adv-x="1255" d="M-44 22q-14 21 1 58l551 1300q17 38 37 54t61 16h379q78 0 84 -70l92 -1300q6 -80 -67 -80h-275q-71 0 -71 66l-7 167h-299l-63 -167q-29 -66 -88 -66h-287q-34 0 -48 22zM467 1616q30 186 199 186q87 0 153 -26l72 -31q106 -43 127 4l4 12q16 37 61 37h82q58 0 43 -88 q-33 -180 -194 -180q-87 0 -156 29l-72 30q-109 41 -127 -6l-4 -10q-16 -37 -61 -37h-82q-33 0 -43 16q-10 15 -2 64zM551 580h203l-13 469h-8z" />
<glyph unicode="&#xc4;" horiz-adv-x="1255" d="M-44 22q-14 21 1 58l551 1300q17 38 37 54t61 16h379q78 0 84 -70l92 -1300q6 -80 -67 -80h-275q-71 0 -71 66l-7 167h-299l-63 -167q-29 -66 -88 -66h-287q-34 0 -48 22zM444 1597l21 119q12 62 70 62h204q68 0 56 -62l-21 -119q-7 -61 -69 -61h-205q-66 0 -56 61z M551 580h203l-13 469h-8zM879 1597l20 119q12 62 70 62h204q68 0 56 -62l-21 -119q-12 -61 -71 -61h-205q-65 0 -53 61z" />
<glyph unicode="&#xc5;" horiz-adv-x="1255" d="M-44 22q-14 21 1 58l551 1300q24 57 72 68q-9 27 -9 55q0 112 76 184q77 72 193 72q92 0 156 -53q63 -52 63 -135q0 -67 -33 -127q37 -12 43 -64l92 -1300q6 -80 -67 -80h-275q-71 0 -71 66l-7 167h-299l-63 -167q-29 -66 -88 -66h-287q-34 0 -48 22zM551 580h203 l-13 469h-8zM725 1524q0 -33 23 -53q22 -19 57 -19q41 0 71 27q29 26 29 71q0 31 -22 52q-21 20 -58 20q-39 0 -70 -28q-30 -27 -30 -70z" />
<glyph unicode="&#xc6;" horiz-adv-x="1642" d="M-55 22q-12 21 4 58l579 1300q30 70 101 70h1040q72 0 60 -70l-37 -217q-8 -69 -78 -69h-381l-35 -187h350q72 0 62 -69l-37 -203q-12 -70 -78 -70h-356l-37 -209h385q73 0 61 -69l-39 -217q-12 -70 -77 -70h-721q-74 0 -62 70l29 166h-242l-69 -170q-30 -66 -91 -66 h-284q-34 0 -47 22zM557 580h182l92 514h-57z" />
<glyph unicode="&#xc7;" horiz-adv-x="1107" d="M84 461q0 117 27 268q74 415 245 579q172 165 482 165q179 0 309 -64q64 -24 37 -88l-74 -191q-29 -66 -98 -45q-72 25 -154 25q-152 0 -221 -78q-70 -79 -109 -303q-22 -122 -22 -192q0 -111 52 -154t173 -43q82 0 166 27q76 21 82 -45l8 -191q2 -36 -13 -53 q-16 -19 -52 -35q-133 -61 -281 -66q88 -57 88 -147q0 -96 -69 -145q-70 -50 -175 -50q-93 0 -141 17q-33 10 -27 43l17 86q6 31 39 31h78q84 0 84 71q0 55 -70 105q-381 56 -381 473z" />
<glyph unicode="&#xc8;" horiz-adv-x="1050" d="M18 70l232 1310q12 70 78 70h749q74 0 62 -70l-39 -217q-8 -69 -78 -69h-416l-35 -187h385q72 0 62 -69l-37 -203q-12 -70 -78 -70h-391l-37 -209h420q73 0 61 -69l-38 -217q-12 -70 -78 -70h-760q-74 0 -62 70zM479 1772q11 24 39 24h279q57 0 63 -45l31 -164 q6 -51 -45 -51h-156q-55 0 -82 35l-123 155q-17 21 -6 46z" />
<glyph unicode="&#xc9;" horiz-adv-x="1050" d="M18 70l232 1310q12 70 78 70h749q74 0 62 -70l-39 -217q-8 -69 -78 -69h-416l-35 -187h385q72 0 62 -69l-37 -203q-12 -70 -78 -70h-391l-37 -209h420q73 0 61 -69l-38 -217q-12 -70 -78 -70h-760q-74 0 -62 70zM584 1587l86 164q27 45 71 45h279q22 0 29 -12 q8 -13 4 -29q-5 -18 -19 -29l-174 -155q-41 -35 -90 -35h-156q-57 0 -30 51z" />
<glyph unicode="&#xca;" horiz-adv-x="1050" d="M18 70l232 1310q12 70 78 70h749q74 0 62 -70l-39 -217q-8 -69 -78 -69h-416l-35 -187h385q72 0 62 -69l-37 -203q-12 -70 -78 -70h-391l-37 -209h420q73 0 61 -69l-38 -217q-12 -70 -78 -70h-760q-74 0 -62 70zM395 1556q-6 20 17 41l204 183q41 35 86 35h144 q55 0 82 -35l143 -183q15 -21 3 -41q-11 -20 -40 -20h-123q-47 0 -71 35l-84 90l-115 -90q-40 -35 -80 -35h-131q-29 0 -35 20z" />
<glyph unicode="&#xcb;" horiz-adv-x="1050" d="M18 70l232 1310q12 70 78 70h749q74 0 62 -70l-39 -217q-8 -69 -78 -69h-416l-35 -187h385q72 0 62 -69l-37 -203q-12 -70 -78 -70h-391l-37 -209h420q73 0 61 -69l-38 -217q-12 -70 -78 -70h-760q-74 0 -62 70zM356 1597l21 119q12 62 69 62h205q68 0 56 -62l-21 -119 q-10 -61 -70 -61h-204q-63 0 -56 61zM791 1597l20 119q12 62 70 62h204q68 0 56 -62l-21 -119q-12 -61 -71 -61h-205q-65 0 -53 61z" />
<glyph unicode="&#xcc;" horiz-adv-x="606" d="M27 70l231 1310q12 70 78 70h272q74 0 62 -70l-232 -1310q-12 -70 -78 -70h-272q-73 0 -61 70zM227 1772q11 24 39 24h279q57 0 63 -45l31 -164q6 -51 -45 -51h-156q-55 0 -82 35l-123 155q-17 21 -6 46z" />
<glyph unicode="&#xcd;" horiz-adv-x="606" d="M27 70l231 1310q12 70 78 70h272q74 0 62 -70l-232 -1310q-12 -70 -78 -70h-272q-73 0 -61 70zM373 1587l86 164q27 45 71 45h279q22 0 29 -12q8 -13 4 -29q-5 -18 -19 -29l-174 -155q-41 -35 -90 -35h-156q-57 0 -30 51z" />
<glyph unicode="&#xce;" horiz-adv-x="606" d="M27 70l231 1310q12 70 78 70h272q74 0 62 -70l-232 -1310q-12 -70 -78 -70h-272q-73 0 -61 70zM158 1556q-6 21 16 41l205 183q41 35 86 35h143q55 0 82 -35l144 -183q15 -21 3 -41q-11 -20 -40 -20h-123q-48 0 -72 35l-84 90l-115 -90q-40 -35 -79 -35h-131 q-29 0 -35 20z" />
<glyph unicode="&#xcf;" horiz-adv-x="606" d="M27 70l231 1310q12 70 78 70h272q74 0 62 -70l-232 -1310q-12 -70 -78 -70h-272q-73 0 -61 70zM121 1597l20 119q12 62 70 62h205q67 0 55 -62l-20 -119q-7 -61 -70 -61h-205q-65 0 -55 61zM555 1597l20 119q12 62 70 62h205q67 0 55 -62l-20 -119q-12 -61 -72 -61h-205 q-65 0 -53 61z" />
<glyph unicode="&#xd0;" horiz-adv-x="1247" d="M23 70l98 555h-37q-50 0 -43 51l16 100q7 51 60 51h41l96 553q12 70 80 70h379q273 0 407 -114q133 -114 133 -373q0 -100 -22 -238q-63 -396 -237 -561q-173 -164 -500 -164h-412q-71 0 -59 70zM485 362h54q119 0 179 74q59 72 97 289q21 114 21 188q0 99 -41 137 q-40 37 -133 37h-48l-47 -260h115q52 0 45 -51l-18 -100q-7 -51 -60 -51h-117z" />
<glyph unicode="&#xd1;" horiz-adv-x="1275" d="M18 70l232 1310q12 70 78 70h245q69 0 84 -51l189 -617l104 598q12 70 78 70h258q74 0 62 -70l-232 -1310q-12 -70 -78 -70h-247q-67 0 -84 51l-187 617l-104 -598q-12 -70 -78 -70h-258q-74 0 -62 70zM477 1616q30 186 199 186q87 0 153 -26l72 -31q106 -43 127 4l4 12 q16 37 62 37h82q58 0 43 -88q-33 -180 -195 -180q-87 0 -156 29l-71 30q-109 41 -127 -6l-4 -10q-16 -37 -62 -37h-82q-33 0 -43 16q-10 15 -2 64z" />
<glyph unicode="&#xd2;" horiz-adv-x="1277" d="M82 457q0 108 29 270q74 415 236 580q163 166 448 166q235 0 364 -112q127 -111 127 -368q0 -108 -29 -270q-72 -415 -236 -580q-165 -166 -448 -166q-235 0 -364 112q-127 111 -127 368zM500 485q0 -81 28 -115t88 -34q86 0 136 80t90 309q28 169 28 240q0 81 -28 115 t-88 34q-89 0 -137 -80q-49 -81 -89 -309q-28 -169 -28 -240zM557 1772q11 24 39 24h278q58 0 64 -45l31 -164q6 -51 -45 -51h-156q-55 0 -82 35l-123 155q-17 21 -6 46z" />
<glyph unicode="&#xd3;" horiz-adv-x="1277" d="M82 457q0 108 29 270q74 415 236 580q163 166 448 166q235 0 364 -112q127 -111 127 -368q0 -108 -29 -270q-72 -415 -236 -580q-165 -166 -448 -166q-235 0 -364 112q-127 111 -127 368zM500 485q0 -81 28 -115t88 -34q86 0 136 80t90 309q28 169 28 240q0 81 -28 115 t-88 34q-89 0 -137 -80q-49 -81 -89 -309q-28 -169 -28 -240zM705 1587l86 164q27 45 71 45h279q21 0 28 -12q9 -14 5 -29q-5 -18 -19 -29l-174 -155q-41 -35 -90 -35h-156q-57 0 -30 51z" />
<glyph unicode="&#xd4;" horiz-adv-x="1277" d="M82 457q0 108 29 270q74 415 236 580q163 166 448 166q235 0 364 -112q127 -111 127 -368q0 -108 -29 -270q-72 -415 -236 -580q-165 -166 -448 -166q-235 0 -364 112q-127 111 -127 368zM494 1556q-6 21 16 41l205 183q41 35 86 35h143q55 0 82 -35l143 -183 q15 -21 3 -41q-11 -20 -39 -20h-123q-48 0 -72 35l-84 90l-115 -90q-40 -35 -80 -35h-131q-28 0 -34 20zM500 485q0 -81 28 -115t88 -34q86 0 136 80t90 309q28 169 28 240q0 81 -28 115t-88 34q-89 0 -137 -80q-49 -81 -89 -309q-28 -169 -28 -240z" />
<glyph unicode="&#xd5;" horiz-adv-x="1277" d="M82 457q0 108 29 270q74 415 236 580q163 166 448 166q235 0 364 -112q127 -111 127 -368q0 -108 -29 -270q-72 -415 -236 -580q-165 -166 -448 -166q-235 0 -364 112q-127 111 -127 368zM479 1616q30 186 199 186q87 0 153 -26l72 -31q106 -43 127 4l4 12q16 37 62 37 h82q58 0 43 -88q-33 -180 -195 -180q-87 0 -156 29l-71 30q-109 41 -127 -6l-4 -10q-16 -37 -62 -37h-82q-33 0 -43 16q-10 15 -2 64zM500 485q0 -81 28 -115t88 -34q86 0 136 80t90 309q28 169 28 240q0 81 -28 115t-88 34q-89 0 -137 -80q-49 -81 -89 -309 q-28 -169 -28 -240z" />
<glyph unicode="&#xd6;" horiz-adv-x="1277" d="M82 457q0 108 29 270q74 415 236 580q163 166 448 166q235 0 364 -112q127 -111 127 -368q0 -108 -29 -270q-72 -415 -236 -580q-165 -166 -448 -166q-235 0 -364 112q-127 111 -127 368zM457 1597l20 119q12 62 70 62h205q67 0 55 -62l-21 -119q-7 -61 -69 -61h-205 q-65 0 -55 61zM500 485q0 -81 28 -115t88 -34q86 0 136 80t90 309q28 169 28 240q0 81 -28 115t-88 34q-89 0 -137 -80q-49 -81 -89 -309q-28 -169 -28 -240zM891 1597l20 119q12 62 70 62h205q67 0 55 -62l-20 -119q-12 -61 -72 -61h-205q-65 0 -53 61z" />
<glyph unicode="&#xd7;" d="M96 399q-37 44 17 90l264 226l-187 225q-34 44 19 90l170 148q55 44 90 0l186 -226l265 226q53 45 92 0l121 -148q37 -44 -17 -90l-264 -225l186 -226q34 -45 -18 -90l-170 -147q-56 -44 -90 0l-187 225l-264 -225q-55 -43 -92 0z" />
<glyph unicode="&#xd8;" horiz-adv-x="1290" d="M49 41q-45 35 0 84l76 88q-41 102 -41 244q0 108 29 270q74 415 236 580q163 166 448 166q220 0 340 -93l47 56q43 49 88 14l57 -41q45 -33 0 -84l-82 -94q41 -100 41 -238q0 -114 -28 -270q-72 -413 -237 -580q-165 -166 -448 -166q-213 0 -335 89l-45 -52 q-45 -49 -89 -14zM514 397q22 -61 104 -61q86 0 136 80t90 309l10 63zM518 655l342 394q-22 65 -104 65q-88 0 -136 -80q-50 -83 -90 -309z" />
<glyph unicode="&#xd9;" horiz-adv-x="1234" d="M74 348q0 57 12 129l160 903q8 70 76 70h272q71 0 63 -70l-151 -856q-10 -49 -10 -80q0 -98 100 -98q67 0 102 41q36 42 52 137l151 856q8 70 76 70h272q74 0 62 -70l-160 -903q-45 -264 -186 -381q-140 -116 -410 -116q-481 0 -481 368zM545 1772q11 24 39 24h278 q58 0 64 -45l30 -164q6 -51 -45 -51h-155q-55 0 -82 35l-123 155q-17 21 -6 46z" />
<glyph unicode="&#xda;" horiz-adv-x="1234" d="M74 348q0 57 12 129l160 903q8 70 76 70h272q71 0 63 -70l-151 -856q-10 -49 -10 -80q0 -98 100 -98q67 0 102 41q36 42 52 137l151 856q8 70 76 70h272q74 0 62 -70l-160 -903q-45 -264 -186 -381q-140 -116 -410 -116q-481 0 -481 368zM674 1587l86 164q27 45 71 45 h279q22 0 29 -12q8 -13 4 -29q-5 -18 -19 -29l-174 -155q-41 -35 -90 -35h-155q-58 0 -31 51z" />
<glyph unicode="&#xdb;" horiz-adv-x="1234" d="M74 348q0 57 12 129l160 903q8 70 76 70h272q71 0 63 -70l-151 -856q-10 -49 -10 -80q0 -98 100 -98q67 0 102 41q36 42 52 137l151 856q8 70 76 70h272q74 0 62 -70l-160 -903q-45 -264 -186 -381q-140 -116 -410 -116q-481 0 -481 368zM471 1556q-6 21 16 41l205 183 q41 35 86 35h144q55 0 82 -35l143 -183q15 -21 3 -41q-11 -20 -40 -20h-123q-48 0 -72 35l-84 90l-114 -90q-40 -35 -80 -35h-131q-29 0 -35 20z" />
<glyph unicode="&#xdc;" horiz-adv-x="1234" d="M74 348q0 57 12 129l160 903q8 70 76 70h272q71 0 63 -70l-151 -856q-10 -49 -10 -80q0 -98 100 -98q67 0 102 41q36 42 52 137l151 856q8 70 76 70h272q74 0 62 -70l-160 -903q-45 -264 -186 -381q-140 -116 -410 -116q-481 0 -481 368zM434 1597l21 119q12 62 69 62 h205q67 0 55 -62l-20 -119q-7 -61 -70 -61h-205q-62 0 -55 61zM868 1597l21 119q12 62 69 62h205q68 0 56 -62l-21 -119q-12 -61 -72 -61h-204q-66 0 -54 61z" />
<glyph unicode="&#xdd;" horiz-adv-x="1228" d="M186 1364q-7 32 9 59t55 27h280q73 0 84 -64l52 -317l14 -184h8l78 184l164 317q34 64 96 64h289q38 0 50 -29t-9 -57l-525 -823l-81 -471q-15 -70 -78 -70h-273q-73 0 -61 70l84 471zM674 1587l86 164q27 45 71 45h279q22 0 29 -12q8 -13 4 -29q-5 -18 -19 -29 l-174 -155q-41 -35 -90 -35h-155q-58 0 -31 51z" />
<glyph unicode="&#xde;" horiz-adv-x="1208" d="M18 70l232 1310q12 70 78 70h270q73 0 61 -70l-16 -98h84q245 0 366 -83q119 -82 119 -284q0 -81 -14 -159q-51 -294 -194 -407t-435 -113h-112l-29 -166q-12 -70 -78 -70h-270q-74 0 -62 70zM518 584h90q87 0 124 37q38 38 56 137q9 52 9 78q0 53 -29 74q-30 22 -96 22 h-90z" />
<glyph unicode="&#xdf;" horiz-adv-x="1196" d="M12 59l174 990q37 218 174 319q136 100 377 100q208 0 331 -80q124 -81 124 -219q0 -88 -51 -172q-48 -78 -102 -141q-50 -58 -50 -86q0 -22 22 -57t48 -65q26 -31 49 -91q22 -59 22 -131q0 -442 -438 -442q-97 0 -157 18t-54 61l35 191q10 61 74 61q166 -4 166 138 q0 55 -74 147t-74 154q0 69 95 164q96 96 96 167q0 82 -101 82q-70 0 -101 -37t-46 -110l-168 -961q-12 -59 -76 -59h-239q-68 0 -56 59z" />
<glyph unicode="&#xe0;" horiz-adv-x="1056" d="M8 248q0 108 34 186q35 82 89 128q56 49 140 78q86 30 173 42q93 13 201 14l8 49q11 50 -18 71q-30 22 -105 22q-106 0 -251 -45q-36 -11 -55 1q-18 11 -17 44l4 170q2 57 61 75q168 60 353 60q210 0 313 -68q102 -67 102 -211q0 -40 -10 -94l-123 -707q-12 -63 -71 -63 h-203q-62 0 -68 51l-4 45q-101 -108 -270 -108q-131 0 -206 65q-77 66 -77 195zM385 317q0 -71 74 -71q109 0 133 147l18 101q-95 -4 -160 -48t-65 -129zM420 1450q11 25 39 25h272q53 0 64 -46l32 -161q11 -51 -45 -51h-141q-55 0 -82 34l-133 156q-17 18 -6 43z" />
<glyph unicode="&#xe1;" horiz-adv-x="1056" d="M8 248q0 108 34 186q35 82 89 128q56 49 140 78q86 30 173 42q93 13 201 14l8 49q11 50 -18 71q-30 22 -105 22q-106 0 -251 -45q-36 -11 -55 1q-18 11 -17 44l4 170q2 57 61 75q168 60 353 60q210 0 313 -68q102 -67 102 -211q0 -40 -10 -94l-123 -707q-12 -63 -71 -63 h-203q-62 0 -68 51l-4 45q-101 -108 -270 -108q-131 0 -206 65q-77 66 -77 195zM385 317q0 -71 74 -71q109 0 133 147l18 101q-95 -4 -160 -48t-65 -129zM514 1231q-8 16 2 37l88 161q18 46 68 46h276q31 0 36 -25q5 -26 -17 -43l-176 -156q-37 -34 -86 -34h-156 q-28 0 -35 14z" />
<glyph unicode="&#xe2;" horiz-adv-x="1056" d="M8 248q0 108 34 186q35 82 89 128q56 49 140 78q86 30 173 42q93 13 201 14l8 49q11 50 -18 71q-30 22 -105 22q-106 0 -251 -45q-36 -11 -55 1q-18 11 -17 44l4 170q2 57 61 75q168 60 353 60q210 0 313 -68q102 -67 102 -211q0 -40 -10 -94l-123 -707q-12 -63 -71 -63 h-203q-62 0 -68 51l-4 45q-101 -108 -270 -108q-131 0 -206 65q-77 66 -77 195zM329 1237q-7 20 15 41l203 182q37 37 84 37h143q57 0 84 -37l137 -182q16 -21 5 -41t-39 -20h-123q-48 0 -74 36l-80 88l-111 -88q-36 -36 -77 -36h-131q-29 0 -36 20zM385 317q0 -71 74 -71 q109 0 133 147l18 101q-95 -4 -160 -48t-65 -129z" />
<glyph unicode="&#xe3;" horiz-adv-x="1056" d="M8 248q0 108 34 186q35 82 89 128q56 49 140 78q86 30 173 42q93 13 201 14l8 49q11 50 -18 71q-30 22 -105 22q-106 0 -251 -45q-36 -11 -55 1q-18 11 -17 44l4 170q2 57 61 75q168 60 353 60q210 0 313 -68q102 -67 102 -211q0 -40 -10 -94l-123 -707q-12 -63 -71 -63 h-203q-62 0 -68 51l-4 45q-101 -108 -270 -108q-131 0 -206 65q-77 66 -77 195zM315 1296q33 185 197 185q83 0 152 -27l71 -31q107 -41 125 6l4 11q16 37 60 37h82q60 0 45 -86q-30 -181 -193 -181q-89 0 -153 29l-74 29q-101 41 -123 -4l-4 -13q-16 -34 -60 -34h-82 q-33 0 -44 17q-11 16 -3 62zM385 317q0 -71 74 -71q109 0 133 147l18 101q-95 -4 -160 -48t-65 -129z" />
<glyph unicode="&#xe4;" horiz-adv-x="1056" d="M8 248q0 108 34 186q35 82 89 128q56 49 140 78q86 30 173 42q93 13 201 14l8 49q11 50 -18 71q-30 22 -105 22q-106 0 -251 -45q-36 -11 -55 1q-18 11 -17 44l4 170q2 57 61 75q168 60 353 60q210 0 313 -68q102 -67 102 -211q0 -40 -10 -94l-123 -707q-12 -63 -71 -63 h-203q-62 0 -68 51l-4 45q-101 -108 -270 -108q-131 0 -206 65q-77 66 -77 195zM295 1278l20 119q12 61 70 61h203q67 0 55 -61l-20 -119q-12 -61 -70 -61h-203q-67 0 -55 61zM385 317q0 -71 74 -71q109 0 133 147l18 101q-95 -4 -160 -48t-65 -129zM719 1278l20 119 q10 61 68 61h203q67 0 57 -61l-20 -119q-12 -61 -72 -61h-203q-65 0 -53 61z" />
<glyph unicode="&#xe5;" horiz-adv-x="1056" d="M8 248q0 108 34 186q35 82 89 128q56 49 140 78q86 30 173 42q93 13 201 14l8 49q11 50 -18 71q-30 22 -105 22q-106 0 -251 -45q-36 -11 -55 1q-18 11 -17 44l4 170q2 57 61 75q168 60 353 60q210 0 313 -68q102 -67 102 -211q0 -40 -10 -94l-123 -707q-12 -63 -71 -63 h-203q-62 0 -68 51l-4 45q-101 -108 -270 -108q-131 0 -206 65q-77 66 -77 195zM385 317q0 -71 74 -71q109 0 133 147l18 101q-95 -4 -160 -48t-65 -129zM463 1391q0 113 76 183q77 71 194 71q96 0 160 -55q63 -54 63 -138q0 -114 -75 -182q-78 -70 -197 -70q-95 0 -159 53 q-62 52 -62 138zM616 1409q0 -30 25 -52t57 -22q40 0 73 28q32 27 32 71q0 32 -23 53q-21 20 -59 20q-45 0 -74 -26q-31 -28 -31 -72z" />
<glyph unicode="&#xe6;" horiz-adv-x="1613" d="M10 258q0 106 36 183t89 119t145 68q86 24 169 32q78 8 196 12l12 73q8 51 -21 71q-31 22 -104 22q-108 0 -253 -45q-36 -11 -55 1q-18 11 -17 44l4 170q2 57 61 75q168 60 349 60q215 0 284 -101q123 103 303 103q190 0 292 -90t102 -267q0 -81 -17 -163l-20 -119 q-7 -36 -28 -52t-56 -16h-496q0 -12 -1 -20t-1 -17q4 -133 180 -133q101 0 226 41q34 10 54 -2q19 -11 17 -45l-4 -143q0 -54 -63 -82q-144 -57 -299 -57q-277 0 -365 151q-150 -143 -377 -143q-164 0 -253 69t-89 201zM385 317q0 -71 76 -71q109 0 137 157l10 64 q-49 -1 -79 -6t-68 -19q-40 -16 -58 -45q-18 -30 -18 -80zM1012 666h229l4 22q12 69 12 88q0 90 -88 90q-63 0 -96 -41q-32 -40 -61 -159z" />
<glyph unicode="&#xe7;" horiz-adv-x="917" d="M59 389q0 72 19 180q52 301 201 439q148 137 393 137q67 0 152 -16q82 -15 114 -35q50 -27 27 -80l-66 -180q-22 -55 -88 -37q-73 20 -121 20q-95 0 -144 -55q-51 -57 -75 -197q-14 -80 -14 -116q0 -79 36 -110q37 -32 109 -32q55 0 133 23q70 21 76 -37l2 -178 q2 -54 -55 -82q-94 -48 -250 -53q98 -67 98 -158q0 -87 -65 -128q-66 -42 -168 -42q-99 0 -135 14q-31 11 -25 43l14 84q6 31 39 31h72q32 0 55 18t23 47q0 58 -76 109q-281 66 -281 391z" />
<glyph unicode="&#xe8;" horiz-adv-x="1075" d="M53 391q0 70 19 178q53 297 194 437q140 139 385 139q201 0 304 -97q104 -98 104 -282q0 -76 -15 -156l-22 -118q-11 -70 -82 -70h-510q-2 -16 -2 -33q2 -66 48 -93q48 -28 142 -28q107 0 232 41q35 11 54 -1t18 -44l-4 -145q-1 -54 -66 -82q-130 -57 -305 -57 q-494 0 -494 411zM418 1450q11 25 39 25h272q53 0 64 -45l32 -162q11 -51 -45 -51h-141q-55 0 -82 34l-133 156q-17 18 -6 43zM459 649h241l5 23q10 59 10 92q0 102 -90 102q-65 0 -103 -47q-35 -44 -63 -170z" />
<glyph unicode="&#xe9;" horiz-adv-x="1075" d="M53 391q0 70 19 178q53 297 194 437q140 139 385 139q201 0 304 -97q104 -98 104 -282q0 -76 -15 -156l-22 -118q-11 -70 -82 -70h-510q-2 -16 -2 -33q2 -66 48 -93q48 -28 142 -28q107 0 232 41q35 11 54 -1t18 -44l-4 -145q-1 -54 -66 -82q-130 -57 -305 -57 q-494 0 -494 411zM459 649h241l5 23q10 59 10 92q0 102 -90 102q-65 0 -103 -47q-35 -44 -63 -170zM526 1231q-8 16 2 37l88 162q18 45 68 45h277q30 0 35 -25q5 -26 -17 -43l-176 -156q-37 -34 -86 -34h-156q-28 0 -35 14z" />
<glyph unicode="&#xea;" horiz-adv-x="1075" d="M53 391q0 70 19 178q53 297 194 437q140 139 385 139q201 0 304 -97q104 -98 104 -282q0 -76 -15 -156l-22 -118q-11 -70 -82 -70h-510q-2 -16 -2 -33q2 -66 48 -93q48 -28 142 -28q107 0 232 41q35 11 54 -1t18 -44l-4 -145q-1 -54 -66 -82q-130 -57 -305 -57 q-494 0 -494 411zM343 1237q-7 20 15 41l203 182q37 37 84 37h143q56 0 84 -37l138 -182q16 -21 5 -41t-40 -20h-123q-47 0 -74 36l-80 88l-110 -88q-36 -36 -78 -36h-131q-29 0 -36 20zM459 649h241l5 23q10 59 10 92q0 102 -90 102q-65 0 -103 -47q-35 -44 -63 -170z" />
<glyph unicode="&#xeb;" horiz-adv-x="1075" d="M53 391q0 70 19 178q53 297 194 437q140 139 385 139q201 0 304 -97q104 -98 104 -282q0 -76 -15 -156l-22 -118q-11 -70 -82 -70h-510q-2 -16 -2 -33q2 -66 48 -93q48 -28 142 -28q107 0 232 41q35 11 54 -1t18 -44l-4 -145q-1 -54 -66 -82q-130 -57 -305 -57 q-494 0 -494 411zM309 1278l21 119q12 61 69 61h203q67 0 55 -61l-20 -119q-12 -61 -70 -61h-202q-68 0 -56 61zM459 649h241l5 23q10 59 10 92q0 102 -90 102q-65 0 -103 -47q-35 -44 -63 -170zM733 1278l21 119q7 61 67 61h203q64 0 57 -61l-20 -119q-12 -61 -72 -61h-203 q-65 0 -53 61z" />
<glyph unicode="&#xec;" horiz-adv-x="565" d="M18 63l177 998q7 63 71 63h256q70 0 58 -63l-177 -998q-12 -63 -71 -63h-256q-70 0 -58 63zM143 1450q11 25 39 25h273q53 0 63 -45l33 -162q11 -51 -45 -51h-141q-55 0 -82 34l-133 156q-17 19 -7 43z" />
<glyph unicode="&#xed;" horiz-adv-x="565" d="M18 63l177 998q7 63 71 63h256q70 0 58 -63l-177 -998q-12 -63 -71 -63h-256q-70 0 -58 63zM293 1231q-8 16 2 37l88 162q18 45 68 45h276q31 0 36 -25t-18 -43l-176 -156q-37 -34 -86 -34h-155q-28 0 -35 14z" />
<glyph unicode="&#xee;" horiz-adv-x="565" d="M18 63l177 998q7 63 71 63h256q70 0 58 -63l-177 -998q-12 -63 -71 -63h-256q-70 0 -58 63zM85 1237q-7 20 15 41l203 182q37 37 84 37h143q56 0 84 -37l138 -182q16 -21 5 -41t-40 -20h-123q-47 0 -74 36l-80 88l-110 -88q-36 -36 -78 -36h-131q-29 0 -36 20z" />
<glyph unicode="&#xef;" horiz-adv-x="565" d="M18 63l177 998q7 63 71 63h256q70 0 58 -63l-177 -998q-12 -63 -71 -63h-256q-70 0 -58 63zM51 1278l21 119q12 61 69 61h203q67 0 55 -61l-20 -119q-12 -61 -70 -61h-203q-67 0 -55 61zM475 1278l21 119q7 61 67 61h203q64 0 57 -61l-20 -119q-12 -61 -72 -61h-203 q-65 0 -53 61z" />
<glyph unicode="&#xf0;" horiz-adv-x="1118" d="M51 379q0 69 19 174q51 294 190 431q140 138 346 138q108 0 154 -30q-6 40 -33 92h-231q-52 0 -45 49l12 72q7 49 55 49h107l-50 51q-14 14 -8 33q6 18 31 18h240q45 0 67 -31q19 -25 47 -71h174q52 0 45 -49l-12 -72q-7 -49 -55 -49h-74q68 -169 68 -367 q0 -111 -23 -254q-56 -308 -197 -445q-142 -138 -391 -138q-208 0 -322 99t-114 300zM453 410q0 -25 1 -39t1 -25q0 -42 12 -49q13 -8 57 -8q30 0 41 1q17 2 30 9q11 6 19 14q7 7 14 27q7 19 10 35q1 6 12 51q1 6 7.5 30.5t8.5 35.5q34 121 34 225q0 110 -82 110 q-73 0 -109 -87q-35 -85 -52 -240q-4 -35 -4 -90z" />
<glyph unicode="&#xf1;" horiz-adv-x="1114" d="M8 63l176 998q8 63 72 63h227q61 0 66 -51l6 -51q111 123 274 123q267 0 267 -273q0 -56 -13 -131l-118 -678q-12 -63 -72 -63h-258q-69 0 -57 63l106 609q8 53 8 65q0 68 -63 68q-56 0 -86 -40q-31 -42 -47 -122l-103 -580q-12 -63 -69 -63h-258q-70 0 -58 63zM344 1296 q33 185 197 185q82 0 151 -27l72 -31q107 -41 125 7l4 10q16 37 59 37h82q60 0 45 -86q-30 -181 -192 -181q-90 0 -154 29l-74 29q-100 40 -122 -4l-5 -13q-16 -34 -59 -34h-82q-33 0 -44 17q-11 16 -3 62z" />
<glyph unicode="&#xf2;" horiz-adv-x="1116" d="M53 387q0 -407 439 -407q245 0 388 137q141 135 197 442q17 108 17 178q0 408 -439 408q-245 0 -388 -138q-142 -138 -195 -442q-19 -108 -19 -178zM428 1450q11 25 39 25h272q53 0 64 -45l33 -162q10 -51 -45 -51h-142q-55 0 -82 34l-133 156q-17 18 -6 43zM444 397 q0 58 21 166q29 157 61 214q33 59 97 59q82 0 82 -107q0 -61 -21 -166q-27 -156 -61 -215t-97 -59q-43 0 -62 25q-20 26 -20 83z" />
<glyph unicode="&#xf3;" horiz-adv-x="1116" d="M53 387q0 -407 439 -407q245 0 388 137q141 135 197 442q17 108 17 178q0 408 -439 408q-245 0 -388 -138q-142 -138 -195 -442q-19 -108 -19 -178zM444 397q0 58 21 166q29 157 61 214q33 59 97 59q82 0 82 -107q0 -61 -21 -166q-27 -156 -61 -215t-97 -59q-43 0 -62 25 q-20 26 -20 83zM557 1231q-8 16 2 37l88 162q18 45 68 45h276q31 0 36 -25q5 -26 -17 -43l-176 -156q-37 -34 -86 -34h-156q-28 0 -35 14z" />
<glyph unicode="&#xf4;" horiz-adv-x="1116" d="M53 387q0 -407 439 -407q245 0 388 137q141 135 197 442q17 108 17 178q0 408 -439 408q-245 0 -388 -138q-142 -138 -195 -442q-19 -108 -19 -178zM359 1237q-7 20 16 41l203 182q37 37 84 37h143q56 0 84 -37l137 -182q16 -21 5 -41t-40 -20h-123q-47 0 -73 36l-80 88 l-111 -88q-36 -36 -78 -36h-131q-29 0 -36 20zM444 397q0 58 21 166q29 157 61 214q33 59 97 59q82 0 82 -107q0 -61 -21 -166q-27 -156 -61 -215t-97 -59q-43 0 -62 25q-20 26 -20 83z" />
<glyph unicode="&#xf5;" horiz-adv-x="1116" d="M53 387q0 70 19 178q53 304 195 442q143 138 388 138q439 0 439 -408q0 -70 -17 -178q-56 -307 -197 -442q-143 -137 -388 -137q-439 0 -439 407zM346 1296q35 185 197 185q82 0 151 -27l72 -31q107 -41 125 7l4 10q16 37 59 37h82q60 0 45 -86q-30 -181 -192 -181 q-90 0 -154 29l-73 29q-101 41 -123 -4l-4 -13q-16 -34 -60 -34h-82q-33 0 -44 17q-11 16 -3 62zM444 397q0 -57 20 -83q19 -25 62 -25q63 0 97 59t61 215q21 105 21 166q0 107 -82 107q-64 0 -97 -59q-32 -57 -61 -214q-21 -108 -21 -166z" />
<glyph unicode="&#xf6;" horiz-adv-x="1116" d="M53 387q0 -407 439 -407q245 0 388 137q141 135 197 442q17 108 17 178q0 408 -439 408q-245 0 -388 -138q-142 -138 -195 -442q-19 -108 -19 -178zM326 1278l20 119q12 61 70 61h202q68 0 56 -61l-21 -119q-12 -61 -69 -61h-203q-67 0 -55 61zM444 397q0 58 21 166 q29 157 61 214q33 59 97 59q82 0 82 -107q0 -61 -21 -166q-27 -156 -61 -215t-97 -59q-43 0 -62 25q-20 26 -20 83zM750 1278l20 119q10 61 68 61h202q65 0 58 -61l-21 -119q-12 -61 -71 -61h-203q-65 0 -53 61z" />
<glyph unicode="&#xf7;" d="M137 643l29 156q8 63 70 63h800q70 0 58 -63l-27 -156q-12 -65 -74 -65h-798q-70 0 -58 65zM342 203l37 211q12 65 78 65h223q73 0 63 -65l-36 -211q-12 -68 -78 -68h-228q-71 0 -59 68zM487 1028l37 209q12 68 78 68h223q76 0 64 -68l-37 -209q-12 -67 -78 -67h-227 q-72 0 -60 67z" />
<glyph unicode="&#xf8;" horiz-adv-x="1124" d="M27 37q-40 35 4 76l65 67q-39 90 -39 207q0 70 19 178q53 304 195 442t388 138q187 0 299 -80l52 53q25 25 40 28t37 -18l41 -41q21 -21 20 -35q-2 -16 -24 -40l-67 -70q41 -87 41 -205q0 -70 -17 -178q-56 -307 -197 -442q-143 -137 -388 -137q-193 0 -299 79l-50 -51 q-45 -45 -79 -12zM455 338q16 -49 75 -49q63 0 97 59t61 215q0 4 1 8t1 9zM465 547l235 239q-15 50 -73 50q-64 0 -97 -59q-32 -57 -61 -214z" />
<glyph unicode="&#xf9;" horiz-adv-x="1107" d="M45 242q0 44 10 108l127 711q8 63 72 63h258q64 0 57 -63l-110 -615q-6 -37 -6 -61q0 -70 63 -70q55 0 84 38q28 36 43 116l105 592q12 63 71 63h258q65 0 58 -63l-177 -998q-12 -63 -71 -63h-228q-61 0 -67 51l-6 51q-91 -122 -256 -122q-285 0 -285 262zM426 1450 q11 25 39 25h272q53 0 64 -45l33 -162q11 -51 -46 -51h-141q-55 0 -82 34l-133 156q-17 18 -6 43z" />
<glyph unicode="&#xfa;" horiz-adv-x="1107" d="M45 242q0 44 10 108l127 711q8 63 72 63h258q64 0 57 -63l-110 -615q-6 -37 -6 -61q0 -70 63 -70q55 0 84 38q28 36 43 116l105 592q12 63 71 63h258q65 0 58 -63l-177 -998q-12 -63 -71 -63h-228q-61 0 -67 51l-6 51q-91 -122 -256 -122q-285 0 -285 262zM553 1231 q-8 16 2 37l88 162q18 45 68 45h276q31 0 36 -25q5 -26 -17 -43l-177 -156q-37 -34 -86 -34h-155q-28 0 -35 14z" />
<glyph unicode="&#xfb;" horiz-adv-x="1107" d="M45 242q0 44 10 108l127 711q8 63 72 63h258q64 0 57 -63l-110 -615q-6 -37 -6 -61q0 -70 63 -70q55 0 84 38q28 36 43 116l105 592q12 63 71 63h258q65 0 58 -63l-177 -998q-12 -63 -71 -63h-228q-61 0 -67 51l-6 51q-91 -122 -256 -122q-285 0 -285 262zM355 1237 q-7 20 16 41l202 182q37 37 84 37h144q56 0 84 -37l137 -182q16 -21 5 -41t-40 -20h-123q-46 0 -73 36l-80 88l-111 -88q-36 -36 -78 -36h-131q-29 0 -36 20z" />
<glyph unicode="&#xfc;" horiz-adv-x="1107" d="M45 242q0 44 10 108l127 711q8 63 72 63h258q64 0 57 -63l-110 -615q-6 -37 -6 -61q0 -70 63 -70q55 0 84 38q28 36 43 116l105 592q12 63 71 63h258q65 0 58 -63l-177 -998q-12 -63 -71 -63h-228q-61 0 -67 51l-6 51q-91 -122 -256 -122q-285 0 -285 262zM322 1278 l20 119q12 61 70 61h202q68 0 56 -61l-21 -119q-12 -61 -69 -61h-203q-67 0 -55 61zM745 1278l21 119q7 61 68 61h202q65 0 58 -61l-21 -119q-12 -61 -72 -61h-202q-66 0 -54 61z" />
<glyph unicode="&#xfd;" horiz-adv-x="1050" d="M-29 -156l33 174q8 60 68 60q14 0 46 -3t54 -3q95 0 80 88l-125 891q-10 73 55 73h264q70 0 70 -63l10 -424l2 -236h9l67 236l131 424q21 63 82 63h273q33 0 45 -19q13 -20 -2 -54l-404 -957q-56 -132 -106 -198q-50 -67 -135 -101q-87 -35 -228 -35q-171 0 -244 19 q-52 16 -45 65zM526 1231q-8 16 2 37l88 161q18 46 68 46h277q30 0 35 -25q5 -26 -17 -43l-176 -156q-37 -34 -86 -34h-156q-28 0 -35 14z" />
<glyph unicode="&#xfe;" horiz-adv-x="1159" d="M-31 -162l273 1548q12 64 71 64h258q70 0 58 -64l-60 -346q41 47 109 76q69 29 139 29q322 0 322 -365q0 -100 -21 -217q-55 -306 -167 -445q-111 -138 -300 -138q-78 0 -152 28t-102 70l-41 -240q-12 -63 -71 -63h-258q-65 0 -58 63zM465 418q0 -125 92 -125 q66 0 103 59q38 61 65 211q16 81 16 150q0 65 -21 92q-20 26 -67 26q-65 0 -105 -59t-67 -209q-16 -80 -16 -145z" />
<glyph unicode="&#xff;" horiz-adv-x="1050" d="M-29 -156l33 174q8 60 68 60q14 0 46 -3t54 -3q95 0 80 88l-125 891q-10 73 55 73h264q70 0 70 -63l10 -424l2 -236h9l67 236l131 424q21 63 82 63h273q33 0 45 -19q13 -20 -2 -54l-404 -957q-56 -132 -106 -198q-50 -67 -135 -101q-87 -35 -228 -35q-171 0 -244 19 q-52 16 -45 65zM293 1278l20 119q12 61 70 61h203q67 0 55 -61l-20 -119q-12 -61 -70 -61h-203q-67 0 -55 61zM717 1278l20 119q7 61 68 61h203q64 0 57 -61l-21 -119q-12 -61 -71 -61h-203q-65 0 -53 61z" />
<glyph unicode="&#x152;" horiz-adv-x="1669" d="M98 479q0 111 27 250q69 397 237 559t488 162h846q73 0 61 -70l-39 -217q-8 -69 -78 -69h-383l-32 -187h350q73 0 61 -69l-37 -203q-12 -70 -77 -70h-357l-39 -209h387q74 0 62 -69l-39 -217q-12 -70 -78 -70h-825q-268 0 -402 113q-133 112 -133 366zM518 530 q0 -94 40 -131t128 -37h39l127 725h-35q-119 0 -179 -73q-59 -72 -97 -289q-23 -133 -23 -195z" />
<glyph unicode="&#x153;" horiz-adv-x="1669" d="M53 381q0 76 19 184q53 305 193 442q141 138 378 138q207 0 297 -105q124 105 326 105q188 0 288 -95q99 -94 99 -278q0 -78 -15 -162l-22 -118q-11 -70 -80 -70h-500q0 -10 -1 -18t-1 -15q1 -65 46 -93t139 -28q98 0 227 41q35 11 53 -1t17 -44l-5 -145q0 -54 -63 -82 q-144 -57 -301 -57q-228 0 -334 110q-132 -110 -336 -110q-424 0 -424 401zM444 393q0 -55 19 -80q18 -24 61 -24q63 0 98 59q35 58 62 215q21 102 21 164q0 109 -84 109q-62 0 -95 -59q-32 -57 -61 -214q-21 -108 -21 -170zM1065 649h231l4 23q11 64 11 92q0 102 -86 102 q-62 0 -98 -48q-35 -46 -62 -169z" />
<glyph unicode="&#x178;" horiz-adv-x="1228" d="M186 1364q-7 32 9 59t55 27h280q73 0 84 -64l52 -317l14 -184h8l78 184l164 317q34 64 96 64h289q38 0 50 -29t-9 -57l-525 -823l-81 -471q-15 -70 -78 -70h-273q-73 0 -61 70l84 471zM432 1597l21 119q12 62 69 62h205q67 0 55 -62l-20 -119q-7 -61 -70 -61h-205 q-65 0 -55 61zM866 1597l21 119q12 62 69 62h205q68 0 56 -62l-21 -119q-12 -61 -72 -61h-204q-66 0 -54 61z" />
<glyph unicode="&#x2c6;" horiz-adv-x="673" d="M138 1237q-7 20 16 41l202 182q37 37 84 37h144q56 0 84 -37l137 -182q16 -21 5 -41t-40 -20h-123q-47 0 -74 36l-79 88l-111 -88q-36 -36 -78 -36h-131q-29 0 -36 20z" />
<glyph unicode="&#x2dc;" horiz-adv-x="673" d="M123 1296q33 185 196 185q83 0 152 -27l72 -31q107 -41 125 7l4 10q16 37 59 37h82q60 0 45 -86q-30 -181 -192 -181q-90 0 -154 29l-74 29q-101 41 -123 -4l-4 -13q-16 -34 -59 -34h-82q-33 0 -44 17q-11 16 -3 62z" />
<glyph unicode="&#x2000;" horiz-adv-x="952" />
<glyph unicode="&#x2001;" horiz-adv-x="1905" />
<glyph unicode="&#x2002;" horiz-adv-x="952" />
<glyph unicode="&#x2003;" horiz-adv-x="1905" />
<glyph unicode="&#x2004;" horiz-adv-x="635" />
<glyph unicode="&#x2005;" horiz-adv-x="476" />
<glyph unicode="&#x2006;" horiz-adv-x="317" />
<glyph unicode="&#x2007;" horiz-adv-x="317" />
<glyph unicode="&#x2008;" horiz-adv-x="238" />
<glyph unicode="&#x2009;" horiz-adv-x="381" />
<glyph unicode="&#x200a;" horiz-adv-x="105" />
<glyph unicode="&#x2010;" horiz-adv-x="702" d="M68 510l32 184q12 66 72 66h451q69 0 57 -64l-33 -186q-12 -64 -72 -64h-450q-69 0 -57 64z" />
<glyph unicode="&#x2011;" horiz-adv-x="702" d="M68 510l32 184q12 66 72 66h451q69 0 57 -64l-33 -186q-12 -64 -72 -64h-450q-69 0 -57 64z" />
<glyph unicode="&#x2012;" horiz-adv-x="702" d="M68 510l32 184q12 66 72 66h451q69 0 57 -64l-33 -186q-12 -64 -72 -64h-450q-69 0 -57 64z" />
<glyph unicode="&#x2013;" horiz-adv-x="966" d="M68 510l32 184q12 66 72 66h717q65 0 57 -66l-33 -184q-12 -64 -71 -64h-717q-69 0 -57 64z" />
<glyph unicode="&#x2014;" horiz-adv-x="1394" d="M68 510l32 184q12 66 72 66h1145q65 0 57 -66l-33 -184q-12 -64 -73 -64h-1143q-69 0 -57 64z" />
<glyph unicode="&#x2018;" horiz-adv-x="514" d="M156 918l34 200q7 46 31 82l160 221q24 39 61 39h86q24 0 32 -15q7 -15 -5 -38l-121 -201h68q71 0 59 -67l-37 -221q-12 -66 -80 -66h-227q-73 0 -61 66z" />
<glyph unicode="&#x2019;" horiz-adv-x="514" d="M193 1163l40 221q10 66 76 66h228q75 0 65 -66l-37 -200q-8 -48 -30 -82l-160 -223q-27 -37 -64 -37h-86q-24 0 -30 15t6 38l118 201h-67q-71 0 -59 67z" />
<glyph unicode="&#x201a;" horiz-adv-x="514" d="M0 68l41 221q10 65 76 65h227q38 0 54.5 -16t11.5 -49l-37 -201q-7 -46 -31 -82l-160 -223q-27 -37 -63 -37h-86q-25 0 -31 16t6 37l119 201h-68q-71 0 -59 68z" />
<glyph unicode="&#x201c;" horiz-adv-x="976" d="M154 911l34 201q7 46 33 82l158 221q29 39 61 39h86q25 0 32 -16t-5 -37l-119 -201h68q71 0 59 -67l-39 -222q-12 -65 -80 -65h-227q-73 0 -61 65zM616 911l35 201q7 51 31 82l160 221q27 39 61 39h86q25 0 32 -16t-5 -37l-121 -201h68q71 0 59 -67l-37 -222 q-12 -65 -80 -65h-227q-74 0 -62 65z" />
<glyph unicode="&#x201d;" horiz-adv-x="976" d="M193 1163l40 221q10 66 76 66h228q75 0 65 -66l-37 -200q-8 -48 -30 -82l-160 -223q-27 -37 -64 -37h-86q-24 0 -30 15t6 38l118 201h-67q-71 0 -59 67zM655 1163l39 221q10 66 78 66h227q75 0 64 -66l-35 -200q-11 -54 -33 -82l-159 -223q-24 -37 -62 -37h-86 q-25 0 -31 15q-6 14 7 38l118 201h-69q-70 0 -58 67z" />
<glyph unicode="&#x201e;" horiz-adv-x="976" d="M0 68l41 221q10 65 76 65h227q38 0 54.5 -16t11.5 -49l-37 -201q-7 -46 -31 -82l-160 -223q-27 -37 -63 -37h-86q-25 0 -31 16t6 37l119 201h-68q-71 0 -59 68zM463 68l39 221q10 65 78 65h227q73 0 63 -65l-34 -201q-11 -54 -33 -82l-160 -223q-24 -37 -61 -37h-86 q-25 0 -31 16t6 37l119 201h-70q-69 0 -57 68z" />
<glyph unicode="&#x2022;" horiz-adv-x="837" d="M109 512q0 153 109 266q110 115 269 115q121 0 201 -77t80 -191q0 -149 -112 -264q-110 -113 -269 -113q-121 0 -200 75q-78 74 -78 189z" />
<glyph unicode="&#x2026;" horiz-adv-x="1538" d="M-2 68l41 233q12 68 78 68h233q76 0 64 -68l-41 -233q-12 -68 -76 -68h-240q-71 0 -59 68zM510 68l43 233q12 68 78 68h233q76 0 64 -68l-43 -233q-12 -68 -74 -68h-240q-73 0 -61 68zM1024 68l41 233q12 68 78 68h233q76 0 64 -68l-41 -233q-12 -68 -76 -68h-240 q-71 0 -59 68z" />
<glyph unicode="&#x202f;" horiz-adv-x="381" />
<glyph unicode="&#x2039;" horiz-adv-x="602" d="M72 610q4 20 12 31l192 293q30 47 80 47h217q32 0 39 -17q8 -18 -10 -46l-199 -306l93 -305q8 -29 -4 -46q-11 -17 -43 -17h-216q-57 0 -69 47l-88 293q-6 15 -4 26z" />
<glyph unicode="&#x203a;" horiz-adv-x="602" d="M39 261q-8 18 10 46l201 305l-94 306q-16 63 45 63h217q54 0 71 -47l89 -293q6 -17 2 -31q-4 -13 -11 -26l-192 -293q-30 -47 -82 -47h-217q-32 0 -39 17z" />
<glyph unicode="&#x205f;" horiz-adv-x="476" />
<glyph unicode="&#x20ac;" horiz-adv-x="1191" d="M39 545l12 76q7 49 58 49h86q0 2 6 57l12 57h-78q-53 0 -45 50l12 75q7 49 58 49h96q91 277 252 397q158 118 422 118q221 0 336 -68q57 -30 28 -86l-92 -189q-28 -66 -96 -45q-72 25 -158 25q-102 0 -164 -33q-61 -32 -100 -119h367q59 0 30 -53l-34 -76 q-23 -45 -66 -45h-352q-10 -35 -13 -57q-3 -10 -8 -57h305q25 0 34 -15t-3 -39l-37 -75q-23 -45 -65 -45h-240q10 -84 60 -117q49 -33 153 -33q89 0 166 25q75 23 82 -43l24 -189q8 -58 -59 -88q-138 -67 -317 -67q-269 0 -405 120q-138 121 -130 392h-92q-55 0 -45 49z" />
<glyph unicode="&#x2122;" horiz-adv-x="1421" d="M195 1296l18 109q7 45 49 45h422q48 0 41 -45l-18 -109q-11 -45 -52 -45h-96l-78 -436q-6 -43 -49 -43h-143q-46 0 -39 43l76 436h-93q-49 0 -38 45zM694 815l105 590q7 45 47 45h139q40 0 51 -29l80 -219l156 219q23 29 53 29h141q48 0 41 -45l-104 -590q-6 -43 -49 -43 h-137q-47 0 -41 43l53 293l-119 -162q-18 -28 -43 -28q-23 0 -33 28l-59 162l-53 -293q-6 -43 -50 -43h-137q-47 0 -41 43z" />
<glyph unicode="&#x25fc;" horiz-adv-x="1126" d="M0 0v1126h1126v-1126h-1126z" />
</font>
</defs>
</svg>
