<?xml version="1.0" standalone="no"?>
<!DOCTYPE svg PUBLIC "-//W3C//DTD SVG 1.1//EN" "http://www.w3.org/Graphics/SVG/1.1/DTD/svg11.dtd" >
<svg xmlns="http://www.w3.org/2000/svg" xmlns:xlink="http://www.w3.org/1999/xlink" version="1.1">
<metadata></metadata>
<defs>
<font id="amsipronarw-thinuploaded_file" horiz-adv-x="1044" >
<font-face units-per-em="2048" ascent="1751" descent="-297" />
<missing-glyph horiz-adv-x="520" />
<glyph unicode="&#xfb01;" horiz-adv-x="882" d="M49 1020v18q0 13 12 13h152v118q0 139 48 207t155 68q57 0 90 -10q13 -4 12 -19l-2 -14q-4 -11 -18 -10q-36 10 -80 10q-89 0 -124 -56q-36 -57 -36 -180v-114h455q12 0 12 -13v-1026q0 -12 -12 -12h-21q-12 0 -12 12v996h-422v-996q0 -12 -12 -12h-21q-12 0 -12 12v996 h-152q-12 0 -12 12zM678 1262v159q0 13 12 13h25q12 0 12 -13v-159q0 -13 -12 -13h-25q-12 0 -12 13z" />
<glyph unicode="&#xfb02;" horiz-adv-x="886" d="M49 1020v18q0 13 12 13h152v88q0 152 68 229q67 76 229 76q122 0 205 -21q14 -1 14 -18v-1393q0 -12 -12 -12h-21q-12 0 -12 12v1374q-90 15 -174 15q-144 0 -198 -65q-54 -64 -54 -201v-84h209q12 0 12 -13v-18q0 -12 -12 -12h-209v-996q0 -12 -12 -12h-21q-12 0 -12 12 v996h-152q-12 0 -12 12z" />
<glyph unicode="&#xfb03;" horiz-adv-x="1353" d="M49 1020v18q0 13 12 13h152v118q0 139 48 207t155 68q37 0 90 -10q13 -4 12 -19l-2 -14q-4 -11 -18 -10q-36 10 -80 10q-89 0 -124 -56q-36 -57 -36 -182v-112h426v118q0 140 49 207q50 68 156 68q55 0 88 -10q13 -4 12 -19l-2 -14q-4 -11 -18 -10q-36 10 -78 10 q-88 0 -125 -56t-37 -182v-112h455q12 0 12 -13v-1026q0 -12 -12 -12h-21q-12 0 -12 12v996h-422v-996q0 -12 -12 -12h-21q-12 0 -12 12v996h-426v-996q0 -12 -12 -12h-21q-12 0 -12 12v996h-152q-12 0 -12 12zM1149 1262v159q0 13 12 13h25q12 0 12 -13v-159q0 -13 -12 -13 h-25q-12 0 -12 13z" />
<glyph unicode="&#xfb04;" horiz-adv-x="1357" d="M49 1020v18q0 13 12 13h152v118q0 139 48 207t155 68q57 0 90 -10q13 -4 12 -19l-2 -12q-1 -14 -18 -12q-36 10 -80 10q-89 0 -124 -56q-36 -57 -36 -182v-112h426v88q0 152 68 229q67 76 229 76q123 0 205 -21q14 -1 14 -18v-1393q0 -12 -12 -12h-21q-12 0 -12 12v1374 q-90 15 -174 15q-144 0 -198 -65q-54 -64 -54 -201v-84h211q12 0 12 -13v-18q0 -12 -12 -12h-211v-996q0 -12 -12 -12h-21q-12 0 -12 12v996h-426v-996q0 -12 -12 -12h-21q-12 0 -12 12v996h-152q-12 0 -12 12z" />
<glyph horiz-adv-x="0" />
<glyph unicode="&#xd;" horiz-adv-x="681" />
<glyph unicode=" "  horiz-adv-x="520" />
<glyph unicode="&#x09;" horiz-adv-x="520" />
<glyph unicode="&#xa0;" horiz-adv-x="520" />
<glyph unicode="!" horiz-adv-x="442" d="M178 12v113q0 12 12 12h62q12 0 12 -12v-113q0 -12 -12 -12h-62q-12 0 -12 12zM193 1421q0 13 12 13h33q12 0 12 -13l-8 -1044q0 -12 -13 -12h-16q-12 0 -12 12z" />
<glyph unicode="&#x22;" horiz-adv-x="530" d="M123 1409q0 30 5 40q4 9 24 9q18 0 24 -10t6 -39q0 -47 -4 -131l-10 -254h-31l-10 254q-4 84 -4 131zM348 1409q0 30 5 40q5 9 26 9q16 0 22 -10q7 -12 7 -41q0 -24 -5 -129l-10 -254h-31l-10 254q-4 84 -4 131z" />
<glyph unicode="#" horiz-adv-x="1101" d="M33 459v20q0 13 12 13h197l123 458h-181q-12 0 -12 13v20q0 12 12 12h193l123 445q1 10 14 8l23 -6q10 -4 8 -15l-119 -432h399l121 445q1 10 15 8l22 -6q10 -1 8 -15l-117 -432h183q12 0 12 -12v-20q0 -13 -12 -13h-195l-127 -458h183q12 0 12 -13v-20q0 -13 -12 -13 h-195l-123 -452q-4 -11 -14 -10l-23 6q-12 2 -8 16l121 440h-400l-122 -452q-4 -12 -15 -10l-22 6q-12 2 -8 16l120 440h-184q-12 0 -12 13zM289 492h399l125 458h-399z" />
<glyph unicode="$" horiz-adv-x="917" d="M100 45l4 18q5 15 17 9q126 -47 328 -47q151 0 236 78q87 79 87 219q0 73 -24 133q-23 58 -76 106q-52 47 -95 77t-118 71q-3 2 -9 5t-9 5q-3 1 -7.5 3.5t-7.5 4.5q-73 42 -118 72q-40 27 -95 79q-53 50 -77 111q-23 59 -23 141q0 303 338 320v166q0 12 12 12h20 q13 0 13 -12v-164q140 -1 252 -41q13 -4 12 -16l-4 -19q-4 -14 -17 -8q-105 39 -250 39q-329 0 -329 -277q0 -44 10 -80q14 -49 19 -64q8 -24 40 -57q30 -31 42 -45q13 -15 60 -44q13 -8 27 -17t20.5 -13.5t9.5 -5.5q5 -3 67 -40q174 -101 231 -152q133 -121 133 -290 q0 -150 -87 -239t-236 -99v-166q0 -13 -13 -13h-20q-12 0 -12 13v162q-215 0 -338 49q-14 6 -13 16z" />
<glyph unicode="%" horiz-adv-x="1529" d="M86 1044q0 194 69 298t197 104q129 0 198 -104q68 -102 68 -298t-68 -298q-69 -103 -198 -103q-128 0 -197 103t-69 298zM133 1044q0 -356 219 -356t219 356q0 359 -219 359t-219 -359zM344 16l789 1405q7 13 20 13h23q19 0 8 -17l-787 -1405q-11 -12 -20 -12h-25 q-18 0 -8 16zM911 389q0 195 69 298q69 104 198 104q128 0 197 -104q69 -103 69 -298t-69 -298t-197 -103q-132 0 -199 103q-68 104 -68 298zM958 389q0 -358 220 -358q219 0 219 358q0 356 -219 356q-220 0 -220 -356z" />
<glyph unicode="&#x26;" horiz-adv-x="1224" d="M104 408q0 156 90 286q88 127 252 172l-43 60q-118 161 -118 278q0 113 74 180q76 68 237 68q124 0 211 -35q11 -6 10 -16l-4 -15q-4 -16 -18 -10q-111 33 -199 33q-140 0 -202 -56t-62 -149q0 -105 112 -256l537 -710q53 109 53 231q0 43 -14 127q-4 14 12 14h21 q13 0 14 -12q16 -61 16 -129q0 -145 -71 -272l139 -183q4 -4 1 -9t-9 -5h-27q-14 0 -41 33l-90 123q-139 -172 -401 -172q-227 0 -353 110q-127 111 -127 314zM154 408q0 -179 115 -279t315 -100q252 0 370 166l-481 634q-155 -40 -237 -158t-82 -263z" />
<glyph unicode="'" horiz-adv-x="305" d="M123 1409q0 30 5 40q4 9 24 9q18 0 24 -10t6 -39q0 -47 -4 -131l-10 -254h-31l-10 254q-4 84 -4 131z" />
<glyph unicode="(" horiz-adv-x="569" d="M174 606q0 243 74 460q73 215 188 372q7 10 19 10h24q12 0 6 -12q-117 -153 -189 -374q-73 -224 -73 -456q0 -231 73 -455q72 -221 189 -374q7 -13 -6 -13h-24q-11 0 -19 11q-116 158 -188 371q-74 217 -74 460z" />
<glyph unicode=")" horiz-adv-x="569" d="M84 -223q117 153 189 374q73 224 73 455q0 232 -73 456q-72 221 -189 374q-6 12 6 12h25q11 0 18 -10q117 -160 189 -372q73 -215 73 -460t-73 -460q-72 -210 -189 -371q-8 -11 -18 -11h-25q-12 0 -6 13z" />
<glyph unicode="*" horiz-adv-x="727" d="M102 997q-12 21 25 43q65 39 209 107q-182 91 -209 108q-37 21 -25 43q12 23 52 2q11 -5 194 -126q-12 192 -12 233q0 24 5 34q5 9 21 9q18 0 22 -9q5 -10 5 -34q0 -41 -12 -233q148 99 196 126q40 23 52 0q12 -24 -25 -45q-88 -49 -209 -106q173 -88 209 -109 q37 -21 25 -45q-12 -21 -52 0q-39 22 -196 127q12 -145 12 -233q0 -43 -24 -43q-17 0 -22 9q-5 10 -5 34q0 89 12 233q-158 -105 -196 -127q-41 -21 -52 2z" />
<glyph unicode="+" d="M109 717v20q0 13 14 13h377v417q0 13 12 13h20q13 0 13 -13v-417h379q12 0 12 -13v-20q0 -12 -12 -12h-379v-418q0 -13 -13 -13h-20q-12 0 -12 13v418h-379q-12 0 -12 12z" />
<glyph unicode="," horiz-adv-x="348" d="M131 12v113q0 12 12 12h62q12 0 12 -12v-111q0 -6 -2 -16l-41 -176q-2 -12 -14 -12h-10q-15 0 -11 14l31 176h-27q-12 0 -12 12z" />
<glyph unicode="-" horiz-adv-x="665" d="M90 528v19q0 12 12 12h461q12 0 12 -12v-19q0 -12 -12 -12h-461q-12 0 -12 12z" />
<glyph unicode="." horiz-adv-x="348" d="M131 12v113q0 12 12 12h62q12 0 12 -12v-113q0 -12 -12 -12h-62q-12 0 -12 12z" />
<glyph unicode="/" horiz-adv-x="665" d="M23 12l571 1411q5 11 18 11h21q15 0 10 -13l-573 -1411q-1 -10 -17 -10h-22q-14 0 -8 12z" />
<glyph unicode="0" horiz-adv-x="1103" d="M111 715q0 737 440 737q442 0 442 -737q0 -735 -442 -735q-440 0 -440 735zM160 715q0 -692 391 -692q393 0 393 690q0 694 -393 694q-391 0 -391 -692z" />
<glyph unicode="1" horiz-adv-x="673" d="M74 1161q-9 9 2 17l311 249q7 7 16 7h23q12 0 12 -13v-1409q0 -12 -12 -12h-23q-12 0 -12 12v1358l-287 -227q-8 -9 -16 2z" />
<glyph unicode="2" horiz-adv-x="1036" d="M117 12v21q0 13 10 20q88 76 181 163q67 63 182 186q113 120 175 214q68 102 116 220q50 123 50 229q0 342 -327 342q-170 0 -246 -84q-76 -83 -76 -223q0 -7 2 -45q0 -7 0.5 -16t1 -14t0.5 -7q0 -12 -12 -12h-20q-10 0 -15 12q-6 34 -6 84q0 156 91 253t282 97 q195 0 285 -105t90 -282q0 -113 -52 -241q-50 -125 -117 -226q-65 -99 -174 -217q-98 -106 -179 -182q-62 -58 -171 -154h715q12 0 12 -12v-21q0 -12 -12 -12h-774q-12 0 -12 12z" />
<glyph unicode="3" horiz-adv-x="923" d="M66 51l6 17q4 14 16 8q138 -53 297 -53q187 0 284 94t97 272q0 340 -328 340h-114q-13 0 -13 12v21q0 12 13 12h114q132 0 215 81q82 81 82 241q0 311 -340 311q-163 0 -280 -49q-15 -6 -19 8l-4 16q-2 11 10 17q130 53 293 53q389 0 389 -356q0 -148 -66 -235 q-65 -86 -163 -107q109 -16 185 -106q75 -89 75 -259q0 -203 -109 -306t-321 -103q-175 0 -307 55q-14 5 -12 16z" />
<glyph unicode="4" horiz-adv-x="1069" d="M76 383v20q0 11 6 23l672 997q5 11 16 11h27q12 0 12 -13v-1005h205q12 0 12 -13v-20q0 -12 -12 -12h-205v-359q0 -12 -12 -12h-23q-12 0 -12 12v359h-674q-12 0 -12 12zM133 416h629v934z" />
<glyph unicode="5" horiz-adv-x="950" d="M88 49l6 17q6 12 17 10q129 -53 299 -53q191 0 290 106t99 305q0 383 -342 383q-82 0 -146 -13t-101 -27q-35 -13 -44 -13t-14 4l-13 8q-10 6 -10 21q31 327 37 624q0 13 14 13h584q12 0 12 -13v-20q0 -12 -12 -12h-553q-6 -294 -35 -580q132 53 281 53q391 0 391 -428 q0 -217 -112 -337q-110 -117 -326 -117q-180 0 -310 53q-14 5 -12 16z" />
<glyph unicode="6" horiz-adv-x="1034" d="M111 698q0 754 477 754q122 0 209 -37q11 -6 10 -16l-4 -15q-1 -15 -17 -10q-80 33 -198 33q-428 0 -428 -694q0 -53 4 -144q15 137 116 235q102 99 271 99q202 0 296 -127q95 -128 95 -330q0 -211 -100 -338q-101 -128 -287 -128q-444 0 -444 718zM190 440 q0 -94 35 -187q34 -91 121 -161q86 -69 209 -69q163 0 249 117q87 119 87 306q0 185 -81 299q-82 115 -261 115q-161 0 -260 -108t-99 -312z" />
<glyph unicode="7" horiz-adv-x="923" d="M86 1401v20q0 13 12 13h723q13 0 13 -13v-20q0 -8 -11 -21q-181 -251 -335 -661q-152 -407 -160 -707q0 -12 -13 -12h-24q-12 0 -12 12q11 314 157 712q146 397 334 665h-672q-12 0 -12 12z" />
<glyph unicode="8" horiz-adv-x="1011" d="M100 340q0 159 99 261q97 100 250 144q-322 108 -322 379q0 146 97 237t282 91q184 0 281 -91q98 -92 98 -237q0 -271 -322 -379q153 -44 250 -144q98 -101 98 -261q0 -163 -105 -262q-104 -98 -300 -98t-300 98q-106 100 -106 262zM149 338q0 -142 93 -229 q92 -86 264 -86t264 86t92 229q0 152 -99 247q-100 96 -257 136q-157 -40 -257 -136q-100 -95 -100 -247zM176 1124q0 -255 330 -354q330 96 330 354q0 129 -86 206t-244 77t-244 -77t-86 -206z" />
<glyph unicode="9" horiz-adv-x="1034" d="M92 987q0 209 101 337t286 128q445 0 445 -719q0 -751 -478 -751q-127 0 -208 34q-13 6 -11 17l4 16q1 14 19 8q83 -32 196 -32q428 0 428 696q0 52 -4 143q-15 -139 -115 -236q-103 -100 -272 -100q-202 0 -296 127q-95 128 -95 332zM143 987q0 -185 81 -299 q82 -115 261 -115q161 0 260 108t99 310q0 157 -93 288q-93 130 -272 130q-162 0 -249 -117t-87 -305z" />
<glyph unicode=":" horiz-adv-x="407" d="M162 12v113q0 12 12 12h62q12 0 12 -12v-113q0 -12 -12 -12h-62q-12 0 -12 12zM162 922v112q0 13 12 13h62q12 0 12 -13v-112q0 -13 -12 -13h-62q-12 0 -12 13z" />
<glyph unicode=";" horiz-adv-x="407" d="M162 12v113q0 12 12 12h62q12 0 12 -12v-111q0 -6 -2 -16l-41 -176q-5 -12 -15 -12h-10q-14 0 -10 14l31 176h-27q-12 0 -12 12zM162 922v112q0 13 10 13h64q12 0 12 -13v-112q0 -13 -12 -13h-62q-12 0 -12 13z" />
<glyph unicode="&#x3c;" d="M139 725q0 10 8 18l670 564q11 6 19 -2l14 -19q6 -8 -2 -16l-649 -545l649 -545q8 -8 2 -16l-14 -19q-8 -8 -19 -2l-670 566q-8 8 -8 16z" />
<glyph unicode="=" d="M125 510v20q0 13 12 13h770q13 0 13 -13v-20q0 -12 -13 -12h-770q-12 0 -12 12zM125 924v20q0 12 12 12h770q13 0 13 -12v-20q0 -13 -13 -13h-770q-12 0 -12 13z" />
<glyph unicode="&#x3e;" d="M195 164q-6 8 2 16l647 545l-647 545q-8 8 -2 16l14 19q8 8 18 2l668 -564q10 -6 10 -18q0 -10 -10 -16l-668 -566q-10 -6 -18 2z" />
<glyph unicode="?" horiz-adv-x="845" d="M80 1380q-2 12 12 17q123 55 289 55q350 0 350 -324q0 -82 -33 -159q-34 -78 -78 -131q-62 -74 -92 -109q-41 -48 -77 -118q-33 -65 -33 -134v-98q0 -14 -12 -14h-23q-12 0 -12 12v100q0 75 31 141q32 68 78 123l92 111q46 56 78 126q32 72 32 150q0 135 -69 207t-232 72 q-149 0 -279 -51q-12 -6 -16 8zM350 12v113q0 12 12 12h64q12 0 12 -12v-113q0 -12 -12 -12h-64q-12 0 -12 12z" />
<glyph unicode="@" horiz-adv-x="1654" d="M137 424q0 376 198 593q198 218 544 218q352 0 496 -159q145 -160 145 -451q0 -243 -108 -396t-316 -153h-56q-25 0 -24 28l20 160q-41 -95 -115 -147q-77 -54 -173 -54q-120 0 -186 90q-64 88 -64 234q0 84 13 158q14 77 46 149q33 75 81 128q48 54 124 87t170 33 q119 0 229 -37q11 -6 10 -16l-112 -772h35q190 0 286 141q97 142 97 369q0 272 -135 421q-133 146 -465 146q-328 0 -512 -205q-185 -206 -185 -565q0 -320 159 -458t492 -138q185 0 320 47q12 6 16 -8l4 -14q2 -11 -10 -17q-129 -49 -330 -49q-355 0 -525 150 q-169 150 -169 487zM545 387q0 -128 53 -205q52 -76 154 -76q126 0 209 104q82 103 106 269l55 393q-95 27 -190 27q-84 0 -151 -29q-68 -29 -110 -77q-45 -51 -73 -116q-29 -68 -41 -138q-12 -72 -12 -152z" />
<glyph unicode="A" horiz-adv-x="1083" d="M61 14l451 1407q5 13 16 13h25q11 0 16 -13l453 -1407q1 -14 -10 -14h-25q-13 0 -14 12l-144 447h-575l-143 -447q-5 -12 -15 -12h-26q-10 0 -9 14zM266 504h551l-274 854h-4z" />
<glyph unicode="B" horiz-adv-x="1103" d="M166 12v1409q0 13 12 13h357q217 0 320 -82t103 -269q0 -154 -68 -235q-69 -82 -179 -100q288 -40 288 -361q0 -207 -115 -297q-116 -90 -362 -90h-344q-12 0 -12 12zM213 45h309q225 0 327 78q101 77 101 264q0 174 -95 255t-310 81h-332v-678zM213 768h328 q196 0 283 75t87 240q0 167 -89 236q-90 70 -290 70h-319v-621z" />
<glyph unicode="C" horiz-adv-x="970" d="M111 717q0 379 121 557t384 178q133 0 236 -47q12 -5 12 -16l-6 -17q-4 -16 -16 -10q-94 45 -226 45q-240 0 -348 -166q-108 -167 -108 -524q0 -358 109 -524t354 -166q131 0 233 45q12 6 16 -9l7 -16q1 -10 -13 -16q-98 -49 -243 -49q-265 0 -389 178q-123 176 -123 557 z" />
<glyph unicode="D" horiz-adv-x="1110" d="M166 12v1409q0 13 12 13h266q138 0 235 -33q95 -32 173 -113q75 -78 113 -222q36 -137 36 -349t-36 -349q-38 -145 -113 -223q-76 -79 -173 -112t-235 -33h-266q-12 0 -12 12zM213 45h231q124 0 215 31q87 30 157 104q69 74 102 207q32 129 32 330t-32 330 q-33 132 -102 206q-71 76 -157 105q-91 31 -215 31h-231v-1344z" />
<glyph unicode="E" horiz-adv-x="892" d="M166 12v1409q0 13 12 13h600q13 0 13 -13v-20q0 -12 -13 -12h-565v-631h549q12 0 12 -13v-20q0 -12 -12 -12h-549v-668h569q13 0 13 -12v-23q0 -10 -13 -10h-604q-12 0 -12 12z" />
<glyph unicode="F" horiz-adv-x="862" d="M166 12v1409q0 13 12 13h592q12 0 12 -15v-18q0 -12 -12 -12h-557v-631h547q12 0 12 -13v-20q0 -12 -12 -12h-547v-701q0 -12 -12 -12h-23q-12 0 -12 12z" />
<glyph unicode="G" horiz-adv-x="1083" d="M111 717q0 385 126 560t400 175q144 0 254 -49q15 -6 10 -17l-4 -16q-4 -16 -18 -10q-96 47 -244 47q-251 0 -363 -163t-112 -527q0 -366 113 -528t368 -162q154 0 256 51v647h-340q-14 0 -14 12v21q0 12 14 12h373q14 0 14 -12v-688q0 -24 -20 -31q-102 -57 -283 -57 q-276 0 -403 175t-127 560z" />
<glyph unicode="H" horiz-adv-x="1138" d="M166 12v1409q0 13 12 13h23q12 0 12 -13v-663h713v663q0 13 12 13h23q12 0 12 -13v-1409q0 -12 -12 -12h-23q-12 0 -12 12v701h-713v-701q0 -12 -12 -12h-23q-12 0 -12 12z" />
<glyph unicode="I" horiz-adv-x="399" d="M176 12v1409q0 13 12 13h23q12 0 12 -13v-1409q0 -12 -12 -12h-23q-12 0 -12 12z" />
<glyph unicode="J" horiz-adv-x="729" d="M57 55l6 17q4 14 19 8q85 -49 199 -49q129 0 185 71t56 232v1087q0 13 13 13h22q12 0 12 -13v-1089q0 -180 -69 -263t-219 -83q-121 0 -211 51q-15 6 -13 18z" />
<glyph unicode="K" horiz-adv-x="950" d="M166 12v1409q0 13 12 13h23q12 0 12 -13v-647l614 649q11 11 19 11h31q18 0 6 -17l-637 -672l653 -729q16 -16 -4 -16h-29q-12 0 -22 10l-631 707v-705q0 -12 -12 -12h-23q-12 0 -12 12z" />
<glyph unicode="L" horiz-adv-x="849" d="M166 12v1409q0 13 12 13h23q12 0 12 -13v-1376h549q12 0 12 -14v-19q0 -12 -12 -12h-584q-12 0 -12 12z" />
<glyph unicode="M" horiz-adv-x="1300" d="M166 12v1409q0 13 12 13h27q12 0 18 -11l428 -891l426 891q5 11 19 11h28q13 0 13 -13v-1409q0 -12 -13 -12h-22q-12 0 -12 12v1323l-416 -860q-7 -14 -23 -14q-15 0 -22 14l-416 860v-1323q0 -12 -12 -12h-23q-12 0 -12 12z" />
<glyph unicode="N" horiz-adv-x="1150" d="M166 12v1409q0 13 12 13h23q13 0 20 -13l717 -1327v1327q0 13 12 13h23q12 0 12 -15v-1407q0 -12 -12 -12h-23q-14 0 -20 12l-717 1327v-1327q0 -12 -12 -12h-23q-12 0 -12 12z" />
<glyph unicode="O" horiz-adv-x="1171" d="M109 717q0 380 117 556q119 179 360 179q240 0 359 -179q118 -178 118 -556t-118 -556q-119 -179 -359 -179q-241 0 -360 179q-117 176 -117 556zM158 717q0 -358 104 -523q105 -167 324 -167q218 0 323 167t105 523q0 357 -105 523q-105 167 -323 167q-219 0 -324 -167 q-104 -165 -104 -523z" />
<glyph unicode="P" horiz-adv-x="1019" d="M166 12v1409q0 13 12 13h258q264 0 373 -107t109 -371t-108 -370q-109 -107 -372 -107h-225v-467q0 -12 -12 -12h-23q-12 0 -12 12zM213 524h225q242 0 336 94t94 340q0 242 -94 336q-95 95 -336 95h-225v-865z" />
<glyph unicode="Q" horiz-adv-x="1171" d="M109 717q0 380 117 556q119 179 360 179t357 -179q117 -180 118 -556v-7q0 -361 -110 -538t-341 -188q134 -88 318 -88q18 0 30 1t27 1q23 0 23 -17v-14q0 -19 -45 -19q-260 0 -420 136q-222 15 -328 193t-106 540zM158 717q0 -358 104 -523q105 -167 324 -167 q218 0 323 167t105 523q0 357 -105 523q-105 167 -323 167q-219 0 -324 -167q-104 -165 -104 -523z" />
<glyph unicode="R" horiz-adv-x="1050" d="M166 12v1409q0 13 12 13h273q261 0 373 -101t112 -346q0 -221 -90 -323t-299 -119l373 -529q12 -16 -9 -16h-24q-15 0 -21 10l-372 533h-281v-531q0 -12 -12 -12h-23q-12 0 -12 12zM213 588h244q233 0 331 88q99 88 99 311q0 225 -99 313q-100 89 -337 89h-238v-801z" />
<glyph unicode="S" horiz-adv-x="868" d="M96 37l4 18q4 14 17 8q102 -38 270 -38q173 0 256 80q84 81 84 221q0 60 -18 113q-17 51 -41 87q-23 35 -70 73q-38 31 -79 58q-40 27 -91 56q-3 1 -7.5 3.5t-5.5 3.5t-5.5 3t-6.5 4q-21 13 -52 31.5t-41 24.5q-35 22 -79 60q-47 41 -69 76q-24 38 -41 91q-19 59 -19 120 q0 322 363 322q139 0 240 -39q14 -5 12 -16l-4 -19q-4 -14 -17 -8q-101 37 -231 37q-315 0 -315 -277q0 -62 17 -109q19 -53 36 -81q18 -30 65 -68q36 -29 73 -53l89 -53q167 -99 229 -158q115 -113 115 -282q0 -160 -96 -253t-291 -93q-168 0 -281 40q-12 6 -10 17z" />
<glyph unicode="T" horiz-adv-x="847" d="M59 1401v20q0 13 13 13h704q12 0 12 -13v-20q0 -12 -12 -12h-327v-1377q0 -12 -13 -12h-22q-13 0 -13 12v1377h-329q-13 0 -13 12z" />
<glyph unicode="U" horiz-adv-x="1122" d="M156 446v975q0 13 12 13h22q13 0 13 -13v-970q0 -225 82 -326q83 -102 276 -102t275 102q82 101 82 326v970q0 13 12 13h22q13 0 13 -13v-975q0 -237 -96 -353q-94 -113 -308 -113q-216 0 -310 113q-95 115 -95 353z" />
<glyph unicode="V" horiz-adv-x="1052" d="M70 1419q-5 15 10 15h22q13 0 15 -13l299 -981l106 -370h6l109 368l299 983q2 13 14 13h23q15 0 10 -15l-426 -1407q-5 -12 -16 -12h-29q-16 0 -18 12z" />
<glyph unicode="W" horiz-adv-x="1628" d="M82 1419q-2 15 10 15h23q11 0 16 -13l231 -960l91 -393h6l90 397l235 956q2 13 17 13h26q15 0 17 -13l233 -956l92 -397h7l90 393l231 960q2 13 14 13h25q12 0 10 -15l-340 -1407q-2 -12 -18 -12h-31q-15 0 -16 12l-250 1012l-76 326h-4l-74 -326l-250 -1012 q-1 -12 -16 -12h-31q-14 0 -18 12z" />
<glyph unicode="X" horiz-adv-x="989" d="M63 14l404 717l-387 688q-6 15 8 15h27q12 0 14 -9l365 -647l366 647q2 9 14 9h27q15 0 8 -15l-389 -688l406 -717q7 -14 -8 -14h-25q-13 0 -19 8l-380 676l-379 -676q-6 -8 -19 -8h-24q-15 0 -9 14z" />
<glyph unicode="Y" horiz-adv-x="1026" d="M72 1419q-6 15 8 15h24q11 0 17 -11l282 -579l109 -234h4l107 234l282 579q6 11 17 11h24q16 0 8 -15l-417 -860v-547q0 -12 -13 -12h-22q-13 0 -13 12v547z" />
<glyph unicode="Z" horiz-adv-x="933" d="M100 12v21q0 7 6 18l668 1338h-643q-12 0 -12 12v20q0 13 12 13h684q12 0 12 -13v-18q0 -9 -6 -21l-665 -1337h665q13 0 13 -12v-21q0 -12 -13 -12h-708q-13 0 -13 12z" />
<glyph unicode="[" horiz-adv-x="569" d="M215 -213v1634q0 13 12 13h226q12 0 12 -13v-18q0 -12 -12 -12h-193v-1573h193q12 0 12 -13v-18q0 -12 -12 -12h-226q-12 0 -12 12z" />
<glyph unicode="\" horiz-adv-x="665" d="M23 1421q-7 13 8 13h22q15 0 17 -11l573 -1411q5 -12 -10 -12h-21q-14 0 -18 10z" />
<glyph unicode="]" horiz-adv-x="569" d="M104 -195q0 13 13 13h192v1573h-192q-13 0 -13 12v18q0 13 13 13h225q12 0 12 -13v-1634q0 -12 -12 -12h-225q-13 0 -13 12v18z" />
<glyph unicode="^" d="M139 725l357 696q6 13 18 13h16q10 0 17 -13l358 -696q6 -14 -10 -14h-21q-14 0 -18 12l-334 645l-334 -645q-8 -12 -20 -12h-18q-18 0 -11 14z" />
<glyph unicode="_" horiz-adv-x="802" d="M45 -119q0 13 12 13h688q13 0 13 -13v-18q0 -13 -13 -13h-688q-12 0 -12 13v18z" />
<glyph unicode="`" horiz-adv-x="571" d="M180 1396q1 7 13 7h34q18 0 29 -17l133 -180q10 -14 -6 -14h-14q-11 0 -17 8l-168 182q-6 6 -4 14z" />
<glyph unicode="a" horiz-adv-x="894" d="M80 285q0 77 20 128q21 53 65 90q42 35 93 58q48 22 129 34q73 11 150 16q89 6 174 7v138q0 145 -59 209q-58 63 -197 63q-158 0 -287 -57q-13 -2 -14 8l-4 16q-2 11 10 17q142 59 297 59t227 -76q72 -77 72 -233v-750q0 -12 -13 -12h-20q-12 0 -12 12v191 q-30 -86 -112 -151q-80 -64 -228 -64q-141 0 -216 80t-75 217zM125 283q0 -118 61 -185t187 -67q159 0 248 98q90 99 90 248v201q-43 -2 -159 -8q-62 -3 -136 -13q-78 -10 -123 -29q-42 -17 -87 -50q-46 -33 -63 -81q-18 -49 -18 -114z" />
<glyph unicode="b" horiz-adv-x="985" d="M152 12v1409q0 13 12 13h20q13 0 13 -13v-600q35 119 119 184q86 66 210 66q365 0 365 -545q0 -263 -91 -403q-92 -141 -274 -141q-126 0 -210 65q-85 65 -119 182v-217q0 -12 -13 -12h-20q-12 0 -12 12zM195 526q0 -246 85 -373q86 -128 246 -128q318 0 318 501 q0 502 -318 502q-160 0 -246 -128q-85 -127 -85 -374z" />
<glyph unicode="c" horiz-adv-x="776" d="M94 528q0 543 383 543q117 0 207 -45q15 -6 10 -18l-4 -15q-4 -15 -16 -8q-76 43 -197 43q-174 0 -255 -125t-81 -375q0 -252 81 -376q81 -125 255 -125q127 0 203 43q12 6 16 -9l4 -16q1 -10 -10 -16q-86 -47 -215 -47q-381 0 -381 546z" />
<glyph unicode="d" horiz-adv-x="985" d="M94 526q0 545 365 545q126 0 209 -65q82 -64 120 -185v600q0 13 13 13h20q13 0 13 -13v-1409q0 -12 -13 -12h-20q-13 0 -13 12v219q-38 -119 -120 -184q-83 -65 -209 -65q-183 0 -274 141q-91 140 -91 403zM141 526q0 -501 318 -501q161 0 247 128q85 127 85 373 q0 247 -85 374q-86 128 -247 128q-318 0 -318 -502z" />
<glyph unicode="e" horiz-adv-x="890" d="M94 526q0 545 367 545q176 0 258 -133t82 -369v-55q0 -12 -13 -12h-647q5 -244 89 -361q85 -118 270 -118q135 0 239 49q11 6 15 -9l4 -14q4 -12 -13 -18q-107 -51 -245 -51q-212 0 -309 136t-97 410zM141 545h613v24q0 459 -293 459q-314 0 -320 -483z" />
<glyph unicode="f" horiz-adv-x="557" d="M49 1020v18q0 13 12 13h152v108q0 147 48 216t161 69q59 0 92 -10q13 -4 12 -19l-4 -14q-4 -11 -16 -10q-36 10 -82 10q-91 0 -129 -59q-37 -58 -37 -189v-102h238q12 0 12 -13v-18q0 -12 -12 -12h-238v-996q0 -12 -12 -12h-21q-12 0 -12 12v996h-152q-12 0 -12 12z" />
<glyph unicode="g" horiz-adv-x="946" d="M94 575q0 235 87 365q87 131 259 131q118 0 201 -63q82 -63 117 -172v202q0 13 12 13h21q12 0 12 -13v-915q0 -369 -350 -369q-150 0 -271 58q-14 7 -12 18l4 14q4 15 16 9q123 -56 261 -56q153 0 230 78q77 79 77 252v192q-34 -113 -117 -177q-82 -64 -201 -64 q-172 0 -259 131t-87 366zM141 575q0 -217 75 -335q75 -119 224 -119q152 0 235 122t83 339q0 215 -82 330q-83 116 -236 116q-149 0 -224 -119t-75 -334z" />
<glyph unicode="h" horiz-adv-x="968" d="M152 12v1409q0 13 12 13h20q13 0 13 -13v-569q34 88 115 154q80 65 216 65q150 0 225 -90q74 -89 74 -246v-723q0 -12 -12 -12h-20q-13 0 -13 12v723q0 293 -254 293q-142 0 -237 -96q-94 -95 -94 -248v-670q0 -14 -13 -14h-20q-12 0 -12 12z" />
<glyph unicode="i" horiz-adv-x="358" d="M156 1233v160q0 12 12 12h25q12 0 12 -12v-160q0 -12 -12 -12h-25q-12 0 -12 12zM158 12v1026q0 13 12 13h20q13 0 13 -13v-1026q0 -12 -13 -12h-20q-12 0 -12 12z" />
<glyph unicode="j" horiz-adv-x="370" d="M-12 -209l2 16q1 10 16 9q28 -6 57 -6q62 0 84 40q23 41 23 130v1058q0 13 12 13h21q12 0 12 -13v-1063q0 -107 -34 -157q-35 -51 -118 -51q-33 0 -63 6q-16 1 -12 18zM168 1233v160q0 12 12 12h25q12 0 12 -12v-160q0 -12 -12 -12h-25q-12 0 -12 12z" />
<glyph unicode="k" horiz-adv-x="778" d="M152 12v1409q0 13 12 13h20q13 0 13 -13v-811l460 430q11 11 23 11h29q8 0 10 -5q2 -6 -4 -12l-486 -446l504 -570q15 -18 -6 -18h-27q-12 0 -22 10l-481 553v-551q0 -12 -13 -12h-20q-12 0 -12 12z" />
<glyph unicode="l" horiz-adv-x="358" d="M158 12v1409q0 13 12 13h20q13 0 13 -13v-1409q0 -12 -13 -12h-20q-12 0 -12 12z" />
<glyph unicode="m" horiz-adv-x="1503" d="M145 12v1026q0 13 13 13h20q12 0 12 -13v-180q23 81 106 148q80 65 202 65q113 0 181 -58q69 -58 85 -163q28 90 110 155q84 66 209 66q140 0 209 -87q70 -88 70 -241v-731q0 -12 -12 -12h-21q-12 0 -12 12v731q0 285 -234 285q-130 0 -218 -91q-89 -92 -89 -235v-690 q0 -12 -12 -12h-21q-12 0 -12 12v733q0 283 -233 283q-130 0 -218 -96q-90 -98 -90 -242v-678q0 -12 -12 -12h-20q-13 0 -13 12z" />
<glyph unicode="n" horiz-adv-x="960" d="M145 12v1026q0 13 13 13h20q12 0 12 -13v-188q30 85 114 154q82 67 218 67q149 0 223 -89t74 -247v-723q0 -12 -12 -12h-21q-12 0 -12 12v723q0 293 -252 293q-143 0 -237 -98q-95 -100 -95 -246v-672q0 -12 -12 -12h-20q-13 0 -13 12z" />
<glyph unicode="o" horiz-adv-x="944" d="M94 526q0 545 379 545q377 0 377 -545q0 -544 -377 -544q-379 0 -379 544zM141 526q0 -501 332 -501q330 0 330 501q0 502 -330 502q-332 0 -332 -502z" />
<glyph unicode="p" horiz-adv-x="978" d="M145 -213v1251q0 13 13 13h20q12 0 12 -13v-217q38 120 121 185t209 65q365 0 365 -545q0 -263 -91 -403q-92 -141 -274 -141q-126 0 -209 65q-84 66 -121 182v-442q0 -12 -12 -12h-20q-13 0 -13 12zM188 526q0 -246 85 -373q86 -128 247 -128q318 0 318 501 q0 502 -318 502q-161 0 -247 -128q-85 -127 -85 -374z" />
<glyph unicode="q" horiz-adv-x="978" d="M94 526q0 545 365 545q126 0 209 -65q82 -64 120 -185v217q0 13 13 13h20q13 0 13 -13v-1251q0 -12 -13 -12h-20q-13 0 -13 12v444q-38 -119 -120 -183q-84 -66 -209 -66q-183 0 -274 141q-91 140 -91 403zM141 526q0 -501 318 -501q161 0 247 128q85 127 85 373 q0 247 -85 374q-86 128 -247 128q-318 0 -318 -502z" />
<glyph unicode="r" horiz-adv-x="571" d="M145 12v1026q0 13 13 13h20q12 0 12 -13v-225q22 93 107 172q84 78 203 78q18 0 18 -14v-19q0 -14 -12 -14q-7 0 -13 1t-14 1q-111 0 -200 -112t-89 -265v-629q0 -12 -12 -12h-20q-13 0 -13 12z" />
<glyph unicode="s" horiz-adv-x="753" d="M80 45l4 14q4 15 16 9q116 -43 256 -43q271 0 271 235q0 28 -6 54q-5 22 -14 45q-8 22 -27 39q-14 13 -32 31q-12 12 -42 30q-13 8 -44 25q-14 8 -54 27q-12 6 -23.5 11.5t-21 10.5t-11.5 6q-42 22 -84 43q-11 5 -66 41q-46 29 -64 54q-17 23 -34 64q-16 39 -16 88 q0 242 295 242q129 0 225 -39q14 -6 13 -16l-5 -15q-1 -14 -16 -10q-90 37 -217 37q-250 0 -250 -199q0 -22 4 -39q7 -32 8 -34q5 -16 16 -30q7 -9 17 -26q3 -6 25 -24q6 -5 26 -21q2 -2 6.5 -4.5t12.5 -7t14 -8.5q24 -15 34 -20q1 -1 14 -7t25 -12q26 -13 40 -21 q10 -6 56 -28l26 -13t20.5 -10.5t10.5 -5.5l48 -28q34 -20 47 -33q3 -3 14 -15t20 -21q23 -23 31 -45q11 -30 16 -51q8 -32 8 -65q0 -131 -80 -205q-79 -73 -236 -73q-150 0 -264 45q-14 5 -12 18z" />
<glyph unicode="t" horiz-adv-x="583" d="M39 1020v18q0 13 12 13h150v282q0 13 12 13h20q13 0 13 -13v-282h254q12 0 12 -13v-18q0 -12 -12 -12h-254v-746q0 -133 36 -181t130 -48q53 0 90 8q13 2 14 -8l4 -15q4 -14 -12 -18q-36 -10 -98 -10q-111 0 -160 58t-49 210v750h-150q-12 0 -12 12z" />
<glyph unicode="u" horiz-adv-x="948" d="M139 334v704q0 13 13 13h20q12 0 12 -13v-704q0 -309 262 -309q140 0 227 100q87 101 87 248v665q0 13 12 13h21q12 0 12 -13v-1026q0 -12 -12 -12h-21q-12 0 -12 12v191q-28 -87 -106 -154q-79 -67 -210 -67q-152 0 -229 92q-76 91 -76 260z" />
<glyph unicode="v" horiz-adv-x="800" d="M57 1036q-1 15 11 15h22q9 0 14 -11l205 -678l88 -290h4l91 290l202 678q5 11 17 11h22q11 0 10 -15l-317 -1024q-4 -12 -14 -12h-23q-11 0 -16 12z" />
<glyph unicode="w" horiz-adv-x="1282" d="M76 1036q-2 15 10 15h20q12 0 17 -11l190 -766l47 -206h5l49 206l198 766q2 11 15 11h26q13 0 15 -11l198 -766l47 -206h5l47 206l194 766q5 11 15 11h22q12 0 10 -15l-264 -1024q-4 -12 -14 -12h-23q-11 0 -16 12l-197 744l-49 223h-4l-51 -223l-199 -744 q-5 -12 -14 -12h-23q-12 0 -16 12z" />
<glyph unicode="x" horiz-adv-x="811" d="M59 16l320 519l-309 499q-8 17 8 17h24q8 0 15 -9l289 -469l286 469q9 9 17 9h24q18 0 6 -17l-309 -499l320 -519q12 -16 -7 -16h-24q-9 0 -17 8l-296 488l-300 -488q-5 -8 -14 -8h-24q-16 0 -9 16z" />
<glyph unicode="y" horiz-adv-x="811" d="M63 1036q-6 15 9 15h24q10 0 15 -11l213 -678l92 -288h4l84 288l198 678q5 11 17 11h22q13 0 11 -15l-308 -1028q-38 -130 -88 -186q-52 -58 -145 -58q-59 0 -102 15q-14 4 -13 18l4 15q1 10 17 8q47 -13 94 -13q94 0 143 85q36 62 36 110q0 17 -5 33z" />
<glyph unicode="z" horiz-adv-x="811" d="M94 12v15q0 9 4 16l551 965h-530q-13 0 -13 12v18q0 13 13 13h573q13 0 13 -13v-16q0 -4 -7 -16l-551 -963h555q13 0 13 -12v-19q0 -12 -13 -12h-596q-12 0 -12 12z" />
<glyph unicode="{" horiz-adv-x="569" d="M94 594v20q0 13 12 13h25q68 0 95 102q28 106 28 338q0 203 34 284q35 83 146 83h55q13 0 13 -13v-18q0 -12 -13 -12h-53q-85 0 -111 -71q-26 -72 -26 -253q0 -238 -28 -344q-27 -103 -87 -119q60 -16 87 -119q28 -106 28 -344q0 -181 26 -253q25 -70 111 -70h53 q13 0 13 -13v-18q0 -12 -13 -12h-55q-111 0 -146 83q-34 81 -34 283q0 232 -28 338q-27 103 -95 103h-25q-12 0 -12 12z" />
<glyph unicode="|" horiz-adv-x="475" d="M215 -213v1673q0 13 12 13h21q12 0 12 -13v-1673q0 -12 -12 -12h-21q-12 0 -12 12z" />
<glyph unicode="}" horiz-adv-x="569" d="M68 -195q0 13 12 13h53q87 0 112 70q25 69 25 253q0 238 28 344q27 103 87 119q-60 16 -87 119q-28 106 -28 344q0 184 -25 253q-26 71 -112 71h-53q-12 0 -12 12v18q0 13 12 13h55q112 0 147 -83q33 -79 33 -284q0 -232 28 -338q27 -102 95 -102h25q12 0 12 -13v-20 q0 -12 -12 -12h-25q-68 0 -95 -103q-28 -106 -28 -338q0 -204 -33 -283q-35 -83 -147 -83h-55q-12 0 -12 12v18z" />
<glyph unicode="~" d="M147 674q43 143 166 143q55 0 172 -45l97 -37q120 -43 153 -43q62 0 101 60q11 15 22 51q4 13 19 6l16 -8q8 -7 4 -17q-43 -143 -164 -143q-59 0 -176 45l-100 39q-97 41 -148 41q-63 0 -100 -59q-12 -17 -23 -52q-4 -13 -18 -6l-16 8q-9 7 -5 17z" />
<glyph unicode="&#xa1;" horiz-adv-x="438" d="M176 926v112q0 13 12 13h62q12 0 12 -13v-112q0 -13 -12 -13h-62q-12 0 -12 13zM190 -213l9 887q0 12 12 12h16q13 0 13 -12l8 -887q0 -12 -12 -12h-33q-13 0 -13 12z" />
<glyph unicode="&#xa2;" horiz-adv-x="813" d="M96 526q0 524 369 545v162q0 12 12 12h23q12 0 12 -12v-162q111 -1 201 -47q17 -6 12 -18l-4 -15q-4 -15 -16 -8q-83 45 -207 45q-184 0 -270 -126q-85 -125 -85 -376q0 -250 84 -375q84 -124 269 -124q135 0 213 45q14 5 18 -9l4 -16q2 -11 -12 -16q-79 -43 -207 -49 v-164q0 -13 -12 -13h-23q-12 0 -12 13v166q-369 18 -369 542z" />
<glyph unicode="&#xa3;" horiz-adv-x="1099" d="M94 18q-5 12 6 17q269 137 269 395q0 108 -74 283h-180q-13 0 -13 12v18q0 13 13 13h159q-84 215 -84 344q0 155 101 254q99 98 295 98q187 0 275 -88q89 -89 89 -229q0 -74 -18 -74h-19q-14 0 -14 14q2 28 2 60q0 122 -77 197q-76 75 -236 75q-171 0 -260 -86 q-88 -85 -88 -223q0 -126 88 -342h370q13 0 13 -13v-18q0 -12 -13 -12h-352q72 -179 72 -287q0 -109 -54 -209q-54 -101 -159 -158q100 35 174 35t201 -31q123 -30 196 -30q58 0 95 22q38 23 56 66q17 42 22 86q5 48 5 104q0 15 13 15h22q15 0 15 -15q0 -61 -9 -120 q-8 -51 -30 -100q-23 -50 -72 -77q-48 -26 -123 -26q-82 0 -195 30q-116 31 -198 31q-145 0 -252 -55q-15 -6 -21 4z" />
<glyph unicode="&#xa4;" horiz-adv-x="1101" d="M131 172q-7 8 0 18l117 119q-68 101 -68 271q0 167 68 270l-117 119q-7 11 0 18l14 14q11 11 19 0l110 -112q99 121 277 121q179 0 274 -123l115 114q8 7 18 0l15 -14q7 -7 0 -18l-119 -121q68 -107 68 -268q0 -162 -68 -269l119 -121q6 -10 0 -18l-15 -14q-10 -8 -18 0 l-115 112q-90 -120 -274 -120q-182 0 -277 120l-110 -112q-8 -11 -19 0zM223 580q0 -188 86 -289t242 -101q155 0 241 101q85 100 85 289q0 188 -85 288q-86 101 -241 101q-156 0 -242 -101t-86 -288z" />
<glyph unicode="&#xa5;" horiz-adv-x="1067" d="M68 1419q-6 15 8 15h24q11 0 17 -11l415 -843h3l415 843q5 11 17 11h22q17 0 10 -15l-331 -663h262q12 0 12 -13v-18q0 -12 -12 -12h-283l-90 -185v-61h373q12 0 12 -12v-19q0 -12 -12 -12h-373v-412q0 -12 -12 -12h-23q-12 0 -12 12v412h-373q-12 0 -12 12v19 q0 12 12 12h373v61l-90 185h-283q-12 0 -12 12v18q0 13 12 13h260z" />
<glyph unicode="&#xa6;" horiz-adv-x="475" d="M215 -213v649q0 13 12 13h21q12 0 12 -13v-649q0 -12 -12 -12h-21q-12 0 -12 12zM215 811v649q0 13 12 13h21q12 0 12 -13v-649q0 -12 -12 -12h-21q-12 0 -12 12z" />
<glyph unicode="&#xa7;" horiz-adv-x="1179" d="M205 643q0 106 80 184q79 77 215 88q-110 61 -170 124t-60 157q0 124 80 189t269 65q164 0 284 -37q15 -6 15 -18v-13q0 -15 -17 -10q-131 35 -282 35q-169 0 -236 -52q-68 -53 -68 -159q0 -93 76 -154q78 -63 248 -147q77 -37 128 -67q46 -27 99 -67q56 -43 80 -90 q25 -50 25 -108q0 -95 -81 -168t-216 -90q241 -124 241 -285q0 -253 -370 -253q-193 0 -275 30q-14 6 -14 21v12q0 14 16 10q114 -33 273 -33q325 0 325 213q0 27 -9 54q-8 25 -21 47q-11 19 -39 44q-29 26 -44 37q-16 12 -56 36q-37 22 -54 30q-1 0 -60 31q-29 15 -57 29 q-89 44 -108 54q-41 22 -85 50q-53 34 -74 60q-25 32 -40 66q-18 40 -18 85zM250 639q0 -90 77 -147q80 -60 253 -138q32 -14 36 -16q133 5 221 73q89 69 89 156q0 42 -23 82t-49 66q-26 27 -85 61q-58 34 -95 52q-7 4 -46 22.5t-69 32.5q-137 0 -223 -71t-86 -173z" />
<glyph unicode="&#xa8;" horiz-adv-x="571" d="M115 1204v111q0 12 12 12h31q12 0 12 -12v-111q0 -12 -12 -12h-31q-12 0 -12 12zM401 1204v111q0 12 13 12h30q13 0 13 -12v-111q0 -12 -13 -12h-30q-13 0 -13 12z" />
<glyph unicode="&#xa9;" horiz-adv-x="1513" d="M129 717q0 151 36 281q36 132 109 234q74 104 198 162q123 58 286 58q162 0 285 -58q125 -59 197 -162q74 -106 109 -234q35 -127 35 -281q0 -155 -35 -282q-35 -126 -109 -233q-72 -103 -197 -162q-123 -58 -285 -58q-163 0 -286 58q-124 58 -198 162q-73 103 -109 233 q-36 131 -36 282zM174 717q0 -143 33 -264t99 -220q64 -96 182 -153q114 -55 270 -55q155 0 268 55q117 57 181 153q68 102 100 220t32 264t-32 264q-32 116 -100 219q-65 98 -181 154q-113 55 -268 55q-156 0 -270 -55q-117 -56 -182 -154q-67 -100 -99 -219 q-33 -121 -33 -264zM469 719q0 426 322 426q78 0 174 -35q10 -1 10 -14l-4 -17q-2 -13 -15 -8q-64 31 -163 31q-141 0 -209 -93q-68 -94 -68 -290q0 -385 275 -385q71 0 170 33q12 2 14 -7l4 -18q0 -8 -8 -14q-79 -35 -180 -35q-322 0 -322 426z" />
<glyph unicode="&#xaa;" horiz-adv-x="761" d="M72 1225q0 73 27 126q26 51 70 82q40 28 117 47q72 17 142 22q87 6 172 7v111q0 118 -49 168q-50 51 -164 51q-126 0 -240 -47q-14 -6 -14 6l-4 17q-2 12 10 18q112 47 250 47q254 0 254 -256v-610q0 -15 -14 -15h-15q-14 0 -14 15v145q-72 -170 -281 -170 q-118 0 -183 65q-64 64 -64 171zM115 1225q0 -90 52 -142q53 -53 155 -53q130 0 204 80t74 201v159q-16 0 -115 -4q-32 -1 -100 -8q-61 -6 -92 -16q-36 -12 -72 -28q-38 -18 -59 -43t-34 -62q-13 -36 -13 -84z" />
<glyph unicode="&#xab;" horiz-adv-x="610" d="M82 528q0 3 2 9l139 268q4 10 15 10h24q18 0 8 -14l-141 -273l141 -272q7 -14 -8 -14h-24q-11 0 -15 10l-139 268q-2 6 -2 8zM313 528q0 3 2 9l140 268q4 10 14 10h25q18 0 8 -14l-142 -275l142 -270q6 -14 -8 -14h-25q-10 0 -14 10l-140 268q-2 6 -2 8z" />
<glyph unicode="&#xac;" d="M123 717v18q0 13 12 13h725q12 0 12 -13v-362q0 -13 -12 -13h-20q-13 0 -13 13v332h-692q-12 0 -12 12z" />
<glyph unicode="&#xad;" horiz-adv-x="665" d="M90 528v19q0 12 12 12h461q12 0 12 -12v-19q0 -12 -12 -12h-461q-12 0 -12 12z" />
<glyph unicode="&#xae;" horiz-adv-x="854" d="M98 1092q0 154 87 257t243 103q154 0 241 -103t87 -257t-87 -257q-87 -104 -241 -104q-156 0 -243 104q-87 103 -87 257zM137 1092q0 -137 76 -229q77 -93 215 -93q136 0 213 93q76 92 76 229q0 136 -76 228q-77 93 -213 93q-138 0 -215 -93q-76 -92 -76 -228zM315 905 v383q0 10 11 10h100q152 0 152 -127q0 -113 -107 -124l96 -138q6 -14 -6 -14h-24q-9 0 -15 10l-94 139h-72v-139q0 -10 -10 -10h-20q-11 0 -11 10zM356 1081h68q63 0 87 21t24 69q0 49 -24 69q-25 20 -85 20h-70v-179z" />
<glyph unicode="&#xaf;" horiz-adv-x="571" d="M72 1223v16q0 12 12 12h403q13 0 13 -12v-16q0 -13 -13 -13h-403q-12 0 -12 13z" />
<glyph unicode="&#xb0;" horiz-adv-x="628" d="M84 1208q0 112 62 180t169 68t169 -68q63 -69 63 -180t-63 -180q-64 -70 -169 -70t-169 70q-62 68 -62 180zM129 1208q0 -92 50 -150q49 -57 136 -57t136 57q49 56 49 150q0 92 -50 150q-50 57 -135 57q-87 0 -136 -57q-50 -58 -50 -150z" />
<glyph unicode="&#xb1;" d="M109 12v21q0 12 12 12h803q12 0 12 -12v-21q0 -12 -12 -12h-803q-12 0 -12 12zM109 717v20q0 13 12 13h379v417q0 13 12 13h20q13 0 13 -13v-417h379q12 0 12 -13v-20q0 -12 -12 -12h-379v-418q0 -13 -13 -13h-20q-12 0 -12 13v418h-379q-12 0 -12 12z" />
<glyph unicode="&#xb2;" horiz-adv-x="677" d="M84 1014v14q0 13 8 19q93 81 136 123q51 50 131 139q79 88 118 171q41 87 41 162q0 199 -190 199q-193 0 -193 -176l6 -49q0 -14 -12 -14h-18q-13 0 -15 12q-6 16 -6 53q0 94 57 154q56 59 181 59q235 0 235 -238q0 -84 -39 -171q-41 -91 -114 -173q-76 -86 -126 -135 q-46 -46 -134 -123h417q15 0 15 -12v-14q0 -15 -15 -15h-469q-14 0 -14 15z" />
<glyph unicode="&#xb3;" horiz-adv-x="677" d="M82 1036l4 17q0 14 14 8q78 -33 185 -33q235 0 235 209q0 199 -205 199h-71q-15 0 -15 12v14q0 13 15 13h71q82 0 132 47q51 48 51 141q0 176 -209 176q-88 0 -170 -31q-14 -6 -19 7l-2 16q-4 10 8 16q60 33 183 33q254 0 254 -217q0 -163 -129 -207q64 -12 107 -66 q44 -55 44 -153q0 -250 -280 -250q-114 0 -193 35q-11 4 -10 14z" />
<glyph unicode="&#xb4;" horiz-adv-x="571" d="M182 1206l133 180q12 17 29 17h35q23 0 8 -21l-166 -182q-8 -8 -18 -8h-15q-16 0 -6 14z" />
<glyph unicode="&#xb5;" horiz-adv-x="950" d="M145 -213v1251q0 13 13 13h20q12 0 12 -13v-667q0 -146 88 -248q87 -100 226 -100q260 0 260 309v706q0 13 12 13h21q12 0 12 -13v-706q0 -169 -76 -260q-77 -92 -229 -92q-131 0 -210 67q-80 68 -104 154v-414q0 -12 -12 -12h-20q-13 0 -13 12z" />
<glyph unicode="&#xb6;" horiz-adv-x="858" d="M98 1034q0 192 110 296t300 104h289q12 0 12 -13v-18q0 -12 -12 -12h-72q-61 0 -85 -29q-24 -28 -24 -98v-1291q0 -109 -41 -158q-41 -48 -139 -48q-53 0 -86 10q-16 4 -12 16l4 17q1 10 14 8q43 -8 80 -8q74 0 104 37q29 36 29 130v658h-55q-187 0 -301 105 q-115 106 -115 294z" />
<glyph unicode="&#xb7;" horiz-adv-x="348" d="M131 469v113q0 12 12 12h62q12 0 12 -12v-113q0 -12 -12 -12h-62q-12 0 -12 12z" />
<glyph unicode="&#xb8;" horiz-adv-x="571" d="M236 18h49q72 -34 115 -86q42 -51 42 -104q0 -109 -139 -109q-30 0 -49 7q-10 4 -10 14v14q0 10 12 10h43q96 0 96 68q0 106 -159 186z" />
<glyph unicode="&#xb9;" horiz-adv-x="677" d="M135 1649q-10 10 2 18l225 195q6 6 17 6h14q15 0 15 -15v-839q0 -15 -15 -15h-14q-14 0 -14 15v788l-197 -168q-9 -9 -21 2z" />
<glyph unicode="&#xba;" horiz-adv-x="786" d="M78 1434q0 446 315 446q318 0 318 -446q0 -447 -318 -447q-315 0 -315 447zM123 1434q0 -408 270 -408q273 0 273 408q0 407 -271 407q-272 0 -272 -407z" />
<glyph unicode="&#xbb;" horiz-adv-x="610" d="M109 256l141 272l-141 273q-10 14 8 14h24q11 0 15 -10l139 -268q2 -6 2 -9q0 -2 -2 -8l-139 -268q-4 -10 -15 -10h-24q-14 0 -8 14zM342 256l139 272l-139 273q-10 14 8 14h23q10 0 16 -10l137 -268q2 -6 2 -9q0 -2 -2 -8l-137 -268q-6 -10 -16 -10h-23q-14 0 -8 14z " />
<glyph unicode="&#xbc;" horiz-adv-x="1630" d="M135 1214q-11 11 2 19l225 194q7 7 17 7h14q15 0 15 -15v-839q0 -15 -15 -15h-14q-14 0 -14 15v788l-197 -168q-9 -9 -21 2zM426 16l786 1405q8 13 21 13h24q20 0 9 -17l-789 -1405q-6 -12 -20 -12h-23q-18 0 -8 16zM999 227v19q0 7 9 20l409 592q6 10 19 10h16 q14 0 14 -14v-598h121q15 0 15 -14v-15q0 -12 -15 -12h-121v-201q0 -14 -14 -14h-14q-15 0 -15 14v201h-409q-15 0 -15 12zM1053 256h370v535z" />
<glyph unicode="&#xbd;" horiz-adv-x="1630" d="M135 1214q-11 11 2 19l225 194q7 7 17 7h14q15 0 15 -15v-839q0 -15 -15 -15h-14q-14 0 -14 15v788l-197 -168q-9 -9 -21 2zM344 16l786 1405q8 13 21 13h25q19 0 8 -17l-789 -1405q-6 -12 -20 -12h-23q-18 0 -8 16zM1036 14q0 -14 15 -14h469q14 0 14 14v15q0 12 -14 12 h-418q88 77 134 123q50 50 126 135q75 84 115 173q39 87 39 171q0 238 -236 238q-123 0 -180 -60q-58 -61 -58 -153q0 -35 7 -54q1 -12 14 -12h18q13 0 13 14l-4 19q0 7 -1.5 17t-1.5 14q0 176 193 176q190 0 190 -199q0 -79 -40 -163q-39 -83 -118 -171q-73 -82 -131 -138 q-45 -43 -137 -124q-8 -6 -8 -18v-15z" />
<glyph unicode="&#xbe;" horiz-adv-x="1630" d="M82 602l4 16q0 15 14 9q78 -33 185 -33q235 0 235 209q0 198 -205 198h-71q-15 0 -15 13v14q0 12 15 12h71q82 0 132 47q51 48 51 142q0 176 -209 176q-88 0 -170 -31q-15 -6 -19 6l-2 17q-4 10 8 16q60 33 183 33q254 0 254 -217q0 -163 -129 -207q63 -12 107 -67 t44 -152q0 -250 -280 -250q-114 0 -193 35q-11 4 -10 14zM457 16l786 1405q11 13 21 13h24q19 0 8 -17l-788 -1405q-6 -12 -21 -12h-22q-18 0 -8 16zM999 227v19q0 7 9 20l409 592q6 10 19 10h16q14 0 14 -14v-598h121q15 0 15 -14v-15q0 -12 -15 -12h-121v-201 q0 -14 -14 -14h-14q-15 0 -15 14v201h-409q-15 0 -15 12zM1053 256h370v535z" />
<glyph unicode="&#xbf;" horiz-adv-x="790" d="M115 47q0 -146 76 -215q78 -70 243 -70q139 0 260 52q12 6 11 16l-5 14q-4 16 -18 11q-118 -48 -248 -48q-139 0 -205 57q-65 56 -65 181q0 71 45 143q44 71 98 123q55 54 99 131q45 80 45 166v66q0 12 -13 12h-22q-13 0 -13 -12v-66q0 -68 -29 -126q-31 -61 -73 -108 q-15 -17 -43.5 -49t-41.5 -46q-41 -46 -72 -107q-29 -58 -29 -125zM385 926v112q0 13 12 13h62q12 0 12 -13v-112q0 -13 -12 -13h-62q-12 0 -12 13z" />
<glyph unicode="&#xc0;" horiz-adv-x="1083" d="M61 14l451 1407q5 13 16 13h25q11 0 16 -13l453 -1407q1 -14 -10 -14h-25q-13 0 -14 12l-144 447h-575l-143 -447q-5 -12 -15 -12h-26q-10 0 -9 14zM266 504h551l-274 854h-4zM340 1722q-16 19 8 19h35q18 0 29 -17l129 -168q10 -14 -6 -14h-15q-10 0 -18 8z" />
<glyph unicode="&#xc1;" horiz-adv-x="1083" d="M61 14l451 1407q5 13 16 13h25q11 0 16 -13l453 -1407q1 -14 -10 -14h-25q-13 0 -14 12l-144 447h-575l-143 -447q-5 -12 -15 -12h-26q-10 0 -9 14zM266 504h551l-274 854h-4zM543 1556l129 168q12 17 28 17h35q24 0 8 -19l-161 -172q-6 -8 -19 -8h-14q-16 0 -6 14z" />
<glyph unicode="&#xc2;" horiz-adv-x="1083" d="M61 14l451 1407q5 13 16 13h25q11 0 16 -13l453 -1407q1 -14 -10 -14h-25q-13 0 -14 12l-144 447h-575l-143 -447q-5 -12 -15 -12h-26q-10 0 -9 14zM266 504h551l-274 854h-4zM342 1554l162 175q14 14 26 14h25q15 0 25 -14l161 -175q8 -12 -8 -12h-18q-11 0 -19 8 l-153 148l-156 -148q-8 -8 -18 -8h-19q-16 0 -8 12z" />
<glyph unicode="&#xc3;" horiz-adv-x="1083" d="M61 14l451 1407q5 13 16 13h25q11 0 16 -13l453 -1407q1 -14 -10 -14h-25q-13 0 -14 12l-144 447h-575l-143 -447q-5 -12 -15 -12h-26q-10 0 -9 14zM266 504h551l-274 854h-4zM299 1554q0 55 31 91q30 34 82 34q43 0 116 -41l50 -30q47 -29 92 -29q62 0 69 55l2 19 q1 18 19 18h10q14 0 14 -16q0 -55 -30 -89t-82 -34q-48 0 -115 41l-55 33q-44 28 -84 28q-62 0 -72 -55l-4 -23q-2 -18 -18 -18h-11q-14 0 -14 16z" />
<glyph unicode="&#xc4;" horiz-adv-x="1083" d="M61 14l451 1407q5 13 16 13h25q11 0 16 -13l453 -1407q1 -14 -10 -14h-25q-13 0 -14 12l-144 447h-575l-143 -447q-5 -12 -15 -12h-26q-10 0 -9 14zM266 504h551l-274 854h-4zM367 1554v107q0 12 12 12h33q12 0 12 -12v-107q0 -12 -12 -12h-33q-12 0 -12 12zM659 1554 v107q0 12 13 12h33q12 0 12 -12v-107q0 -12 -12 -12h-33q-13 0 -13 12z" />
<glyph unicode="&#xc5;" horiz-adv-x="1083" d="M61 14l443 1381q-63 10 -97 52q-34 41 -34 105q0 72 45 116q46 44 125 44q77 0 123 -44q45 -43 45 -116q0 -62 -35 -105q-34 -41 -98 -52l444 -1381q1 -14 -10 -14h-25q-13 0 -14 12l-144 447h-575l-143 -447q-5 -12 -15 -12h-26q-10 0 -9 14zM266 504h551l-274 854h-4z M416 1552q0 -56 34 -87t93 -31h10q55 1 85 33q30 31 30 85q0 119 -125 119q-57 0 -93 -31q-34 -30 -34 -88z" />
<glyph unicode="&#xc6;" horiz-adv-x="1390" d="M37 14l573 1407q6 13 19 13h647q12 0 12 -13v-20q0 -12 -12 -12h-516v-631h500q12 0 12 -13v-20q0 -12 -12 -12h-500v-668h520q12 0 12 -12v-21q0 -12 -12 -12h-555q-12 0 -12 12v428h-455l-172 -428q-4 -12 -14 -12h-27q-14 0 -8 14zM276 485h437v904h-66z" />
<glyph unicode="&#xc7;" horiz-adv-x="970" d="M111 717q0 379 121 557t384 178q133 0 236 -47q12 -5 12 -16l-6 -17q-4 -16 -16 -10q-94 45 -226 45q-240 0 -348 -166q-108 -167 -108 -524q0 -358 109 -524t354 -166q131 0 233 45q12 6 16 -9l7 -16q1 -10 -13 -16q-98 -49 -243 -49q-14 0 -25 1t-23 1 q103 -70 103 -162q0 -115 -148 -115q-46 0 -55 4q-10 6 -10 17v14q0 10 12 10h49q105 0 105 72q0 93 -115 166q-208 33 -307 210q-98 175 -98 517z" />
<glyph unicode="&#xc8;" horiz-adv-x="892" d="M166 12v1409q0 13 12 13h600q13 0 13 -13v-20q0 -12 -13 -12h-565v-631h549q12 0 12 -13v-20q0 -12 -12 -12h-549v-668h569q13 0 13 -12v-23q0 -10 -13 -10h-604q-12 0 -12 12zM346 1722q-16 19 8 19h35q18 0 29 -17l129 -168q10 -14 -6 -14h-15q-10 0 -18 8z" />
<glyph unicode="&#xc9;" horiz-adv-x="892" d="M166 12v1409q0 13 12 13h600q13 0 13 -13v-20q0 -12 -13 -12h-565v-631h549q12 0 12 -13v-20q0 -12 -12 -12h-549v-668h569q13 0 13 -12v-23q0 -10 -13 -10h-604q-12 0 -12 12zM446 1556l129 168q12 17 29 17h35q24 0 8 -19l-162 -172q-6 -8 -18 -8h-14q-17 0 -7 14z" />
<glyph unicode="&#xca;" horiz-adv-x="892" d="M166 12v1409q0 13 12 13h600q13 0 13 -13v-20q0 -12 -13 -12h-565v-631h549q12 0 12 -13v-20q0 -12 -12 -12h-549v-668h569q13 0 13 -12v-23q0 -10 -13 -10h-604q-12 0 -12 12zM293 1554l162 175q14 14 26 14h25q14 0 24 -14l162 -175q7 -12 -8 -12h-18q-11 0 -19 8 l-153 148l-156 -148q-8 -8 -19 -8h-18q-16 0 -8 12z" />
<glyph unicode="&#xcb;" horiz-adv-x="892" d="M166 12v1409q0 13 12 13h600q13 0 13 -13v-20q0 -12 -13 -12h-565v-631h549q12 0 12 -13v-20q0 -12 -12 -12h-549v-668h569q13 0 13 -12v-23q0 -10 -13 -10h-604q-12 0 -12 12zM317 1554v107q0 12 13 12h32q13 0 13 -12v-107q0 -12 -13 -12h-32q-13 0 -13 12zM610 1554 v107q0 12 13 12h32q13 0 13 -12v-107q0 -12 -13 -12h-32q-13 0 -13 12z" />
<glyph unicode="&#xcc;" horiz-adv-x="399" d="M10 1722q-16 19 8 19h35q18 0 29 -17l129 -168q10 -14 -6 -14h-15q-10 0 -18 8zM176 12v1409q0 13 12 13h23q12 0 12 -13v-1409q0 -12 -12 -12h-23q-12 0 -12 12z" />
<glyph unicode="&#xcd;" horiz-adv-x="399" d="M176 12v1409q0 13 12 13h23q12 0 12 -13v-1409q0 -12 -12 -12h-23q-12 0 -12 12zM186 1556l129 168q12 17 29 17h35q24 0 8 -19l-162 -172q-6 -8 -18 -8h-14q-17 0 -7 14z" />
<glyph unicode="&#xce;" horiz-adv-x="399" d="M0 1554l162 175q14 14 26 14h25q15 0 25 -14l161 -175q8 -12 -8 -12h-18q-11 0 -19 8l-153 148l-156 -148q-8 -8 -18 -8h-19q-16 0 -8 12zM176 12v1409q0 13 12 13h23q12 0 12 -13v-1409q0 -12 -12 -12h-23q-12 0 -12 12z" />
<glyph unicode="&#xcf;" horiz-adv-x="399" d="M25 1554v107q0 12 12 12h33q12 0 12 -12v-107q0 -12 -12 -12h-33q-12 0 -12 12zM176 12v1409q0 13 12 13h23q12 0 12 -13v-1409q0 -12 -12 -12h-23q-12 0 -12 12zM317 1554v107q0 12 13 12h32q13 0 13 -12v-107q0 -12 -13 -12h-32q-13 0 -13 12z" />
<glyph unicode="&#xd0;" horiz-adv-x="1114" d="M47 711v16q0 12 12 12h111v682q0 13 12 13h267q137 0 234 -33q95 -32 173 -113q75 -78 113 -222q37 -141 37 -349t-37 -349q-38 -145 -113 -223q-76 -79 -173 -112t-234 -33h-267q-12 0 -12 12v686h-111q-12 0 -12 13zM217 45h232q124 0 215 31q86 29 156 104 q69 74 102 207q32 129 32 330t-32 330q-33 132 -102 206q-72 76 -156 105q-91 31 -215 31h-232v-650h266q13 0 13 -12v-16q0 -13 -13 -13h-266v-653z" />
<glyph unicode="&#xd1;" horiz-adv-x="1150" d="M166 12v1409q0 13 12 13h23q13 0 20 -13l717 -1327v1327q0 13 12 13h23q12 0 12 -15v-1407q0 -12 -12 -12h-23q-14 0 -20 12l-717 1327v-1327q0 -12 -12 -12h-23q-12 0 -12 12zM332 1554q0 56 30 91q30 34 82 34q44 0 117 -41l49 -30q47 -29 92 -29q63 0 70 55l2 19 q2 18 19 18h10q14 0 14 -16q0 -53 -31 -89q-30 -34 -81 -34q-48 0 -115 41l-55 33q-44 28 -84 28q-62 0 -72 -55l-4 -23q-1 -18 -19 -18h-10q-14 0 -14 16z" />
<glyph unicode="&#xd2;" horiz-adv-x="1171" d="M109 717q0 380 117 556q119 179 360 179q240 0 359 -179q118 -178 118 -556t-118 -556q-119 -179 -359 -179q-241 0 -360 179q-117 176 -117 556zM158 717q0 -358 104 -523q105 -167 324 -167q218 0 323 167t105 523q0 357 -105 523q-105 167 -323 167q-219 0 -324 -167 q-104 -165 -104 -523zM424 1722q-16 19 8 19h35q18 0 29 -17l129 -168q10 -14 -7 -14h-14q-10 0 -18 8z" />
<glyph unicode="&#xd3;" horiz-adv-x="1171" d="M109 717q0 380 117 556q119 179 360 179q240 0 359 -179q118 -178 118 -556t-118 -556q-119 -179 -359 -179q-241 0 -360 179q-117 176 -117 556zM158 717q0 -358 104 -523q105 -167 324 -167q218 0 323 167t105 523q0 357 -105 523q-105 167 -323 167q-219 0 -324 -167 q-104 -165 -104 -523zM555 1556l129 168q12 17 29 17h35q24 0 8 -19l-162 -172q-6 -8 -19 -8h-14q-16 0 -6 14z" />
<glyph unicode="&#xd4;" horiz-adv-x="1171" d="M109 717q0 380 117 556q119 179 360 179q240 0 359 -179q118 -178 118 -556t-118 -556q-119 -179 -359 -179q-241 0 -360 179q-117 176 -117 556zM158 717q0 -358 104 -523q105 -167 324 -167q218 0 323 167t105 523q0 357 -105 523q-105 167 -323 167q-219 0 -324 -167 q-104 -165 -104 -523zM385 1554l162 175q14 14 26 14h25q15 0 25 -14l161 -175q8 -12 -8 -12h-18q-11 0 -19 8l-153 148l-156 -148q-8 -8 -18 -8h-19q-15 0 -8 12z" />
<glyph unicode="&#xd5;" horiz-adv-x="1171" d="M109 717q0 380 117 556q119 179 360 179q240 0 359 -179q118 -178 118 -556t-118 -556q-119 -179 -359 -179q-241 0 -360 179q-117 176 -117 556zM158 717q0 -358 104 -523q105 -167 324 -167q218 0 323 167t105 523q0 357 -105 523q-105 167 -323 167q-219 0 -324 -167 q-104 -165 -104 -523zM342 1554q0 55 31 91q30 34 82 34q43 0 116 -41l50 -30q47 -29 92 -29q62 0 69 55l2 19q2 18 19 18h10q14 0 14 -16q0 -55 -30 -89t-82 -34q-48 0 -115 41l-55 33q-44 28 -84 28q-65 0 -72 -55l-4 -23q-1 -18 -18 -18h-11q-14 0 -14 16z" />
<glyph unicode="&#xd6;" horiz-adv-x="1171" d="M109 717q0 380 117 556q119 179 360 179q240 0 359 -179q118 -178 118 -556t-118 -556q-119 -179 -359 -179q-241 0 -360 179q-117 176 -117 556zM158 717q0 -358 104 -523q105 -167 324 -167q218 0 323 167t105 523q0 357 -105 523q-105 167 -323 167q-219 0 -324 -167 q-104 -165 -104 -523zM410 1554v107q0 12 12 12h33q12 0 12 -12v-107q0 -12 -12 -12h-33q-12 0 -12 12zM702 1554v107q0 12 13 12h33q12 0 12 -12v-107q0 -12 -12 -12h-33q-13 0 -13 12z" />
<glyph unicode="&#xd7;" d="M156 373q-8 7 0 18l333 336l-333 334q-8 7 0 18l14 15q8 8 18 -2l334 -332l334 334q8 8 18 0l15 -15q7 -11 0 -18l-334 -334l334 -336q7 -11 0 -18l-15 -15q-10 -10 -18 0l-334 336l-334 -336q-8 -10 -18 0z" />
<glyph unicode="&#xd8;" horiz-adv-x="1181" d="M78 55l121 166q-86 180 -86 496q0 380 117 556q119 179 360 179q251 0 368 -195l109 146q6 10 16 4l17 -12q13 -8 2 -19l-121 -166q86 -180 86 -493q0 -378 -118 -556q-119 -179 -359 -179q-250 0 -367 192l-108 -145q-8 -8 -19 -2l-16 12q-8 6 -2 16zM162 717 q0 -290 69 -449l697 946q-106 193 -338 193q-219 0 -324 -167q-104 -165 -104 -523zM254 219q99 -192 336 -192q220 0 324 167t104 523q0 285 -70 446z" />
<glyph unicode="&#xd9;" horiz-adv-x="1122" d="M156 446v975q0 13 12 13h22q13 0 13 -13v-970q0 -225 82 -326q83 -102 276 -102t275 102q82 101 82 326v970q0 13 12 13h22q13 0 13 -13v-975q0 -237 -96 -353q-94 -113 -308 -113q-216 0 -310 113q-95 115 -95 353zM410 1722q-16 19 8 19h35q17 0 28 -17l129 -168 q10 -14 -6 -14h-14q-11 0 -19 8z" />
<glyph unicode="&#xda;" horiz-adv-x="1122" d="M156 446v975q0 13 12 13h22q13 0 13 -13v-970q0 -225 82 -326q83 -102 276 -102t275 102q82 101 82 326v970q0 13 12 13h22q13 0 13 -13v-975q0 -237 -96 -353q-94 -113 -308 -113q-216 0 -310 113q-95 115 -95 353zM510 1556l129 168q12 17 29 17h34q25 0 9 -19 l-162 -172q-6 -8 -19 -8h-14q-16 0 -6 14z" />
<glyph unicode="&#xdb;" horiz-adv-x="1122" d="M156 446v975q0 13 12 13h22q13 0 13 -13v-970q0 -225 82 -326q83 -102 276 -102t275 102q82 101 82 326v970q0 13 12 13h22q13 0 13 -13v-975q0 -237 -96 -353q-94 -113 -308 -113q-216 0 -310 113q-95 115 -95 353zM360 1554l162 175q14 14 27 14h24q15 0 25 -14 l162 -175q8 -12 -8 -12h-19q-10 0 -18 8l-154 148l-156 -148q-8 -8 -18 -8h-18q-17 0 -9 12z" />
<glyph unicode="&#xdc;" horiz-adv-x="1122" d="M156 446v975q0 13 12 13h22q13 0 13 -13v-970q0 -225 82 -326q83 -102 276 -102t275 102q82 101 82 326v970q0 13 12 13h22q13 0 13 -13v-975q0 -237 -96 -353q-94 -113 -308 -113q-216 0 -310 113q-95 115 -95 353zM385 1554v107q0 12 12 12h33q12 0 12 -12v-107 q0 -12 -12 -12h-33q-12 0 -12 12zM678 1554v107q0 12 12 12h33q12 0 12 -12v-107q0 -12 -12 -12h-33q-12 0 -12 12z" />
<glyph unicode="&#xdd;" horiz-adv-x="1026" d="M72 1419q-6 15 8 15h24q11 0 17 -11l282 -579l109 -234h4l107 234l282 579q6 11 17 11h24q16 0 8 -15l-417 -860v-547q0 -12 -13 -12h-22q-13 0 -13 12v547zM481 1556l129 168q12 17 29 17h35q24 0 8 -19l-162 -172q-6 -8 -18 -8h-15q-16 0 -6 14z" />
<glyph unicode="&#xde;" horiz-adv-x="964" d="M166 12v1409q0 13 12 13h23q12 0 12 -13v-159h197q239 0 345 -104q105 -104 105 -339q0 -238 -105 -341q-104 -103 -345 -103h-197v-363q0 -12 -12 -12h-23q-12 0 -12 12zM213 420h197q218 0 309 91q92 92 92 308q0 217 -91 307q-93 91 -310 91h-197v-797z" />
<glyph unicode="&#xdf;" horiz-adv-x="999" d="M152 12v1110q0 162 94 244t243 82q162 0 236 -71t74 -171q0 -61 -28 -112q-27 -50 -68 -80q-69 -51 -78 -57q-42 -27 -67 -54q-28 -30 -28 -61q0 -37 40 -74q38 -35 96 -76q51 -36 111 -88q55 -48 96 -128q40 -79 40 -175q0 -313 -317 -313q-72 0 -141 12q-15 2 -15 18 v15q0 10 17 10q85 -12 135 -12q276 0 276 268q0 92 -40 168q-42 79 -96 123q-71 58 -111 86q-54 38 -96 80q-40 40 -40 84q0 50 42 93q43 44 94 73q52 29 93 80q42 52 42 118q0 84 -64 143q-62 58 -198 58q-125 0 -212 -70q-85 -69 -85 -221v-1102q0 -12 -13 -12h-20 q-12 0 -12 12z" />
<glyph unicode="&#xe0;" horiz-adv-x="894" d="M80 285q0 77 20 128q21 53 65 90q42 35 93 58q48 22 129 34q73 11 150 16q89 6 174 7v138q0 145 -59 209q-58 63 -197 63q-158 0 -287 -57q-13 -2 -14 8l-4 16q-2 11 10 17q142 59 297 59t227 -76q72 -77 72 -233v-750q0 -12 -13 -12h-20q-12 0 -12 12v191 q-30 -86 -112 -151q-80 -64 -228 -64q-141 0 -216 80t-75 217zM125 283q0 -118 61 -185t187 -67q159 0 248 98q90 99 90 248v201q-43 -2 -159 -8q-62 -3 -136 -13q-78 -10 -123 -29q-42 -17 -87 -50q-46 -33 -63 -81q-18 -49 -18 -114zM281 1396q1 7 12 7h35q17 0 28 -17 l133 -180q10 -14 -6 -14h-14q-10 0 -16 8l-168 182q-6 6 -4 14z" />
<glyph unicode="&#xe1;" horiz-adv-x="894" d="M80 285q0 77 20 128q21 53 65 90q42 35 93 58q48 22 129 34q73 11 150 16q89 6 174 7v138q0 145 -59 209q-58 63 -197 63q-158 0 -287 -57q-13 -2 -14 8l-4 16q-2 11 10 17q142 59 297 59t227 -76q72 -77 72 -233v-750q0 -12 -13 -12h-20q-12 0 -12 12v191 q-30 -86 -112 -151q-80 -64 -228 -64q-141 0 -216 80t-75 217zM125 283q0 -118 61 -185t187 -67q159 0 248 98q90 99 90 248v201q-43 -2 -159 -8q-62 -3 -136 -13q-78 -10 -123 -29q-42 -17 -87 -50q-46 -33 -63 -81q-18 -49 -18 -114zM406 1206l133 180q12 17 28 17h35 q11 0 12 -7q2 -8 -4 -14l-166 -182q-8 -8 -18 -8h-14q-16 0 -6 14z" />
<glyph unicode="&#xe2;" horiz-adv-x="894" d="M80 285q0 77 20 128q21 53 65 90q42 35 93 58q48 22 129 34q73 11 150 16q89 6 174 7v138q0 145 -59 209q-58 63 -197 63q-158 0 -287 -57q-13 -2 -14 8l-4 16q-2 11 10 17q142 59 297 59t227 -76q72 -77 72 -233v-750q0 -12 -13 -12h-20q-12 0 -12 12v191 q-30 -86 -112 -151q-80 -64 -228 -64q-141 0 -216 80t-75 217zM125 283q0 -118 61 -185t187 -67q159 0 248 98q90 99 90 248v201q-43 -2 -159 -8q-62 -3 -136 -13q-78 -10 -123 -29q-42 -17 -87 -50q-46 -33 -63 -81q-18 -49 -18 -114zM250 1204l160 187q14 14 26 14h25 q14 0 24 -14l160 -187q12 -12 -8 -12h-16q-13 0 -19 8l-153 162l-156 -162q-6 -8 -19 -8h-16q-20 0 -8 12z" />
<glyph unicode="&#xe3;" horiz-adv-x="894" d="M80 285q0 77 20 128q21 53 65 90q42 35 93 58q48 22 129 34q73 11 150 16q89 6 174 7v138q0 145 -59 209q-58 63 -197 63q-158 0 -287 -57q-13 -2 -14 8l-4 16q-2 11 10 17q142 59 297 59t227 -76q72 -77 72 -233v-750q0 -12 -13 -12h-20q-12 0 -12 12v191 q-30 -86 -112 -151q-80 -64 -228 -64q-141 0 -216 80t-75 217zM125 283q0 -118 61 -185t187 -67q159 0 248 98q90 99 90 248v201q-43 -2 -159 -8q-62 -3 -136 -13q-78 -10 -123 -29q-42 -17 -87 -50q-46 -33 -63 -81q-18 -49 -18 -114zM221 1208q0 52 29 86q28 33 78 33 q54 0 110 -37l47 -30q45 -27 82 -27q57 0 68 51l4 19q4 16 18 16h13q12 0 12 -14q0 -53 -29 -85t-78 -32t-110 37l-49 32q-41 25 -78 25q-60 0 -70 -49l-4 -23q-6 -16 -18 -16h-13q-12 0 -12 14z" />
<glyph unicode="&#xe4;" horiz-adv-x="894" d="M80 285q0 77 20 128q21 53 65 90q42 35 93 58q48 22 129 34q73 11 150 16q89 6 174 7v138q0 145 -59 209q-58 63 -197 63q-158 0 -287 -57q-13 -2 -14 8l-4 16q-2 11 10 17q142 59 297 59t227 -76q72 -77 72 -233v-750q0 -12 -13 -12h-20q-12 0 -12 12v191 q-30 -86 -112 -151q-80 -64 -228 -64q-141 0 -216 80t-75 217zM125 283q0 -118 61 -185t187 -67q159 0 248 98q90 99 90 248v201q-43 -2 -159 -8q-62 -3 -136 -13q-78 -10 -123 -29q-42 -17 -87 -50q-46 -33 -63 -81q-18 -49 -18 -114zM281 1204v111q0 12 12 12h31 q12 0 12 -12v-111q0 -12 -12 -12h-31q-12 0 -12 12zM567 1204v111q0 12 13 12h30q13 0 13 -12v-111q0 -12 -13 -12h-30q-13 0 -13 12z" />
<glyph unicode="&#xe5;" horiz-adv-x="894" d="M80 285q0 77 20 128q21 53 65 90q42 35 93 58q48 22 129 34q73 11 150 16q89 6 174 7v138q0 145 -59 209q-58 63 -197 63q-158 0 -287 -57q-13 -2 -14 8l-4 16q-2 11 10 17q142 59 297 59t227 -76q72 -77 72 -233v-750q0 -12 -13 -12h-20q-12 0 -12 12v191 q-30 -86 -112 -151q-80 -64 -228 -64q-141 0 -216 80t-75 217zM125 283q0 -118 61 -185t187 -67q159 0 248 98q90 99 90 248v201q-43 -2 -159 -8q-62 -3 -136 -13q-78 -10 -123 -29q-42 -17 -87 -50q-46 -33 -63 -81q-18 -49 -18 -114zM283 1329q0 73 45 116q46 44 125 44 q76 0 122 -44t46 -116q0 -71 -46 -115q-44 -43 -122 -43q-81 0 -125 43q-45 44 -45 115zM328 1329q0 -57 32 -86q34 -31 93 -31q122 0 122 117q0 119 -122 119q-125 0 -125 -119z" />
<glyph unicode="&#xe6;" horiz-adv-x="1460" d="M80 276q0 82 31 141q29 55 74 86q43 29 132 46q81 15 160 20q72 5 205 6h12v162q2 158 -56 224q-58 67 -194 67q-145 0 -274 -57q-13 -2 -14 8l-4 16q-2 11 10 17q142 59 284 59q257 0 287 -237q33 114 113 176q79 61 198 61q164 0 245 -129t81 -346v-51q0 -13 -12 -13 h-619q4 -509 344 -509q122 0 224 47q10 6 14 -9l4 -14q5 -12 -10 -18q-104 -49 -234 -49q-280 0 -356 294q-22 -123 -116 -205q-93 -81 -240 -81q-139 0 -214 79t-75 209zM125 276q0 -112 62 -178q63 -67 184 -67q153 0 238 98t85 248v155q-7 0 -61 -2q-275 -6 -363 -36 q-145 -51 -145 -218zM739 575h584v21q0 200 -68 316t-211 116q-299 0 -305 -453z" />
<glyph unicode="&#xe7;" horiz-adv-x="776" d="M94 528q0 543 383 543q117 0 207 -45q15 -6 10 -18l-4 -15q-4 -15 -16 -8q-76 43 -197 43q-174 0 -255 -125t-81 -375q0 -252 81 -376q81 -125 255 -125q127 0 203 43q12 6 16 -9l4 -16q1 -10 -10 -16q-86 -47 -215 -47q-19 0 -35 2q97 -68 97 -156q0 -109 -140 -109 q-30 0 -49 7q-10 4 -10 14v14q0 10 12 10h43q96 0 96 68q0 106 -159 186h49q14 -8 28.5 -16t22 -12t10.5 -6q-346 24 -346 544z" />
<glyph unicode="&#xe8;" horiz-adv-x="890" d="M94 526q0 545 367 545q176 0 258 -133t82 -369v-55q0 -12 -13 -12h-647q5 -244 89 -361q85 -118 270 -118q135 0 239 49q11 6 15 -9l4 -14q4 -12 -13 -18q-107 -51 -245 -51q-212 0 -309 136t-97 410zM141 545h613v24q0 459 -293 459q-314 0 -320 -483zM279 1396 q1 7 12 7h35q17 0 28 -17l133 -180q10 -14 -6 -14h-14q-10 0 -16 8l-168 182q-6 6 -4 14z" />
<glyph unicode="&#xe9;" horiz-adv-x="890" d="M94 526q0 545 367 545q176 0 258 -133t82 -369v-55q0 -12 -13 -12h-647q5 -244 89 -361q85 -118 270 -118q135 0 239 49q11 6 15 -9l4 -14q4 -12 -13 -18q-107 -51 -245 -51q-212 0 -309 136t-97 410zM141 545h613v24q0 459 -293 459q-314 0 -320 -483zM403 1206l134 180 q12 17 28 17h35q23 0 8 -21l-166 -182q-8 -8 -18 -8h-14q-17 0 -7 14z" />
<glyph unicode="&#xea;" horiz-adv-x="890" d="M94 526q0 545 367 545q176 0 258 -133t82 -369v-55q0 -12 -13 -12h-647q5 -244 89 -361q85 -118 270 -118q135 0 239 49q11 6 15 -9l4 -14q4 -12 -13 -18q-107 -51 -245 -51q-212 0 -309 136t-97 410zM141 545h613v24q0 459 -293 459q-314 0 -320 -483zM256 1204l160 187 q14 14 26 14h25q15 0 25 -14l159 -187q12 -12 -8 -12h-16q-13 0 -19 8l-153 162l-156 -162q-6 -8 -18 -8h-17q-20 0 -8 12z" />
<glyph unicode="&#xeb;" horiz-adv-x="890" d="M94 526q0 545 367 545q176 0 258 -133t82 -369v-55q0 -12 -13 -12h-647q5 -244 89 -361q85 -118 270 -118q135 0 239 49q11 6 15 -9l4 -14q4 -12 -13 -18q-107 -51 -245 -51q-212 0 -309 136t-97 410zM141 545h613v24q0 459 -293 459q-314 0 -320 -483zM283 1204v111 q0 12 12 12h31q12 0 12 -12v-111q0 -12 -12 -12h-31q-12 0 -12 12zM569 1204v111q0 12 13 12h30q13 0 13 -12v-111q0 -12 -13 -12h-30q-13 0 -13 12z" />
<glyph unicode="&#xec;" horiz-adv-x="358" d="M-18 1396q1 7 12 7h35q17 0 28 -17l133 -180q10 -14 -6 -14h-14q-10 0 -16 8l-168 182q-6 6 -4 14zM158 12v1026q0 13 12 13h20q13 0 13 -13v-1026q0 -12 -13 -12h-20q-12 0 -12 12z" />
<glyph unicode="&#xed;" horiz-adv-x="358" d="M158 12v1026q0 13 12 13h20q13 0 13 -13v-1026q0 -12 -13 -12h-20q-12 0 -12 12zM168 1206l133 180q12 17 29 17h35q23 0 8 -21l-166 -182q-8 -8 -19 -8h-14q-16 0 -6 14z" />
<glyph unicode="&#xee;" horiz-adv-x="358" d="M-18 1204l159 187q14 14 27 14h25q14 0 24 -14l160 -187q12 -12 -8 -12h-17q-12 0 -18 8l-154 162l-155 -162q-6 -8 -19 -8h-16q-20 0 -8 12zM158 12v1026q0 13 12 13h20q13 0 13 -13v-1026q0 -12 -13 -12h-20q-12 0 -12 12z" />
<glyph unicode="&#xef;" horiz-adv-x="358" d="M8 1204v111q0 12 12 12h31q12 0 12 -12v-111q0 -12 -12 -12h-31q-12 0 -12 12zM158 12v1026q0 13 12 13h20q13 0 13 -13v-1026q0 -12 -13 -12h-20q-12 0 -12 12zM295 1204v111q0 12 12 12h31q12 0 12 -12v-111q0 -12 -12 -12h-31q-12 0 -12 12z" />
<glyph unicode="&#xf0;" horiz-adv-x="948" d="M94 526q0 545 379 545q183 0 275 -129q-49 150 -146 285h-233q-13 0 -13 12v16q0 13 13 13h204q-60 74 -137 147q-24 19 2 19h19q13 0 24 -11q81 -75 144 -155h157q13 0 13 -13v-16q0 -12 -13 -12h-129q197 -292 197 -701q0 -544 -377 -544q-379 0 -379 544zM141 526 q0 -501 332 -501q330 0 330 501q0 502 -330 502q-332 0 -332 -502z" />
<glyph unicode="&#xf1;" horiz-adv-x="960" d="M145 12v1026q0 13 13 13h20q12 0 12 -13v-188q30 85 114 154q82 67 218 67q149 0 223 -89t74 -247v-723q0 -12 -12 -12h-21q-12 0 -12 12v723q0 293 -252 293q-143 0 -237 -98q-95 -100 -95 -246v-672q0 -12 -12 -12h-20q-13 0 -13 12zM250 1208q0 52 29 86q29 33 77 33 q55 0 111 -37l47 -30q45 -27 82 -27q58 0 68 51l4 19q4 16 18 16h12q13 0 13 -14q0 -53 -29 -85t-78 -32t-110 37l-50 32q-41 25 -77 25q-60 0 -70 -49l-4 -23q-6 -16 -19 -16h-12q-12 0 -12 14z" />
<glyph unicode="&#xf2;" horiz-adv-x="944" d="M94 526q0 -544 379 -544q377 0 377 544q0 545 -377 545q-379 0 -379 -545zM141 526q0 502 332 502q330 0 330 -502q0 -501 -330 -501q-332 0 -332 501zM305 1396q1 7 12 7h35q18 0 29 -17l133 -180q10 -14 -6 -14h-14q-11 0 -17 8l-168 182q-6 6 -4 14z" />
<glyph unicode="&#xf3;" horiz-adv-x="944" d="M94 526q0 -544 379 -544q377 0 377 544q0 545 -377 545q-379 0 -379 -545zM141 526q0 502 332 502q330 0 330 -502q0 -501 -330 -501q-332 0 -332 501zM430 1206l133 180q12 17 29 17h35q11 0 12 -7q2 -8 -4 -14l-166 -182q-8 -8 -18 -8h-15q-16 0 -6 14z" />
<glyph unicode="&#xf4;" horiz-adv-x="944" d="M94 526q0 -544 379 -544q377 0 377 544q0 545 -377 545q-379 0 -379 -545zM141 526q0 502 332 502q330 0 330 -502q0 -501 -330 -501q-332 0 -332 501zM274 1204l160 187q14 14 27 14h24q15 0 25 -14l160 -187q12 -12 -8 -12h-17q-12 0 -18 8l-154 162l-156 -162 q-6 -8 -18 -8h-16q-21 0 -9 12z" />
<glyph unicode="&#xf5;" horiz-adv-x="944" d="M94 526q0 545 379 545q377 0 377 -545q0 -544 -377 -544q-379 0 -379 544zM141 526q0 -501 332 -501q330 0 330 501q0 502 -330 502q-332 0 -332 -502zM242 1208q0 54 28 86q28 33 78 33q55 0 111 -37l47 -30q45 -27 82 -27q56 0 67 51l4 19q4 16 19 16h12q12 0 12 -14 q0 -54 -28 -85q-29 -32 -78 -32q-50 0 -111 37l-49 32q-41 25 -78 25q-59 0 -69 -49l-4 -23q-6 -16 -19 -16h-12q-12 0 -12 14z" />
<glyph unicode="&#xf6;" horiz-adv-x="944" d="M94 526q0 -544 379 -544q377 0 377 544q0 545 -377 545q-379 0 -379 -545zM141 526q0 502 332 502q330 0 330 -502q0 -501 -330 -501q-332 0 -332 501zM301 1204v111q0 12 12 12h31q12 0 12 -12v-111q0 -12 -12 -12h-31q-12 0 -12 12zM588 1204v111q0 12 12 12h31 q12 0 12 -12v-111q0 -12 -12 -12h-31q-12 0 -12 12z" />
<glyph unicode="&#xf7;" d="M119 717v20q0 13 12 13h782q13 0 13 -13v-20q0 -12 -13 -12h-782q-12 0 -12 12zM479 358v115q0 12 13 12h61q12 0 12 -12v-115q0 -12 -12 -12h-61q-13 0 -13 12zM479 979v115q0 12 13 12h61q12 0 12 -12v-115q0 -12 -12 -12h-61q-13 0 -13 12z" />
<glyph unicode="&#xf8;" horiz-adv-x="952" d="M96 29l82 114q-80 131 -80 383q0 545 379 545q179 0 273 -123l71 99q6 8 17 2l14 -9q10 -6 2 -18l-80 -111q80 -137 80 -385q0 -544 -377 -544q-183 0 -274 122l-72 -98q-6 -10 -18 -4l-13 10q-9 9 -4 17zM145 526q0 -214 62 -340l516 721q-84 121 -246 121 q-332 0 -332 -502zM231 145q79 -120 246 -120q330 0 330 501q0 217 -64 340z" />
<glyph unicode="&#xf9;" horiz-adv-x="948" d="M139 334v704q0 13 13 13h20q12 0 12 -13v-704q0 -309 262 -309q140 0 227 100q87 101 87 248v665q0 13 12 13h21q12 0 12 -13v-1026q0 -12 -12 -12h-21q-12 0 -12 12v191q-28 -87 -106 -154q-79 -67 -210 -67q-152 0 -229 92q-76 91 -76 260zM307 1396q1 7 12 7h35 q18 0 29 -17l133 -180q10 -14 -6 -14h-14q-11 0 -17 8l-168 182q-6 6 -4 14z" />
<glyph unicode="&#xfa;" horiz-adv-x="948" d="M139 334v704q0 13 13 13h20q12 0 12 -13v-704q0 -309 262 -309q140 0 227 100q87 101 87 248v665q0 13 12 13h21q12 0 12 -13v-1026q0 -12 -12 -12h-21q-12 0 -12 12v191q-28 -87 -106 -154q-79 -67 -210 -67q-152 0 -229 92q-76 91 -76 260zM432 1206l133 180 q12 17 29 17h35q23 0 8 -21l-166 -182q-8 -8 -18 -8h-15q-16 0 -6 14z" />
<glyph unicode="&#xfb;" horiz-adv-x="948" d="M139 334v704q0 13 13 13h20q12 0 12 -13v-704q0 -309 262 -309q140 0 227 100q87 101 87 248v665q0 13 12 13h21q12 0 12 -13v-1026q0 -12 -12 -12h-21q-12 0 -12 12v191q-28 -87 -106 -154q-79 -67 -210 -67q-152 0 -229 92q-76 91 -76 260zM276 1204l160 187 q14 14 27 14h24q15 0 25 -14l160 -187q12 -12 -8 -12h-17q-12 0 -18 8l-154 162l-156 -162q-6 -8 -18 -8h-16q-21 0 -9 12z" />
<glyph unicode="&#xfc;" horiz-adv-x="948" d="M139 334v704q0 13 13 13h20q12 0 12 -13v-704q0 -309 262 -309q140 0 227 100q87 101 87 248v665q0 13 12 13h21q12 0 12 -13v-1026q0 -12 -12 -12h-21q-12 0 -12 12v191q-28 -87 -106 -154q-79 -67 -210 -67q-152 0 -229 92q-76 91 -76 260zM303 1204v111q0 12 12 12h31 q12 0 12 -12v-111q0 -12 -12 -12h-31q-12 0 -12 12zM590 1204v111q0 12 12 12h31q12 0 12 -12v-111q0 -12 -12 -12h-31q-12 0 -12 12z" />
<glyph unicode="&#xfd;" horiz-adv-x="811" d="M63 1036q-6 15 9 15h24q10 0 15 -11l213 -678l92 -288h4l84 288l198 678q5 11 17 11h22q13 0 11 -15l-308 -1028q-38 -130 -88 -186q-52 -58 -145 -58q-59 0 -102 15q-14 4 -13 18l4 15q1 10 17 8q47 -13 94 -13q94 0 143 85t31 143zM362 1206l134 180q12 17 28 17h35 q23 0 8 -21l-166 -182q-8 -8 -18 -8h-14q-17 0 -7 14z" />
<glyph unicode="&#xfe;" horiz-adv-x="985" d="M152 -213v1634q0 13 12 13h20q13 0 13 -13v-600q35 119 119 184q86 66 210 66q365 0 365 -545q0 -263 -91 -403q-92 -141 -274 -141q-126 0 -210 65q-85 65 -119 182v-442q0 -12 -13 -12h-20q-12 0 -12 12zM195 526q0 -246 85 -373q86 -128 246 -128q318 0 318 501 q0 502 -318 502q-160 0 -246 -128q-85 -127 -85 -374z" />
<glyph unicode="&#xff;" horiz-adv-x="811" d="M63 1036q-6 15 9 15h24q10 0 15 -11l213 -678l92 -288h4l84 288l198 678q5 11 17 11h22q13 0 11 -15l-308 -1028q-38 -130 -88 -186q-52 -58 -145 -58q-59 0 -102 15q-14 4 -13 18l4 15q1 10 17 8q47 -13 94 -13q94 0 143 85t31 143zM233 1204v111q0 12 13 12h30 q13 0 13 -12v-111q0 -12 -13 -12h-30q-13 0 -13 12zM520 1204v111q0 12 12 12h31q12 0 12 -12v-111q0 -12 -12 -12h-31q-12 0 -12 12z" />
<glyph unicode="&#x152;" horiz-adv-x="1554" d="M145 717q0 207 39 349q39 141 117 221q77 78 177 113q98 34 237 34h725q12 0 12 -13v-20q0 -12 -12 -12h-533v-631h516q13 0 13 -13v-20q0 -12 -13 -12h-516v-668h537q12 0 12 -12v-21q0 -12 -12 -12h-729q-139 0 -237 34q-102 36 -177 112q-78 80 -117 222t-39 349z M197 717q0 -199 34 -331q34 -133 106 -208q71 -74 161 -104q93 -31 217 -31h145v1346h-145q-124 0 -217 -31q-89 -30 -161 -105t-106 -206q-34 -132 -34 -330z" />
<glyph unicode="&#x153;" horiz-adv-x="1556" d="M94 526q0 266 92 406q91 139 275 139q278 0 344 -309q66 309 336 309q165 0 245 -134t80 -368v-55q0 -12 -12 -12h-625q6 -479 349 -479q125 0 225 47q12 6 16 -9l4 -14q2 -13 -12 -18q-101 -49 -233 -49q-301 0 -373 311q-66 -309 -344 -309q-184 0 -275 139 q-92 140 -92 405zM141 526q0 -501 320 -501q321 0 321 501q0 502 -321 502q-320 0 -320 -502zM829 545h590v24q0 459 -278 459q-306 0 -312 -483z" />
<glyph unicode="&#x178;" horiz-adv-x="1026" d="M72 1419q-6 15 8 15h24q11 0 17 -11l282 -579l109 -234h4l107 234l282 579q6 11 17 11h24q16 0 8 -15l-417 -860v-547q0 -12 -13 -12h-22q-13 0 -13 12v547zM336 1554v107q0 12 12 12h33q12 0 12 -12v-107q0 -12 -12 -12h-33q-12 0 -12 12zM629 1554v107q0 12 12 12h33 q12 0 12 -12v-107q0 -12 -12 -12h-33q-12 0 -12 12z" />
<glyph unicode="&#x2c6;" horiz-adv-x="571" d="M88 1204l160 187q14 14 26 14h25q15 0 25 -14l159 -187q12 -12 -8 -12h-16q-13 0 -19 8l-153 162l-156 -162q-6 -8 -18 -8h-17q-20 0 -8 12z" />
<glyph unicode="&#x2dc;" horiz-adv-x="571" d="M55 1208q0 52 29 86q28 33 78 33q54 0 110 -37l47 -30q45 -27 82 -27q58 0 68 51l4 19q4 16 19 16h12q12 0 12 -14q0 -53 -29 -85t-77 -32q-50 0 -111 37l-49 32q-41 25 -78 25q-60 0 -70 -49l-4 -23q-6 -16 -18 -16h-12q-13 0 -13 14z" />
<glyph unicode="&#x2000;" horiz-adv-x="940" />
<glyph unicode="&#x2001;" horiz-adv-x="1880" />
<glyph unicode="&#x2002;" horiz-adv-x="940" />
<glyph unicode="&#x2003;" horiz-adv-x="1880" />
<glyph unicode="&#x2004;" horiz-adv-x="626" />
<glyph unicode="&#x2005;" horiz-adv-x="470" />
<glyph unicode="&#x2006;" horiz-adv-x="313" />
<glyph unicode="&#x2007;" horiz-adv-x="313" />
<glyph unicode="&#x2008;" horiz-adv-x="235" />
<glyph unicode="&#x2009;" horiz-adv-x="376" />
<glyph unicode="&#x200a;" horiz-adv-x="104" />
<glyph unicode="&#x2010;" horiz-adv-x="665" d="M90 528v19q0 12 12 12h461q12 0 12 -12v-19q0 -12 -12 -12h-461q-12 0 -12 12z" />
<glyph unicode="&#x2011;" horiz-adv-x="665" d="M90 528v19q0 12 12 12h461q12 0 12 -12v-19q0 -12 -12 -12h-461q-12 0 -12 12z" />
<glyph unicode="&#x2012;" horiz-adv-x="665" d="M90 528v19q0 12 12 12h461q12 0 12 -12v-19q0 -12 -12 -12h-461q-12 0 -12 12z" />
<glyph unicode="&#x2013;" horiz-adv-x="874" d="M88 528v19q0 12 12 12h676q12 0 12 -12v-19q0 -12 -12 -12h-676q-12 0 -12 12z" />
<glyph unicode="&#x2014;" horiz-adv-x="1284" d="M88 528v19q0 12 12 12h1084q12 0 12 -12v-19q0 -12 -12 -12h-1084q-12 0 -12 12z" />
<glyph unicode="&#x2018;" horiz-adv-x="333" d="M127 1118v113q0 6 2 16l47 178q5 13 14 13h11q15 0 10 -15l-35 -178h29q12 0 12 -12v-115q0 -12 -12 -12h-66q-12 0 -12 12z" />
<glyph unicode="&#x2019;" horiz-adv-x="333" d="M117 1309v112q0 13 12 13h66q12 0 12 -13v-110q0 -9 -2 -19l-47 -178q-2 -12 -15 -12h-10q-14 0 -10 14l33 180h-27q-12 0 -12 13z" />
<glyph unicode="&#x201a;" horiz-adv-x="333" d="M117 12v113q0 12 12 12h66q12 0 12 -12v-111q0 -8 -2 -18l-47 -178q-2 -13 -15 -13h-10q-15 0 -10 15l33 180h-27q-12 0 -12 12z" />
<glyph unicode="&#x201c;" horiz-adv-x="567" d="M127 1118v113q0 6 2 16l47 178q5 13 14 13h11q15 0 10 -15l-37 -178h31q12 0 12 -12v-115q0 -12 -12 -12h-66q-12 0 -12 12zM362 1118v113q0 1 3 16l47 178q2 13 14 13h10q14 0 10 -15l-36 -178h30q13 0 13 -12v-115q0 -12 -13 -12h-65q-13 0 -13 12z" />
<glyph unicode="&#x201d;" horiz-adv-x="567" d="M117 1307v114q0 13 12 13h66q12 0 12 -13v-112q0 -7 -2 -17l-47 -178q-2 -12 -15 -12h-10q-14 0 -10 14l35 178h-29q-12 0 -12 13zM352 1307v114q0 13 13 13h65q12 0 12 -13v-112q0 -7 -2 -17l-47 -178q-5 -12 -14 -12h-10q-15 0 -11 14l35 178h-28q-13 0 -13 13z" />
<glyph unicode="&#x201e;" horiz-adv-x="567" d="M117 12v115q0 12 12 12h66q12 0 12 -12v-113q0 -6 -2 -16l-47 -178q-2 -13 -15 -13h-10q-15 0 -10 15l35 178h-29q-12 0 -12 12zM352 12v115q0 12 13 12h65q12 0 12 -12v-113q0 -6 -2 -16l-47 -178q-5 -13 -14 -13h-10q-15 0 -11 15l35 178h-28q-13 0 -13 12z" />
<glyph unicode="&#x2022;" horiz-adv-x="651" d="M104 541q0 95 63 158t159 63q94 0 157 -63q64 -64 64 -158q0 -95 -64 -159q-63 -63 -157 -63q-96 0 -159 63t-63 159z" />
<glyph unicode="&#x2026;" horiz-adv-x="1042" d="M131 12v113q0 12 12 12h62q12 0 12 -12v-113q0 -12 -12 -12h-62q-12 0 -12 12zM477 12v113q0 12 12 12h62q12 0 12 -12v-113q0 -12 -12 -12h-62q-12 0 -12 12zM825 12v113q0 12 13 12h61q12 0 12 -12v-113q0 -12 -12 -12h-61q-13 0 -13 12z" />
<glyph unicode="&#x202f;" horiz-adv-x="376" />
<glyph unicode="&#x2039;" horiz-adv-x="378" d="M82 528q0 3 2 9l139 268q4 10 15 10h24q18 0 8 -14l-141 -273l141 -272q7 -14 -8 -14h-24q-11 0 -15 10l-139 268q-2 6 -2 8z" />
<glyph unicode="&#x203a;" horiz-adv-x="378" d="M109 256l141 272l-141 273q-10 14 8 14h24q11 0 15 -10l139 -268q2 -6 2 -9q0 -2 -2 -8l-139 -268q-4 -10 -15 -10h-24q-14 0 -8 14z" />
<glyph unicode="&#x205f;" horiz-adv-x="470" />
<glyph unicode="&#x20ac;" horiz-adv-x="1083" d="M61 578v18q0 12 13 12h155q-4 61 -4 109q0 59 4 106h-155q-13 0 -13 13v18q0 12 13 12h157q50 586 517 586q131 0 241 -49q12 -6 10 -17l-4 -18q-4 -15 -18 -8q-100 47 -229 47q-216 0 -330 -135q-114 -136 -137 -406h561q14 0 10 -12l-4 -18q-5 -13 -17 -13h-552 q-5 -38 -5 -106q0 -32 5 -109h489q14 0 10 -12l-4 -18q-5 -13 -16 -13h-475q22 -270 137 -404q114 -134 334 -134q134 0 235 49q15 7 19 -8l4 -17q4 -12 -11 -18q-114 -51 -247 -51q-241 0 -368 145q-128 146 -155 438h-157q-13 0 -13 13z" />
<glyph unicode="&#x2122;" horiz-adv-x="1126" d="M82 1403v20q0 11 10 11h328q10 0 10 -11v-20q0 -10 -10 -10h-141v-609q0 -10 -11 -10h-22q-10 0 -10 10v609h-144q-10 0 -10 10zM526 784v639q0 11 11 11h30q8 0 13 -7l192 -393l193 393q2 7 10 7h31q10 0 10 -11v-639q0 -10 -10 -10h-21q-10 0 -10 10v580l-184 -371 q-14 -14 -19 -14q-11 0 -18 14l-187 371v-580q0 -10 -10 -10h-20q-11 0 -11 10z" />
<glyph unicode="&#x25fc;" horiz-adv-x="1054" d="M0 0v1055h1055v-1055h-1055z" />
</font>
</defs>
</svg>
