<?xml version="1.0" standalone="no"?>
<!DOCTYPE svg PUBLIC "-//W3C//DTD SVG 1.1//EN" "http://www.w3.org/Graphics/SVG/1.1/DTD/svg11.dtd" >
<svg xmlns="http://www.w3.org/2000/svg" xmlns:xlink="http://www.w3.org/1999/xlink" version="1.1">
<metadata></metadata>
<defs>
<font id="amsipronarw-boldiuploadedfile" horiz-adv-x="1107" >
<font-face units-per-em="2048" ascent="1753" descent="-295" />
<missing-glyph horiz-adv-x="483" />
<glyph unicode="&#xfb01;" horiz-adv-x="1097" d="M90 43l146 815h-89q-42 0 -36 43l22 125q7 45 49 45h90l15 86q29 161 103 231t216 70q92 0 148 -18q33 -10 28 -45l-18 -99q-6 -43 -47 -43q-58 7 -72 7q-94 0 -115 -121l-10 -68h522q44 0 37 -45l-172 -981q-7 -45 -51 -45h-162q-47 0 -41 45l146 813h-316l-143 -815 q-7 -43 -51 -43h-158q-47 0 -41 43zM866 1251l27 148q7 43 51 43h162q47 0 41 -43l-27 -148q-7 -43 -51 -43h-162q-47 0 -41 43z" />
<glyph unicode="&#xfb02;" horiz-adv-x="1097" d="M90 43l146 815h-89q-42 0 -36 43l22 125q7 45 49 45h90l9 49q33 184 137 263t344 79q214 0 346 -41q39 -15 35 -53l-234 -1323q-7 -45 -51 -45h-162q-46 0 -39 45l211 1204q-58 11 -133 11q-101 0 -147 -33q-48 -34 -60 -109l-8 -47h119q45 0 37 -45l-21 -123 q-7 -45 -51 -45h-121l-143 -815q-7 -43 -51 -43h-158q-47 0 -41 43z" />
<glyph unicode="&#xfb03;" horiz-adv-x="1660" d="M90 43l146 815h-89q-42 0 -36 43l22 125q7 45 49 45h90l15 90q29 160 104 228q77 69 219 69q95 0 140 -18q33 -10 28 -45l-16 -99q-6 -45 -47 -43q-65 7 -68 7q-48 0 -75 -27q-26 -26 -37 -90l-13 -72h316l16 90q29 160 103 228q75 69 219 69q94 0 143 -18q33 -11 29 -45 l-17 -99q-6 -47 -49 -43q-65 7 -68 7q-49 0 -76 -27q-28 -28 -38 -90l-13 -72h519q46 0 39 -45l-172 -981q-7 -45 -52 -45h-164q-43 0 -36 45l143 813h-315l-144 -815q-7 -43 -49 -43h-160q-46 0 -39 43l144 815h-318l-143 -815q-7 -43 -51 -43h-158q-47 0 -41 43z M1432 1251l26 148q7 43 51 43h162q46 0 39 -43l-27 -148q-6 -43 -49 -43h-164q-45 0 -38 43z" />
<glyph unicode="&#xfb04;" horiz-adv-x="1662" d="M90 43l146 815h-89q-42 0 -36 43l22 125q7 45 49 45h90l15 90q29 160 104 228q77 69 219 69q95 0 140 -18q33 -10 28 -45l-16 -99q-6 -48 -47 -43q-65 7 -68 7q-48 0 -75 -27q-26 -26 -37 -90l-13 -72h316l8 49q33 187 137 264q105 78 344 78q212 0 344 -41 q42 -15 35 -53l-233 -1323q-7 -45 -50 -45h-163q-46 0 -39 45l213 1204q-58 11 -134 11q-100 0 -146 -33t-58 -109l-9 -47h117q45 0 39 -45l-22 -123q-7 -45 -52 -45h-120l-144 -815q-7 -43 -49 -43h-160q-46 0 -39 43l144 815h-318l-143 -815q-7 -43 -51 -43h-158 q-47 0 -41 43z" />
<glyph horiz-adv-x="0" />
<glyph unicode="&#xd;" horiz-adv-x="681" />
<glyph unicode=" "  horiz-adv-x="483" />
<glyph unicode="&#x09;" horiz-adv-x="483" />
<glyph unicode="&#xa0;" horiz-adv-x="483" />
<glyph unicode="!" horiz-adv-x="548" d="M63 47l33 193q8 45 56 45h180q46 0 39 -45l-35 -193q-8 -47 -51 -47h-183q-47 0 -39 47zM172 479l117 916q6 47 53 47h205q47 0 39 -47l-205 -916q-11 -45 -53 -45h-117q-49 0 -39 45z" />
<glyph unicode="&#x22;" horiz-adv-x="718" d="M233 932l9 342q0 62 12 123q10 49 37 70q28 22 86 22q110 0 92 -92q-12 -61 -33 -123l-108 -342h-95zM557 932l8 342q4 79 13 123q11 50 36 70q28 22 86 22q111 0 93 -92q-6 -34 -31 -123l-111 -342h-94z" />
<glyph unicode="#" horiz-adv-x="1165" d="M25 440l12 66q6 47 53 47h164l147 334h-122q-43 0 -35 45l10 67q8 45 51 45h166l168 381q18 43 59 31l72 -20q43 -10 25 -56l-150 -336h248l170 381q18 43 59 31l72 -20q46 -12 25 -56l-150 -336h121q44 0 37 -45l-10 -67q-7 -45 -54 -45h-164l-147 -334h121q45 0 39 -47 l-13 -66q-7 -45 -53 -45h-166l-164 -377q-22 -44 -59 -32l-74 22q-45 12 -22 53l147 334h-252l-163 -377q-18 -45 -60 -32l-74 22q-44 10 -22 53l147 334h-121q-45 0 -38 45zM428 553h250l145 334h-248z" />
<glyph unicode="$" horiz-adv-x="1034" d="M10 66q-5 9 2 36l56 129q21 52 67 31q132 -47 250 -47q115 0 207 50t92 155q0 57 -43 96q-45 41 -143 96l-10 6q-1 0 -4 2.5t-5 3.5l-10 5q-133 73 -211 161q-76 86 -76 228q0 188 116 299q115 111 320 139l25 139q6 41 49 41h80q42 0 35 -43l-23 -133q149 -6 250 -49 q43 -18 25 -61l-53 -125q-21 -49 -66 -33q-105 37 -227 37q-101 0 -177 -46q-77 -47 -77 -141q0 -44 33 -84q34 -41 67 -63q36 -24 105 -64q83 -49 115 -72q38 -28 88 -77q47 -47 68 -105q21 -59 21 -133q0 -182 -114 -299q-113 -116 -310 -151l-24 -146q-7 -43 -51 -43h-78 q-43 0 -37 43l23 136q-199 1 -322 59q-27 12 -33 23z" />
<glyph unicode="%" horiz-adv-x="1710" d="M150 909q0 53 10 127q76 420 377 420q130 0 202 -76t72 -217q0 -37 -12 -131q-72 -420 -377 -420q-129 0 -201 77q-71 75 -71 220zM319 45l959 1360q28 37 65 37h119q44 0 17 -43l-961 -1362q-30 -37 -63 -37h-119q-47 0 -17 45zM344 913q0 -129 92 -129q62 0 102 60 q39 58 62 190q14 80 14 123q0 129 -92 129q-122 0 -166 -252q-12 -74 -12 -121zM989 281q0 61 12 129q72 421 375 421q132 0 203 -75q72 -76 72 -219q0 -51 -13 -131q-72 -418 -376 -418q-130 0 -201 75q-72 76 -72 218zM1184 287q0 -129 90 -129q123 0 166 250 q12 78 12 124q0 127 -88 127q-125 0 -168 -251q-12 -73 -12 -121z" />
<glyph unicode="&#x26;" horiz-adv-x="1308" d="M57 352q0 178 103 311q102 132 284 199l-24 45q-53 95 -53 211q0 172 115 259q116 87 309 87q140 0 229 -37q48 -17 33 -57l-41 -102q-17 -48 -68 -33q-63 20 -139 20q-85 0 -141 -34q-58 -35 -58 -115q0 -63 53 -148l299 -514q70 103 70 265q0 47 47 47h133q35 0 35 -60 q0 -233 -170 -442l127 -207q10 -17 2 -33q-7 -14 -28 -14h-179q-42 0 -49 14l-51 88q-155 -118 -375 -118q-208 0 -335 99q-128 99 -128 269zM326 395q0 -86 62 -138t179 -52q134 0 221 71l-243 418q-98 -40 -158 -116q-61 -77 -61 -183z" />
<glyph unicode="'" horiz-adv-x="395" d="M233 932l9 342q0 62 12 123q10 49 37 70q28 22 86 22q110 0 92 -92q-12 -61 -33 -123l-108 -342h-95z" />
<glyph unicode="(" horiz-adv-x="657" d="M123 375q0 281 122 560q121 277 330 501q26 26 58 26h119q22 0 25 -16t-9 -31q-184 -229 -288 -506q-105 -279 -105 -563q0 -292 110 -536q6 -18 -2 -34t-30 -16h-119q-30 0 -49 25q-162 269 -162 590z" />
<glyph unicode=")" horiz-adv-x="657" d="M-71 -223q-3 17 12 33q180 226 288 505q107 277 107 564q0 289 -113 536q-6 16 2 32q7 15 31 15h121q33 0 47 -26q162 -264 162 -586q0 -281 -122 -561q-122 -279 -333 -504q-22 -25 -55 -25h-121q-23 0 -26 17z" />
<glyph unicode="*" horiz-adv-x="798" d="M169 990q13 23 50 44q23 12 97 36q86 27 110 38q-24 11 -91 36q-68 25 -89 40q-35 23 -35 47q0 21 25 55q49 65 108 31q18 -13 67 -65q46 -49 70 -70q1 33 0 112q-2 81 4 95q6 40 27 58q20 17 63 17q44 0 57 -17t5 -58q-5 -27 -33 -102q-31 -83 -37 -105q75 52 97 69 q66 50 92 64q69 39 98 -29q22 -66 -47 -104q-25 -14 -102 -38q-79 -25 -107 -36q27 -14 95 -39q61 -22 87 -37q57 -39 8 -102q-51 -68 -106 -29q-25 17 -71 64q-50 52 -68 67q-2 -34 1 -111q3 -84 -3 -96q-6 -38 -27 -56q-20 -17 -63 -17q-44 0 -57 17t-7 56q5 21 34 101 q31 85 36 106q-36 -23 -95 -67q-66 -50 -92 -64q-71 -38 -98 29q-15 39 -3 60z" />
<glyph unicode="+" d="M129 653l23 123q1 43 49 43h299l55 324q7 45 51 45h146q44 0 36 -45l-57 -324h295q42 0 41 -43l-23 -123q-10 -43 -51 -43h-299l-59 -331q-6 -46 -49 -46h-146q-45 0 -37 46l60 331h-297q-47 0 -37 43z" />
<glyph unicode="," horiz-adv-x="454" d="M8 -219q-5 12 6 29l95 190h-48q-47 0 -41 47l35 186q8 46 54 46h167q47 0 41 -46l-30 -170q-5 -30 -21 -57l-131 -211q-17 -26 -45 -26h-61q-17 0 -21 12z" />
<glyph unicode="-" horiz-adv-x="688" d="M78 506l20 123q7 43 52 43h454q47 0 41 -43l-22 -123q-7 -43 -52 -43h-458q-42 0 -35 43z" />
<glyph unicode="." horiz-adv-x="454" d="M20 47l35 186q8 46 54 46h167q47 0 41 -46l-34 -186q-8 -47 -52 -47h-170q-47 0 -41 47z" />
<glyph unicode="/" horiz-adv-x="792" d="M-59 15q-8 17 6 38l743 1348q24 41 64 41h151q29 0 37 -15q8 -16 -6 -38l-746 -1348q-24 -41 -63 -41h-152q-27 0 -34 15z" />
<glyph unicode="0" horiz-adv-x="1196" d="M109 453q0 128 26 270q67 386 221 564q153 177 398 177q201 0 311 -116q111 -117 111 -359q0 -103 -27 -266q-67 -387 -222 -564t-399 -177q-201 0 -310 115t-109 356zM379 465q0 -250 174 -250q120 0 200 119q78 116 128 387q26 146 26 254q0 254 -178 254 q-118 0 -198 -119q-78 -116 -125 -387q-27 -139 -27 -258z" />
<glyph unicode="1" horiz-adv-x="874" d="M172 1096q-21 27 12 51l381 276q30 19 64 19h174q49 0 41 -47l-238 -1346q-7 -49 -53 -49h-170q-50 0 -43 49l195 1100l-238 -162q-34 -21 -53 4z" />
<glyph unicode="2" horiz-adv-x="1099" d="M10 47l19 109q7 38 45 59q147 100 252 181q109 84 236 205q128 122 197 247q70 127 70 246q0 143 -163 143q-114 0 -173 -71t-59 -177q0 -76 -49 -76h-154q-43 0 -43 68q0 219 146 351t358 132q206 0 308 -96t102 -246q0 -132 -65 -271q-64 -137 -173 -255 q-106 -115 -212 -204q-101 -85 -218 -165h479q19 0 32 -13t9 -34l-24 -133q-8 -47 -53 -47h-826q-49 0 -41 47z" />
<glyph unicode="3" horiz-adv-x="1032" d="M-14 96l53 133q18 46 61 31q150 -51 275 -51q137 0 221 75t84 210q0 145 -191 145h-127q-48 0 -40 45l22 125q8 45 55 45h119q109 0 175 72q67 73 67 174q0 137 -191 137q-135 0 -286 -49q-50 -17 -50 29l-8 126q-2 38 43 56q170 65 355 65q177 0 292 -80t115 -225 q0 -131 -64 -238t-182 -151q72 -27 117 -94q45 -68 45 -168q0 -259 -154 -392q-155 -134 -411 -134q-232 0 -373 63q-37 16 -22 51z" />
<glyph unicode="4" horiz-adv-x="1163" d="M41 352l22 129q6 37 29 60l735 870q28 31 62 31h176q49 0 41 -47l-154 -871h140q47 0 41 -47l-23 -125q-8 -47 -53 -47h-142l-47 -256q-7 -49 -53 -49h-168q-48 0 -41 49l47 256h-573q-47 0 -39 47zM301 524h391l105 592z" />
<glyph unicode="5" horiz-adv-x="1056" d="M-6 102l53 129q17 46 62 31q142 -53 274 -53q158 0 245 91q87 92 87 245q0 160 -201 160q-80 0 -165 -22q-81 -21 -93 -21q-14 0 -31 6l-61 24q-24 10 -12 47q91 345 149 656q8 47 55 47h662q48 0 41 -45l-23 -135q-8 -45 -55 -45h-492q-30 -150 -79 -336q91 30 196 30 q188 0 282 -90q95 -90 95 -243q0 -284 -164 -440q-163 -156 -436 -156q-237 0 -367 63q-37 18 -22 57z" />
<glyph unicode="6" horiz-adv-x="1140" d="M102 442q0 95 23 238q63 385 224 585q160 199 454 199q167 0 260 -43q41 -15 29 -49l-48 -131q-12 -45 -59 -33q-108 33 -184 33q-166 0 -256 -103q-89 -103 -139 -323q111 146 315 146q178 0 268 -102t90 -261q0 -254 -151 -435t-393 -181q-217 0 -324 122 q-109 124 -109 338zM365 420q0 -90 48 -153q47 -62 142 -62q129 0 201 114q71 112 71 252q0 83 -45 132q-46 51 -137 51q-128 0 -205 -104q-75 -101 -75 -230z" />
<glyph unicode="7" horiz-adv-x="1013" d="M170 47q67 296 251 627q187 336 376 543h-555q-47 0 -39 47l22 131q6 47 54 47h790q47 0 41 -47l-20 -119q-4 -26 -46 -72q-202 -258 -374 -570q-171 -310 -226 -587q-8 -47 -53 -47h-180q-52 0 -41 47z" />
<glyph unicode="8" horiz-adv-x="1134" d="M57 307q0 161 96 275q95 113 253 166q-92 40 -142 115q-51 76 -51 173q0 213 148 321q147 107 366 107q191 0 303 -83q111 -83 111 -224q0 -144 -86 -250q-83 -102 -226 -159q97 -38 156 -115t59 -193q0 -224 -159 -343q-157 -117 -389 -117q-211 0 -324 91 q-115 92 -115 236zM326 350q0 -70 50 -114q49 -43 146 -43q116 0 188 69t72 176q0 152 -182 215q-274 -99 -274 -303zM469 1038q0 -135 164 -198q248 95 248 282q0 66 -45 103q-44 37 -134 37q-106 0 -170 -62q-63 -62 -63 -162z" />
<glyph unicode="9" horiz-adv-x="1140" d="M143 74l47 129q15 41 60 30q105 -32 184 -32q163 0 252 98q90 99 139 315q-106 -133 -315 -133q-177 0 -268 100q-90 99 -90 259q0 257 148 439q148 183 396 183q215 0 323 -122q107 -120 107 -341q0 -118 -26 -262q-68 -377 -223 -567q-156 -190 -443 -190 q-175 0 -264 40q-42 17 -27 54zM401 874q0 -85 46 -135q47 -51 139 -51q131 0 206 104q74 102 74 234q0 92 -49 151q-49 60 -145 60q-127 0 -199 -116q-72 -115 -72 -247z" />
<glyph unicode=":" horiz-adv-x="518" d="M53 47l33 186q8 46 53 46h168q49 0 41 -46l-33 -186q-8 -47 -53 -47h-170q-47 0 -39 47zM197 862l34 187q6 47 54 47h166q52 0 41 -47l-33 -187q-7 -45 -53 -45h-170q-46 0 -39 45z" />
<glyph unicode=";" horiz-adv-x="518" d="M45 -190l96 190h-49q-47 0 -39 47l33 186q8 46 53 46h168q49 0 41 -46l-31 -170q-5 -32 -20 -57l-129 -211q-17 -26 -47 -26h-60q-39 0 -16 41zM197 862l34 187q6 47 54 47h166q52 0 41 -47l-33 -187q-7 -45 -53 -45h-170q-46 0 -39 45z" />
<glyph unicode="&#x3c;" d="M162 713q5 24 26 41l748 563q41 31 65 -2l70 -101q21 -32 -14 -61l-592 -442l436 -441q24 -29 -8 -61l-105 -100q-37 -29 -63 -3l-549 566q-18 18 -14 41z" />
<glyph unicode="=" d="M121 444l20 117q7 43 49 43h771q44 0 38 -43l-20 -117q-7 -43 -51 -43h-770q-43 0 -37 43zM195 868l20 117q7 45 51 45h770q43 0 37 -45l-20 -117q-6 -43 -52 -43h-770q-42 0 -36 43z" />
<glyph unicode="&#x3e;" d="M125 211q-22 34 12 61l594 441l-438 442q-25 25 8 62l100 98q39 33 64 4l555 -565q14 -15 14 -41q-1 -20 -28 -41l-754 -566q-37 -30 -64 3z" />
<glyph unicode="?" horiz-adv-x="929" d="M215 1350q-2 35 43 51q140 63 320 63q189 0 287 -79q100 -80 100 -218q0 -92 -36 -176q-36 -83 -89 -144q-47 -54 -108 -113q-54 -52 -96 -105t-50 -99l-11 -51q-6 -45 -53 -45h-145q-47 0 -41 47l10 49q16 73 74 152q55 75 117 134q60 57 106 137q47 82 47 163 q0 117 -172 117q-92 0 -244 -45q-46 -15 -51 26zM238 47l34 193q6 45 54 45h180q48 0 41 -45l-35 -193q-11 -47 -51 -47h-182q-49 0 -41 47z" />
<glyph unicode="@" horiz-adv-x="1751" d="M92 295q0 395 269 670q270 276 683 276q318 0 478 -134q159 -133 159 -359q0 -156 -55 -305q-56 -151 -180 -263t-291 -112h-121q-49 0 -49 34l4 103q-106 -142 -258 -142q-122 0 -199 77q-75 75 -75 202q0 252 159 430t431 178q155 0 276 -59q30 -15 20 -45l-202 -639 h39q116 0 200 92t119 211q35 120 35 238q0 362 -498 362q-337 0 -564 -227q-228 -228 -228 -580q0 -204 139 -303q138 -98 422 -98q213 0 375 49q14 4 22 -2t6 -23v-65q-2 -25 -26 -31q-186 -59 -383 -59q-336 0 -521 133q-186 133 -186 391zM678 381q0 -63 29 -101t81 -38 q157 0 230 229l92 289q-36 14 -96 14q-156 0 -246 -118t-90 -275z" />
<glyph unicode="A" horiz-adv-x="1193" d="M-34 15q-9 16 1 38l613 1342q12 27 25 37t44 10h236q50 0 55 -47l139 -1342q5 -23 -9 -38t-36 -15h-178q-43 0 -49 45l-25 272h-415l-121 -272q-21 -45 -60 -45h-186q-25 0 -34 15zM457 551h315l-43 623h-6z" />
<glyph unicode="B" horiz-adv-x="1198" d="M47 49l238 1346q8 47 55 47h416q442 0 442 -299q0 -127 -60 -231q-60 -103 -182 -150q74 -23 119 -92t45 -176q0 -239 -152 -366q-154 -128 -413 -128h-465q-44 0 -44 38q0 5 1 11zM342 227h217q136 0 215 66q80 66 80 199q0 74 -51 109q-50 34 -166 34h-221zM453 848 h206q121 0 193 60t72 182q0 67 -47 97t-152 30h-207z" />
<glyph unicode="C" horiz-adv-x="1054" d="M102 457q0 115 27 266q69 394 235 568q165 173 447 173q187 0 293 -57q31 -16 31 -39q0 -9 -5 -20l-57 -127q-13 -35 -42 -35q-10 0 -23 4q-82 33 -181 33q-181 0 -278 -112q-96 -111 -146 -388q-24 -135 -24 -223q0 -150 67 -214q68 -65 213 -65q96 0 195 37q14 6 24 6 q27 0 31 -39l15 -127q2 -35 -47 -57q-126 -61 -285 -61q-490 0 -490 477z" />
<glyph unicode="D" horiz-adv-x="1198" d="M47 49l238 1346q6 47 55 47h324q262 0 393 -110t131 -359q0 -111 -23 -238q-69 -406 -238 -570q-169 -165 -478 -165h-361q-42 0 -42 37q0 6 1 12zM350 242h121q173 0 272 105t150 388q20 111 20 201q0 148 -68 206t-210 58h-117z" />
<glyph unicode="E" horiz-adv-x="989" d="M47 49l238 1346q6 47 53 47h686q44 0 44 -37q0 -5 -1 -10l-27 -142q-6 -49 -55 -49h-469l-61 -354h444q42 0 42 -39q0 -5 -1 -10l-25 -131q-6 -49 -53 -49h-448l-68 -383h473q44 0 44 -36q0 -6 -1 -12l-24 -141q-12 -49 -56 -49h-692q-44 0 -44 38q0 5 1 11z" />
<glyph unicode="F" horiz-adv-x="960" d="M47 49l238 1346q6 47 55 47h678q44 0 44 -36q0 -4 -1 -9l-25 -144q-7 -49 -55 -49h-461l-67 -381h440q42 0 42 -37q0 -5 -1 -12l-25 -137q-8 -47 -53 -47h-444l-97 -541q-7 -49 -55 -49h-170q-45 0 -45 35q0 6 2 14z" />
<glyph unicode="G" horiz-adv-x="1202" d="M102 457q0 106 29 268q69 398 244 569q175 170 489 170q204 0 318 -63q30 -17 30 -41q0 -9 -4 -19l-55 -127q-13 -35 -44 -35q-12 0 -26 5q-106 39 -217 39q-212 0 -313 -109q-100 -108 -150 -391q-24 -137 -24 -229q0 -151 68 -213q70 -64 215 -64q75 0 147 25l72 403 h-172q-44 0 -44 37q0 5 1 10l20 123q11 47 57 47h371q43 0 43 -32q0 -7 -2 -15l-121 -684q-8 -50 -57 -74q-144 -77 -365 -77q-251 0 -380 113q-130 114 -130 364z" />
<glyph unicode="H" horiz-adv-x="1218" d="M47 49l238 1346q6 47 55 47h172q42 0 42 -35q0 -6 -1 -12l-94 -537h438l92 537q8 47 55 47h175q42 0 42 -37q0 -5 -1 -10l-238 -1346q-7 -49 -53 -49h-174q-44 0 -44 38q0 5 1 11l100 563h-436l-101 -563q-7 -49 -53 -49h-172q-44 0 -44 38q0 5 1 11z" />
<glyph unicode="I" horiz-adv-x="534" d="M57 49l238 1346q8 47 55 47h172q44 0 44 -37q0 -5 -1 -10l-237 -1346q-7 -49 -56 -49h-172q-44 0 -44 38q0 5 1 11z" />
<glyph unicode="J" horiz-adv-x="821" d="M-27 94l54 131q14 36 43 36q7 0 16 -3q68 -31 147 -31q83 0 131 49q47 48 68 166l168 953q8 47 55 47h172q42 0 42 -35q0 -5 -1 -12l-172 -983q-39 -226 -146 -327t-304 -101q-155 0 -246 47q-32 15 -32 41q0 10 5 22z" />
<glyph unicode="K" horiz-adv-x="1120" d="M47 49l238 1346q6 47 55 47h172q42 0 42 -35q0 -6 -1 -12l-86 -486l448 494q35 39 74 39h219q27 0 32 -19t-11 -39l-570 -610l347 -715q13 -24 1 -41q-12 -18 -38 -18h-189q-44 0 -61 45l-293 617l-111 -613q-7 -49 -53 -49h-172q-44 0 -44 38q0 5 1 11z" />
<glyph unicode="L" horiz-adv-x="937" d="M47 49l238 1346q6 47 55 47h172q42 0 42 -35q0 -6 -1 -12l-203 -1149h430q43 0 43 -32q0 -7 -2 -15l-26 -150q-7 -49 -54 -49h-651q-44 0 -44 38q0 5 1 11z" />
<glyph unicode="M" horiz-adv-x="1425" d="M47 49l238 1346q6 47 55 47h154q44 0 55 -31l211 -643l438 643q22 31 59 31h168q42 0 42 -35q0 -6 -1 -12l-237 -1346q-7 -49 -53 -49h-168q-42 0 -42 37q0 5 1 12l159 909l-383 -563q-16 -28 -49 -28q-31 0 -41 28l-182 563l-162 -909q-7 -49 -53 -49h-166q-44 0 -44 38 q0 5 1 11z" />
<glyph unicode="N" horiz-adv-x="1234" d="M47 49l238 1346q6 47 55 47h158q44 0 59 -35l301 -909l158 897q6 47 53 47h164q46 0 46 -36q0 -4 -1 -9l-240 -1348q-7 -49 -55 -49h-158q-45 0 -57 37l-303 907l-158 -895q-7 -49 -53 -49h-164q-44 0 -44 38q0 5 1 11z" />
<glyph unicode="O" horiz-adv-x="1245" d="M100 451q0 103 27 272q69 395 228 568t425 173q453 0 453 -471q0 -106 -27 -272q-72 -395 -228 -568t-423 -173q-455 0 -455 471zM375 471q0 -130 50 -192t153 -62q138 0 223 115t131 389q26 146 26 250q0 132 -50 194t-152 62q-137 0 -221 -116q-85 -116 -134 -390 q-26 -146 -26 -250z" />
<glyph unicode="P" horiz-adv-x="1148" d="M47 49l238 1346q11 47 53 47h350q239 0 355 -83t116 -274q0 -81 -14 -155q-45 -285 -184 -398q-139 -114 -418 -114h-162l-66 -369q-7 -49 -55 -49h-170q-45 0 -45 35q0 6 2 14zM422 655h143q142 0 212 59q68 58 95 216q13 72 13 110q0 90 -52 127t-171 37h-144z" />
<glyph unicode="Q" horiz-adv-x="1243" d="M102 461q0 99 27 266q69 392 227 565q157 172 424 172q455 0 455 -469q0 -122 -29 -270q-100 -559 -442 -676q61 -26 143 -26q9 0 39 2t31 2q22 1 31 -7q8 -8 6 -30l-23 -121q-7 -51 -71 -51q-269 0 -441 178q-377 24 -377 465zM375 477q0 -252 205 -252q137 0 220 116 q82 115 132 386q26 140 26 244q0 256 -204 256q-137 0 -220 -116q-85 -119 -131 -384q-28 -159 -28 -250z" />
<glyph unicode="R" horiz-adv-x="1155" d="M47 49l238 1346q6 47 55 47h360q240 0 357 -81t117 -263q0 -76 -15 -148q-63 -362 -364 -434l196 -457q11 -23 0 -41t-37 -18h-170q-48 0 -63 39l-182 438h-148l-76 -428q-7 -49 -55 -49h-170q-44 0 -44 38q0 5 1 11zM432 707h160q144 0 209 56q66 57 88 191q8 53 8 95 q0 85 -51 120q-52 35 -170 35h-158z" />
<glyph unicode="S" horiz-adv-x="1001" d="M4 57q-6 10 2 37l53 131q16 37 45 37q10 0 21 -4q111 -43 248 -43q111 0 193 49q83 50 83 152q0 61 -46 107q-47 47 -146 106q-129 70 -200 157q-73 90 -73 218q0 223 137 342q136 118 379 118q196 0 306 -49q33 -13 33 -37q0 -9 -5 -20l-53 -129q-16 -37 -45 -37 q-10 0 -21 4q-84 33 -213 33q-241 0 -241 -187q0 -61 45 -106q46 -46 139 -105q141 -85 209 -166q72 -85 72 -214q0 -221 -149 -346q-147 -123 -390 -123q-229 0 -352 53q-26 13 -31 22z" />
<glyph unicode="T" horiz-adv-x="970" d="M184 1247l27 148q6 47 53 47h780q42 0 42 -35q0 -6 -1 -12l-24 -148q-7 -49 -57 -49h-256l-203 -1149q-7 -49 -53 -49h-173q-44 0 -44 38q0 5 1 11l203 1149h-254q-42 0 -42 37q0 6 1 12z" />
<glyph unicode="U" horiz-adv-x="1198" d="M100 340q0 51 13 129l163 926q8 47 56 47h172q42 0 42 -35q0 -6 -1 -12l-158 -897q-10 -63 -10 -103q0 -88 43 -130q44 -42 135 -42q117 0 178 66q62 67 86 207l160 899q6 47 53 47h172q42 0 42 -35q0 -6 -1 -12l-164 -926q-44 -253 -174 -371t-375 -118q-432 0 -432 360 z" />
<glyph unicode="V" horiz-adv-x="1179" d="M209 1389v9q0 44 47 44h182q47 0 47 -45l56 -799l6 -317h6l121 317l336 799q18 45 59 45h193q24 0 33 -15t-3 -38l-594 -1338q-27 -51 -69 -51h-240q-53 0 -55 51z" />
<glyph unicode="W" horiz-adv-x="1832" d="M219 1389v9q0 44 45 44h182q46 0 48 -45l22 -723l4 -350h6l129 352l281 721q16 45 63 45h166q49 0 54 -45l24 -721l8 -352h6l127 350l277 723q15 45 59 45h187q39 0 39 -26q0 -11 -7 -27l-542 -1338q-24 -51 -70 -51h-217q-54 0 -55 51l-35 617l-8 336h-4l-127 -336 l-248 -617q-21 -51 -70 -51h-219q-49 0 -55 51z" />
<glyph unicode="X" horiz-adv-x="1142" d="M-32 18q-8 18 9 39l490 672l-246 657q-6 21 4 38q11 18 33 18h188q45 0 60 -41l151 -445l306 445q24 41 69 41h193q24 0 30 -19t-10 -37l-477 -655l252 -674q8 -24 -3 -40q-11 -17 -36 -17h-184q-44 0 -60 43l-157 459l-320 -459q-28 -43 -72 -43h-188q-24 0 -32 18z" />
<glyph unicode="Y" horiz-adv-x="1155" d="M207 1384q-6 23 4 40q11 18 39 18h180q45 0 55 -43l103 -424l37 -205h2l110 205l252 424q24 43 68 43h186q29 0 35 -19t-8 -39l-545 -845l-88 -490q-7 -49 -55 -49h-172q-42 0 -42 37q0 6 1 12l86 490z" />
<glyph unicode="Z" horiz-adv-x="1052" d="M10 49l25 141q7 39 39 74l698 934h-491q-41 0 -41 34q0 7 2 15l26 148q6 47 54 47h751q42 0 42 -35q0 -6 -1 -12l-24 -142q-7 -39 -37 -75l-697 -934h521q42 0 42 -37q0 -5 -1 -10l-29 -148q-7 -49 -51 -49h-787q-42 0 -42 37q0 6 1 12z" />
<glyph unicode="[" horiz-adv-x="657" d="M49 -180l279 1579q7 43 51 43h334q46 0 39 -43l-19 -109q-6 -45 -51 -45h-141l-226 -1274h140q44 0 37 -43l-19 -108q-6 -45 -51 -45h-334q-46 0 -39 45z" />
<glyph unicode="\" horiz-adv-x="792" d="M190 1389q-6 53 46 53h133q42 0 53 -41l270 -1348q6 -53 -47 -53h-137q-38 0 -49 41z" />
<glyph unicode="]" horiz-adv-x="661" d="M-43 -180l18 108q7 43 54 43h141l225 1274h-139q-45 0 -39 45l19 109q7 43 51 43h334q45 0 38 -43l-278 -1579q-6 -45 -51 -45h-334q-45 0 -39 45z" />
<glyph unicode="^" d="M144 724q-7 14 12 40l432 641q27 37 63 37h144q43 0 55 -37l207 -641q8 -26 -3 -40q-12 -15 -38 -15h-144q-41 0 -53 39l-135 438l-289 -438q-27 -39 -65 -39h-154q-24 0 -32 15z" />
<glyph unicode="_" horiz-adv-x="935" d="M-78 -180l8 59q8 45 52 45h776q44 0 37 -45l-11 -59q-6 -45 -49 -45h-776q-45 0 -37 45z" />
<glyph unicode="`" horiz-adv-x="632" d="M289 1430q7 16 30 16h191q36 0 47 -33l53 -168q10 -37 -30 -37h-91q-34 0 -57 25l-139 164q-12 16 -4 33z" />
<glyph unicode="a" horiz-adv-x="997" d="M23 244q0 88 24 157q24 70 74 115q53 48 106 76q56 30 139 48q77 17 153 25q54 6 167 11l12 67q5 27 5 50q0 49 -25 75q-38 39 -137 39q-121 0 -267 -51q-19 -5 -34 2t-13 29l-4 119q0 36 41 53q144 57 328 57q360 0 360 -272q0 -48 -8 -94l-125 -705q-7 -45 -49 -45 h-137q-23 0 -33 10t-8 29l10 94q-112 -147 -303 -147q-129 0 -203 69q-73 69 -73 189zM268 276q0 -106 119 -106q103 0 168 64q66 64 84 165l20 117q-201 -12 -297 -62q-94 -49 -94 -178z" />
<glyph unicode="b" horiz-adv-x="1110" d="M37 45l239 1354q7 43 52 43h161q42 0 42 -33q0 -5 -1 -10l-75 -426q100 145 290 145q324 0 324 -364q0 -102 -20 -205q-51 -294 -167 -431q-115 -136 -304 -136q-99 0 -179 41t-98 110l-22 -94q-12 -39 -52 -39h-149q-42 0 -42 35q0 5 1 10zM362 395q0 -202 166 -202 q104 0 167 82q63 83 98 274q18 122 18 170q0 99 -39 142q-39 44 -119 44q-213 0 -274 -356q-17 -82 -17 -154z" />
<glyph unicode="c" horiz-adv-x="868" d="M70 369q0 59 18 184q99 565 543 565q165 0 248 -45q25 -12 25 -35q0 -10 -5 -22l-53 -119q-12 -29 -40 -29q-10 0 -22 4q-72 25 -139 25q-123 0 -195 -81q-75 -84 -104 -265q-16 -92 -16 -152q0 -198 188 -198q78 0 166 30q13 5 22 5q24 0 27 -29l10 -121q1 -34 -43 -55 q-101 -49 -225 -49q-191 0 -298 97t-107 290z" />
<glyph unicode="d" horiz-adv-x="1110" d="M68 344q0 99 20 205q99 569 475 569q94 0 171 -41q76 -40 97 -104l76 426q7 43 51 43h162q42 0 42 -33q0 -5 -1 -10l-239 -1354q-8 -45 -52 -45h-149q-23 0 -33 9q-10 8 -8 30l12 94q-99 -151 -295 -151q-329 0 -329 362zM328 377q0 -184 157 -184q214 0 277 356 q14 78 14 153q0 203 -166 203q-105 0 -168 -83q-63 -82 -96 -273q-18 -122 -18 -172z" />
<glyph unicode="e" horiz-adv-x="1009" d="M72 381q0 78 18 180q99 557 526 557q176 0 268 -92q91 -91 91 -260q0 -82 -14 -160l-19 -110q-8 -47 -57 -47h-566q-4 -24 -4 -68q0 -96 61 -149q59 -52 173 -52q113 0 221 41q14 6 24 6q25 0 29 -37l6 -100q0 -39 -45 -57q-132 -53 -272 -53q-214 0 -327 100t-113 301z M346 621h383l2 16q14 77 14 123q0 162 -145 162q-97 0 -158 -72q-62 -72 -96 -229z" />
<glyph unicode="f" horiz-adv-x="657" d="M90 43l146 815h-89q-37 0 -37 33q0 5 1 10l22 125q7 45 49 45h90l15 80q29 167 106 237t230 70q93 0 143 -18q29 -11 25 -45l-17 -105q-6 -43 -47 -43h-2q-33 4 -68 4q-62 0 -88 -26q-27 -27 -39 -97l-8 -57h164q38 0 38 -33q0 -6 -1 -12l-23 -123q-6 -45 -49 -45h-168 l-143 -815q-7 -43 -51 -43h-158q-42 0 -42 34q0 4 1 9z" />
<glyph unicode="g" horiz-adv-x="1060" d="M43 -143l43 110q13 35 39 35q9 0 20 -4q120 -41 238 -41q233 0 272 211l17 88q-90 -141 -273 -141q-146 0 -231 80q-84 79 -84 245q0 88 16 174q90 502 441 502q92 0 164 -42q71 -42 94 -105l20 90q12 39 55 39h144q38 0 38 -35q0 -4 -1 -10l-158 -897 q-69 -402 -508 -402q-223 0 -321 49q-28 12 -28 37q0 8 3 17zM342 475q0 -168 143 -168q191 0 246 309q10 74 10 123q0 179 -149 179q-185 0 -238 -306q-12 -79 -12 -137z" />
<glyph unicode="h" horiz-adv-x="1069" d="M37 45l239 1354q7 43 52 43h161q42 0 42 -33q0 -5 -1 -10l-75 -424q107 143 293 143q134 0 205 -72q71 -73 71 -204q0 -46 -10 -105l-123 -692q-7 -45 -49 -45h-164q-40 0 -40 34q0 5 1 11l117 653q6 38 6 68q0 125 -127 125q-96 0 -158 -65t-80 -175l-106 -606 q-7 -45 -51 -45h-162q-42 0 -42 35q0 5 1 10z" />
<glyph unicode="i" horiz-adv-x="481" d="M39 45l178 1008q7 45 51 45h164q38 0 38 -33q0 -5 -1 -12l-178 -1008q-7 -45 -49 -45h-164q-40 0 -40 34q0 5 1 11zM250 1257l24 136q8 45 52 45h168q39 0 39 -33q0 -6 -1 -12l-24 -136q-8 -47 -49 -47h-170q-40 0 -40 37q0 4 1 10z" />
<glyph unicode="j" horiz-adv-x="514" d="M-137 -178l22 125q2 40 38 40q4 0 9 -1q33 -4 56 -4q41 0 62 24q22 25 32 86l168 961q8 45 51 45h164q38 0 38 -32q0 -6 -1 -13l-174 -996q-28 -163 -95 -228t-206 -65q-89 0 -131 13q-34 7 -33 45zM283 1257l24 136q7 45 51 45h170q40 0 40 -35q0 -5 -1 -10l-24 -136 q-8 -47 -51 -47h-170q-40 0 -40 37q0 4 1 10z" />
<glyph unicode="k" horiz-adv-x="964" d="M37 45l239 1354q7 43 52 43h161q42 0 42 -33q0 -5 -1 -10l-116 -656l321 324q28 31 70 31h205q25 0 30 -20q4 -19 -18 -40l-444 -432l286 -551q10 -20 1 -38q-9 -17 -34 -17h-182q-43 0 -61 37l-221 446l-76 -438q-7 -45 -51 -45h-162q-42 0 -42 35q0 5 1 10z" />
<glyph unicode="l" horiz-adv-x="481" d="M39 45l240 1354q7 43 49 43h164q39 0 39 -32q0 -5 -1 -11l-239 -1354q-7 -45 -49 -45h-164q-40 0 -40 34q0 5 1 11z" />
<glyph unicode="m" horiz-adv-x="1595" d="M33 45l178 1008q6 45 51 45h152q21 0 32 -11q10 -10 9 -28l-9 -90q107 149 281 149q209 0 242 -164q123 164 321 164q130 0 196 -70t66 -198q0 -41 -10 -100l-127 -705q-6 -45 -47 -45h-162q-42 0 -42 35q0 5 1 10l119 660q6 39 6 69q0 117 -110 117q-87 0 -144 -62 t-75 -157l-111 -627q-8 -45 -51 -45h-158q-42 0 -42 33q0 5 1 12l117 660q6 39 6 71q0 115 -109 115q-88 0 -145 -63q-58 -64 -76 -169l-108 -614q-7 -45 -52 -45h-159q-42 0 -42 34q0 5 1 11z" />
<glyph unicode="n" horiz-adv-x="1058" d="M31 45l178 1008q7 45 51 45h150q21 0 32 -11q10 -10 9 -28l-9 -90q113 149 297 149q137 0 205 -71q70 -73 70 -203q0 -46 -10 -105l-123 -694q-7 -45 -52 -45h-161q-42 0 -42 35q0 5 1 10l116 653q9 63 9 72q0 121 -125 121q-94 0 -156 -64t-80 -176l-108 -606 q-7 -45 -52 -45h-161q-40 0 -40 34q0 5 1 11z" />
<glyph unicode="o" horiz-adv-x="1060" d="M70 367q0 79 18 184q99 567 541 567q186 0 287 -97q102 -97 102 -290q0 -89 -17 -182q-51 -288 -185 -428q-133 -139 -355 -139q-187 0 -289 96t-102 289zM326 379q0 -189 155 -189q101 0 165 85t97 274q19 111 19 170q0 188 -156 188q-101 0 -164 -85q-63 -86 -96 -273 q-20 -111 -20 -170z" />
<glyph unicode="p" horiz-adv-x="1105" d="M-6 -180l217 1233q6 45 51 45h150q21 0 32 -11q10 -10 9 -28l-13 -94q46 69 126 111t171 42q326 0 326 -368q0 -81 -19 -201q-51 -291 -165 -429t-304 -138q-99 0 -177 37q-77 36 -99 106l-53 -305q-6 -45 -51 -45h-164q-38 0 -38 32q0 6 1 13zM356 395q0 -202 166 -202 q104 0 167 82q62 81 97 274q19 128 19 170q0 99 -39 142q-39 44 -119 44q-211 0 -274 -356q-17 -97 -17 -154z" />
<glyph unicode="q" horiz-adv-x="1105" d="M68 346q0 99 20 205q51 294 169 430q119 137 306 137q95 0 172 -42q76 -42 103 -111l20 94q12 39 53 39h150q40 0 40 -33q0 -5 -1 -12l-217 -1233q-7 -45 -54 -45h-161q-40 0 -40 35q0 5 1 10l53 303q-88 -141 -287 -141q-156 0 -241 91q-86 92 -86 273zM328 377 q0 -184 157 -184q214 0 277 356q14 78 14 153q0 203 -166 203q-105 0 -168 -83q-63 -82 -96 -273q-18 -122 -18 -172z" />
<glyph unicode="r" horiz-adv-x="710" d="M33 45l178 1008q6 45 51 45h154q40 0 40 -33q0 -4 -1 -10l-17 -133q40 73 120 130q78 56 177 56q38 0 38 -32q0 -5 -1 -11l-33 -191q-10 -38 -45 -38q-1 0 -27 2t-36 2h-4q-90 0 -159 -79q-70 -80 -91 -204l-92 -512q-6 -45 -49 -45h-162q-42 0 -42 34q0 5 1 11z" />
<glyph unicode="s" horiz-adv-x="835" d="M-14 74l43 116q13 33 38 33q9 0 19 -4q94 -33 209 -33q79 0 142 33t63 105q0 47 -37 77q-42 33 -127 76q-105 50 -165 112q-58 59 -58 165q0 181 110 272q112 92 307 92q178 0 275 -41q36 -12 24 -49l-41 -113q-12 -34 -37 -34q-8 0 -18 4q-84 28 -182 28 q-186 0 -186 -127q0 -51 81 -100q22 -14 86 -49q112 -61 165 -125q55 -67 55 -164q0 -183 -119 -275q-118 -91 -322 -91q-193 0 -297 43q-31 9 -31 33q0 7 3 16z" />
<glyph unicode="t" horiz-adv-x="673" d="M100 901l21 125q7 45 53 45h94l41 240q6 41 51 41h154q38 0 38 -30q0 -5 -1 -11l-41 -240h172q40 0 40 -34q0 -5 -1 -11l-21 -123q-8 -45 -53 -45h-174l-90 -510q-8 -56 -8 -67q0 -43 21 -60q20 -16 75 -16q13 0 32 3t29 3q22 2 29 -8q8 -12 4 -33l-10 -119 q-1 -32 -43 -47q-54 -16 -123 -16q-140 0 -205 49t-65 168q0 49 12 112l94 541h-88q-38 0 -38 32q0 5 1 11z" />
<glyph unicode="u" horiz-adv-x="1050" d="M68 248q0 44 10 98l125 707q6 45 51 45h164q38 0 38 -35q0 -5 -1 -10l-117 -654q-6 -37 -6 -69q0 -125 123 -125q89 0 148 62q60 63 81 173l109 613q6 45 51 45h164q37 0 37 -34q0 -5 -1 -11l-178 -1008q-8 -45 -49 -45h-151q-23 0 -34 10q-11 9 -9 29l10 90 q-101 -147 -281 -147q-141 0 -212 68q-72 69 -72 198z" />
<glyph unicode="v" horiz-adv-x="956" d="M137 1047v8q0 43 43 43h166q40 0 45 -45l37 -533l10 -239h6l95 239l223 533q18 45 57 45h178q33 0 33 -25q0 -11 -6 -26l-469 -1006q-23 -41 -61 -41h-193q-46 0 -51 41z" />
<glyph unicode="w" horiz-adv-x="1501" d="M147 1047q0 51 43 51h166q43 0 43 -45l19 -539l-2 -231h6l86 231l223 543q18 41 55 41h138q38 0 43 -41l32 -543l5 -231h4l82 231l206 539q18 45 60 45h174q34 0 34 -23q0 -11 -8 -28l-417 -1002q-23 -45 -64 -45h-176q-51 0 -53 45l-31 465l-10 254h-6l-99 -254 l-194 -465q-18 -45 -64 -45h-176q-46 0 -51 45z" />
<glyph unicode="x" horiz-adv-x="960" d="M-42 15q-5 16 11 36l389 506l-206 487q-8 21 1 37q9 17 29 17h170q45 0 56 -35l118 -318l230 318q23 35 65 35h172q22 0 27 -17t-10 -37l-379 -487l211 -506q10 -17 2 -35q-7 -16 -31 -16h-174q-43 0 -55 35l-119 330l-238 -330q-21 -35 -63 -35h-178q-24 0 -28 15z" />
<glyph unicode="y" horiz-adv-x="954" d="M-25 -172l33 119q15 37 49 37h2t5.5 -1t13.5 -2.5t18 -2.5q37 -5 62 -5q68 0 96 39q21 28 21 70q0 15 -3 33l-131 932q-1 6 -1 11q0 40 42 40h168q43 0 43 -45l49 -539l13 -240h6l88 240l211 539q18 45 59 45h174q35 0 35 -25q0 -11 -6 -26l-434 -969q-74 -177 -157 -246 q-84 -70 -253 -70q-123 0 -174 21q-37 12 -29 45z" />
<glyph unicode="z" horiz-adv-x="901" d="M2 45l16 98q6 31 29 58l537 676h-377q-40 0 -40 35q0 5 1 10l25 131q6 45 51 45h635q40 0 40 -33q0 -6 -1 -12l-19 -99q-1 -27 -31 -61l-530 -674h393q40 0 40 -32q0 -5 -1 -11l-25 -131q-7 -45 -49 -45h-655q-40 0 -40 33q0 5 1 12z" />
<glyph unicode="{" horiz-adv-x="657" d="M61 543l23 131q6 43 51 43h27q50 0 85 74q32 69 66 253q40 233 113 316q72 82 238 82h75q45 0 39 -43l-20 -107q-6 -47 -53 -47h-31q-55 0 -82 -51t-51 -190q-33 -190 -87 -281q-55 -92 -139 -115q107 -30 107 -200q0 -85 -21 -193q-18 -99 -18 -156q0 -46 15 -67t53 -21 h28q45 0 39 -45l-18 -106q-8 -45 -56 -45h-77q-125 0 -178 44q-52 43 -52 156q0 72 23 199q24 136 24 215q0 113 -61 113h-27q-43 0 -35 41z" />
<glyph unicode="|" horiz-adv-x="585" d="M176 -180v1618q0 45 45 45h144q43 0 43 -45v-1618q0 -45 -43 -45h-144q-45 0 -45 45z" />
<glyph unicode="}" horiz-adv-x="657" d="M-70 -180l19 106q6 45 53 45h31q55 0 82 53q26 50 53 191q33 187 86 280q52 90 139 113q-106 30 -106 201q0 89 20 195q19 120 19 151q0 90 -70 90h-29q-45 0 -39 47l21 107q7 43 53 43h80q124 0 177 -44q52 -43 52 -157q0 -75 -22 -197q-27 -156 -27 -219 q0 -108 62 -108h24q45 0 39 -43l-24 -131q-8 -41 -52 -41h-26q-51 0 -84 -74t-66 -256q-41 -232 -114 -314q-74 -83 -238 -83h-76q-45 0 -37 45z" />
<glyph unicode="~" horiz-adv-x="1105" d="M131 668q73 245 260 245q91 0 189 -49l94 -47q66 -33 108 -33q60 0 101 62q5 5 22 37q21 37 58 16l86 -45q28 -15 18 -59q-35 -112 -100 -177t-160 -65q-88 0 -189 49l-94 49q-66 33 -108 33q-61 0 -101 -61l-22 -39q-17 -39 -57 -17l-84 45q-29 15 -21 56z" />
<glyph unicode="&#xa1;" horiz-adv-x="544" d="M6 -201l187 817q11 46 53 46h119q44 0 38 -46l-102 -817q-6 -47 -53 -47h-203q-47 0 -39 47zM203 858l35 193q11 47 53 47h182q45 0 39 -47l-35 -193q-11 -47 -53 -47h-180q-52 0 -41 47z" />
<glyph unicode="&#xa2;" horiz-adv-x="903" d="M74 377q0 88 16 174q90 516 494 563l22 133q8 45 49 45h78q45 0 39 -45l-24 -135q99 -7 163 -43q36 -19 21 -53l-53 -119q-19 -42 -60 -27q-68 27 -155 27q-130 0 -206 -82q-77 -83 -110 -266q-14 -73 -14 -143q0 -205 209 -205q93 0 170 28q47 17 53 -26l10 -117 q1 -37 -41 -55q-72 -37 -186 -45l-25 -138q-6 -43 -49 -43h-80q-41 0 -35 43l25 140q-143 16 -227 115t-84 274z" />
<glyph unicode="&#xa3;" horiz-adv-x="1175" d="M18 131q-14 27 17 49q282 170 282 395q0 39 -8 76h-166q-39 0 -32 37l12 72q6 37 43 37h108q-30 127 -30 176q0 230 152 360q154 131 378 131q194 0 298 -80t104 -235q0 -154 -58 -154h-160q-32 0 -32 29q0 10 8 44t8 54q0 119 -178 119q-126 0 -195 -78t-69 -194 q0 -35 28 -172h291q41 0 35 -37l-12 -72q-10 -37 -45 -37h-248q6 -38 6 -73q0 -234 -205 -355q68 21 131 21q49 0 128 -19q75 -18 120 -18q119 0 152 155q11 41 53 41h121q53 0 43 -55q-29 -175 -101 -270q-69 -92 -211 -92q-89 0 -202 29q-117 30 -193 30q-144 0 -252 -51 q-43 -18 -53 4z" />
<glyph unicode="&#xa4;" horiz-adv-x="1146" d="M137 190q-29 25 0 54l96 96q-55 89 -55 240q0 150 55 239l-96 99q-29 29 0 53l45 47q29 25 54 0l92 -92q92 86 245 86q157 0 246 -88l92 94q25 25 54 0l47 -47q24 -27 0 -53l-101 -101q58 -101 58 -237q0 -137 -58 -238l101 -98q24 -27 0 -54l-47 -47q-25 -25 -54 0 l-92 95q-89 -88 -246 -88t-245 88l-92 -95q-27 -27 -54 0zM371 580q0 -125 53 -190q52 -64 149 -64q96 0 148 64q53 65 53 190q0 124 -53 189t-148 65q-96 0 -149 -65t-53 -189z" />
<glyph unicode="&#xa5;" horiz-adv-x="1155" d="M102 385l11 68q7 36 43 36h290l7 37l-33 121h-234q-38 0 -30 39l10 68q6 37 43 37h170l-176 593q-6 25 4 41q11 17 39 17h182q47 0 57 -43l146 -615h6l364 615q22 43 66 43h182q29 0 34 -19q5 -20 -9 -39l-385 -593h168q39 0 33 -37l-13 -68q-6 -39 -43 -39h-235 l-76 -121l-6 -37h287q38 0 32 -36l-10 -68q-8 -39 -45 -39h-291l-53 -297q-7 -49 -53 -49h-174q-48 0 -41 49l53 297h-289q-39 0 -31 39z" />
<glyph unicode="&#xa6;" horiz-adv-x="585" d="M176 -180v594q0 45 45 45h144q43 0 43 -45v-594q0 -45 -43 -45h-144q-45 0 -45 45zM176 844v594q0 45 45 45h144q43 0 43 -45v-594q0 -45 -43 -45h-144q-45 0 -45 45z" />
<glyph unicode="&#xa7;" horiz-adv-x="1204" d="M72 -141l26 116q12 47 68 35q111 -30 262 -30q43 0 86 6q47 7 89 20q46 15 76 45t30 72q0 24 -14 46q-13 21 -42 39q-17 11 -53 31q-20 11 -66 31q-35 15 -65 29q-166 74 -239 139q-74 65 -74 168q0 105 66 187q65 81 173 116q-100 85 -100 195q0 184 139 272t352 88 q191 0 316 -41q41 -15 31 -57l-31 -119q-11 -48 -64 -33q-110 31 -243 31q-91 0 -166 -35t-76 -106q0 -26 10 -43q11 -19 38 -37t48 -30q11 -6 68 -32q31 -14 71 -34q147 -67 231 -143q79 -72 79 -175q0 -196 -238 -291q109 -80 109 -198q0 -125 -84 -209t-199 -117 q-114 -33 -252 -33q-227 0 -332 37q-24 7 -30 20q-6 12 0 40zM399 635q0 -52 56 -90q55 -37 194 -94q37 -16 39 -17q59 12 112 52q54 40 54 94q0 59 -68 104q-71 47 -221 109q-57 -7 -113 -53q-53 -44 -53 -105z" />
<glyph unicode="&#xa8;" horiz-adv-x="632" d="M160 1251l20 123q7 43 51 43h144q47 0 37 -43l-21 -123q-7 -43 -51 -43h-143q-44 0 -37 43zM520 1251l21 123q7 43 51 43h143q43 0 37 -43l-22 -123q-6 -43 -50 -43h-143q-44 0 -37 43z" />
<glyph unicode="&#xa9;" horiz-adv-x="1605" d="M96 721q0 318 184 531q183 212 523 212q339 0 524 -212q184 -211 184 -531q0 -154 -45 -286q-45 -131 -131 -234q-85 -101 -223 -162q-134 -59 -309 -59q-228 0 -391 103q-164 103 -240 267q-76 162 -76 371zM244 721q0 -266 141 -434t418 -168t418 168t141 434 q0 265 -141 435q-141 169 -418 169t-418 -169q-141 -170 -141 -435zM459 729q2 428 379 428q118 0 192 -39q31 -11 25 -41l-27 -94q-6 -35 -41 -18q-50 20 -123 20q-101 0 -150 -59q-50 -61 -50 -197q0 -137 50 -199q49 -61 152 -61q63 0 127 23q35 15 41 -21l25 -92 q6 -26 -23 -41q-86 -39 -196 -39q-380 0 -381 430z" />
<glyph unicode="&#xaa;" horiz-adv-x="808" d="M176 1198q0 106 44 177t129 105q84 34 166 46q85 13 198 14l10 64q10 65 -17 91q-26 25 -108 25q-86 0 -215 -41q-45 -15 -45 27l-6 94q0 28 35 43q133 51 264 51q303 0 303 -219q0 -20 -8 -76l-97 -555q-10 -43 -51 -43h-106q-42 0 -37 39l4 58q-80 -107 -236 -107 q-99 0 -163 58t-64 149zM381 1225q0 -80 94 -80q81 0 134 48q53 49 65 124l14 90q-307 -6 -307 -182z" />
<glyph unicode="&#xab;" horiz-adv-x="892" d="M78 580q1 8 10 22l191 283q23 33 57 33h141q21 0 27 -14q6 -15 -8 -32l-199 -292l96 -291q6 -21 -3 -33t-32 -12h-139q-37 0 -49 32l-90 283q-2 10 -2 21zM455 580l10 22l190 283q23 33 58 33h141q47 0 18 -46l-196 -292l94 -291q10 -45 -33 -45h-141q-35 0 -47 32 l-90 283q-4 7 -4 21z" />
<glyph unicode="&#xac;" horiz-adv-x="1126" d="M135 657l23 127q6 43 51 43h795q45 0 38 -43l-86 -481q-6 -47 -51 -47h-153q-45 0 -39 45l55 311h-594q-46 0 -39 45z" />
<glyph unicode="&#xad;" horiz-adv-x="686" d="M78 506l20 123q7 43 52 43h454q47 0 41 -43l-22 -123q-7 -43 -52 -43h-458q-42 0 -35 43z" />
<glyph unicode="&#xae;" horiz-adv-x="870" d="M92 1104q0 154 90 257t254 103q165 0 253 -103q89 -104 89 -257q0 -150 -89 -256q-89 -105 -253 -105t-254 105t-90 256zM170 1104q0 -128 66 -208q66 -79 200 -79q133 0 199 79q65 78 65 208q0 131 -65 209q-66 80 -199 80q-134 0 -200 -80q-66 -79 -66 -209zM299 928 v364q0 19 20 19h130q161 0 161 -140q0 -100 -82 -124l74 -117q4 -7 1 -16q-3 -7 -13 -7h-66q-12 0 -22 15l-68 112h-37v-106q0 -21 -18 -21h-60q-20 0 -20 21zM397 1112h41q42 0 57 12t15 47q0 34 -15 46t-55 12h-43v-117z" />
<glyph unicode="&#xaf;" horiz-adv-x="632" d="M147 1262l11 69q8 41 49 41h534q43 0 37 -41l-12 -69q-6 -43 -49 -43h-535q-42 0 -35 43z" />
<glyph unicode="&#xb0;" horiz-adv-x="716" d="M184 1120q0 136 98 239q97 101 240 101q116 0 186 -67t70 -172q0 -141 -96 -243q-95 -101 -242 -101q-112 0 -184 69t-72 174zM328 1139q0 -61 34 -95t95 -34q76 0 127 55t51 137q0 58 -36 92q-37 35 -93 35q-77 0 -127 -56q-51 -57 -51 -134z" />
<glyph unicode="&#xb1;" d="M20 45l17 88q7 43 51 43h823q48 0 41 -43l-16 -88q-8 -45 -51 -45h-826q-47 0 -39 45zM141 727l23 123q6 43 51 43h297l55 311q7 45 51 45h144q44 0 37 -45l-54 -311h295q45 0 39 -43l-22 -123q-7 -43 -51 -43h-297l-60 -322q-6 -43 -49 -43h-143q-45 0 -39 43l57 322 h-295q-46 0 -39 43z" />
<glyph unicode="&#xb2;" horiz-adv-x="759" d="M180 1042l15 78q6 26 34 43q226 157 320 252q119 127 123 234q1 38 -20 59t-70 21q-65 0 -96 -40t-31 -100q0 -47 -41 -47h-105q-37 0 -37 37q0 143 87 229q88 86 245 86q134 0 202 -61t68 -158q0 -242 -397 -506h281q48 0 37 -41l-17 -86q-6 -41 -45 -41h-518 q-43 0 -35 41z" />
<glyph unicode="&#xb3;" horiz-adv-x="759" d="M136 1049q-5 6 1 26l37 88q15 40 53 25q87 -31 170 -31q75 0 124 35q48 34 48 104q0 76 -110 76h-82q-41 0 -35 41l14 76q6 41 45 41h84q61 0 99 34q39 34 39 91q0 74 -131 74q-64 0 -166 -31q-37 -10 -43 22l-7 90q-2 24 33 41q93 43 226 43q129 0 208 -51 q80 -51 80 -147q0 -78 -42 -143q-42 -64 -109 -91q98 -40 98 -159q0 -155 -102 -235q-101 -79 -256 -79q-74 0 -149 15q-80 16 -103 28q-20 12 -24 17z" />
<glyph unicode="&#xb4;" horiz-adv-x="632" d="M293 1219q-6 10 4 26l109 168q21 33 53 33h196q23 0 26 -16q3 -17 -13 -33l-189 -164q-28 -25 -61 -25h-101q-18 0 -24 11z" />
<glyph unicode="&#xb5;" horiz-adv-x="1054" d="M-6 -180l217 1233q6 45 51 45h164q44 0 37 -45l-107 -613q-6 -38 -6 -67q0 -81 40 -124q41 -44 114 -44q84 0 124 48q39 47 56 144l117 656q6 45 51 45h164q44 0 37 -45l-125 -715q-33 -181 -118 -269q-86 -89 -243 -89q-109 0 -178 45q-70 46 -92 104l-51 -311 q-7 -43 -53 -43h-162q-45 0 -37 45z" />
<glyph unicode="&#xb6;" horiz-adv-x="1032" d="M166 920q0 228 145 374q146 148 387 148h426q45 0 37 -41l-12 -66q-6 -41 -47 -41h-70q-62 0 -89 -24q-28 -25 -40 -90l-205 -1168q-24 -132 -77 -190t-166 -58q-97 0 -140 21q-26 6 -20 39l12 65q5 31 41 31q9 0 32 -4t42 -4q45 0 70 28q23 26 34 93l95 524h-39 q-186 0 -300 98q-116 99 -116 265z" />
<glyph unicode="&#xb7;" horiz-adv-x="454" d="M92 463l35 186q7 45 53 45h168q47 0 41 -45l-35 -186q-8 -47 -51 -47h-170q-47 0 -41 47z" />
<glyph unicode="&#xb8;" horiz-adv-x="632" d="M84 -279l12 66q5 23 29 23h61q88 0 88 73q0 74 -131 137h93q76 -18 129 -66t53 -112q0 -82 -59 -123t-148 -41q-78 0 -109 11q-20 7 -18 32z" />
<glyph unicode="&#xb9;" horiz-adv-x="759" d="M315 1638q-15 31 19 54l244 174q22 16 53 16h108q45 0 39 -43l-141 -795q-10 -43 -49 -43h-111q-43 0 -37 43l109 613l-137 -90q-39 -23 -56 6z" />
<glyph unicode="&#xba;" horiz-adv-x="847" d="M211 1300q0 59 14 144q40 230 148 342q106 110 286 110q153 0 235 -76q83 -77 83 -233q0 -65 -12 -145q-40 -230 -147 -341q-105 -110 -283 -110q-155 0 -240 77q-84 76 -84 232zM426 1315q0 -148 121 -148q79 0 129 66q49 65 76 209q14 88 14 131q0 145 -121 145 q-157 0 -207 -276q-12 -62 -12 -127z" />
<glyph unicode="&#xbb;" horiz-adv-x="892" d="M50 256q-5 13 9 33l197 291l-94 292q-6 21 3 33q10 13 32 13h139q36 0 47 -33l90 -283q6 -12 2 -22q0 -10 -8 -21l-191 -283q-23 -32 -57 -32h-141q-24 0 -28 12zM427 256q-5 13 9 33l197 291l-92 292q-8 21 1 33q10 13 29 13h142q37 0 47 -33l92 -283q1 -15 0 -22 q0 -10 -8 -21l-191 -283q-20 -32 -59 -32h-139q-24 0 -28 12z" />
<glyph unicode="&#xbc;" horiz-adv-x="1777" d="M238 1198q-15 30 18 53l244 174q23 17 53 17h109q44 0 38 -43l-141 -795q-10 -43 -49 -43h-111q-43 0 -37 43l109 613l-137 -91q-38 -22 -55 7zM385 45l958 1360q28 37 64 37h119q45 0 18 -43l-958 -1362q-30 -37 -64 -37h-119q-47 0 -18 45zM1012 221l14 84q1 23 23 45 l448 504q27 27 49 27h115q45 0 39 -43l-88 -492h63q46 0 35 -41l-14 -82q-6 -41 -47 -41h-66l-24 -139q-10 -43 -50 -43h-108q-44 0 -37 43l25 139h-342q-41 0 -35 39zM1210 346h207l53 303z" />
<glyph unicode="&#xbd;" horiz-adv-x="1777" d="M238 1198q-15 30 18 53l244 174q23 17 53 17h109q44 0 38 -43l-141 -795q-10 -43 -49 -43h-111q-43 0 -37 43l109 613l-137 -91q-38 -22 -55 7zM315 45l959 1360q28 37 63 37h119q46 0 19 -43l-959 -1362q-30 -37 -63 -37h-119q-48 0 -19 45zM1026 41q-8 -41 35 -41h518 q39 0 45 41l16 86q11 41 -36 41h-281q397 264 397 506q0 96 -68 157q-70 62 -202 62q-157 0 -245 -86q-87 -85 -87 -229q0 -37 37 -37h105q40 0 40 47q0 58 32 99q31 40 95 40q51 0 71 -20q21 -21 20 -60q-2 -56 -39 -119q-39 -66 -73 -104q-36 -41 -119 -107 q-70 -56 -106 -83q-9 -7 -106 -72q-29 -18 -35 -43z" />
<glyph unicode="&#xbe;" horiz-adv-x="1777" d="M58 608q-5 6 1 27l37 88q15 40 54 25q87 -31 169 -31q75 0 124 35t49 104q0 76 -111 76h-82q-41 0 -35 41l15 76q6 41 45 41h84q61 0 98 33q39 35 39 91q0 74 -131 74q-67 0 -166 -31q-37 -10 -43 23l-6 90q-2 25 32 41q93 43 226 43q129 0 209 -51q79 -51 79 -148 q0 -77 -42 -142q-42 -64 -109 -91q98 -40 98 -160q0 -154 -102 -234q-101 -79 -256 -79q-79 0 -149 14q-77 15 -103 29q-21 12 -24 16zM410 45l958 1360q28 37 64 37h118q46 0 19 -43l-959 -1362q-30 -37 -63 -37h-119q-46 0 -18 45zM1012 221l14 84q1 23 23 45l448 504 q27 27 49 27h115q45 0 39 -43l-88 -492h63q46 0 35 -41l-14 -82q-6 -41 -47 -41h-66l-24 -139q-10 -43 -50 -43h-108q-44 0 -37 43l25 139h-342q-41 0 -35 39zM1210 346h207l53 303z" />
<glyph unicode="&#xbf;" horiz-adv-x="860" d="M-8 -8q0 -124 96 -190t270 -66q187 0 314 59q43 16 41 51l-6 136q-5 41 -52 26q-128 -43 -223 -43q-86 0 -124 24t-38 77q0 71 47 144q47 72 105 126q59 54 112 125t64 139l4 16q6 48 -41 48h-151q-48 0 -54 -48l-2 -16q-7 -50 -49 -104q-42 -55 -92 -103 q-61 -59 -102 -105q-51 -57 -85 -132t-34 -164zM387 858l35 193q6 47 53 47h182q48 0 37 -47l-32 -193q-11 -47 -54 -47h-180q-52 0 -41 47z" />
<glyph unicode="&#xc0;" horiz-adv-x="1193" d="M-34 15q-9 16 1 38l613 1342q12 27 25 37t44 10h236q50 0 55 -47l139 -1342q5 -23 -9 -38t-36 -15h-178q-43 0 -49 45l-25 272h-415l-121 -272q-21 -45 -60 -45h-186q-25 0 -34 15zM457 551h315l-43 623h-6zM547 1756q7 18 31 18h194q34 0 45 -33l53 -168q8 -39 -32 -39 h-97q-31 0 -55 27l-135 163q-11 14 -4 32z" />
<glyph unicode="&#xc1;" horiz-adv-x="1193" d="M-34 15q-9 16 1 38l613 1342q12 27 25 37t44 10h236q50 0 55 -47l139 -1342q5 -23 -9 -38t-36 -15h-178q-43 0 -49 45l-25 272h-415l-121 -272q-21 -45 -60 -45h-186q-25 0 -34 15zM457 551h315l-43 623h-6zM711 1573l108 168q22 33 58 33h196q23 0 26 -17q3 -16 -16 -33 l-188 -163q-29 -27 -66 -27h-98q-38 0 -20 39z" />
<glyph unicode="&#xc2;" horiz-adv-x="1193" d="M-34 15q-9 16 1 38l613 1342q12 27 25 37t44 10h236q50 0 55 -47l139 -1342q5 -23 -9 -38t-36 -15h-178q-43 0 -49 45l-25 272h-415l-121 -272q-21 -45 -60 -45h-186q-25 0 -34 15zM457 551h315l-43 623h-6zM499 1560q3 12 13 19l199 178q28 25 61 25h109q35 0 57 -25 l133 -178q12 -15 5 -30q-8 -15 -27 -15h-93q-29 0 -53 29l-92 94l-125 -94q-35 -29 -61 -29h-103q-14 0 -20 7t-3 19z" />
<glyph unicode="&#xc3;" horiz-adv-x="1193" d="M-34 15q-9 16 1 38l613 1342q12 27 25 37t44 10h236q50 0 55 -47l139 -1342q5 -23 -9 -38t-36 -15h-178q-43 0 -49 45l-25 272h-415l-121 -272q-21 -45 -60 -45h-186q-25 0 -34 15zM457 551h315l-43 623h-6zM475 1589q29 160 174 160q55 0 152 -35l59 -26q52 -23 82 -23 q36 0 47 35l4 16q12 29 47 29h60q40 0 33 -59q-27 -158 -172 -158q-57 0 -154 35l-57 26q-40 17 -78 17q-45 0 -56 -31l-4 -12q-8 -29 -47 -29h-59q-24 0 -29 11q-6 13 -2 44z" />
<glyph unicode="&#xc4;" horiz-adv-x="1193" d="M-34 15q-9 16 1 38l613 1342q12 27 25 37t44 10h236q50 0 55 -47l139 -1342q5 -23 -9 -38t-36 -15h-178q-43 0 -49 45l-25 272h-415l-121 -272q-21 -45 -60 -45h-186q-25 0 -34 15zM457 551h315l-43 623h-6zM492 1579l20 119q8 45 49 45h148q47 0 39 -45l-23 -119 q-6 -45 -51 -45h-148q-42 0 -34 45zM860 1579l23 119q6 45 47 45h147q47 0 39 -45l-20 -119q-8 -45 -54 -45h-147q-43 0 -35 45z" />
<glyph unicode="&#xc5;" horiz-adv-x="1193" d="M-34 15q-9 16 1 38l613 1342l12 22q-25 39 -25 88q0 98 68 163t172 65q85 0 140 -49q54 -48 54 -119q0 -93 -63 -160q2 -2 2 -10l139 -1342q5 -23 -9 -38t-36 -15h-178q-43 0 -49 45l-25 272h-415l-121 -272q-21 -45 -60 -45h-186q-25 0 -34 15zM457 551h315l-43 623h-6z M686 1518q0 -33 24 -54q23 -20 64 -20q46 0 77 30q32 30 32 78q0 34 -24 55t-60 21q-49 0 -81 -30t-32 -80z" />
<glyph unicode="&#xc6;" horiz-adv-x="1556" d="M-57 16q-8 17 4 37l712 1342q24 47 74 47h856q49 0 41 -47l-24 -144q-7 -49 -54 -49h-428l-61 -352h403q45 0 39 -49l-24 -131q-6 -49 -54 -49h-405l-68 -381h432q49 0 41 -47l-24 -144q-7 -49 -55 -49h-650q-50 0 -43 49l47 266h-337l-140 -270q-23 -45 -61 -45h-187 q-27 0 -34 16zM475 545h266l119 659h-51z" />
<glyph unicode="&#xc7;" horiz-adv-x="1054" d="M102 457q0 115 27 266q69 394 235 568q165 173 447 173q187 0 293 -57q44 -22 26 -59l-57 -127q-18 -48 -65 -31q-82 33 -181 33q-181 0 -278 -112q-96 -111 -146 -388q-24 -135 -24 -223q0 -150 67 -214q68 -65 213 -65q96 0 195 37q50 21 55 -33l15 -127q2 -35 -47 -57 q-126 -61 -285 -61h-4q86 -60 86 -144q0 -88 -64 -132t-161 -44q-73 0 -101 12q-26 10 -20 33l12 68q4 24 31 24h63q92 0 92 74q0 61 -84 123q-340 63 -340 463z" />
<glyph unicode="&#xc8;" horiz-adv-x="989" d="M47 49l238 1346q6 47 53 47h686q49 0 43 -47l-27 -142q-6 -49 -55 -49h-469l-61 -354h444q47 0 41 -49l-25 -131q-6 -49 -53 -49h-448l-68 -383h473q51 0 43 -48l-24 -141q-12 -49 -56 -49h-692q-50 0 -43 49zM516 1756q8 18 31 18h194q35 0 45 -33l54 -168 q8 -39 -33 -39h-96q-32 0 -56 27l-135 163q-11 14 -4 32z" />
<glyph unicode="&#xc9;" horiz-adv-x="989" d="M47 49l238 1346q6 47 53 47h686q49 0 43 -47l-27 -142q-6 -49 -55 -49h-469l-61 -354h444q47 0 41 -49l-25 -131q-6 -49 -53 -49h-448l-68 -383h473q51 0 43 -48l-24 -141q-12 -49 -56 -49h-692q-50 0 -43 49zM603 1545q-4 12 3 28l109 168q23 33 57 33h197q22 0 25 -17 t-15 -33l-188 -163q-29 -27 -66 -27h-98q-20 0 -24 11z" />
<glyph unicode="&#xca;" horiz-adv-x="989" d="M47 49l238 1346q6 47 53 47h686q49 0 43 -47l-27 -142q-6 -49 -55 -49h-469l-61 -354h444q47 0 41 -49l-25 -131q-6 -49 -53 -49h-448l-68 -383h473q51 0 43 -48l-24 -141q-12 -49 -56 -49h-692q-50 0 -43 49zM425 1560q3 12 13 19l199 178q28 25 61 25h109q35 0 57 -25 l133 -178q12 -15 5 -30q-8 -15 -27 -15h-92q-30 0 -54 29l-92 94l-125 -94q-35 -29 -61 -29h-102q-15 0 -21 7t-3 19z" />
<glyph unicode="&#xcb;" horiz-adv-x="989" d="M47 49l238 1346q6 47 53 47h686q49 0 43 -47l-27 -142q-6 -49 -55 -49h-469l-61 -354h444q47 0 41 -49l-25 -131q-6 -49 -53 -49h-448l-68 -383h473q51 0 43 -48l-24 -141q-12 -49 -56 -49h-692q-50 0 -43 49zM416 1579l20 119q8 45 49 45h148q47 0 39 -45l-23 -119 q-6 -45 -51 -45h-147q-43 0 -35 45zM784 1579l23 119q6 45 47 45h147q47 0 39 -45l-20 -119q-8 -45 -53 -45h-148q-43 0 -35 45z" />
<glyph unicode="&#xcc;" horiz-adv-x="534" d="M57 49l238 1346q8 47 55 47h172q49 0 43 -47l-237 -1346q-7 -49 -56 -49h-172q-50 0 -43 49zM225 1756q7 18 31 18h195q35 0 45 -33l53 -168q7 -39 -33 -39h-96q-31 0 -55 27l-136 163q-11 14 -4 32z" />
<glyph unicode="&#xcd;" horiz-adv-x="534" d="M57 49l238 1346q8 47 55 47h172q49 0 43 -47l-237 -1346q-7 -49 -56 -49h-172q-50 0 -43 49zM374 1545q-4 12 3 28l108 168q23 33 58 33h196q23 0 26 -17t-15 -33l-189 -163q-29 -27 -65 -27h-99q-19 0 -23 11z" />
<glyph unicode="&#xce;" horiz-adv-x="534" d="M57 49l238 1346q8 47 55 47h172q49 0 43 -47l-237 -1346q-7 -49 -56 -49h-172q-50 0 -43 49zM167 1560q3 12 13 19l199 178q28 25 61 25h109q35 0 57 -25l133 -178q12 -15 5 -30q-8 -15 -27 -15h-92q-30 0 -54 29l-92 94l-125 -94q-38 -29 -61 -29h-103q-14 0 -20 7 t-3 19z" />
<glyph unicode="&#xcf;" horiz-adv-x="534" d="M57 49l238 1346q8 47 55 47h172q49 0 43 -47l-237 -1346q-7 -49 -56 -49h-172q-50 0 -43 49zM160 1579l20 119q8 45 49 45h148q47 0 39 -45l-23 -119q-6 -45 -51 -45h-147q-43 0 -35 45zM528 1579l23 119q6 45 47 45h147q47 0 39 -45l-20 -119q-8 -45 -53 -45h-148 q-43 0 -35 45z" />
<glyph unicode="&#xd0;" horiz-adv-x="1202" d="M51 49l107 596h-68q-39 0 -33 37l15 80q8 39 45 39h67l105 594q6 47 55 47h324q260 0 390 -111t130 -364q0 -114 -23 -246q-66 -396 -234 -558q-169 -163 -478 -163h-361q-48 0 -41 49zM354 242h121q174 0 273 103q98 103 145 376q22 132 22 211q0 150 -68 209t-208 59 h-117l-69 -399h186q39 0 33 -39l-15 -80q-7 -37 -43 -37h-188z" />
<glyph unicode="&#xd1;" horiz-adv-x="1234" d="M47 49l238 1346q6 47 55 47h158q44 0 59 -35l301 -909l158 897q6 47 53 47h164q51 0 45 -45l-240 -1348q-7 -49 -55 -49h-158q-45 0 -57 37l-303 907l-158 -895q-7 -49 -53 -49h-164q-50 0 -43 49zM496 1589q29 160 174 160q54 0 151 -35l60 -26q52 -23 82 -23 q36 0 47 35l4 16q12 29 47 29h59q40 0 33 -59q-27 -158 -172 -158q-57 0 -154 35l-57 26q-40 17 -78 17q-44 0 -55 -31l-4 -12q-8 -29 -47 -29h-60q-22 0 -28 11q-6 13 -2 44z" />
<glyph unicode="&#xd2;" horiz-adv-x="1245" d="M100 451q0 103 27 272q69 395 228 568t425 173q453 0 453 -471q0 -106 -27 -272q-72 -395 -228 -568t-423 -173q-455 0 -455 471zM375 471q0 -130 50 -192t153 -62q138 0 223 115t131 389q26 146 26 250q0 132 -50 194t-152 62q-137 0 -221 -116q-85 -116 -134 -390 q-26 -146 -26 -250zM584 1756q8 18 30 18h195q35 0 45 -33l53 -168q7 -39 -33 -39h-96q-31 0 -55 27l-135 163q-11 14 -4 32z" />
<glyph unicode="&#xd3;" horiz-adv-x="1245" d="M100 451q0 103 27 272q69 395 228 568t425 173q453 0 453 -471q0 -106 -27 -272q-72 -395 -228 -568t-423 -173q-455 0 -455 471zM375 471q0 -130 50 -192t153 -62q138 0 223 115t131 389q26 146 26 250q0 132 -50 194t-152 62q-137 0 -221 -116q-85 -116 -134 -390 q-26 -146 -26 -250zM731 1573l109 168q22 33 57 33h197q22 0 25 -17t-15 -33l-189 -163q-29 -27 -65 -27h-98q-39 0 -21 39z" />
<glyph unicode="&#xd4;" horiz-adv-x="1245" d="M100 451q0 103 27 272q69 395 228 568t425 173q453 0 453 -471q0 -106 -27 -272q-72 -395 -228 -568t-423 -173q-455 0 -455 471zM375 471q0 -130 50 -192t153 -62q138 0 223 115t131 389q26 146 26 250q0 132 -50 194t-152 62q-137 0 -221 -116q-85 -116 -134 -390 q-26 -146 -26 -250zM523 1560q3 11 14 19l198 178q28 25 62 25h108q36 0 58 -25l133 -178q12 -15 5 -30t-28 -15h-92q-29 0 -53 29l-92 94l-125 -94q-35 -29 -62 -29h-102q-15 0 -21 7t-3 19z" />
<glyph unicode="&#xd5;" horiz-adv-x="1245" d="M100 451q0 103 27 272q69 395 228 568t425 173q453 0 453 -471q0 -106 -27 -272q-72 -395 -228 -568t-423 -173q-455 0 -455 471zM375 471q0 -130 50 -192t153 -62q138 0 223 115t131 389q26 146 26 250q0 132 -50 194t-152 62q-137 0 -221 -116q-85 -116 -134 -390 q-26 -146 -26 -250zM500 1589q29 160 174 160q54 0 151 -35l60 -26q52 -23 82 -23q36 0 47 35l4 16q12 29 47 29h59q40 0 33 -59q-27 -158 -172 -158q-57 0 -154 35l-57 26q-40 17 -78 17q-44 0 -55 -31l-4 -12q-8 -29 -47 -29h-60q-22 0 -28 11q-6 13 -2 44z" />
<glyph unicode="&#xd6;" horiz-adv-x="1245" d="M100 451q0 103 27 272q69 395 228 568t425 173q453 0 453 -471q0 -106 -27 -272q-72 -395 -228 -568t-423 -173q-455 0 -455 471zM375 471q0 -130 50 -192t153 -62q138 0 223 115t131 389q26 146 26 250q0 132 -50 194t-152 62q-137 0 -221 -116q-85 -116 -134 -390 q-26 -146 -26 -250zM516 1579l21 119q7 45 49 45h147q47 0 39 -45l-22 -119q-6 -45 -52 -45h-147q-43 0 -35 45zM885 1579l22 119q6 45 47 45h148q46 0 39 -45l-21 -119q-8 -45 -53 -45h-147q-42 0 -35 45z" />
<glyph unicode="&#xd7;" d="M111 377q-27 32 8 61l321 275l-225 270q-25 31 12 61l109 95q38 30 65 0l222 -273l321 273q35 29 62 0l77 -95q27 -28 -14 -61l-317 -270l223 -275q23 -31 -10 -61l-111 -94q-34 -28 -61 2l-224 270l-319 -272q-41 -30 -64 0z" />
<glyph unicode="&#xd8;" horiz-adv-x="1253" d="M20 49q-30 24 3 57l112 125q-33 85 -33 220q0 121 27 272q69 395 228 568t423 173q230 0 344 -123l78 86q31 38 62 13l53 -45q31 -29 -2 -62l-113 -127q33 -94 33 -213q0 -110 -29 -272q-69 -394 -226 -568q-156 -173 -423 -173q-227 0 -344 118l-80 -88q-31 -30 -59 -8z M377 492l559 632q-44 103 -178 103q-137 0 -221 -116q-85 -116 -134 -390q-21 -127 -26 -229zM403 315q45 -98 177 -98q138 0 223 115t131 389q26 167 27 225z" />
<glyph unicode="&#xd9;" horiz-adv-x="1198" d="M100 340q0 51 13 129l163 926q8 47 56 47h172q49 0 41 -47l-158 -897q-10 -63 -10 -103q0 -88 43 -130q44 -42 135 -42q117 0 178 66q62 67 86 207l160 899q6 47 53 47h172q49 0 41 -47l-164 -926q-44 -253 -174 -371t-375 -118q-432 0 -432 360zM571 1756q7 18 31 18 h195q35 0 45 -33l53 -168q7 -39 -33 -39h-96q-31 0 -55 27l-136 163q-11 14 -4 32z" />
<glyph unicode="&#xda;" horiz-adv-x="1198" d="M100 340q0 51 13 129l163 926q8 47 56 47h172q49 0 41 -47l-158 -897q-10 -63 -10 -103q0 -88 43 -130q44 -42 135 -42q117 0 178 66q62 67 86 207l160 899q6 47 53 47h172q49 0 41 -47l-164 -926q-44 -253 -174 -371t-375 -118q-432 0 -432 360zM689 1545q-4 12 3 28 l109 168q23 33 57 33h197q22 0 25 -17t-15 -33l-188 -163q-29 -27 -66 -27h-98q-20 0 -24 11z" />
<glyph unicode="&#xdb;" horiz-adv-x="1198" d="M100 340q0 51 13 129l163 926q8 47 56 47h172q49 0 41 -47l-158 -897q-10 -63 -10 -103q0 -88 43 -130q44 -42 135 -42q117 0 178 66q62 67 86 207l160 899q6 47 53 47h172q49 0 41 -47l-164 -926q-44 -253 -174 -371t-375 -118q-432 0 -432 360zM501 1560q3 12 13 19 l199 178q28 25 61 25h109q34 0 57 -25l133 -178q12 -15 5 -30q-8 -15 -27 -15h-93q-29 0 -53 29l-92 94l-125 -94q-38 -29 -61 -29h-103q-14 0 -20 7t-3 19z" />
<glyph unicode="&#xdc;" horiz-adv-x="1198" d="M100 340q0 51 13 129l163 926q8 47 56 47h172q49 0 41 -47l-158 -897q-10 -63 -10 -103q0 -88 43 -130q44 -42 135 -42q117 0 178 66q62 67 86 207l160 899q6 47 53 47h172q49 0 41 -47l-164 -926q-44 -253 -174 -371t-375 -118q-432 0 -432 360zM494 1579l20 119 q8 45 49 45h148q47 0 39 -45l-23 -119q-6 -45 -51 -45h-148q-42 0 -34 45zM862 1579l23 119q6 45 47 45h147q47 0 39 -45l-20 -119q-8 -45 -54 -45h-147q-43 0 -35 45z" />
<glyph unicode="&#xdd;" horiz-adv-x="1155" d="M207 1384q-6 23 4 40q11 18 39 18h180q45 0 55 -43l103 -424l37 -205h2l110 205l252 424q24 43 68 43h186q29 0 35 -19t-8 -39l-545 -845l-88 -490q-7 -49 -55 -49h-172q-48 0 -41 49l86 490zM682 1573l109 168q23 33 57 33h196q23 0 26 -17t-15 -33l-189 -163 q-29 -27 -65 -27h-99q-38 0 -20 39z" />
<glyph unicode="&#xde;" horiz-adv-x="1128" d="M47 49l238 1346q8 47 55 47h170q49 0 43 -47l-21 -121h119q232 0 347 -80q114 -80 114 -264q0 -79 -14 -152q-50 -275 -185 -386t-405 -111h-152l-41 -232q-7 -49 -55 -49h-172q-48 0 -41 49zM397 516h133q139 0 205 57q65 56 92 207q11 52 11 99q0 86 -52 123 q-51 36 -163 36h-134z" />
<glyph unicode="&#xdf;" horiz-adv-x="1138" d="M37 43l184 1038q67 381 490 381q178 0 281 -77q102 -77 102 -197q0 -71 -42 -140q-43 -70 -91 -111q-55 -47 -92 -81q-42 -39 -42 -59q0 -23 36 -60q29 -31 78 -74q41 -37 78 -109q36 -70 36 -153q0 -188 -94 -301t-287 -118q-76 0 -162 19q-44 10 -65 21.5t-19 24.5 l25 125q7 43 51 41q35 -5 104 18q70 23 134 72q65 50 65 105q0 52 -36 105q-35 52 -80 87t-80 84q-36 50 -36 98q0 45 28 87q26 39 67 69q10 8 36 27t40 29q38 28 66 66q28 39 28 85q0 108 -154 108q-190 0 -225 -192l-178 -1018q-7 -43 -52 -43h-153q-47 0 -41 43z" />
<glyph unicode="&#xe0;" horiz-adv-x="997" d="M23 244q0 88 24 157q24 70 74 115q53 48 106 76q56 30 139 48q77 17 153 25q54 6 167 11l12 67q17 87 -20 125q-38 39 -137 39q-121 0 -267 -51q-19 -5 -34 2t-13 29l-4 119q0 36 41 53q144 57 328 57q360 0 360 -272q0 -48 -8 -94l-125 -705q-7 -45 -49 -45h-137 q-23 0 -33 10t-8 29l10 94q-112 -147 -303 -147q-129 0 -203 69q-73 69 -73 189zM268 276q0 -106 119 -106q103 0 168 64q66 64 84 165l20 117q-201 -12 -297 -62q-94 -49 -94 -178zM428 1429q8 17 31 17h190q37 0 47 -33l54 -168q10 -37 -31 -37h-90q-35 0 -58 25l-139 164 q-11 16 -4 32z" />
<glyph unicode="&#xe1;" horiz-adv-x="997" d="M23 244q0 88 24 157q24 70 74 115q53 48 106 76q56 30 139 48q77 17 153 25q54 6 167 11l12 67q17 87 -20 125q-38 39 -137 39q-121 0 -267 -51q-19 -5 -34 2t-13 29l-4 119q0 36 41 53q144 57 328 57q360 0 360 -272q0 -48 -8 -94l-125 -705q-7 -45 -49 -45h-137 q-23 0 -33 10t-8 29l10 94q-112 -147 -303 -147q-129 0 -203 69q-73 69 -73 189zM268 276q0 -106 119 -106q103 0 168 64q66 64 84 165l20 117q-201 -12 -297 -62q-94 -49 -94 -178zM518 1219q-6 10 4 26l109 168q21 33 53 33h197q22 0 25 -17q3 -16 -13 -32l-188 -164 q-28 -25 -62 -25h-100q-19 0 -25 11z" />
<glyph unicode="&#xe2;" horiz-adv-x="997" d="M23 244q0 88 24 157q24 70 74 115q53 48 106 76q56 30 139 48q77 17 153 25q54 6 167 11l12 67q17 87 -20 125q-38 39 -137 39q-121 0 -267 -51q-19 -5 -34 2t-13 29l-4 119q0 36 41 53q144 57 328 57q360 0 360 -272q0 -48 -8 -94l-125 -705q-7 -45 -49 -45h-137 q-23 0 -33 10t-8 29l10 94q-112 -147 -303 -147q-129 0 -203 69q-73 69 -73 189zM268 276q0 -106 119 -106q103 0 168 64q66 64 84 165l20 117q-201 -12 -297 -62q-94 -49 -94 -178zM343 1223q-3 14 13 28l199 183q27 26 61 26h109q35 0 57 -26l136 -183q12 -15 5 -28 q-7 -15 -28 -15h-92q-31 0 -53 25l-95 102l-127 -102q-31 -25 -59 -25h-102q-21 0 -24 15z" />
<glyph unicode="&#xe3;" horiz-adv-x="997" d="M23 244q0 88 24 157q24 70 74 115q53 48 106 76q56 30 139 48q77 17 153 25q54 6 167 11l12 67q17 87 -20 125q-38 39 -137 39q-121 0 -267 -51q-19 -5 -34 2t-13 29l-4 119q0 36 41 53q144 57 328 57q360 0 360 -272q0 -48 -8 -94l-125 -705q-7 -45 -49 -45h-137 q-23 0 -33 10t-8 29l10 94q-112 -147 -303 -147q-129 0 -203 69q-73 69 -73 189zM268 276q0 -106 119 -106q103 0 168 64q66 64 84 165l20 117q-201 -12 -297 -62q-94 -49 -94 -178zM328 1264q27 155 164 155q68 0 149 -35l59 -26q46 -19 72 -19q36 0 51 37l2 10 q11 31 47 31h60q43 0 31 -59q-27 -154 -162 -154q-76 0 -154 35l-55 27q-44 18 -70 18q-38 0 -53 -35l-4 -12q-15 -29 -45 -29h-60q-23 0 -31 13q-7 12 -1 43z" />
<glyph unicode="&#xe4;" horiz-adv-x="997" d="M23 244q0 88 24 157q24 70 74 115q53 48 106 76q56 30 139 48q77 17 153 25q54 6 167 11l12 67q17 87 -20 125q-38 39 -137 39q-121 0 -267 -51q-19 -5 -34 2t-13 29l-4 119q0 36 41 53q144 57 328 57q360 0 360 -272q0 -48 -8 -94l-125 -705q-7 -45 -49 -45h-137 q-23 0 -33 10t-8 29l10 94q-112 -147 -303 -147q-129 0 -203 69q-73 69 -73 189zM268 276q0 -106 119 -106q103 0 168 64q66 64 84 165l20 117q-201 -12 -297 -62q-94 -49 -94 -178zM338 1251l20 123q10 43 52 43h143q44 0 37 -43l-21 -123q-7 -43 -51 -43h-143 q-44 0 -37 43zM698 1251l21 123q10 43 51 43h143q43 0 37 -43l-22 -123q-6 -43 -49 -43h-144q-44 0 -37 43z" />
<glyph unicode="&#xe5;" horiz-adv-x="997" d="M23 244q0 88 24 157q24 70 74 115q53 48 106 76q56 30 139 48q77 17 153 25q54 6 167 11l12 67q17 87 -20 125q-38 39 -137 39q-121 0 -267 -51q-19 -5 -34 2t-13 29l-4 119q0 36 41 53q144 57 328 57q360 0 360 -272q0 -48 -8 -94l-125 -705q-7 -45 -49 -45h-137 q-23 0 -33 10t-8 29l10 94q-112 -147 -303 -147q-129 0 -203 69q-73 69 -73 189zM268 276q0 -106 119 -106q103 0 168 64q66 64 84 165l20 117q-201 -12 -297 -62q-94 -49 -94 -178zM446 1362q0 98 69 163q68 64 175 64q86 0 140 -48q55 -49 55 -122q0 -99 -69 -162 t-175 -63q-85 0 -140 47t-55 121zM565 1374q0 -31 25 -53q24 -21 65 -21q44 0 78 29q33 29 33 76q0 35 -24 56q-25 22 -64 22q-46 0 -80 -29q-33 -28 -33 -80z" />
<glyph unicode="&#xe6;" horiz-adv-x="1566" d="M23 240q0 78 21 139t54 102q36 44 88 72q57 31 107 47q53 17 126 26q75 9 129 12q67 4 134 5l18 109q12 73 -24 113q-38 42 -133 42q-125 0 -271 -51q-49 -12 -49 31l-6 119q0 37 43 53q153 57 324 57q251 0 290 -141q118 143 318 143q167 0 255 -88q89 -89 89 -248 q0 -83 -16 -157l-21 -117q-8 -47 -57 -47h-547q-8 -43 -8 -80q0 -201 227 -201q107 0 217 43q51 17 51 -30l7 -105q0 -37 -46 -55q-120 -53 -268 -53q-142 0 -234 53q-91 52 -114 143q-141 -190 -385 -190q-155 0 -237 67t-82 187zM268 272q0 -100 129 -100q100 0 162 65 t80 166l14 78q-209 -6 -297 -45t-88 -164zM920 635h366l4 16q13 93 13 119q0 152 -140 152q-181 0 -243 -287z" />
<glyph unicode="&#xe7;" horiz-adv-x="868" d="M72 369q0 59 18 184q99 565 543 565q165 0 248 -45q37 -18 20 -57l-53 -119q-17 -40 -62 -25q-72 25 -139 25q-123 0 -195 -81q-75 -84 -104 -265q-16 -92 -16 -152q0 -198 188 -198q78 0 166 30q45 16 49 -24l10 -121q1 -34 -43 -55q-101 -49 -225 -49h-16 q90 -55 90 -140q0 -83 -58 -123q-59 -41 -149 -41q-77 0 -108 11q-21 7 -19 32l12 66q5 23 29 23h61q89 0 89 73q0 69 -107 125q-229 78 -229 361z" />
<glyph unicode="&#xe8;" horiz-adv-x="1009" d="M72 381q0 78 18 180q99 557 526 557q176 0 268 -92q91 -91 91 -260q0 -82 -14 -160l-19 -110q-8 -47 -57 -47h-566q-4 -24 -4 -68q0 -96 61 -149q59 -52 173 -52q113 0 221 41q48 21 53 -31l6 -100q0 -39 -45 -57q-132 -53 -272 -53q-214 0 -327 100t-113 301zM346 621 h383l2 16q14 77 14 123q0 162 -145 162q-97 0 -158 -72q-62 -72 -96 -229zM430 1430q7 16 31 16h190q37 0 47 -33l54 -168q10 -37 -31 -37h-90q-35 0 -58 25l-139 164q-12 16 -4 33z" />
<glyph unicode="&#xe9;" horiz-adv-x="1009" d="M72 381q0 78 18 180q99 557 526 557q176 0 268 -92q91 -91 91 -260q0 -82 -14 -160l-19 -110q-8 -47 -57 -47h-566q-4 -24 -4 -68q0 -96 61 -149q59 -52 173 -52q113 0 221 41q48 21 53 -31l6 -100q0 -39 -45 -57q-132 -53 -272 -53q-214 0 -327 100t-113 301zM346 621 h383l2 16q14 77 14 123q0 162 -145 162q-97 0 -158 -72q-62 -72 -96 -229zM539 1219q-6 10 4 26l108 168q21 33 54 33h196q23 0 26 -16t-14 -33l-188 -164q-28 -25 -61 -25h-101q-18 0 -24 11z" />
<glyph unicode="&#xea;" horiz-adv-x="1009" d="M72 381q0 78 18 180q99 557 526 557q176 0 268 -92q91 -91 91 -260q0 -82 -14 -160l-19 -110q-8 -47 -57 -47h-566q-4 -24 -4 -68q0 -96 61 -149q59 -52 173 -52q113 0 221 41q48 21 53 -31l6 -100q0 -39 -45 -57q-132 -53 -272 -53q-214 0 -327 100t-113 301zM346 621 h383l2 16q14 77 14 123q0 162 -145 162q-97 0 -158 -72q-62 -72 -96 -229zM359 1223q-3 13 14 28l198 183q27 26 62 26h108q36 0 58 -26l135 -183q12 -15 5 -28q-7 -15 -28 -15h-92q-31 0 -53 25l-94 102l-127 -102q-31 -25 -60 -25h-102q-21 0 -24 15z" />
<glyph unicode="&#xeb;" horiz-adv-x="1009" d="M72 381q0 78 18 180q99 557 526 557q176 0 268 -92q91 -91 91 -260q0 -82 -14 -160l-19 -110q-8 -47 -57 -47h-566q-4 -24 -4 -68q0 -96 61 -149q59 -52 173 -52q113 0 221 41q48 21 53 -31l6 -100q0 -39 -45 -57q-132 -53 -272 -53q-214 0 -327 100t-113 301zM346 621 h383l2 16q14 77 14 123q0 162 -145 162q-97 0 -158 -72q-62 -72 -96 -229zM358 1251l21 123q10 43 51 43h143q44 0 37 -43l-20 -123q-7 -43 -51 -43h-144q-44 0 -37 43zM719 1251l20 123q10 43 52 43h143q43 0 37 -43l-23 -123q-6 -43 -49 -43h-143q-44 0 -37 43z" />
<glyph unicode="&#xec;" horiz-adv-x="483" d="M41 45l178 1008q6 45 51 45h162q44 0 37 -45l-176 -1008q-7 -45 -51 -45h-162q-46 0 -39 45zM143 1430q7 16 31 16h191q37 0 47 -33l53 -168q10 -37 -31 -37h-90q-34 0 -57 25l-140 164q-12 16 -4 33z" />
<glyph unicode="&#xed;" horiz-adv-x="483" d="M41 45l178 1008q6 45 51 45h162q44 0 37 -45l-176 -1008q-7 -45 -51 -45h-162q-46 0 -39 45zM289 1219q-6 10 4 26l108 168q21 33 54 33h196q23 0 26 -16q3 -17 -13 -33l-189 -164q-28 -25 -61 -25h-101q-18 0 -24 11z" />
<glyph unicode="&#xee;" horiz-adv-x="483" d="M41 45l178 1008q6 45 51 45h162q44 0 37 -45l-176 -1008q-7 -45 -51 -45h-162q-46 0 -39 45zM87 1223q-3 14 13 28l199 183q27 26 61 26h109q35 0 57 -26l136 -183q12 -15 5 -28q-7 -15 -28 -15h-92q-31 0 -53 25l-95 102l-127 -102q-31 -25 -59 -25h-102q-21 0 -24 15z " />
<glyph unicode="&#xef;" horiz-adv-x="483" d="M41 45l178 1008q6 45 51 45h162q44 0 37 -45l-176 -1008q-7 -45 -51 -45h-162q-46 0 -39 45zM86 1251l20 123q7 43 52 43h143q47 0 37 -43l-21 -123q-7 -43 -51 -43h-143q-44 0 -37 43zM446 1251l21 123q7 43 51 43h144q42 0 36 -43l-22 -123q-6 -43 -49 -43h-144 q-44 0 -37 43z" />
<glyph unicode="&#xf0;" horiz-adv-x="1058" d="M68 362q0 62 18 183q50 283 182 423q133 140 336 140q125 0 182 -51q-17 70 -55 137h-235q-41 0 -35 39l10 53q7 37 45 37h139q-26 34 -84 84q-12 10 -6 25q6 14 25 14h166q36 0 53 -23q43 -46 74 -100h170q36 0 30 -37l-10 -53q-6 -39 -41 -39h-90q82 -189 82 -401 q0 -109 -23 -242q-51 -291 -184 -430t-354 -139q-186 0 -291 96q-104 95 -104 284zM330 358q0 -91 37 -129q38 -39 114 -39q106 0 163 74q55 71 93 256q25 122 25 195q0 190 -156 190q-202 0 -264 -383q-12 -95 -12 -164z" />
<glyph unicode="&#xf1;" horiz-adv-x="1058" d="M31 45l178 1008q7 45 51 45h150q21 0 32 -11q10 -10 9 -28l-9 -90q113 149 297 149q137 0 205 -71q70 -73 70 -203q0 -46 -10 -105l-123 -694q-7 -45 -52 -45h-161q-47 0 -41 45l116 653q9 63 9 72q0 121 -125 121q-94 0 -156 -64t-80 -176l-108 -606q-7 -45 -52 -45 h-161q-46 0 -39 45zM360 1264q27 155 164 155q69 0 150 -35l59 -26q46 -19 72 -19q36 0 51 37l2 10q11 31 47 31h60q42 0 30 -59q-27 -154 -161 -154q-76 0 -154 35l-55 27q-44 18 -70 18q-38 0 -53 -35l-4 -12q-15 -29 -45 -29h-60q-24 0 -32 13q-7 12 -1 43z" />
<glyph unicode="&#xf2;" horiz-adv-x="1060" d="M70 367q0 -193 102 -289t289 -96q222 0 355 139q134 140 185 428q17 93 17 182q0 193 -102 290q-101 97 -287 97q-442 0 -541 -567q-18 -105 -18 -184zM326 379q0 59 20 170q33 187 96 273q63 85 164 85q156 0 156 -188q0 -59 -19 -170q-33 -189 -97 -274t-165 -85 q-155 0 -155 189zM444 1430q7 16 31 16h191q36 0 47 -33l53 -168q10 -37 -31 -37h-90q-34 0 -57 25l-139 164q-12 17 -5 33z" />
<glyph unicode="&#xf3;" horiz-adv-x="1060" d="M70 367q0 -193 102 -289t289 -96q222 0 355 139q134 140 185 428q17 93 17 182q0 193 -102 290q-101 97 -287 97q-442 0 -541 -567q-18 -105 -18 -184zM326 379q0 59 20 170q33 187 96 273q63 85 164 85q156 0 156 -188q0 -59 -19 -170q-33 -189 -97 -274t-165 -85 q-155 0 -155 189zM563 1219q-6 10 4 26l109 168q21 33 53 33h197q22 0 25 -16q3 -17 -13 -33l-188 -164q-28 -25 -62 -25h-100q-19 0 -25 11z" />
<glyph unicode="&#xf4;" horiz-adv-x="1060" d="M70 367q0 -193 102 -289t289 -96q222 0 355 139q134 140 185 428q17 93 17 182q0 193 -102 290q-101 97 -287 97q-442 0 -541 -567q-18 -105 -18 -184zM326 379q0 59 20 170q33 187 96 273q63 85 164 85q156 0 156 -188q0 -59 -19 -170q-33 -189 -97 -274t-165 -85 q-155 0 -155 189zM374 1223q-3 14 13 28l199 183q27 26 61 26h109q35 0 57 -26l135 -183q12 -15 5 -28q-7 -15 -27 -15h-92q-31 0 -54 25l-94 102l-127 -102q-31 -25 -59 -25h-103q-20 0 -23 15z" />
<glyph unicode="&#xf5;" horiz-adv-x="1060" d="M70 367q0 79 18 184q99 567 541 567q186 0 287 -97q102 -97 102 -290q0 -89 -17 -182q-51 -288 -185 -428q-133 -139 -355 -139q-187 0 -289 96t-102 289zM326 379q0 -189 155 -189q101 0 165 85t97 274q19 111 19 170q0 188 -156 188q-101 0 -164 -85q-63 -86 -96 -273 q-20 -111 -20 -170zM362 1264q27 155 164 155q69 0 150 -35l59 -26q46 -19 72 -19q36 0 51 37l2 10q11 31 47 31h60q42 0 30 -59q-27 -154 -161 -154q-76 0 -154 35l-55 27q-44 18 -70 18q-38 0 -53 -35l-4 -12q-15 -29 -45 -29h-60q-23 0 -31 13t-2 43z" />
<glyph unicode="&#xf6;" horiz-adv-x="1060" d="M70 367q0 -193 102 -289t289 -96q222 0 355 139q134 140 185 428q17 93 17 182q0 193 -102 290q-101 97 -287 97q-442 0 -541 -567q-18 -105 -18 -184zM326 379q0 59 20 170q33 187 96 273q63 85 164 85q156 0 156 -188q0 -59 -19 -170q-33 -189 -97 -274t-165 -85 q-155 0 -155 189zM373 1251l20 123q7 43 51 43h144q47 0 37 -43l-21 -123q-7 -43 -51 -43h-143q-44 0 -37 43zM733 1251l21 123q7 43 51 43h143q43 0 37 -43l-22 -123q-6 -43 -50 -43h-143q-44 0 -37 43z" />
<glyph unicode="&#xf7;" d="M147 662l19 108q6 43 49 43h795q45 0 39 -43l-19 -108q-8 -46 -51 -46h-797q-43 0 -35 46zM385 246l31 176q8 45 55 45h162q49 0 41 -45l-31 -176q-7 -45 -53 -45h-166q-46 0 -39 45zM520 1008l31 174q8 47 53 47h162q51 0 43 -47l-31 -174q-11 -47 -53 -47h-166 q-50 0 -39 47z" />
<glyph unicode="&#xf8;" horiz-adv-x="1069" d="M35 35q-29 24 2 55l74 80q-37 78 -37 197q0 79 18 184q99 567 541 567q177 0 278 -90l58 62q29 33 57 6l35 -33q27 -22 -2 -53l-74 -80q39 -89 39 -199q0 -80 -18 -182q-99 -567 -539 -567q-180 0 -281 86l-55 -60q-32 -32 -59 -8zM332 393l409 451q-39 63 -129 63 q-103 0 -166 -84t-96 -274q-18 -91 -18 -156zM356 256q34 -66 129 -66q103 0 167 85q65 87 98 274q17 134 18 160z" />
<glyph unicode="&#xf9;" horiz-adv-x="1050" d="M68 248q0 44 10 98l125 707q6 45 51 45h164q43 0 37 -45l-117 -654q-6 -37 -6 -69q0 -125 123 -125q89 0 148 62q60 63 81 173l109 613q6 45 51 45h164q42 0 36 -45l-178 -1008q-8 -45 -49 -45h-151q-23 0 -34 10q-11 9 -9 29l10 90q-101 -147 -281 -147q-141 0 -212 68 q-72 69 -72 198zM444 1430q7 16 31 16h191q36 0 47 -33l53 -168q10 -37 -31 -37h-90q-34 0 -57 25l-139 164q-12 17 -5 33z" />
<glyph unicode="&#xfa;" horiz-adv-x="1050" d="M68 248q0 44 10 98l125 707q6 45 51 45h164q43 0 37 -45l-117 -654q-6 -37 -6 -69q0 -125 123 -125q89 0 148 62q60 63 81 173l109 613q6 45 51 45h164q42 0 36 -45l-178 -1008q-8 -45 -49 -45h-151q-23 0 -34 10q-11 9 -9 29l10 90q-101 -147 -281 -147q-141 0 -212 68 q-72 69 -72 198zM551 1219q-6 10 4 26l109 168q21 33 53 33h196q23 0 26 -16q3 -17 -13 -33l-189 -164q-28 -25 -61 -25h-101q-18 0 -24 11z" />
<glyph unicode="&#xfb;" horiz-adv-x="1050" d="M68 248q0 44 10 98l125 707q6 45 51 45h164q43 0 37 -45l-117 -654q-6 -37 -6 -69q0 -125 123 -125q89 0 148 62q60 63 81 173l109 613q6 45 51 45h164q42 0 36 -45l-178 -1008q-8 -45 -49 -45h-151q-23 0 -34 10q-11 9 -9 29l10 90q-101 -147 -281 -147q-141 0 -212 68 q-72 69 -72 198zM370 1223q-3 14 13 28l199 183q27 26 61 26h109q35 0 57 -26l135 -183q12 -15 5 -28q-7 -15 -27 -15h-93q-30 0 -53 25l-94 102l-127 -102q-31 -25 -59 -25h-103q-20 0 -23 15z" />
<glyph unicode="&#xfc;" horiz-adv-x="1050" d="M68 248q0 44 10 98l125 707q6 45 51 45h164q43 0 37 -45l-117 -654q-6 -37 -6 -69q0 -125 123 -125q89 0 148 62q60 63 81 173l109 613q6 45 51 45h164q42 0 36 -45l-178 -1008q-8 -45 -49 -45h-151q-23 0 -34 10q-11 9 -9 29l10 90q-101 -147 -281 -147q-141 0 -212 68 q-72 69 -72 198zM369 1251l20 123q7 43 51 43h144q47 0 37 -43l-21 -123q-7 -43 -51 -43h-143q-44 0 -37 43zM729 1251l21 123q7 43 51 43h143q43 0 37 -43l-23 -123q-6 -43 -49 -43h-143q-44 0 -37 43z" />
<glyph unicode="&#xfd;" horiz-adv-x="954" d="M-25 -172l33 119q15 38 51 37q1 0 5.5 -1t13.5 -2.5t18 -2.5q37 -5 62 -5q68 0 96 39q29 39 18 103l-131 932q-6 51 41 51h168q43 0 43 -45l49 -539l13 -240h6l88 240l211 539q18 45 59 45h174q50 0 29 -51l-434 -969q-74 -177 -157 -246q-84 -70 -253 -70 q-123 0 -174 21q-37 12 -29 45zM514 1219q-6 10 4 26l109 168q21 33 53 33h197q22 0 25 -16q3 -17 -13 -33l-189 -164q-28 -25 -61 -25h-100q-19 0 -25 11z" />
<glyph unicode="&#xfe;" d="M-4 -180l278 1579q6 43 50 43h163q46 0 39 -43l-75 -430q45 68 121 108q77 41 169 41q156 0 241 -90q85 -89 85 -272q0 -100 -20 -209q-51 -291 -167 -428t-305 -137q-100 0 -177 38q-79 39 -97 105l-53 -305q-6 -45 -51 -45h-164q-45 0 -37 45zM358 395q0 -202 166 -202 q104 0 167 82q62 81 97 274q19 128 19 170q0 186 -156 186q-213 0 -276 -356q-17 -97 -17 -154z" />
<glyph unicode="&#xff;" horiz-adv-x="954" d="M-25 -172l33 119q15 38 51 37q1 0 5.5 -1t13.5 -2.5t18 -2.5q37 -5 62 -5q68 0 96 39q29 39 18 103l-131 932q-6 51 41 51h168q43 0 43 -45l49 -539l13 -240h6l88 240l211 539q18 45 59 45h174q50 0 29 -51l-434 -969q-74 -177 -157 -246q-84 -70 -253 -70 q-123 0 -174 21q-37 12 -29 45zM319 1251l21 123q7 43 51 43h144q46 0 36 -43l-20 -123q-7 -43 -51 -43h-144q-44 0 -37 43zM680 1251l20 123q7 43 52 43h143q43 0 37 -43l-23 -123q-6 -43 -49 -43h-143q-44 0 -37 43z" />
<glyph unicode="&#x152;" horiz-adv-x="1632" d="M131 473q0 120 25 250q69 398 235 558q167 161 473 161h803q49 0 41 -47l-25 -144q-7 -49 -55 -49h-440l-62 -352h416q47 0 41 -49l-24 -131q-10 -49 -56 -49h-418l-67 -381h444q49 0 43 -47l-26 -144q-7 -49 -56 -49h-778q-256 0 -385 111t-129 362zM406 506 q0 -148 65 -206t201 -58h84l168 958h-80q-176 0 -271 -101t-145 -378q-22 -132 -22 -215z" />
<glyph unicode="&#x153;" horiz-adv-x="1626" d="M70 367q0 83 18 184q101 567 524 567q229 0 301 -157q129 157 332 157q166 0 256 -92q90 -91 90 -254q0 -82 -14 -156l-21 -110q-8 -45 -55 -45h-547q0 -11 -3 -36t-3 -38q0 -101 59 -154t164 -53q106 0 215 41q54 22 54 -28l8 -105q0 -35 -41 -53q-129 -55 -272 -55 q-120 0 -211 44q-90 44 -129 121q-130 -163 -344 -163q-181 0 -281 97t-100 288zM326 377q0 -187 145 -187q96 0 159 85q62 84 95 274q18 105 18 172q0 186 -147 186q-94 0 -156 -86q-61 -84 -94 -272q-20 -111 -20 -172zM979 633h367l2 12q14 77 14 123q0 154 -139 154 q-177 0 -244 -289z" />
<glyph unicode="&#x178;" horiz-adv-x="1155" d="M207 1384q-6 23 4 40q11 18 39 18h180q45 0 55 -43l103 -424l37 -205h2l110 205l252 424q24 43 68 43h186q29 0 35 -19t-8 -39l-545 -845l-88 -490q-7 -49 -55 -49h-172q-48 0 -41 49l86 490zM471 1579l21 119q8 45 49 45h147q46 0 39 -45l-22 -119q-6 -45 -52 -45h-147 q-42 0 -35 45zM840 1579l22 119q6 45 47 45h148q47 0 39 -45l-21 -119q-7 -45 -53 -45h-147q-43 0 -35 45z" />
<glyph unicode="&#x2c6;" horiz-adv-x="632" d="M161 1223q-3 14 13 28l199 183q27 26 61 26h109q35 0 57 -26l135 -183q12 -15 5 -28q-8 -15 -27 -15h-92q-31 0 -54 25l-94 102l-127 -102q-31 -25 -59 -25h-103q-20 0 -23 15z" />
<glyph unicode="&#x2dc;" horiz-adv-x="632" d="M147 1264q27 155 164 155q69 0 150 -35l59 -26q46 -19 72 -19q36 0 51 37l2 10q11 31 47 31h60q42 0 30 -59q-27 -154 -161 -154q-76 0 -154 35l-55 27q-43 18 -70 18q-38 0 -53 -35l-4 -12q-15 -29 -45 -29h-60q-24 0 -32 13q-7 12 -1 43z" />
<glyph unicode="&#x2000;" horiz-adv-x="948" />
<glyph unicode="&#x2001;" horiz-adv-x="1896" />
<glyph unicode="&#x2002;" horiz-adv-x="948" />
<glyph unicode="&#x2003;" horiz-adv-x="1896" />
<glyph unicode="&#x2004;" horiz-adv-x="632" />
<glyph unicode="&#x2005;" horiz-adv-x="474" />
<glyph unicode="&#x2006;" horiz-adv-x="316" />
<glyph unicode="&#x2007;" horiz-adv-x="316" />
<glyph unicode="&#x2008;" horiz-adv-x="237" />
<glyph unicode="&#x2009;" horiz-adv-x="379" />
<glyph unicode="&#x200a;" horiz-adv-x="105" />
<glyph unicode="&#x2010;" horiz-adv-x="688" d="M78 506l20 123q7 43 52 43h454q47 0 41 -43l-22 -123q-7 -43 -52 -43h-458q-42 0 -35 43z" />
<glyph unicode="&#x2011;" horiz-adv-x="688" d="M78 506l20 123q7 43 52 43h454q47 0 41 -43l-22 -123q-7 -43 -52 -43h-458q-42 0 -35 43z" />
<glyph unicode="&#x2012;" horiz-adv-x="688" d="M78 506l20 123q7 43 52 43h454q47 0 41 -43l-22 -123q-7 -43 -52 -43h-458q-42 0 -35 43z" />
<glyph unicode="&#x2013;" horiz-adv-x="931" d="M80 506l20 123q7 43 50 43h700q46 0 39 -43l-23 -123q-6 -43 -51 -43h-700q-42 0 -35 43z" />
<glyph unicode="&#x2014;" horiz-adv-x="1357" d="M80 506l20 123q7 43 50 43h1126q46 0 39 -43l-21 -123q-7 -43 -53 -43h-1126q-42 0 -35 43z" />
<glyph unicode="&#x2018;" horiz-adv-x="442" d="M188 993l29 166q5 32 21 60l127 204q21 27 45 27h59q35 0 20 -39l-102 -190h55q48 0 37 -47l-30 -181q-7 -45 -54 -45h-166q-49 0 -41 45z" />
<glyph unicode="&#x2019;" horiz-adv-x="442" d="M211 977l100 194h-53q-47 0 -39 46l31 180q8 45 55 45h166q49 0 41 -45l-29 -166q-5 -34 -22 -57l-127 -205q-17 -29 -45 -29h-60q-34 0 -18 37z" />
<glyph unicode="&#x201a;" horiz-adv-x="442" d="M6 -195l100 195h-53q-47 0 -39 45l31 180q7 45 55 45h166q48 0 41 -45l-28 -166q-4 -32 -23 -57l-127 -205q-16 -28 -45 -28h-59q-35 0 -19 36z" />
<glyph unicode="&#x201c;" horiz-adv-x="817" d="M188 991l29 166q5 30 21 57l127 207q21 27 45 27h59q39 0 18 -39l-100 -190h53q50 0 39 -48l-30 -180q-7 -45 -54 -45h-168q-47 0 -39 45zM559 991l29 166q8 34 22 57l127 207q21 27 45 27h60q17 0 21 -11q4 -12 -3 -28l-98 -190h51q50 0 39 -48l-31 -180q-7 -45 -55 -45 h-166q-48 0 -41 45z" />
<glyph unicode="&#x201d;" horiz-adv-x="817" d="M207 948q-4 11 4 27l98 192h-51q-47 0 -41 45l33 183q8 45 53 45h168q49 0 41 -45l-29 -166q-6 -37 -22 -58l-127 -206q-18 -29 -47 -29h-58q-17 0 -22 12zM580 948q-4 11 4 27l98 192h-53q-45 0 -37 45l31 183q7 45 53 45h168q46 0 39 -45l-29 -166q-2 -35 -20 -58 l-127 -206q-18 -29 -48 -29h-57q-18 0 -22 12z" />
<glyph unicode="&#x201e;" horiz-adv-x="817" d="M2 -219q-4 10 4 26l98 193h-51q-47 0 -41 45l33 182q7 45 53 45h168q48 0 41 -45l-28 -166q-6 -34 -23 -57l-127 -207q-18 -28 -47 -28h-57q-19 0 -23 12zM375 -219q-4 10 4 26l98 193h-53q-44 0 -37 45l31 182q8 45 53 45h168q47 0 39 -45l-29 -166q-1 -34 -20 -57 l-127 -207q-18 -28 -47 -28h-58q-17 0 -22 12z" />
<glyph unicode="&#x2022;" horiz-adv-x="759" d="M109 506q0 134 97 235q98 103 236 103q108 0 175 -64t67 -166q0 -136 -97 -237q-98 -103 -239 -103q-106 0 -173 65q-66 65 -66 167z" />
<glyph unicode="&#x2026;" horiz-adv-x="1363" d="M20 47l35 186q8 46 54 46h167q47 0 41 -46l-34 -186q-8 -47 -52 -47h-170q-47 0 -41 47zM475 47l35 186q8 46 53 46h168q49 0 41 -46l-35 -186q-8 -47 -51 -47h-170q-47 0 -41 47zM930 47l35 186q8 46 55 46h166q49 0 41 -46l-35 -186q-8 -47 -49 -47h-170q-49 0 -43 47z " />
<glyph unicode="&#x202f;" horiz-adv-x="379" />
<glyph unicode="&#x2039;" horiz-adv-x="516" d="M78 580q5 13 10 22l191 283q23 33 57 33h141q21 0 27 -14q6 -15 -8 -32l-199 -292l96 -291q6 -21 -3 -33t-32 -12h-139q-37 0 -49 32l-90 283q-2 10 -2 21z" />
<glyph unicode="&#x203a;" horiz-adv-x="516" d="M50 256q-5 13 9 33l197 291l-94 292q-6 21 3 33q10 13 32 13h139q36 0 47 -33l90 -283q6 -12 2 -22q0 -10 -8 -21l-191 -283q-23 -32 -57 -32h-141q-24 0 -28 12z" />
<glyph unicode="&#x205f;" horiz-adv-x="474" />
<glyph unicode="&#x20ac;" horiz-adv-x="1155" d="M53 539l13 71q7 37 43 37h106q9 55 10 76l17 74h-103q-43 0 -32 39l12 71q6 37 43 37h119q172 520 653 520q177 0 303 -61q39 -18 18 -57l-69 -127q-22 -43 -66 -31q-90 35 -178 35q-277 0 -385 -279h426q42 0 25 -41l-33 -69q-16 -37 -53 -37h-408q-11 -39 -16 -74 q-8 -50 -11 -76h351q40 0 22 -41l-31 -67q-21 -37 -53 -37h-295q5 -279 289 -279q104 0 191 37q47 12 53 -33l24 -129q4 -37 -39 -55q-126 -61 -286 -61q-255 0 -385 139q-131 141 -127 381h-115q-39 0 -33 37z" />
<glyph unicode="&#x2122;" horiz-adv-x="1312" d="M209 1333l14 80q6 29 33 29h393q33 0 27 -29l-14 -80q-6 -33 -35 -33h-115l-88 -497q-6 -31 -35 -31h-102q-33 0 -27 31l88 497h-115q-29 0 -24 33zM653 803l107 608q6 31 35 31h98q30 0 37 -21l98 -276l199 276q12 21 37 21h108q33 0 27 -31l-109 -608q-5 -31 -35 -31 h-98q-30 0 -24 31l67 391l-172 -238q-20 -20 -33 -20q-17 0 -24 20l-90 238l-68 -391q-6 -31 -35 -31h-98q-33 0 -27 31z" />
<glyph unicode="&#x25fc;" horiz-adv-x="1095" d="M0 0v1096h1096v-1096h-1096z" />
</font>
</defs>
</svg>
