<?xml version="1.0" standalone="no"?>
<!DOCTYPE svg PUBLIC "-//W3C//DTD SVG 1.1//EN" "http://www.w3.org/Graphics/SVG/1.1/DTD/svg11.dtd" >
<svg xmlns="http://www.w3.org/2000/svg" xmlns:xlink="http://www.w3.org/1999/xlink" version="1.1">
<metadata></metadata>
<defs>
<font id="amsipronarw-xlighuploadedfile" horiz-adv-x="909" >
<font-face units-per-em="2048" ascent="1751" descent="-297" />
<missing-glyph horiz-adv-x="514" />
<glyph unicode="&#xfb01;" horiz-adv-x="911" d="M127 16l172 973h-143q-18 0 -13 19l4 32q2 17 21 17h143l19 110q24 140 86 210q61 69 170 69q57 0 102 -12q14 -1 12 -23l-6 -27q-6 -18 -24 -16q-33 10 -80 10q-80 0 -124 -51q-44 -52 -65 -164l-18 -106h465q14 0 12 -17l-180 -1024q-4 -16 -18 -16h-41q-19 0 -15 16 l170 973h-403l-172 -973q-4 -16 -19 -16h-39q-20 0 -16 16zM823 1260l29 157q5 19 20 19h41q17 0 15 -19l-29 -157q0 -19 -18 -19h-43q-15 0 -15 19z" />
<glyph unicode="&#xfb02;" horiz-adv-x="915" d="M127 16l172 973h-143q-18 0 -13 19l4 32q2 17 21 17h143l15 82q27 160 107 234q81 75 253 75q143 0 227 -27q17 -2 15 -20l-244 -1385q-4 -16 -18 -16h-41q-19 0 -15 16l238 1350q-68 12 -164 12q-139 0 -201 -58q-64 -59 -86 -185l-14 -78h197q18 0 12 -17l-4 -32 q-2 -19 -21 -19h-194l-172 -973q-4 -16 -19 -16h-39q-20 0 -16 16z" />
<glyph unicode="&#xfb03;" horiz-adv-x="1394" d="M127 16l172 973h-143q-18 0 -13 19l4 32q2 17 21 17h143l19 114q24 139 86 207t170 68q57 0 102 -12q14 -1 12 -23l-6 -27q-6 -20 -22 -16q-27 10 -80 10q-82 0 -126 -51q-45 -53 -63 -164l-18 -106h408l20 114q24 139 86 207t170 68q57 0 102 -12q13 -2 11 -23l-6 -27 q-4 -21 -23 -16q-27 10 -78 10q-83 0 -126 -51q-44 -52 -62 -164l-21 -106h463q16 0 14 -17l-180 -1024q-6 -16 -20 -16h-39q-20 0 -14 16l170 973h-406l-170 -973q-4 -16 -18 -16h-41q-19 0 -15 16l170 973h-407l-172 -973q-4 -16 -19 -16h-39q-20 0 -16 16zM1305 1260 l28 157q6 19 21 19h43q20 0 14 -19l-29 -157q-2 -19 -20 -19h-41q-16 0 -16 19z" />
<glyph unicode="&#xfb04;" horiz-adv-x="1396" d="M127 16l172 973h-143q-18 0 -13 19l4 32q2 17 21 17h143l19 114q24 139 86 207t170 68q57 0 102 -12q14 -1 12 -23l-6 -27q-6 -20 -22 -16q-27 10 -80 10q-82 0 -126 -51q-45 -53 -63 -164l-18 -106h408l16 82q27 160 107 234q81 75 251 75q146 0 230 -27q18 -1 12 -22 l-242 -1383q-4 -16 -20 -16h-39q-20 0 -16 16l239 1350q-67 12 -166 12q-136 0 -198 -58q-63 -59 -84 -185l-17 -78h197q14 0 12 -17l-4 -32q-2 -19 -20 -19h-197l-170 -973q-4 -16 -18 -16h-41q-19 0 -15 16l170 973h-407l-172 -973q-4 -16 -19 -16h-39q-20 0 -16 16z" />
<glyph horiz-adv-x="0" />
<glyph unicode="&#xd;" horiz-adv-x="681" />
<glyph unicode=" "  horiz-adv-x="514" />
<glyph unicode="&#x09;" horiz-adv-x="514" />
<glyph unicode="&#xa0;" horiz-adv-x="514" />
<glyph unicode="!" horiz-adv-x="458" d="M92 16l23 127q1 15 18 15h82q15 0 14 -15l-22 -127q-4 -16 -21 -16h-77q-11 0 -15 4t-2 12zM182 391l168 1026q2 19 21 19h57q19 0 14 -19l-194 -1026q-4 -16 -21 -16h-30q-19 0 -15 16z" />
<glyph unicode="&#x22;" horiz-adv-x="559" d="M233 1010l33 266q4 47 17 131q7 34 18 46q10 11 35 11q22 0 30 -12q7 -11 1 -45l-27 -131l-66 -266h-41zM473 1010l31 266q6 64 18 131q6 33 18 45t35 12q41 0 31 -59l-28 -129l-62 -266h-43z" />
<glyph unicode="#" horiz-adv-x="1112" d="M29 453l6 32q5 17 20 17h193l194 434h-172q-14 0 -14 18l4 33q6 17 23 17h188l195 434q6 16 22 12l33 -8q18 -4 10 -21l-188 -417h368l193 434q10 18 22 12l33 -8q17 -2 10 -21l-188 -417h176q18 0 12 -17l-4 -33q0 -18 -20 -18h-193l-192 -434h170q16 0 16 -17l-8 -32 q0 -17 -18 -17h-191l-197 -438q-6 -20 -22 -14l-33 10q-14 4 -8 20l188 422h-368l-195 -438q-6 -20 -22 -14l-33 10q-18 4 -8 20l186 422h-174q-14 0 -14 17zM319 502h369l193 434h-367z" />
<glyph unicode="$" horiz-adv-x="933" d="M23 55l18 33q6 20 25 12q124 -47 303 -47q152 0 263 93t111 245q0 71 -41 133t-80 91q-44 33 -126 83q-12 8 -23 15q-124 77 -190 152q-68 77 -68 196q0 168 110 270q110 103 293 119l29 162q5 18 21 18h32q20 0 15 -18l-29 -158q126 -1 246 -43q18 -7 10 -24l-16 -33 q-6 -21 -25 -15q-103 41 -239 41q-155 0 -261 -82t-106 -235q0 -37 7 -65t29 -58l34 -45q13 -17 52 -45q12 -8 22.5 -16t18 -13.5t9.5 -6.5q8 -6 61 -40q68 -43 109 -72q40 -29 88 -74q50 -47 75 -106q23 -55 23 -127q0 -166 -109 -276t-286 -133l-29 -162q-2 -19 -18 -19 h-35q-14 0 -12 19l29 158q-205 0 -326 51q-20 6 -14 22z" />
<glyph unicode="%" horiz-adv-x="1560" d="M170 907q0 71 14 135q69 406 336 406q108 0 166 -70q57 -69 57 -200q0 -74 -12 -136q-69 -403 -336 -403q-109 0 -167 69q-58 68 -58 199zM240 909q0 -204 157 -204q204 0 265 337q14 84 14 134q0 206 -158 206q-203 0 -264 -340q-14 -80 -14 -133zM272 20l1024 1399 q12 17 29 17h43q8 0 10 -6q2 -8 -4 -15l-1024 -1399q-16 -16 -28 -16h-41q-25 0 -9 20zM903 254q0 55 10 139q72 404 340 404q107 0 165 -69q59 -70 59 -202q0 -55 -13 -135q-72 -403 -340 -403q-107 0 -163 68q-58 70 -58 198zM973 258q0 -205 155 -205q205 0 265 340 q12 73 12 131q0 207 -158 207q-202 0 -262 -338q-12 -78 -12 -135z" />
<glyph unicode="&#x26;" horiz-adv-x="1236" d="M80 330q0 187 118 333t306 203l-33 56q-70 119 -70 225q0 142 100 225q98 82 259 82q133 0 211 -35q18 -7 12 -22l-14 -29q-6 -18 -27 -12q-69 30 -180 30q-119 0 -203 -60t-84 -177q0 -77 72 -201l395 -680q100 139 100 332q0 33 17 33h39q18 0 18 -39q0 -203 -135 -389 l115 -187q4 -6 1 -12t-12 -6h-51q-22 0 -35 25l-71 122q-159 -163 -418 -163q-198 0 -314 92t-116 254zM162 336q0 -133 92 -208t258 -75q243 0 377 154l-350 604q-162 -51 -269 -178q-108 -129 -108 -297z" />
<glyph unicode="'" horiz-adv-x="319" d="M233 1010l33 266q4 47 17 131q7 34 18 46q10 11 35 11q22 0 30 -12q7 -11 1 -45l-27 -131l-66 -266h-41z" />
<glyph unicode="(" horiz-adv-x="581" d="M166 344q0 292 117 578q118 290 321 516q12 12 27 12h37q16 0 6 -16q-199 -221 -313 -508q-115 -288 -115 -584q0 -323 135 -559q8 -19 -10 -19h-37q-18 0 -23 11q-145 257 -145 569z" />
<glyph unicode=")" horiz-adv-x="581" d="M-41 -217q197 218 312 505q116 289 116 580q0 328 -137 566q-10 16 12 16h37q14 0 20 -12q146 -251 146 -570q0 -289 -116 -578q-115 -287 -322 -515q-11 -11 -25 -11h-37q-22 0 -6 19z" />
<glyph unicode="*" horiz-adv-x="737" d="M193 987q-11 29 32 51q19 12 224 105q-8 5 -31.5 17t-39.5 21q-23 13 -73 39q-29 15 -43 25q-37 22 -16 51q23 30 59 4q14 -7 41 -28q20 -16 64 -49q54 -41 63 -47q5 39 9 88q2 24 10 87l6 54q6 26 15 37q9 10 28 10q20 0 24 -10t-2 -37q-6 -49 -55 -229q202 117 217 124 q46 27 57 -2q7 -33 -34 -53l-226 -102q166 -89 189 -105q37 -22 16 -51q-23 -30 -59 -4q-47 27 -168 127q-12 -111 -27 -229q-6 -50 -41 -50q-32 0 -24 50q1 5 55 229q-155 -95 -215 -127q-44 -27 -55 4z" />
<glyph unicode="+" horiz-adv-x="1054" d="M150 707l6 32q5 19 20 19h367l69 403q2 17 21 17h39q18 0 12 -17l-72 -403h369q14 0 12 -19l-4 -32q-6 -19 -22 -19h-367l-72 -405q0 -17 -18 -17h-39q-18 0 -12 17l71 405h-368q-14 0 -12 19z" />
<glyph unicode="," horiz-adv-x="364" d="M25 -178l67 178h-31q-18 0 -14 16l21 125q6 17 20 17h78q14 0 12 -17l-18 -121l-8 -22l-80 -180q-8 -15 -21 -15h-18q-13 0 -8 19z" />
<glyph unicode="-" horiz-adv-x="667" d="M96 520l6 37q4 16 21 16h461q16 0 12 -16l-6 -37q-1 -14 -21 -14h-460q-19 0 -13 14z" />
<glyph unicode="." horiz-adv-x="364" d="M47 16l21 125q6 17 20 17h78q14 0 12 -17l-18 -125q-6 -16 -21 -16h-78q-18 0 -14 16z" />
<glyph unicode="/" horiz-adv-x="684" d="M-57 18l811 1401q11 17 26 17h39q21 0 10 -21l-813 -1399q-6 -16 -22 -16h-41q-17 0 -10 18z" />
<glyph unicode="0" horiz-adv-x="1120" d="M123 426q0 132 29 291q66 374 206 555q140 182 367 182q358 0 358 -446q0 -126 -28 -291q-63 -371 -205 -554q-141 -181 -367 -181q-360 0 -360 444zM203 426q0 -373 284 -373q369 0 488 662q31 174 31 293q0 372 -285 372q-370 0 -488 -661q-30 -159 -30 -293z" />
<glyph unicode="1" horiz-adv-x="706" d="M193 1149q-10 14 8 22l356 256q25 9 27 9h43q21 0 16 -19l-248 -1401q-4 -16 -20 -16h-43q-19 0 -15 16l232 1319l-313 -217q-17 -12 -23 0z" />
<glyph unicode="2" horiz-adv-x="1042" d="M33 16l4 33q0 17 18 29q107 80 162 123q44 34 163 132q102 83 170 150q50 49 144 153q82 92 126 168q45 79 77 168q33 92 33 175q0 235 -260 235q-162 0 -262 -99q-101 -99 -101 -261q0 -31 -20 -31h-39q-19 0 -19 31q0 192 127 312t316 120q173 0 255 -85 q83 -86 83 -222q0 -101 -38 -210q-38 -108 -114 -210q-83 -110 -150 -187q-73 -84 -188 -183q-111 -96 -181 -151q-118 -93 -173 -134h672q16 -10 16 -17l-6 -39q-4 -16 -21 -16h-780q-15 0 -14 16z" />
<glyph unicode="3" horiz-adv-x="940" d="M-10 55l18 35q8 19 25 14q130 -53 286 -53q195 0 313 123q118 122 118 313q0 228 -267 228h-116q-19 0 -15 18l6 35q6 18 21 18h117q154 0 249 117q95 118 95 268q0 211 -273 211q-153 0 -293 -51q-10 -4 -16 -1q-5 3 -4 13l-4 33q-2 13 16 23q155 55 303 55 q170 0 260 -72q91 -73 91 -202q0 -149 -77 -271q-76 -120 -210 -155q86 -15 141 -79t55 -181q0 -239 -140 -375q-142 -137 -372 -137q-192 0 -315 55q-14 5 -12 18z" />
<glyph unicode="4" horiz-adv-x="1085" d="M59 377l4 37q1 6 13 26l833 981q15 15 25 15h47q19 0 14 -19l-174 -987h197q18 0 14 -18l-6 -35q0 -19 -18 -19h-197l-61 -342q-4 -16 -21 -16h-41q-20 0 -16 16l61 342h-661q-19 0 -13 19zM156 430h589l154 881z" />
<glyph unicode="5" horiz-adv-x="966" d="M12 57l17 35q6 16 22 10q123 -51 287 -51q214 0 335 145q120 144 120 361q0 244 -275 244q-76 0 -144 -14q-74 -15 -104 -26q-36 -13 -45 -13q-11 0 -18 6l-19 8q-12 8 -8 24q89 327 148 631q6 19 22 19h594q19 0 14 -19l-4 -37q-6 -16 -22 -16h-545q-50 -262 -127 -543 q129 49 264 49q176 0 262 -84t86 -227q0 -255 -145 -416t-389 -161q-198 0 -318 53q-18 11 -8 22z" />
<glyph unicode="6" horiz-adv-x="1052" d="M119 414q0 118 31 282q63 376 214 568q150 190 400 190q132 0 215 -39q17 -8 12 -20l-16 -33q-6 -20 -23 -14q-87 34 -190 34q-442 0 -547 -768q44 130 151 215q109 86 269 86q168 0 252 -93t84 -242q0 -236 -133 -417t-353 -181q-181 0 -273 110q-93 111 -93 322z M207 362q0 -128 69 -220q69 -91 213 -91q128 0 222 85t136 201q42 115 42 238q0 122 -64 197q-63 74 -202 74q-184 0 -300 -151t-116 -333z" />
<glyph unicode="7" horiz-adv-x="935" d="M199 16q66 314 278 700q214 390 436 648h-657q-15 0 -14 16l6 37q6 19 22 19h729q22 0 17 -19l-8 -35q0 -6 -17 -28q-222 -256 -439 -649q-213 -386 -271 -689q-4 -16 -19 -16h-47q-20 0 -16 16z" />
<glyph unicode="8" horiz-adv-x="1030" d="M70 274q0 178 119 298q120 122 296 173q-252 95 -252 310q0 183 133 292q131 107 314 107q167 0 256 -76q90 -77 90 -198q0 -160 -108 -270q-107 -109 -273 -165q121 -38 197 -120q78 -84 78 -209q0 -200 -143 -319q-141 -117 -341 -117q-175 0 -270 80q-96 81 -96 214z M150 281q0 -107 75 -169q76 -63 217 -63q167 0 282 104q114 103 114 259q0 114 -76 189q-77 75 -205 108q-175 -51 -292 -160q-115 -108 -115 -268zM313 1059q0 -199 258 -277q161 51 270 149q107 97 107 243q0 99 -68 155q-69 57 -202 57q-153 0 -259 -92t-106 -235z" />
<glyph unicode="9" horiz-adv-x="1052" d="M150 41l16 31q6 20 27 14q78 -37 188 -37q217 0 353 183q138 184 190 583q-39 -125 -149 -211t-273 -86q-169 0 -252 92q-82 91 -82 244q0 151 55 285q56 135 170 224q115 89 262 89q363 0 363 -434q0 -107 -27 -283q-66 -377 -214 -565t-396 -188q-144 0 -219 36 q-18 6 -12 23zM250 860q0 -272 266 -272q186 0 302 150q116 151 116 333q0 128 -71 220q-70 91 -212 91q-96 0 -176 -50q-81 -50 -127 -129q-48 -83 -73 -168q-25 -87 -25 -175z" />
<glyph unicode=":" horiz-adv-x="423" d="M78 16l20 125q2 17 19 17h78q16 0 14 -17l-21 -125q-4 -16 -20 -16h-76q-20 0 -14 16zM233 913l25 121q0 19 18 19h78q19 0 13 -17l-23 -123q0 -18 -18 -18h-78q-20 0 -15 18z" />
<glyph unicode=";" horiz-adv-x="423" d="M53 -178l68 178h-29q-20 0 -14 16l20 125q2 17 19 17h78q16 0 14 -17l-21 -121q-5 -17 -8 -22l-78 -180q-8 -15 -20 -15h-19q-15 0 -10 19zM233 913l25 123q0 17 18 17h78q19 0 13 -17l-23 -123q0 -18 -18 -18h-78q-20 0 -15 18z" />
<glyph unicode="&#x3c;" horiz-adv-x="1054" d="M180 721q1 8 15 22l768 564q16 10 22 -2l23 -29q6 -13 -9 -25l-725 -530l539 -531q8 -12 -2 -22l-31 -31q-12 -12 -22 -2l-570 565q-10 10 -8 21z" />
<glyph unicode="=" horiz-adv-x="1054" d="M129 502l8 37q0 14 21 14h770q14 0 14 -14l-6 -37q-2 -15 -21 -15h-772q-15 0 -14 15zM201 907l8 35q0 16 18 16h772q15 0 15 -16l-8 -35q-1 -16 -19 -16h-772q-15 0 -14 16z" />
<glyph unicode="&#x3e;" horiz-adv-x="1054" d="M137 168q-8 11 6 22l725 531l-538 530q-11 13 4 25l28 29q12 13 23 2l571 -564q9 -9 9 -22q-1 -10 -17 -21l-768 -565q-16 -10 -24 2z" />
<glyph unicode="?" horiz-adv-x="860" d="M236 1376q0 14 18 21q133 57 293 57q167 0 246 -69t79 -187q0 -101 -39 -183q-40 -84 -99 -148q-47 -50 -119 -119q-58 -56 -109 -126q-50 -70 -62 -139l-16 -90q-2 -18 -20 -18h-39q-11 0 -15 4t-2 12l19 92q16 82 62 151q48 72 108 132q48 48 115 122q59 65 96 141 q39 79 39 167q0 186 -248 186q-136 0 -283 -53q-20 -6 -20 12zM268 16l19 127q6 15 22 15h78q9 0 14 -3q4 -3 2 -12l-22 -127q-4 -16 -19 -16h-79q-19 0 -15 16z" />
<glyph unicode="@" horiz-adv-x="1673" d="M109 258q0 250 107 468q108 220 319 364q210 143 477 143q571 0 571 -451q0 -116 -32 -239q-31 -121 -93 -228q-61 -106 -167 -174q-104 -67 -238 -67h-72q-33 0 -25 30l41 148q-114 -189 -305 -189q-104 0 -164 69q-59 68 -59 179q0 235 153 433t396 198q129 0 235 -41 q15 -4 9 -20l-240 -748h35q116 0 209 61t146 157q55 100 83 208q29 113 29 223q0 188 -120 290t-394 102q-242 0 -436 -126q-193 -126 -298 -333q-104 -205 -104 -451q0 -221 139 -321q140 -101 422 -101q190 0 336 49q18 6 18 -12l3 -24q0 -13 -17 -19q-145 -51 -342 -51 q-622 0 -622 473zM545 317q0 -89 40 -138q41 -50 120 -50q118 0 211 94q94 96 145 252l121 379q-77 25 -168 25q-138 0 -248 -85q-111 -85 -166 -212q-55 -126 -55 -265z" />
<glyph unicode="A" horiz-adv-x="1099" d="M-20 18l688 1399q11 19 26 19h51q18 0 23 -19l195 -1399q5 -18 -17 -18h-47q-12 0 -16 16l-60 422h-555l-207 -422q-6 -16 -20 -16h-51q-18 0 -10 18zM305 510h508l-106 821h-5z" />
<glyph unicode="B" horiz-adv-x="1122" d="M80 16l246 1401q2 19 22 19h359q389 0 389 -275q0 -149 -77 -264t-222 -149q219 -38 219 -269q0 -232 -148 -356q-147 -123 -403 -123h-369q-20 0 -16 16zM168 74h297q217 0 343 98q128 99 128 309q0 116 -80 172t-256 56h-321zM291 780h313q189 0 301 94q113 95 113 283 q0 112 -76 158q-77 47 -242 47h-305z" />
<glyph unicode="C" horiz-adv-x="983" d="M123 436q0 134 26 281q69 382 223 560q153 177 414 177q150 0 244 -49q18 -8 12 -25l-16 -30q-10 -21 -27 -13q-93 43 -211 43q-229 0 -362 -158q-134 -159 -195 -505q-28 -165 -28 -277q0 -195 88 -289q90 -96 270 -96q129 0 236 45q20 10 20 -14l6 -33q0 -14 -20 -20 q-111 -51 -252 -51q-428 0 -428 454z" />
<glyph unicode="D" horiz-adv-x="1124" d="M80 16l246 1401q2 19 22 19h264q236 0 358 -102t122 -345q0 -104 -29 -266q-69 -403 -234 -564q-163 -159 -446 -159h-287q-20 0 -16 16zM168 74h215q248 0 391 140t209 509q25 156 25 256q0 212 -101 298q-100 85 -299 85h-213z" />
<glyph unicode="E" horiz-adv-x="907" d="M80 16l246 1401q2 19 22 19h610q22 0 17 -19l-8 -39q-6 -16 -21 -16h-551l-104 -590h534q19 0 15 -18l-6 -37q-6 -19 -21 -19h-537l-108 -624h555q19 0 14 -17l-6 -39q-1 -18 -20 -18h-615q-20 0 -16 16z" />
<glyph unicode="F" horiz-adv-x="878" d="M80 16l246 1401q2 19 22 19h604q19 0 17 -19l-8 -39q-4 -16 -21 -16h-545l-104 -596h532q19 0 15 -16l-7 -39q-5 -17 -20 -17h-535l-116 -678q-6 -16 -21 -16h-43q-20 0 -16 16z" />
<glyph unicode="G" horiz-adv-x="1103" d="M123 438q0 127 29 281q69 386 226 561q156 174 435 174q156 0 262 -51q18 -8 12 -25l-16 -32q-8 -21 -27 -13q-100 47 -233 47q-249 0 -383 -155q-136 -157 -197 -506q-26 -152 -26 -277q0 -202 91 -294q92 -93 284 -93q138 0 245 45l109 613h-311q-21 0 -17 18l6 37 q1 16 21 16h373q17 0 16 -16l-123 -688q-1 -20 -31 -39q-121 -59 -295 -59q-228 0 -339 111t-111 345z" />
<glyph unicode="H" horiz-adv-x="1153" d="M80 16l246 1401q2 19 22 19h43q20 0 15 -19l-113 -645h676l112 645q5 19 21 19h43q19 0 14 -19l-246 -1401q-4 -16 -20 -16h-43q-20 0 -14 16l118 682h-675l-119 -682q-6 -16 -21 -16h-43q-20 0 -16 16z" />
<glyph unicode="I" horiz-adv-x="419" d="M92 16l246 1401q6 19 20 19h43q22 0 17 -19l-248 -1401q-4 -16 -20 -16h-44q-18 0 -14 16z" />
<glyph unicode="J" horiz-adv-x="743" d="M-16 57l16 35q5 25 25 10q78 -45 184 -45q120 0 186 69q65 68 92 224l191 1067q2 19 18 19h45q17 0 15 -19l-191 -1073q-33 -190 -116 -274q-84 -86 -242 -86q-128 0 -213 49q-20 10 -10 24z" />
<glyph unicode="K" horiz-adv-x="976" d="M80 16l246 1401q2 19 22 19h43q20 0 15 -19l-111 -618l680 622q21 15 31 15h65q11 0 13 -8q1 -7 -7 -15l-729 -661l500 -729q6 -8 3 -16q-3 -7 -13 -7h-52q-14 0 -28 14l-475 699l-123 -697q-6 -16 -21 -16h-43q-20 0 -16 16z" />
<glyph unicode="L" horiz-adv-x="864" d="M80 16l246 1401q2 19 22 19h43q20 0 15 -19l-238 -1343h534q15 0 13 -19l-4 -39q-4 -16 -23 -16h-592q-20 0 -16 16z" />
<glyph unicode="M" horiz-adv-x="1318" d="M80 16l246 1401q2 19 22 19h45q17 0 19 -15l264 -852l561 852q15 15 27 15h49q19 0 14 -19l-246 -1401q-6 -16 -20 -16h-43q-11 0 -15 4t-2 12l224 1264l-541 -817q-8 -17 -29 -17q-16 0 -22 17l-252 817l-223 -1264q-4 -16 -19 -16h-43q-20 0 -16 16z" />
<glyph unicode="N" horiz-adv-x="1163" d="M80 16l246 1401q2 19 22 19h41q17 0 25 -15l456 -1276l224 1272q5 19 20 19h43q19 0 14 -19l-245 -1401q-6 -16 -21 -16h-43q-18 0 -24 14l-457 1274l-223 -1272q-4 -16 -19 -16h-43q-20 0 -16 16z" />
<glyph unicode="O" horiz-adv-x="1183" d="M121 432q0 133 26 285q68 377 218 559q147 178 391 178q395 0 395 -450q0 -120 -31 -287q-66 -378 -213 -557q-147 -178 -391 -178q-395 0 -395 450zM201 434q0 -381 317 -381q208 0 335 160q125 158 187 504q31 191 31 284q0 196 -79 287q-80 92 -238 92 q-210 0 -337 -160q-128 -161 -188 -503q-28 -153 -28 -283z" />
<glyph unicode="P" horiz-adv-x="1042" d="M80 16l246 1401q5 19 22 19h264q225 0 327 -75q101 -74 101 -247q0 -66 -16 -162q-45 -266 -171 -374q-127 -109 -390 -109h-225l-78 -453q-6 -16 -21 -16h-43q-20 0 -16 16zM252 543h213q227 0 333 89q105 89 146 320q14 78 14 156q0 141 -80 197q-81 57 -268 57h-215z " />
<glyph unicode="Q" horiz-adv-x="1183" d="M121 434q0 126 29 285q67 377 215 557q147 178 393 178q393 0 393 -448q0 -120 -31 -287q-62 -355 -198 -533q-136 -177 -359 -194q107 -78 277 -78q18 0 30 1t27 1t19 -3q5 -4 4 -15l-7 -31q-2 -23 -49 -23q-259 0 -401 142q-342 23 -342 448zM201 434q0 -381 317 -381 q209 0 335 161q125 159 187 505q31 167 31 282q0 379 -317 379q-210 0 -337 -160q-128 -161 -188 -501q-28 -172 -28 -285z" />
<glyph unicode="R" horiz-adv-x="1064" d="M80 16l246 1401q2 19 22 19h279q222 0 328 -74t106 -236q0 -59 -14 -143q-39 -216 -147 -320q-108 -103 -306 -120l268 -520q8 -23 -14 -23h-45q-18 0 -25 14l-266 521h-262l-90 -519q-6 -16 -21 -16h-43q-20 0 -16 16zM262 608h234q221 0 326 84t143 293q12 74 12 131 q0 133 -83 190q-81 56 -271 56h-228z" />
<glyph unicode="S" horiz-adv-x="888" d="M16 45l17 35q6 20 24 12q113 -39 262 -39q163 0 272 91t109 253q0 61 -17 103q-19 48 -60 86t-72 61q-26 19 -94 64q-126 79 -185 151q-63 76 -63 191q0 185 118 293t316 108q150 0 250 -41q18 -6 12 -22l-14 -35q-8 -19 -27 -13q-83 37 -223 37q-159 0 -257 -83 q-97 -82 -97 -238q0 -54 14 -92q16 -43 54 -78q30 -28 65 -54q26 -19 86 -59q69 -44 103 -70q32 -24 83 -75q48 -48 69 -103q21 -56 21 -122q0 -193 -128 -309q-127 -115 -335 -115q-193 0 -290 41q-17 8 -13 22z" />
<glyph unicode="T" horiz-adv-x="868" d="M217 1378l8 39q5 19 21 19h719q18 0 12 -19l-6 -39q-4 -16 -21 -16h-319l-236 -1346q-6 -16 -20 -16h-43q-11 0 -15 4t-2 12l238 1346h-322q-18 0 -14 16z" />
<glyph unicode="U" horiz-adv-x="1134" d="M133 305q0 79 14 148l170 964q2 19 21 19h43q21 0 16 -19l-170 -960q-14 -69 -14 -146q0 -132 67 -196t214 -64q183 0 277 97q95 98 132 309l170 960q5 19 19 19h45q19 0 14 -19l-172 -964q-41 -244 -156 -359q-114 -114 -331 -114q-359 0 -359 325z" />
<glyph unicode="V" horiz-adv-x="1073" d="M233 1415q0 21 19 21h43q18 0 18 -19l117 -956l37 -363h6l164 361l455 958q6 19 22 19h47q21 0 13 -21l-664 -1397q-8 -18 -27 -18h-57q-22 0 -23 18z" />
<glyph unicode="W" horiz-adv-x="1671" d="M246 1413q0 23 18 23h45q19 0 19 -19l57 -928l18 -391h7l159 394l387 925q6 19 27 19h47q19 0 19 -19l61 -925l20 -394h7l157 391l383 928q11 19 25 19h45q18 0 12 -23l-583 -1393q-7 -20 -27 -20h-59q-22 0 -23 18l-63 951l-21 334h-4l-133 -334l-402 -951 q-6 -18 -24 -18h-62q-21 0 -22 20z" />
<glyph unicode="X" horiz-adv-x="1013" d="M-16 20l526 709l-266 686q-8 21 14 21h49q17 0 21 -15l233 -622l455 622q10 15 26 15h54q16 0 8 -21l-508 -686l276 -709q4 -20 -14 -20h-49q-18 0 -25 14l-241 645l-473 -645q-11 -14 -27 -14h-51q-24 0 -8 20z" />
<glyph unicode="Y" horiz-adv-x="1044" d="M233 1415q-7 21 17 21h45q15 0 20 -17l170 -559l64 -229h2l143 229l369 559q12 17 24 17h50q15 0 8 -21l-567 -860l-97 -539q-4 -16 -18 -16h-45q-18 0 -12 16l94 539z" />
<glyph unicode="Z" horiz-adv-x="952" d="M18 16l7 39q2 13 16 27l872 1280h-622q-19 0 -15 16l9 39q2 19 20 19h694q17 0 15 -19l-8 -37q-1 -9 -13 -28l-870 -1278h641q21 0 16 -17l-8 -41q-4 -16 -18 -16h-721q-19 0 -15 16z" />
<glyph unicode="[" horiz-adv-x="581" d="M88 -209l287 1626q2 19 20 19h244q17 0 12 -19l-6 -31q0 -18 -20 -18h-185l-270 -1528h186q15 0 15 -16l-6 -33q-6 -16 -19 -16h-244q-20 0 -14 16z" />
<glyph unicode="\" horiz-adv-x="684" d="M190 1415q-4 21 17 21h35q15 0 20 -17l320 -1401q0 -18 -17 -18h-35q-21 0 -22 16z" />
<glyph unicode="]" horiz-adv-x="583" d="M-20 -209l6 33q1 16 20 16h189l266 1528h-185q-16 0 -16 18l6 31q6 19 23 19h241q19 0 13 -19l-287 -1626q-4 -16 -18 -16h-242q-20 0 -16 16z" />
<glyph unicode="^" horiz-adv-x="1054" d="M178 731l475 688q12 17 27 17h35q15 0 20 -17l232 -688q7 -20 -15 -20h-41q-16 0 -22 14l-207 616l-424 -616q-14 -14 -27 -14h-45q-22 0 -8 20z" />
<glyph unicode="_" horiz-adv-x="823" d="M-63 -145l4 26q2 17 18 17h700q21 0 15 -17l-4 -26q-5 -17 -19 -17h-702q-17 0 -12 17z" />
<glyph unicode="`" horiz-adv-x="579" d="M337 1401q3 8 15 8h58q21 0 28 -18l97 -179q5 -6 0 -12t-13 -6h-22q-16 0 -23 12l-137 178q-7 8 -3 17z" />
<glyph unicode="a" d="M39 217q0 91 27 158t80 110q54 43 114 72q59 28 148 43q90 15 156 21q76 7 167 8l21 125q8 46 8 86q0 86 -50 128q-49 42 -159 42q-152 0 -291 -58q-18 -4 -18 13l-2 32q0 17 18 23q141 57 301 57q275 0 275 -235q0 -40 -9 -92l-129 -734q-4 -16 -20 -16h-37 q-20 0 -14 16l28 177q-112 -205 -356 -205q-127 0 -192 61q-66 61 -66 168zM113 221q0 -77 48 -124q47 -46 144 -46q153 0 254 94q103 96 127 238l33 184q-88 -1 -145 -6q-63 -5 -136 -16q-79 -12 -130 -35q-53 -24 -99 -59q-49 -37 -73 -96q-23 -56 -23 -134z" />
<glyph unicode="b" horiz-adv-x="1007" d="M68 16l245 1401q2 19 21 19h41q18 0 12 -19l-100 -571q117 231 354 231q149 0 227 -90t78 -260q0 -89 -18 -197q-99 -548 -461 -548q-124 0 -200 60t-93 169l-33 -195q-6 -16 -18 -16h-41q-20 0 -14 16zM213 348q0 -299 250 -299q303 0 387 481q18 106 18 195 q0 285 -237 285q-154 0 -256 -122q-104 -123 -144 -358q-18 -100 -18 -182z" />
<glyph unicode="c" horiz-adv-x="790" d="M84 332q0 87 18 198q96 547 482 547q140 0 213 -43q14 -10 10 -24l-14 -31q-10 -18 -27 -10q-73 41 -180 41q-165 0 -264 -119q-98 -117 -142 -361q-20 -100 -20 -196q0 -283 254 -283q120 0 204 41q23 12 23 -8l4 -33q0 -15 -20 -22q-100 -47 -211 -47q-162 0 -246 89 t-84 261z" />
<glyph unicode="d" horiz-adv-x="1007" d="M82 332q0 98 20 198q99 547 461 547q121 0 196 -62q77 -64 95 -169l100 571q5 19 19 19h41q18 0 16 -19l-248 -1401q-4 -16 -20 -16h-41q-18 0 -14 16l34 197q-113 -231 -352 -231q-149 0 -228 90q-79 89 -79 260zM160 332q0 -283 237 -283q154 0 256 122 q103 122 146 359q18 86 18 179q0 301 -252 301q-302 0 -385 -480q-20 -100 -20 -198z" />
<glyph unicode="e" d="M84 338q0 97 20 194q95 545 463 545q146 0 218 -85q73 -87 73 -238q0 -77 -18 -176l-13 -68q-1 -16 -20 -16h-635q-14 -74 -14 -152q0 -295 284 -295q126 0 238 47q20 10 20 -12l5 -29q0 -11 -19 -22q-122 -51 -250 -51q-352 0 -352 358zM182 559h580l4 21q18 119 18 178 q0 254 -219 254q-293 0 -383 -453z" />
<glyph unicode="f" horiz-adv-x="573" d="M127 16l172 973h-143q-18 0 -13 19l4 32q2 17 21 17h143l19 104q24 147 87 216t179 69q55 0 100 -12q15 -1 13 -23l-9 -27q-4 -20 -22 -16q-26 10 -80 10q-89 0 -132 -52q-44 -54 -65 -173l-16 -96h229q15 0 13 -17l-6 -32q-2 -19 -19 -19h-229l-172 -973q-4 -16 -19 -16 h-39q-20 0 -16 16z" />
<glyph unicode="g" horiz-adv-x="966" d="M57 -168l13 33q12 16 24 10q118 -53 248 -53q295 0 350 307l31 174q-108 -223 -336 -223q-139 0 -216 86t-77 244q0 83 17 168q44 242 151 370q108 129 281 129q113 0 187 -59q75 -60 91 -160l31 182q2 17 20 17h39q17 0 15 -17l-162 -915q-62 -371 -420 -371 q-169 0 -276 58q-19 8 -11 20zM172 412q0 -267 223 -267q144 0 243 117q100 118 134 324q16 83 16 147q0 136 -62 207q-63 72 -179 72q-141 0 -233 -113q-90 -111 -128 -321q-14 -80 -14 -166z" />
<glyph unicode="h" horiz-adv-x="985" d="M68 16l245 1401q2 19 21 19h41q18 0 12 -19l-94 -547q114 207 350 207q131 0 197 -66q65 -65 65 -186q0 -47 -8 -90l-127 -719q-4 -16 -18 -16h-39q-11 0 -15 4t-2 12l127 713q8 61 8 82q0 197 -202 197q-134 0 -241 -93q-106 -93 -130 -237l-117 -660q-1 -18 -18 -18 h-41q-20 0 -14 16z" />
<glyph unicode="i" horiz-adv-x="376" d="M72 16l180 1024q2 17 20 17h41q15 0 13 -17l-181 -1024q-6 -16 -18 -16h-41q-20 0 -14 16zM285 1235l26 160q4 16 21 16h45q16 0 12 -16l-27 -160q-4 -16 -20 -16h-45q-18 0 -12 16z" />
<glyph unicode="j" horiz-adv-x="391" d="M-133 -205l8 33q0 16 21 12q28 -6 57 -6q57 0 86 38q28 36 43 122l184 1046q2 17 21 17h41q18 0 12 -17l-186 -1052q-18 -114 -63 -168q-44 -53 -134 -53q-47 0 -76 6q-15 4 -14 22zM299 1235l27 160q6 16 20 16h45q19 0 15 -16l-27 -160q-6 -16 -23 -16h-43 q-18 0 -14 16z" />
<glyph unicode="k" horiz-adv-x="804" d="M68 16l245 1401q2 19 21 19h41q18 0 12 -19l-135 -776l493 406q14 10 33 10h64q12 0 13 -7q2 -8 -11 -16l-549 -442l389 -569q7 -8 2 -16q-4 -7 -14 -7h-47q-20 0 -27 14l-362 541l-95 -539q-4 -16 -18 -16h-41q-20 0 -14 16z" />
<glyph unicode="l" horiz-adv-x="376" d="M72 16l245 1401q2 19 21 19h41q14 0 12 -19l-246 -1401q-6 -16 -18 -16h-41q-20 0 -14 16z" />
<glyph unicode="m" horiz-adv-x="1517" d="M61 16l181 1024q2 17 20 17h39q16 0 14 -17l-28 -163q39 78 124 139t201 61q114 0 174 -56q62 -57 62 -155q45 88 135 150q89 61 213 61q121 0 181 -63q61 -64 61 -178q0 -47 -8 -93l-127 -727q-4 -16 -21 -16h-39q-20 0 -16 16l129 723q8 43 8 86q0 183 -182 183 q-121 0 -221 -86q-99 -85 -123 -222l-119 -684q-4 -16 -21 -16h-39q-18 0 -14 16l127 723q8 43 8 86q0 183 -180 183q-124 0 -224 -92q-100 -93 -124 -230l-117 -670q-4 -16 -18 -16h-41q-21 0 -15 16z" />
<glyph unicode="n" horiz-adv-x="976" d="M59 16l181 1024q6 17 22 17h39q14 0 12 -17l-28 -170q46 85 133 146q88 61 219 61q127 0 192 -65q66 -66 66 -185q0 -46 -8 -92l-127 -719q-4 -16 -19 -16h-39q-20 0 -16 16l127 715q8 43 8 86q0 191 -200 191q-136 0 -241 -94q-103 -93 -130 -238l-117 -660 q-4 -16 -18 -16h-39q-11 0 -15 4t-2 12z" />
<glyph unicode="o" horiz-adv-x="964" d="M82 334q0 79 20 196q99 547 480 547q156 0 239 -89q82 -88 82 -263q0 -82 -20 -195q-94 -548 -477 -548q-158 0 -241 89t-83 263zM160 338q0 -289 250 -289q312 0 397 481q18 107 18 191q0 289 -247 289q-314 0 -398 -480q-20 -100 -20 -192z" />
<glyph unicode="p" horiz-adv-x="1001" d="M20 -209l222 1249q2 17 20 17h39q16 0 14 -17l-34 -194q114 231 354 231q149 0 226 -90q77 -91 77 -262q0 -84 -16 -195q-99 -548 -461 -548q-123 0 -200 60q-76 60 -93 169l-74 -420q-4 -16 -18 -16h-41q-19 0 -15 16zM207 348q0 -299 250 -299q303 0 387 481 q18 106 18 195q0 285 -237 285q-154 0 -256 -122q-104 -123 -144 -358q-18 -100 -18 -182z" />
<glyph unicode="q" horiz-adv-x="1001" d="M82 332q0 98 20 198q96 547 461 547q121 0 196 -62q77 -64 95 -169l33 194q2 17 20 17h41q15 0 13 -17l-220 -1249q-4 -16 -20 -16h-41q-18 0 -14 16l73 422q-108 -231 -350 -231q-149 0 -228 90q-79 89 -79 260zM160 332q0 -283 237 -283q153 0 257 122q105 123 145 359 q18 100 18 179q0 301 -252 301q-302 0 -385 -480q-20 -100 -20 -198z" />
<glyph unicode="r" horiz-adv-x="591" d="M61 16l181 1024q2 17 20 17h39q16 0 14 -17l-36 -209q39 89 134 165q95 75 210 75q24 0 18 -20l-8 -43q0 -19 -19 -19q-7 0 -15 1t-17 1q-110 0 -211 -110q-102 -111 -129 -260l-107 -605q-4 -16 -18 -16h-41q-21 0 -15 16z" />
<glyph unicode="s" horiz-adv-x="763" d="M2 49l14 29q6 18 21 12q115 -41 242 -41q120 0 209 68q90 69 90 190q0 90 -103 158q-8 5 -115 65q-52 28 -84 49q-27 18 -66 50q-35 29 -52 69t-17 86q0 139 98 216t248 77q151 0 234 -37q17 -6 10 -22l-12 -31q-6 -16 -25 -10q-102 35 -205 35q-113 0 -192 -57 q-80 -57 -80 -167q0 -44 27 -81t51 -54q21 -14 96 -55q5 -3 12 -7t9 -5q144 -82 184 -127q57 -61 57 -148q0 -149 -105 -239t-267 -90q-167 0 -269 45q-16 6 -10 22z" />
<glyph unicode="t" horiz-adv-x="595" d="M133 1008l4 32q6 17 23 17h141l45 272q6 19 23 19h37q16 0 14 -19l-47 -272h241q19 0 13 -17l-2 -32q-6 -19 -23 -19h-242l-127 -715q-10 -49 -10 -100q0 -65 31 -91t100 -26q15 0 86 11q10 2 14 -2q5 -5 3 -13l2 -30q0 -16 -19 -21q-39 -12 -96 -12q-99 0 -146 40 q-48 40 -48 134q0 57 10 104l127 721h-140q-20 0 -14 19z" />
<glyph unicode="u" horiz-adv-x="964" d="M100 240q0 40 9 96l124 704q2 17 21 17h41q14 0 12 -17l-125 -698q-8 -66 -8 -88q0 -203 205 -203q132 0 230 94q99 95 126 240l115 655q2 17 20 17h41q15 0 13 -17l-181 -1024q-4 -16 -18 -16h-41q-18 0 -14 16l30 172q-107 -206 -333 -206q-267 0 -267 258z" />
<glyph unicode="v" horiz-adv-x="821" d="M156 1038q0 19 16 19h41q16 0 18 -17l78 -657l35 -283h4l131 283l312 657q6 17 22 17h47q16 0 8 -19l-491 -1022q-10 -16 -25 -16h-47q-18 0 -18 16z" />
<glyph unicode="w" horiz-adv-x="1320" d="M172 1038q0 19 18 19h39q17 0 17 -17l53 -729l8 -215h4l88 215l318 731q6 15 22 15h45q18 0 19 -15l59 -731l8 -215h4l87 215l311 729q8 17 22 17h45q17 0 9 -19l-441 -1022q-6 -16 -22 -16h-47q-19 0 -19 16l-61 705l-10 227h-7l-92 -227l-309 -705q-6 -16 -25 -16h-45 q-16 0 -20 16z" />
<glyph unicode="x" horiz-adv-x="831" d="M-27 6q-1 6 7 14l407 517l-221 499q-6 21 14 21h45q11 0 21 -10l190 -451l350 451q6 10 25 10h47q20 0 4 -21l-395 -499l227 -517q7 -20 -12 -20h-47q-13 0 -21 12l-194 465l-365 -465q-6 -12 -22 -12h-47q-12 0 -13 6z" />
<glyph unicode="y" horiz-adv-x="829" d="M-23 -199l13 31q6 18 22 14q43 -14 94 -14q91 0 148 80q47 66 47 123q0 12 -2 24l-139 979q-5 19 16 19h43q17 0 17 -17l90 -659l34 -279h5l127 279l303 659q8 17 24 17h45q21 0 10 -19l-475 -1007q-66 -144 -130 -205q-65 -62 -171 -62q-68 0 -108 17q-19 5 -13 20z" />
<glyph unicode="z" horiz-adv-x="821" d="M12 16l6 29q0 12 9 21l688 923h-502q-16 0 -14 17l6 34q2 17 20 17h580q16 0 14 -17l-6 -28q0 -9 -10 -23l-686 -921h522q15 0 14 -15l-6 -37q-4 -16 -20 -16h-600q-19 0 -15 16z" />
<glyph unicode="{" horiz-adv-x="581" d="M109 586l4 37q1 18 20 18h27q65 0 108 98q44 99 84 324q34 205 87 289t173 84h58q18 0 16 -19l-6 -33q-4 -16 -21 -16h-51q-78 0 -116 -68q-37 -66 -70 -243q-40 -233 -87 -334t-112 -119q72 -22 72 -168q0 -91 -31 -282q-22 -120 -22 -191q0 -64 22 -93q22 -30 78 -30 h47q17 0 17 -16l-7 -33q-6 -16 -22 -16h-53q-87 0 -121 40q-35 41 -35 128q0 80 22 202q35 193 35 285q0 139 -78 139h-26q-17 0 -12 17z" />
<glyph unicode="|" horiz-adv-x="489" d="M209 -209v1665q0 19 18 19h37q19 0 19 -19v-1665q0 -16 -19 -16h-37q-18 0 -18 16z" />
<glyph unicode="}" horiz-adv-x="581" d="M-55 -209l6 33q0 16 22 16h47q81 0 119 70t68 244q40 229 88 332q47 100 113 118q-74 23 -74 168q0 102 33 285q22 122 22 190q0 65 -23 92q-24 29 -77 29h-49q-19 0 -15 16l6 33q2 19 21 19h57q84 0 120 -41t36 -127q0 -58 -25 -205q-32 -186 -32 -283q0 -139 73 -139 h27q16 0 14 -18l-6 -37q-5 -17 -18 -17h-27q-67 0 -110 -99q-42 -96 -82 -325q-37 -203 -89 -287q-51 -83 -172 -83h-59q-18 0 -14 16z" />
<glyph unicode="~" horiz-adv-x="1052" d="M174 676q69 158 203 158q59 0 168 -46l88 -38q93 -41 143 -41q62 0 109 57q7 8 30 49q6 20 27 8l23 -12q12 -8 6 -27q-67 -155 -201 -155q-61 0 -170 47l-94 39q-100 41 -137 41q-63 0 -109 -60q-10 -11 -31 -49q-6 -20 -26 -8l-25 14q-10 4 -4 23z" />
<glyph unicode="&#xa1;" horiz-adv-x="454" d="M61 -209l168 875q5 18 19 18h33q19 0 14 -18l-141 -875q-4 -16 -21 -16h-57q-19 0 -15 16zM248 915l22 125q6 17 23 17h78q14 0 12 -17l-21 -125q-4 -18 -18 -18h-80q-16 0 -16 18z" />
<glyph unicode="&#xa2;" horiz-adv-x="827" d="M86 336q0 86 18 192q91 522 467 549l29 158q1 16 18 16h33q9 0 13.5 -4t3.5 -12l-29 -158q110 -6 188 -47q17 -6 11 -22l-17 -29q-6 -20 -24 -12q-73 43 -191 43q-176 0 -278 -120q-103 -121 -146 -362q-20 -97 -20 -188q0 -289 274 -289q124 0 213 43q21 8 21 -10l6 -31 q0 -14 -19 -22q-96 -46 -211 -47l-28 -160q-5 -19 -21 -19h-30q-21 0 -15 19l27 160q-143 10 -218 99t-75 253z" />
<glyph unicode="&#xa3;" horiz-adv-x="1114" d="M16 35q-8 12 9 18q335 166 335 477q0 80 -24 168h-180q-20 0 -15 17l6 33q4 14 19 14h156q-39 152 -39 227q0 210 133 337q134 128 340 128q168 0 253 -72t85 -194q0 -55 -11 -97q-10 -40 -26 -40h-45q-13 0 -13 14q0 1 1 5.5t4 15t5 20.5q9 38 9 80q0 90 -64 143 t-198 53q-182 0 -287 -112q-104 -111 -104 -285q0 -83 38 -223h357q15 0 14 -14l-6 -33q-5 -17 -20 -17h-330q20 -79 20 -161q0 -303 -268 -453q102 33 170 33q73 0 184 -30t183 -30q101 0 148 70q47 69 69 190q2 19 22 19h35q18 0 16 -19q-17 -85 -30 -123 q-17 -51 -47 -102q-29 -50 -84 -78q-51 -26 -127 -26q-87 0 -191 29q-108 30 -194 30q-154 0 -271 -55q-16 -6 -20 4z" />
<glyph unicode="&#xa4;" horiz-adv-x="1112" d="M129 174q-15 15 0 25l117 116q-68 103 -68 265t68 262l-117 119q-14 10 0 24l23 21q12 12 22 0l113 -111q97 115 268 115t268 -115l113 111q12 12 25 0l22 -21q12 -12 0 -24l-119 -119q68 -107 68 -262q0 -160 -68 -263l119 -118q10 -10 0 -25l-22 -20q-13 -12 -25 0 l-113 112q-91 -116 -268 -116t-268 116l-113 -112q-10 -15 -22 0zM246 580q0 -179 82 -273t227 -94q148 0 227 94q80 95 80 273q0 177 -80 272q-79 94 -227 94q-145 0 -227 -94t-82 -272z" />
<glyph unicode="&#xa5;" horiz-adv-x="1079" d="M115 426l4 29q5 18 20 18h361l12 55l-53 170h-279q-19 0 -14 17l6 30q5 17 18 17h248l-209 653q-4 21 17 21h45q14 0 22 -17l250 -807h4l535 807q12 17 26 17h48q16 0 8 -21l-439 -653h248q18 0 13 -17l-5 -30q-6 -17 -20 -17h-276l-117 -170l-8 -55h360q20 0 14 -18 l-4 -29q-4 -18 -20 -18h-361l-69 -392q-6 -16 -21 -16h-43q-18 0 -14 16l67 392h-360q-14 0 -14 18z" />
<glyph unicode="&#xa6;" horiz-adv-x="489" d="M209 -209v641q0 19 18 19h37q19 0 19 -19v-641q0 -16 -19 -16h-37q-18 0 -18 16zM209 815v641q0 19 18 19h37q19 0 19 -19v-641q0 -16 -19 -16h-37q-18 0 -18 16z" />
<glyph unicode="&#xa7;" horiz-adv-x="1185" d="M133 -178l4 28q6 19 27 15q124 -33 266 -33q62 0 114 11q60 13 113 35q58 24 94 71q35 45 35 110q0 25 -8 51q-8 24 -28 46l-20 22.5t-15 16.5q-16 17 -51 37q-5 3 -52 31q-24 14 -58 32t-54 29q-151 79 -212 135q-67 61 -67 149q0 123 100 206q100 84 234 106 q-172 106 -172 235q0 152 116 224q117 73 289 73q164 0 287 -39q16 -1 15 -22l-7 -29q-2 -18 -22 -14q-125 36 -273 36q-128 0 -230 -54q-101 -53 -101 -175q0 -73 64 -125q66 -54 210 -131q134 -72 205 -139q72 -68 72 -160q0 -119 -97 -196t-231 -101q182 -106 182 -244 q0 -103 -67 -171q-66 -67 -161 -95q-90 -26 -204 -26q-200 0 -283 30q-15 4 -14 25zM297 614q0 -76 68 -127q70 -53 217 -125q20 -8 26 -12q107 6 217 73q109 67 109 171q0 82 -77 142q-77 61 -230 134q-118 -2 -224 -72t-106 -184z" />
<glyph unicode="&#xa8;" horiz-adv-x="579" d="M233 1210l19 115q6 18 20 18h50q18 0 12 -18l-19 -115q-4 -16 -20 -16h-49q-17 0 -13 16zM526 1210l21 115q1 18 18 18h49q16 0 15 -18l-21 -115q-4 -16 -18 -16h-49q-21 0 -15 16z" />
<glyph unicode="&#xa9;" horiz-adv-x="1529" d="M123 717q0 204 63 366t212 267q147 104 366 104q168 0 292 -59q125 -60 200 -163q76 -105 113 -234q38 -132 38 -281q0 -150 -38 -282q-37 -128 -113 -233q-76 -104 -200 -162q-125 -58 -292 -58q-165 0 -290 58q-126 58 -201 162q-75 103 -112 233q-38 132 -38 282z M184 717q0 -295 144 -486q144 -190 436 -190q293 0 437 190q145 192 145 486q0 141 -33 260t-101 214t-182 149q-116 55 -266 55q-149 0 -265 -55q-114 -54 -182 -149q-66 -93 -100 -214q-33 -119 -33 -260zM463 719q0 428 336 428q107 0 180 -37q15 -6 10 -18l-8 -31 q-6 -16 -18 -10q-55 32 -158 32q-268 0 -268 -364q0 -363 266 -363q93 0 166 33q12 4 16 -10l8 -31q2 -12 -10 -18q-81 -37 -184 -37q-336 0 -336 426z" />
<glyph unicode="&#xaa;" horiz-adv-x="768" d="M195 1182q0 88 37 150q35 59 91 96q51 34 138 55q83 20 151 25q104 7 160 8l19 102q6 38 6 65q0 72 -41 104t-133 32q-120 0 -242 -45q-19 -11 -19 8l-2 30q-2 15 15 21q126 49 252 49q239 0 239 -192q0 -18 -8 -74l-104 -598q-5 -19 -23 -19h-31q-16 0 -14 19l21 129 q-86 -158 -291 -158q-104 0 -163 53q-58 52 -58 140zM262 1184q0 -135 162 -135q129 0 210 74q83 75 101 190l27 143q-60 0 -102 -3q-27 -2 -107 -11q-61 -7 -111 -27q-40 -16 -90 -46q-44 -26 -67 -76q-23 -49 -23 -109z" />
<glyph unicode="&#xab;" horiz-adv-x="651" d="M90 526v9l4 12l187 268q10 14 24 14h39q19 0 8 -18l-190 -276l92 -275q8 -18 -14 -18h-39q-13 0 -19 12zM342 526v9q0 1 6 12l184 268q14 14 25 14h41q16 0 6 -18l-190 -276l94 -275q4 -18 -14 -18h-41q-13 0 -19 12z" />
<glyph unicode="&#xac;" horiz-adv-x="1056" d="M160 707l8 34q2 17 20 17h736q14 0 12 -17l-68 -379q0 -16 -18 -16h-41q-18 0 -12 16l55 326h-678q-19 0 -14 19z" />
<glyph unicode="&#xad;" horiz-adv-x="667" d="M96 520l6 37q4 16 21 16h461q16 0 12 -16l-6 -37q-1 -14 -21 -14h-460q-19 0 -13 14z" />
<glyph unicode="&#xae;" horiz-adv-x="856" d="M98 1094q0 153 86 257q85 103 244 103t244 -103q86 -104 86 -257t-86 -257t-244 -104t-244 104t-86 257zM143 1094q0 -135 74 -226q74 -90 211 -90q138 0 211 90q74 91 74 226q0 134 -74 225q-74 90 -211 90q-138 0 -211 -90q-74 -91 -74 -225zM311 909v379q0 12 13 12 h106q154 0 154 -129q0 -113 -103 -124l92 -136q7 -14 -8 -14h-28q-9 0 -17 8l-92 137h-68v-133q0 -12 -10 -12h-26q-13 0 -13 12zM360 1087h66q60 0 84 19q22 18 22 65q0 46 -22 65t-84 19h-66v-168z" />
<glyph unicode="&#xaf;" horiz-adv-x="579" d="M195 1227l4 26q5 17 20 17h426q17 0 12 -17l-4 -26q-5 -17 -18 -17h-426q-19 0 -14 17z" />
<glyph unicode="&#xb0;" horiz-adv-x="643" d="M205 1151q0 121 80 213t207 92q96 0 151 -56t55 -147q0 -122 -80 -216q-80 -93 -204 -93q-96 0 -153 58q-56 57 -56 149zM268 1157q-2 -70 38 -111q40 -42 110 -42q91 0 154 72t63 173q0 69 -39 109q-39 41 -109 41q-91 0 -154 -72t-63 -170z" />
<glyph unicode="&#xb1;" horiz-adv-x="1054" d="M27 16l6 31q5 19 20 19h803q21 0 16 -19l-6 -31q-4 -16 -18 -16h-805q-20 0 -16 16zM152 715l6 35q2 18 20 18h365l71 401q5 19 21 19h37q16 0 14 -19l-70 -401h367q17 0 12 -18l-6 -35q-5 -17 -18 -17h-369l-72 -405q0 -17 -18 -17h-39q-17 0 -12 17l71 405h-368 q-17 0 -12 17z" />
<glyph unicode="&#xb2;" horiz-adv-x="692" d="M180 1020l2 24q6 17 17 23q3 2 11 8.5t23 18t31 23.5q56 42 78 60l75 60q55 45 78 70q17 18 68 69q45 45 66 77q28 43 47 75q24 41 35 82q10 39 10 80q0 133 -152 133q-94 0 -151 -57q-58 -58 -58 -148q0 -27 -22 -27h-29q-18 0 -18 21q0 120 79 196t203 76 q111 0 165 -54q55 -55 55 -140q0 -49 -19 -106q-16 -48 -40 -96q-22 -43 -70 -96l-77 -84q-27 -30 -92 -83q-22 -18 -50 -41.5t-35 -28.5q-14 -11 -86 -65l-13 -10q-2 -1 -5 -4t-5 -4l-12 -9h393q20 0 14 -19l-2 -24q-6 -21 -22 -21h-477q-21 0 -15 21z" />
<glyph unicode="&#xb3;" horiz-adv-x="692" d="M166 1047l10 26q10 16 25 12q72 -34 174 -34q118 0 189 64q73 65 73 175q0 133 -164 133h-74q-18 0 -16 19l4 24q1 21 23 21h73q94 0 150 62q57 63 57 153q0 119 -174 119q-75 0 -174 -31q-17 -6 -23 8l-2 29q-1 9 17 20q77 37 188 37q115 0 176 -46q62 -47 62 -132 q0 -84 -45 -155t-119 -95q50 -12 81 -55q32 -44 32 -113q0 -142 -95 -222q-94 -79 -237 -79q-121 0 -203 39q-14 6 -8 21z" />
<glyph unicode="&#xb4;" horiz-adv-x="579" d="M304 1200q-1 6 5 12l154 179q18 18 35 18h61q11 0 13 -8t-7 -17l-198 -178q-12 -12 -27 -12h-27q-7 0 -9 6z" />
<glyph unicode="&#xb5;" horiz-adv-x="966" d="M20 -209l222 1249q2 17 20 17h39q16 0 14 -17l-116 -657q-6 -39 -6 -76q0 -118 65 -187q66 -71 180 -71q242 0 295 291l125 700q2 17 21 17h41q14 0 12 -17l-125 -706q-60 -354 -363 -354q-129 0 -198 63q-70 64 -82 143l-70 -395q-4 -16 -18 -16h-41q-19 0 -15 16z" />
<glyph unicode="&#xb6;" horiz-adv-x="888" d="M186 948q0 204 137 346t353 142h321q19 0 17 -19l-6 -28q-6 -17 -21 -17h-72q-65 0 -91 -26q-28 -28 -40 -97l-225 -1267q-18 -117 -67 -166t-148 -49q-66 0 -96 12q-16 1 -10 20l6 27q1 14 20 12q43 -8 76 -8q69 0 102 36q34 37 50 122l112 635h-47q-166 0 -268 87 q-103 88 -103 238z" />
<glyph unicode="&#xb7;" horiz-adv-x="364" d="M125 467l20 125q6 16 21 16h78q13 0 12 -16l-18 -125q-6 -16 -21 -16h-78q-18 0 -14 16z" />
<glyph unicode="&#xb8;" horiz-adv-x="579" d="M111 -262l4 22q5 13 16 13h47q105 0 105 86q0 90 -127 159h53q66 -28 101 -72q38 -47 38 -96q0 -65 -47 -100t-117 -35q-54 0 -63 4q-15 6 -10 19z" />
<glyph unicode="&#xb9;" horiz-adv-x="692" d="M336 1649q-6 14 10 24l254 191q18 8 27 8h28q19 0 17 -21l-148 -831q-2 -21 -22 -21h-31q-15 0 -14 21l133 756l-211 -154q-17 -11 -29 4z" />
<glyph unicode="&#xba;" horiz-adv-x="796" d="M229 1280q0 63 13 156q82 446 397 446q268 0 268 -293q0 -80 -14 -153q-77 -449 -395 -449q-131 0 -200 75t-69 218zM299 1284q0 -235 201 -235q254 0 323 387q15 96 15 151q0 234 -199 234q-258 0 -324 -385q-16 -77 -16 -152z" />
<glyph unicode="&#xbb;" horiz-adv-x="651" d="M70 260l190 275l-92 276q-7 18 12 18h41q17 0 17 -14l92 -268q2 -8 2 -12l-4 -9l-189 -272q-11 -12 -22 -12h-41q-16 0 -6 18zM324 260l188 275l-92 276q-8 18 14 18h39q15 0 19 -14l92 -268q2 -7 0 -12q0 -5 -4 -9l-187 -272q-7 -12 -24 -12h-41q-19 0 -4 18z" />
<glyph unicode="&#xbc;" horiz-adv-x="1654" d="M262 1212q-6 15 10 25l254 190q20 9 27 9h29q18 0 16 -21l-147 -831q-1 -21 -23 -21h-31q-15 0 -14 21l133 755l-211 -153q-17 -11 -29 4zM354 20l1022 1399q12 17 29 17h41q20 0 10 -21l-1024 -1399q-16 -16 -31 -16h-41q-22 0 -6 20zM965 229l4 27q1 10 14 23l506 579 q14 14 24 14h33q18 0 17 -20l-103 -580h109q17 0 16 -18l-4 -25q-1 -20 -22 -20h-111l-33 -189q-1 -20 -22 -20h-31q-20 0 -14 20l32 189h-401q-14 0 -14 20zM1053 272h338l88 494z" />
<glyph unicode="&#xbd;" horiz-adv-x="1654" d="M262 1212q-6 15 10 25l254 190q20 9 27 9h29q18 0 16 -21l-147 -831q-1 -21 -23 -21h-31q-15 0 -14 21l133 755l-211 -153q-17 -11 -29 4zM272 20l1022 1399q12 17 29 17h41q20 0 10 -21l-1024 -1399q-16 -16 -31 -16h-40q-23 0 -7 20zM969 20q-6 -20 14 -20h477 q17 0 23 20l2 25q6 18 -15 18h-393q219 166 305 252q199 199 199 375q0 86 -54 140q-55 55 -165 55q-125 0 -204 -76t-79 -197q0 -20 19 -20h28q23 0 23 26q0 92 57 149q56 56 152 56q151 0 151 -133q0 -41 -10 -80q-11 -41 -35 -82q-13 -21 -47 -74q-22 -34 -65 -77 q-52 -52 -69 -70q-19 -20 -78 -69q-35 -29 -75 -61q-17 -14 -77 -59q-14 -11 -30.5 -23.5t-24.5 -18.5t-11 -8q-10 -6 -16 -23z" />
<glyph unicode="&#xbe;" horiz-adv-x="1654" d="M90 610l10 27q10 16 25 12q75 -35 174 -35q116 0 189 65t73 175q0 133 -164 133h-73q-22 0 -17 19l4 24q1 21 23 21h74q93 0 149 62q57 63 57 153q0 118 -174 118q-75 0 -174 -30q-16 -6 -22 8l-2 29q-1 10 16 20q77 37 188 37q116 0 177 -46t61 -132q0 -84 -45 -155 t-119 -95q50 -12 81 -55q32 -44 32 -113q0 -143 -94 -222t-238 -79q-121 0 -203 39q-15 6 -8 20zM383 20l1022 1399q12 17 29 17h41q21 0 10 -21l-1024 -1399q-16 -16 -31 -16h-41q-22 0 -6 20zM965 229l4 27q1 10 14 23l506 579q14 14 24 14h33q18 0 17 -20l-103 -580h109 q17 0 16 -18l-4 -25q-1 -20 -22 -20h-111l-33 -189q-1 -20 -22 -20h-31q-20 0 -14 20l32 189h-401q-14 0 -14 20zM1053 272h338l88 494z" />
<glyph unicode="&#xbf;" horiz-adv-x="796" d="M27 -16q0 -222 297 -222q141 0 268 54q18 6 16 18l-4 35q0 18 -18 12q-130 -47 -252 -47q-118 0 -171 37q-54 37 -54 119q0 73 35 139q37 69 88 123q35 37 107 107q54 53 98 119q45 69 57 134l8 54q2 18 -13 18h-43q-16 0 -22 -18l-6 -54q-10 -63 -56 -125 q-44 -60 -100 -113q-56 -52 -108 -108q-54 -57 -91 -128q-36 -69 -36 -154zM451 915l22 125q2 17 21 17h79q15 0 13 -17l-21 -125q-5 -18 -20 -18h-80q-19 0 -14 18z" />
<glyph unicode="&#xc0;" horiz-adv-x="1099" d="M-20 18l688 1399q11 19 26 19h51q18 0 23 -19l195 -1399q5 -18 -17 -18h-47q-12 0 -16 16l-60 422h-555l-207 -422q-6 -16 -20 -16h-51q-18 0 -10 18zM305 510h508l-106 821h-5zM557 1739q5 8 16 8h58q15 0 26 -21l97 -167q8 -19 -15 -19h-20q-11 0 -23 12l-137 170 q-7 9 -2 17z" />
<glyph unicode="&#xc1;" horiz-adv-x="1099" d="M-20 18l688 1399q11 19 26 19h51q18 0 23 -19l195 -1399q5 -18 -17 -18h-47q-12 0 -16 16l-60 422h-555l-207 -422q-6 -16 -20 -16h-51q-18 0 -10 18zM305 510h508l-106 821h-5zM724 1550q2 6 5 9l150 167q17 21 34 21h62q8 0 11 -4q3 -5 2 -9q-2 -8 -7 -12l-193 -170 q-12 -12 -28 -12h-25q-6 0 -9 3t-2 7z" />
<glyph unicode="&#xc2;" horiz-adv-x="1099" d="M-20 18l688 1399q11 19 26 19h51q18 0 23 -19l195 -1399q5 -18 -17 -18h-47q-12 0 -16 16l-60 422h-555l-207 -422q-6 -16 -20 -16h-51q-18 0 -10 18zM305 510h508l-106 821h-5zM530 1559l193 174q14 14 33 14h39q14 0 28 -14l129 -174q4 -6 1 -13q-3 -6 -13 -6h-29 q-10 0 -22 12l-121 136l-168 -136q-16 -12 -29 -12h-34q-26 0 -7 19z" />
<glyph unicode="&#xc3;" horiz-adv-x="1099" d="M-20 18l688 1399q11 19 26 19h51q18 0 23 -19l195 -1399q5 -18 -17 -18h-47q-12 0 -16 16l-60 422h-555l-207 -422q-6 -16 -20 -16h-51q-18 0 -10 18zM305 510h508l-106 821h-5zM487 1559q11 57 48 93t92 36q49 0 121 -39l45 -31q46 -29 86 -29q56 0 71 53l6 21 q6 18 25 18h18q21 0 15 -22q-11 -56 -47 -91q-37 -36 -90 -36q-49 0 -121 39l-47 31q-43 24 -82 24q-57 0 -74 -47l-6 -23q-6 -18 -27 -18h-20q-14 0 -13 21z" />
<glyph unicode="&#xc4;" horiz-adv-x="1099" d="M-20 18l688 1399q11 19 26 19h51q18 0 23 -19l195 -1399q5 -18 -17 -18h-47q-12 0 -16 16l-60 422h-555l-207 -422q-6 -16 -20 -16h-51q-18 0 -10 18zM305 510h508l-106 821h-5zM549 1559l20 108q1 16 19 16h51q20 0 14 -16l-18 -108q-5 -19 -23 -19h-51q-17 0 -12 19z M848 1559l22 108q0 16 19 16h51q15 0 14 -16l-20 -108q0 -19 -21 -19h-51q-14 0 -14 19z" />
<glyph unicode="&#xc5;" horiz-adv-x="1099" d="M-20 18l675 1373q-94 30 -94 133q0 82 57 135q58 53 146 53q72 0 113 -38t41 -97q0 -71 -40 -121q-40 -51 -106 -67l191 -1371q5 -18 -17 -18h-47q-12 0 -16 16l-60 422h-555l-207 -422q-6 -16 -20 -16h-51q-18 0 -10 18zM305 510h508l-106 821h-5zM616 1524 q0 -88 105 -88h10q56 4 92 41q37 37 37 96q0 42 -26 65q-28 25 -74 25q-59 0 -102 -38q-42 -37 -42 -101z" />
<glyph unicode="&#xc6;" horiz-adv-x="1417" d="M-47 18l817 1399q13 19 29 19h669q19 0 17 -19l-8 -39q-6 -16 -21 -16h-502l-104 -590h485q15 0 15 -18l-7 -37q-5 -19 -22 -19h-483l-111 -624h506q20 0 14 -17l-6 -41q-4 -16 -20 -16h-568q-18 0 -12 16l68 406h-439l-231 -406q-10 -16 -23 -16h-51q-23 0 -12 18z M315 494h406l156 868h-62z" />
<glyph unicode="&#xc7;" horiz-adv-x="983" d="M123 436q0 134 26 281q69 382 223 560q153 177 414 177q150 0 244 -49q18 -8 12 -25l-16 -30q-10 -21 -27 -13q-93 43 -211 43q-229 0 -362 -158q-134 -159 -195 -505q-28 -165 -28 -277q0 -195 88 -289q90 -96 270 -96q129 0 236 45q20 10 20 -14l6 -33q0 -14 -20 -20 q-111 -51 -252 -51q-25 0 -47 2q80 -62 80 -144q0 -68 -51 -105q-49 -36 -125 -36q-48 0 -64 6q-17 6 -12 19l6 24q0 12 16 12h51q115 0 115 88q0 83 -92 146q-305 56 -305 442z" />
<glyph unicode="&#xc8;" horiz-adv-x="907" d="M80 16l246 1401q2 19 22 19h610q22 0 17 -19l-8 -39q-6 -16 -21 -16h-551l-104 -590h534q19 0 15 -18l-6 -37q-6 -19 -21 -19h-537l-108 -624h555q19 0 14 -17l-6 -39q-1 -18 -20 -18h-615q-20 0 -16 16zM559 1739q5 8 16 8h58q15 0 26 -21l97 -167q4 -6 -1 -13 q-5 -6 -14 -6h-20q-11 0 -23 12l-137 170q-7 9 -2 17z" />
<glyph unicode="&#xc9;" horiz-adv-x="907" d="M80 16l246 1401q2 19 22 19h610q22 0 17 -19l-8 -39q-6 -16 -21 -16h-551l-104 -590h534q19 0 15 -18l-6 -37q-6 -19 -21 -19h-537l-108 -624h555q19 0 14 -17l-6 -39q-1 -18 -20 -18h-615q-20 0 -16 16zM630 1550q2 6 5 9l149 167q16 21 35 21h62q8 0 11 -4q3 -5 2 -9 q-2 -8 -7 -12l-193 -170q-12 -12 -28 -12h-25q-6 0 -9 3t-2 7z" />
<glyph unicode="&#xca;" horiz-adv-x="907" d="M80 16l246 1401q2 19 22 19h610q22 0 17 -19l-8 -39q-6 -16 -21 -16h-551l-104 -590h534q19 0 15 -18l-6 -37q-6 -19 -21 -19h-537l-108 -624h555q19 0 14 -17l-6 -39q-1 -18 -20 -18h-615q-20 0 -16 16zM477 1559l193 174q14 14 32 14h39q15 0 29 -14l129 -174 q5 -6 1 -13q-3 -6 -13 -6h-29q-10 0 -22 12l-121 136l-168 -136q-15 -12 -29 -12h-35q-25 0 -6 19z" />
<glyph unicode="&#xcb;" horiz-adv-x="907" d="M80 16l246 1401q2 19 22 19h610q22 0 17 -19l-8 -39q-6 -16 -21 -16h-551l-104 -590h534q19 0 15 -18l-6 -37q-6 -19 -21 -19h-537l-108 -624h555q19 0 14 -17l-6 -39q-1 -18 -20 -18h-615q-20 0 -16 16zM496 1559l20 108q1 16 19 16h51q20 0 14 -16l-18 -108 q-5 -19 -23 -19h-51q-17 0 -12 19zM795 1559l22 108q0 16 19 16h51q15 0 14 -16l-20 -108q0 -19 -21 -19h-51q-14 0 -14 19z" />
<glyph unicode="&#xcc;" horiz-adv-x="419" d="M92 16l246 1401q6 19 20 19h43q22 0 17 -19l-248 -1401q-4 -16 -20 -16h-44q-18 0 -14 16zM227 1739q5 8 17 8h57q17 0 27 -21l96 -167q4 -6 -1 -13q-5 -6 -13 -6h-21q-10 0 -22 12l-138 170q-7 9 -2 17z" />
<glyph unicode="&#xcd;" horiz-adv-x="419" d="M92 16l246 1401q6 19 20 19h43q22 0 17 -19l-248 -1401q-4 -16 -20 -16h-44q-18 0 -14 16zM376 1550q2 6 5 9l149 167q16 21 35 21h62q8 0 11 -4q3 -5 2 -9q-2 -8 -7 -12l-193 -170q-12 -12 -28 -12h-25q-6 0 -9 3t-2 7z" />
<glyph unicode="&#xce;" horiz-adv-x="419" d="M92 16l246 1401q6 19 20 19h43q22 0 17 -19l-248 -1401q-4 -16 -20 -16h-44q-18 0 -14 16zM190 1559l193 174q14 14 33 14h39q14 0 28 -14l129 -174q4 -6 1 -13q-3 -6 -13 -6h-29q-10 0 -22 12l-121 136l-168 -136q-15 -12 -29 -12h-34q-26 0 -7 19z" />
<glyph unicode="&#xcf;" horiz-adv-x="419" d="M92 16l246 1401q6 19 20 19h43q22 0 17 -19l-248 -1401q-4 -16 -20 -16h-44q-18 0 -14 16zM209 1559l20 108q1 16 19 16h51q20 0 14 -16l-18 -108q-5 -19 -23 -19h-51q-17 0 -12 19zM508 1559l22 108q0 16 19 16h51q15 0 14 -16l-20 -108q0 -19 -21 -19h-51q-14 0 -14 19 z" />
<glyph unicode="&#xd0;" horiz-adv-x="1128" d="M84 16l119 672h-105q-16 0 -14 17l6 28q5 17 19 17h104l117 667q2 19 22 19h264q234 0 357 -103q121 -102 121 -348q0 -99 -27 -268q-69 -401 -233 -559t-447 -158h-287q-20 0 -16 16zM172 74h215q246 0 389 139q143 138 209 504q27 147 27 260q0 213 -100 299t-300 86 h-213l-108 -612h260q14 0 12 -17l-4 -28q-5 -17 -18 -17h-260z" />
<glyph unicode="&#xd1;" horiz-adv-x="1163" d="M80 16l246 1401q2 19 22 19h41q17 0 25 -15l456 -1276l224 1272q5 19 20 19h43q19 0 14 -19l-245 -1401q-6 -16 -21 -16h-43q-18 0 -24 14l-457 1274l-223 -1272q-4 -16 -19 -16h-43q-20 0 -16 16zM518 1559q11 58 47 93q38 36 92 36q49 0 121 -39l45 -31q46 -29 86 -29 q57 0 72 53l6 21q6 18 25 18h18q20 0 14 -22q-11 -56 -47 -91q-37 -36 -90 -36q-49 0 -121 39l-47 31q-44 24 -82 24q-56 0 -73 -47l-6 -23q-6 -18 -27 -18h-21q-14 0 -12 21z" />
<glyph unicode="&#xd2;" horiz-adv-x="1183" d="M121 432q0 133 26 285q68 377 218 559q147 178 391 178q395 0 395 -450q0 -120 -31 -287q-66 -378 -213 -557q-147 -178 -391 -178q-395 0 -395 450zM201 434q0 -381 317 -381q208 0 335 160q125 158 187 504q31 191 31 284q0 196 -79 287q-80 92 -238 92 q-210 0 -337 -160q-128 -161 -188 -503q-28 -153 -28 -283zM633 1739q5 8 16 8h58q15 0 26 -21l96 -167q4 -6 -1 -13q-4 -6 -13 -6h-20q-11 0 -23 12l-137 170q-7 9 -2 17z" />
<glyph unicode="&#xd3;" horiz-adv-x="1183" d="M121 432q0 133 26 285q68 377 218 559q147 178 391 178q395 0 395 -450q0 -120 -31 -287q-66 -378 -213 -557q-147 -178 -391 -178q-395 0 -395 450zM201 434q0 -381 317 -381q208 0 335 160q125 158 187 504q31 191 31 284q0 196 -79 287q-80 92 -238 92 q-210 0 -337 -160q-128 -161 -188 -503q-28 -153 -28 -283zM742 1550q2 4 6 9l149 167q16 21 35 21h61q9 0 12 -4q3 -5 2 -9q-2 -6 -8 -12l-192 -170q-12 -12 -29 -12h-24q-7 0 -10 3t-2 7z" />
<glyph unicode="&#xd4;" horiz-adv-x="1183" d="M121 432q0 133 26 285q68 377 218 559q147 178 391 178q395 0 395 -450q0 -120 -31 -287q-66 -378 -213 -557q-147 -178 -391 -178q-395 0 -395 450zM201 434q0 -381 317 -381q208 0 335 160q125 158 187 504q31 191 31 284q0 196 -79 287q-80 92 -238 92 q-210 0 -337 -160q-128 -161 -188 -503q-28 -153 -28 -283zM571 1559l193 174q14 14 33 14h39q14 0 28 -14l129 -174q5 -6 1 -13q-3 -6 -13 -6h-29q-10 0 -22 12l-121 136l-168 -136q-16 -12 -29 -12h-34q-26 0 -7 19z" />
<glyph unicode="&#xd5;" horiz-adv-x="1183" d="M121 432q0 133 26 285q68 377 218 559q147 178 391 178q395 0 395 -450q0 -120 -31 -287q-66 -378 -213 -557q-147 -178 -391 -178q-395 0 -395 450zM201 434q0 -381 317 -381q208 0 335 160q125 158 187 504q31 191 31 284q0 196 -79 287q-80 92 -238 92 q-210 0 -337 -160q-128 -161 -188 -503q-28 -153 -28 -283zM528 1559q11 58 47 93q37 36 93 36q48 0 120 -39l46 -31q46 -29 86 -29q56 0 71 53l6 21q6 18 25 18h18q21 0 15 -22q-11 -56 -47 -91q-38 -36 -90 -36q-49 0 -121 39l-47 31q-44 24 -82 24q-57 0 -74 -47l-6 -23 q-6 -18 -27 -18h-20q-15 0 -13 21z" />
<glyph unicode="&#xd6;" horiz-adv-x="1183" d="M121 432q0 133 26 285q68 377 218 559q147 178 391 178q395 0 395 -450q0 -120 -31 -287q-66 -378 -213 -557q-147 -178 -391 -178q-395 0 -395 450zM201 434q0 -381 317 -381q208 0 335 160q125 158 187 504q31 191 31 284q0 196 -79 287q-80 92 -238 92 q-210 0 -337 -160q-128 -161 -188 -503q-28 -153 -28 -283zM590 1559l20 108q1 16 19 16h51q20 0 14 -16l-18 -108q-5 -19 -23 -19h-51q-17 0 -12 19zM889 1559l22 108q0 16 19 16h51q15 0 14 -16l-20 -108q0 -19 -21 -19h-51q-14 0 -14 19z" />
<glyph unicode="&#xd7;" horiz-adv-x="1054" d="M133 371q-12 12 4 24l385 328l-270 326q-10 12 6 24l27 25q18 12 26 0l269 -328l385 328q16 12 22 0l23 -25q11 -12 -4 -24l-385 -326l268 -328q12 -12 -4 -24l-31 -25q-11 -11 -23 0l-268 326l-385 -326q-14 -14 -26 0z" />
<glyph unicode="&#xd8;" horiz-adv-x="1193" d="M4 43q-12 11 0 23l146 159q-27 85 -27 207q0 131 29 285q66 380 214 558q149 179 392 179q251 0 342 -184l125 137q15 14 26 6l23 -20q15 -12 -2 -25l-146 -162q27 -95 27 -202q0 -116 -29 -287q-67 -377 -215 -557q-147 -178 -391 -178q-248 0 -342 180l-127 -137 q-12 -15 -22 -5zM203 434q0 -78 12 -139l827 911q-66 174 -286 174q-208 0 -336 -159q-127 -159 -189 -504q-28 -169 -28 -283zM236 225q66 -172 284 -172q208 0 336 161q125 158 186 503q31 172 31 284q0 76 -12 136z" />
<glyph unicode="&#xd9;" horiz-adv-x="1134" d="M133 305q0 79 14 148l170 964q2 19 21 19h43q21 0 16 -19l-170 -960q-14 -69 -14 -146q0 -132 67 -196t214 -64q183 0 277 97q95 98 132 309l170 960q5 19 19 19h45q19 0 14 -19l-172 -964q-41 -244 -156 -359q-114 -114 -331 -114q-359 0 -359 325zM618 1739q5 8 17 8 h57q16 0 27 -21l96 -167q8 -19 -14 -19h-21q-10 0 -22 12l-137 170q-8 9 -3 17z" />
<glyph unicode="&#xda;" horiz-adv-x="1134" d="M133 305q0 79 14 148l170 964q2 19 21 19h43q21 0 16 -19l-170 -960q-14 -69 -14 -146q0 -132 67 -196t214 -64q183 0 277 97q95 98 132 309l170 960q5 19 19 19h45q19 0 14 -19l-172 -964q-41 -244 -156 -359q-114 -114 -331 -114q-359 0 -359 325zM699 1550q1 4 6 9 l149 167q17 21 35 21h61q9 0 12 -4q3 -5 2 -9q-2 -6 -8 -12l-192 -170q-12 -12 -29 -12h-24q-7 0 -10 3t-2 7z" />
<glyph unicode="&#xdb;" horiz-adv-x="1134" d="M133 305q0 79 14 148l170 964q2 19 21 19h43q21 0 16 -19l-170 -960q-14 -69 -14 -146q0 -132 67 -196t214 -64q183 0 277 97q95 98 132 309l170 960q5 19 19 19h45q19 0 14 -19l-172 -964q-41 -244 -156 -359q-114 -114 -331 -114q-359 0 -359 325zM547 1559l192 174 q14 14 33 14h39q15 0 29 -14l129 -174q5 -6 1 -13q-3 -6 -14 -6h-28q-11 0 -23 12l-121 136l-168 -136q-16 -12 -28 -12h-35q-25 0 -6 19z" />
<glyph unicode="&#xdc;" horiz-adv-x="1134" d="M133 305q0 79 14 148l170 964q2 19 21 19h43q21 0 16 -19l-170 -960q-14 -69 -14 -146q0 -132 67 -196t214 -64q183 0 277 97q95 98 132 309l170 960q5 19 19 19h45q19 0 14 -19l-172 -964q-41 -244 -156 -359q-114 -114 -331 -114q-359 0 -359 325zM565 1559l21 108 q1 16 18 16h51q21 0 15 -16l-19 -108q-5 -19 -22 -19h-51q-18 0 -13 19zM864 1559l23 108q0 16 18 16h51q16 0 15 -16l-21 -108q0 -19 -20 -19h-51q-15 0 -15 19z" />
<glyph unicode="&#xdd;" horiz-adv-x="1044" d="M233 1415q-7 21 17 21h45q15 0 20 -17l170 -559l64 -229h2l143 229l369 559q12 17 24 17h50q15 0 8 -21l-567 -860l-97 -539q-4 -16 -18 -16h-45q-18 0 -12 16l94 539zM671 1550q2 6 5 9l149 167q17 21 35 21h62q8 0 11 -4q3 -5 2 -9q-3 -8 -7 -12l-193 -170 q-12 -12 -28 -12h-25q-6 0 -9 3t-2 7z" />
<glyph unicode="&#xde;" horiz-adv-x="991" d="M80 16l246 1401q2 19 22 19h43q20 0 15 -19l-27 -153h178q208 0 307 -75t99 -239q0 -54 -13 -139q-44 -244 -167 -348q-125 -105 -365 -105h-201l-57 -342q-6 -16 -21 -16h-43q-20 0 -16 16zM231 432h189q206 0 309 86q101 85 139 293q13 80 13 131q0 134 -78 191 t-250 57h-188z" />
<glyph unicode="&#xdf;" horiz-adv-x="1024" d="M68 16l192 1098q29 168 139 252q111 84 269 84q144 0 217 -64q71 -62 71 -157q0 -68 -33 -120q-35 -55 -83 -90q-56 -41 -98 -67q-47 -29 -82 -63q-33 -32 -33 -66q0 -28 29 -58q35 -37 73 -67q43 -35 86 -77q43 -43 73 -108q30 -64 30 -140q0 -178 -111 -280 q-110 -101 -289 -101q-52 0 -76 4q-75 6 -73 27l6 30q2 19 22 15q40 -9 80 -9q141 0 254 81t113 229q0 82 -46 152t-101 111q-52 39 -100 90q-46 49 -46 95q0 50 35 93q34 42 84 72q53 32 97 61q49 32 83 78q35 47 35 104q0 66 -55 112q-54 45 -168 45q-123 0 -213 -65 q-92 -67 -119 -209l-191 -1092q-4 -16 -18 -16h-39q-20 0 -14 16z" />
<glyph unicode="&#xe0;" d="M39 217q0 91 27 158t80 110q54 43 114 72q59 28 148 43q90 15 156 21q76 7 167 8l21 125q8 46 8 86q0 86 -50 128q-49 42 -159 42q-152 0 -291 -58q-18 -4 -18 13l-2 32q0 17 18 23q141 57 301 57q275 0 275 -235q0 -40 -9 -92l-129 -734q-4 -16 -20 -16h-37 q-20 0 -14 16l28 177q-112 -205 -356 -205q-127 0 -192 61q-66 61 -66 168zM113 221q0 -77 48 -124q47 -46 144 -46q153 0 254 94q103 96 127 238l33 184q-88 -1 -145 -6q-63 -5 -136 -16q-79 -12 -130 -35q-53 -24 -99 -59q-49 -37 -73 -96q-23 -56 -23 -134zM441 1401 q3 8 16 8h57q22 0 29 -18l96 -179q5 -6 0 -12t-12 -6h-23q-14 0 -22 12l-138 178q-7 8 -3 17z" />
<glyph unicode="&#xe1;" d="M39 217q0 91 27 158t80 110q54 43 114 72q59 28 148 43q90 15 156 21q76 7 167 8l21 125q8 46 8 86q0 86 -50 128q-49 42 -159 42q-152 0 -291 -58q-18 -4 -18 13l-2 32q0 17 18 23q141 57 301 57q275 0 275 -235q0 -40 -9 -92l-129 -734q-4 -16 -20 -16h-37 q-20 0 -14 16l28 177q-112 -205 -356 -205q-127 0 -192 61q-66 61 -66 168zM113 221q0 -77 48 -124q47 -46 144 -46q153 0 254 94q103 96 127 238l33 184q-88 -1 -145 -6q-63 -5 -136 -16q-79 -12 -130 -35q-53 -24 -99 -59q-49 -37 -73 -96q-23 -56 -23 -134zM527 1200 q-1 6 5 12l154 179q18 18 35 18h61q12 0 14 -8q2 -7 -8 -17l-198 -178q-12 -12 -27 -12h-26q-9 0 -10 6z" />
<glyph unicode="&#xe2;" d="M39 217q0 91 27 158t80 110q54 43 114 72q59 28 148 43q90 15 156 21q76 7 167 8l21 125q8 46 8 86q0 86 -50 128q-49 42 -159 42q-152 0 -291 -58q-18 -4 -18 13l-2 32q0 17 18 23q141 57 301 57q275 0 275 -235q0 -40 -9 -92l-129 -734q-4 -16 -20 -16h-37 q-20 0 -14 16l28 177q-112 -205 -356 -205q-127 0 -192 61q-66 61 -66 168zM113 221q0 -77 48 -124q47 -46 144 -46q153 0 254 94q103 96 127 238l33 184q-88 -1 -145 -6q-63 -5 -136 -16q-79 -12 -130 -35q-53 -24 -99 -59q-49 -37 -73 -96q-23 -56 -23 -134zM369 1200 q-1 6 6 12l192 187q15 12 33 12h39q17 0 29 -12l127 -187q6 -6 3 -12t-14 -6h-28q-10 0 -21 12l-123 150l-172 -150q-15 -12 -26 -12h-33q-11 0 -12 6z" />
<glyph unicode="&#xe3;" d="M39 217q0 91 27 158t80 110q54 43 114 72q59 28 148 43q90 15 156 21q76 7 167 8l21 125q8 46 8 86q0 86 -50 128q-49 42 -159 42q-152 0 -291 -58q-18 -4 -18 13l-2 32q0 17 18 23q141 57 301 57q275 0 275 -235q0 -40 -9 -92l-129 -734q-4 -16 -20 -16h-37 q-20 0 -14 16l28 177q-112 -205 -356 -205q-127 0 -192 61q-66 61 -66 168zM113 221q0 -77 48 -124q47 -46 144 -46q153 0 254 94q103 96 127 238l33 184q-88 -1 -145 -6q-63 -5 -136 -16q-79 -12 -130 -35q-53 -24 -99 -59q-49 -37 -73 -96q-23 -56 -23 -134zM346 1217 q10 54 45 89q33 33 86 33q51 0 117 -36l41 -29q41 -27 78 -27q53 0 69 49l6 19q4 18 27 18h21q16 0 10 -20q-7 -51 -43 -87q-34 -34 -86 -34q-58 0 -117 37l-45 28q-36 25 -72 25q-48 0 -71 -47l-9 -21q-11 -18 -24 -18h-19q-20 0 -14 21z" />
<glyph unicode="&#xe4;" d="M39 217q0 91 27 158t80 110q54 43 114 72q59 28 148 43q90 15 156 21q76 7 167 8l21 125q8 46 8 86q0 86 -50 128q-49 42 -159 42q-152 0 -291 -58q-18 -4 -18 13l-2 32q0 17 18 23q141 57 301 57q275 0 275 -235q0 -40 -9 -92l-129 -734q-4 -16 -20 -16h-37 q-20 0 -14 16l28 177q-112 -205 -356 -205q-127 0 -192 61q-66 61 -66 168zM113 221q0 -77 48 -124q47 -46 144 -46q153 0 254 94q103 96 127 238l33 184q-88 -1 -145 -6q-63 -5 -136 -16q-79 -12 -130 -35q-53 -24 -99 -59q-49 -37 -73 -96q-23 -56 -23 -134zM399 1210 l19 115q6 18 20 18h49q19 0 13 -18l-19 -115q-4 -16 -20 -16h-49q-17 0 -13 16zM692 1210l21 115q5 18 18 18h49q20 0 15 -18l-21 -115q-4 -16 -18 -16h-49q-21 0 -15 16z" />
<glyph unicode="&#xe5;" d="M39 217q0 91 27 158t80 110q54 43 114 72q59 28 148 43q90 15 156 21q76 7 167 8l21 125q8 46 8 86q0 86 -50 128q-49 42 -159 42q-152 0 -291 -58q-18 -4 -18 13l-2 32q0 17 18 23q141 57 301 57q275 0 275 -235q0 -40 -9 -92l-129 -734q-4 -16 -20 -16h-37 q-20 0 -14 16l28 177q-112 -205 -356 -205q-127 0 -192 61q-66 61 -66 168zM113 221q0 -77 48 -124q47 -46 144 -46q153 0 254 94q103 96 127 238l33 184q-88 -1 -145 -6q-63 -5 -136 -16q-79 -12 -130 -35q-53 -24 -99 -59q-49 -37 -73 -96q-23 -56 -23 -134zM430 1311 q0 81 57 137q56 55 148 55q69 0 113 -38q43 -37 43 -97q0 -81 -59 -137q-58 -55 -146 -55q-73 0 -114 37q-42 37 -42 98zM489 1315q0 -88 103 -88q58 0 98 37q41 38 41 100q0 88 -102 88q-60 0 -100 -37t-40 -100z" />
<glyph unicode="&#xe6;" horiz-adv-x="1478" d="M39 219q0 75 22 131q22 57 56 95q34 39 92 65q56 25 108 41q47 14 129 22q94 9 131 10q49 1 134 3l26 157q11 58 11 93q0 174 -203 174q-147 0 -283 -58q-20 -4 -20 13l-4 32q0 17 18 23q150 57 293 57q133 0 199 -54q65 -53 63 -165q111 219 342 219q138 0 207 -83 q70 -84 70 -228q0 -67 -17 -164l-10 -65q-6 -19 -23 -19h-610q-16 -105 -16 -176q0 -295 268 -295q121 0 227 47q17 6 21 -12l2 -31q0 -14 -17 -22q-111 -49 -239 -49q-141 0 -223 73t-93 205q-51 -124 -153 -197q-101 -73 -246 -73q-131 0 -196 62q-66 63 -66 169zM113 225 q0 -174 194 -174q148 0 245 94t124 238l24 139q-74 0 -91 -1q-9 -1 -39 -2t-50 -2q-59 -3 -92 -8q-28 -5 -81 -15q-54 -11 -78 -25q-31 -18 -61 -37q-34 -21 -53 -51q-18 -29 -30 -69t-12 -87zM782 586h553l2 18q19 136 19 162q0 246 -211 246q-281 0 -363 -426z" />
<glyph unicode="&#xe7;" horiz-adv-x="790" d="M84 332q0 87 18 198q96 547 482 547q140 0 213 -43q14 -10 10 -24l-14 -31q-10 -18 -27 -10q-73 41 -180 41q-165 0 -264 -119q-98 -117 -142 -361q-20 -100 -20 -196q0 -283 254 -283q120 0 204 41q23 12 23 -8l4 -33q0 -15 -20 -22q-100 -47 -211 -47q-13 0 -23 1 t-20 1q78 -57 78 -134q0 -64 -48 -100q-47 -35 -116 -35q-55 0 -64 4q-15 6 -10 19l4 22q2 13 16 13h48q104 0 104 86q0 76 -92 139q-207 60 -207 334z" />
<glyph unicode="&#xe8;" d="M84 338q0 97 20 194q95 545 463 545q146 0 218 -85q73 -87 73 -238q0 -77 -18 -176l-13 -68q-1 -16 -20 -16h-635q-14 -74 -14 -152q0 -295 284 -295q126 0 238 47q20 10 20 -12l5 -29q0 -11 -19 -22q-122 -51 -250 -51q-352 0 -352 358zM182 559h580l4 21q18 119 18 178 q0 254 -219 254q-293 0 -383 -453zM441 1401q3 8 16 8h57q22 0 29 -18l96 -179q5 -6 0 -12t-12 -6h-23q-14 0 -22 12l-138 178q-7 8 -3 17z" />
<glyph unicode="&#xe9;" d="M84 338q0 97 20 194q95 545 463 545q146 0 218 -85q73 -87 73 -238q0 -77 -18 -176l-13 -68q-1 -16 -20 -16h-635q-14 -74 -14 -152q0 -295 284 -295q126 0 238 47q20 10 20 -12l5 -29q0 -11 -19 -22q-122 -51 -250 -51q-352 0 -352 358zM182 559h580l4 21q18 119 18 178 q0 254 -219 254q-293 0 -383 -453zM534 1200q-1 6 5 12l153 179q18 18 35 18h61q12 0 14 -8t-7 -17l-199 -178q-12 -12 -27 -12h-26q-7 0 -9 6z" />
<glyph unicode="&#xea;" d="M84 338q0 97 20 194q95 545 463 545q146 0 218 -85q73 -87 73 -238q0 -77 -18 -176l-13 -68q-1 -16 -20 -16h-635q-14 -74 -14 -152q0 -295 284 -295q126 0 238 47q20 10 20 -12l5 -29q0 -11 -19 -22q-122 -51 -250 -51q-352 0 -352 358zM182 559h580l4 21q18 119 18 178 q0 254 -219 254q-293 0 -383 -453zM381 1200q-1 6 6 12l193 187q15 12 32 12h39q17 0 29 -12l127 -187q6 -6 3 -12t-13 -6h-29q-10 0 -20 12l-123 150l-172 -150q-15 -12 -27 -12h-33q-11 0 -12 6z" />
<glyph unicode="&#xeb;" d="M84 338q0 97 20 194q95 545 463 545q146 0 218 -85q73 -87 73 -238q0 -77 -18 -176l-13 -68q-1 -16 -20 -16h-635q-14 -74 -14 -152q0 -295 284 -295q126 0 238 47q20 10 20 -12l5 -29q0 -11 -19 -22q-122 -51 -250 -51q-352 0 -352 358zM182 559h580l4 21q18 119 18 178 q0 254 -219 254q-293 0 -383 -453zM410 1210l18 115q6 18 21 18h49q18 0 12 -18l-18 -115q-4 -16 -21 -16h-49q-16 0 -12 16zM702 1210l21 115q1 18 18 18h50q15 0 14 -18l-21 -115q-4 -16 -18 -16h-49q-21 0 -15 16z" />
<glyph unicode="&#xec;" horiz-adv-x="376" d="M72 16l180 1024q2 17 20 17h41q15 0 13 -17l-181 -1024q-6 -16 -18 -16h-41q-20 0 -14 16zM146 1401q3 8 16 8h57q21 0 29 -18l96 -179q4 -6 0 -12t-12 -6h-23q-15 0 -22 12l-137 178q-7 9 -4 17z" />
<glyph unicode="&#xed;" horiz-adv-x="376" d="M72 16l180 1024q2 17 20 17h41q15 0 13 -17l-181 -1024q-6 -16 -18 -16h-41q-20 0 -14 16zM292 1200q-1 6 5 12l154 179q18 18 34 18h62q11 0 13 -8t-7 -17l-199 -178q-12 -12 -26 -12h-27q-7 0 -9 6z" />
<glyph unicode="&#xee;" horiz-adv-x="376" d="M72 16l180 1024q2 17 20 17h41q15 0 13 -17l-181 -1024q-6 -16 -18 -16h-41q-20 0 -14 16zM104 1200q-1 5 7 12l192 187q15 12 33 12h39q16 0 28 -12l127 -187q7 -7 4 -12q-3 -6 -14 -6h-28q-14 0 -21 12l-123 150l-172 -150q-16 -12 -26 -12h-33q-11 0 -13 6z" />
<glyph unicode="&#xef;" horiz-adv-x="376" d="M72 16l180 1024q2 17 20 17h41q15 0 13 -17l-181 -1024q-6 -16 -18 -16h-41q-20 0 -14 16zM133 1210l19 115q6 18 20 18h49q18 0 12 -18l-18 -115q-4 -16 -20 -16h-50q-16 0 -12 16zM426 1210l20 115q4 18 19 18h49q18 0 14 -18l-20 -115q-4 -16 -19 -16h-49 q-20 0 -14 16z" />
<glyph unicode="&#xf0;" horiz-adv-x="964" d="M82 334q0 79 20 196q99 547 476 547q181 0 249 -125q-24 149 -92 269h-233q-11 0 -15 4t-2 12l4 23q6 16 23 16h193q-38 61 -109 137q-10 7 -7 15t13 8h43q16 0 29 -13q56 -63 108 -147h160q15 0 14 -16l-6 -23q-4 -16 -16 -16h-123q96 -198 96 -430q0 -126 -24 -261 q-94 -548 -475 -548q-160 0 -243 90q-83 91 -83 262zM160 338q0 -289 250 -289q312 0 397 481q18 107 18 191q0 289 -247 289q-314 0 -398 -480q-20 -100 -20 -192z" />
<glyph unicode="&#xf1;" horiz-adv-x="976" d="M59 16l181 1024q6 17 22 17h39q14 0 12 -17l-28 -170q46 85 133 146q88 61 219 61q127 0 192 -65q66 -66 66 -185q0 -46 -8 -92l-127 -719q-4 -16 -19 -16h-39q-20 0 -16 16l127 715q8 43 8 86q0 191 -200 191q-136 0 -241 -94q-103 -93 -130 -238l-117 -660 q-4 -16 -18 -16h-39q-11 0 -15 4t-2 12zM379 1217q10 54 45 89q33 33 86 33q51 0 117 -36l41 -29q40 -27 77 -27q54 0 70 49l6 19q5 18 27 18h20q17 0 11 -20q-7 -51 -43 -87q-34 -34 -86 -34q-58 0 -117 37l-45 28q-36 25 -72 25q-49 0 -72 -47l-8 -21q-11 -18 -24 -18h-19 q-20 0 -14 21z" />
<glyph unicode="&#xf2;" horiz-adv-x="964" d="M82 334q0 -174 83 -263t241 -89q383 0 477 548q20 113 20 195q0 175 -82 263q-83 89 -239 89q-381 0 -480 -547q-20 -117 -20 -196zM160 338q0 92 20 192q84 480 398 480q247 0 247 -289q0 -83 -18 -191q-85 -481 -397 -481q-250 0 -250 289zM466 1401q3 8 15 8h58 q21 0 28 -18l97 -179q4 -6 0 -12t-13 -6h-22q-15 0 -23 12l-137 178q-7 8 -3 17z" />
<glyph unicode="&#xf3;" horiz-adv-x="964" d="M82 334q0 -174 83 -263t241 -89q383 0 477 548q20 113 20 195q0 175 -82 263q-83 89 -239 89q-381 0 -480 -547q-20 -117 -20 -196zM160 338q0 92 20 192q84 480 398 480q247 0 247 -289q0 -83 -18 -191q-85 -481 -397 -481q-250 0 -250 289zM558 1200q-1 6 5 12l154 179 q18 18 35 18h61q11 0 13 -8t-7 -17l-198 -178q-12 -12 -27 -12h-27q-7 0 -9 6z" />
<glyph unicode="&#xf4;" horiz-adv-x="964" d="M82 334q0 -174 83 -263t241 -89q383 0 477 548q20 113 20 195q0 175 -82 263q-83 89 -239 89q-381 0 -480 -547q-20 -117 -20 -196zM160 338q0 92 20 192q84 480 398 480q247 0 247 -289q0 -83 -18 -191q-85 -481 -397 -481q-250 0 -250 289zM395 1200q-1 6 6 12l193 187 q16 12 33 12h39q16 0 28 -12l127 -187q6 -6 3 -12t-13 -6h-29q-12 0 -20 12l-123 150l-172 -150q-17 -12 -27 -12h-32q-12 0 -13 6z" />
<glyph unicode="&#xf5;" horiz-adv-x="964" d="M82 334q0 79 20 196q99 547 480 547q156 0 239 -89q82 -88 82 -263q0 -82 -20 -195q-94 -548 -477 -548q-158 0 -241 89t-83 263zM160 338q0 -289 250 -289q312 0 397 481q18 107 18 191q0 289 -247 289q-314 0 -398 -480q-20 -100 -20 -192zM371 1217q10 54 45 89 q33 33 86 33q51 0 117 -36l40 -29q41 -27 78 -27q54 0 70 49l6 19q5 18 27 18h20q16 0 10 -20q-7 -51 -43 -87q-34 -34 -86 -34q-57 0 -116 37l-45 28q-36 25 -72 25q-49 0 -72 -47l-8 -21q-10 -18 -25 -18h-18q-20 0 -14 21z" />
<glyph unicode="&#xf6;" horiz-adv-x="964" d="M82 334q0 -174 83 -263t241 -89q383 0 477 548q20 113 20 195q0 175 -82 263q-83 89 -239 89q-381 0 -480 -547q-20 -117 -20 -196zM160 338q0 92 20 192q84 480 398 480q247 0 247 -289q0 -83 -18 -191q-85 -481 -397 -481q-250 0 -250 289zM424 1210l18 115q6 18 21 18 h49q18 0 12 -18l-18 -115q-4 -16 -21 -16h-49q-16 0 -12 16zM717 1210l20 115q5 18 19 18h49q19 0 14 -18l-20 -115q-4 -16 -19 -16h-49q-20 0 -14 16z" />
<glyph unicode="&#xf7;" horiz-adv-x="1054" d="M160 707l6 32q0 19 18 19h785q19 0 14 -19l-6 -32q0 -19 -19 -19h-784q-19 0 -14 19zM449 338l20 125q6 14 20 14h78q14 0 13 -14l-21 -125q0 -16 -20 -16h-76q-18 0 -14 16zM563 983l21 125q4 16 18 16h78q18 0 14 -16l-20 -125q-6 -16 -21 -16h-75q-16 0 -15 16z" />
<glyph unicode="&#xf8;" horiz-adv-x="972" d="M25 18q-15 10 0 21l94 106q-33 73 -33 189q0 96 20 196q94 547 478 547q179 0 262 -119l82 95q10 12 20 2l19 -13q15 -10 0 -22l-95 -109q33 -82 33 -186q0 -87 -18 -195q-96 -548 -479 -548q-182 0 -261 114l-81 -90q-12 -15 -25 -4zM162 338q0 -73 16 -127l615 692 q-63 107 -213 107q-312 0 -398 -480q-20 -117 -20 -192zM199 156q62 -107 213 -107q314 0 399 481q20 113 20 191q0 71 -16 129z" />
<glyph unicode="&#xf9;" horiz-adv-x="964" d="M100 240q0 40 9 96l124 704q2 17 21 17h41q14 0 12 -17l-125 -698q-8 -66 -8 -88q0 -203 205 -203q132 0 230 94q99 95 126 240l115 655q2 17 20 17h41q15 0 13 -17l-181 -1024q-4 -16 -18 -16h-41q-18 0 -14 16l30 172q-107 -206 -333 -206q-267 0 -267 258zM468 1401 q3 8 15 8h58q21 0 28 -18l97 -179q4 -6 0 -12t-13 -6h-22q-13 0 -23 12l-137 178q-7 8 -3 17z" />
<glyph unicode="&#xfa;" horiz-adv-x="964" d="M100 240q0 40 9 96l124 704q2 17 21 17h41q14 0 12 -17l-125 -698q-8 -66 -8 -88q0 -203 205 -203q132 0 230 94q99 95 126 240l115 655q2 17 20 17h41q15 0 13 -17l-181 -1024q-4 -16 -18 -16h-41q-18 0 -14 16l30 172q-107 -206 -333 -206q-267 0 -267 258zM556 1200 q-1 6 5 12l154 179q18 18 35 18h61q11 0 13 -8t-7 -17l-199 -178q-12 -12 -26 -12h-27q-7 0 -9 6z" />
<glyph unicode="&#xfb;" horiz-adv-x="964" d="M100 240q0 40 9 96l124 704q2 17 21 17h41q14 0 12 -17l-125 -698q-8 -66 -8 -88q0 -203 205 -203q132 0 230 94q99 95 126 240l115 655q2 17 20 17h41q15 0 13 -17l-181 -1024q-4 -16 -18 -16h-41q-18 0 -14 16l30 172q-107 -206 -333 -206q-267 0 -267 258zM397 1200 q-1 6 6 12l193 187q15 12 33 12h39q16 0 28 -12l127 -187q6 -6 3 -12t-13 -6h-29q-10 0 -20 12l-123 150l-172 -150q-15 -12 -27 -12h-32q-12 0 -13 6z" />
<glyph unicode="&#xfc;" horiz-adv-x="964" d="M100 240q0 40 9 96l124 704q2 17 21 17h41q14 0 12 -17l-125 -698q-8 -66 -8 -88q0 -203 205 -203q132 0 230 94q99 95 126 240l115 655q2 17 20 17h41q15 0 13 -17l-181 -1024q-4 -16 -18 -16h-41q-18 0 -14 16l30 172q-107 -206 -333 -206q-267 0 -267 258zM426 1210 l18 115q6 18 21 18h49q18 0 12 -18l-18 -115q-4 -16 -21 -16h-49q-16 0 -12 16zM719 1210l20 115q1 18 19 18h49q15 0 14 -18l-20 -115q-4 -16 -19 -16h-49q-20 0 -14 16z" />
<glyph unicode="&#xfd;" horiz-adv-x="829" d="M-23 -199l13 31q6 18 22 14q43 -14 94 -14q91 0 148 80t45 147l-139 979q-5 19 16 19h43q17 0 17 -17l90 -659l34 -279h5l127 279l303 659q8 17 24 17h45q21 0 10 -19l-475 -1007q-66 -144 -130 -205q-65 -62 -171 -62q-68 0 -108 17q-19 5 -13 20zM493 1200q-1 6 5 12 l153 179q18 18 35 18h62q11 0 13 -8t-7 -17l-199 -178q-12 -12 -27 -12h-26q-8 0 -9 6z" />
<glyph unicode="&#xfe;" horiz-adv-x="1007" d="M25 -209l286 1626q6 19 23 19h39q16 0 14 -19l-102 -571q117 231 354 231q149 0 227 -90t78 -260q0 -97 -20 -203q-96 -542 -457 -542q-124 0 -200 60t-93 169l-74 -420q-6 -16 -20 -16h-39q-20 0 -16 16zM211 348q0 -299 250 -299q303 0 387 481q18 106 18 195 q0 285 -235 285q-155 0 -259 -122t-143 -358q-18 -100 -18 -182z" />
<glyph unicode="&#xff;" horiz-adv-x="829" d="M-23 -199l13 31q6 18 22 14q43 -14 94 -14q91 0 148 80t45 147l-139 979q-5 19 16 19h43q17 0 17 -17l90 -659l34 -279h5l127 279l303 659q8 17 24 17h45q21 0 10 -19l-475 -1007q-66 -144 -130 -205q-65 -62 -171 -62q-68 0 -108 17q-19 5 -13 20zM358 1210l19 115 q6 18 20 18h49q19 0 13 -18l-19 -115q-4 -16 -20 -16h-49q-17 0 -13 16zM651 1210l21 115q4 18 18 18h49q19 0 15 -18l-21 -115q-4 -16 -18 -16h-49q-21 0 -15 16z" />
<glyph unicode="&#x152;" horiz-adv-x="1568" d="M160 461q0 122 26 256q38 207 99 348q62 142 151 222t196 115q103 34 247 34h739q21 0 16 -19l-8 -39q-4 -16 -20 -16h-519l-104 -590h502q17 0 16 -18l-8 -37q-2 -19 -18 -19h-504l-111 -624h524q19 0 13 -17l-4 -41q-1 -16 -21 -16h-729q-236 0 -359 104 q-124 105 -124 357zM242 465q0 -218 101 -304q102 -87 302 -87h137l228 1288h-136q-119 0 -212 -29q-94 -29 -172 -100q-77 -70 -134 -200q-56 -128 -90 -316q-24 -167 -24 -252z" />
<glyph unicode="&#x153;" horiz-adv-x="1566" d="M82 334q0 79 20 196q99 547 465 547q275 0 297 -278q123 278 375 278q136 0 205 -85t69 -234q0 -74 -16 -176l-14 -68q-1 -16 -19 -16h-612q-14 -74 -14 -152q0 -299 272 -299q118 0 225 45q21 10 21 -10l6 -31q5 -13 -16 -20q-117 -51 -242 -51q-298 0 -326 282 q-127 -280 -385 -280q-151 0 -231 90q-80 91 -80 262zM160 336q0 -287 235 -287q303 0 387 481q21 105 21 195q0 285 -238 285q-301 0 -385 -480q-20 -103 -20 -194zM862 563h557l2 25q21 102 21 174q0 250 -205 250q-286 0 -375 -449z" />
<glyph unicode="&#x178;" horiz-adv-x="1044" d="M233 1415q-7 21 17 21h45q15 0 20 -17l170 -559l64 -229h2l143 229l369 559q12 17 24 17h50q15 0 8 -21l-567 -860l-97 -539q-4 -16 -18 -16h-45q-18 0 -12 16l94 539zM520 1559l21 108q1 16 18 16h51q21 0 15 -16l-19 -108q-5 -19 -22 -19h-52q-17 0 -12 19zM819 1559 l23 108q0 16 18 16h51q16 0 15 -16l-21 -108q0 -19 -20 -19h-51q-15 0 -15 19z" />
<glyph unicode="&#x2c6;" horiz-adv-x="579" d="M205 1200q-1 6 6 12l192 187q17 12 33 12h39q17 0 29 -12l127 -187q6 -6 3 -12t-13 -6h-29q-10 0 -21 12l-122 150l-173 -150q-15 -12 -26 -12h-33q-11 0 -12 6z" />
<glyph unicode="&#x2dc;" horiz-adv-x="579" d="M180 1217q10 54 45 89q33 33 86 33q51 0 117 -36l41 -29q41 -27 78 -27q53 0 69 49l7 19q5 18 26 18h21q14 0 10 -20q-7 -51 -43 -87q-34 -34 -86 -34q-61 0 -117 37l-45 28q-36 25 -72 25q-48 0 -71 -47l-8 -21q-8 -18 -25 -18h-18q-19 0 -15 21z" />
<glyph unicode="&#x2000;" horiz-adv-x="942" />
<glyph unicode="&#x2001;" horiz-adv-x="1884" />
<glyph unicode="&#x2002;" horiz-adv-x="942" />
<glyph unicode="&#x2003;" horiz-adv-x="1884" />
<glyph unicode="&#x2004;" horiz-adv-x="628" />
<glyph unicode="&#x2005;" horiz-adv-x="471" />
<glyph unicode="&#x2006;" horiz-adv-x="314" />
<glyph unicode="&#x2007;" horiz-adv-x="314" />
<glyph unicode="&#x2008;" horiz-adv-x="235" />
<glyph unicode="&#x2009;" horiz-adv-x="376" />
<glyph unicode="&#x200a;" horiz-adv-x="104" />
<glyph unicode="&#x2010;" horiz-adv-x="667" d="M96 520l6 37q4 16 21 16h461q16 0 12 -16l-6 -37q-1 -14 -21 -14h-460q-19 0 -13 14z" />
<glyph unicode="&#x2011;" horiz-adv-x="667" d="M96 520l6 37q4 16 21 16h461q16 0 12 -16l-6 -37q-1 -14 -21 -14h-460q-19 0 -13 14z" />
<glyph unicode="&#x2012;" horiz-adv-x="667" d="M96 520l6 37q4 16 21 16h461q16 0 12 -16l-6 -37q-1 -14 -21 -14h-460q-19 0 -13 14z" />
<glyph unicode="&#x2013;" horiz-adv-x="884" d="M94 520l8 37q0 16 19 16h680q16 0 12 -16l-4 -37q-6 -14 -23 -14h-677q-8 0 -12 3.5t-3 10.5z" />
<glyph unicode="&#x2014;" horiz-adv-x="1294" d="M94 520l8 37q0 16 19 16h1091q15 0 15 -16l-8 -37q-1 -14 -19 -14h-1091q-8 0 -12 3.5t-3 10.5z" />
<glyph unicode="&#x2018;" horiz-adv-x="348" d="M233 1100l21 121l6 22l86 182q8 15 23 15h18q16 0 8 -19l-71 -180h32q18 0 13 -18l-21 -123q-2 -17 -20 -17h-80q-17 0 -15 17z" />
<glyph unicode="&#x2019;" horiz-adv-x="348" d="M231 1096l72 180h-33q-16 0 -12 18l21 123q5 19 20 19h80q20 0 14 -19l-20 -119q0 -6 -8 -22l-84 -184q-6 -15 -23 -15h-18q-17 0 -9 19z" />
<glyph unicode="&#x201a;" horiz-adv-x="348" d="M8 -180l72 180h-33q-13 0 -12 18l20 123q2 19 21 19h80q20 0 14 -19l-20 -118q0 -5 -9 -23l-84 -184q-7 -15 -22 -15h-19q-16 0 -8 19z" />
<glyph unicode="&#x201c;" horiz-adv-x="604" d="M233 1100l21 121l6 22l86 182q8 15 23 15h18q16 0 8 -19l-71 -180h32q18 0 13 -18l-21 -123q-2 -17 -20 -17h-80q-17 0 -15 17zM487 1100l21 121q0 4 3 10q4 8 5 12l86 182q6 15 21 15h18q13 0 8 -19l-74 -180h35q19 0 13 -18l-23 -123q0 -17 -18 -17h-80q-17 0 -15 17z " />
<glyph unicode="&#x201d;" horiz-adv-x="604" d="M231 1098l74 182h-33q-20 0 -14 16l21 123q2 17 20 17h82q18 0 12 -17l-20 -119q0 -11 -8 -22l-84 -184q-7 -13 -23 -13h-16q-16 0 -11 17zM487 1098l72 182h-33q-15 0 -14 16l23 123q2 17 18 17h82q18 0 12 -17l-20 -119q0 -10 -6 -22l-89 -184q-5 -13 -18 -13h-18 q-15 0 -9 17z" />
<glyph unicode="&#x201e;" horiz-adv-x="604" d="M6 -182l74 182h-33q-20 0 -14 16l20 123q2 17 21 17h82q18 0 12 -17l-21 -119q0 -11 -8 -22l-84 -184q-7 -13 -22 -13h-17q-15 0 -10 17zM262 -182l72 182h-33q-15 0 -14 16l22 123q2 17 19 17h82q18 0 12 -17l-21 -119q0 -10 -6 -22l-88 -184q-5 -13 -18 -13h-19 q-14 0 -8 17z" />
<glyph unicode="&#x2022;" horiz-adv-x="665" d="M111 500q0 111 78 192q79 82 194 82q89 0 142 -52q55 -53 55 -136q0 -109 -79 -191t-194 -82q-87 0 -142 53q-54 52 -54 134z" />
<glyph unicode="&#x2026;" horiz-adv-x="1091" d="M47 16l21 125q6 17 20 17h78q14 0 12 -17l-18 -125q-6 -16 -21 -16h-78q-18 0 -14 16zM412 16l20 125q6 17 21 17h75q17 0 15 -17l-21 -125q-6 -16 -18 -16h-78q-18 0 -14 16zM776 16l21 125q2 17 20 17h76q16 0 14 -17l-20 -125q-6 -16 -19 -16h-77q-19 0 -15 16z" />
<glyph unicode="&#x202f;" horiz-adv-x="376" />
<glyph unicode="&#x2039;" horiz-adv-x="397" d="M90 526v9l4 12l187 268q10 14 24 14h39q19 0 8 -18l-190 -276l92 -275q8 -18 -14 -18h-39q-13 0 -19 12z" />
<glyph unicode="&#x203a;" horiz-adv-x="397" d="M70 260l190 275l-92 276q-7 18 12 18h41q17 0 17 -14l92 -268q2 -8 2 -12l-4 -9l-189 -272q-11 -12 -22 -12h-41q-16 0 -6 18z" />
<glyph unicode="&#x205f;" horiz-adv-x="471" />
<glyph unicode="&#x20ac;" horiz-adv-x="1095" d="M76 567l6 31q1 16 18 16h148q7 69 14 103q1 4 8.5 37t14.5 65h-148q-18 0 -12 17l4 30q0 19 21 19h149q159 569 621 569q132 0 249 -51q17 -8 9 -23l-19 -34q-11 -19 -29 -11q-99 45 -210 45q-404 0 -537 -495h537q18 0 10 -19l-15 -30q-8 -17 -24 -17h-526 q-6 -18 -21 -102q-9 -52 -16 -103h463q18 0 12 -18l-12 -29q-7 -18 -27 -18h-440q-5 -63 -5 -84q0 -410 371 -410q124 0 236 47q18 6 22 -12l6 -35q0 -14 -16 -20q-120 -53 -254 -53q-224 0 -335 124t-111 361q0 31 4 82h-152q-16 0 -14 18z" />
<glyph unicode="&#x2122;" horiz-adv-x="1153" d="M238 1391l6 30q4 15 16 15h340q12 0 8 -15l-4 -30q0 -13 -14 -13h-139l-105 -592q-2 -12 -14 -12h-37q-11 0 -10 12l102 592h-139q-10 0 -10 13zM592 786l113 635q5 15 16 15h39q12 0 14 -11l121 -374l252 374q8 11 16 11h45q18 0 13 -15l-113 -635q0 -12 -16 -12h-35 q-8 0 -8 12l96 551l-242 -350q-10 -14 -20 -14q-13 0 -17 14l-116 350l-99 -551q0 -12 -14 -12h-33q-12 0 -12 12z" />
<glyph unicode="&#x25fc;" horiz-adv-x="1054" d="M0 0v1055h1055v-1055h-1055z" />
</font>
</defs>
</svg>
