<?xml version="1.0" standalone="no"?>
<!DOCTYPE svg PUBLIC "-//W3C//DTD SVG 1.1//EN" "http://www.w3.org/Graphics/SVG/1.1/DTD/svg11.dtd" >
<svg xmlns="http://www.w3.org/2000/svg" xmlns:xlink="http://www.w3.org/1999/xlink" version="1.1">
<metadata></metadata>
<defs>
<font id="amsipro-semiboldiuploadedfile" horiz-adv-x="1216" >
<font-face units-per-em="2048" ascent="1749" descent="-299" />
<missing-glyph horiz-adv-x="606" />
<glyph unicode="&#xfb01;" horiz-adv-x="1198" d="M127 924l16 96q4 22 13 32q8 9 32 9h127l17 88q52 307 336 307q115 0 163 -22q29 -11 23 -35l-14 -86q-6 -39 -41 -33q-63 10 -107 10q-129 0 -153 -147l-15 -82h584q41 0 33 -41l-174 -981q-6 -39 -43 -39h-136q-40 0 -34 39l149 846h-407l-152 -848q-6 -37 -43 -37 h-131q-41 0 -35 37l150 848h-127q-39 0 -31 39zM971 1245l28 158q6 37 43 37h129q41 0 35 -37l-28 -158q-8 -39 -45 -39h-127q-43 0 -35 39z" />
<glyph unicode="&#xfb02;" horiz-adv-x="1196" d="M127 924l16 96q6 41 45 41h127l11 61q33 179 140 258q109 80 349 80q239 0 356 -43q20 -7 27 -16q6 -8 2 -29l-235 -1333q-6 -39 -41 -39h-138q-38 0 -32 39l219 1237q-56 14 -174 14q-129 0 -189 -39q-58 -38 -75 -127l-11 -63h170q39 0 31 -41l-16 -96q-6 -39 -45 -39 h-168l-152 -848q-6 -37 -43 -37h-131q-41 0 -35 37l150 848h-127q-39 0 -31 39z" />
<glyph unicode="&#xfb03;" horiz-adv-x="1814" d="M127 924l16 96q6 41 45 41h127l17 96q53 299 338 299q116 0 161 -22q31 -8 23 -35l-14 -86q-6 -41 -39 -33q-49 10 -105 10q-130 0 -153 -141l-17 -88h408l16 96q56 299 340 299q117 0 162 -22q28 -8 23 -35l-17 -86q-6 -41 -39 -33q-49 10 -104 10q-131 0 -154 -141 l-16 -88h579q41 0 33 -41l-172 -981q-7 -39 -45 -39h-133q-41 0 -35 39l152 846h-410l-149 -848q-7 -37 -43 -37h-136q-38 0 -32 37l149 848h-407l-152 -848q-6 -37 -43 -37h-131q-41 0 -35 37l150 848h-127q-39 0 -31 39zM1587 1245l29 158q7 37 45 37h129q39 0 33 -37 l-29 -158q-6 -39 -43 -39h-129q-41 0 -35 39z" />
<glyph unicode="&#xfb04;" horiz-adv-x="1812" d="M127 924l16 96q6 41 45 41h127l17 96q53 299 338 299q116 0 161 -22q31 -8 23 -35l-14 -86q-6 -41 -39 -33q-49 10 -105 10q-130 0 -153 -141l-17 -88h408l12 61q30 176 138 257t350 81q110 0 208 -14q110 -16 146 -29q23 -8 28 -16t3 -29l-236 -1333q-6 -39 -43 -39 h-135q-41 0 -33 39l217 1237q-53 14 -172 14q-129 0 -187 -39q-59 -39 -75 -127l-10 -63h166q41 0 35 -41l-19 -96q-6 -39 -45 -39h-168l-149 -848q-7 -37 -43 -37h-136q-38 0 -32 39l149 846h-407l-152 -848q-6 -37 -43 -37h-131q-41 0 -35 37l150 848h-127q-39 0 -31 39z " />
<glyph horiz-adv-x="0" />
<glyph unicode="&#xd;" horiz-adv-x="681" />
<glyph unicode=" "  horiz-adv-x="606" />
<glyph unicode="&#x09;" horiz-adv-x="606" />
<glyph unicode="&#xa0;" horiz-adv-x="606" />
<glyph unicode="!" horiz-adv-x="610" d="M104 39l33 178q6 39 45 39h168q39 0 33 -39l-31 -178q-8 -39 -43 -39h-170q-41 0 -35 39zM213 459l127 940q6 41 47 41h176q41 0 33 -41l-205 -940q-6 -39 -47 -39h-96q-41 0 -35 39z" />
<glyph unicode="&#x22;" horiz-adv-x="716" d="M244 948l12 322q5 80 14 129q15 80 109 80q51 0 71 -20q19 -19 11 -60q-12 -67 -33 -129l-98 -322h-86zM557 948l14 322q3 46 13 129q18 80 110 80q95 0 80 -80q-16 -85 -31 -129l-98 -322h-88z" />
<glyph unicode="#" horiz-adv-x="1316" d="M27 416l12 71q7 39 47 39h215l164 375h-168q-37 0 -31 39l13 72q6 39 45 39h206l166 381q15 33 52 26l75 -20q40 -8 19 -49l-148 -338h310l167 381q16 38 52 26l73 -20q37 -10 21 -49l-150 -338h176q37 0 29 -39l-10 -72q-6 -39 -45 -39h-215l-166 -375h168q39 0 33 -39 l-13 -71q-8 -39 -47 -39h-209l-155 -367q-18 -39 -54 -28l-73 22q-39 10 -21 47l144 326h-314l-157 -367q-16 -39 -54 -28l-73 22q-37 10 -21 47l143 326h-174q-38 0 -32 39zM461 526h313l164 375h-309z" />
<glyph unicode="$" horiz-adv-x="1179" d="M27 111l59 106q18 39 57 23q165 -62 326 -62q70 0 130 10q61 10 126 35q63 24 101 76t38 121q0 22 -4 38q-5 18 -16 34l-22 28q-10 13 -30 26q-8 5 -20.5 12.5t-13.5 8.5q-15 9 -43 22q-29 13 -44 18q-6 2 -51 20q-10 4 -22 8.5t-19 7t-10 4.5q-77 31 -136 62 q-56 30 -111 73q-57 45 -86 107q-29 63 -29 139q0 191 137 296q136 105 356 132l27 152q6 37 45 37h76q39 0 33 -39l-27 -146q94 -5 181 -26q90 -22 134 -45q34 -19 13 -52l-58 -102q-25 -42 -55 -25q-124 56 -287 56q-56 0 -113 -12q-66 -14 -111 -34q-53 -24 -88 -69 q-34 -44 -34 -107q0 -25 6 -46t25 -40q14 -14 32 -30q16 -14 47 -29q12 -6 28.5 -14.5t21.5 -10.5q29 -13 60 -26q56 -23 61 -25q104 -44 143 -65q55 -29 113 -73q63 -47 89 -106q28 -62 28 -141q0 -192 -135 -301q-134 -109 -351 -143l-26 -160q-8 -39 -46 -39h-75 q-41 0 -33 39l25 150q-243 2 -400 77q-39 18 -22 50z" />
<glyph unicode="%" horiz-adv-x="1923" d="M174 918q0 47 10 110q38 210 143 318t265 108q137 0 218 -81t81 -234q0 -50 -10 -113q-37 -208 -143 -317t-265 -109q-137 0 -218 83t-81 235zM350 922q0 -168 133 -168q173 0 222 272q10 64 10 107q0 167 -135 167q-175 0 -220 -274q-10 -63 -10 -104zM371 39l1083 1368 q27 33 59 33h113q19 0 23 -10q4 -9 -9 -27l-1083 -1368q-29 -35 -59 -35h-111q-45 0 -16 39zM1124 303q0 42 11 111q34 208 140 318q105 110 265 110q137 0 218 -82q81 -83 81 -236q0 -49 -10 -112q-35 -208 -141 -316t-267 -108q-138 0 -217 82q-80 83 -80 233zM1298 309 q0 -168 136 -168q170 0 219 273q10 63 10 104q0 170 -133 170q-175 0 -221 -274q-11 -71 -11 -105z" />
<glyph unicode="&#x26;" horiz-adv-x="1495" d="M78 373q0 187 124 311q127 127 328 178l-32 45q-80 109 -80 223q0 170 120 252q119 82 314 82q165 0 276 -51q44 -18 25 -49l-47 -86q-23 -38 -62 -23q-86 33 -186 33q-240 0 -240 -160q0 -71 84 -182l422 -553q54 71 73 137q20 69 20 164q0 49 36 49h111q35 0 35 -67 q0 -233 -168 -428l155 -207q11 -16 4 -28q-7 -13 -24 -13h-152q-37 0 -59 25l-72 96q-176 -137 -467 -137q-239 0 -388 107q-150 108 -150 282zM303 408q0 -104 92 -172t252 -68q213 0 334 94l-356 465q-131 -29 -228 -111q-94 -79 -94 -208z" />
<glyph unicode="'" horiz-adv-x="403" d="M244 948l12 322q5 80 14 129q15 80 109 80q51 0 71 -20q19 -19 11 -60q-12 -67 -33 -129l-98 -322h-86z" />
<glyph unicode="(" horiz-adv-x="755" d="M178 426q0 273 137 536q136 261 363 476q26 22 51 22h102q21 0 24 -13q3 -15 -11 -26q-205 -209 -328 -472q-125 -267 -125 -539q0 -328 168 -609q8 -15 1 -27q-8 -14 -28 -14h-102q-28 0 -43 21q-209 292 -209 645z" />
<glyph unicode=")" horiz-adv-x="755" d="M-48 -226q-3 12 9 27q204 207 331 473q126 264 126 541q0 343 -172 606q-6 15 1 27q8 12 25 12h105q28 0 43 -22q207 -289 207 -643q0 -273 -137 -536q-139 -267 -363 -478q-21 -21 -49 -21h-105q-18 0 -21 14z" />
<glyph unicode="*" horiz-adv-x="835" d="M176 964q11 20 47 40q29 14 109 43q82 29 119 47q-26 14 -101 45q-72 30 -94 45q-56 35 -12 92q41 57 98 24q20 -15 79 -69q73 -67 79 -72q3 25 5 117q2 87 7 113q6 35 25 53q17 16 55 16q36 0 47 -15q10 -14 4 -54q-5 -24 -34 -118q-31 -99 -34 -112q14 9 106 72 q73 50 105 67q68 35 91 -22q18 -61 -46 -94q-24 -13 -110 -44q-94 -34 -117 -44q26 -14 101 -45q72 -30 94 -45q31 -22 34 -40q3 -19 -22 -53q-47 -57 -96 -24q-30 19 -82 68q-60 57 -78 71q-3 -53 -4 -113q-1 -83 -8 -116q-8 -68 -76 -68q-39 0 -51 15t-6 53q8 37 32 111 q28 85 35 118q-5 -3 -18 -12t-35 -24.5t-45 -30.5q-69 -47 -111 -70q-66 -39 -90 20q-12 36 -2 55z" />
<glyph unicode="+" d="M152 653l18 103q6 37 43 37h354l62 350q7 39 45 39h119q37 0 30 -39l-61 -350h352q36 0 35 -37l-21 -103q-2 -35 -45 -35h-352l-63 -356q-6 -39 -43 -39h-119q-39 0 -33 39l64 356h-353q-38 0 -32 35z" />
<glyph unicode="," horiz-adv-x="485" d="M35 -213l94 213h-47q-40 0 -33 39l31 174q8 39 47 39h154q40 0 34 -39l-28 -160q-4 -18 -17 -49l-133 -229q-12 -23 -39 -23h-51q-35 0 -12 35z" />
<glyph unicode="-" horiz-adv-x="808" d="M88 492l18 102q6 37 44 37h563q39 0 32 -37l-16 -102q-7 -37 -47 -37h-563q-37 0 -31 37z" />
<glyph unicode="." horiz-adv-x="485" d="M49 39l31 174q8 39 47 39h154q40 0 34 -39l-32 -174q-6 -39 -41 -39h-160q-40 0 -33 39z" />
<glyph unicode="/" horiz-adv-x="903" d="M-58 13q-5 14 7 32l889 1358q21 37 57 37h123q24 0 32 -14q7 -12 -8 -33l-888 -1356q-21 -37 -58 -37h-125q-25 0 -29 13z" />
<glyph unicode="0" horiz-adv-x="1390" d="M139 506q0 84 21 217q63 362 240 551q176 188 452 188q230 0 358 -135q127 -134 127 -389q0 -92 -20 -213q-63 -361 -241 -553q-177 -190 -451 -190q-231 0 -359 135q-127 134 -127 389zM367 516q0 -338 276 -338q351 0 451 543q18 114 18 203q0 340 -281 340 q-349 0 -444 -543q-20 -103 -20 -205z" />
<glyph unicode="1" horiz-adv-x="966" d="M190 1096q-16 21 15 43l428 284q28 17 57 17h146q40 0 34 -41l-239 -1358q-8 -41 -47 -41h-140q-42 0 -36 41l202 1151l-313 -193q-34 -16 -49 7z" />
<glyph unicode="2" horiz-adv-x="1282" d="M45 41l14 88q6 35 41 53q28 16 197 115q82 48 199 125q121 79 198 148q77 68 159 155q78 83 118 173q39 88 39 177q0 197 -250 197q-159 0 -245 -77q-85 -76 -85 -216q0 -72 -41 -72h-129q-37 0 -37 72q0 227 161 355t390 128q235 0 348 -103q115 -104 115 -265 q0 -117 -56 -233t-140 -211q-83 -93 -198 -186q-119 -96 -212 -154q-91 -57 -203 -120h627q45 0 35 -40l-19 -109q-8 -41 -47 -41h-944q-43 0 -35 41z" />
<glyph unicode="3" horiz-adv-x="1193" d="M10 111l60 110q18 38 53 23q168 -72 348 -72q162 0 270 78q109 79 109 227q0 180 -266 180h-156q-42 0 -35 37l19 105q8 39 47 39h149q137 0 226 70q90 70 90 196q0 82 -65 126t-179 44q-187 0 -373 -72q-37 -15 -45 23l-22 104q-6 31 34 47q216 86 433 86q194 0 319 -87 t125 -236q0 -136 -76 -234q-75 -97 -203 -141q87 -24 144 -95t57 -180q0 -255 -173 -381q-172 -126 -433 -126q-264 0 -438 86q-35 17 -19 43z" />
<glyph unicode="4" horiz-adv-x="1345" d="M61 352l19 107q5 30 26 51l893 903q27 27 52 27h147q41 0 33 -41l-158 -901h197q41 0 35 -43l-19 -103q-6 -41 -47 -41h-199l-47 -270q-8 -41 -45 -41h-141q-41 0 -35 41l49 270h-727q-41 0 -33 41zM303 498h553l117 667z" />
<glyph unicode="5" horiz-adv-x="1222" d="M25 121l57 104q21 38 53 23q165 -76 357 -76q183 0 293 92t110 260q0 199 -277 199q-103 0 -210 -29q-103 -28 -115 -28q-14 0 -33 8l-63 20q-26 6 -15 41q102 347 158 662q6 43 51 43h766q41 0 35 -41l-18 -109q-6 -39 -50 -39h-624q-29 -147 -99 -399q129 47 267 47 q222 0 336 -96t114 -262q0 -272 -177 -416q-176 -143 -452 -143q-278 0 -450 88q-32 21 -14 51z" />
<glyph unicode="6" horiz-adv-x="1318" d="M133 496q0 72 17 174q66 371 249 581q184 211 494 211q194 0 311 -55q38 -17 23 -43l-53 -109q-18 -39 -54 -26q-109 47 -227 47q-207 0 -336 -139q-129 -140 -180 -389q143 227 430 227q207 0 315 -111q109 -112 109 -282q0 -258 -174 -429t-428 -171q-242 0 -369 139 t-127 375zM365 440q0 -109 72 -188q72 -80 208 -80q163 0 268 119t105 276q0 105 -66 169q-67 65 -200 65q-158 0 -273 -107q-114 -106 -114 -254z" />
<glyph unicode="7" horiz-adv-x="1167" d="M231 1290l19 109q6 41 47 41h905q41 0 33 -41l-16 -96q-1 -20 -41 -64q-595 -732 -697 -1200q-7 -39 -47 -39h-147q-45 0 -35 39q77 296 293 644q218 352 428 568h-709q-39 0 -33 39z" />
<glyph unicode="8" horiz-adv-x="1290" d="M80 324q0 173 121 278q122 106 301 146q-117 35 -187 116q-71 81 -71 187q0 112 50 195t135 128q89 47 178 67q93 21 196 21q217 0 340 -87t123 -228q0 -155 -109 -255q-108 -99 -270 -144q130 -30 212 -112q81 -81 81 -206q0 -118 -56 -210t-145 -141q-94 -52 -193 -75 q-102 -24 -211 -24q-232 0 -363 97q-132 97 -132 247zM303 356q0 -87 77 -143q76 -55 216 -55q148 0 255 70t107 202q0 175 -278 236q-377 -86 -377 -310zM461 1051q0 -156 248 -224q340 91 340 295q0 77 -67 123q-66 45 -196 45q-136 0 -230 -60q-95 -60 -95 -179z" />
<glyph unicode="9" horiz-adv-x="1318" d="M176 854q0 264 172 435t432 171q240 0 366 -139t126 -375q0 -74 -17 -176q-141 -790 -733 -790q-200 0 -313 55q-36 17 -21 45l52 106q21 37 53 25q118 -47 227 -47q203 0 332 133q129 134 180 379q-53 -86 -161 -149q-106 -62 -271 -62q-207 0 -315 109 q-109 111 -109 280zM389 877q0 -104 67 -171t199 -67q163 0 276 107t113 260q0 111 -73 187q-74 77 -211 77q-164 0 -267 -118q-104 -119 -104 -275z" />
<glyph unicode=":" horiz-adv-x="552" d="M82 39l33 174q6 39 45 39h155q41 0 33 -39l-31 -174q-6 -39 -45 -39h-155q-41 0 -35 39zM227 856l31 176q6 37 45 37h156q41 0 35 -39l-33 -174q-6 -39 -45 -39h-156q-40 0 -33 39z" />
<glyph unicode=";" horiz-adv-x="552" d="M68 -213l96 213h-47q-41 0 -35 39l33 174q6 39 45 39h155q41 0 33 -39l-29 -160q-2 -23 -16 -49l-131 -229q-17 -23 -39 -23h-51q-37 0 -14 35zM227 856l31 174q6 39 47 39h154q41 0 35 -39l-33 -174q-6 -39 -45 -39h-156q-40 0 -33 39z" />
<glyph unicode="&#x3c;" d="M166 705q4 22 31 38l872 578q37 27 55 -2l56 -86q15 -30 -15 -53l-741 -478l573 -475q23 -23 -4 -51l-86 -90q-30 -27 -53 -4l-672 580q-18 18 -16 43z" />
<glyph unicode="=" d="M143 459l17 96q6 37 45 37h850q36 0 30 -37l-16 -96q-6 -37 -43 -37h-852q-37 0 -31 37zM211 854l18 96q6 39 45 39h850q37 0 31 -39l-16 -96q-6 -37 -43 -37h-852q-34 0 -33 37z" />
<glyph unicode="&#x3e;" d="M121 176q-15 30 14 51l742 475l-574 478q-22 21 4 53l80 86q30 27 55 4l674 -580q21 -15 17 -38q-5 -25 -29 -43l-881 -580q-34 -27 -53 4z" />
<glyph unicode="?" horiz-adv-x="1089" d="M217 1331q-8 27 35 45q181 86 416 86q211 0 325 -84q115 -85 115 -231q0 -100 -45 -184q-46 -86 -111 -142t-133 -106q-65 -48 -119 -100q-52 -50 -59 -99l-10 -59q-6 -37 -45 -37h-121q-41 0 -35 39l12 57q11 63 64 128q53 66 112 113q53 43 122 103q62 54 102 121 q41 68 41 143q0 148 -250 148q-154 0 -346 -70q-41 -15 -47 21zM328 39l32 178q6 39 48 39h165q41 0 35 -39l-33 -178q-6 -39 -43 -39h-170q-40 0 -34 39z" />
<glyph unicode="@" horiz-adv-x="1906" d="M106 313q0 400 292 659t726 259q352 0 524 -148q171 -147 171 -372q0 -165 -59 -309q-59 -143 -187 -237q-130 -95 -305 -95h-135q-17 0 -28 7q-10 7 -9 21l26 129q-127 -161 -321 -161q-147 0 -235 82q-89 83 -89 217q0 254 178 417q179 164 465 164q173 0 332 -74 q23 -12 16 -34l-225 -641h49q191 0 291 152t100 360q0 181 -134 291t-433 110q-232 0 -430 -92q-194 -90 -320 -277q-124 -184 -124 -424q0 -426 612 -426q255 0 438 70q25 8 29 -18l6 -66q0 -21 -20 -27q-216 -79 -457 -79q-359 0 -551 141q-193 142 -193 401zM672 389 q0 -77 43 -123q44 -47 127 -47q224 0 319 260l103 287q-73 29 -164 29q-190 0 -309 -113t-119 -293z" />
<glyph unicode="A" horiz-adv-x="1384" d="M-26 13q-7 13 1 32l738 1354q23 41 59 41h178q41 0 47 -41l258 -1354q5 -18 -6 -32q-10 -13 -30 -13h-150q-37 0 -43 37l-57 309h-586l-170 -309q-21 -37 -51 -37h-160q-21 0 -28 13zM473 543h469l-111 674h-4z" />
<glyph unicode="B" horiz-adv-x="1417" d="M92 41l240 1358q6 41 49 41h498q243 0 368 -80t125 -232q0 -130 -68 -229q-69 -100 -194 -141q88 -21 142 -90q55 -70 55 -183q0 -251 -174 -368t-463 -117h-541q-38 0 -38 30q0 5 1 11zM340 193h332q91 0 151 11q68 12 129 40q63 29 98 89q33 57 33 150q0 87 -72 128 q-71 40 -245 40h-344zM455 834h336q356 0 356 262q0 81 -68 117q-67 36 -223 36h-328z" />
<glyph unicode="C" horiz-adv-x="1251" d="M135 526q0 84 19 195q63 362 259 552q195 189 500 189q118 0 219 -25q100 -25 154 -61q37 -22 21 -49l-64 -104q-16 -27 -38 -27q-10 0 -21 6q-108 58 -256 58q-450 0 -545 -539q-16 -96 -16 -170q0 -371 383 -371q144 0 280 68q10 4 19 4q22 0 30 -29l29 -106q1 -3 1 -7 q0 -20 -38 -40q-159 -90 -371 -90q-269 0 -416 140q-149 141 -149 406z" />
<glyph unicode="D" horiz-adv-x="1402" d="M92 41l240 1358q6 41 47 41h354q309 0 470 -119t161 -387q0 -87 -18 -195q-69 -404 -269 -572q-199 -167 -557 -167h-391q-38 0 -38 30q0 5 1 11zM348 205h184q250 0 390 114q138 113 194 420q17 97 17 160q0 185 -106 261q-105 75 -318 75h-181z" />
<glyph unicode="E" horiz-adv-x="1144" d="M92 41l240 1358q6 41 47 41h786q36 0 36 -29q0 -5 -1 -12l-20 -117q-6 -41 -47 -41h-607l-71 -410h581q34 0 34 -32q0 -5 -1 -11l-20 -106q-6 -43 -48 -43h-581l-78 -440h612q38 0 38 -30q0 -4 -1 -9l-20 -117q-7 -43 -49 -43h-793q-38 0 -38 30q0 5 1 11z" />
<glyph unicode="F" horiz-adv-x="1118" d="M92 41l240 1358q6 41 49 41h782q39 0 37 -39l-20 -117q-8 -41 -47 -41h-603l-77 -434h583q37 0 37 -29q0 -6 -2 -14l-18 -111q-7 -39 -47 -39h-586l-103 -575q-8 -41 -47 -41h-141q-38 0 -38 30q0 5 1 11z" />
<glyph unicode="G" horiz-adv-x="1443" d="M135 518q0 82 21 205q127 739 821 739q122 0 233 -27q110 -27 168 -65q36 -25 19 -49l-60 -107q-16 -26 -38 -26q-11 0 -23 6q-123 66 -295 66q-266 0 -408 -130t-188 -409q-18 -99 -18 -176q0 -188 101 -276q103 -89 308 -89q156 0 271 53l73 424h-262q-38 0 -38 30 q0 4 1 9l19 107q6 41 49 41h434q36 0 36 -31q0 -5 -1 -10l-115 -653q-7 -42 -55 -70q-179 -100 -449 -100q-291 0 -448 134q-156 134 -156 404z" />
<glyph unicode="H" horiz-adv-x="1447" d="M92 41l240 1358q6 41 49 41h141q36 0 36 -31q0 -5 -1 -10l-98 -561h661l99 561q6 41 47 41h143q36 0 36 -31q0 -5 -1 -10l-240 -1358q-8 -41 -45 -41h-143q-38 0 -38 30q0 5 1 11l104 592h-661l-105 -592q-8 -41 -47 -41h-141q-38 0 -38 30q0 5 1 11z" />
<glyph unicode="I" horiz-adv-x="587" d="M104 41l240 1358q8 41 47 41h144q35 0 35 -29q0 -6 -1 -12l-239 -1358q-6 -41 -47 -41h-142q-38 0 -38 32q0 4 1 9z" />
<glyph unicode="J" horiz-adv-x="993" d="M-16 109l59 108q16 27 37 27q8 0 16 -4q90 -60 223 -60q242 0 293 289l164 930q6 41 45 41h144q40 0 34 -41l-168 -948q-41 -239 -163 -357q-124 -119 -344 -119q-95 0 -185 24q-91 24 -137 54q-26 16 -26 35q0 10 8 21z" />
<glyph unicode="K" horiz-adv-x="1280" d="M92 41l240 1358q6 41 49 41h141q36 0 36 -31q0 -5 -1 -10l-90 -506l623 514q38 33 67 33h195q24 0 28 -18q4 -16 -14 -33l-743 -615l520 -721q12 -16 4 -35q-7 -18 -33 -18h-162q-32 0 -59 37l-463 637l-113 -633q-6 -41 -47 -41h-141q-38 0 -38 30q0 5 1 11z" />
<glyph unicode="L" horiz-adv-x="1110" d="M92 41l240 1358q6 41 49 41h141q36 0 36 -31q0 -5 -1 -10l-209 -1194h588q43 0 37 -37l-25 -127q-6 -41 -47 -41h-772q-38 0 -38 30q0 5 1 11z" />
<glyph unicode="M" horiz-adv-x="1662" d="M92 41l240 1358q6 41 49 41h133q34 0 47 -25l309 -704l560 704q19 25 51 25h141q38 0 38 -32q0 -4 -1 -9l-240 -1358q-8 -41 -47 -41h-139q-36 0 -36 31q0 5 1 10l178 1016l-516 -654q-18 -24 -45 -24t-37 24l-286 654l-179 -1016q-8 -41 -45 -41h-139q-38 0 -38 30 q0 5 1 11z" />
<glyph unicode="N" horiz-adv-x="1454" d="M92 41l240 1358q6 41 49 41h135q40 0 51 -29l484 -1036l178 1024q6 41 47 41h137q39 0 37 -39l-242 -1360q-6 -41 -47 -41h-137q-36 0 -51 31l-481 1034l-181 -1024q-8 -41 -45 -41h-137q-38 0 -38 30q0 5 1 11z" />
<glyph unicode="O" horiz-adv-x="1468" d="M131 514q0 90 19 207q63 364 252 553q188 188 489 188q255 0 395 -137q139 -136 139 -397q0 -92 -20 -209q-66 -365 -252 -552t-487 -187q-257 0 -396 136t-139 398zM362 532q0 -354 320 -354q398 0 494 543q18 102 18 186q0 357 -322 357q-394 0 -493 -543 q-17 -114 -17 -189z" />
<glyph unicode="P" horiz-adv-x="1345" d="M92 41l240 1358q6 41 47 41h401q274 0 407 -90q134 -90 134 -291q0 -71 -10 -125q-45 -267 -204 -386q-158 -118 -466 -118h-256l-68 -389q-8 -41 -47 -41h-141q-38 0 -38 32q0 4 1 9zM420 629h233q198 0 300 69q101 69 130 236q9 52 9 90q0 118 -79 167q-80 50 -251 50 h-234z" />
<glyph unicode="Q" horiz-adv-x="1468" d="M133 520q0 89 19 203q63 366 251 552q188 187 488 187q256 0 398 -137q141 -137 141 -397q0 -88 -19 -205q-52 -278 -200 -462q-147 -183 -369 -232q93 -41 227 -41q8 0 40 2l32 2q23 0 30 -7q8 -8 7 -26l-19 -100q-5 -25 -20 -35q-16 -10 -60 -10q-308 0 -487 178 q-216 10 -338 147q-121 136 -121 381zM362 535q0 -353 322 -353q395 0 494 541q16 86 16 182q0 359 -324 359q-195 0 -319 -139t-170 -402q-19 -131 -19 -188z" />
<glyph unicode="R" horiz-adv-x="1345" d="M92 41l240 1358q6 41 49 41h416q536 0 536 -365q0 -51 -10 -114q-63 -373 -465 -433l303 -475q10 -18 1 -36q-8 -17 -34 -17h-143q-39 0 -55 33l-295 467h-236l-82 -459q-8 -41 -47 -41h-141q-38 0 -38 30q0 5 1 11zM434 696h246q200 0 297 65q96 65 119 206q8 56 8 73 q0 108 -78 154q-79 47 -248 47h-250z" />
<glyph unicode="S" horiz-adv-x="1167" d="M25 102l61 111q13 30 34 30q9 0 19 -5q135 -60 330 -60q69 0 124 11q60 12 120 36q58 23 95 74q36 49 36 117q0 34 -18 64q-19 32 -35 49q-16 18 -66 45q-21 11 -72 37q-4 2 -88 38q-165 67 -256 149q-90 81 -90 220q0 223 156 334q155 110 407 110q242 0 375 -65 q36 -17 21 -49l-60 -107q-14 -26 -37 -26q-9 0 -20 4q-112 47 -279 47q-333 0 -333 -222q0 -19 4 -34q5 -19 13 -32q4 -6 10 -15.5t7 -11.5q5 -8 28 -24q8 -5 18 -13t12 -9q13 -9 37 -20q8 -4 15.5 -7.5t14 -7t8.5 -4.5q4 -2 19.5 -8.5t26.5 -11.5q33 -15 45 -21 q60 -26 110 -52q44 -23 96 -58q54 -37 85 -72q31 -36 52 -88q21 -53 21 -115q0 -230 -170 -344q-169 -114 -426 -114q-129 0 -250 21q-118 20 -178 52q-37 18 -22 47z" />
<glyph unicode="T" horiz-adv-x="1140" d="M203 1276l20 123q6 41 47 41h938q38 0 38 -32q0 -4 -1 -9l-22 -123q-6 -41 -49 -41h-357l-211 -1194q-6 -41 -47 -41h-141q-38 0 -38 32q0 4 1 9l211 1194h-354q-37 0 -37 27q0 6 2 14z" />
<glyph unicode="U" horiz-adv-x="1423" d="M152 385q0 61 12 129l155 885q8 41 50 41h141q36 0 36 -29q0 -5 -1 -12l-152 -867q-10 -59 -10 -104q0 -248 276 -248q331 0 392 352l153 867q6 41 47 41h142q40 0 34 -41l-155 -885q-95 -539 -627 -539q-240 0 -367 106q-126 105 -126 304z" />
<glyph unicode="V" horiz-adv-x="1366" d="M229 1395q-1 5 -1 9q0 36 40 36h152q36 0 41 -39l137 -830l37 -340h4l158 342l426 828q18 39 55 39h160q19 0 27 -14q7 -13 -3 -31l-708 -1352q-22 -43 -62 -43h-182q-41 0 -47 43z" />
<glyph unicode="W" horiz-adv-x="2138" d="M246 1393q-1 5 -1 9q0 38 38 38h151q40 0 41 -39l78 -770l27 -381h6l168 387l352 764q16 39 61 39h142q45 0 49 -39l80 -764l37 -387h4l161 381l349 770q15 39 53 39h151q20 0 28 -14q7 -13 -3 -33l-627 -1350q-21 -43 -61 -43h-176q-48 0 -49 43l-91 727l-30 344h-4 l-152 -344l-344 -727q-16 -43 -61 -43h-179q-41 0 -47 43z" />
<glyph unicode="X" horiz-adv-x="1325" d="M-16 16q-6 17 10 33l590 674l-344 668q-6 17 2 33t28 16h158q35 0 53 -35l256 -506l430 506q24 35 62 35h164q20 0 26 -17q6 -16 -10 -32l-580 -666l355 -676q6 -19 -3 -34t-30 -15h-154q-33 0 -55 37l-262 514l-444 -514q-27 -37 -66 -37h-160q-20 0 -26 16z" />
<glyph unicode="Y" horiz-adv-x="1331" d="M225 1391q-8 19 2 33q11 16 33 16h150q34 0 49 -37l178 -477l68 -209l145 209l344 477q27 37 59 37h158q23 0 28 -17q4 -16 -7 -32l-644 -861l-86 -489q-8 -41 -47 -41h-143q-36 0 -36 29q0 6 1 12l86 489z" />
<glyph unicode="Z" horiz-adv-x="1234" d="M39 41l20 119q7 37 39 69l875 1006h-668q-35 0 -35 26q0 7 2 15l21 123q6 41 47 41h891q39 0 33 -41l-21 -119q-6 -34 -37 -68l-870 -1007h690q41 0 35 -39l-23 -125q-8 -41 -47 -41h-917q-36 0 -36 29q0 6 1 12z" />
<glyph unicode="[" horiz-adv-x="755" d="M111 -186l280 1589q6 37 45 37h352q41 0 35 -37l-16 -86q-6 -39 -43 -39h-195l-235 -1341h192q37 0 31 -37l-14 -86q-7 -39 -45 -39h-355q-38 0 -32 39z" />
<glyph unicode="\" horiz-adv-x="903" d="M195 1393q-11 47 36 47h109q37 0 47 -37l410 -1358q11 -45 -37 -45h-109q-37 0 -47 37z" />
<glyph unicode="]" horiz-adv-x="759" d="M-14 -186l14 86q7 37 47 37h195l235 1341h-192q-37 0 -35 39l16 86q6 37 45 37h353q40 0 34 -37l-280 -1589q-8 -39 -47 -39h-353q-38 0 -32 39z" />
<glyph unicode="^" d="M155 711q-4 14 11 34l498 664q22 31 55 31h117q37 0 49 -31l264 -664q6 -22 -4 -35q-11 -14 -33 -14h-121q-35 0 -47 35l-196 508l-375 -508q-27 -35 -60 -35h-131q-22 0 -27 15z" />
<glyph unicode="_" horiz-adv-x="1028" d="M-70 -176l9 57q7 37 45 37h864q41 0 31 -37l-9 -57q-10 -37 -45 -37h-864q-37 0 -31 37z" />
<glyph unicode="`" horiz-adv-x="706" d="M328 1433q8 15 26 15h166q34 0 45 -29l80 -178q8 -35 -29 -35h-71q-30 0 -51 23l-162 176q-12 12 -4 28z" />
<glyph unicode="a" horiz-adv-x="1157" d="M41 250q0 288 367 360q126 25 434 35l10 53q6 35 6 60q0 157 -225 157q-165 0 -330 -65q-39 -12 -43 24l-14 99q-4 28 30 43q185 78 392 78q397 0 397 -303q0 -51 -8 -97l-117 -655q-6 -39 -43 -39h-119q-40 0 -35 35l21 129q-145 -182 -395 -182q-158 0 -242 74 q-86 75 -86 194zM250 272q0 -59 46 -96t134 -37q155 0 253 78q97 78 118 195l16 90q-308 -15 -405 -47q-162 -49 -162 -183z" />
<glyph unicode="b" horiz-adv-x="1296" d="M82 39l240 1364q7 37 45 37h135q41 0 35 -37l-91 -498q124 189 379 189q185 0 293 -103q107 -102 107 -301q0 -76 -17 -155q-50 -280 -187 -417q-138 -138 -355 -138q-128 0 -228 47q-97 46 -125 139l-26 -131q-11 -35 -43 -35h-129q-41 0 -33 39zM371 420 q0 -264 254 -264q149 0 240 91t126 290q15 86 15 133q0 245 -248 245q-149 0 -247 -95q-97 -94 -130 -283q-10 -50 -10 -117z" />
<glyph unicode="c" horiz-adv-x="1038" d="M98 410q0 56 13 129q46 269 206 412t396 143q207 0 309 -66q32 -20 14 -49l-57 -94q-14 -24 -37 -24q-10 0 -22 5q-85 43 -197 43q-155 0 -259 -92q-103 -91 -136 -278q-9 -67 -9 -111q0 -134 69 -200t194 -66q126 0 241 53q35 17 45 -18l23 -97q6 -28 -33 -49 q-127 -71 -291 -71q-215 0 -342 111t-127 319z" />
<glyph unicode="d" horiz-adv-x="1296" d="M94 383q0 63 17 154q50 277 189 416q141 141 357 141q123 0 223 -51q97 -49 121 -138l91 498q6 37 43 37h135q41 0 35 -37l-242 -1364q-6 -39 -45 -39h-127q-39 0 -33 35l21 131q-121 -186 -379 -186q-190 0 -298 102t-108 301zM313 403q0 -247 248 -247q149 0 248 96 q98 95 131 285q10 50 10 116q0 131 -65 196q-66 66 -191 66q-148 0 -240 -90t-126 -288q-15 -90 -15 -134z" />
<glyph unicode="e" horiz-adv-x="1177" d="M100 416q0 58 13 133q45 261 197 402q154 143 384 143q198 0 307 -107t109 -285q0 -63 -10 -112l-17 -101q-6 -38 -47 -38h-729q-2 -20 -2 -37q0 -126 82 -198q84 -73 227 -73q140 0 279 64q13 7 23 7q21 0 26 -30l16 -84q6 -25 -32 -47q-162 -78 -336 -78 q-229 0 -360 116q-130 115 -130 325zM330 602h575l2 10q8 43 8 86q0 108 -58 167q-59 61 -173 61q-278 0 -354 -324z" />
<glyph unicode="f" horiz-adv-x="733" d="M127 924l16 96q6 41 45 41h127l17 92q53 303 344 303q119 0 164 -22q25 -8 20 -37l-16 -88q-6 -43 -39 -35q-49 10 -105 10q-72 0 -109 -34q-38 -35 -50 -109l-15 -80h228q38 0 30 -41l-16 -96q-6 -39 -45 -39h-227l-152 -848q-6 -37 -43 -37h-131q-41 0 -35 37l150 848 h-127q-39 0 -31 39z" />
<glyph unicode="g" horiz-adv-x="1228" d="M82 -145l49 96q15 28 36 28q8 0 17 -4q128 -51 291 -51q144 0 234 66q89 65 110 186l19 105q-113 -175 -340 -175q-174 0 -281 92q-106 91 -106 273q0 57 12 125q45 249 177 374q131 124 327 124q113 0 204 -48q92 -48 119 -124l23 112q11 35 45 35h125q39 0 33 -39 l-152 -864q-34 -200 -177 -308t-372 -108q-253 0 -377 62q-28 18 -16 43zM326 489q0 -221 227 -221q131 0 220 87q90 88 118 253q10 54 10 94q0 224 -233 224q-275 0 -332 -330q-10 -49 -10 -107z" />
<glyph unicode="h" horiz-adv-x="1247" d="M82 39l240 1364q7 37 45 37h135q41 0 35 -37l-86 -490q118 181 368 181q164 0 249 -79t85 -224q0 -49 -8 -99l-117 -653q-6 -39 -43 -39h-135q-40 0 -33 39l111 627q6 37 6 69q0 170 -199 170q-136 0 -225 -79q-91 -80 -113 -201l-102 -588q-7 -37 -45 -37h-135 q-41 0 -33 39z" />
<glyph unicode="i" horiz-adv-x="520" d="M78 39l174 991q8 39 45 39h135q39 0 33 -39l-176 -991q-6 -39 -43 -39h-135q-41 0 -33 39zM289 1239l28 156q6 39 43 39h138q38 0 32 -39l-28 -156q-6 -41 -43 -41h-137q-39 0 -33 41z" />
<glyph unicode="j" horiz-adv-x="546" d="M-152 -182l19 102q4 37 41 31q61 -8 82 -8q101 0 123 133l168 954q6 39 43 39h137q37 0 31 -39l-173 -975q-27 -156 -94 -223q-68 -68 -202 -68q-101 0 -150 15q-31 8 -25 39zM315 1239l29 156q6 39 45 39h137q39 0 33 -39l-29 -156q-6 -41 -45 -41h-137q-39 0 -33 41z " />
<glyph unicode="k" horiz-adv-x="1067" d="M82 39l240 1364q7 37 45 37h135q41 0 35 -37l-123 -678l436 322q26 22 57 22h193q20 0 23 -16q3 -17 -17 -33l-571 -424l421 -549q10 -15 3 -31t-27 -16h-164q-34 0 -55 29l-342 452l-76 -442q-7 -39 -45 -39h-133q-43 0 -35 39z" />
<glyph unicode="l" horiz-adv-x="518" d="M76 39l241 1364q7 37 43 37h138q38 0 32 -37l-241 -1364q-7 -39 -43 -39h-135q-41 0 -35 39z" />
<glyph unicode="m" horiz-adv-x="1863" d="M74 39l176 991q6 39 45 39h129q39 0 33 -35l-17 -123q118 183 346 183q260 0 295 -191q135 191 385 191q149 0 229 -77q79 -76 79 -214q0 -41 -11 -101l-118 -663q-6 -39 -41 -39h-134q-42 0 -36 39l114 637q6 40 6 74q0 155 -172 155q-119 0 -202 -71q-84 -72 -105 -181 l-108 -614q-7 -39 -45 -39h-134q-40 0 -34 39l114 639q6 39 6 74q0 153 -169 153q-122 0 -207 -74q-84 -74 -105 -194l-106 -598q-7 -39 -45 -39h-133q-41 0 -35 39z" />
<glyph unicode="n" horiz-adv-x="1230" d="M72 39l176 991q6 39 43 39h127q40 0 35 -35l-17 -123q130 183 371 183q162 0 246 -78t84 -221q0 -45 -9 -101l-116 -655q-6 -39 -43 -39h-135q-41 0 -35 39l112 629q7 44 7 69q0 168 -197 168q-133 0 -222 -77q-90 -78 -112 -201l-104 -588q-6 -39 -43 -39h-136 q-38 0 -32 39z" />
<glyph unicode="o" horiz-adv-x="1232" d="M96 401q0 56 13 136q50 270 204 413q156 144 396 144q207 0 328 -110q120 -109 120 -314q0 -62 -12 -135q-47 -270 -203 -413q-155 -142 -395 -142q-209 0 -330 108t-121 313zM315 414q0 -258 246 -258q144 0 239 95t128 286q12 67 12 120q0 129 -63 195t-183 66 q-143 0 -239 -96q-94 -94 -127 -285q-13 -73 -13 -123z" />
<glyph unicode="p" horiz-adv-x="1290" d="M35 -186l215 1216q6 39 45 39h125q40 0 35 -35l-21 -131q62 91 162 140q104 51 221 51q186 0 292 -104q105 -104 105 -304q0 -67 -12 -151q-47 -277 -186 -416t-357 -139q-130 0 -226 46q-97 46 -124 138l-61 -350q-6 -39 -47 -39h-133q-39 0 -33 39zM362 418 q0 -130 66 -196t188 -66q152 0 242 91q91 92 125 290q14 80 14 133q0 245 -245 245q-148 0 -248 -95q-98 -93 -131 -283q-11 -55 -11 -119z" />
<glyph unicode="q" horiz-adv-x="1290" d="M96 385q0 74 15 152q50 277 189 416q141 141 357 141q125 0 224 -51q97 -50 127 -140l26 131q6 35 43 35h127q41 0 35 -39l-215 -1216q-6 -39 -47 -39h-133q-40 0 -33 39l59 346q-114 -180 -370 -180q-189 0 -296 103q-108 103 -108 302zM313 403q0 -247 248 -247 q149 0 248 96q98 95 131 285q10 50 10 116q0 131 -65 196q-66 66 -191 66q-148 0 -240 -90t-126 -288q-15 -90 -15 -134z" />
<glyph unicode="r" horiz-adv-x="792" d="M74 39l176 991q6 39 45 39h129q34 0 33 -37l-29 -182q50 85 151 155t226 70q33 0 26 -33l-26 -155q-6 -31 -37 -31l-24 2q-24 2 -33 2q-118 0 -217 -105t-123 -245l-84 -471q-6 -39 -43 -39h-135q-41 0 -35 39z" />
<glyph unicode="s" horiz-adv-x="958" d="M8 78l47 94q15 37 49 25q124 -50 265 -50q264 0 264 158q0 57 -51 92q-50 34 -166 78q-66 24 -103 42q-44 21 -86 52q-44 32 -67 80t-23 107q0 172 119 255t311 83q211 0 334 -60q31 -16 17 -43l-46 -88q-17 -35 -47 -24q-111 45 -243 45q-232 0 -232 -144q0 -63 94 -112 q34 -18 119 -54q140 -62 208 -125q71 -66 71 -172q0 -179 -127 -258t-332 -79q-219 0 -354 57q-33 12 -21 41z" />
<glyph unicode="t" horiz-adv-x="753" d="M109 924l16 96q6 41 45 41h135l45 254q7 37 45 37h125q41 0 35 -37l-45 -254h250q41 0 33 -41l-17 -96q-6 -39 -47 -39h-250l-96 -543q-8 -43 -8 -78q0 -55 31 -78q29 -22 104 -22q6 0 92 12q18 2 26 -6q7 -7 5 -27v-96q0 -26 -35 -37q-63 -24 -149 -24q-149 0 -218 54 t-69 175q0 60 10 109l98 561h-131q-37 0 -30 39z" />
<glyph unicode="u" horiz-adv-x="1214" d="M109 272q0 49 8 99l116 659q6 39 46 39h135q36 0 30 -39l-110 -627q-6 -39 -6 -71q0 -168 188 -168q124 0 216 74t114 200l104 592q6 39 47 39h133q38 0 31 -39l-174 -991q-7 -39 -43 -39h-129q-40 0 -35 35l19 123q-121 -178 -357 -178q-164 0 -248 75q-85 76 -85 217z " />
<glyph unicode="v" horiz-adv-x="1069" d="M150 1026q-1 5 -1 10q0 33 37 33h136q32 0 36 -37l86 -500l39 -315h6l150 315l258 500q21 37 51 37h148q20 0 25 -12q5 -14 -5 -31l-532 -993q-21 -33 -52 -33h-159q-37 0 -43 33z" />
<glyph unicode="w" horiz-adv-x="1712" d="M164 1026v7q0 36 37 36h135q37 0 37 -37l69 -604l11 -211h4l94 211l297 606q18 35 49 35h121q32 0 37 -35l86 -606l18 -211h4l86 211l279 604q21 37 51 37h145q21 0 27 -12q7 -13 -4 -31l-475 -989q-16 -37 -51 -37h-152q-39 0 -45 37l-80 555l-24 223h-7l-100 -223 l-274 -555q-18 -37 -56 -37h-149q-37 0 -43 37z" />
<glyph unicode="x" horiz-adv-x="1062" d="M-34 14q-3 15 11 31l453 498l-270 479q-8 19 -1 33t25 14h146q32 0 49 -31l188 -348l312 348q22 31 57 31h147q19 0 23 -14q5 -15 -10 -33l-439 -479l277 -498q8 -17 1 -31t-26 -14h-147q-32 0 -49 29l-191 366l-325 -366q-21 -29 -56 -29h-151q-21 0 -24 14z" />
<glyph unicode="y" horiz-adv-x="1060" d="M10 -174l39 98q12 31 43 29q80 -14 109 -14q86 0 125 46q27 32 27 77q0 19 -5 40l-198 924q-1 6 -1 10q0 33 35 33h140q32 0 36 -37l99 -512l43 -309h4l143 309l244 512q21 37 51 37h146q20 0 26 -12q6 -13 -4 -31l-491 -948q-84 -176 -170 -245q-85 -69 -246 -69 q-111 0 -168 23q-35 11 -27 39z" />
<glyph unicode="z" horiz-adv-x="1024" d="M20 39l17 82q5 27 24 49l668 717h-506q-39 0 -33 39l19 104q6 39 45 39h733q41 0 33 -39l-14 -82q-2 -24 -29 -55l-662 -711h514q41 0 35 -39l-20 -104q-6 -39 -43 -39h-746q-41 0 -35 39z" />
<glyph unicode="{" horiz-adv-x="755" d="M92 555l19 107q6 36 43 36h34q70 0 114 81q46 85 75 259q44 232 117 317t245 85h78q43 0 37 -37l-16 -88q-6 -39 -50 -39h-38q-84 0 -120 -58t-63 -210q-62 -354 -231 -400q108 -38 108 -219q0 -75 -18 -180q-18 -111 -18 -152q0 -64 24 -91t84 -27h39q41 0 33 -39 l-15 -86q-6 -39 -49 -39h-78q-130 0 -186 48q-55 48 -55 165q0 69 20 190q21 111 21 193q0 147 -88 147h-37q-36 0 -29 37z" />
<glyph unicode="|" horiz-adv-x="589" d="M199 -186v1626q0 39 41 39h112q39 0 39 -39v-1626q0 -39 -39 -39h-112q-41 0 -41 39z" />
<glyph unicode="}" horiz-adv-x="755" d="M-49 -186l16 86q6 39 47 39h39q87 0 121 58q36 61 64 212q62 350 233 399q-111 30 -111 217q0 71 19 183q18 111 18 151q0 62 -24 89q-25 28 -84 28h-39q-41 0 -35 39l16 88q7 37 48 37h79q131 0 187 -47q55 -46 55 -164q0 -88 -20 -191q-21 -111 -21 -192 q0 -148 88 -148h35q34 0 33 -36l-21 -107q-6 -37 -45 -37h-35q-68 0 -111 -82q-46 -87 -75 -260q-40 -230 -116 -316q-75 -85 -246 -85h-80q-41 0 -35 39z" />
<glyph unicode="~" horiz-adv-x="1210" d="M178 676q30 101 98 162q66 59 156 59q88 0 195 -49l90 -43q77 -37 131 -37q65 0 110 61q14 20 25 41q21 39 59 15l64 -35q31 -18 20 -64q-32 -98 -100 -156q-68 -59 -156 -59q-85 0 -194 50l-90 43q-75 36 -129 36q-65 0 -115 -63l-23 -39q-18 -39 -59 -16l-65 36 q-28 18 -17 58z" />
<glyph unicode="&#xa1;" horiz-adv-x="604" d="M53 -207l185 815q6 39 45 39h100q39 0 33 -39l-105 -815q-6 -41 -47 -41h-178q-39 0 -33 41zM246 852l30 178q10 39 46 39h170q38 0 32 -39l-32 -178q-6 -39 -46 -39h-167q-39 0 -33 39z" />
<glyph unicode="&#xa2;" horiz-adv-x="1075" d="M100 412q0 67 11 125q43 246 190 388t371 165l24 145q8 39 43 39h76q43 0 35 -39l-25 -145q141 -11 232 -66q28 -21 12 -47l-57 -92q-21 -39 -54 -23q-86 47 -217 47q-165 0 -272 -94q-108 -95 -141 -280q-11 -52 -11 -105q0 -268 291 -268q140 0 246 51q39 16 49 -20 l23 -93q7 -28 -31 -49q-104 -57 -266 -67l-25 -150q-8 -39 -47 -39h-76q-37 0 -30 39l24 150q-168 15 -271 127q-104 113 -104 301z" />
<glyph unicode="&#xa3;" horiz-adv-x="1378" d="M41 98q-12 28 18 45q149 69 247 168q97 98 97 219q0 64 -26 123h-211q-35 0 -29 35l13 70q6 33 38 33h152q-49 117 -49 188q0 157 90 270q91 114 221 163q132 50 281 50q225 0 340 -89q114 -89 114 -255q0 -123 -45 -123h-139q-27 0 -27 25q0 13 8 45q7 28 7 47 q0 72 -65 117q-64 45 -199 45q-155 0 -262 -79t-107 -212q0 -49 47 -192h412q36 0 30 -33l-12 -70q-8 -35 -41 -35h-360q20 -57 20 -121q0 -110 -69 -201t-183 -143q84 23 180 23q72 0 181 -20q104 -19 174 -19q100 0 145 45q46 46 62 135q6 39 49 39h98q45 0 37 -51 q-33 -180 -108 -267t-242 -87q-106 0 -236 26q-135 27 -225 27q-187 0 -322 -53q-45 -15 -51 4z" />
<glyph unicode="&#xa4;" horiz-adv-x="1296" d="M178 156q-29 23 0 47l105 104q-88 106 -88 273q0 164 88 270l-105 106q-28 25 0 50l45 45q24 24 47 0l111 -111q107 72 266 72t266 -74l113 113q23 23 47 0l47 -45q23 -27 0 -50l-112 -108q90 -106 90 -268q0 -167 -90 -269l112 -108q23 -23 0 -47l-47 -45q-23 -24 -47 0 l-113 112q-101 -73 -266 -73t-266 73l-111 -112q-23 -24 -47 0zM358 580q0 -129 77 -203t212 -74t212 74t77 203q0 131 -77 203q-78 73 -212 73t-212 -73q-77 -72 -77 -203z" />
<glyph unicode="&#xa5;" horiz-adv-x="1327" d="M127 381l10 68q6 32 39 32h377l6 47l-51 123h-303q-33 0 -25 33l10 68q6 32 39 32h236l-248 607q-6 20 3 34q9 15 32 15h154q34 0 49 -37l254 -672h4l491 672q22 37 60 37h151q25 0 30 -16t-9 -33l-463 -607h235q35 0 29 -32l-10 -68q-7 -33 -41 -33h-303l-97 -123 l-6 -47h375q35 0 29 -32l-10 -68q-8 -33 -41 -33h-377l-56 -307q-6 -41 -47 -41h-143q-43 0 -37 41l55 307h-376q-32 0 -25 33z" />
<glyph unicode="&#xa6;" horiz-adv-x="589" d="M199 -186v602q0 39 41 39h112q39 0 39 -39v-602q0 -39 -39 -39h-112q-41 0 -41 39zM199 838v602q0 39 41 39h112q39 0 39 -39v-602q0 -39 -39 -39h-112q-41 0 -41 39z" />
<glyph unicode="&#xa7;" horiz-adv-x="1435" d="M143 -150l23 93q12 38 55 26q235 -30 322 -30q360 0 360 151q0 30 -18 56q-18 25 -60 50q-28 17 -71 36q-30 14 -90 36q-22 8 -48 18.5t-32 12.5q-200 84 -286 147q-85 63 -85 166q0 119 90 197q88 77 225 104q-153 99 -153 220q0 327 528 327q207 0 377 -47 q34 -12 27 -49l-25 -92q-12 -39 -55 -27q-155 37 -320 37q-43 0 -95 -5q-42 -4 -101 -20q-56 -15 -89 -47q-34 -33 -34 -82q0 -52 62 -89q59 -35 227 -103l20 -8q182 -73 275 -148q96 -78 96 -182q0 -114 -89 -177q-88 -63 -235 -102q80 -41 128 -102t48 -131 q0 -94 -53 -162q-52 -67 -144 -100q-86 -31 -183 -47q-91 -15 -191 -15q-280 0 -379 37q-34 12 -27 51zM424 633q0 -57 62 -94q60 -36 227 -97q65 -23 78 -28q52 6 104 21q56 16 109 52q55 37 55 86q0 70 -91 122q-92 53 -286 120q-61 -5 -109 -20q-53 -17 -101 -60 t-48 -102z" />
<glyph unicode="&#xa8;" horiz-adv-x="706" d="M197 1243l24 146q7 38 47 38h125q37 0 31 -38l-25 -146q-7 -37 -45 -37h-125q-38 0 -32 37zM582 1243l24 146q7 38 47 38h125q37 0 31 -38l-25 -146q-7 -37 -45 -37h-125q-38 0 -32 37z" />
<glyph unicode="&#xa9;" horiz-adv-x="1763" d="M111 721q0 314 204 527q205 214 566 214q360 0 565 -214t205 -527t-205 -527t-565 -214q-361 0 -566 214q-204 213 -204 527zM240 721q0 -266 168 -443q169 -178 473 -178q303 0 473 178t170 441q0 265 -170 444q-169 178 -473 178q-305 0 -473 -177t-168 -443zM473 727 q0 209 120 319q119 109 316 109q161 0 254 -59q24 -15 17 -37l-35 -84q-11 -31 -37 -17q-74 41 -176 41q-126 0 -200 -70q-75 -71 -75 -202q0 -130 75 -202t196 -72q102 0 186 41q26 15 39 -17l33 -82q6 -20 -17 -35q-110 -61 -262 -61q-191 0 -313 110q-121 109 -121 318z " />
<glyph unicode="&#xaa;" horiz-adv-x="952" d="M186 1202q0 253 340 305q101 13 320 19l10 53q17 86 -23 123t-151 37q-127 0 -272 -56q-42 -17 -48 21l-14 82q-4 24 29 39q171 67 323 67q342 0 342 -245q0 -33 -6 -74l-92 -533q-11 -41 -51 -41h-90q-39 0 -35 39l12 76q-106 -127 -319 -127q-121 0 -199 61 q-76 60 -76 154zM367 1219q0 -97 145 -97q128 0 208 59q78 57 93 148l12 70h-16q-60 0 -80 -1q-73 -4 -91 -5q-62 -5 -100 -16q-47 -14 -83 -30q-43 -19 -66 -53q-22 -32 -22 -75z" />
<glyph unicode="&#xab;" horiz-adv-x="927" d="M88 565q5 16 10 21l217 278q24 29 56 29h116q21 0 25 -12q5 -13 -10 -29l-228 -287l127 -284q8 -17 -1 -29t-29 -12h-115q-31 0 -43 28l-123 281q-2 8 -2 16zM469 565l10 21l219 278q23 29 54 29h116q43 0 13 -41l-226 -285l125 -286q8 -18 1 -29q-7 -12 -27 -12h-117 q-31 0 -43 28l-123 281q-2 8 -2 16z" />
<glyph unicode="&#xac;" horiz-adv-x="1234" d="M147 657l19 107q6 39 45 39h883q40 0 32 -39l-79 -455q-6 -39 -46 -39h-131q-38 0 -30 39l53 312h-713q-39 0 -33 36z" />
<glyph unicode="&#xad;" horiz-adv-x="806" d="M88 492l18 102q6 37 44 37h563q39 0 32 -37l-16 -102q-7 -37 -47 -37h-563q-37 0 -31 37z" />
<glyph unicode="&#xae;" horiz-adv-x="952" d="M121 1102q0 154 90 257t266 103q175 0 264 -102q88 -101 88 -258q0 -156 -88 -259q-89 -104 -264 -104q-176 0 -266 104q-90 103 -90 259zM193 1102q0 -132 69 -214q69 -83 215 -83q145 0 214 83q69 82 69 214t-69 214q-69 83 -214 83q-146 0 -215 -83q-69 -82 -69 -214z M330 922v368q0 19 18 19h146q81 0 128 -35q46 -34 46 -103q0 -102 -99 -120l95 -127q4 -6 1 -13q-3 -6 -12 -6h-61q-12 0 -23 13l-88 120h-63v-116q0 -17 -19 -17h-51q-18 0 -18 17zM418 1108h61q58 0 80 13q23 14 23 50q0 66 -97 66h-67v-129z" />
<glyph unicode="&#xaf;" horiz-adv-x="706" d="M158 1253l8 62q10 37 45 37h594q38 0 31 -37l-9 -62q-7 -36 -45 -36h-596q-35 0 -28 36z" />
<glyph unicode="&#xb0;" horiz-adv-x="759" d="M201 1124q0 137 100 236q99 98 246 98q116 0 188 -66t72 -171q0 -142 -98 -239t-246 -97q-119 0 -190 67q-72 68 -72 172zM332 1141q0 -61 40 -98t107 -37q83 0 139 56q58 58 58 140q0 60 -40 97q-41 38 -106 38q-82 0 -140 -55t-58 -141z" />
<glyph unicode="&#xb1;" d="M43 37l12 74q7 39 45 39h899q41 0 35 -39l-14 -74q-6 -37 -43 -37h-901q-43 0 -33 37zM162 713l18 102q6 37 45 37h353l59 340q7 39 47 39h119q35 0 28 -39l-59 -340h352q41 0 35 -37l-18 -102q-8 -35 -45 -35h-355l-61 -348q-6 -35 -41 -35h-121q-39 0 -33 35l62 348 h-352q-39 0 -33 35z" />
<glyph unicode="&#xb2;" horiz-adv-x="874" d="M201 1040l12 64q4 22 35 39q2 1 11 6.5t25 14.5t33 19q71 41 86 50q10 6 39 24.5t47 29.5q59 37 91 64q50 42 75 65q46 41 69 73q21 29 41 74q17 38 17 79q0 99 -137 99q-83 0 -133 -44q-49 -43 -49 -122q0 -47 -43 -47h-86q-37 0 -37 35q0 151 96 240q97 89 269 89 q154 0 227 -67q74 -68 74 -170q0 -67 -35 -135q-34 -67 -80 -116q-45 -48 -122 -104q-62 -45 -122 -81q-50 -30 -119 -68h369q46 0 35 -41l-10 -70q-11 -41 -50 -41h-593q-43 0 -35 41z" />
<glyph unicode="&#xb3;" horiz-adv-x="874" d="M145 1092l39 69q21 41 58 25q109 -47 215 -47q85 0 147 38t62 111q0 90 -148 90h-100q-43 0 -35 41l10 60q6 43 47 43h103q73 0 123 33q53 35 53 98q0 90 -164 90q-90 0 -213 -43q-43 -15 -49 20l-17 70q-6 28 33 45q118 57 277 57q143 0 227 -56q86 -57 86 -155 q0 -74 -44 -135q-42 -58 -116 -92q109 -53 109 -160q0 -154 -113 -231q-112 -76 -268 -76q-193 0 -301 60q-36 19 -21 45z" />
<glyph unicode="&#xb4;" horiz-adv-x="706" d="M329 1217q-4 10 5 24l135 178q21 29 53 29h174q13 0 19 -7t3 -18t-13 -18l-218 -176q-25 -23 -57 -23h-78q-18 0 -23 11z" />
<glyph unicode="&#xb5;" horiz-adv-x="1222" d="M35 -186l215 1216q6 39 45 39h135q39 0 33 -39l-107 -596q-21 -124 43 -198q63 -74 189 -74q123 0 185 61q62 60 83 178l111 629q6 39 45 39h135q39 0 33 -39l-117 -665q-33 -192 -136 -290q-105 -100 -292 -100q-136 0 -221 54q-81 52 -109 127l-57 -344q-7 -37 -47 -37 h-133q-39 0 -33 39z" />
<glyph unicode="&#xb6;" horiz-adv-x="1095" d="M180 928q0 229 165 370q166 142 413 142h446q41 0 35 -37l-12 -62q-7 -36 -45 -36h-80q-62 0 -89 -24q-28 -25 -40 -87l-209 -1182q-22 -125 -80 -186q-56 -59 -172 -59q-97 0 -147 22q-23 8 -17 35l14 63q6 27 41 27q69 -10 80 -10q97 0 119 127l90 514h-47 q-201 0 -333 105t-132 278z" />
<glyph unicode="&#xb7;" horiz-adv-x="485" d="M121 457l31 174q8 39 47 39h153q41 0 35 -39l-33 -174q-6 -39 -41 -39h-159q-40 0 -33 39z" />
<glyph unicode="&#xb8;" horiz-adv-x="706" d="M145 -287l9 60q4 22 28 22h60q116 0 116 80q0 75 -155 141h90q81 -15 138 -61q56 -46 56 -111q0 -87 -64 -127q-65 -41 -161 -41q-75 0 -100 9q-23 8 -17 28z" />
<glyph unicode="&#xb9;" horiz-adv-x="874" d="M362 1651q-15 28 21 51l262 162q23 16 55 16h86q46 0 35 -41l-139 -799q-6 -41 -49 -41h-90q-41 0 -35 41l110 631l-167 -92q-39 -21 -58 10z" />
<glyph unicode="&#xba;" horiz-adv-x="995" d="M229 1333q0 38 11 107q39 225 166 338q128 114 327 114q175 0 275 -87t100 -253q0 -48 -10 -112q-39 -222 -164 -337q-124 -114 -326 -114q-178 0 -278 88q-101 89 -101 256zM422 1350q0 -203 196 -203q238 0 289 293q11 60 11 94q0 201 -197 201q-113 0 -190 -74 t-101 -221q-8 -46 -8 -90z" />
<glyph unicode="&#xbb;" horiz-adv-x="927" d="M70 252q-5 13 10 29l225 284l-125 287q-17 41 29 41h117q30 0 41 -29l122 -278q2 -13 0 -21q0 -10 -6 -16l-221 -281q-22 -28 -51 -28h-117q-20 0 -24 12zM451 252q-5 13 10 29l225 284l-125 287q-17 41 29 41h115q32 0 43 -29l122 -278q6 -11 2 -21q0 -8 -8 -16 l-221 -281q-22 -28 -53 -28h-115q-20 0 -24 12z" />
<glyph unicode="&#xbc;" horiz-adv-x="2056" d="M285 1210q-15 29 20 52l262 161q25 17 56 17h86q45 0 34 -41l-139 -799q-6 -41 -49 -41h-90q-41 0 -35 41l111 631l-168 -92q-39 -21 -58 10zM461 39l1081 1368q27 33 60 33h110q45 0 17 -37l-1084 -1368q-29 -35 -59 -35h-111q-47 0 -14 39zM1184 225l12 70q4 24 23 39 l534 522q30 25 49 25h92q43 0 37 -41l-88 -502h94q45 0 33 -41l-10 -70q-6 -41 -49 -41h-94l-27 -145q-6 -41 -47 -41h-90q-46 0 -35 41l24 145h-423q-41 0 -35 39zM1386 338h283l60 334z" />
<glyph unicode="&#xbd;" horiz-adv-x="2056" d="M285 1210q-15 29 20 52l262 161q25 17 56 17h86q45 0 34 -41l-139 -799q-6 -41 -49 -41h-90q-41 0 -35 41l111 631l-168 -92q-39 -21 -58 10zM383 39l1081 1368q27 33 60 33h110q44 0 17 -37l-1084 -1368q-29 -35 -59 -35h-111q-47 0 -14 39zM1208 41q-8 -41 35 -41h594 q38 0 49 41l10 70q11 41 -34 41h-369q90 49 119 67q52 31 122 82q76 55 121 103q46 49 80 116q35 68 35 135q0 102 -74 170t-227 68q-171 0 -268 -89q-96 -88 -96 -241q0 -35 36 -35h86q43 0 43 47q0 78 50 122t133 44q137 0 137 -98q0 -42 -17 -80q-20 -45 -41 -74t-69 -72 q-28 -25 -76 -66q-30 -25 -90 -63q-21 -13 -49.5 -31.5t-36.5 -23.5q-15 -9 -86 -50l-70 -40q-29 -16 -34 -39z" />
<glyph unicode="&#xbe;" horiz-adv-x="2056" d="M68 651l38 70q21 40 58 24q109 -47 215 -47q85 0 147 38t62 112q0 90 -148 90h-100q-43 0 -35 41l10 59q6 43 47 43h103q71 0 123 34q53 35 53 97q0 91 -164 91q-90 0 -213 -43q-43 -15 -49 20l-16 70q-6 29 32 45q119 57 277 57q143 0 227 -56q86 -57 86 -155 q0 -74 -44 -135q-43 -59 -115 -92q108 -52 108 -160q0 -154 -113 -231q-112 -76 -268 -76q-195 0 -301 59q-35 18 -20 45zM496 39l1081 1368q27 33 59 33h111q43 0 16 -37l-1083 -1368q-29 -35 -59 -35h-111q-47 0 -14 39zM1184 225l12 70q4 24 23 39l534 522q30 25 49 25 h92q43 0 37 -41l-88 -502h94q45 0 33 -41l-10 -70q-6 -41 -49 -41h-94l-27 -145q-6 -41 -47 -41h-90q-46 0 -35 41l24 145h-423q-41 0 -35 39zM1386 338h283l60 334z" />
<glyph unicode="&#xbf;" horiz-adv-x="978" d="M10 -4q0 -123 107 -191q106 -67 303 -67q206 0 377 80q37 16 32 45l-20 108q-6 35 -49 19q-160 -62 -293 -62q-124 0 -176 26q-51 26 -51 85q0 70 39 133q41 66 96 111q57 47 114 90q61 47 103 94q46 52 53 100l8 43q6 39 -32 39h-129q-42 0 -48 -39l-6 -43 q-6 -39 -53 -83q-45 -42 -109 -89q-62 -45 -121 -97q-63 -55 -103 -131q-42 -79 -42 -171zM469 852l33 178q6 39 45 39h170q37 0 31 -39l-33 -178q-6 -39 -45 -39h-166q-41 0 -35 39z" />
<glyph unicode="&#xc0;" horiz-adv-x="1384" d="M-26 13q-7 13 1 32l738 1354q23 41 59 41h178q41 0 47 -41l258 -1354q5 -18 -6 -32q-10 -13 -30 -13h-150q-37 0 -43 37l-57 309h-586l-170 -309q-21 -37 -51 -37h-160q-21 0 -28 13zM473 543h469l-111 674h-4zM625 1774q7 16 26 16h170q31 0 43 -31l80 -178 q4 -10 -4 -23q-8 -12 -27 -12h-75q-27 0 -50 25l-159 174q-12 12 -4 29z" />
<glyph unicode="&#xc1;" horiz-adv-x="1384" d="M-26 13q-7 13 1 32l738 1354q23 41 59 41h178q41 0 47 -41l258 -1354q5 -18 -6 -32q-10 -13 -30 -13h-150q-37 0 -43 37l-57 309h-586l-170 -309q-21 -37 -51 -37h-160q-21 0 -28 13zM473 543h469l-111 674h-4zM825 1558q-4 11 6 23l136 178q23 31 55 31h174q13 0 17 -7 q5 -8 2 -19t-11 -19l-217 -174q-25 -25 -59 -25h-80q-18 0 -23 12z" />
<glyph unicode="&#xc2;" horiz-adv-x="1384" d="M-26 13q-7 13 1 32l738 1354q23 41 59 41h178q41 0 47 -41l258 -1354q5 -18 -6 -32q-10 -13 -30 -13h-150q-37 0 -43 37l-57 309h-586l-170 -309q-21 -37 -51 -37h-160q-21 0 -28 13zM473 543h469l-111 674h-4zM584 1560q-2 14 14 25l221 187q23 22 55 22h97q33 0 51 -22 l154 -187q12 -12 5 -25q-8 -14 -26 -14h-84q-19 0 -47 23l-117 104l-153 -104q-38 -23 -58 -23h-90q-20 0 -22 14z" />
<glyph unicode="&#xc3;" horiz-adv-x="1384" d="M-26 13q-7 13 1 32l738 1354q23 41 59 41h178q41 0 47 -41l258 -1354q5 -18 -6 -32q-10 -13 -30 -13h-150q-37 0 -43 37l-57 309h-586l-170 -309q-21 -37 -51 -37h-160q-21 0 -28 13zM473 543h469l-111 674h-4zM543 1591q12 71 57 114q46 44 123 44q57 0 174 -39l61 -24 q81 -29 111 -29q41 0 53 41l6 20q8 29 48 29h51q36 0 28 -53q-12 -71 -57 -114q-46 -44 -123 -44q-53 0 -174 39l-57 20q-80 27 -117 27q-42 0 -53 -31l-6 -18q-8 -31 -45 -31h-56q-34 0 -24 49z" />
<glyph unicode="&#xc4;" horiz-adv-x="1384" d="M-26 13q-7 13 1 32l738 1354q23 41 59 41h178q41 0 47 -41l258 -1354q5 -18 -6 -32q-10 -13 -30 -13h-150q-37 0 -43 37l-57 309h-586l-170 -309q-21 -37 -51 -37h-160q-21 0 -28 13zM473 543h469l-111 674h-4zM584 1585l26 137q6 39 43 39h131q41 0 35 -39l-24 -137 q-7 -39 -47 -39h-132q-38 0 -32 39zM983 1585l25 137q6 39 43 39h131q41 0 35 -39l-25 -137q-8 -39 -47 -39h-131q-38 0 -31 39z" />
<glyph unicode="&#xc5;" horiz-adv-x="1384" d="M-26 13q-7 13 1 32l734 1346q-56 50 -56 125q0 99 72 165t180 66q89 0 145 -49t56 -123q0 -125 -107 -193l256 -1337q5 -18 -6 -32q-10 -13 -30 -13h-150q-37 0 -43 37l-57 309h-586l-170 -309q-21 -37 -51 -37h-160q-21 0 -28 13zM473 543h469l-111 674h-4zM764 1524 q0 -39 28 -62q26 -22 74 -22q54 0 91 33q38 33 38 90q0 41 -26 63q-28 23 -74 23q-55 0 -93 -33t-38 -92z" />
<glyph unicode="&#xc6;" horiz-adv-x="1810" d="M-58 14q-7 15 3 31l932 1354q27 41 63 41h891q41 0 33 -41l-19 -119q-11 -41 -47 -41h-549l-71 -408h524q39 0 33 -43l-21 -106q-6 -43 -47 -43h-524l-76 -438h555q41 0 35 -39l-23 -121q-6 -41 -47 -41h-737q-43 0 -37 41l53 291h-475l-203 -295q-27 -37 -55 -37h-164 q-20 0 -27 14zM508 524h389l129 719h-35z" />
<glyph unicode="&#xc7;" horiz-adv-x="1251" d="M135 526q0 84 19 195q63 362 259 552q195 189 500 189q118 0 219 -25q100 -25 154 -61q37 -22 21 -49l-64 -104q-24 -39 -59 -21q-108 58 -256 58q-450 0 -545 -539q-16 -96 -16 -170q0 -371 383 -371q144 0 280 68q37 16 49 -25l29 -106q8 -23 -37 -47 q-159 -90 -371 -90h-28q96 -62 96 -152q0 -89 -73 -133q-71 -43 -177 -43q-66 0 -86 10q-25 8 -20 29l12 63q2 23 29 23h59q119 0 119 80q0 81 -115 143q-184 43 -283 177q-98 132 -98 349z" />
<glyph unicode="&#xc8;" horiz-adv-x="1144" d="M92 41l240 1358q6 41 47 41h786q43 0 35 -41l-20 -117q-6 -41 -47 -41h-607l-71 -410h581q39 0 33 -43l-20 -106q-6 -43 -48 -43h-581l-78 -440h612q43 0 37 -39l-20 -117q-7 -43 -49 -43h-793q-45 0 -37 41zM623 1774q7 16 26 16h170q31 0 43 -31l80 -178q4 -10 -4 -23 q-7 -12 -27 -12h-75q-28 0 -50 25l-159 174q-12 12 -4 29z" />
<glyph unicode="&#xc9;" horiz-adv-x="1144" d="M92 41l240 1358q6 41 47 41h786q43 0 35 -41l-20 -117q-6 -41 -47 -41h-607l-71 -410h581q39 0 33 -43l-20 -106q-6 -43 -48 -43h-581l-78 -440h612q43 0 37 -39l-20 -117q-7 -43 -49 -43h-793q-45 0 -37 41zM707 1558q-4 11 6 23l135 178q23 31 55 31h174q14 0 18 -7 q5 -8 2 -19q-2 -9 -12 -19l-217 -174q-25 -25 -59 -25h-80q-17 0 -22 12z" />
<glyph unicode="&#xca;" horiz-adv-x="1144" d="M92 41l240 1358q6 41 47 41h786q43 0 35 -41l-20 -117q-6 -41 -47 -41h-607l-71 -410h581q39 0 33 -43l-20 -106q-6 -43 -48 -43h-581l-78 -440h612q43 0 37 -39l-20 -117q-7 -43 -49 -43h-793q-45 0 -37 41zM504 1560q-2 14 14 25l221 187q23 22 56 22h96q33 0 51 -22 l154 -187q12 -12 5 -25q-8 -14 -26 -14h-84q-19 0 -47 23l-117 104l-153 -104q-38 -23 -58 -23h-90q-20 0 -22 14z" />
<glyph unicode="&#xcb;" horiz-adv-x="1144" d="M92 41l240 1358q6 41 47 41h786q43 0 35 -41l-20 -117q-6 -41 -47 -41h-607l-71 -410h581q39 0 33 -43l-20 -106q-6 -43 -48 -43h-581l-78 -440h612q43 0 37 -39l-20 -117q-7 -43 -49 -43h-793q-45 0 -37 41zM502 1585l26 137q6 39 43 39h131q41 0 35 -39l-24 -137 q-7 -39 -47 -39h-131q-39 0 -33 39zM901 1585l25 137q6 39 43 39h131q41 0 35 -39l-25 -137q-8 -39 -47 -39h-131q-39 0 -31 39z" />
<glyph unicode="&#xcc;" horiz-adv-x="587" d="M104 41l240 1358q8 41 47 41h144q42 0 34 -41l-239 -1358q-6 -41 -47 -41h-142q-43 0 -37 41zM244 1774q7 16 26 16h170q31 0 43 -31l80 -178q4 -10 -4 -23q-7 -12 -27 -12h-75q-26 0 -49 25l-160 174q-12 12 -4 29z" />
<glyph unicode="&#xcd;" horiz-adv-x="587" d="M104 41l240 1358q8 41 47 41h144q42 0 34 -41l-239 -1358q-6 -41 -47 -41h-142q-43 0 -37 41zM414 1558q-4 11 6 23l135 178q23 31 55 31h174q14 0 18 -7q5 -8 2 -19t-11 -19l-218 -174q-25 -25 -59 -25h-80q-18 0 -22 12z" />
<glyph unicode="&#xce;" horiz-adv-x="587" d="M104 41l240 1358q8 41 47 41h144q42 0 34 -41l-239 -1358q-6 -41 -47 -41h-142q-43 0 -37 41zM184 1560q-1 13 15 25l221 187q23 22 55 22h96q34 0 52 -22l153 -187q12 -12 5 -25q-8 -14 -25 -14h-84q-19 0 -47 23l-117 104l-154 -104q-38 -23 -57 -23h-90q-21 0 -23 14z " />
<glyph unicode="&#xcf;" horiz-adv-x="587" d="M104 41l240 1358q8 41 47 41h144q42 0 34 -41l-239 -1358q-6 -41 -47 -41h-142q-43 0 -37 41zM184 1585l27 137q6 39 43 39h131q41 0 35 -39l-25 -137q-7 -39 -47 -39h-131q-39 0 -33 39zM584 1585l24 137q6 39 43 39h131q41 0 35 -39l-24 -137q-7 -39 -48 -39h-131 q-38 0 -30 39z" />
<glyph unicode="&#xd0;" horiz-adv-x="1406" d="M72 684l14 76q6 35 39 35h104l107 604q6 41 47 41h354q307 0 466 -120t159 -394q0 -109 -16 -205q-66 -390 -266 -556q-200 -165 -556 -165h-391q-45 0 -37 41l109 610h-105q-34 0 -28 33zM352 205h185q250 0 388 111t191 405q17 108 17 172q0 192 -105 267t-315 75h-181 l-77 -440h284q34 0 29 -35l-14 -76q-6 -33 -39 -33h-285z" />
<glyph unicode="&#xd1;" horiz-adv-x="1454" d="M92 41l240 1358q6 41 49 41h135q40 0 51 -29l484 -1036l178 1024q6 41 47 41h137q39 0 37 -39l-242 -1360q-6 -41 -47 -41h-137q-36 0 -51 31l-481 1034l-181 -1024q-8 -41 -45 -41h-137q-45 0 -37 41zM578 1591q12 71 57 114q46 44 123 44q57 0 174 -39l61 -24 q81 -29 111 -29q41 0 53 41l6 20q8 29 47 29h52q36 0 28 -53q-12 -71 -57 -114q-46 -44 -123 -44q-52 0 -174 39l-57 20q-79 27 -117 27q-42 0 -53 -31l-7 -18q-8 -31 -45 -31h-55q-34 0 -24 49z" />
<glyph unicode="&#xd2;" horiz-adv-x="1468" d="M131 514q0 90 19 207q63 364 252 553q188 188 489 188q255 0 395 -137q139 -136 139 -397q0 -92 -20 -209q-66 -365 -252 -552t-487 -187q-257 0 -396 136t-139 398zM362 532q0 -354 320 -354q398 0 494 543q18 102 18 186q0 357 -322 357q-394 0 -493 -543 q-17 -114 -17 -189zM698 1774q7 16 27 16h170q31 0 43 -31l80 -178q4 -10 -4 -23q-8 -12 -27 -12h-76q-26 0 -49 25l-160 174q-12 12 -4 29z" />
<glyph unicode="&#xd3;" horiz-adv-x="1468" d="M131 514q0 90 19 207q63 364 252 553q188 188 489 188q255 0 395 -137q139 -136 139 -397q0 -92 -20 -209q-66 -365 -252 -552t-487 -187q-257 0 -396 136t-139 398zM362 532q0 -354 320 -354q398 0 494 543q18 102 18 186q0 357 -322 357q-394 0 -493 -543 q-17 -114 -17 -189zM852 1558q-4 11 6 23l135 178q23 31 56 31h174q13 0 17 -7q5 -8 2 -19t-11 -19l-217 -174q-25 -25 -60 -25h-80q-18 0 -22 12z" />
<glyph unicode="&#xd4;" horiz-adv-x="1468" d="M131 514q0 90 19 207q63 364 252 553q188 188 489 188q255 0 395 -137q139 -136 139 -397q0 -92 -20 -209q-66 -365 -252 -552t-487 -187q-257 0 -396 136t-139 398zM362 532q0 -354 320 -354q398 0 494 543q18 102 18 186q0 357 -322 357q-394 0 -493 -543 q-17 -114 -17 -189zM627 1560q-2 14 14 25l221 187q23 22 56 22h96q33 0 51 -22l154 -187q12 -12 5 -25q-8 -14 -26 -14h-84q-19 0 -47 23l-117 104l-153 -104q-38 -23 -58 -23h-90q-20 0 -22 14z" />
<glyph unicode="&#xd5;" horiz-adv-x="1468" d="M131 514q0 90 19 207q63 364 252 553q188 188 489 188q255 0 395 -137q139 -136 139 -397q0 -92 -20 -209q-66 -365 -252 -552t-487 -187q-257 0 -396 136t-139 398zM362 532q0 -354 320 -354q398 0 494 543q18 102 18 186q0 357 -322 357q-394 0 -493 -543 q-17 -114 -17 -189zM586 1591q12 71 57 114q46 44 123 44q57 0 174 -39l61 -24q79 -29 111 -29q41 0 53 41l6 20q8 29 48 29h51q36 0 28 -53q-12 -71 -57 -114q-46 -44 -123 -44q-52 0 -174 39l-57 20q-79 27 -117 27q-42 0 -53 -31l-6 -18q-8 -31 -45 -31h-56q-34 0 -24 49 z" />
<glyph unicode="&#xd6;" horiz-adv-x="1468" d="M131 514q0 90 19 207q63 364 252 553q188 188 489 188q255 0 395 -137q139 -136 139 -397q0 -92 -20 -209q-66 -365 -252 -552t-487 -187q-257 0 -396 136t-139 398zM362 532q0 -354 320 -354q398 0 494 543q18 102 18 186q0 357 -322 357q-394 0 -493 -543 q-17 -114 -17 -189zM627 1585l26 137q6 39 43 39h131q41 0 35 -39l-24 -137q-8 -39 -47 -39h-132q-38 0 -32 39zM1026 1585l25 137q6 39 43 39h131q41 0 35 -39l-25 -137q-7 -39 -47 -39h-131q-39 0 -31 39z" />
<glyph unicode="&#xd7;" d="M156 348q-23 29 8 53l356 301l-252 302q-17 26 11 53l92 76q33 28 55 0l246 -302l354 302q30 24 53 0l64 -76q22 -24 -13 -53l-352 -302l246 -301q23 -29 -8 -53l-90 -78q-29 -27 -52 2l-247 299l-355 -301q-34 -28 -55 0z" />
<glyph unicode="&#xd8;" horiz-adv-x="1472" d="M35 66q-23 22 4 49l141 133q-49 110 -49 266q0 90 19 207q63 364 252 553q188 188 489 188q272 0 407 -151l115 106q28 32 55 8l50 -49q25 -25 -2 -53l-140 -133q49 -110 49 -262q0 -92 -20 -209q-66 -365 -252 -552t-487 -187q-274 0 -410 149l-119 -111q-27 -27 -51 -6 zM362 532q0 -56 9 -108l764 723q-82 117 -263 117q-394 0 -493 -543q-17 -114 -17 -189zM422 293q79 -115 260 -115q398 0 494 543q18 102 18 186q0 61 -8 107z" />
<glyph unicode="&#xd9;" horiz-adv-x="1423" d="M152 385q0 61 12 129l155 885q8 41 50 41h141q43 0 35 -41l-152 -867q-10 -59 -10 -104q0 -248 276 -248q331 0 392 352l153 867q6 41 47 41h142q40 0 34 -41l-155 -885q-95 -539 -627 -539q-240 0 -367 106q-126 105 -126 304zM696 1774q7 16 27 16h170q31 0 43 -31 l80 -178q4 -10 -4 -23q-8 -12 -27 -12h-76q-27 0 -49 25l-160 174q-12 12 -4 29z" />
<glyph unicode="&#xda;" horiz-adv-x="1423" d="M152 385q0 61 12 129l155 885q8 41 50 41h141q43 0 35 -41l-152 -867q-10 -59 -10 -104q0 -248 276 -248q331 0 392 352l153 867q6 41 47 41h142q40 0 34 -41l-155 -885q-95 -539 -627 -539q-240 0 -367 106q-126 105 -126 304zM793 1558q-4 11 6 23l135 178q23 31 55 31 h174q14 0 18 -7q5 -8 2 -19q-2 -9 -12 -19l-217 -174q-25 -25 -59 -25h-80q-17 0 -22 12z" />
<glyph unicode="&#xdb;" horiz-adv-x="1423" d="M152 385q0 61 12 129l155 885q8 41 50 41h141q43 0 35 -41l-152 -867q-10 -59 -10 -104q0 -248 276 -248q331 0 392 352l153 867q6 41 47 41h142q40 0 34 -41l-155 -885q-95 -539 -627 -539q-240 0 -367 106q-126 105 -126 304zM604 1560q-2 14 14 25l222 187 q23 22 55 22h96q33 0 51 -22l154 -187q12 -12 5 -25q-8 -14 -25 -14h-84q-20 0 -48 23l-116 104l-154 -104q-38 -23 -57 -23h-90q-21 0 -23 14z" />
<glyph unicode="&#xdc;" horiz-adv-x="1423" d="M152 385q0 61 12 129l155 885q8 41 50 41h141q43 0 35 -41l-152 -867q-10 -59 -10 -104q0 -248 276 -248q331 0 392 352l153 867q6 41 47 41h142q40 0 34 -41l-155 -885q-95 -539 -627 -539q-240 0 -367 106q-126 105 -126 304zM604 1585l27 137q6 39 43 39h131 q41 0 35 -39l-25 -137q-7 -39 -47 -39h-131q-39 0 -33 39zM1004 1585l24 137q6 39 43 39h131q41 0 35 -39l-25 -137q-8 -39 -47 -39h-131q-38 0 -30 39z" />
<glyph unicode="&#xdd;" horiz-adv-x="1331" d="M225 1391q-8 19 2 33q11 16 33 16h150q34 0 49 -37l178 -477l68 -209l145 209l344 477q27 37 59 37h158q23 0 28 -17q4 -16 -7 -32l-644 -861l-86 -489q-8 -41 -47 -41h-143q-43 0 -35 41l86 489zM782 1558q-4 11 6 23l136 178q23 31 55 31h174q13 0 17 -7q5 -8 2 -19 t-11 -19l-217 -174q-25 -25 -59 -25h-80q-19 0 -23 12z" />
<glyph unicode="&#xde;" horiz-adv-x="1296" d="M92 41l240 1358q6 41 49 41h139q43 0 37 -41l-22 -127h190q263 0 394 -86q130 -85 130 -279q0 -73 -10 -123q-45 -261 -199 -374t-448 -113h-230l-45 -256q-8 -41 -47 -41h-143q-43 0 -35 41zM397 496h207q194 0 286 65q94 67 124 225q8 43 8 80q0 114 -76 160 q-77 47 -239 47h-207z" />
<glyph unicode="&#xdf;" horiz-adv-x="1323" d="M82 37l184 1048q34 191 174 285q139 94 361 94q200 0 308 -81t108 -201q0 -68 -36 -125q-37 -59 -88 -95q-57 -41 -104 -67q-31 -17 -87 -50q-36 -21 -36 -34q0 -18 36 -42q33 -22 88 -55q47 -28 105 -73q51 -39 88 -109q36 -67 36 -149q0 -191 -126 -297 q-125 -106 -333 -106q-68 0 -171 18q-35 6 -57.5 12.5t-33 13t-9.5 13.5l19 96q6 41 43 35q33 -4 103 6t153 33q82 22 142 69q61 47 61 109q0 68 -56 129q-53 57 -121 96q-69 39 -122 88q-56 51 -56 103q0 49 36 87q36 37 88 61q70 32 104 48q50 24 87 65q36 40 36 93 q0 56 -54 96q-52 39 -170 39q-124 0 -209 -55t-106 -168l-180 -1030q-7 -37 -43 -37h-127q-42 0 -35 37z" />
<glyph unicode="&#xe0;" horiz-adv-x="1157" d="M41 250q0 288 367 360q126 25 434 35l10 53q6 35 6 60q0 157 -225 157q-165 0 -330 -65q-39 -12 -43 24l-14 99q-4 28 30 43q185 78 392 78q397 0 397 -303q0 -51 -8 -97l-117 -655q-6 -39 -43 -39h-119q-40 0 -35 35l21 129q-145 -182 -395 -182q-158 0 -242 74 q-86 75 -86 194zM250 272q0 -59 46 -96t134 -37q155 0 253 78q97 78 118 195l16 90q-308 -15 -405 -47q-162 -49 -162 -183zM504 1433q8 15 26 15h166q34 0 45 -29l80 -178q8 -35 -28 -35h-72q-30 0 -51 23l-162 176q-12 12 -4 28z" />
<glyph unicode="&#xe1;" horiz-adv-x="1157" d="M41 250q0 288 367 360q126 25 434 35l10 53q6 35 6 60q0 157 -225 157q-165 0 -330 -65q-39 -12 -43 24l-14 99q-4 28 30 43q185 78 392 78q397 0 397 -303q0 -51 -8 -97l-117 -655q-6 -39 -43 -39h-119q-40 0 -35 35l21 129q-145 -182 -395 -182q-158 0 -242 74 q-86 75 -86 194zM250 272q0 -59 46 -96t134 -37q155 0 253 78q97 78 118 195l16 90q-308 -15 -405 -47q-162 -49 -162 -183zM599 1217q-4 10 5 24l135 178q21 29 54 29h174q12 0 18 -7t3 -18t-13 -18l-217 -176q-25 -23 -58 -23h-77q-19 0 -24 11z" />
<glyph unicode="&#xe2;" horiz-adv-x="1157" d="M41 250q0 288 367 360q126 25 434 35l10 53q6 35 6 60q0 157 -225 157q-165 0 -330 -65q-39 -12 -43 24l-14 99q-4 28 30 43q185 78 392 78q397 0 397 -303q0 -51 -8 -97l-117 -655q-6 -39 -43 -39h-119q-40 0 -35 35l21 129q-145 -182 -395 -182q-158 0 -242 74 q-86 75 -86 194zM250 272q0 -59 46 -96t134 -37q155 0 253 78q97 78 118 195l16 90q-308 -15 -405 -47q-162 -49 -162 -183zM408 1227q2 9 12 16l225 193q22 22 55 22h97q32 0 53 -22l158 -193q10 -12 4 -24q-6 -13 -25 -13h-84q-26 0 -47 23l-123 110l-162 -110 q-25 -23 -53 -23h-90q-12 0 -17 6t-3 15z" />
<glyph unicode="&#xe3;" horiz-adv-x="1157" d="M41 250q0 288 367 360q126 25 434 35l10 53q6 35 6 60q0 157 -225 157q-165 0 -330 -65q-39 -12 -43 24l-14 99q-4 28 30 43q185 78 392 78q397 0 397 -303q0 -51 -8 -97l-117 -655q-6 -39 -43 -39h-119q-40 0 -35 35l21 129q-145 -182 -395 -182q-158 0 -242 74 q-86 75 -86 194zM250 272q0 -59 46 -96t134 -37q155 0 253 78q97 78 118 195l16 90q-308 -15 -405 -47q-162 -49 -162 -183zM381 1255q24 150 168 150q69 0 168 -39l57 -20q72 -27 98 -27q40 0 52 41l4 14q11 31 45 31h57q35 0 23 -51q-24 -150 -164 -150q-77 0 -172 37 l-53 21q-57 24 -99 24q-40 0 -51 -31l-6 -18q-15 -29 -45 -29h-55q-35 0 -27 47z" />
<glyph unicode="&#xe4;" horiz-adv-x="1157" d="M41 250q0 288 367 360q126 25 434 35l10 53q6 35 6 60q0 157 -225 157q-165 0 -330 -65q-39 -12 -43 24l-14 99q-4 28 30 43q185 78 392 78q397 0 397 -303q0 -51 -8 -97l-117 -655q-6 -39 -43 -39h-119q-40 0 -35 35l21 129q-145 -182 -395 -182q-158 0 -242 74 q-86 75 -86 194zM250 272q0 -59 46 -96t134 -37q155 0 253 78q97 78 118 195l16 90q-308 -15 -405 -47q-162 -49 -162 -183zM414 1243l24 146q7 38 47 38h125q37 0 31 -38l-25 -146q-7 -37 -45 -37h-125q-38 0 -32 37zM799 1243l24 146q7 38 47 38h125q37 0 31 -38l-25 -146 q-7 -37 -45 -37h-125q-38 0 -32 37z" />
<glyph unicode="&#xe5;" horiz-adv-x="1157" d="M41 250q0 288 367 360q126 25 434 35l10 53q6 35 6 60q0 157 -225 157q-165 0 -330 -65q-39 -12 -43 24l-14 99q-4 28 30 43q185 78 392 78q397 0 397 -303q0 -51 -8 -97l-117 -655q-6 -39 -43 -39h-119q-40 0 -35 35l21 129q-145 -182 -395 -182q-158 0 -242 74 q-86 75 -86 194zM250 272q0 -59 46 -96t134 -37q155 0 253 78q97 78 118 195l16 90q-308 -15 -405 -47q-162 -49 -162 -183zM514 1368q0 97 73 164q71 65 177 65q87 0 145 -50t58 -124q0 -99 -73 -164t-179 -65q-89 0 -145 49t-56 125zM623 1376q0 -38 28 -62q29 -24 76 -24 q53 0 92 33t39 88q0 40 -28 65q-26 23 -76 23q-56 0 -94 -33q-37 -33 -37 -90z" />
<glyph unicode="&#xe6;" horiz-adv-x="1865" d="M41 240q0 78 27 138q28 63 66 99q43 41 106 67q67 27 124 42q50 13 143 21q70 6 143 8q39 1 141 1h16h15h16l18 109q16 91 -38 141q-53 49 -181 49q-170 0 -340 -65q-37 -12 -43 24l-18 99q-5 31 32 43q211 78 389 78q326 0 347 -201q136 201 403 201q184 0 288 -104 q103 -103 103 -277q0 -57 -8 -107l-21 -114q-6 -39 -47 -39h-708q-2 -16 -2 -39q2 -125 82 -198q81 -73 217 -73q135 0 274 64q39 17 47 -23l17 -88q6 -25 -31 -47q-148 -74 -332 -74q-162 0 -273 67q-109 66 -130 171q-159 -231 -477 -231q-182 0 -273 69q-92 69 -92 189z M250 264q0 -121 190 -121q153 0 247 77t116 198l10 53q-8 0 -70 -2q-280 -6 -370 -39q-123 -47 -123 -166zM1036 606h553l4 15q9 47 9 86q0 219 -222 219q-126 0 -217 -84q-93 -85 -127 -236z" />
<glyph unicode="&#xe7;" horiz-adv-x="1038" d="M98 410q0 56 13 129q46 269 206 412t396 143q207 0 309 -66q32 -20 14 -49l-57 -94q-21 -35 -59 -19q-85 43 -197 43q-155 0 -259 -92q-103 -91 -136 -278q-9 -67 -9 -111q0 -134 69 -200t194 -66q126 0 241 53q35 17 45 -18l23 -97q6 -28 -33 -49q-127 -71 -291 -71h-22 q92 -51 92 -136q0 -86 -65 -127t-160 -41q-76 0 -101 9q-22 7 -16 28l8 60q4 22 29 22h59q117 0 117 80q0 75 -143 135q-267 92 -267 400z" />
<glyph unicode="&#xe8;" horiz-adv-x="1177" d="M100 416q0 58 13 133q45 261 197 402q154 143 384 143q198 0 307 -107t109 -285q0 -63 -10 -112l-17 -101q-6 -38 -47 -38h-729q-2 -20 -2 -37q0 -126 82 -198q84 -73 227 -73q140 0 279 64q41 21 49 -23l16 -84q6 -25 -32 -47q-162 -78 -336 -78q-229 0 -360 116 q-130 115 -130 325zM330 602h575l2 10q8 43 8 86q0 108 -58 167q-59 61 -173 61q-278 0 -354 -324zM516 1433q8 15 27 15h166q34 0 45 -29l80 -178q8 -35 -29 -35h-72q-30 0 -51 23l-162 176q-12 12 -4 28z" />
<glyph unicode="&#xe9;" horiz-adv-x="1177" d="M100 416q0 58 13 133q45 261 197 402q154 143 384 143q198 0 307 -107t109 -285q0 -63 -10 -112l-17 -101q-6 -38 -47 -38h-729q-2 -20 -2 -37q0 -126 82 -198q84 -73 227 -73q140 0 279 64q41 21 49 -23l16 -84q6 -25 -32 -47q-162 -78 -336 -78q-229 0 -360 116 q-130 115 -130 325zM330 602h575l2 10q8 43 8 86q0 108 -58 167q-59 61 -173 61q-278 0 -354 -324zM626 1217q-4 10 5 24l135 178q21 29 53 29h174q13 0 19 -7t3 -18q-3 -10 -14 -18l-217 -176q-25 -23 -57 -23h-78q-18 0 -23 11z" />
<glyph unicode="&#xea;" horiz-adv-x="1177" d="M100 416q0 58 13 133q45 261 197 402q154 143 384 143q198 0 307 -107t109 -285q0 -63 -10 -112l-17 -101q-6 -38 -47 -38h-729q-2 -20 -2 -37q0 -126 82 -198q84 -73 227 -73q140 0 279 64q41 21 49 -23l16 -84q6 -25 -32 -47q-162 -78 -336 -78q-229 0 -360 116 q-130 115 -130 325zM330 602h575l2 10q8 43 8 86q0 108 -58 167q-59 61 -173 61q-278 0 -354 -324zM432 1227q2 9 12 16l226 193q22 22 55 22h96q32 0 53 -22l158 -193q10 -12 4 -24q-6 -13 -24 -13h-84q-26 0 -47 23l-123 110l-162 -110q-25 -23 -53 -23h-90q-13 0 -18 6 t-3 15z" />
<glyph unicode="&#xeb;" horiz-adv-x="1177" d="M100 416q0 58 13 133q45 261 197 402q154 143 384 143q198 0 307 -107t109 -285q0 -63 -10 -112l-17 -101q-6 -38 -47 -38h-729q-2 -20 -2 -37q0 -126 82 -198q84 -73 227 -73q140 0 279 64q41 21 49 -23l16 -84q6 -25 -32 -47q-162 -78 -336 -78q-229 0 -360 116 q-130 115 -130 325zM330 602h575l2 10q8 43 8 86q0 108 -58 167q-59 61 -173 61q-278 0 -354 -324zM444 1243l25 146q7 38 47 38h125q37 0 31 -38l-25 -146q-7 -37 -45 -37h-125q-39 0 -33 37zM829 1243l25 146q7 38 47 38h125q37 0 31 -38l-25 -146q-7 -37 -45 -37h-125 q-39 0 -33 37z" />
<glyph unicode="&#xec;" horiz-adv-x="522" d="M78 39l176 991q6 39 45 39h135q37 0 31 -39l-176 -991q-6 -39 -41 -39h-135q-41 0 -35 39zM156 1433q8 15 26 15h166q34 0 45 -29l80 -178q8 -35 -29 -35h-71q-30 0 -51 23l-162 176q-12 12 -4 28z" />
<glyph unicode="&#xed;" horiz-adv-x="522" d="M78 39l176 991q6 39 45 39h135q37 0 31 -39l-176 -991q-6 -39 -41 -39h-135q-41 0 -35 39zM316 1217q-4 10 6 24l135 178q21 29 53 29h174q12 0 18 -7q7 -8 4 -18t-14 -18l-217 -176q-25 -23 -57 -23h-78q-19 0 -24 11z" />
<glyph unicode="&#xee;" horiz-adv-x="522" d="M78 39l176 991q6 39 45 39h135q37 0 31 -39l-176 -991q-6 -39 -41 -39h-135q-41 0 -35 39zM92 1227q2 9 12 16l226 193q22 22 55 22h96q33 0 54 -22l157 -193q10 -12 4 -24q-6 -13 -24 -13h-84q-26 0 -47 23l-123 110l-162 -110q-25 -23 -53 -23h-90q-13 0 -18 6t-3 15z " />
<glyph unicode="&#xef;" horiz-adv-x="522" d="M78 39l176 991q6 39 45 39h135q37 0 31 -39l-176 -991q-6 -39 -41 -39h-135q-41 0 -35 39zM104 1243l25 146q7 38 47 38h125q37 0 31 -38l-25 -146q-7 -37 -45 -37h-125q-39 0 -33 37zM489 1243l25 146q7 38 47 38h125q37 0 31 -38l-25 -146q-7 -37 -45 -37h-125 q-39 0 -33 37z" />
<glyph unicode="&#xf0;" horiz-adv-x="1228" d="M96 401q0 56 13 131q47 266 203 410q155 143 384 143q184 0 252 -77q-28 98 -92 186h-301q-35 0 -29 35l9 47q6 33 40 33h207q-38 48 -108 94q-16 10 -10 24q6 15 24 15h139q36 0 58 -19q65 -65 98 -114h199q32 0 26 -33l-8 -47q-8 -35 -37 -35h-123q123 -224 123 -477 q0 -86 -16 -178q-49 -275 -204 -417q-154 -142 -392 -142q-212 0 -333 109q-122 110 -122 312zM319 393q0 -237 242 -237q151 0 239 86t122 268q18 68 18 147q0 128 -63 194q-64 67 -183 67q-147 0 -243 -108q-97 -109 -127 -298q-5 -38 -5 -119z" />
<glyph unicode="&#xf1;" horiz-adv-x="1230" d="M72 39l176 991q6 39 43 39h127q40 0 35 -35l-17 -123q130 183 371 183q162 0 246 -78t84 -221q0 -45 -9 -101l-116 -655q-6 -39 -43 -39h-135q-41 0 -35 39l112 629q7 44 7 69q0 168 -197 168q-133 0 -222 -77q-90 -78 -112 -201l-104 -588q-6 -39 -43 -39h-136 q-38 0 -32 39zM426 1255q24 150 168 150q69 0 168 -39l57 -20q72 -27 99 -27q39 0 51 41l4 14q11 31 45 31h57q35 0 23 -51q-24 -150 -164 -150q-77 0 -172 37l-53 21q-57 24 -99 24q-40 0 -51 -31l-6 -18q-15 -29 -45 -29h-55q-35 0 -27 47z" />
<glyph unicode="&#xf2;" horiz-adv-x="1232" d="M96 401q0 -205 121 -313t330 -108q240 0 395 142q156 143 203 413q12 73 12 135q0 205 -120 314q-121 110 -328 110q-240 0 -396 -144q-154 -143 -204 -413q-13 -80 -13 -136zM315 414q0 50 13 123q33 191 127 285q96 96 239 96q120 0 183 -66t63 -195q0 -53 -12 -120 q-33 -191 -128 -286t-239 -95q-246 0 -246 258zM530 1433q8 15 27 15h166q34 0 45 -29l80 -178q8 -35 -29 -35h-71q-31 0 -52 23l-161 176q-13 13 -5 28z" />
<glyph unicode="&#xf3;" horiz-adv-x="1232" d="M96 401q0 -205 121 -313t330 -108q240 0 395 142q156 143 203 413q12 73 12 135q0 205 -120 314q-121 110 -328 110q-240 0 -396 -144q-154 -143 -204 -413q-13 -80 -13 -136zM315 414q0 50 13 123q33 191 127 285q96 96 239 96q120 0 183 -66t63 -195q0 -53 -12 -120 q-33 -191 -128 -286t-239 -95q-246 0 -246 258zM648 1217q-4 10 5 24l135 178q21 29 54 29h174q12 0 18 -7t3 -18t-13 -18l-217 -176q-25 -23 -57 -23h-78q-19 0 -24 11z" />
<glyph unicode="&#xf4;" horiz-adv-x="1232" d="M96 401q0 -205 121 -313t330 -108q240 0 395 142q156 143 203 413q12 73 12 135q0 205 -120 314q-121 110 -328 110q-240 0 -396 -144q-154 -143 -204 -413q-13 -80 -13 -136zM315 414q0 50 13 123q33 191 127 285q96 96 239 96q120 0 183 -66t63 -195q0 -53 -12 -120 q-33 -191 -128 -286t-239 -95q-246 0 -246 258zM446 1227q2 8 13 16l225 193q22 22 55 22h97q32 0 53 -22l158 -193q10 -12 4 -24q-7 -13 -25 -13h-84q-26 0 -47 23l-123 110l-162 -110q-25 -23 -53 -23h-90q-13 0 -17 6q-6 7 -4 15z" />
<glyph unicode="&#xf5;" horiz-adv-x="1232" d="M96 401q0 56 13 136q50 270 204 413q156 144 396 144q207 0 328 -110q120 -109 120 -314q0 -62 -12 -135q-47 -270 -203 -413q-155 -142 -395 -142q-209 0 -330 108t-121 313zM315 414q0 -258 246 -258q144 0 239 95t128 286q12 67 12 120q0 129 -63 195t-183 66 q-143 0 -239 -96q-94 -94 -127 -285q-13 -73 -13 -123zM426 1255q24 150 168 150q69 0 168 -39l57 -20q72 -27 99 -27q39 0 51 41l4 14q11 31 45 31h57q35 0 23 -51q-24 -150 -164 -150q-77 0 -172 37l-53 21q-57 24 -99 24q-40 0 -51 -31l-6 -18q-15 -29 -45 -29h-55 q-35 0 -27 47z" />
<glyph unicode="&#xf6;" horiz-adv-x="1232" d="M96 401q0 -205 121 -313t330 -108q240 0 395 142q156 143 203 413q12 73 12 135q0 205 -120 314q-121 110 -328 110q-240 0 -396 -144q-154 -143 -204 -413q-13 -80 -13 -136zM315 414q0 50 13 123q33 191 127 285q96 96 239 96q120 0 183 -66t63 -195q0 -53 -12 -120 q-33 -191 -128 -286t-239 -95q-246 0 -246 258zM459 1243l24 146q7 38 47 38h125q37 0 31 -38l-25 -146q-7 -37 -45 -37h-124q-39 0 -33 37zM844 1243l24 146q7 38 47 38h125q37 0 31 -38l-24 -146q-7 -37 -46 -37h-124q-39 0 -33 37z" />
<glyph unicode="&#xf7;" d="M162 659l14 91q7 38 45 38h885q39 0 33 -38l-17 -91q-6 -38 -43 -38h-889q-35 0 -28 38zM451 238l28 165q7 39 47 39h152q40 0 33 -39l-29 -165q-6 -41 -47 -41h-152q-38 0 -32 41zM586 1006l30 165q8 39 46 39h151q41 0 35 -39l-31 -165q-6 -41 -45 -41h-151 q-41 0 -35 41z" />
<glyph unicode="&#xf8;" horiz-adv-x="1241" d="M66 35q-24 25 2 51l88 82q-56 95 -56 233q0 56 13 136q50 270 204 413q156 144 396 144q200 0 321 -105l78 74q27 27 51 4l35 -33q24 -21 -4 -49l-88 -82q55 -100 55 -233q0 -62 -12 -135q-47 -270 -203 -413q-155 -142 -395 -142q-202 0 -320 100l-75 -72 q-31 -31 -56 -6zM319 414q0 -47 9 -88l557 520q-66 72 -187 72q-143 0 -239 -96q-94 -94 -127 -285q-13 -73 -13 -123zM379 223q66 -67 186 -67q144 0 239 95t128 286q12 67 12 120q0 45 -10 88z" />
<glyph unicode="&#xf9;" horiz-adv-x="1214" d="M109 272q0 49 8 99l116 659q6 39 46 39h135q36 0 30 -39l-110 -627q-6 -39 -6 -71q0 -168 188 -168q124 0 216 74t114 200l104 592q6 39 47 39h133q38 0 31 -39l-174 -991q-7 -39 -43 -39h-129q-40 0 -35 35l19 123q-121 -178 -357 -178q-164 0 -248 75q-85 76 -85 217z M528 1433q8 15 27 15h166q34 0 45 -29l80 -178q8 -35 -29 -35h-72q-30 0 -51 23l-162 176q-12 12 -4 28z" />
<glyph unicode="&#xfa;" horiz-adv-x="1214" d="M109 272q0 49 8 99l116 659q6 39 46 39h135q36 0 30 -39l-110 -627q-6 -39 -6 -71q0 -168 188 -168q124 0 216 74t114 200l104 592q6 39 47 39h133q38 0 31 -39l-174 -991q-7 -39 -43 -39h-129q-40 0 -35 35l19 123q-121 -178 -357 -178q-164 0 -248 75q-85 76 -85 217z M632 1217q-4 10 5 24l135 178q21 29 53 29h174q13 0 19 -7t3 -18t-13 -18l-217 -176q-25 -23 -58 -23h-78q-18 0 -23 11z" />
<glyph unicode="&#xfb;" horiz-adv-x="1214" d="M109 272q0 49 8 99l116 659q6 39 46 39h135q36 0 30 -39l-110 -627q-6 -39 -6 -71q0 -168 188 -168q124 0 216 74t114 200l104 592q6 39 47 39h133q38 0 31 -39l-174 -991q-7 -39 -43 -39h-129q-40 0 -35 35l19 123q-121 -178 -357 -178q-164 0 -248 75q-85 76 -85 217z M438 1227q2 8 13 16l225 193q22 22 55 22h96q33 0 54 -22l157 -193q10 -12 4 -24q-6 -13 -24 -13h-84q-26 0 -47 23l-123 110l-162 -110q-25 -23 -53 -23h-90q-13 0 -18 6t-3 15z" />
<glyph unicode="&#xfc;" horiz-adv-x="1214" d="M109 272q0 49 8 99l116 659q6 39 46 39h135q36 0 30 -39l-110 -627q-6 -39 -6 -71q0 -168 188 -168q124 0 216 74t114 200l104 592q6 39 47 39h133q38 0 31 -39l-174 -991q-7 -39 -43 -39h-129q-40 0 -35 35l19 123q-121 -178 -357 -178q-164 0 -248 75q-85 76 -85 217z M451 1243l24 146q7 38 47 38h125q37 0 31 -38l-25 -146q-7 -37 -45 -37h-125q-38 0 -32 37zM836 1243l24 146q7 38 47 38h125q37 0 31 -38l-25 -146q-7 -37 -45 -37h-125q-38 0 -32 37z" />
<glyph unicode="&#xfd;" horiz-adv-x="1060" d="M10 -174l39 98q12 31 43 29q80 -14 109 -14q86 0 125 46q38 46 22 117l-198 924q-6 43 34 43h140q32 0 36 -37l99 -512l43 -309h4l143 309l244 512q21 37 51 37h146q20 0 26 -12q6 -13 -4 -31l-491 -948q-84 -176 -170 -245q-85 -69 -246 -69q-111 0 -168 23 q-35 11 -27 39zM566 1217q-4 10 5 24l136 178q21 29 53 29h174q12 0 18 -7t3 -18t-13 -18l-217 -176q-25 -23 -57 -23h-78q-19 0 -24 11z" />
<glyph unicode="&#xfe;" horiz-adv-x="1292" d="M39 -186l278 1589q7 37 45 37h136q40 0 34 -37l-90 -498q124 189 379 189q185 0 293 -103q107 -102 107 -299q0 -79 -17 -155q-99 -557 -542 -557q-131 0 -227 46q-98 47 -122 138l-61 -350q-8 -39 -47 -39h-135q-38 0 -31 39zM367 418q0 -262 254 -262q149 0 240 91 t126 290q14 80 14 133q0 245 -245 245q-151 0 -249 -95q-97 -94 -130 -283q-10 -50 -10 -119z" />
<glyph unicode="&#xff;" horiz-adv-x="1060" d="M10 -174l39 98q12 31 43 29q80 -14 109 -14q86 0 125 46q38 46 22 117l-198 924q-6 43 34 43h140q32 0 36 -37l99 -512l43 -309h4l143 309l244 512q21 37 51 37h146q20 0 26 -12q6 -13 -4 -31l-491 -948q-84 -176 -170 -245q-85 -69 -246 -69q-111 0 -168 23 q-35 11 -27 39zM373 1243l24 146q7 38 47 38h125q37 0 31 -38l-25 -146q-7 -37 -45 -37h-125q-38 0 -32 37zM758 1243l24 146q7 38 47 38h125q37 0 31 -38l-24 -146q-7 -37 -46 -37h-124q-39 0 -33 37z" />
<glyph unicode="&#x152;" horiz-adv-x="1906" d="M199 506q0 109 20 215q69 391 263 555t546 164h899q43 0 35 -41l-20 -119q-6 -41 -48 -41h-555l-69 -408h528q39 0 33 -43l-21 -106q-6 -43 -47 -43h-528l-78 -438h561q41 0 35 -39l-22 -121q-6 -41 -48 -41h-870q-305 0 -460 119q-154 118 -154 387zM430 537 q0 -185 98 -258q100 -74 303 -74h109l180 1030h-104q-250 0 -383 -111t-184 -403q-19 -111 -19 -184z" />
<glyph unicode="&#x153;" horiz-adv-x="1933" d="M96 406q0 58 13 131q49 268 202 412q154 145 379 145q136 0 236 -56q98 -55 137 -153q146 209 403 209q186 0 293 -107t107 -280q0 -51 -8 -101l-19 -102q-7 -37 -47 -37h-700q0 -14 -1 -24t-1 -23q0 -126 78 -201q79 -76 210 -76q135 0 271 64q41 18 49 -23l18 -88 q8 -26 -28 -43q-166 -78 -334 -78q-143 0 -251 60t-147 160q-156 -215 -421 -215q-202 0 -320 111q-119 111 -119 315zM315 414q0 -128 61 -194q60 -64 171 -64q133 0 226 96t126 285q12 68 12 122q0 127 -60 193t-171 66q-135 0 -227 -98t-125 -283q-13 -75 -13 -123z M1114 616h547l2 13q8 37 8 80q0 99 -54 158t-163 59q-122 0 -213 -80q-89 -79 -127 -230z" />
<glyph unicode="&#x178;" horiz-adv-x="1331" d="M225 1391q-8 19 2 33q11 16 33 16h150q34 0 49 -37l178 -477l68 -209l145 209l344 477q27 37 59 37h158q23 0 28 -17q4 -16 -7 -32l-644 -861l-86 -489q-8 -41 -47 -41h-143q-43 0 -35 41l86 489zM557 1585l27 137q6 39 43 39h131q41 0 35 -39l-25 -137q-8 -39 -47 -39 h-131q-39 0 -33 39zM956 1585l25 137q6 39 43 39h131q41 0 35 -39l-25 -137q-7 -39 -47 -39h-131q-39 0 -31 39z" />
<glyph unicode="&#x2c6;" horiz-adv-x="706" d="M184 1227q2 8 13 16l225 193q22 22 55 22h96q33 0 54 -22l157 -193q10 -12 4 -24q-6 -13 -24 -13h-84q-26 0 -47 23l-123 110l-162 -110q-25 -23 -53 -23h-90q-13 0 -18 6t-3 15z" />
<glyph unicode="&#x2dc;" horiz-adv-x="706" d="M164 1255q24 150 168 150q69 0 168 -39l57 -20q72 -27 98 -27q40 0 52 41l4 14q11 31 45 31h57q35 0 23 -51q-24 -150 -164 -150q-77 0 -172 37l-54 21q-57 24 -98 24q-40 0 -51 -31l-6 -18q-15 -29 -45 -29h-56q-34 0 -26 47z" />
<glyph unicode="&#x2000;" horiz-adv-x="946" />
<glyph unicode="&#x2001;" horiz-adv-x="1892" />
<glyph unicode="&#x2002;" horiz-adv-x="946" />
<glyph unicode="&#x2003;" horiz-adv-x="1892" />
<glyph unicode="&#x2004;" horiz-adv-x="630" />
<glyph unicode="&#x2005;" horiz-adv-x="473" />
<glyph unicode="&#x2006;" horiz-adv-x="315" />
<glyph unicode="&#x2007;" horiz-adv-x="315" />
<glyph unicode="&#x2008;" horiz-adv-x="236" />
<glyph unicode="&#x2009;" horiz-adv-x="378" />
<glyph unicode="&#x200a;" horiz-adv-x="105" />
<glyph unicode="&#x2010;" horiz-adv-x="808" d="M88 492l18 102q6 37 44 37h563q39 0 32 -37l-16 -102q-7 -37 -47 -37h-563q-37 0 -31 37z" />
<glyph unicode="&#x2011;" horiz-adv-x="808" d="M88 492l18 102q6 37 44 37h563q39 0 32 -37l-16 -102q-7 -37 -47 -37h-563q-37 0 -31 37z" />
<glyph unicode="&#x2012;" horiz-adv-x="808" d="M88 492l18 102q6 37 44 37h563q39 0 32 -37l-16 -102q-7 -37 -47 -37h-563q-37 0 -31 37z" />
<glyph unicode="&#x2013;" horiz-adv-x="1083" d="M92 492l19 102q6 37 43 37h831q40 0 33 -37l-19 -102q-6 -37 -43 -37h-835q-35 0 -29 37z" />
<glyph unicode="&#x2014;" horiz-adv-x="1585" d="M92 492l19 102q6 37 43 37h1333q40 0 33 -37l-17 -102q-7 -37 -47 -37h-1335q-35 0 -29 37z" />
<glyph unicode="&#x2018;" horiz-adv-x="460" d="M215 1010l27 157q5 32 18 52l127 208q17 23 39 23h51q33 0 17 -33l-99 -198h56q36 0 30 -41l-28 -168q-6 -37 -45 -37h-158q-41 0 -35 37z" />
<glyph unicode="&#x2019;" horiz-adv-x="460" d="M229 995l97 201h-56q-38 0 -30 39l28 166q6 39 47 39h158q41 0 35 -39l-29 -156q-1 -27 -18 -51l-127 -209q-15 -24 -41 -24h-49q-31 0 -15 34z" />
<glyph unicode="&#x201a;" horiz-adv-x="460" d="M20 -201l97 201h-56q-37 0 -30 39l28 166q6 39 47 39h158q41 0 35 -39l-29 -156q-2 -27 -18 -51l-127 -209q-16 -25 -41 -25h-49q-32 0 -15 35z" />
<glyph unicode="&#x201c;" horiz-adv-x="829" d="M215 1010l27 157q5 32 18 52l127 208q17 23 39 23h51q33 0 17 -33l-99 -198h56q36 0 30 -41l-28 -168q-6 -37 -45 -37h-158q-41 0 -35 37zM582 1010l26 157q5 23 21 52l127 208q17 23 39 23h49q32 0 16 -33l-96 -198h53q39 0 33 -41l-29 -168q-7 -37 -47 -37h-160 q-38 0 -32 37z" />
<glyph unicode="&#x201d;" horiz-adv-x="829" d="M229 995l97 201h-56q-37 0 -30 37l28 168q6 39 47 39h158q41 0 35 -39l-29 -156q-1 -30 -18 -51l-127 -209q-15 -24 -41 -24h-49q-31 0 -15 34zM593 972q-3 11 3 23l96 201h-55q-37 0 -31 37l31 168q6 39 45 39h158q40 0 32 -39l-26 -156q-1 -29 -19 -51l-127 -209 q-12 -24 -38 -24h-52q-14 0 -17 11z" />
<glyph unicode="&#x201e;" horiz-adv-x="829" d="M20 -201l97 201h-56q-37 0 -30 37l28 168q6 39 47 39h158q41 0 35 -39l-29 -156q-2 -30 -18 -51l-127 -209q-16 -25 -41 -25h-49q-32 0 -15 35zM384 -224q-3 11 3 23l96 201h-55q-37 0 -31 37l31 168q6 39 45 39h158q41 0 33 -39l-27 -156q-1 -29 -19 -51l-126 -209 q-12 -25 -39 -25h-52q-14 0 -17 12z" />
<glyph unicode="&#x2022;" horiz-adv-x="790" d="M123 504q0 133 99 235q100 103 239 103q103 0 170 -64q65 -62 65 -164q0 -135 -98 -239q-99 -105 -240 -105q-104 0 -170 66q-65 65 -65 168z" />
<glyph unicode="&#x2026;" horiz-adv-x="1456" d="M49 39l31 174q8 39 47 39h154q40 0 34 -39l-32 -174q-6 -39 -41 -39h-160q-40 0 -33 39zM535 39l30 174q7 39 47 39h156q39 0 33 -39l-33 -174q-6 -39 -41 -39h-160q-38 0 -32 39zM1020 39l31 174q7 39 47 39h155q39 0 33 -39l-31 -174q-7 -39 -43 -39h-157q-41 0 -35 39 z" />
<glyph unicode="&#x202f;" horiz-adv-x="378" />
<glyph unicode="&#x2039;" horiz-adv-x="546" d="M88 565l10 21l217 278q24 29 56 29h116q21 0 25 -12q5 -13 -10 -29l-228 -287l127 -284q8 -17 -1 -29t-29 -12h-115q-31 0 -43 28l-123 281q-2 8 -2 16z" />
<glyph unicode="&#x203a;" horiz-adv-x="546" d="M70 252q-5 13 10 29l225 284l-125 287q-17 41 29 41h117q30 0 41 -29l122 -278q5 -15 0 -21q0 -10 -6 -16l-221 -281q-22 -28 -51 -28h-117q-20 0 -24 12z" />
<glyph unicode="&#x205f;" horiz-adv-x="473" />
<glyph unicode="&#x20ac;" horiz-adv-x="1337" d="M57 532l13 70q8 33 39 33h129q1 19 10 86l18 84h-127q-32 0 -26 33l12 71q6 33 37 33h143q89 227 277 373q189 147 454 147q220 0 373 -90q30 -18 12 -47l-67 -106q-27 -38 -60 -23q-110 64 -252 64q-178 0 -311 -93q-131 -92 -194 -225h538q35 0 19 -37l-35 -67 q-18 -33 -53 -33h-510q-14 -47 -19 -84l-12 -86h416q39 0 18 -37l-37 -68q-16 -32 -53 -32h-348q12 -135 111 -226q100 -92 286 -92q142 0 277 66q36 14 51 -25l28 -106q6 -27 -28 -45q-164 -90 -369 -90q-274 0 -427 149q-154 150 -165 369h-139q-35 0 -29 34z" />
<glyph unicode="&#x2122;" horiz-adv-x="1476" d="M233 1346l13 67q6 27 28 27h437q28 0 22 -27l-12 -67q-5 -29 -33 -29h-145l-90 -518q-1 -27 -33 -27h-86q-26 0 -25 27l90 518h-145q-27 0 -21 29zM741 799l109 614q2 27 31 27h86q23 0 34 -19l142 -301l248 301q16 19 36 19h97q28 0 22 -27l-108 -614q-2 -27 -33 -27 h-84q-25 0 -23 27l78 432l-229 -270q-17 -19 -33 -19q-11 0 -22 19l-134 272l-77 -434q-1 -27 -33 -27h-82q-31 0 -25 27z" />
<glyph unicode="&#x25fc;" horiz-adv-x="1064" d="M0 0v1065h1065v-1065h-1065z" />
</font>
</defs>
</svg>
