<?xml version="1.0" standalone="no"?>
<!DOCTYPE svg PUBLIC "-//W3C//DTD SVG 1.1//EN" "http://www.w3.org/Graphics/SVG/1.1/DTD/svg11.dtd" >
<svg xmlns="http://www.w3.org/2000/svg" xmlns:xlink="http://www.w3.org/1999/xlink" version="1.1">
<metadata></metadata>
<defs>
<font id="amsipro-blackuploaded_file" horiz-adv-x="1236" >
<font-face units-per-em="2048" ascent="1749" descent="-299" />
<missing-glyph horiz-adv-x="587" />
<glyph unicode="&#xfb01;" horiz-adv-x="1312" d="M35 868v133q0 58 55 58h92v86q0 319 334 319q99 0 162 -18q57 -15 57 -55v-105q0 -26 -12 -40q-11 -13 -33 -11q-12 0 -39 4t-49 4q-92 0 -92 -108v-76h618q56 0 56 -58v-944q0 -57 -56 -57h-221q-57 0 -57 57v756h-340v-762q0 -51 -57 -51h-213q-58 0 -58 51v762h-92 q-55 0 -55 55zM852 1260v131q0 55 55 55h219q58 0 58 -55v-131q0 -56 -58 -56h-219q-55 0 -55 56z" />
<glyph unicode="&#xfb02;" horiz-adv-x="1310" d="M35 868v133q0 58 55 58h92v39q0 198 121 283t414 85q249 0 409 -49q32 -11 44 -23q14 -14 14 -40v-1297q0 -57 -56 -57h-223q-55 0 -55 57v1162q-60 12 -145 12q-106 0 -151 -31q-44 -30 -44 -100v-41h115q57 0 57 -58v-133q0 -55 -57 -55h-115v-762q0 -51 -57 -51h-213 q-58 0 -58 51v762h-92q-55 0 -55 55z" />
<glyph unicode="&#xfb03;" horiz-adv-x="1980" d="M35 868v133q0 58 55 58h92v90q0 315 336 315q104 0 160 -18q57 -15 57 -55v-105q0 -28 -11 -40q-11 -13 -34 -11q-66 8 -88 8q-92 0 -92 -106v-78h340v90q0 315 336 315q104 0 160 -18q59 -16 59 -55v-105q0 -27 -13 -40t-34 -11q-66 8 -88 8q-92 0 -92 -106v-78h616 q57 0 57 -58v-944q0 -57 -57 -57h-221q-55 0 -55 57v756h-340v-762q0 -51 -58 -51h-213q-57 0 -57 51v762h-340v-762q0 -51 -57 -51h-213q-58 0 -58 51v762h-92q-55 0 -55 55zM1518 1260v131q0 55 57 55h219q55 0 55 -55v-131q0 -56 -55 -56h-219q-57 0 -57 56z" />
<glyph unicode="&#xfb04;" horiz-adv-x="1976" d="M35 868v133q0 58 55 58h92v90q0 315 336 315q104 0 160 -18q57 -15 57 -55v-105q0 -26 -12 -40q-11 -13 -33 -11q-66 8 -88 8q-92 0 -92 -106v-78h340v39q0 200 121 284t415 84q243 0 408 -49q32 -11 44 -23q13 -13 13 -40v-1297q0 -57 -57 -57h-221q-55 0 -55 57v1162 q-61 12 -146 12q-106 0 -151 -31q-43 -30 -43 -100v-41h114q58 0 58 -58v-133q0 -55 -58 -55h-114v-762q0 -51 -58 -51h-213q-57 0 -57 51v762h-340v-762q0 -51 -57 -51h-213q-58 0 -58 51v762h-92q-55 0 -55 55z" />
<glyph horiz-adv-x="0" />
<glyph unicode="&#xd;" horiz-adv-x="681" />
<glyph unicode=" "  horiz-adv-x="587" />
<glyph unicode="&#x09;" horiz-adv-x="587" />
<glyph unicode="&#xa0;" horiz-adv-x="587" />
<glyph unicode="!" horiz-adv-x="657" d="M131 1386q-5 60 57 60h281q61 0 57 -60l-61 -874q-5 -53 -59 -53h-154q-54 0 -59 53zM156 57v219q0 56 59 56h227q60 0 60 -56v-219q0 -57 -56 -57h-235q-55 0 -55 57z" />
<glyph unicode="&#x22;" horiz-adv-x="819" d="M92 1391q0 106 133 106q73 0 104 -26q29 -25 29 -80q0 -41 -12 -119l-65 -367h-111l-64 367q-14 84 -14 119zM461 1391q0 55 29 80q31 26 104 26q72 0 103 -26q30 -25 30 -80q0 -41 -12 -119l-66 -367h-110l-64 367q-14 84 -14 119z" />
<glyph unicode="#" horiz-adv-x="1325" d="M29 420v82q0 57 57 57h180l84 322h-125q-57 0 -57 57v82q0 55 57 55h178l89 344q17 54 69 39l90 -22q53 -15 41 -70l-76 -291h279l90 344q17 54 70 39l90 -22q56 -15 41 -70l-76 -291h129q55 0 55 -55v-82q0 -57 -55 -57h-182l-84 -322h127q57 0 57 -57v-82 q0 -55 -57 -55h-178l-86 -336q-17 -58 -70 -41l-90 24q-58 12 -41 68l74 285h-281l-86 -336q-17 -58 -70 -41l-90 24q-56 17 -41 68l74 285h-129q-57 0 -57 55zM479 559h281l84 322h-281z" />
<glyph unicode="$" horiz-adv-x="1241" d="M81 101q-7 14 1 46l57 156q21 55 76 33q155 -64 324 -64q282 0 282 138q0 33 -15 57q-14 23 -60 48q-40 22 -69 34q-17 7 -102 37q-21 7 -28 10q-83 27 -135 48q-50 20 -121 61t-106 83q-38 46 -65 116q-28 73 -28 159q0 175 116 277q114 101 324 122v133q0 56 58 56h96 q57 0 57 -56v-131q205 -18 330 -82q51 -24 33 -73l-57 -150q-21 -53 -76 -35q-126 49 -291 49q-240 0 -240 -122q0 -74 119 -127q38 -18 150 -58q90 -31 144 -54q47 -20 120 -60q72 -40 108 -82q37 -43 63 -109q27 -67 27 -151q0 -183 -115 -285q-117 -103 -306 -133v-139 q0 -58 -58 -58h-96q-57 0 -57 58v129q-256 12 -424 92q-29 12 -36 27z" />
<glyph unicode="%" horiz-adv-x="1994" d="M72 1028q0 206 102 320t275 114q172 0 274 -114t102 -320q0 -203 -102 -317q-103 -115 -274 -115q-172 0 -275 115q-102 114 -102 317zM324 1028q0 -231 125 -231q122 0 122 231q0 234 -122 234q-125 0 -125 -234zM477 57l795 1336q30 53 82 53h133q61 0 31 -55 l-795 -1336q-30 -55 -82 -55h-133q-66 0 -31 57zM1169 418q0 202 103 317t274 115q172 0 275 -115q102 -114 102 -317q0 -205 -102 -319q-101 -113 -275 -113q-173 0 -274 113q-103 115 -103 319zM1423 418q0 -234 123 -234q125 0 125 234q0 231 -125 231q-123 0 -123 -231z " />
<glyph unicode="&#x26;" horiz-adv-x="1517" d="M82 436q0 154 92 263q92 108 250 155l-33 39q-117 135 -117 276q0 140 107 221q105 80 334 80q165 0 291 -53q57 -24 45 -76l-29 -118q-17 -57 -80 -39q-99 28 -184 28q-183 0 -183 -96q0 -10 6 -34q2 -7 10 -29q5 -13 19 -30q6 -7 13 -16t9 -11q3 -3 11 -13t14 -16 q12 -14 25 -27l414 -461q37 83 37 168q0 23 -11 62q-10 36 -10 51q0 25 12 34t41 9h170q36 0 47 -39q19 -59 19 -135q0 -211 -117 -367l182 -203q17 -22 10 -40q-7 -19 -30 -19h-205q-59 0 -92 33l-59 65q-174 -116 -408 -116q-265 0 -432 116q-168 117 -168 338zM424 467 q0 -93 79 -150t226 -57q118 0 182 41l-325 367q-162 -57 -162 -201z" />
<glyph unicode="'" horiz-adv-x="450" d="M92 1391q0 106 133 106q73 0 104 -26q29 -25 29 -80q0 -41 -12 -119l-65 -367h-111l-64 367q-14 84 -14 119z" />
<glyph unicode="(" horiz-adv-x="782" d="M139 612q0 240 93 456t235 370q24 28 63 28h154q30 0 37 -20q8 -22 -8 -43q-116 -160 -184 -365q-68 -204 -68 -426q0 -220 68 -423q68 -202 184 -367q16 -21 8 -43q-7 -21 -37 -21h-154q-39 0 -63 29q-142 154 -235 370t-93 455z" />
<glyph unicode=")" horiz-adv-x="782" d="M62 -221q-7 20 8 43q114 164 183 369q69 206 69 421q0 216 -69 421q-70 207 -183 370q-15 23 -8 43t36 20h156q37 0 61 -28q143 -152 237 -369q93 -215 93 -457q0 -239 -93 -455q-94 -218 -237 -370q-24 -29 -61 -29h-156q-28 0 -36 21z" />
<glyph unicode="*" horiz-adv-x="903" d="M86 930q0 36 53 69q30 17 107 38q75 20 102 32q-32 14 -104 35q-78 22 -105 39q-53 33 -53 69q0 27 20 58q33 57 72 57q25 0 55 -18q30 -17 84 -73q56 -58 82 -75q-2 32 -22 106q-21 77 -21 111q0 47 21 68q20 20 74 20q53 0 73 -20q21 -21 21 -68q0 -33 -20 -111 q-19 -76 -21 -106q26 18 81 73q56 56 87 73q30 18 55 18q37 0 70 -55q20 -33 20 -60q0 -36 -51 -69q-30 -17 -107 -38q-75 -20 -102 -32q30 -13 105 -35q76 -22 104 -39q53 -33 53 -69q0 -27 -20 -58q-49 -84 -127 -39q-26 16 -85 74t-81 74q2 -32 22 -106q21 -77 21 -111 q0 -47 -21 -68q-20 -20 -73 -20q-56 0 -76 20q-21 21 -21 68q0 34 21 111q20 74 22 106q-26 -20 -82 -74q-54 -52 -86 -71t-57 -19q-42 0 -70 55q-20 31 -20 60z" />
<glyph unicode="+" d="M111 633v153q0 56 55 56h301v307q0 55 57 55h189q55 0 55 -55v-307h303q57 0 57 -56v-153q0 -55 -57 -55h-303v-308q0 -55 -55 -55h-189q-57 0 -57 55v308h-301q-55 0 -55 55z" />
<glyph unicode="," horiz-adv-x="532" d="M100 57v217q0 56 62 56h211q59 0 59 -56v-194q0 -47 -14 -72l-131 -252q-16 -28 -47 -28h-74q-20 0 -28 15q-7 14 1 36l82 221h-65q-56 0 -56 57z" />
<glyph unicode="-" horiz-adv-x="823" d="M80 494v153q0 55 57 55h549q57 0 57 -53v-155q0 -56 -57 -56h-551q-55 0 -55 56z" />
<glyph unicode="." horiz-adv-x="532" d="M100 57v217q0 56 62 56h211q59 0 59 -56v-217q0 -57 -55 -57h-221q-56 0 -56 57z" />
<glyph unicode="/" horiz-adv-x="948" d="M23 19q-13 21 2 51l585 1325q22 51 76 51h193q34 0 46 -21q11 -20 -1 -49l-586 -1325q-22 -51 -74 -51h-194q-35 0 -47 19z" />
<glyph unicode="0" horiz-adv-x="1398" d="M96 723q0 366 161 557q160 190 441 190q284 0 443 -189t159 -556t-159 -557q-159 -191 -443 -191q-280 0 -441 191t-161 555zM446 723q0 -449 252 -449q254 0 254 449q0 448 -254 448q-252 0 -252 -448z" />
<glyph unicode="1" horiz-adv-x="1017" d="M61 1100q-29 41 11 65l356 254q37 27 88 27h229q60 0 60 -60v-1327q0 -59 -60 -59h-225q-59 0 -59 59v1031l-225 -134q-47 -27 -72 11z" />
<glyph unicode="2" horiz-adv-x="1296" d="M98 59v134q0 43 45 71q116 65 232 144q110 75 217 170q110 98 173 203q64 107 64 210q0 199 -208 199q-107 0 -154 -47t-47 -115q0 -25 5 -60t5 -40q0 -49 -51 -49h-209q-45 0 -57 53q-11 41 -11 106q0 193 130 313q129 119 393 119q283 0 415 -125q134 -126 134 -325 q0 -114 -56 -229q-57 -118 -148 -210q-97 -99 -188 -168q-96 -73 -196 -132h542q62 0 62 -60v-162q0 -59 -62 -59h-970q-60 0 -60 59z" />
<glyph unicode="3" horiz-adv-x="1222" d="M55 152l56 145q22 55 77 33q158 -70 338 -70q138 0 199 45t61 139q0 168 -229 168h-166q-61 0 -61 60v141q0 59 61 59h156q109 0 159 38t50 122q0 160 -224 160q-162 0 -329 -66q-53 -23 -76 33l-55 139q-21 54 34 76q204 94 469 94q142 0 251 -34q112 -35 190 -122 t78 -220q0 -239 -209 -322q105 -30 175 -116q68 -84 68 -222q0 -224 -142 -338t-421 -114q-274 0 -475 96q-53 24 -35 76z" />
<glyph unicode="4" horiz-adv-x="1380" d="M66 348v156q0 44 24 74l680 835q27 33 68 33h233q59 0 59 -60v-823h154q59 0 59 -59v-156q0 -61 -59 -61h-154v-228q0 -59 -57 -59h-225q-60 0 -60 59v228h-663q-59 0 -59 61zM356 563h435v527z" />
<glyph unicode="5" horiz-adv-x="1257" d="M72 156l55 141q23 60 78 33q169 -70 346 -70q141 0 207 51q65 50 65 158q0 101 -57 152t-184 51q-88 0 -171 -24q-79 -23 -100 -23q-11 0 -37 8l-118 35q-39 10 -33 55q41 401 41 655q0 68 63 68h797q59 0 59 -60v-161q0 -60 -59 -60h-580q-13 -195 -22 -284 q99 34 235 34q264 0 385 -117q123 -119 123 -329q0 -246 -153 -368q-152 -121 -441 -121q-268 0 -467 98q-51 24 -32 78z" />
<glyph unicode="6" horiz-adv-x="1339" d="M96 657q0 397 156 606q155 207 498 207q180 0 309 -55q57 -21 45 -69l-37 -142q-15 -57 -78 -41q-108 33 -211 33q-180 0 -264 -93q-83 -92 -88 -269q118 143 342 143q235 0 359 -130t124 -345q0 -234 -147 -379q-148 -146 -397 -146q-307 0 -459 184t-152 496zM444 500 q0 -98 66 -170t192 -72q113 0 178 68q64 67 64 182q0 102 -62 164q-63 63 -184 63q-122 0 -187 -64q-67 -65 -67 -171z" />
<glyph unicode="7" horiz-adv-x="1202" d="M72 1225v161q0 60 59 60h934q59 0 59 -60v-137q0 -22 -7 -37q-8 -17 -21 -33q-16 -19 -17 -22q-172 -247 -301 -537q-130 -293 -151 -563q-4 -32 -17 -45q-12 -12 -45 -12h-233q-66 0 -60 57q29 269 175 589t311 519h-627q-59 0 -59 60z" />
<glyph unicode="8" horiz-adv-x="1335" d="M86 389q0 279 307 361q-127 38 -197 124q-73 90 -73 211q0 188 143 286q144 99 402 99t400 -99t142 -286q0 -121 -72 -209t-196 -126q307 -82 307 -361q0 -191 -149 -301q-150 -111 -432 -111t-432 111t-150 301zM426 412q0 -83 62 -130q64 -49 180 -49q114 0 178 49 q63 48 63 130q0 168 -241 231q-242 -62 -242 -231zM459 1069q0 -83 51 -136t158 -83q209 62 209 219q0 156 -209 156t-209 -156z" />
<glyph unicode="9" horiz-adv-x="1339" d="M88 944q0 233 148 379q146 145 397 145q308 0 459 -184t151 -498q0 -398 -153 -603q-153 -206 -498 -206q-175 0 -309 54q-53 21 -43 69l36 142q15 57 78 41q108 -33 211 -33q344 0 350 354q-119 -135 -342 -135q-236 0 -360 130q-125 131 -125 345zM395 940 q0 -103 63 -166t183 -63q121 0 187 63q67 64 67 170q0 104 -65 174t-193 70q-112 0 -177 -68t-65 -180z" />
<glyph unicode=":" horiz-adv-x="618" d="M143 57v217q0 56 60 56h211q61 0 61 -56v-217q0 -57 -57 -57h-219q-56 0 -56 57zM143 815v221q0 54 60 54h211q61 0 61 -56v-219q0 -55 -57 -55h-219q-56 0 -56 55z" />
<glyph unicode=";" horiz-adv-x="618" d="M143 57v217q0 56 60 56h211q61 0 61 -56v-194q0 -43 -16 -72l-129 -252q-16 -28 -47 -28h-74q-21 0 -29 15t0 36l84 221h-65q-56 0 -56 57zM143 815v219q0 56 62 56h209q61 0 61 -56v-219q0 -55 -57 -55h-219q-56 0 -56 55z" />
<glyph unicode="&#x3c;" d="M117 707q0 33 26 55l736 573q44 37 82 -8l108 -131q35 -41 -8 -80l-543 -411l543 -410q46 -31 8 -78l-108 -135q-33 -43 -80 -8l-738 577q-26 22 -26 56z" />
<glyph unicode="=" d="M139 412v139q0 55 56 55h847q56 0 56 -55v-139q0 -56 -56 -56h-847q-56 0 -56 56zM139 868v142q0 55 56 55h847q56 0 56 -55v-142q0 -55 -56 -55h-847q-56 0 -56 55z" />
<glyph unicode="&#x3e;" d="M170 217q-35 45 8 78l543 410l-543 411q-45 37 -8 80l106 131q33 41 78 8l740 -573q28 -21 28 -53q0 -37 -28 -58l-740 -577q-45 -35 -78 8z" />
<glyph unicode="?" horiz-adv-x="1132" d="M70 1305q-21 51 34 75q185 88 441 88q238 0 369 -92q130 -91 130 -266q0 -95 -34 -172q-35 -79 -84 -128q-53 -53 -99 -92q-48 -41 -84 -86q-34 -43 -34 -87v-35q0 -51 -60 -51h-190q-60 0 -60 55v33q0 49 32 99q32 51 77 94q45 44 90 90q46 47 77 104q32 58 32 119 q0 133 -205 133q-147 0 -297 -60q-55 -22 -78 33zM373 57v219q0 56 61 56h225q60 0 60 -56v-219q0 -57 -55 -57h-234q-57 0 -57 57z" />
<glyph unicode="@" horiz-adv-x="1916" d="M117 446q0 365 245 585t652 220q386 0 589 -175t203 -458q0 -252 -125 -403q-124 -149 -333 -149h-125q-65 0 -72 40l-16 95q-100 -138 -283 -138q-161 0 -258 92q-96 91 -96 259q0 240 133 389t411 149q201 0 351 -73q42 -17 34 -58l-102 -606h37q280 0 280 406 q0 225 -153 353q-154 128 -477 128q-335 0 -534 -173q-197 -172 -197 -483q0 -285 169 -412q170 -128 523 -128q165 0 413 53q34 8 41 -29l17 -65q8 -29 -25 -39q-225 -66 -448 -66q-854 0 -854 686zM768 449q0 -173 143 -173q166 0 201 199l43 250q-50 20 -125 20 q-127 0 -194 -83q-68 -85 -68 -213z" />
<glyph unicode="A" horiz-adv-x="1419" d="M37 70l457 1321q18 55 71 55h289q54 0 72 -55l456 -1321q11 -31 -3 -51q-13 -19 -42 -19h-243q-54 0 -72 55l-76 221h-475l-74 -221q-18 -55 -69 -55h-246q-29 0 -42 19q-14 20 -3 51zM537 569h342l-166 531h-4z" />
<glyph unicode="B" horiz-adv-x="1398" d="M133 59v1327q0 60 60 60h522q287 0 422 -90t135 -293q0 -117 -54 -193q-52 -74 -137 -102q234 -69 234 -344q0 -424 -582 -424h-540q-60 0 -60 59zM479 268h236q141 0 196 39q56 39 56 135q0 92 -57 132q-56 40 -193 40h-238v-346zM479 864h230q120 0 172 38 q51 38 51 122q0 82 -50 118t-175 36h-228v-314z" />
<glyph unicode="C" horiz-adv-x="1280" d="M86 723q0 372 176 560q175 187 494 187q246 0 401 -100q39 -25 39 -55q0 -11 -6 -23l-68 -147q-16 -36 -49 -36q-15 0 -33 7q-103 47 -227 47q-191 0 -279 -105q-90 -107 -90 -335q0 -229 92 -335q92 -105 287 -105q117 0 232 53q18 9 33 9q32 0 49 -40l69 -149 q6 -12 6 -24q0 -29 -38 -54q-157 -101 -408 -101q-323 0 -501 186q-179 187 -179 560z" />
<glyph unicode="D" horiz-adv-x="1411" d="M133 59v1327q0 60 60 60h419q360 0 536 -169q177 -169 177 -546q0 -389 -176 -560t-535 -171h-421q-60 0 -60 59zM485 307h115q195 0 283 91t88 333q0 231 -89 320q-88 88 -284 88h-113v-832z" />
<glyph unicode="E" horiz-adv-x="1171" d="M133 59v1327q0 60 60 60h827q59 0 59 -60v-176q0 -61 -59 -61h-541v-272h512q58 0 58 -60v-164q0 -59 -58 -59h-512v-299h549q62 0 62 -59v-175q0 -61 -62 -61h-835q-60 0 -60 59z" />
<glyph unicode="F" horiz-adv-x="1142" d="M133 59v1327q0 60 60 60h821q59 0 59 -60v-176q0 -59 -59 -59h-533v-307h510q60 0 60 -60v-172q0 -57 -60 -57h-510v-496q0 -59 -59 -59h-229q-60 0 -60 59z" />
<glyph unicode="G" horiz-adv-x="1437" d="M86 723q0 747 727 747q268 0 430 -104q38 -24 38 -55q0 -11 -5 -23l-59 -149q-13 -36 -49 -36q-15 0 -35 7q-132 53 -267 53q-225 0 -323 -101q-99 -102 -99 -339q0 -234 96 -338q94 -102 298 -102q98 0 172 30v297h-179q-59 0 -59 58v145q0 59 59 59h433q59 0 59 -59 v-657q0 -47 -47 -74q-172 -105 -483 -105q-707 0 -707 746z" />
<glyph unicode="H" horiz-adv-x="1439" d="M133 59v1327q0 60 60 60h231q61 0 61 -60v-495h471v495q0 60 60 60h231q60 0 60 -60v-1327q0 -59 -60 -59h-231q-60 0 -60 59v521h-471v-521q0 -59 -61 -59h-231q-60 0 -60 59z" />
<glyph unicode="I" horiz-adv-x="638" d="M143 59v1327q0 60 60 60h231q62 0 62 -60v-1327q0 -59 -62 -59h-231q-60 0 -60 59z" />
<glyph unicode="J" horiz-adv-x="1034" d="M39 139l57 160q15 43 46 43q13 0 30 -8q100 -47 184 -47q203 0 203 227v872q0 60 59 60h234q59 0 59 -60v-903q0 -506 -493 -506q-206 0 -346 84q-38 22 -38 54q0 11 5 24z" />
<glyph unicode="K" horiz-adv-x="1327" d="M133 59v1327q0 60 60 60h231q61 0 61 -60v-466l408 473q47 53 90 53h256q31 0 40 -25t-11 -51l-512 -598l524 -696q21 -27 10 -51q-11 -25 -41 -25h-260q-46 0 -86 55l-418 551v-547q0 -59 -61 -59h-231q-60 0 -60 59z" />
<glyph unicode="L" horiz-adv-x="1130" d="M133 59v1327q0 60 60 60h231q61 0 61 -60v-1073h510q60 0 60 -59v-195q0 -59 -60 -59h-802q-60 0 -60 59z" />
<glyph unicode="M" horiz-adv-x="1687" d="M133 59v1327q0 60 60 60h215q46 0 69 -35l367 -612l366 612q18 35 68 35h215q61 0 61 -60v-1327q0 -59 -61 -59h-221q-58 0 -58 59v818l-323 -533q-18 -29 -47 -29q-31 0 -49 29l-322 533v-818q0 -59 -59 -59h-221q-60 0 -60 59z" />
<glyph unicode="N" horiz-adv-x="1452" d="M133 59v1327q0 60 60 60h223q54 0 76 -39l487 -817v796q0 60 59 60h219q62 0 62 -60v-1327q0 -59 -62 -59h-223q-50 0 -73 39l-488 817v-797q0 -59 -59 -59h-221q-60 0 -60 59z" />
<glyph unicode="O" horiz-adv-x="1472" d="M86 723q0 374 170 561q170 186 479 186q313 0 482 -186q169 -185 169 -561q0 -375 -169 -560q-169 -186 -482 -186q-309 0 -479 186q-170 187 -170 560zM442 723q0 -442 293 -442q151 0 222 107q73 109 73 335q0 444 -295 444q-293 0 -293 -444z" />
<glyph unicode="P" horiz-adv-x="1363" d="M133 59v1327q0 60 60 60h473q306 0 458 -122t152 -398q0 -277 -151 -399q-149 -121 -459 -121h-185v-347q0 -59 -59 -59h-229q-60 0 -60 59zM481 700h181q137 0 200 52q62 51 62 174q0 121 -62 172t-200 51h-181v-449z" />
<glyph unicode="Q" horiz-adv-x="1472" d="M86 729q0 369 170 556q169 185 479 185q313 0 483 -185q171 -186 171 -556q0 -246 -101 -419q-102 -174 -272 -247q64 -20 145 -20q18 0 51 5t41 5q45 0 45 -45v-145q0 -37 -16 -50q-17 -14 -61 -14q-150 0 -300 51q-149 51 -264 144q-275 23 -423 205t-148 530zM442 729 q0 -438 293 -438q150 0 222 106q73 108 73 332q0 438 -295 438q-293 0 -293 -438z" />
<glyph unicode="R" horiz-adv-x="1370" d="M133 59v1327q0 60 60 60h485q306 0 457 -118t151 -382q0 -340 -317 -436l307 -434q21 -27 9 -51q-13 -25 -44 -25h-237q-54 0 -84 47l-283 414h-156v-402q0 -59 -59 -59h-229q-60 0 -60 59zM481 743h191q140 0 201 49t61 154q0 113 -60 158t-200 45h-193v-406z" />
<glyph unicode="S" horiz-adv-x="1210" d="M82 143l57 156q13 42 46 42q13 0 30 -7q145 -62 311 -62q262 0 262 138q0 42 -37 78q-38 36 -82 56q-30 13 -137 52q-71 24 -131 50q-42 18 -114 62q-66 40 -102 84q-35 42 -61 113q-26 70 -26 158q0 201 139 304q137 101 398 101q254 0 412 -82q38 -21 38 -52 q0 -10 -4 -21l-57 -148q-15 -41 -49 -41q-12 0 -27 6q-126 44 -278 44q-219 0 -219 -121q0 -28 13 -51q10 -18 29 -37q13 -13 55 -35t63 -31q30 -13 83 -33q27 -11 60.5 -23.5t40.5 -15.5q24 -9 88 -39q63 -29 87 -49q41 -34 66 -56q41 -36 59 -74q13 -27 31 -90 q15 -53 15 -113q0 -216 -155 -321q-154 -105 -402 -105q-293 0 -469 90q-37 18 -37 50q0 11 4 23z" />
<glyph unicode="T" horiz-adv-x="1179" d="M51 1194v192q0 60 60 60h956q61 0 61 -60v-192q0 -61 -61 -61h-301v-1074q0 -59 -61 -59h-230q-61 0 -61 59v1074h-303q-60 0 -60 61z" />
<glyph unicode="U" horiz-adv-x="1417" d="M125 532v854q0 60 59 60h232q61 0 61 -60v-823q0 -139 54 -207q54 -67 178 -67q123 0 178 67t55 207v823q0 60 59 60h232q59 0 59 -60v-854q0 -555 -583 -555q-584 0 -584 555z" />
<glyph unicode="V" horiz-adv-x="1400" d="M47 1376q-10 30 2 50t43 20h246q56 0 72 -55l206 -695l80 -334h6l82 334l205 695q15 55 74 55h246q31 0 43 -20t2 -50l-436 -1321q-18 -55 -74 -55h-287q-56 0 -74 55z" />
<glyph unicode="W" horiz-adv-x="2123" d="M57 1374q-8 33 4 52q12 20 41 20h240q60 0 72 -55l149 -611l78 -354h6l80 356l158 611q12 53 73 53h207q62 0 74 -53l158 -611l80 -356h8l76 354l149 611q12 55 72 55h239q29 0 41 -20q12 -19 4 -52l-362 -1319q-16 -55 -74 -55h-256q-59 0 -74 55l-163 584l-72 295h-6 l-72 -295l-164 -584q-16 -55 -73 -55h-254q-58 0 -74 55z" />
<glyph unicode="X" horiz-adv-x="1386" d="M49 23q-10 22 8 51l445 657l-432 641q-19 28 -8 50q12 24 40 24h252q51 0 84 -53l256 -396l258 396q35 53 84 53h248q28 0 40 -24q11 -23 -7 -50l-434 -639l446 -659q18 -29 8 -51q-11 -23 -41 -23h-247q-53 0 -86 55l-271 410l-270 -410q-34 -55 -86 -55h-246 q-30 0 -41 23z" />
<glyph unicode="Y" horiz-adv-x="1384" d="M45 1422q12 24 43 24h244q53 0 80 -55l194 -390l84 -192h4l84 192l195 390q27 55 80 55h243q31 0 43 -24t-4 -50l-467 -840v-473q0 -59 -59 -59h-234q-59 0 -59 59v473l-467 840q-16 26 -4 50z" />
<glyph unicode="Z" horiz-adv-x="1269" d="M98 59v185q0 48 37 94l606 795h-565q-59 0 -59 61v192q0 60 59 60h916q59 0 59 -60v-184q0 -44 -37 -94l-602 -795h594q59 0 59 -59v-195q0 -59 -59 -59h-948q-60 0 -60 59z" />
<glyph unicode="[" horiz-adv-x="782" d="M193 -168v1559q0 55 57 55h399q56 0 56 -55v-121q0 -58 -56 -58h-157v-1204h157q56 0 56 -55v-121q0 -57 -56 -57h-399q-57 0 -57 57z" />
<glyph unicode="\" horiz-adv-x="948" d="M23 1426q12 20 47 20h194q52 0 74 -51l586 -1325q15 -30 2 -51q-12 -19 -47 -19h-193q-54 0 -76 51l-585 1325q-15 29 -2 50z" />
<glyph unicode="]" horiz-adv-x="784" d="M78 -47q0 55 57 55h158v1204h-158q-57 0 -57 58v121q0 55 57 55h400q57 0 57 -55v-1559q0 -57 -57 -57h-400q-57 0 -57 57v121z" />
<glyph unicode="^" d="M100 719q-12 21 6 53l345 629q24 45 75 45h185q53 0 77 -45l342 -629q17 -34 6 -53q-12 -21 -46 -21h-177q-51 0 -75 45l-220 410l-219 -410q-24 -45 -75 -45h-177q-35 0 -47 21z" />
<glyph unicode="_" horiz-adv-x="1083" d="M35 -127q0 57 55 57h903q56 0 56 -57v-63q0 -56 -56 -56h-903q-55 0 -55 56v63z" />
<glyph unicode="`" horiz-adv-x="747" d="M111 1455q6 22 32 22h242q47 0 64 -39l81 -178q15 -46 -34 -46h-125q-43 0 -72 29l-176 174q-18 17 -12 38z" />
<glyph unicode="a" horiz-adv-x="1200" d="M63 303q0 91 34 156q34 66 89 104q57 40 150 62q91 22 189 31q112 11 235 12v39q0 153 -211 153q-142 0 -295 -57q-15 -7 -27 -7q-31 0 -43 42l-41 127q-4 12 -4 22q0 30 37 47q186 80 422 80q485 0 485 -389v-668q0 -57 -55 -57h-186q-50 0 -58 45l-12 90 q-111 -151 -360 -151q-159 0 -253 82q-96 84 -96 237zM381 326q0 -58 41 -93q40 -34 113 -34q112 0 168 56q57 57 57 148v86q-205 -5 -289 -37q-90 -34 -90 -126z" />
<glyph unicode="b" horiz-adv-x="1308" d="M127 57v1334q0 55 55 55h221q58 0 58 -55v-426q40 68 131 109q89 40 190 40q216 0 331 -143q116 -145 116 -426q0 -282 -116 -425t-331 -143q-101 0 -196 42q-93 41 -137 116l-11 -90q-4 -45 -57 -45h-199q-55 0 -55 57zM459 547q0 -309 217 -309q108 0 161 72 q52 71 52 235q0 165 -52 236q-53 73 -161 73q-217 0 -217 -307z" />
<glyph unicode="c" horiz-adv-x="1067" d="M78 547q0 277 150 422q149 145 411 145q209 0 328 -74q35 -20 35 -51q0 -11 -5 -24l-57 -131q-14 -34 -48 -34q-15 0 -34 7q-87 37 -180 37q-260 0 -260 -297q0 -153 68 -225q69 -74 192 -74q108 0 190 43q18 7 32 7q32 0 48 -36l58 -129q5 -12 5 -23q0 -31 -36 -55 q-50 -32 -142 -55q-94 -23 -186 -23q-263 0 -417 146q-152 145 -152 424z" />
<glyph unicode="d" horiz-adv-x="1308" d="M80 545q0 282 117 426q116 143 331 143q100 0 190 -40q92 -41 132 -109v426q0 55 55 55h221q58 0 58 -55v-1334q0 -57 -58 -57h-196q-50 0 -58 45l-10 90q-45 -74 -138 -116t-196 -42q-214 0 -331 144t-117 424zM420 545q0 -162 53 -235q53 -72 160 -72q219 0 219 307 q0 309 -219 309q-107 0 -160 -73t-53 -236z" />
<glyph unicode="e" horiz-adv-x="1206" d="M78 545q0 273 145 421t395 148q243 0 377 -143q135 -144 135 -383v-101q0 -55 -57 -55h-665q18 -104 95 -163q76 -58 202 -58q140 0 268 61q16 7 29 7q31 0 45 -41l36 -109q4 -11 4 -20q0 -31 -38 -50q-168 -84 -373 -84q-285 0 -442 149q-156 148 -156 421zM397 623h437 v14q0 113 -54 178q-53 64 -155 64q-207 0 -228 -256z" />
<glyph unicode="f" horiz-adv-x="792" d="M35 868v133q0 58 55 58h92v78q0 169 88 248t269 79q105 0 166 -18q51 -15 51 -57v-121q0 -26 -14 -42q-14 -15 -35 -14q-74 9 -86 9q-59 0 -85 -26t-26 -83v-53h184q58 0 58 -58v-133q0 -55 -58 -55h-184v-762q0 -51 -57 -51h-213q-58 0 -58 51v762h-92q-55 0 -55 55z " />
<glyph unicode="g" horiz-adv-x="1247" d="M82 623q0 247 114 368t306 121q99 0 183 -41q83 -41 126 -108l10 81q6 46 58 46h190q57 0 57 -56v-833q0 -222 -141 -336q-142 -115 -405 -115q-252 0 -385 64q-37 19 -37 52q0 8 2 17l37 127q12 41 43 41q12 0 26 -6q138 -49 285 -49q262 0 262 219v72 q-41 -70 -121 -108q-81 -38 -178 -38q-196 0 -314 117t-118 365zM414 623q0 -256 192 -256q195 0 195 262q0 248 -195 248q-192 0 -192 -254z" />
<glyph unicode="h" horiz-adv-x="1269" d="M127 57v1334q0 55 55 55h221q58 0 58 -55v-430q96 153 327 153q367 0 367 -409v-648q0 -57 -57 -57h-221q-56 0 -56 57v586q0 95 -38 144t-126 49q-97 0 -147 -60q-49 -59 -49 -158v-563q0 -55 -58 -55h-221q-55 0 -55 57z" />
<glyph unicode="i" horiz-adv-x="591" d="M127 1257v129q0 56 55 56h228q55 0 55 -56v-129q0 -57 -55 -57h-228q-55 0 -55 57zM129 57v977q0 56 55 56h224q55 0 55 -56v-977q0 -57 -55 -57h-224q-55 0 -55 57z" />
<glyph unicode="j" horiz-adv-x="632" d="M-29 -27q0 47 49 47q15 0 35 -4t37 -4q78 0 78 105v917q0 56 55 56h221q58 0 58 -56v-950q0 -172 -75 -249t-243 -77q-98 0 -161 17q-54 12 -54 57v141zM166 1257v129q0 56 57 56h228q55 0 55 -56v-129q0 -57 -55 -57h-228q-57 0 -57 57z" />
<glyph unicode="k" horiz-adv-x="1165" d="M127 57v1334q0 55 55 55h221q58 0 58 -55v-646l293 304q38 41 86 41h239q31 0 41 -24t-14 -48l-414 -420l436 -526q21 -26 13 -49t-37 -23h-246q-52 0 -86 45l-311 381v-369q0 -57 -58 -57h-221q-55 0 -55 57z" />
<glyph unicode="l" horiz-adv-x="587" d="M127 57v1334q0 55 55 55h221q58 0 58 -55v-1334q0 -57 -58 -57h-221q-55 0 -55 57z" />
<glyph unicode="m" horiz-adv-x="1878" d="M121 57v977q0 56 57 56h199q51 0 57 -46l17 -92q107 162 321 162q227 0 303 -172q112 172 350 172q338 0 338 -401v-656q0 -57 -55 -57h-219q-57 0 -57 57v594q0 187 -144 187q-88 0 -135 -57q-47 -58 -47 -146v-578q0 -57 -55 -57h-217q-56 0 -56 57v596q0 93 -33 139 t-108 46q-87 0 -136 -58q-48 -57 -48 -151v-572q0 -57 -58 -57h-217q-57 0 -57 57z" />
<glyph unicode="n" horiz-adv-x="1261" d="M121 57v977q0 56 55 56h199q51 0 57 -46l17 -92q105 162 333 162q363 0 363 -407v-650q0 -57 -55 -57h-222q-57 0 -57 57v586q0 99 -37 145q-39 48 -125 48q-95 0 -145 -59q-49 -58 -49 -159v-561q0 -57 -58 -57h-221q-55 0 -55 57z" />
<glyph unicode="o" horiz-adv-x="1253" d="M78 545q0 279 146 424t403 145t403 -145q148 -146 148 -424q0 -276 -148 -422t-403 -146t-403 146q-146 145 -146 422zM418 545q0 -309 209 -309q211 0 211 309q0 311 -211 311q-209 0 -209 -311z" />
<glyph unicode="p" horiz-adv-x="1304" d="M121 -168v1202q0 56 57 56h197q51 0 57 -46l10 -90q44 72 139 116q96 44 195 44q216 0 332 -143q117 -144 117 -426q0 -280 -117 -424t-332 -144q-99 0 -190 38q-90 37 -131 112v-295q0 -57 -56 -57h-221q-57 0 -57 57zM453 545q0 -307 219 -307q106 0 159 72 q54 74 54 235q0 162 -54 236q-53 73 -159 73q-219 0 -219 -309z" />
<glyph unicode="q" horiz-adv-x="1304" d="M80 545q0 282 117 426q116 143 331 143q100 0 196 -44q94 -43 138 -116l10 90q6 46 58 46h196q58 0 58 -56v-1202q0 -57 -58 -57h-221q-55 0 -55 57v293q-41 -72 -130 -110q-90 -38 -192 -38q-214 0 -331 144t-117 424zM420 545q0 -162 53 -235q53 -72 160 -72 q219 0 219 307q0 309 -219 309q-107 0 -160 -73t-53 -236z" />
<glyph unicode="r" horiz-adv-x="864" d="M121 57v977q0 56 57 56h199q51 0 57 -50l17 -139q38 81 119 140q84 61 194 61q53 0 53 -51v-226q0 -45 -49 -45q-2 0 -34 2t-42 2q-109 0 -173 -73t-64 -187v-467q0 -57 -56 -57h-221q-57 0 -57 57z" />
<glyph unicode="s" horiz-adv-x="995" d="M68 104l34 119q9 40 44 40q12 0 26 -5q122 -39 236 -39q192 0 192 92q0 45 -44 72q-40 25 -146 59q-166 56 -228 103q-112 84 -112 250q0 160 113 239q115 80 321 80q209 0 338 -55q40 -16 40 -49q0 -10 -3 -21l-35 -115q-13 -40 -46 -40q-11 0 -24 4q-111 34 -219 34 q-158 0 -158 -88q0 -44 44 -71q42 -26 151 -66q80 -28 132 -53q49 -23 101 -63q56 -43 78 -96q25 -59 25 -134q0 -324 -463 -324q-205 0 -361 60q-39 16 -39 47q0 10 3 20z" />
<glyph unicode="t" horiz-adv-x="808" d="M18 868v133q0 58 58 58h98v248q0 49 57 49h205q58 0 58 -49v-248h202q56 0 56 -58v-133q0 -55 -56 -55h-198v-448q0 -76 25 -102q25 -27 98 -27q14 0 42 5t39 5q46 0 48 -51l8 -136q0 -24 -13 -37t-38 -20q-74 -20 -183 -20q-188 0 -270 78q-84 80 -84 268v485h-94 q-58 0 -58 55z" />
<glyph unicode="u" horiz-adv-x="1249" d="M111 371v663q0 56 57 56h221q55 0 55 -56v-598q0 -93 34 -139q35 -47 120 -47q92 0 143 57q52 58 52 154v573q0 56 57 56h221q55 0 55 -56v-977q0 -57 -55 -57h-199q-52 0 -59 45l-14 94q-100 -162 -320 -162q-187 0 -278 96q-90 95 -90 298z" />
<glyph unicode="v" horiz-adv-x="1155" d="M35 1024q-10 28 2 47q13 19 41 19h225q53 0 68 -52l129 -430l75 -282h7l73 282l129 430q17 52 68 52h227q27 0 40 -19q12 -18 1 -47l-348 -979q-18 -45 -72 -45h-245q-54 0 -72 45z" />
<glyph unicode="w" horiz-adv-x="1773" d="M47 1024q-10 28 2 47q13 19 43 19h227q56 0 68 -52l121 -487l41 -215h4l49 215l141 491q15 48 62 48h162q48 0 63 -48l141 -491l50 -215h4l43 215l118 487q12 52 68 52h227q48 0 48 -37q0 -12 -5 -29l-286 -969q-16 -55 -72 -55h-217q-56 0 -74 55l-129 426l-55 226h-8 l-56 -226l-127 -426q-18 -55 -75 -55h-217q-54 0 -70 55z" />
<glyph unicode="x" horiz-adv-x="1150" d="M37 20q-8 22 10 50l352 481l-342 469q-20 26 -11 48t38 22h227q57 0 86 -46l181 -270l180 270q29 46 86 46h221q29 0 37 -21t-10 -49l-342 -469l354 -481q18 -27 9 -48q-9 -22 -38 -22h-229q-58 0 -86 45l-187 285l-190 -285q-29 -45 -88 -45h-221q-30 0 -37 20z" />
<glyph unicode="y" horiz-adv-x="1146" d="M39 1024q-11 29 0 47q11 19 39 19h229q55 0 70 -52l143 -446l78 -287h6l64 287l110 446q12 52 66 52h225q28 0 41 -19q12 -18 4 -47l-299 -922q-64 -200 -145 -271q-84 -73 -279 -73q-141 0 -219 23q-55 12 -53 57l8 135q2 47 49 47q7 0 47 -6q41 -6 78 -6q69 0 93 34 q12 17 12 40q0 21 -11 47z" />
<glyph unicode="z" horiz-adv-x="1083" d="M82 57v117q0 36 24 70l492 581h-442q-58 0 -58 56v153q0 56 58 56h780q55 0 55 -56v-116q0 -46 -30 -80l-484 -574h465q55 0 55 -55v-152q0 -57 -55 -57h-805q-55 0 -55 57z" />
<glyph unicode="{" horiz-adv-x="782" d="M51 537v147q0 57 55 57h31q57 0 84 67q27 66 27 226q0 245 67 328q67 84 263 84h98q57 0 57 -55v-123q0 -56 -57 -56h-33q-62 0 -80 -48t-18 -175q0 -334 -180 -379q180 -45 180 -381q0 -125 18 -173t80 -48h33q57 0 57 -55v-121q0 -57 -57 -57h-98q-196 0 -263 84 q-67 83 -67 327q0 161 -27 228t-84 67h-31q-55 0 -55 56z" />
<glyph unicode="|" horiz-adv-x="665" d="M190 -168v1598q0 57 58 57h170q55 0 55 -57v-1598q0 -57 -55 -57h-170q-58 0 -58 57z" />
<glyph unicode="}" horiz-adv-x="782" d="M49 -47q0 55 57 55h33q64 0 82 48q19 51 19 173q0 336 180 381q-180 45 -180 381q0 122 -19 173q-18 48 -82 48h-33q-57 0 -57 56v123q0 55 57 55h101q192 0 261 -84t69 -328q0 -161 25 -226q26 -67 83 -67h31q55 0 55 -57v-147q0 -56 -55 -56h-31q-58 0 -83 -67 q-25 -66 -25 -228q0 -243 -69 -327t-261 -84h-101q-57 0 -57 57v121z" />
<glyph unicode="~" d="M113 676q7 120 71 194q63 74 170 74q101 0 215 -51l101 -47q75 -35 121 -35q66 0 96 66l12 32q18 51 76 21l108 -53q46 -24 41 -86q-6 -114 -70 -187q-65 -74 -171 -74q-88 0 -215 54l-99 45q-75 35 -123 35q-66 0 -96 -64l-12 -35q-17 -47 -76 -20l-106 55 q-48 25 -43 76z" />
<glyph unicode="&#xa1;" horiz-adv-x="653" d="M129 -244l61 822q5 53 60 53h156q52 0 57 -53l61 -822q4 -59 -57 -59h-279q-63 0 -59 59zM154 813v221q0 56 55 56h235q56 0 56 -56v-221q0 -55 -60 -55h-225q-61 0 -61 55z" />
<glyph unicode="&#xa2;" horiz-adv-x="1116" d="M80 545q0 249 127 392q128 144 350 171v131q0 55 57 55h99q55 0 55 -55v-131q148 -16 240 -70q49 -28 28 -75l-59 -129q-21 -51 -80 -27q-93 37 -195 37q-134 0 -208 -74t-74 -225q0 -297 285 -297q111 0 202 41q56 24 80 -27l60 -129q19 -48 -31 -78q-82 -54 -248 -71 v-131q0 -58 -55 -58h-99q-57 0 -57 58v133q-225 27 -351 169q-126 143 -126 390z" />
<glyph unicode="&#xa3;" horiz-adv-x="1366" d="M78 690v74q0 41 43 41h104q-67 130 -67 231q0 186 137 311q135 123 418 123q263 0 391 -108q127 -108 127 -293q0 -96 -53 -96h-203q-49 0 -49 41q0 4 2 24t2 27q0 60 -52 94q-53 35 -151 35q-116 0 -174 -53q-57 -53 -57 -137q0 -73 55 -199h354q43 0 43 -41v-74 q0 -43 -43 -43h-299q31 -74 31 -135q0 -147 -164 -242q76 19 145 19q48 0 138 -16q84 -15 131 -15q74 0 104 34q31 35 35 101q2 51 66 51h149q64 0 64 -71q0 -192 -69 -291q-68 -98 -245 -98q-99 0 -228 29q-133 30 -214 30q-151 0 -256 -45q-62 -24 -80 4l-113 160 q-33 46 13 74q227 127 227 282q0 59 -35 129h-184q-43 0 -43 43z" />
<glyph unicode="&#xa4;" horiz-adv-x="1271" d="M186 180q-34 29 0 60l84 84q-80 106 -80 258q0 150 80 256l-84 84q-30 30 0 59l47 47q31 31 62 0l84 -86q108 72 256 72q150 0 258 -72l86 86q27 28 59 0l47 -47q30 -29 0 -59l-86 -86q80 -106 80 -254q0 -155 -80 -256l86 -86q31 -29 0 -60l-47 -47q-30 -29 -59 0 l-86 88q-107 -74 -258 -74q-147 0 -256 74l-84 -88q-29 -30 -62 0zM414 582q0 -103 60 -163q61 -61 161 -61q101 0 162 61q59 59 59 163q0 101 -59 160q-61 61 -162 61t-162 -61q-59 -59 -59 -160z" />
<glyph unicode="&#xa5;" horiz-adv-x="1343" d="M37 1423q12 23 43 23h244q55 0 79 -55l267 -578h6l264 578q22 55 80 55h244q31 0 43 -23t-4 -51l-316 -584h178q43 0 43 -40v-72q0 -43 -43 -43h-256l-61 -113v-35h317q43 0 43 -41v-71q0 -43 -43 -43h-317v-271q0 -59 -60 -59h-233q-59 0 -59 59v271h-318q-43 0 -43 43 v71q0 41 43 41h318v35l-62 113h-256q-43 0 -43 43v72q0 40 43 40h178l-315 584q-16 28 -4 51z" />
<glyph unicode="&#xa6;" horiz-adv-x="665" d="M190 -168v574q0 57 58 57h170q55 0 55 -57v-574q0 -57 -55 -57h-170q-58 0 -58 57zM190 856v574q0 57 58 57h170q55 0 55 -57v-574q0 -57 -55 -57h-170q-58 0 -58 57z" />
<glyph unicode="&#xa7;" horiz-adv-x="1376" d="M117 649q-2 87 55 157q57 71 158 95q-70 51 -109 110q-37 56 -37 136q0 166 123 244q121 77 381 77q244 0 408 -57q51 -21 41 -72l-27 -120q-12 -53 -72 -37q-137 35 -293 35q-123 0 -177 -26q-52 -25 -52 -77q0 -26 15 -47q14 -19 63 -43q45 -22 78 -35q38 -15 114 -41 q242 -83 352 -162q111 -79 111 -223q0 -157 -215 -237q162 -95 162 -242q0 -162 -153 -246t-429 -84q-251 0 -399 58q-51 21 -39 71l25 121q12 53 71 37q126 -35 322 -35q270 0 270 103q0 17 -8 33q-8 15 -26 29q-4 3 -15.5 11.5t-17.5 13.5q-11 8 -46 22q-33 13 -52 20 q-42 15 -57 20q-42 14 -56 18q-255 89 -336 140q-133 84 -133 233zM442 662q0 -70 119 -121q67 -29 244 -88q117 28 121 104q0 64 -82 107q-77 40 -287 108q-115 -27 -115 -110z" />
<glyph unicode="&#xa8;" horiz-adv-x="747" d="M18 1270v125q0 55 58 55h170q55 0 55 -55v-125q0 -56 -55 -56h-170q-58 0 -58 56zM446 1270v125q0 55 56 55h170q57 0 57 -55v-125q0 -56 -57 -56h-170q-56 0 -56 56z" />
<glyph unicode="&#xa9;" horiz-adv-x="1792" d="M119 723q0 317 206 532t570 215q366 0 573 -215q207 -214 207 -532q0 -317 -207 -532q-207 -214 -573 -214q-365 0 -570 214q-206 215 -206 532zM283 723q0 -260 158 -425q159 -167 454 -167q296 0 455 167q159 166 159 423q0 260 -159 428t-455 168q-295 0 -454 -168 q-158 -167 -158 -426zM481 731q0 213 120 323q119 109 323 109q163 0 260 -59q36 -20 20 -57l-45 -109q-16 -38 -59 -20q-60 28 -144 28q-93 0 -148 -53q-54 -53 -54 -162q0 -107 54 -161t148 -54q81 0 150 33q45 18 61 -21l43 -108q15 -34 -20 -55q-43 -29 -117 -46 q-77 -18 -147 -18q-202 0 -324 110q-121 109 -121 320z" />
<glyph unicode="&#xaa;" horiz-adv-x="978" d="M51 1247q0 76 29 129q29 54 74 84t124 48q80 18 152 24q81 7 184 8v37q0 61 -35 87q-37 28 -120 28q-105 0 -244 -52q-52 -18 -68 31l-34 103q-12 41 32 59q154 68 342 68q398 0 398 -312v-532q0 -53 -54 -53h-143q-48 0 -55 43l-8 49q-89 -105 -285 -105q-129 0 -210 67 q-79 66 -79 189zM319 1266q0 -95 113 -95q90 0 136 43t46 113v64q-148 0 -223 -28q-72 -27 -72 -97z" />
<glyph unicode="&#xab;" horiz-adv-x="1083" d="M61 594q0 7 9 27l168 286q22 39 67 39h187q28 0 37 -17q9 -19 -5 -40l-174 -295l174 -295q14 -21 5 -40q-9 -17 -37 -17h-187q-46 0 -67 39l-168 286q-9 20 -9 27zM522 592q0 11 8 29l168 286q22 39 68 39h186q30 0 37 -17q8 -19 -6 -40l-174 -295l174 -295q14 -23 6 -41 q-7 -16 -37 -16h-186q-47 0 -68 39l-168 286q-8 16 -8 25z" />
<glyph unicode="&#xac;" horiz-adv-x="1290" d="M106 637v160q0 55 58 55h923q58 0 58 -55v-512q0 -58 -58 -58h-219q-57 0 -57 58v295h-647q-58 0 -58 57z" />
<glyph unicode="&#xad;" horiz-adv-x="823" d="M80 494v153q0 55 57 55h549q57 0 57 -53v-155q0 -56 -57 -56h-551q-55 0 -55 56z" />
<glyph unicode="&#xae;" horiz-adv-x="970" d="M113 1108q0 154 97 258t275 104q180 0 275 -104q96 -105 96 -258t-96 -258t-275 -105q-177 0 -275 105q-97 104 -97 258zM197 1108q0 -128 71 -206q72 -79 217 -79q143 0 215 79t72 206q0 126 -72 206q-72 79 -215 79q-145 0 -217 -79q-71 -78 -71 -206zM332 934v356 q0 25 24 25h144q180 0 180 -141q0 -92 -86 -121l80 -117q6 -10 2 -17q-5 -8 -14 -8h-74q-20 0 -31 17l-68 108h-43v-102q0 -23 -22 -23h-68q-24 0 -24 23zM446 1122h46q40 0 57 12q16 12 16 40q0 51 -71 51h-48v-103z" />
<glyph unicode="&#xaf;" horiz-adv-x="747" d="M8 1278v80q0 53 53 53h625q53 0 53 -53v-80q0 -53 -53 -53h-625q-53 0 -53 53z" />
<glyph unicode="&#xb0;" horiz-adv-x="788" d="M72 1157q0 135 91 220t232 85t233 -84q91 -84 91 -219q0 -136 -91 -221q-92 -86 -233 -86t-232 85t-91 220zM238 1157q0 -69 44 -111t113 -42t113 43q45 43 45 110q0 69 -45 112q-46 44 -113 44q-70 0 -113 -43q-44 -44 -44 -113z" />
<glyph unicode="&#xb1;" d="M111 55v97q0 55 55 55h905q57 0 57 -55v-97q0 -55 -57 -55h-905q-55 0 -55 55zM111 741v154q0 55 55 55h301v279q0 55 57 55h189q55 0 55 -55v-279h303q57 0 57 -55v-154q0 -55 -57 -55h-303v-280q0 -56 -55 -56h-189q-57 0 -57 56v280h-301q-55 0 -55 55z" />
<glyph unicode="&#xb2;" horiz-adv-x="886" d="M86 1632q0 122 85 195q86 74 259 74q177 0 263 -77q85 -76 85 -200q0 -128 -101 -236q-104 -111 -235 -188h306q55 0 55 -53v-88q0 -55 -55 -55h-607q-53 0 -53 55v80q0 27 37 51q403 240 403 418q0 98 -110 98q-107 0 -107 -84q0 -14 1 -24t1 -27q0 -43 -49 -43h-121 q-45 0 -51 41q-6 29 -6 63z" />
<glyph unicode="&#xb3;" horiz-adv-x="886" d="M84 1106l35 88q21 51 71 29q98 -43 209 -43q131 0 131 94q0 86 -116 86h-107q-53 0 -53 53v68q0 53 53 53h103q108 0 108 86q0 82 -133 82q-95 0 -190 -39q-52 -23 -70 25l-35 90q-15 36 29 59q123 57 303 57q154 0 247 -59q95 -60 95 -180q0 -137 -117 -189 q133 -57 133 -202q0 -135 -91 -207t-257 -72q-186 0 -315 62q-47 23 -33 59z" />
<glyph unicode="&#xb4;" horiz-adv-x="747" d="M219 1260l82 178q17 39 61 39h242q27 0 32 -22t-13 -38l-174 -174q-29 -29 -72 -29h-125q-23 0 -32 14q-9 13 -1 32z" />
<glyph unicode="&#xb5;" horiz-adv-x="1251" d="M121 -168v1202q0 56 57 56h221q56 0 56 -56v-575q0 -96 51 -153q50 -56 143 -56q86 0 120 46t34 138v600q0 56 57 56h221q56 0 56 -56v-663q0 -202 -89 -299t-278 -97q-223 0 -319 162l4 -309q0 -53 -58 -53h-219q-57 0 -57 57z" />
<glyph unicode="&#xb6;" horiz-adv-x="1150" d="M92 987q0 225 137 342q136 117 363 117h457q57 0 57 -55v-60q0 -55 -57 -55h-70q-59 0 -82 -24q-22 -23 -22 -83v-1140q0 -137 -55 -201t-191 -64q-100 0 -152 29q-28 12 -28 43v78q0 29 40 29q16 0 41 -4q32 -5 45 -5q84 0 84 119v475h-63q-224 0 -364 118t-140 341z " />
<glyph unicode="&#xb7;" horiz-adv-x="532" d="M100 461v217q0 55 62 55h211q59 0 59 -55v-217q0 -58 -55 -58h-221q-56 0 -56 58z" />
<glyph unicode="&#xb8;" horiz-adv-x="747" d="M264 -236q0 33 35 33h63q95 0 95 64q0 94 -174 157h106q102 -18 177 -75t75 -136t-60 -123q-61 -44 -175 -44q-70 0 -111 14q-31 6 -31 35v75z" />
<glyph unicode="&#xb9;" horiz-adv-x="886" d="M133 1659q-23 33 10 57l224 152q27 20 69 20h139q54 0 54 -55v-774q0 -55 -54 -55h-139q-55 0 -55 55v573l-125 -67q-48 -25 -70 12z" />
<glyph unicode="&#xba;" horiz-adv-x="1011" d="M59 1446q0 223 119 339t328 116t328 -116q118 -115 118 -339t-118 -339q-119 -116 -328 -116t-328 116t-119 339zM340 1446q0 -238 166 -238t166 238q0 237 -166 237t-166 -237z" />
<glyph unicode="&#xbb;" horiz-adv-x="1083" d="M93 258q-10 18 5 41l176 295l-176 295q-15 22 -4 40q10 17 37 17h186q45 0 68 -39l168 -286q8 -18 8 -27t-8 -27l-168 -286q-24 -39 -68 -39h-186q-29 0 -38 16zM554 258q-10 18 5 41l174 295l-174 295q-14 21 -5 40q8 17 36 17h186q48 0 70 -39l168 -286q8 -18 8 -27 t-8 -27l-168 -286q-24 -39 -70 -39h-186q-27 0 -36 16z" />
<glyph unicode="&#xbc;" horiz-adv-x="2074" d="M133 1217q-23 33 10 57l224 151q29 21 69 21h139q54 0 54 -55v-775q0 -55 -54 -55h-139q-55 0 -55 55v574l-125 -68q-47 -25 -70 13zM543 57l794 1336q30 53 82 53h133q30 0 38 -14q9 -15 -7 -41l-795 -1336q-30 -55 -81 -55h-134q-63 0 -30 57zM1229 221v98q0 28 20 54 l408 481q24 29 59 29h142q55 0 55 -56v-458h69q56 0 56 -54v-88q0 -53 -56 -53h-69v-121q0 -55 -55 -55h-138q-53 0 -53 55v121h-383q-55 0 -55 47zM1444 369h223v262z" />
<glyph unicode="&#xbd;" horiz-adv-x="2074" d="M133 1219q-23 33 10 57l224 151q29 21 69 21h139q54 0 54 -55v-775q0 -55 -54 -55h-139q-55 0 -55 55v574l-125 -68q-47 -25 -70 13zM475 57l795 1336q30 53 82 53h133q64 0 31 -55l-795 -1336q-30 -55 -82 -55h-133q-64 0 -31 57zM1286 627q0 -35 6 -64q6 -41 51 -41 h121q49 0 49 43q0 18 -1 28t-1 23q0 84 107 84q111 0 111 -98q0 -178 -404 -418q-37 -24 -37 -51v-80q0 -55 53 -55h607q55 0 55 55v88q0 54 -55 54h-306q133 78 235 187q101 108 101 236q0 124 -85 200q-86 77 -263 77q-173 0 -259 -74q-85 -73 -85 -194z" />
<glyph unicode="&#xbe;" horiz-adv-x="2074" d="M83 634q-7 11 1 36l35 88q21 50 71 28q98 -43 209 -43q131 0 131 95q0 86 -116 86h-107q-53 0 -53 53v67q0 54 53 54h103q108 0 108 86q0 82 -133 82q-95 0 -190 -39q-52 -23 -70 24l-35 90q-15 37 29 60q123 57 303 57q154 0 247 -59q95 -60 95 -180q0 -137 -117 -189 q133 -57 133 -203q0 -134 -91 -206t-257 -72q-189 0 -315 61q-26 12 -34 24zM573 57l795 1336q30 53 82 53h133q64 0 31 -55l-795 -1336q-30 -55 -82 -55h-133q-64 0 -31 57zM1229 221v98q0 28 20 54l408 481q24 29 59 29h142q55 0 55 -56v-458h69q56 0 56 -54v-88 q0 -53 -56 -53h-69v-121q0 -55 -55 -55h-138q-53 0 -53 55v121h-383q-55 0 -55 47zM1444 369h223v262z" />
<glyph unicode="&#xbf;" horiz-adv-x="1040" d="M76 16q0 -338 483 -338q244 0 424 86q54 23 33 74l-58 148q-21 52 -77 30q-133 -57 -273 -57q-110 0 -151 29t-41 92q0 57 30 111q29 52 75 98q29 29 87 83q46 43 74 86q31 48 31 91v26q0 56 -58 56h-194q-60 0 -60 -56v-26q0 -41 -33 -78q-34 -39 -82 -79 q-58 -49 -96 -87q-45 -45 -80 -123q-34 -75 -34 -166zM391 813v221q0 56 55 56h234q57 0 57 -56v-223q0 -53 -61 -53h-225q-60 0 -60 55z" />
<glyph unicode="&#xc0;" horiz-adv-x="1419" d="M37 70l457 1321q18 55 71 55h289q54 0 72 -55l456 -1321q11 -31 -3 -51q-13 -19 -42 -19h-243q-54 0 -72 55l-76 221h-475l-74 -221q-18 -55 -69 -55h-246q-29 0 -42 19q-14 20 -3 51zM389 1792q6 23 33 23h244q45 0 63 -41l82 -179q8 -18 -1 -31q-9 -14 -34 -14h-125 q-42 0 -71 29l-179 174q-18 17 -12 39zM537 569h342l-166 531h-4z" />
<glyph unicode="&#xc1;" horiz-adv-x="1419" d="M37 70l457 1321q18 55 71 55h289q54 0 72 -55l456 -1321q11 -31 -3 -51q-13 -19 -42 -19h-243q-54 0 -72 55l-76 221h-475l-74 -221q-18 -55 -69 -55h-246q-29 0 -42 19q-14 20 -3 51zM537 569h342l-166 531h-4zM608 1595l82 179q18 41 64 41h243q27 0 32 -23t-13 -39 l-176 -174q-34 -29 -72 -29h-125q-25 0 -34 14q-9 13 -1 31z" />
<glyph unicode="&#xc2;" horiz-adv-x="1419" d="M37 70l457 1321q18 55 71 55h289q54 0 72 -55l456 -1321q11 -31 -3 -51q-13 -19 -42 -19h-243q-54 0 -72 55l-76 221h-475l-74 -221q-18 -55 -69 -55h-246q-29 0 -42 19q-14 20 -3 51zM372 1569q-8 18 9 35l188 202q33 35 78 35h125q45 0 78 -35l188 -202q17 -17 10 -35 q-8 -19 -34 -19h-103q-33 0 -63 27l-137 109l-140 -109q-35 -27 -63 -27h-103q-25 0 -33 19zM537 569h342l-166 531h-4z" />
<glyph unicode="&#xc3;" horiz-adv-x="1419" d="M37 70l457 1321q18 55 71 55h289q54 0 72 -55l456 -1321q11 -31 -3 -51q-13 -19 -42 -19h-243q-54 0 -72 55l-76 221h-475l-74 -221q-18 -55 -69 -55h-246q-29 0 -42 19q-14 20 -3 51zM326 1616q0 88 45 138t133 50q77 0 168 -35l90 -32q70 -25 102 -25q45 0 51 35l3 14 q6 39 51 39h71q54 0 54 -78q0 -83 -44 -132q-44 -48 -128 -48q-88 0 -174 33l-89 33q-67 24 -106 24q-47 0 -49 -33l-2 -14q-6 -37 -51 -37h-72q-29 0 -41 15t-12 53zM537 569h342l-166 531h-4z" />
<glyph unicode="&#xc4;" horiz-adv-x="1419" d="M37 70l457 1321q18 55 71 55h289q54 0 72 -55l456 -1321q11 -31 -3 -51q-13 -19 -42 -19h-243q-54 0 -72 55l-76 221h-475l-74 -221q-18 -55 -69 -55h-246q-29 0 -42 19q-14 20 -3 51zM348 1606v120q0 58 55 58h177q57 0 57 -58v-120q0 -56 -57 -56h-177q-55 0 -55 56z M537 569h342l-166 531h-4zM782 1606v120q0 58 58 58h174q57 0 57 -58v-120q0 -56 -57 -56h-174q-58 0 -58 56z" />
<glyph unicode="&#xc5;" horiz-adv-x="1419" d="M37 70l457 1321q1 4 10 24q-43 55 -43 135q0 103 70 166q72 64 180 64q105 0 177 -64q70 -63 70 -166q0 -76 -43 -135l11 -24l456 -1321q11 -31 -3 -51q-13 -19 -42 -19h-243q-54 0 -72 55l-76 221h-475l-74 -221q-18 -55 -69 -55h-246q-29 0 -42 19q-14 20 -3 51z M537 569h342l-166 531h-4zM598 1550q0 -45 29 -72q29 -28 73 -32h19q45 4 74 32q28 27 28 72q0 48 -30 76q-31 29 -80 29t-81 -29t-32 -76z" />
<glyph unicode="&#xc6;" horiz-adv-x="1847" d="M14 20q-12 21 0 50l564 1321q21 55 75 55h1043q59 0 59 -60v-178q0 -59 -59 -59h-494v-272h465q57 0 57 -60v-164q0 -59 -57 -59h-465v-297h504q59 0 59 -59v-179q0 -59 -59 -59h-788q-62 0 -62 59v211h-385l-92 -215q-22 -55 -74 -55h-248q-32 0 -43 20zM553 561h303 v590h-57z" />
<glyph unicode="&#xc7;" horiz-adv-x="1280" d="M86 723q0 372 176 560q175 187 494 187q246 0 401 -100q54 -35 33 -78l-68 -147q-23 -53 -82 -29q-103 47 -227 47q-191 0 -279 -105q-90 -107 -90 -335q0 -229 92 -335q92 -105 287 -105q117 0 232 53q57 27 82 -31l69 -149q21 -43 -32 -78q-152 -99 -400 -101 q135 -72 135 -180q0 -86 -62 -132t-183 -46q-79 0 -115 14q-33 11 -33 37v80q0 35 37 35h68q94 0 94 68q0 77 -115 139q-247 45 -380 227q-134 184 -134 504z" />
<glyph unicode="&#xc8;" horiz-adv-x="1171" d="M133 59v1327q0 60 60 60h827q59 0 59 -60v-176q0 -61 -59 -61h-541v-272h512q58 0 58 -60v-164q0 -59 -58 -59h-512v-299h549q62 0 62 -59v-175q0 -61 -62 -61h-835q-60 0 -60 59zM338 1792q6 23 33 23h243q46 0 64 -41l82 -179q8 -18 -1 -31q-9 -14 -34 -14h-125 q-43 0 -72 29l-178 174q-18 17 -12 39z" />
<glyph unicode="&#xc9;" horiz-adv-x="1171" d="M133 59v1327q0 60 60 60h827q59 0 59 -60v-176q0 -61 -59 -61h-541v-272h512q58 0 58 -60v-164q0 -59 -58 -59h-512v-299h549q62 0 62 -59v-175q0 -61 -62 -61h-835q-60 0 -60 59zM485 1595l82 179q18 41 64 41h243q27 0 32 -23t-13 -39l-176 -174q-34 -29 -72 -29h-125 q-25 0 -34 14q-9 13 -1 31z" />
<glyph unicode="&#xca;" horiz-adv-x="1171" d="M133 59v1327q0 60 60 60h827q59 0 59 -60v-176q0 -61 -59 -61h-541v-272h512q58 0 58 -60v-164q0 -59 -58 -59h-512v-299h549q62 0 62 -59v-175q0 -61 -62 -61h-835q-60 0 -60 59zM275 1569q-7 18 10 35l188 202q33 35 78 35h125q45 0 78 -35l188 -202q17 -17 9 -35 q-8 -19 -33 -19h-103q-33 0 -63 27l-138 109l-139 -109q-35 -27 -63 -27h-103q-26 0 -34 19z" />
<glyph unicode="&#xcb;" horiz-adv-x="1171" d="M133 59v1327q0 60 60 60h827q59 0 59 -60v-176q0 -61 -59 -61h-541v-272h512q58 0 58 -60v-164q0 -59 -58 -59h-512v-299h549q62 0 62 -59v-175q0 -61 -62 -61h-835q-60 0 -60 59zM252 1606v120q0 58 55 58h176q58 0 58 -58v-120q0 -56 -58 -56h-176q-55 0 -55 56z M686 1606v120q0 58 57 58h175q57 0 57 -58v-120q0 -56 -57 -56h-175q-57 0 -57 56z" />
<glyph unicode="&#xcc;" horiz-adv-x="638" d="M16 1792q6 23 33 23h244q45 0 63 -41l82 -179q8 -18 -1 -31q-9 -14 -34 -14h-124q-43 0 -72 29l-178 174q-19 17 -13 39zM143 59v1327q0 60 60 60h231q62 0 62 -60v-1327q0 -59 -62 -59h-231q-60 0 -60 59z" />
<glyph unicode="&#xcd;" horiz-adv-x="638" d="M143 59v1327q0 60 60 60h231q62 0 62 -60v-1327q0 -59 -62 -59h-231q-60 0 -60 59zM213 1595l82 179q18 41 63 41h244q27 0 32 -23t-13 -39l-177 -174q-34 -29 -71 -29h-125q-25 0 -34 14q-9 13 -1 31z" />
<glyph unicode="&#xce;" horiz-adv-x="638" d="M-19 1569q-8 18 9 35l188 202q33 35 78 35h125q45 0 78 -35l188 -202q17 -17 9 -35q-8 -19 -33 -19h-103q-33 0 -63 27l-138 109l-139 -109q-34 -27 -63 -27h-103q-25 0 -33 19zM143 59v1327q0 60 60 60h231q62 0 62 -60v-1327q0 -59 -62 -59h-231q-60 0 -60 59z" />
<glyph unicode="&#xcf;" horiz-adv-x="638" d="M-43 1606v120q0 58 55 58h176q58 0 58 -58v-120q0 -56 -58 -56h-176q-55 0 -55 56zM143 59v1327q0 60 60 60h231q62 0 62 -60v-1327q0 -59 -62 -59h-231q-60 0 -60 59zM391 1606v120q0 58 58 58h174q57 0 57 -58v-120q0 -56 -57 -56h-174q-58 0 -58 56z" />
<glyph unicode="&#xd0;" horiz-adv-x="1415" d="M16 676v96q0 43 43 43h78v571q0 60 60 60h419q361 0 537 -170t176 -553t-176 -553t-535 -170h-421q-60 0 -60 59v576h-78q-43 0 -43 41zM489 307h115q193 0 282 89t89 327t-89 327t-284 89h-113v-324h213q41 0 41 -43v-96q0 -41 -41 -41h-213v-328z" />
<glyph unicode="&#xd1;" horiz-adv-x="1452" d="M133 59v1327q0 60 60 60h223q54 0 76 -39l487 -817v796q0 60 59 60h219q62 0 62 -60v-1327q0 -59 -62 -59h-223q-50 0 -73 39l-488 817v-797q0 -59 -59 -59h-221q-60 0 -60 59zM342 1616q0 88 45 138t133 50q77 0 168 -35l90 -32q70 -25 103 -25q45 0 51 35l2 14 q6 39 51 39h72q53 0 53 -78q0 -83 -44 -132q-43 -48 -128 -48q-88 0 -174 33l-88 33q-67 24 -107 24q-47 0 -49 -33l-2 -14q-6 -37 -51 -37h-72q-29 0 -41 15t-12 53z" />
<glyph unicode="&#xd2;" horiz-adv-x="1472" d="M86 723q0 374 170 561q170 186 479 186q313 0 482 -186q169 -185 169 -561q0 -375 -169 -560q-169 -186 -482 -186q-309 0 -479 186q-170 187 -170 560zM428 1792q6 23 33 23h244q45 0 63 -41l82 -179q8 -18 -1 -31q-9 -14 -34 -14h-125q-43 0 -72 29l-178 174 q-18 17 -12 39zM442 723q0 -442 293 -442q151 0 222 107q73 109 73 335q0 444 -295 444q-293 0 -293 -444z" />
<glyph unicode="&#xd3;" horiz-adv-x="1472" d="M86 723q0 374 170 561q170 186 479 186q313 0 482 -186q169 -185 169 -561q0 -375 -169 -560q-169 -186 -482 -186q-309 0 -479 186q-170 187 -170 560zM442 723q0 -442 293 -442q151 0 222 107q73 109 73 335q0 444 -295 444q-293 0 -293 -444zM629 1595l82 179 q18 41 63 41h244q27 0 32 -23q4 -22 -14 -39l-176 -174q-34 -29 -72 -29h-124q-25 0 -34 14q-9 13 -1 31z" />
<glyph unicode="&#xd4;" horiz-adv-x="1472" d="M86 723q0 374 170 561q170 186 479 186q313 0 482 -186q169 -185 169 -561q0 -375 -169 -560q-169 -186 -482 -186q-309 0 -479 186q-170 187 -170 560zM398 1569q-7 18 10 35l188 202q33 35 78 35h125q45 0 78 -35l188 -202q17 -17 9 -35q-8 -19 -34 -19h-102 q-34 0 -64 27l-137 109l-139 -109q-34 -27 -63 -27h-103q-26 0 -34 19zM442 723q0 -442 293 -442q151 0 222 107q73 109 73 335q0 444 -295 444q-293 0 -293 -444z" />
<glyph unicode="&#xd5;" horiz-adv-x="1472" d="M86 723q0 374 170 561q170 186 479 186q313 0 482 -186q169 -185 169 -561q0 -375 -169 -560q-169 -186 -482 -186q-309 0 -479 186q-170 187 -170 560zM352 1616q0 88 45 138t133 50q77 0 168 -35l90 -32q70 -25 103 -25q45 0 51 35l2 14q6 39 51 39h72q53 0 53 -78 q0 -83 -44 -132q-44 -48 -128 -48q-88 0 -174 33l-88 33q-68 24 -106 24q-48 0 -50 -33l-2 -14q-6 -37 -51 -37h-71q-29 0 -41 15q-13 16 -13 53zM442 723q0 -442 293 -442q151 0 222 107q73 109 73 335q0 444 -295 444q-293 0 -293 -444z" />
<glyph unicode="&#xd6;" horiz-adv-x="1472" d="M86 723q0 374 170 561q170 186 479 186q313 0 482 -186q169 -185 169 -561q0 -375 -169 -560q-169 -186 -482 -186q-309 0 -479 186q-170 187 -170 560zM375 1606v120q0 58 55 58h176q58 0 58 -58v-120q0 -56 -58 -56h-176q-55 0 -55 56zM442 723q0 -442 293 -442 q151 0 222 107q73 109 73 335q0 444 -295 444q-293 0 -293 -444zM809 1606v120q0 58 57 58h174q58 0 58 -58v-120q0 -56 -58 -56h-174q-57 0 -57 56z" />
<glyph unicode="&#xd7;" d="M158 451l260 260l-260 256q-39 37 0 80l123 122q43 40 81 0l256 -258l259 258q39 39 77 0l125 -122q37 -41 -2 -80l-258 -256l258 -260q37 -41 0 -78l-123 -123q-37 -40 -77 0l-259 258l-258 -258q-39 -40 -79 0l-121 123q-39 41 -2 78z" />
<glyph unicode="&#xd8;" horiz-adv-x="1478" d="M88 723q0 373 171 560t480 187q222 0 377 -110l62 72q33 42 77 12l68 -49q45 -33 10 -80l-73 -92q129 -186 129 -500q0 -373 -170 -560q-169 -186 -480 -186q-230 0 -381 109l-63 -74q-34 -45 -78 -10l-67 51q-41 33 -11 76l76 94q-127 185 -127 500zM446 723 q0 -109 21 -178l455 555q-73 67 -183 67q-293 0 -293 -444zM553 346q72 -65 186 -65q293 0 293 442q0 101 -20 180z" />
<glyph unicode="&#xd9;" horiz-adv-x="1417" d="M125 532v854q0 60 59 60h232q61 0 61 -60v-823q0 -139 54 -207q54 -67 178 -67q123 0 178 67t55 207v823q0 60 59 60h232q59 0 59 -60v-854q0 -555 -583 -555q-584 0 -584 555zM422 1792q6 23 33 23h243q46 0 64 -41l82 -179q8 -18 -1 -31q-9 -14 -34 -14h-125 q-43 0 -72 29l-178 174q-18 17 -12 39z" />
<glyph unicode="&#xda;" horiz-adv-x="1417" d="M125 532v854q0 60 59 60h232q61 0 61 -60v-823q0 -139 54 -207q54 -67 178 -67q123 0 178 67t55 207v823q0 60 59 60h232q59 0 59 -60v-854q0 -555 -583 -555q-584 0 -584 555zM573 1595l82 179q18 41 64 41h244q26 0 31 -23t-13 -39l-176 -174q-34 -29 -72 -29h-125 q-25 0 -34 14q-9 13 -1 31z" />
<glyph unicode="&#xdb;" horiz-adv-x="1417" d="M125 532v854q0 60 59 60h232q61 0 61 -60v-823q0 -139 54 -207q54 -67 178 -67q123 0 178 67t55 207v823q0 60 59 60h232q59 0 59 -60v-854q0 -555 -583 -555q-584 0 -584 555zM370 1569q-8 18 9 35l188 202q33 35 78 35h125q45 0 78 -35l188 -202q17 -17 10 -35 q-8 -19 -34 -19h-103q-33 0 -63 27l-137 109l-140 -109q-35 -27 -63 -27h-103q-25 0 -33 19z" />
<glyph unicode="&#xdc;" horiz-adv-x="1417" d="M125 532v854q0 60 59 60h232q61 0 61 -60v-823q0 -139 54 -207q54 -67 178 -67q123 0 178 67t55 207v823q0 60 59 60h232q59 0 59 -60v-854q0 -555 -583 -555q-584 0 -584 555zM346 1606v120q0 58 55 58h177q57 0 57 -58v-120q0 -56 -57 -56h-177q-55 0 -55 56zM780 1606 v120q0 58 58 58h174q57 0 57 -58v-120q0 -56 -57 -56h-174q-58 0 -58 56z" />
<glyph unicode="&#xdd;" horiz-adv-x="1384" d="M45 1422q12 24 43 24h244q53 0 80 -55l194 -390l84 -192h4l84 192l195 390q27 55 80 55h243q31 0 43 -24t-4 -50l-467 -840v-473q0 -59 -59 -59h-234q-59 0 -59 59v473l-467 840q-16 26 -4 50zM586 1595l82 179q18 41 63 41h244q27 0 32 -23q4 -22 -14 -39l-176 -174 q-34 -29 -72 -29h-124q-25 0 -34 14q-9 13 -1 31z" />
<glyph unicode="&#xde;" horiz-adv-x="1343" d="M133 59v1327q0 60 60 60h229q59 0 59 -60v-108h178q303 0 450 -117q146 -116 146 -389t-146 -389q-147 -117 -450 -117h-178v-207q0 -59 -59 -59h-229q-60 0 -60 59zM481 555h174q136 0 195 49t59 168q0 120 -59 167q-60 48 -195 48h-174v-432z" />
<glyph unicode="&#xdf;" horiz-adv-x="1363" d="M127 51v985q0 434 553 434q229 0 360 -89t131 -242q0 -64 -23 -113q-26 -54 -57 -83q-40 -37 -68 -56q-22 -15 -57 -46q-24 -21 -24 -42q0 -20 36 -44q42 -28 86 -56q56 -36 100 -73q50 -43 86 -117q36 -75 36 -171q0 -356 -412 -356q-37 0 -67 2q-203 5 -203 63v129 q0 51 55 51q4 0 36 -2t34 -2q229 0 229 166q0 67 -52 123q-53 58 -115 93q-64 37 -116 87q-52 51 -52 103q0 37 34 75t77 66q46 30 77 66q35 41 35 81q0 61 -47 102q-46 40 -148 40q-209 0 -209 -215v-959q0 -51 -55 -51h-203q-57 0 -57 51z" />
<glyph unicode="&#xe0;" horiz-adv-x="1200" d="M63 303q0 91 34 156q34 66 89 104q57 40 150 62q91 22 189 31q112 11 235 12v39q0 153 -211 153q-142 0 -295 -57q-53 -23 -70 35l-41 127q-17 47 33 69q186 80 422 80q485 0 485 -389v-668q0 -57 -55 -57h-186q-50 0 -58 45l-12 90q-111 -151 -360 -151q-159 0 -253 82 q-96 84 -96 237zM313 1455q6 22 33 22h242q46 0 63 -39l82 -178q15 -46 -35 -46h-125q-42 0 -71 29l-176 174q-19 17 -13 38zM381 326q0 -58 41 -93q40 -34 113 -34q112 0 168 56q57 57 57 148v86q-205 -5 -289 -37q-90 -34 -90 -126z" />
<glyph unicode="&#xe1;" horiz-adv-x="1200" d="M63 303q0 91 34 156q34 66 89 104q57 40 150 62q91 22 189 31q112 11 235 12v39q0 153 -211 153q-142 0 -295 -57q-53 -23 -70 35l-41 127q-17 47 33 69q186 80 422 80q485 0 485 -389v-668q0 -57 -55 -57h-186q-50 0 -58 45l-12 90q-111 -151 -360 -151q-159 0 -253 82 q-96 84 -96 237zM381 326q0 -58 41 -93q40 -34 113 -34q112 0 168 56q57 57 57 148v86q-205 -5 -289 -37q-90 -34 -90 -126zM465 1260l82 178q17 39 61 39h242q27 0 32 -22q5 -21 -14 -38l-174 -174q-29 -29 -71 -29h-125q-23 0 -32 14q-9 13 -1 32z" />
<glyph unicode="&#xe2;" horiz-adv-x="1200" d="M63 303q0 91 34 156q34 66 89 104q57 40 150 62q91 22 189 31q112 11 235 12v39q0 153 -211 153q-142 0 -295 -57q-53 -23 -70 35l-41 127q-17 47 33 69q186 80 422 80q485 0 485 -389v-668q0 -57 -55 -57h-186q-50 0 -58 45l-12 90q-111 -151 -360 -151q-159 0 -253 82 q-96 84 -96 237zM265 1233q-8 19 7 35l187 205q28 34 78 34h125q49 0 77 -34l187 -205q15 -16 7 -35t-32 -19h-102q-34 0 -64 27l-135 111l-139 -111q-34 -27 -62 -27h-102q-24 0 -32 19zM381 326q0 -58 41 -93q40 -34 113 -34q112 0 168 56q57 57 57 148v86 q-205 -5 -289 -37q-90 -34 -90 -126z" />
<glyph unicode="&#xe3;" horiz-adv-x="1200" d="M63 303q0 91 34 156q34 66 89 104q57 40 150 62q91 22 189 31q112 11 235 12v39q0 153 -211 153q-142 0 -295 -57q-53 -23 -70 35l-41 127q-17 47 33 69q186 80 422 80q485 0 485 -389v-668q0 -57 -55 -57h-186q-50 0 -58 45l-12 90q-111 -151 -360 -151q-159 0 -253 82 q-96 84 -96 237zM223 1280q0 86 43 135t125 49q79 0 166 -32l90 -33q133 -45 141 12l3 14q8 35 51 35h71q52 0 52 -74q0 -176 -162 -176q-81 0 -170 33l-88 31q-132 52 -144 -8l-2 -15q-7 -34 -51 -34h-72q-28 0 -40 13q-13 15 -13 50zM381 326q0 -58 41 -93q40 -34 113 -34 q112 0 168 56q57 57 57 148v86q-205 -5 -289 -37q-90 -34 -90 -126z" />
<glyph unicode="&#xe4;" horiz-adv-x="1200" d="M63 303q0 91 34 156q34 66 89 104q57 40 150 62q91 22 189 31q112 11 235 12v39q0 153 -211 153q-142 0 -295 -57q-53 -23 -70 35l-41 127q-17 47 33 69q186 80 422 80q485 0 485 -389v-668q0 -57 -55 -57h-186q-50 0 -58 45l-12 90q-111 -151 -360 -151q-159 0 -253 82 q-96 84 -96 237zM240 1270v125q0 55 57 55h170q55 0 55 -55v-125q0 -56 -55 -56h-170q-57 0 -57 56zM381 326q0 -58 41 -93q40 -34 113 -34q112 0 168 56q57 57 57 148v86q-205 -5 -289 -37q-90 -34 -90 -126zM668 1270v125q0 55 55 55h170q57 0 57 -55v-125q0 -56 -57 -56 h-170q-55 0 -55 56z" />
<glyph unicode="&#xe5;" horiz-adv-x="1200" d="M63 303q0 91 34 156q34 66 89 104q57 40 150 62q91 22 189 31q112 11 235 12v39q0 153 -211 153q-142 0 -295 -57q-53 -23 -70 35l-41 127q-17 47 33 69q186 80 422 80q485 0 485 -389v-668q0 -57 -55 -57h-186q-50 0 -58 45l-12 90q-111 -151 -360 -151q-159 0 -253 82 q-96 84 -96 237zM365 1425q0 99 68 161q69 63 175 63q107 0 176 -63q70 -64 70 -161q0 -99 -69 -161q-70 -62 -175 -62q-106 0 -176 62q-69 62 -69 161zM381 326q0 -58 41 -93q40 -34 113 -34q112 0 168 56q57 57 57 148v86q-205 -5 -289 -37q-90 -34 -90 -126zM500 1425 q0 -45 30 -73q31 -29 80 -29q47 0 78 29t31 73q0 45 -32 74t-79 29t-78 -29q-30 -29 -30 -74z" />
<glyph unicode="&#xe6;" horiz-adv-x="1859" d="M63 305q0 91 35 155q34 62 87 97q51 34 152 55q102 22 187 26q113 6 236 7v74q0 141 -209 141q-146 0 -299 -57q-54 -21 -72 35l-41 127q-16 48 35 69q199 80 412 80q280 0 356 -162q49 74 147 119q93 43 214 43q221 0 350 -138t129 -372v-104q0 -56 -58 -56h-641 q21 -107 94 -171q71 -62 193 -62q130 0 258 61q51 23 72 -34l39 -111q12 -42 -37 -70q-151 -82 -361 -82q-163 0 -274 57t-154 146q-139 -194 -434 -194q-213 0 -313 78q-103 80 -103 243zM381 326q0 -125 158 -125q111 0 166 60q55 59 55 155v49q-73 -2 -113 -3 q-42 -2 -91 -6q-44 -4 -77 -15q-30 -10 -52 -23q-26 -15 -36 -37q-10 -21 -10 -55zM1073 635h412v14q0 230 -195 230q-196 0 -217 -244z" />
<glyph unicode="&#xe7;" horiz-adv-x="1067" d="M78 547q0 277 150 422q149 145 411 145q209 0 328 -74q48 -28 30 -75l-57 -131q-21 -49 -82 -27q-87 37 -180 37q-260 0 -260 -297q0 -153 68 -225q69 -74 192 -74q108 0 190 43q57 24 80 -29l58 -129q18 -45 -31 -78q-111 -72 -307 -78q129 -63 129 -170q0 -79 -61 -123 t-175 -44q-69 0 -110 14q-31 6 -31 35v75q0 33 35 33h63q94 0 94 64q0 73 -108 129q-202 38 -314 178t-112 379z" />
<glyph unicode="&#xe8;" horiz-adv-x="1206" d="M78 545q0 273 145 421t395 148q243 0 377 -143q135 -144 135 -383v-101q0 -55 -57 -55h-665q18 -104 95 -163q76 -58 202 -58q140 0 268 61q54 24 74 -34l36 -109q15 -46 -34 -70q-168 -84 -373 -84q-285 0 -442 149q-156 148 -156 421zM317 1455q6 22 33 22h242 q46 0 63 -39l82 -178q15 -46 -35 -46h-124q-43 0 -72 29l-176 174q-19 17 -13 38zM397 623h437v14q0 113 -54 178q-53 64 -155 64q-207 0 -228 -256z" />
<glyph unicode="&#xe9;" horiz-adv-x="1206" d="M78 545q0 273 145 421t395 148q243 0 377 -143q135 -144 135 -383v-101q0 -55 -57 -55h-665q18 -104 95 -163q76 -58 202 -58q140 0 268 61q54 24 74 -34l36 -109q15 -46 -34 -70q-168 -84 -373 -84q-285 0 -442 149q-156 148 -156 421zM397 623h437v14q0 113 -54 178 q-53 64 -155 64q-207 0 -228 -256zM477 1260l82 178q17 39 62 39h241q27 0 32 -22t-13 -38l-174 -174q-29 -29 -72 -29h-125q-23 0 -32 14q-9 13 -1 32z" />
<glyph unicode="&#xea;" horiz-adv-x="1206" d="M78 545q0 273 145 421t395 148q243 0 377 -143q135 -144 135 -383v-101q0 -55 -57 -55h-665q18 -104 95 -163q76 -58 202 -58q140 0 268 61q54 24 74 -34l36 -109q15 -46 -34 -70q-168 -84 -373 -84q-285 0 -442 149q-156 148 -156 421zM280 1233q-8 19 7 35l186 205 q28 34 78 34h125q50 0 78 -34l186 -205q15 -16 7 -35t-32 -19h-102q-33 0 -63 27l-136 111l-139 -111q-35 -27 -61 -27h-103q-23 0 -31 19zM397 623h437v14q0 113 -54 178q-53 64 -155 64q-207 0 -228 -256z" />
<glyph unicode="&#xeb;" horiz-adv-x="1206" d="M78 545q0 273 145 421t395 148q243 0 377 -143q135 -144 135 -383v-101q0 -55 -57 -55h-665q18 -104 95 -163q76 -58 202 -58q140 0 268 61q54 24 74 -34l36 -109q15 -46 -34 -70q-168 -84 -373 -84q-285 0 -442 149q-156 148 -156 421zM258 1270v125q0 55 57 55h170 q56 0 56 -55v-125q0 -56 -56 -56h-170q-57 0 -57 56zM397 623h437v14q0 113 -54 178q-53 64 -155 64q-207 0 -228 -256zM686 1270v125q0 55 55 55h170q58 0 58 -55v-125q0 -56 -58 -56h-170q-55 0 -55 56z" />
<glyph unicode="&#xec;" horiz-adv-x="598" d="M-12 1455q6 22 32 22h242q48 0 64 -39l82 -178q15 -46 -35 -46h-125q-43 0 -72 29l-176 174q-18 17 -12 38zM131 57v977q0 56 57 56h222q55 0 55 -56v-977q0 -57 -55 -57h-222q-57 0 -57 57z" />
<glyph unicode="&#xed;" horiz-adv-x="598" d="M131 57v977q0 56 57 56h222q55 0 55 -56v-977q0 -57 -55 -57h-222q-57 0 -57 57zM193 1260l81 178q16 39 62 39h242q26 0 31 -22t-13 -38l-174 -174q-29 -29 -72 -29h-125q-22 0 -31 14q-9 13 -1 32z" />
<glyph unicode="&#xee;" horiz-adv-x="598" d="M-34 1233q-8 19 7 35l187 205q28 34 78 34h124q50 0 78 -34l187 -205q15 -16 7 -35t-32 -19h-102q-34 0 -64 27l-135 111l-139 -111q-34 -27 -62 -27h-102q-24 0 -32 19zM131 57v977q0 56 57 56h222q55 0 55 -56v-977q0 -57 -55 -57h-222q-57 0 -57 57z" />
<glyph unicode="&#xef;" horiz-adv-x="598" d="M-55 1270v125q0 55 57 55h170q55 0 55 -55v-125q0 -56 -55 -56h-170q-57 0 -57 56zM131 57v977q0 56 57 56h222q55 0 55 -56v-977q0 -57 -55 -57h-222q-57 0 -57 57zM373 1270v125q0 55 55 55h170q57 0 57 -55v-125q0 -56 -57 -56h-170q-55 0 -55 56z" />
<glyph unicode="&#xf0;" horiz-adv-x="1253" d="M78 539q0 267 146 410q148 145 376 145q134 0 203 -54q-30 64 -94 140h-279q-43 0 -43 43v59q0 41 43 41h158q-29 33 -103 78q-17 15 -13 34t28 19h211q42 0 71 -29q38 -33 97 -102h208q41 0 41 -41v-59q0 -43 -41 -43h-110q201 -280 201 -627q0 -284 -148 -430 t-403 -146q-254 0 -402 146q-147 145 -147 416zM418 539q0 -303 209 -303q211 0 211 303q0 317 -211 317q-209 0 -209 -317z" />
<glyph unicode="&#xf1;" horiz-adv-x="1261" d="M121 57v977q0 56 55 56h199q51 0 57 -46l17 -92q105 162 333 162q363 0 363 -407v-650q0 -57 -55 -57h-222q-57 0 -57 57v586q0 99 -37 145q-39 48 -125 48q-95 0 -145 -59q-49 -58 -49 -159v-561q0 -57 -58 -57h-221q-55 0 -55 57zM258 1280q0 86 43 135t125 49 q79 0 166 -32l90 -33q134 -45 141 12l2 14q8 35 52 35h71q51 0 51 -74q0 -176 -161 -176q-82 0 -170 33l-88 31q-132 52 -144 -8l-2 -15q-7 -34 -51 -34h-72q-29 0 -41 13q-12 14 -12 50z" />
<glyph unicode="&#xf2;" horiz-adv-x="1253" d="M78 545q0 -277 146 -422q148 -146 403 -146t403 146t148 422q0 278 -148 424q-146 145 -403 145t-403 -145t-146 -424zM324 1455q6 22 32 22h242q48 0 64 -39l81 -178q15 -46 -34 -46h-125q-43 0 -72 29l-176 174q-18 17 -12 38zM418 545q0 311 209 311q211 0 211 -311 q0 -309 -211 -309q-209 0 -209 309z" />
<glyph unicode="&#xf3;" horiz-adv-x="1253" d="M78 545q0 -277 146 -422q148 -146 403 -146t403 146t148 422q0 278 -148 424q-146 145 -403 145t-403 -145t-146 -424zM418 545q0 311 209 311q211 0 211 -311q0 -309 -211 -309q-209 0 -209 309zM510 1260l82 178q16 39 61 39h242q27 0 32 -22q5 -21 -14 -38l-174 -174 q-29 -29 -71 -29h-125q-23 0 -32 14q-9 13 -1 32z" />
<glyph unicode="&#xf4;" horiz-adv-x="1253" d="M78 545q0 -277 146 -422q148 -146 403 -146t403 146t148 422q0 278 -148 424q-146 145 -403 145t-403 -145t-146 -424zM294 1233q-8 19 7 35l186 205q28 34 78 34h125q50 0 78 -34l186 -205q15 -17 8 -35q-8 -19 -32 -19h-103q-33 0 -63 27l-135 111l-140 -111 q-35 -27 -61 -27h-102q-24 0 -32 19zM418 545q0 311 209 311q211 0 211 -311q0 -309 -211 -309q-209 0 -209 309z" />
<glyph unicode="&#xf5;" horiz-adv-x="1253" d="M78 545q0 279 146 424t403 145t403 -145q148 -146 148 -424q0 -276 -148 -422t-403 -146t-403 146q-146 145 -146 422zM256 1280q0 86 43 135t125 49q79 0 166 -32l90 -33q134 -45 141 12l2 14q8 35 51 35h72q51 0 51 -74q0 -176 -161 -176q-82 0 -170 33l-88 31 q-132 52 -144 -8l-2 -15q-7 -34 -51 -34h-72q-29 0 -41 13q-12 14 -12 50zM418 545q0 -309 209 -309q211 0 211 309q0 311 -211 311q-209 0 -209 -311z" />
<glyph unicode="&#xf6;" horiz-adv-x="1253" d="M78 545q0 -277 146 -422q148 -146 403 -146t403 146t148 422q0 278 -148 424q-146 145 -403 145t-403 -145t-146 -424zM272 1270v125q0 55 58 55h170q55 0 55 -55v-125q0 -56 -55 -56h-170q-58 0 -58 56zM418 545q0 311 209 311q211 0 211 -311q0 -309 -211 -309 q-209 0 -209 309zM700 1270v125q0 55 56 55h170q57 0 57 -55v-125q0 -56 -57 -56h-170q-56 0 -56 56z" />
<glyph unicode="&#xf7;" d="M113 647v127q0 55 57 55h899q55 0 55 -55v-127q0 -55 -55 -55h-901q-55 0 -55 55zM459 199v198q0 56 61 56h197q61 0 61 -56v-198q0 -58 -57 -58h-205q-57 0 -57 58zM459 1024v199q0 55 61 55h197q61 0 61 -55v-199q0 -57 -57 -57h-205q-57 0 -57 57z" />
<glyph unicode="&#xf8;" horiz-adv-x="1261" d="M82 545q0 279 146 424t403 145q188 0 323 -84l50 53q39 45 77 9l45 -41q41 -35 7 -74l-54 -62q103 -145 103 -370q0 -276 -148 -422t-403 -146q-197 0 -324 84l-49 -55q-38 -44 -78 -6l-45 41q-41 35 -6 74l53 61q-100 139 -100 369zM422 545q0 -65 16 -109l332 367 q-50 53 -139 53q-209 0 -209 -311zM494 287q50 -51 137 -51q211 0 211 309q0 64 -19 110z" />
<glyph unicode="&#xf9;" horiz-adv-x="1249" d="M111 371v663q0 56 57 56h221q55 0 55 -56v-598q0 -93 34 -139q35 -47 120 -47q92 0 143 57q52 58 52 154v573q0 56 57 56h221q55 0 55 -56v-977q0 -57 -55 -57h-199q-52 0 -59 45l-14 94q-100 -162 -320 -162q-187 0 -278 96q-90 95 -90 298zM324 1455q6 22 32 22h242 q48 0 64 -39l81 -178q15 -46 -34 -46h-125q-43 0 -72 29l-176 174q-18 17 -12 38z" />
<glyph unicode="&#xfa;" horiz-adv-x="1249" d="M111 371v663q0 56 57 56h221q55 0 55 -56v-598q0 -93 34 -139q35 -47 120 -47q92 0 143 57q52 58 52 154v573q0 56 57 56h221q55 0 55 -56v-977q0 -57 -55 -57h-199q-52 0 -59 45l-14 94q-100 -162 -320 -162q-187 0 -278 96q-90 95 -90 298zM504 1260l82 178 q16 39 61 39h242q27 0 32 -22q5 -21 -14 -38l-174 -174q-29 -29 -71 -29h-125q-23 0 -32 14q-9 13 -1 32z" />
<glyph unicode="&#xfb;" horiz-adv-x="1249" d="M111 371v663q0 56 57 56h221q55 0 55 -56v-598q0 -93 34 -139q35 -47 120 -47q92 0 143 57q52 58 52 154v573q0 56 57 56h221q55 0 55 -56v-977q0 -57 -55 -57h-199q-52 0 -59 45l-14 94q-100 -162 -320 -162q-187 0 -278 96q-90 95 -90 298zM290 1233q-8 19 7 35 l186 205q28 34 78 34h125q50 0 78 -34l186 -205q15 -16 7 -35t-31 -19h-103q-33 0 -63 27l-135 111l-140 -111q-35 -27 -61 -27h-102q-24 0 -32 19z" />
<glyph unicode="&#xfc;" horiz-adv-x="1249" d="M111 371v663q0 56 57 56h221q55 0 55 -56v-598q0 -93 34 -139q35 -47 120 -47q92 0 143 57q52 58 52 154v573q0 56 57 56h221q55 0 55 -56v-977q0 -57 -55 -57h-199q-52 0 -59 45l-14 94q-100 -162 -320 -162q-187 0 -278 96q-90 95 -90 298zM268 1270v125q0 55 58 55 h170q55 0 55 -55v-125q0 -56 -55 -56h-170q-58 0 -58 56zM696 1270v125q0 55 56 55h170q57 0 57 -55v-125q0 -56 -57 -56h-170q-56 0 -56 56z" />
<glyph unicode="&#xfd;" horiz-adv-x="1146" d="M39 1024q-11 29 0 47q11 19 39 19h229q55 0 70 -52l143 -446l78 -287h6l64 287l110 446q12 52 66 52h225q28 0 41 -19q12 -18 4 -47l-299 -922q-64 -200 -145 -271q-84 -73 -279 -73q-141 0 -219 23q-55 12 -53 57l8 135q2 47 49 47q7 0 47 -6q41 -6 78 -6q69 0 93 34 t1 87zM446 1260l82 178q16 39 62 39h241q27 0 32 -22t-13 -38l-174 -174q-29 -29 -72 -29h-125q-23 0 -32 14q-9 13 -1 32z" />
<glyph unicode="&#xfe;" horiz-adv-x="1304" d="M123 -168v1559q0 55 55 55h221q58 0 58 -55v-426q40 68 131 109q89 40 190 40q216 0 331 -142q116 -143 116 -425q0 -281 -116 -426q-115 -144 -331 -144q-101 0 -191 38q-89 38 -130 112v-295q0 -57 -58 -57h-221q-55 0 -55 57zM455 545q0 -307 217 -307q109 0 161 72 q52 71 52 235q0 165 -52 236q-53 73 -161 73q-217 0 -217 -309z" />
<glyph unicode="&#xff;" horiz-adv-x="1146" d="M39 1024q-11 29 0 47q11 19 39 19h229q55 0 70 -52l143 -446l78 -287h6l64 287l110 446q12 52 66 52h225q28 0 41 -19q12 -18 4 -47l-299 -922q-64 -200 -145 -271q-84 -73 -279 -73q-141 0 -219 23q-55 12 -53 57l8 135q2 47 49 47q7 0 47 -6q41 -6 78 -6q69 0 93 34 t1 87zM219 1270v125q0 55 57 55h170q56 0 56 -55v-125q0 -56 -56 -56h-170q-57 0 -57 56zM647 1270v125q0 55 55 55h170q58 0 58 -55v-125q0 -56 -58 -56h-170q-55 0 -55 56z" />
<glyph unicode="&#x152;" horiz-adv-x="1912" d="M135 723q0 383 174 553q175 170 533 170h917q62 0 62 -60v-178q0 -59 -62 -59h-489v-272h463q57 0 57 -60v-164q0 -59 -57 -59h-463v-297h499q62 0 62 -59v-179q0 -59 -62 -59h-927q-358 0 -533 170q-174 170 -174 553zM492 723q0 -239 85 -327q86 -89 277 -89h72v832 h-70q-192 0 -278 -89t-86 -327z" />
<glyph unicode="&#x153;" horiz-adv-x="1916" d="M78 545q0 277 142 423t382 146q267 0 385 -166q118 166 369 166q222 0 352 -143q131 -145 131 -377v-98q0 -58 -57 -58h-639q18 -108 92 -168q72 -59 192 -59q128 0 256 61q54 24 74 -34l37 -111q17 -41 -33 -68q-159 -84 -364 -84q-126 0 -237 48q-107 46 -169 129 q-124 -175 -379 -175q-246 0 -390 147t-144 421zM418 545q0 -309 200 -309q207 0 207 309q0 311 -207 311q-200 0 -200 -311zM1133 629h409v14q0 108 -50 172t-144 64q-194 0 -215 -250z" />
<glyph unicode="&#x178;" horiz-adv-x="1384" d="M45 1422q12 24 43 24h244q53 0 80 -55l194 -390l84 -192h4l84 192l195 390q27 55 80 55h243q31 0 43 -24t-4 -50l-467 -840v-473q0 -59 -59 -59h-234q-59 0 -59 59v473l-467 840q-16 26 -4 50zM332 1606v120q0 58 55 58h176q58 0 58 -58v-120q0 -56 -58 -56h-176 q-55 0 -55 56zM766 1606v120q0 58 57 58h174q58 0 58 -58v-120q0 -56 -58 -56h-174q-57 0 -57 56z" />
<glyph unicode="&#x2c6;" horiz-adv-x="747" d="M40 1233q-8 19 7 35l186 205q28 34 78 34h125q50 0 78 -34l186 -205q15 -17 8 -35q-8 -19 -32 -19h-103q-33 0 -63 27l-135 111l-139 -111q-35 -27 -62 -27h-102q-24 0 -32 19z" />
<glyph unicode="&#x2dc;" horiz-adv-x="747" d="M2 1280q0 86 43 135t125 49q79 0 166 -32l90 -33q134 -45 141 12l2 14q8 35 52 35h71q51 0 51 -74q0 -176 -161 -176q-82 0 -170 33l-88 31q-132 52 -144 -8l-2 -15q-7 -34 -51 -34h-72q-29 0 -41 13q-12 14 -12 50z" />
<glyph unicode="&#x2000;" horiz-adv-x="950" />
<glyph unicode="&#x2001;" horiz-adv-x="1901" />
<glyph unicode="&#x2002;" horiz-adv-x="950" />
<glyph unicode="&#x2003;" horiz-adv-x="1901" />
<glyph unicode="&#x2004;" horiz-adv-x="633" />
<glyph unicode="&#x2005;" horiz-adv-x="475" />
<glyph unicode="&#x2006;" horiz-adv-x="316" />
<glyph unicode="&#x2007;" horiz-adv-x="316" />
<glyph unicode="&#x2008;" horiz-adv-x="237" />
<glyph unicode="&#x2009;" horiz-adv-x="380" />
<glyph unicode="&#x200a;" horiz-adv-x="105" />
<glyph unicode="&#x2010;" horiz-adv-x="823" d="M80 494v153q0 55 57 55h549q57 0 57 -53v-155q0 -56 -57 -56h-551q-55 0 -55 56z" />
<glyph unicode="&#x2011;" horiz-adv-x="823" d="M80 494v153q0 55 57 55h549q57 0 57 -53v-155q0 -56 -57 -56h-551q-55 0 -55 56z" />
<glyph unicode="&#x2012;" horiz-adv-x="823" d="M80 494v153q0 55 57 55h549q57 0 57 -53v-155q0 -56 -57 -56h-551q-55 0 -55 56z" />
<glyph unicode="&#x2013;" horiz-adv-x="1118" d="M82 494v153q0 55 55 55h842q57 0 57 -55v-153q0 -56 -57 -56h-842q-55 0 -55 56z" />
<glyph unicode="&#x2014;" horiz-adv-x="1599" d="M82 494v153q0 55 55 55h1323q58 0 58 -55v-153q0 -56 -58 -56h-1323q-55 0 -55 56z" />
<glyph unicode="&#x2018;" horiz-adv-x="524" d="M104 946v187q0 37 17 71l112 223q17 31 50 31h69q20 0 28 -15q7 -14 -1 -32l-76 -209h72q57 0 57 -57v-199q0 -55 -61 -55h-205q-62 0 -62 55z" />
<glyph unicode="&#x2019;" horiz-adv-x="524" d="M94 1200v199q0 55 60 55h206q60 0 60 -55v-187q0 -46 -14 -71l-115 -223q-17 -31 -49 -31h-68q-21 0 -28 14t-1 33l78 209h-71q-58 0 -58 57z" />
<glyph unicode="&#x201a;" horiz-adv-x="524" d="M94 57v199q0 55 60 55h206q60 0 60 -55v-186q0 -47 -14 -72l-115 -223q-17 -31 -49 -31h-68q-21 0 -28 14t-1 33l78 209h-71q-58 0 -58 57z" />
<glyph unicode="&#x201c;" horiz-adv-x="970" d="M104 946v187q0 37 17 71l112 223q17 31 50 31h69q20 0 28 -15q7 -14 -1 -32l-76 -209h72q57 0 57 -57v-199q0 -55 -61 -55h-205q-62 0 -62 55zM549 946v187q0 42 16 71l115 223q17 31 49 31h68q19 0 27 -15q7 -14 -1 -32l-75 -209h71q58 0 58 -57v-199q0 -55 -62 -55 h-205q-61 0 -61 55z" />
<glyph unicode="&#x201d;" horiz-adv-x="970" d="M94 1198v201q0 55 60 55h206q60 0 60 -55v-187q0 -46 -14 -71l-115 -223q-17 -31 -49 -31h-68q-21 0 -28 14t-1 33l78 209h-71q-58 0 -58 55zM539 1198v201q0 55 61 55h205q61 0 61 -55v-187q0 -42 -16 -71l-113 -223q-17 -31 -51 -31h-68q-20 0 -27 15q-7 14 1 32 l76 209h-72q-57 0 -57 55z" />
<glyph unicode="&#x201e;" horiz-adv-x="970" d="M94 55v201q0 55 60 55h206q60 0 60 -55v-186q0 -47 -14 -72l-115 -223q-17 -31 -49 -31h-68q-21 0 -28 14t-1 33l78 209h-71q-58 0 -58 55zM539 55v201q0 55 61 55h205q61 0 61 -55v-186q0 -43 -16 -72l-113 -223q-17 -31 -51 -31h-68q-20 0 -27 15q-7 14 1 32l76 209 h-72q-57 0 -57 55z" />
<glyph unicode="&#x2022;" horiz-adv-x="866" d="M123 565q0 131 90 221q91 91 221 91t220 -90q89 -89 89 -222q0 -132 -89 -223q-88 -90 -220 -90q-134 0 -222 90q-89 91 -89 223z" />
<glyph unicode="&#x2026;" horiz-adv-x="1599" d="M100 57v217q0 56 62 56h211q59 0 59 -56v-217q0 -57 -55 -57h-221q-56 0 -56 57zM635 57v217q0 56 59 56h211q62 0 62 -56v-217q0 -57 -58 -57h-219q-55 0 -55 57zM1167 57v217q0 56 62 56h211q59 0 59 -56v-217q0 -57 -55 -57h-219q-58 0 -58 57z" />
<glyph unicode="&#x202f;" horiz-adv-x="380" />
<glyph unicode="&#x2039;" horiz-adv-x="622" d="M61 592q0 9 9 29l168 286q22 39 67 39h187q28 0 37 -17q9 -19 -5 -40l-174 -295l174 -295q14 -21 5 -40q-9 -17 -37 -17h-187q-46 0 -67 39l-168 286q-9 20 -9 25z" />
<glyph unicode="&#x203a;" horiz-adv-x="622" d="M93 258q-10 18 5 41l176 295l-176 295q-15 22 -4 40q10 17 37 17h186q45 0 68 -39l168 -286q6 -12 6 -29q0 -14 -4 -23l-170 -288q-24 -39 -68 -39h-186q-29 0 -38 16z" />
<glyph unicode="&#x205f;" horiz-adv-x="475" />
<glyph unicode="&#x20ac;" horiz-adv-x="1347" d="M37 543v73q0 43 43 43h102q-4 33 -4 64q0 38 4 63h-102q-43 0 -43 43v74q0 43 43 43h119q50 249 221 386q172 138 436 138q238 0 395 -102q52 -30 29 -76l-68 -149q-24 -53 -84 -29q-105 49 -227 49q-254 0 -336 -217h479q23 0 30 -14q7 -13 -1 -35l-31 -72 q-16 -39 -59 -39h-444q-2 -28 -2 -63q0 -40 2 -64h372q23 0 30 -14q7 -13 -1 -35l-29 -71q-17 -39 -59 -39h-285q35 -100 120 -159q85 -58 218 -58q119 0 230 51q57 27 82 -31l69 -149q10 -28 3 -43q-8 -15 -34 -33q-157 -101 -395 -101q-265 0 -439 138q-173 137 -224 385 h-117q-43 0 -43 43z" />
<glyph unicode="&#x2122;" horiz-adv-x="1597" d="M68 1317v86q0 43 41 43h479q41 0 41 -43v-86q0 -43 -41 -43h-137v-463q0 -41 -43 -41h-119q-45 0 -45 41v463h-135q-41 0 -41 43zM733 811v592q0 43 41 43h125q33 0 49 -27l166 -254l166 254q16 27 47 27h125q43 0 43 -43v-592q0 -41 -45 -41h-113q-43 0 -43 41v352 l-143 -215q-18 -24 -37 -24q-22 0 -37 24l-143 215v-352q0 -41 -43 -41h-115q-43 0 -43 41z" />
<glyph unicode="&#x25fc;" horiz-adv-x="1085" d="M0 0v1085h1085v-1085h-1085z" />
</font>
</defs>
</svg>
