<?xml version="1.0" standalone="no"?>
<!DOCTYPE svg PUBLIC "-//W3C//DTD SVG 1.1//EN" "http://www.w3.org/Graphics/SVG/1.1/DTD/svg11.dtd" >
<svg xmlns="http://www.w3.org/2000/svg" xmlns:xlink="http://www.w3.org/1999/xlink" version="1.1">
<metadata></metadata>
<defs>
<font id="amsipro-bolduploaded_file" horiz-adv-x="1226" >
<font-face units-per-em="2048" ascent="1749" descent="-299" />
<missing-glyph horiz-adv-x="598" />
<glyph unicode="&#xfb01;" horiz-adv-x="1253" d="M41 897v115q0 47 45 47h111v88q0 313 315 313q104 0 158 -20q43 -15 43 -45v-95q0 -21 -12 -33q-11 -11 -29 -10q-75 11 -99 11q-110 0 -110 -129v-80h602q47 0 47 -47v-965q0 -47 -47 -47h-176q-49 0 -49 47v803h-375v-807q0 -43 -47 -43h-172q-49 0 -49 43v807h-111 q-45 0 -45 47zM842 1253v144q0 45 49 45h170q49 0 49 -45v-144q0 -47 -49 -47h-170q-49 0 -49 47z" />
<glyph unicode="&#xfb02;" horiz-adv-x="1251" d="M41 897v115q0 47 45 47h111v51q0 188 110 270t379 82q238 0 377 -45q26 -7 37 -18q10 -10 10 -35v-1317q0 -47 -45 -47h-178q-47 0 -47 47v1202q-67 13 -162 13q-119 0 -167 -36t-48 -114v-53h145q45 0 45 -47v-115q0 -47 -45 -47h-143v-807q0 -43 -47 -43h-172 q-49 0 -49 43v807h-111q-45 0 -45 47z" />
<glyph unicode="&#xfb03;" horiz-adv-x="1896" d="M41 897v115q0 47 45 47h111v94q0 307 317 307q97 0 156 -20q43 -16 43 -45v-95q0 -22 -10 -34q-9 -10 -29 -9q-53 11 -96 11q-113 0 -113 -125v-84h375v94q0 307 317 307q97 0 156 -20q43 -16 43 -45v-95q0 -22 -10 -33q-10 -12 -29 -10q-58 11 -98 11q-111 0 -111 -125 v-84h598q47 0 47 -47v-965q0 -47 -47 -47h-176q-47 0 -47 47v803h-375v-807q0 -43 -47 -43h-174q-47 0 -47 43v807h-375v-807q0 -43 -47 -43h-172q-49 0 -49 43v807h-111q-45 0 -45 47zM1485 1253v144q0 45 47 45h172q47 0 47 -45v-144q0 -47 -47 -47h-172q-47 0 -47 47z " />
<glyph unicode="&#xfb04;" horiz-adv-x="1892" d="M41 897v115q0 47 45 47h111v94q0 307 317 307q97 0 156 -20q43 -16 43 -45v-95q0 -20 -11 -33q-10 -11 -28 -10q-53 11 -96 11q-113 0 -113 -125v-84h375v51q0 188 110 270t379 82q235 0 375 -45q29 -8 39 -19t10 -36v-1315q0 -47 -47 -47h-178q-47 0 -47 47v1202 q-67 13 -160 13q-119 0 -166 -35t-47 -115v-53h141q47 0 47 -47v-115q0 -47 -47 -47h-141v-807q0 -43 -47 -43h-174q-47 0 -47 45v805h-375v-807q0 -43 -47 -43h-172q-49 0 -49 43v807h-111q-45 0 -45 47z" />
<glyph horiz-adv-x="0" />
<glyph unicode="&#xd;" horiz-adv-x="681" />
<glyph unicode=" "  horiz-adv-x="598" />
<glyph unicode="&#x09;" horiz-adv-x="598" />
<glyph unicode="&#xa0;" horiz-adv-x="598" />
<glyph unicode="!" horiz-adv-x="632" d="M154 1393q-1 49 49 49h227q50 0 49 -49l-51 -910q-4 -45 -49 -45h-125q-44 0 -49 45zM170 47v199q0 47 49 47h195q49 0 49 -47v-199q0 -47 -45 -47h-203q-45 0 -45 47z" />
<glyph unicode="&#x22;" horiz-adv-x="768" d="M100 1395q0 94 113 94q115 0 115 -94q0 -41 -13 -125l-53 -342h-98l-53 342q-11 69 -11 125zM440 1395q0 94 113 94q115 0 115 -94q0 -56 -11 -125l-53 -342h-98l-53 342q-13 84 -13 125z" />
<glyph unicode="#" horiz-adv-x="1320" d="M33 418v78q0 47 47 47h199l92 348h-148q-47 0 -47 49v76q0 47 47 47h193l94 362q12 45 57 33l84 -20q47 -11 35 -60l-82 -315h295l94 362q12 45 58 33l84 -20q46 -12 34 -60l-82 -315h152q47 0 47 -47v-76q0 -49 -47 -49h-199l-92 -348h148q49 0 49 -47v-78 q0 -47 -49 -47h-193l-90 -353q-12 -46 -57 -34l-84 24q-47 15 -35 58l80 305h-297l-90 -353q-12 -46 -60 -34l-82 24q-46 12 -34 58l79 305h-153q-47 0 -47 47zM465 543h297l90 348h-295z" />
<glyph unicode="$" horiz-adv-x="1210" d="M88 127l47 131q18 47 64 29q169 -64 329 -64q322 0 322 174q0 23 -4 39q-5 19 -17 34q-4 4 -7.5 9t-7.5 10.5t-6 8.5q-8 11 -32 25q-7 4 -13.5 8t-12.5 8l-9 6q-14 9 -45 20q-18 7 -46 19q-12 5 -53 19q-24 8 -54 20q-80 28 -134 50q-51 21 -117 58q-69 39 -105 81 q-33 39 -62 109q-27 66 -27 150q0 167 113 268t317 119v144q0 45 50 45h86q47 0 47 -45v-140q202 -12 327 -76q44 -23 29 -61l-49 -127q-17 -47 -64 -29q-136 52 -292 52q-131 0 -204 -41t-73 -117q0 -90 125 -152q23 -12 172 -67q54 -19 100 -38q38 -16 91 -40 q65 -30 88 -47q25 -19 68 -55q40 -34 58 -72t33 -87q15 -50 15 -108q0 -178 -114 -277t-302 -126v-152q0 -47 -47 -47h-86q-49 0 -49 47v142q-253 6 -418 82q-46 21 -31 61z" />
<glyph unicode="%" horiz-adv-x="1957" d="M80 1028q0 206 97 318t263 112q169 0 266 -112t97 -318q0 -205 -97 -317q-98 -113 -266 -113q-165 0 -263 113q-97 112 -97 317zM293 1028q0 -254 147 -254q150 0 150 254t-150 254q-147 0 -147 -254zM463 47l817 1352q27 43 70 43h120q54 0 27 -45l-821 -1352 q-27 -45 -66 -45h-123q-51 0 -24 47zM1155 416q0 205 97 317q98 113 266 113q165 0 263 -113q97 -112 97 -317q0 -206 -97 -318t-265 -112q-167 0 -264 112t-97 318zM1368 416q0 -254 150 -254q149 0 149 254t-149 254q-150 0 -150 -254z" />
<glyph unicode="&#x26;" horiz-adv-x="1505" d="M86 434q0 163 96 271t262 153l-38 41q-119 125 -119 272q0 133 99 214t319 81q155 0 278 -51q51 -22 39 -61l-31 -103q-15 -48 -67 -30q-96 30 -189 30q-200 0 -200 -112q0 -16 5 -39q3 -12 10 -32q4 -11 21 -34q7 -9 15 -18l7 -10q4 -6 29 -32q7 -7 13 -14t9.5 -11 t4.5 -5l469 -512q45 80 45 186q0 29 -10 65t-10 50q0 39 43 39h139q33 0 43 -37q18 -60 18 -131q0 -202 -108 -348l186 -207q15 -17 9 -33t-25 -16h-178q-52 0 -76 29l-76 82q-166 -129 -434 -129q-266 0 -432 118t-166 334zM367 455q0 -104 93 -173t255 -69q171 0 254 66 l-387 419q-215 -57 -215 -243z" />
<glyph unicode="'" horiz-adv-x="425" d="M100 1395q0 94 113 94q115 0 115 -94q0 -41 -13 -125l-53 -342h-98l-53 342q-11 69 -11 125z" />
<glyph unicode="(" horiz-adv-x="768" d="M156 610q0 239 95 456q94 215 236 372q21 24 56 24h127q24 0 31 -16q8 -17 -7 -33q-121 -154 -197 -370q-75 -211 -75 -433q0 -219 76 -426q78 -214 196 -372q15 -18 7 -35t-31 -17h-127q-33 0 -56 23q-141 154 -237 374q-94 215 -94 453z" />
<glyph unicode=")" horiz-adv-x="768" d="M68 -222q-6 18 6 34q276 392 276 798q0 215 -77 425t-199 378q-12 17 -6 33t30 16h129q35 0 56 -24q142 -157 236 -372q95 -217 95 -456q0 -238 -94 -453q-96 -220 -237 -374q-23 -23 -56 -23h-129q-24 0 -30 18z" />
<glyph unicode="*" horiz-adv-x="868" d="M89 1209q-8 24 15 65q41 70 109 31q30 -17 89 -72q62 -57 87 -74q-2 36 -19 113q-18 80 -18 112q0 43 18 61q17 17 64 17q46 0 62 -17t16 -61q0 -32 -15 -113q-17 -92 -18 -112q26 19 84 71q61 55 92 73q70 44 109 -29q22 -43 15 -67q-8 -24 -44 -46q-30 -18 -105 -41 q-71 -21 -106 -37q29 -16 109 -42t102 -40q36 -23 44 -47q8 -23 -13 -63q-43 -72 -111 -31q-30 17 -89 72q-57 53 -85 72q1 -25 19 -112q16 -79 16 -112q0 -43 -17 -60q-18 -18 -63 -18q-46 0 -64 18t-18 60q0 31 18 112q17 78 19 112q-17 -11 -88 -72q-65 -56 -90 -70 q-70 -44 -109 29q-41 70 31 110q21 13 102 40t107 40q-24 13 -106 41q-84 29 -103 41q-39 22 -46 46z" />
<glyph unicode="+" d="M115 643v127q0 47 47 47h327v328q0 47 48 47h153q45 0 45 -47v-328h330q47 0 47 -47v-127q0 -45 -47 -45h-330v-332q0 -47 -45 -47h-153q-48 0 -48 47v332h-327q-47 0 -47 45z" />
<glyph unicode="," horiz-adv-x="507" d="M113 47v197q0 45 51 45h180q51 0 51 -45v-178q0 -36 -12 -60l-111 -239q-15 -27 -39 -27h-63q-40 0 -25 43l70 217h-55q-47 0 -47 47z" />
<glyph unicode="-" horiz-adv-x="817" d="M82 492v129q0 45 47 45h557q47 0 47 -45v-129q0 -46 -47 -46h-557q-47 0 -47 46z" />
<glyph unicode="." horiz-adv-x="507" d="M113 47v197q0 45 51 45h180q51 0 51 -45v-197q0 -47 -47 -47h-188q-47 0 -47 47z" />
<glyph unicode="/" horiz-adv-x="925" d="M25 57l616 1342q21 43 66 43h157q28 0 39 -17q10 -16 -2 -41l-618 -1341q-18 -43 -64 -43h-158q-60 0 -36 57z" />
<glyph unicode="0" horiz-adv-x="1394" d="M106 721q0 365 156 555t434 190t434 -190q156 -191 156 -553q0 -363 -156 -553t-434 -190t-434 190t-156 551zM393 723q0 -498 303 -498q305 0 305 498q0 496 -305 496q-303 0 -303 -496z" />
<glyph unicode="1" horiz-adv-x="991" d="M72 1098q-24 30 6 53l368 270q30 21 72 21h187q49 0 49 -49v-1342q0 -51 -49 -51h-181q-51 0 -51 51v1092l-254 -164q-37 -20 -59 8z" />
<glyph unicode="2" horiz-adv-x="1288" d="M111 51v109q0 39 36 61q723 425 723 776q0 236 -252 236q-129 0 -185 -55t-56 -138q0 -30 4 -61t4 -45q0 -41 -43 -41h-166q-41 0 -49 47q-12 44 -12 111q0 182 127 299q126 116 379 116q277 0 404 -124q128 -125 128 -324q0 -118 -60 -240q-59 -119 -161 -223 q-104 -106 -199 -179q-102 -79 -207 -143h590q51 0 51 -49v-133q0 -51 -51 -51h-956q-49 0 -49 51z" />
<glyph unicode="3" horiz-adv-x="1208" d="M63 131l50 127q17 48 63 27q164 -70 348 -70q297 0 297 219q0 201 -268 201h-160q-51 0 -51 49v123q0 47 51 47h152q241 0 241 193q0 93 -67 139q-68 47 -184 47q-177 0 -345 -68q-44 -16 -61 29l-49 121q-16 38 31 61q201 88 450 88q218 0 360 -94t142 -280 q0 -244 -211 -322q248 -72 248 -342q0 -220 -141 -332q-140 -112 -408 -112q-260 0 -457 90q-43 22 -31 59z" />
<glyph unicode="4" horiz-adv-x="1361" d="M74 350v131q0 36 20 62l709 870q23 29 57 29h189q51 0 51 -49v-863h176q49 0 49 -51v-129q0 -51 -49 -51h-176v-248q0 -51 -49 -51h-183q-49 0 -49 51v248h-696q-49 0 -49 51zM326 530h495v598z" />
<glyph unicode="5" horiz-adv-x="1239" d="M78 137l49 123q17 48 63 27q166 -72 357 -72q311 0 311 248q0 119 -66 177q-65 58 -214 58q-101 0 -189 -26q-91 -27 -104 -27q-7 0 -37 8l-90 29q-35 8 -29 47q41 369 41 660q0 53 53 53h783q49 0 49 -49v-133q0 -50 -49 -50h-605q-8 -169 -24 -344q115 41 256 41 q259 0 381 -116q123 -117 123 -328q0 -238 -148 -360q-146 -121 -424 -121q-269 0 -459 92q-45 22 -28 63z" />
<glyph unicode="6" horiz-adv-x="1329" d="M106 662q0 381 155 593q154 211 482 211q172 0 306 -55q46 -18 36 -55l-34 -125q-12 -50 -64 -35q-137 41 -223 41q-377 0 -387 -446q45 78 140 131t233 53q237 0 360 -131q123 -130 123 -344q0 -233 -143 -376q-144 -144 -388 -144q-297 0 -446 185q-150 186 -150 497z M403 494q0 -110 78 -195q78 -86 217 -86q132 0 204 80q73 81 73 211q0 116 -69 190t-208 74q-142 0 -218 -78q-77 -79 -77 -196z" />
<glyph unicode="7" horiz-adv-x="1183" d="M80 1260v133q0 49 49 49h920q49 0 49 -49v-115q0 -16 -4 -27q-2 -6 -10 -19q-2 -3 -7 -9.5t-6 -8.5q-2 -3 -4.5 -6t-4 -5t-1.5 -3q-444 -663 -471 -1153q-2 -47 -51 -47h-189q-24 0 -38 12q-13 11 -11 35q27 281 177 618q148 333 319 545h-668q-49 0 -49 50z" />
<glyph unicode="8" horiz-adv-x="1312" d="M94 383q0 153 90 241q91 90 240 124q-132 38 -212 128q-79 88 -79 214q0 178 136 277t386 99q251 0 388 -99t137 -277q0 -126 -79 -214q-80 -90 -212 -128q147 -34 239 -124q91 -89 91 -241q0 -185 -147 -294q-146 -109 -417 -109q-268 0 -414 109q-147 109 -147 294z M371 401q0 -94 74 -150t210 -56q139 0 211 56q74 57 74 150q0 187 -285 254q-284 -67 -284 -254zM406 1079q0 -91 61 -148q60 -55 188 -93q129 38 190 93q62 56 62 148q0 178 -252 178q-249 0 -249 -178z" />
<glyph unicode="9" horiz-adv-x="1329" d="M96 942q0 233 143 378q143 144 388 144q296 0 446 -186t150 -498q0 -803 -631 -803q-160 0 -307 56q-47 18 -37 57l35 123q17 48 63 33q124 -39 223 -39q376 0 387 434q-44 -72 -139 -123q-96 -51 -237 -51q-238 0 -361 132t-123 343zM352 940q0 -112 70 -190 q69 -76 209 -76q141 0 218 78q77 79 77 196q0 116 -77 199q-76 82 -218 82q-132 0 -205 -79q-74 -80 -74 -210z" />
<glyph unicode=":" horiz-adv-x="585" d="M152 47v197q0 45 49 45h182q51 0 51 -45v-197q0 -47 -49 -47h-186q-47 0 -47 47zM152 836v198q0 45 49 45h182q51 0 51 -47v-196q0 -45 -49 -45h-186q-47 0 -47 45z" />
<glyph unicode=";" horiz-adv-x="585" d="M152 47v197q0 45 49 45h182q51 0 51 -45v-178q0 -33 -14 -60l-109 -239q-12 -27 -41 -27h-61q-40 0 -25 43l70 217h-55q-47 0 -47 47zM152 836v196q0 47 51 47h180q51 0 51 -47v-196q0 -45 -49 -45h-186q-47 0 -47 45z" />
<glyph unicode="&#x3c;" d="M121 705q0 29 24 47l754 575q40 33 68 -4l90 -109q27 -35 -6 -65l-602 -444l602 -445q35 -28 6 -63l-90 -113q-29 -34 -66 -6l-756 579q-24 23 -24 48z" />
<glyph unicode="=" d="M143 436v117q0 47 45 47h850q45 0 45 -47v-117q0 -47 -45 -47h-850q-45 0 -45 47zM143 862v117q0 47 45 47h850q45 0 45 -47v-117q0 -47 -45 -47h-850q-45 0 -45 47z" />
<glyph unicode="&#x3e;" d="M172 197q-28 37 6 63l602 445l-602 444q-35 24 -6 65l84 109q28 37 66 6l759 -577q25 -17 25 -45t-25 -50l-759 -579q-39 -28 -66 6z" />
<glyph unicode="?" horiz-adv-x="1110" d="M68 1319q-15 37 30 59q174 86 428 86q239 0 364 -94q126 -94 126 -262q0 -94 -36 -172q-36 -77 -86 -129q-50 -51 -101 -95q-50 -42 -87 -89q-36 -45 -36 -93v-47q0 -45 -49 -45h-156q-47 0 -47 47v45q0 56 33 110t79 100q15 15 47.5 47t48.5 48q49 49 81 109t32 125 q0 162 -243 162q-154 0 -316 -66q-46 -21 -63 27zM389 47v199q0 47 51 47h195q51 0 51 -47v-199q0 -47 -49 -47h-201q-47 0 -47 47z" />
<glyph unicode="@" horiz-adv-x="1910" d="M121 440q0 360 243 580q244 221 646 221q392 0 588 -176t196 -453q0 -254 -120 -399t-339 -145h-123q-56 0 -57 34l-6 113q-98 -149 -295 -149q-167 0 -262 91q-96 91 -96 259q0 233 138 383q137 149 413 149q187 0 339 -69q33 -15 29 -48l-108 -626h43q297 0 297 409 q0 224 -153 357q-152 133 -486 133q-340 0 -539 -179t-199 -485q0 -280 168 -411q169 -131 527 -131q245 0 419 61q27 7 37 -22l17 -66q6 -23 -21 -33q-198 -71 -452 -71q-844 0 -844 673zM725 442q0 -196 174 -196q197 0 238 231l47 268q-64 25 -148 25q-147 0 -229 -91 t-82 -237z" />
<glyph unicode="A" horiz-adv-x="1400" d="M45 57l477 1338q17 47 62 47h233q45 0 62 -47l477 -1338q8 -25 -2 -41t-35 -16h-199q-44 0 -59 45l-94 268h-533l-94 -268q-15 -45 -57 -45h-199q-26 0 -38 16t-1 41zM496 555h407l-198 604h-7z" />
<glyph unicode="B" horiz-adv-x="1409" d="M152 51v1342q0 49 51 49h516q281 0 414 -90t133 -287q0 -124 -56 -201q-55 -76 -141 -100q242 -63 242 -346q0 -219 -145 -319q-144 -99 -433 -99h-530q-51 0 -51 51zM434 229h285q171 0 240 45t69 160q0 109 -66 154t-235 45h-293v-404zM434 848h283q147 0 209 44 q61 43 61 144q0 98 -61 138t-213 40h-279v-366z" />
<glyph unicode="C" horiz-adv-x="1265" d="M98 721q0 366 173 556q173 189 485 189q235 0 387 -92q32 -21 32 -45q0 -9 -4 -18l-55 -125q-12 -32 -40 -32q-13 0 -29 7q-111 51 -246 51q-210 0 -311 -120t-101 -371q0 -249 104 -370q103 -120 318 -120q139 0 250 60q13 5 24 5q29 0 45 -34l58 -127q4 -8 4 -16 q0 -24 -35 -45q-149 -97 -391 -97q-318 0 -493 189q-175 188 -175 555z" />
<glyph unicode="D" horiz-adv-x="1406" d="M152 51v1342q0 49 49 49h395q358 0 537 -165q178 -165 178 -542q0 -395 -177 -565q-178 -170 -536 -170h-395q-51 0 -51 51zM438 254h150q223 0 327 103q105 103 105 378q0 255 -106 355q-104 98 -328 98h-148v-934z" />
<glyph unicode="E" horiz-adv-x="1157" d="M152 51v1342q0 49 49 49h807q51 0 51 -49v-146q0 -51 -51 -51h-574v-342h547q49 0 49 -51v-135q0 -52 -49 -52h-547v-370h582q51 0 51 -49v-146q0 -51 -51 -51h-813q-51 0 -51 51z" />
<glyph unicode="F" horiz-adv-x="1130" d="M152 51v1342q0 49 51 49h801q49 0 49 -47v-146q0 -51 -49 -51h-568v-373h549q49 0 49 -51v-139q0 -49 -49 -49h-549v-535q0 -51 -51 -51h-182q-51 0 -51 51z" />
<glyph unicode="G" horiz-adv-x="1441" d="M98 723q0 743 719 743q252 0 414 -98q35 -18 35 -44q0 -9 -4 -19l-52 -127q-12 -32 -40 -32q-13 0 -29 7q-139 59 -287 59q-246 0 -355 -115q-110 -116 -110 -374q0 -261 108 -376q108 -116 334 -116q129 0 220 41v363h-224q-51 0 -51 47v125q0 51 51 51h433q51 0 51 -51 v-655q0 -44 -45 -72q-174 -103 -467 -103q-701 0 -701 746z" />
<glyph unicode="H" horiz-adv-x="1443" d="M152 51v1342q0 49 51 49h184q51 0 51 -49v-529h570v529q0 49 49 49h186q49 0 49 -49v-1342q0 -51 -49 -51h-186q-49 0 -49 51v555h-570v-555q0 -51 -51 -51h-184q-51 0 -51 51z" />
<glyph unicode="I" horiz-adv-x="612" d="M164 51v1342q0 49 49 49h186q52 0 52 -49v-1342q0 -51 -52 -51h-186q-49 0 -49 51z" />
<glyph unicode="J" horiz-adv-x="1013" d="M41 84q-8 16 2 39l49 133q12 36 37 36q12 0 25 -7q105 -54 208 -54q226 0 226 261v901q0 49 49 49h186q49 0 49 -49v-926q0 -490 -466 -490q-203 0 -332 78q-27 17 -33 29z" />
<glyph unicode="K" horiz-adv-x="1302" d="M152 51v1342q0 49 51 49h184q51 0 51 -49v-496l482 504q38 41 75 41h213q30 0 37 -21t-10 -41l-573 -606l585 -711q18 -22 10 -43q-7 -20 -36 -20h-217q-36 0 -74 45l-492 586v-580q0 -51 -51 -51h-184q-51 0 -51 51z" />
<glyph unicode="L" horiz-adv-x="1120" d="M152 51v1342q0 49 51 49h184q51 0 51 -49v-1135h551q51 0 51 -49v-158q0 -51 -51 -51h-786q-51 0 -51 51z" />
<glyph unicode="M" horiz-adv-x="1675" d="M152 51v1342q0 49 51 49h174q42 0 59 -29l402 -659l401 659q17 29 57 29h177q51 0 51 -49v-1342q0 -51 -51 -51h-179q-49 0 -49 51v918l-362 -594q-17 -27 -45 -27q-30 0 -45 27l-363 594v-918q0 -51 -49 -51h-178q-51 0 -51 51z" />
<glyph unicode="N" horiz-adv-x="1452" d="M152 51v1342q0 49 51 49h180q48 0 66 -33l575 -930v914q0 49 49 49h178q49 0 49 -47v-1344q0 -51 -49 -51h-184q-42 0 -63 35l-576 928v-912q0 -51 -49 -51h-176q-51 0 -51 51z" />
<glyph unicode="O" horiz-adv-x="1470" d="M96 721q0 367 167 557q166 188 472 188t472 -188q167 -190 167 -557q0 -368 -167 -556t-474 -188q-305 0 -471 189q-166 188 -166 555zM387 721q0 -494 348 -494q346 0 346 494q0 496 -346 496q-348 0 -348 -496z" />
<glyph unicode="P" horiz-adv-x="1353" d="M152 51v1342q0 49 49 49h444q310 0 459 -121t149 -391q0 -273 -149 -392q-150 -120 -459 -120h-209v-367q0 -51 -51 -51h-182q-51 0 -51 51zM436 664h207q170 0 246 61t76 205t-76 205t-246 61h-207v-532z" />
<glyph unicode="Q" horiz-adv-x="1470" d="M96 725q0 366 167 554q166 187 472 187q307 0 475 -187q166 -185 166 -545v-9q-2 -259 -111 -438q-110 -179 -298 -242q88 -31 190 -31q21 0 45 4q30 5 37 5q43 0 43 -39v-123q0 -31 -15 -43q-16 -13 -59 -13q-315 0 -544 187q-274 21 -421 205q-147 185 -147 528z M387 725q0 -489 348 -489q346 0 346 489q0 492 -348 492q-346 0 -346 -492z" />
<glyph unicode="R" horiz-adv-x="1357" d="M152 51v1342q0 49 51 49h459q302 0 450 -116t148 -370q0 -359 -353 -436l348 -457q19 -23 10 -43t-40 -20h-195q-42 0 -72 41l-331 440h-191v-430q0 -51 -51 -51h-182q-51 0 -51 51zM436 719h219q173 0 245 57q73 58 73 180q0 129 -73 185q-71 55 -243 55h-221v-477z" />
<glyph unicode="S" horiz-adv-x="1187" d="M86 123l49 131q12 36 39 36q10 0 23 -5q148 -62 325 -62q140 0 220 43q81 44 81 129q0 37 -17 65q-19 31 -37 48q-21 19 -67 43q-43 22 -74 36q-27 12 -93 36q-91 33 -132 51q-55 25 -111 60q-63 40 -98 82q-34 42 -60 108q-25 65 -25 147q0 393 520 393q237 0 391 -71 q35 -17 35 -44q0 -9 -4 -18l-47 -127q-13 -33 -42 -33q-11 0 -24 5q-117 45 -283 45q-260 0 -260 -156q0 -92 117 -152q36 -17 158 -67q50 -20 86 -35q12 -5 77 -35q59 -27 77 -41q7 -5 63 -44q43 -30 59 -56q5 -8 11 -18t14.5 -24t13.5 -23q24 -39 31 -82q8 -46 8 -97 q0 -206 -149 -307q-150 -102 -400 -102q-286 0 -444 79q-35 17 -35 44q0 8 4 18z" />
<glyph unicode="T" horiz-adv-x="1159" d="M55 1237v156q0 49 49 49h949q51 0 51 -49v-156q0 -51 -51 -51h-330v-1135q0 -51 -51 -51h-185q-51 0 -51 51v1135h-330q-51 0 -51 51z" />
<glyph unicode="U" horiz-adv-x="1421" d="M141 522v871q0 49 52 49h184q51 0 51 -49v-846q0 -155 68 -235q67 -79 215 -79q282 0 282 314v846q0 49 49 49h187q49 0 49 -49v-871q0 -268 -142 -407q-143 -140 -425 -140q-281 0 -426 140q-144 139 -144 407z" />
<glyph unicode="V" horiz-adv-x="1382" d="M57 1384q-8 28 2 42q11 16 37 16h199q47 0 59 -45l246 -764l90 -338h4l88 338l246 764q12 45 59 45h201q24 0 35 -16q10 -14 2 -42l-453 -1335q-16 -49 -65 -49h-232q-47 0 -63 49z" />
<glyph unicode="W" horiz-adv-x="2131" d="M70 1384q-4 14 -4 24q0 34 43 34h194q47 0 59 -45l183 -695l86 -366h4l92 371l188 690q12 45 64 45h174q52 0 64 -45l186 -690l92 -373h6l86 368l182 695q12 45 60 45h194q41 0 41 -34q0 -11 -4 -24l-374 -1335q-15 -49 -66 -49h-215q-49 0 -64 49l-192 658l-80 319h-6 l-82 -319l-190 -658q-12 -49 -64 -49h-215q-50 0 -66 49z" />
<glyph unicode="X" horiz-adv-x="1355" d="M57 19q-8 21 6 42l457 666l-446 655q-15 22 -5 41q9 19 33 19h205q42 0 70 -43l301 -453l301 453q27 43 72 43h202q25 0 33 -19q8 -20 -6 -41l-449 -653l461 -668q16 -20 7 -41q-9 -20 -35 -20h-201q-41 0 -74 45l-311 463l-313 -463q-29 -45 -74 -45h-201q-26 0 -33 19z " />
<glyph unicode="Y" horiz-adv-x="1357" d="M53 1423q11 19 37 19h197q45 0 67 -45l228 -434l96 -201h2l94 201l230 434q24 45 67 45h197q26 0 37 -19q10 -18 -2 -41l-482 -852v-479q0 -51 -49 -51h-186q-51 0 -51 51v479l-480 852q-12 23 -2 41z" />
<glyph unicode="Z" horiz-adv-x="1251" d="M106 51v150q0 35 31 82l656 903h-621q-49 0 -49 51v156q0 49 49 49h903q49 0 49 -49v-150q0 -42 -28 -80l-654 -905h648q49 0 49 -49v-158q0 -51 -49 -51h-934q-50 0 -50 51z" />
<glyph unicode="[" horiz-adv-x="768" d="M211 -178v1575q0 45 47 45h377q45 0 45 -45v-103q0 -49 -45 -49h-176v-1274h176q45 0 45 -47v-102q0 -47 -45 -47h-377q-47 0 -47 47z" />
<glyph unicode="\" horiz-adv-x="925" d="M25 1384q-27 58 36 58h158q43 0 64 -43l618 -1342q12 -25 2 -41t-39 -16h-157q-44 0 -66 43z" />
<glyph unicode="]" horiz-adv-x="772" d="M90 -76q0 47 49 47h174v1274h-174q-49 0 -49 49v103q0 45 49 45h375q47 0 47 -45v-1575q0 -47 -47 -47h-375q-49 0 -49 47v102z" />
<glyph unicode="^" d="M108 714q-9 18 5 44l362 647q18 37 64 37h149q46 0 64 -37l362 -647q14 -26 5 -44t-38 -18h-149q-43 0 -66 41l-254 459l-252 -459q-23 -41 -65 -41h-150q-28 0 -37 18z" />
<glyph unicode="_" horiz-adv-x="1054" d="M39 -123q0 47 47 47h883q47 0 47 -47v-59q0 -47 -47 -47h-883q-47 0 -47 47v59z" />
<glyph unicode="`" horiz-adv-x="727" d="M134 1433q-1 11 6 20q8 9 24 9h207q39 0 55 -32l94 -181q7 -16 0 -27q-8 -12 -28 -12h-103q-36 0 -61 25l-183 176q-9 9 -11 22z" />
<glyph unicode="a" horiz-adv-x="1177" d="M72 295q0 88 34 152q35 65 94 103q57 37 153 61q94 24 195 33q105 10 238 11v47q0 97 -55 142t-178 45q-148 0 -307 -62q-11 -4 -20 -4q-27 0 -40 33l-36 113q-3 8 -3 16q0 25 31 41q183 78 410 78q463 0 463 -389v-668q0 -47 -50 -47h-151q-42 0 -47 39l-8 111 q-108 -168 -373 -168q-163 0 -256 81q-94 82 -94 232zM330 311q0 -65 47 -104t133 -39q136 0 206 66t70 174v88q-115 -5 -188 -12q-79 -8 -140 -26q-68 -20 -98 -56t-30 -91z" />
<glyph unicode="b" horiz-adv-x="1302" d="M143 47v1350q0 45 47 45h177q47 0 47 -45v-463q44 81 137 125q94 45 205 45q217 0 337 -142q119 -141 119 -421t-119 -421q-120 -143 -337 -143q-113 0 -210 46q-95 45 -140 129l-7 -113q-5 -39 -47 -39h-162q-47 0 -47 47zM414 541q0 -344 264 -344q131 0 194 81 q64 82 64 263t-64 263q-63 81 -194 81q-264 0 -264 -344z" />
<glyph unicode="c" horiz-adv-x="1052" d="M88 543q0 273 146 416q148 145 395 145q201 0 315 -70q32 -17 32 -42q0 -10 -5 -21l-49 -111q-14 -29 -40 -29q-13 0 -28 7q-88 39 -192 39q-142 0 -220 -83q-77 -81 -77 -251q0 -171 77 -255q78 -85 215 -85q117 0 211 49q15 7 27 7q25 0 37 -30l49 -112q4 -9 4 -17 q0 -25 -33 -47q-122 -76 -313 -76q-253 0 -402 147t-149 419z" />
<glyph unicode="d" horiz-adv-x="1302" d="M90 541q0 279 120 421t337 142q111 0 206 -45t136 -125v463q0 45 47 45h176q49 0 49 -45v-1350q0 -47 -49 -47h-160q-44 0 -49 39l-6 113q-44 -84 -139 -129q-98 -46 -211 -46q-217 0 -337 143t-120 421zM367 541q0 -183 64 -263q65 -81 194 -81q266 0 266 344t-266 344 q-129 0 -194 -81q-64 -80 -64 -263z" />
<glyph unicode="e" horiz-adv-x="1191" d="M88 539q0 269 140 416q141 149 382 149q237 0 365 -140q129 -141 129 -374v-101q0 -49 -49 -49h-699q16 -122 104 -193t228 -71q138 0 268 64q13 6 24 6q26 0 38 -35l35 -96q2 -8 2 -15q0 -29 -33 -45q-160 -80 -356 -80q-271 0 -425 149q-153 148 -153 415zM350 612h508 v13q0 132 -62 204q-63 74 -182 74q-243 0 -264 -291z" />
<glyph unicode="f" horiz-adv-x="761" d="M41 897v115q0 47 45 47h111v86q0 315 331 315q95 0 158 -20q39 -12 39 -47v-105q0 -24 -10 -35t-31 -10q-74 10 -96 10q-64 0 -93 -29q-30 -30 -30 -98v-67h207q47 0 47 -47v-115q0 -47 -47 -47h-207v-807q0 -43 -47 -43h-172q-49 0 -49 43v807h-111q-45 0 -45 47z" />
<glyph unicode="g" horiz-adv-x="1236" d="M92 608q0 247 116 371q116 123 310 123q105 0 195 -44q88 -43 129 -116l6 96q5 41 49 41h156q47 0 47 -47v-850q0 -210 -136 -321t-382 -111q-241 0 -377 64q-32 16 -32 40q0 7 3 15l35 111q9 34 37 34q9 0 20 -4q145 -51 293 -51q140 0 211 61q72 61 72 175v88 q-40 -76 -126 -118t-190 -42q-198 0 -317 119t-119 366zM362 608q0 -293 234 -293q112 0 175 78t63 225q0 283 -238 283q-234 0 -234 -293z" />
<glyph unicode="h" horiz-adv-x="1257" d="M143 47v1350q0 45 47 45h177q47 0 47 -45v-461q39 69 125 119q85 49 217 49q188 0 280 -105q92 -106 92 -297v-655q0 -47 -47 -47h-176q-47 0 -47 47v608q0 109 -47 162t-154 53q-118 0 -180 -68q-63 -69 -63 -179v-576q0 -47 -47 -47h-177q-47 0 -47 47z" />
<glyph unicode="i" horiz-adv-x="555" d="M141 47v985q0 47 47 47h179q47 0 47 -47v-985q0 -47 -47 -47h-179q-47 0 -47 47zM141 1247v144q0 47 45 47h183q45 0 45 -47v-144q0 -47 -45 -47h-183q-45 0 -45 47z" />
<glyph unicode="j" horiz-adv-x="587" d="M-35 -55q0 39 36 39h7q51 -7 80 -7q88 0 88 119v936q0 47 45 47h178q47 0 47 -47v-962q0 -165 -67 -236q-67 -72 -221 -72q-94 0 -150 15q-43 12 -43 49v119zM174 1247v144q0 47 47 47h180q48 0 48 -47v-144q0 -47 -48 -47h-180q-47 0 -47 47z" />
<glyph unicode="k" horiz-adv-x="1114" d="M143 47v1350q0 45 47 45h177q47 0 47 -45v-670l346 320q36 32 69 32h207q26 0 33 -19q8 -20 -12 -40l-457 -424l479 -537q18 -21 11 -40t-33 -19h-209q-44 0 -72 37l-362 409v-399q0 -47 -47 -47h-177q-47 0 -47 47z" />
<glyph unicode="l" horiz-adv-x="550" d="M141 47v1350q0 45 45 45h179q47 0 47 -45v-1350q0 -47 -47 -47h-179q-45 0 -45 47z" />
<glyph unicode="m" horiz-adv-x="1871" d="M135 47v985q0 47 49 47h162q44 0 49 -41l11 -106q39 71 119 121q83 51 206 51q239 0 311 -182q107 182 357 182q172 0 258 -103t86 -290v-664q0 -47 -47 -47h-176q-47 0 -47 47v617q0 103 -41 156q-40 52 -136 52q-102 0 -162 -64q-61 -66 -61 -163v-598q0 -47 -47 -47 h-174q-47 0 -47 47v619q0 102 -40 154t-132 52q-107 0 -167 -66t-60 -173v-586q0 -47 -48 -47h-174q-49 0 -49 47z" />
<glyph unicode="n" horiz-adv-x="1245" d="M135 47v985q0 47 47 47h162q42 0 47 -41l10 -106q102 172 344 172q187 0 279 -105q92 -106 92 -294v-658q0 -47 -47 -47h-176q-49 0 -49 47v608q0 110 -46 162q-47 53 -153 53q-114 0 -177 -66q-62 -65 -62 -181v-576q0 -47 -48 -47h-176q-47 0 -47 47z" />
<glyph unicode="o" horiz-adv-x="1243" d="M88 541q0 272 142 417q143 146 391 146q247 0 391 -146q143 -144 143 -417q0 -274 -143 -418q-144 -146 -391 -146q-248 0 -391 146q-142 145 -142 418zM365 541q0 -346 256 -346q258 0 258 346t-258 346q-256 0 -256 -346z" />
<glyph unicode="p" horiz-adv-x="1296" d="M135 -178v1210q0 47 49 47h160q44 0 49 -41l6 -110q43 82 141 129q99 47 210 47q216 0 336 -142q120 -143 120 -421q0 -279 -120 -421q-120 -143 -336 -143q-116 0 -207 42t-135 126v-323q0 -47 -48 -47h-176q-49 0 -49 47zM406 541q0 -344 266 -344q131 0 194 81 q64 82 64 263t-64 263q-63 81 -194 81q-266 0 -266 -344z" />
<glyph unicode="q" horiz-adv-x="1296" d="M90 541q0 279 120 421t337 142q111 0 210 -47q96 -46 140 -129l6 110q5 41 49 41h160q49 0 49 -47v-1210q0 -47 -49 -47h-176q-47 0 -47 47v321q-41 -84 -134 -125q-94 -41 -208 -41q-217 0 -337 143t-120 421zM367 541q0 -183 64 -263q65 -81 194 -81q266 0 266 344 t-266 344q-129 0 -194 -81q-64 -80 -64 -263z" />
<glyph unicode="r" horiz-adv-x="827" d="M135 47v985q0 47 49 47h162q45 0 49 -43l11 -162q34 82 120 148q84 65 205 65q22 0 32 -8q9 -7 9 -32v-191q0 -37 -39 -37q-2 0 -5.5 0.5t-10.5 1t-12 0.5q-28 2 -37 2q-114 0 -187 -91t-73 -214v-471q0 -47 -48 -47h-176q-49 0 -49 47z" />
<glyph unicode="s" horiz-adv-x="976" d="M74 90l30 107q9 34 37 34q9 0 21 -4q128 -45 256 -45q109 0 163 26q52 25 52 89q0 55 -50 88t-169 74q-165 56 -221 96q-115 83 -115 244q0 149 105 227t304 78q197 0 334 -57q32 -14 32 -40q0 -8 -3 -16l-31 -102q-9 -35 -37 -35q-9 0 -20 4q-132 41 -234 41 q-95 0 -140 -25q-44 -24 -44 -81q0 -40 31 -71q29 -29 68 -46q36 -16 122 -45q168 -60 250 -131q84 -72 84 -209q0 -314 -440 -314q-208 0 -355 60q-33 11 -33 37q0 7 3 16z" />
<glyph unicode="t" horiz-adv-x="780" d="M23 897v115q0 47 49 47h116v252q0 43 48 43h163q50 0 50 -43v-252h227q47 0 47 -47v-115q0 -47 -47 -47h-225v-498q0 -89 28 -121t113 -32q17 0 86 10q22 2 30 -8q10 -11 11 -33l12 -115q2 -35 -39 -47q-66 -22 -172 -22q-181 0 -258 77q-78 78 -78 263v526h-112 q-49 0 -49 47z" />
<glyph unicode="u" horiz-adv-x="1230" d="M123 369v663q0 47 49 47h176q45 0 45 -47v-612q0 -106 43 -159q44 -54 148 -54q111 0 175 65t64 177v583q0 47 47 47h179q45 0 45 -47v-985q0 -47 -45 -47h-164q-45 0 -49 39l-9 111q-99 -173 -333 -173q-371 0 -371 392z" />
<glyph unicode="v" horiz-adv-x="1110" d="M43 1026q-4 13 -4 23q0 30 41 30h180q43 0 55 -45l154 -465l84 -299h6l84 299l152 465q12 45 55 45h184q25 0 34 -15t1 -38l-354 -987q-15 -39 -60 -39h-200q-45 0 -60 39z" />
<glyph unicode="w" horiz-adv-x="1742" d="M57 1026q-3 12 -3 21q0 32 40 32h182q44 0 56 -45l147 -547l45 -213h4l54 213l166 551q11 41 53 41h141q40 0 51 -41l170 -551l51 -213h5l45 213l147 547q12 45 55 45h183q41 0 41 -30q0 -10 -4 -23l-293 -981q-12 -45 -60 -45h-182q-46 0 -61 47l-156 492l-60 223h-6 l-59 -223l-154 -492q-15 -47 -61 -47h-182q-48 0 -60 45z" />
<glyph unicode="x" horiz-adv-x="1105" d="M42 17q-7 18 9 40l359 490l-351 475q-16 22 -9 40q7 17 32 17h186q42 0 70 -39l217 -309l215 309q28 39 70 39h180q23 0 30 -17t-8 -40l-348 -475l361 -490q15 -21 7 -39t-30 -18h-190q-46 0 -68 37l-223 325l-225 -325q-27 -37 -70 -37h-184q-23 0 -30 17z" />
<glyph unicode="y" horiz-adv-x="1101" d="M45 1026q-6 14 -6 25q0 28 41 28h184q38 0 55 -45l166 -479l90 -299h5l75 299l133 479q12 45 56 45h180q26 0 37 -15q10 -14 2 -38l-311 -936q-57 -186 -137 -257t-257 -71q-110 0 -194 23q-41 14 -41 42v5l14 117q6 38 43 37q2 0 42 -6q47 -7 75 -7q78 0 105 39 q15 22 15 50q0 24 -11 53z" />
<glyph unicode="z" horiz-adv-x="1052" d="M90 47v98q0 36 21 60l518 651h-477q-48 0 -48 47v129q0 47 48 47h755q49 0 49 -47v-98q0 -39 -26 -68l-512 -645h493q47 0 47 -45v-129q0 -47 -47 -47h-774q-47 0 -47 47z" />
<glyph unicode="{" horiz-adv-x="768" d="M63 545v127q0 47 48 47h32q64 0 91 75q28 78 28 242q0 239 64 323q63 83 247 83h89q49 0 49 -45v-105q0 -47 -49 -47h-37q-75 0 -96 -53q-21 -52 -21 -193q0 -345 -172 -391q172 -43 172 -389q0 -139 21 -192q22 -54 96 -54h37q49 0 49 -49v-102q0 -47 -49 -47h-89 q-184 0 -247 84q-64 85 -64 323q0 165 -28 243q-27 75 -91 75h-32q-48 0 -48 45z" />
<glyph unicode="|" horiz-adv-x="626" d="M195 -178v1614q0 47 49 47h141q45 0 45 -47v-1614q0 -47 -45 -47h-141q-49 0 -49 47z" />
<glyph unicode="}" horiz-adv-x="768" d="M59 -76q0 49 50 49h34q74 0 97 54q22 51 22 192q0 346 172 389q-172 46 -172 391q0 142 -22 193q-23 53 -97 53h-34q-50 0 -50 47v105q0 45 50 45h88q181 0 246 -84q65 -85 65 -322q0 -164 28 -242q27 -75 89 -75h32q48 0 48 -47v-127q0 -45 -48 -45h-32q-62 0 -89 -75 q-28 -78 -28 -245q0 -236 -65 -321q-65 -84 -246 -84h-88q-50 0 -50 47v102z" />
<glyph unicode="~" d="M131 668q10 110 72 178q61 67 157 67q88 0 209 -51l101 -43q84 -35 129 -35q66 0 96 64l3 6l4 12l4 12l3 7q15 41 62 18l94 -47q37 -16 31 -68q-12 -106 -74 -173q-62 -66 -158 -66q-84 0 -207 51l-94 43q-87 37 -133 37q-65 0 -98 -66q-11 -16 -15 -36q-15 -39 -61 -17 l-94 45q-33 15 -31 62z" />
<glyph unicode="&#xa1;" horiz-adv-x="628" d="M152 -225l51 819q5 45 47 45h127q45 0 49 -45l49 -819q4 -49 -47 -49h-227q-53 0 -49 49zM166 834v198q0 47 47 47h201q47 0 47 -47v-198q0 -48 -49 -48h-195q-51 0 -51 48z" />
<glyph unicode="&#xa2;" horiz-adv-x="1095" d="M90 539q0 245 126 391q127 146 343 170v137q0 47 47 47h88q47 0 47 -47v-139q146 -11 242 -66q40 -27 25 -61l-50 -111q-18 -45 -65 -24q-93 41 -211 41q-150 0 -232 -84q-83 -85 -83 -254q0 -336 317 -336q119 0 219 47q47 21 66 -25l49 -108q15 -39 -27 -64 q-89 -57 -250 -69v-142q0 -47 -47 -47h-88q-47 0 -47 47v142q-219 24 -344 167t-125 388z" />
<glyph unicode="&#xa3;" horiz-adv-x="1372" d="M88 688v72q0 39 39 39h129q-80 140 -80 241q0 184 136 305t409 121q258 0 381 -104q125 -105 125 -283q0 -94 -47 -94h-162q-22 0 -33 9q-10 8 -8 26q0 5 2 27t2 28q0 70 -65 115q-64 45 -185 45q-138 0 -208 -61t-70 -156q0 -70 71 -219h385q37 0 37 -39v-72 q0 -37 -37 -37h-331q43 -85 43 -153q0 -175 -185 -271q76 21 162 21q61 0 161 -17q95 -16 156 -16q86 0 119 39q32 38 37 119q1 43 53 43h123q56 0 56 -60q0 -183 -68 -277q-67 -93 -240 -93q-98 0 -235 27q-142 28 -221 28q-166 0 -279 -49q-48 -20 -65 4l-91 133 q-24 35 11 59q256 135 256 314q0 64 -45 149h-199q-39 0 -39 37z" />
<glyph unicode="&#xa4;" horiz-adv-x="1284" d="M182 168q-29 29 0 53l94 94q-83 105 -83 265q0 159 83 264l-94 96q-24 29 0 53l45 47q29 29 56 0l98 -100q105 72 260 72q157 0 262 -72l101 100q24 24 53 0l47 -47q26 -27 0 -53l-100 -98q86 -109 86 -262q0 -154 -86 -263l100 -96q26 -27 0 -53l-47 -47q-29 -24 -53 0 l-101 100q-99 -71 -262 -71q-161 0 -260 71l-98 -100q-31 -28 -56 0zM385 580q0 -116 69 -183q68 -67 187 -67t187 67q69 67 69 183t-69 184q-68 67 -187 67t-187 -67q-69 -68 -69 -184z" />
<glyph unicode="&#xa5;" horiz-adv-x="1335" d="M45 1423q11 19 37 19h197q45 0 67 -45l320 -625h6l319 625q21 45 68 45h194q26 0 37 -19q10 -18 -2 -41l-336 -596h207q39 0 39 -36v-70q0 -39 -39 -39h-280l-68 -117v-41h348q39 0 39 -37v-69q0 -39 -39 -39h-348v-287q0 -51 -51 -51h-187q-49 0 -49 51v287h-348 q-37 0 -37 39v69q0 37 37 37h348v41l-67 117h-281q-37 0 -37 39v70q0 36 37 36h207l-336 596q-12 23 -2 41z" />
<glyph unicode="&#xa6;" horiz-adv-x="626" d="M195 -178v590q0 47 49 47h141q45 0 45 -47v-590q0 -47 -45 -47h-141q-49 0 -49 47zM195 846v590q0 47 49 47h141q45 0 45 -47v-590q0 -47 -45 -47h-141q-49 0 -49 47z" />
<glyph unicode="&#xa7;" horiz-adv-x="1406" d="M152 647q0 93 63 166q62 73 176 94q-81 51 -127 109q-43 55 -43 137q0 160 118 236q116 75 372 75q219 0 395 -53q44 -15 37 -59l-19 -107q-10 -43 -59 -31q-132 37 -309 37q-143 0 -203 -30q-59 -29 -59 -95q0 -52 62 -87q61 -35 214 -91q23 -7 31 -10q232 -83 339 -160 t107 -211q0 -171 -246 -243q191 -99 191 -248q0 -154 -142 -236t-415 -82q-251 0 -383 47q-43 15 -37 62l16 106q6 43 60 31q131 -33 325 -33q304 0 304 123q0 29 -18 53q-21 28 -58 47q-18 9 -69 32q-24 11 -91 33l-84 30q-255 94 -328 141q-118 79 -120 217zM416 657 q0 -75 116 -127q52 -22 271 -96q81 11 130 45q51 35 52 78q0 72 -92 120q-94 49 -303 116q-83 -10 -129 -47q-45 -36 -45 -89z" />
<glyph unicode="&#xa8;" horiz-adv-x="727" d="M39 1255v136q0 47 49 47h145q48 0 48 -47v-136q0 -45 -48 -45h-145q-49 0 -49 45zM444 1255v136q0 47 50 47h145q47 0 47 -47v-136q0 -45 -47 -45h-145q-50 0 -50 45z" />
<glyph unicode="&#xa9;" horiz-adv-x="1777" d="M115 721q0 317 204 530q206 215 570 215q362 0 568 -215t206 -530q0 -313 -206 -528q-207 -216 -568 -216q-245 0 -423 105q-181 106 -265 270q-86 167 -86 369zM260 721q0 -261 164 -434q163 -172 465 -172q300 0 463 172q164 173 164 434q0 263 -164 436 q-163 172 -463 172q-302 0 -465 -172q-164 -173 -164 -436zM477 729q0 211 120 321q119 109 321 109q159 0 256 -59q30 -17 18 -47l-39 -97q-16 -34 -49 -18q-77 37 -160 37q-110 0 -175 -63q-64 -63 -64 -183q0 -119 64 -182q66 -64 173 -64q91 0 168 37q34 16 49 -18 l39 -94q12 -28 -18 -46q-99 -63 -265 -63q-198 0 -318 111t-120 319z" />
<glyph unicode="&#xaa;" horiz-adv-x="964" d="M53 1239q0 63 20 112t60 79q40 29 89 51q42 19 121 30q72 11 138 15t158 6v45q0 73 -42 106t-140 33q-111 0 -252 -53q-46 -18 -58 25l-32 92q-12 33 26 49q156 67 336 67q385 0 385 -307v-540q0 -48 -47 -48h-115q-44 0 -49 41l-6 62q-86 -115 -299 -115q-134 0 -213 66 q-80 66 -80 184zM274 1253q0 -106 140 -106q110 0 168 50q57 49 57 132v66q-184 0 -274 -30q-91 -30 -91 -112z" />
<glyph unicode="&#xab;" horiz-adv-x="1003" d="M68 580q0 12 6 22l170 283q18 33 57 33h150q23 0 31 -14q7 -13 -5 -34l-174 -290l174 -289q12 -21 5 -35t-31 -14h-150q-40 0 -57 32l-170 283q-6 11 -6 23zM485 578q0 6 9 24l168 283q18 33 59 33h149q24 0 32 -14q7 -13 -5 -34l-174 -290l174 -289q12 -21 5 -35 t-32 -14h-149q-39 0 -59 32l-168 283q-9 13 -9 21z" />
<glyph unicode="&#xac;" horiz-adv-x="1261" d="M111 647v133q0 47 47 47h903q47 0 47 -47v-483q0 -47 -47 -47h-172q-49 0 -49 47v303h-682q-47 0 -47 47z" />
<glyph unicode="&#xad;" horiz-adv-x="815" d="M82 492v129q0 45 47 45h557q47 0 47 -45v-129q0 -46 -47 -46h-557q-47 0 -47 46z" />
<glyph unicode="&#xae;" horiz-adv-x="960" d="M117 1104q0 156 93 259t271 103t269 -103q92 -104 92 -259q0 -152 -92 -258q-92 -105 -269 -105q-178 0 -271 105t-93 258zM195 1104q0 -130 70 -210q71 -81 216 -81q143 0 214 81q71 82 71 210t-71 211q-70 82 -214 82q-146 0 -216 -82t-70 -211zM332 928v362 q0 21 20 21h144q178 0 178 -140q0 -93 -92 -120l86 -121q7 -8 2 -16q-4 -7 -13 -7h-67q-15 0 -27 15l-78 116h-53v-110q0 -21 -20 -21h-60q-20 0 -20 21zM432 1114h53q49 0 69 12q19 12 19 45q0 60 -84 60h-57v-117z" />
<glyph unicode="&#xaf;" horiz-adv-x="727" d="M14 1266v69q0 45 43 45h611q45 0 45 -45v-69q0 -45 -45 -45h-611q-43 0 -43 45z" />
<glyph unicode="&#xb0;" horiz-adv-x="774" d="M78 1165q0 130 86 213q85 82 223 82t224 -82q87 -82 87 -213t-87 -214q-88 -83 -224 -83q-137 0 -223 83t-86 214zM225 1165q0 -71 45 -115q46 -44 117 -44t118 44q46 43 46 115q0 70 -46 115q-47 45 -118 45t-117 -44q-45 -43 -45 -116z" />
<glyph unicode="&#xb1;" d="M115 47v84q0 45 47 45h903q47 0 47 -45v-84q0 -47 -47 -47h-903q-47 0 -47 47zM115 727v127q0 45 47 45h327v311q0 47 48 47h153q45 0 45 -47v-311h330q47 0 47 -45v-127q0 -45 -47 -45h-330v-315q0 -45 -45 -45h-153q-48 0 -48 45v315h-327q-47 0 -47 45z" />
<glyph unicode="&#xb2;" horiz-adv-x="880" d="M92 1630q0 120 83 192t253 72q177 0 258 -75q82 -76 82 -197q0 -130 -109 -247q-107 -114 -256 -201h338q50 0 50 -48v-77q0 -48 -50 -48h-598q-49 0 -49 48v71q0 22 35 45q81 51 143 96q63 46 131 102q78 64 114 125q38 64 38 122q0 112 -135 112q-131 0 -131 -100 q0 -14 1 -26t1 -29q0 -39 -43 -39h-103q-36 0 -47 35q-6 27 -6 67z" />
<glyph unicode="&#xb3;" horiz-adv-x="880" d="M84 1102l31 78q16 44 63 26q105 -45 215 -45q160 0 160 109q0 100 -143 100h-103q-47 0 -47 49v62q0 49 47 49h101q131 0 131 98q0 96 -158 96q-97 0 -197 -41q-44 -18 -61 23l-31 80q-12 36 25 51q118 57 295 57q155 0 245 -59q93 -61 93 -178q0 -137 -121 -189 q137 -62 137 -204q0 -134 -91 -204q-92 -71 -255 -71q-186 0 -305 60q-43 21 -31 53z" />
<glyph unicode="&#xb4;" horiz-adv-x="727" d="M208 1222q-7 10 1 27l92 181q16 32 55 32h207q25 0 29 -18t-12 -33l-181 -176q-25 -25 -61 -25h-102q-20 0 -28 12z" />
<glyph unicode="&#xb5;" horiz-adv-x="1236" d="M135 -178v1210q0 47 49 47h176q48 0 48 -47v-586q0 -111 64 -176t173 -65q105 0 148 54q43 53 43 159v614q0 47 49 47h176q47 0 47 -47v-665q0 -392 -371 -392q-237 0 -331 172l2 -327q0 -45 -50 -45h-174q-49 0 -49 47z" />
<glyph unicode="&#xb6;" horiz-adv-x="1122" d="M94 991q0 217 137 334t367 117h444q48 0 48 -45v-60q0 -47 -48 -47h-75q-62 0 -84 -22q-23 -23 -23 -86v-1162q0 -130 -54 -193t-181 -63q-84 0 -144 27q-26 12 -26 39l4 68q0 30 37 30q12 0 42 -5t42 -5q90 0 90 123v496h-66q-226 0 -367 117q-143 119 -143 337z" />
<glyph unicode="&#xb7;" horiz-adv-x="507" d="M113 459v196q0 45 51 45h180q51 0 51 -45v-196q0 -47 -47 -47h-188q-47 0 -47 47z" />
<glyph unicode="&#xb8;" horiz-adv-x="727" d="M270 -231q0 26 31 26h61q99 0 99 64q0 92 -178 159h98q98 -18 169 -72t71 -128q0 -160 -226 -160q-67 0 -96 12q-29 6 -29 31v68z" />
<glyph unicode="&#xb9;" horiz-adv-x="880" d="M145 1653q-18 32 11 55l229 158q23 16 61 16h111q49 0 49 -47v-786q0 -48 -49 -48h-115q-47 0 -47 48v602l-137 -80q-43 -24 -65 10z" />
<glyph unicode="&#xba;" horiz-adv-x="1003" d="M63 1442q0 224 117 339q116 115 322 115q205 0 321 -115q117 -115 117 -339q0 -222 -117 -337q-118 -116 -321 -116q-204 0 -322 116q-117 115 -117 337zM299 1442q0 -264 203 -264t203 264q0 268 -203 268t-203 -268z" />
<glyph unicode="&#xbb;" horiz-adv-x="1003" d="M101 256q-7 14 5 35l175 289l-175 290q-12 21 -5 34q8 14 32 14h150q39 0 57 -33l170 -283q6 -10 6 -22t-6 -23l-170 -283q-20 -32 -57 -32h-150q-25 0 -32 14zM521 256q-7 14 5 35l174 289l-174 290q-12 21 -5 34q8 14 30 14h149q42 0 60 -33l170 -283q6 -10 6 -22 t-6 -23l-170 -283q-20 -32 -60 -32h-149q-23 0 -30 14z" />
<glyph unicode="&#xbc;" horiz-adv-x="2064" d="M145 1212q-18 33 11 56l229 157q25 17 61 17h111q49 0 49 -47v-787q0 -47 -49 -47h-115q-47 0 -47 47v602l-137 -80q-43 -23 -65 11zM539 47l819 1352q27 43 67 43h123q52 0 25 -45l-819 -1352q-27 -45 -68 -45h-121q-53 0 -26 47zM1229 223v84q0 27 18 45l426 502 q23 27 51 27h117q49 0 49 -47v-482h82q49 0 49 -47v-78q0 -47 -49 -47h-82v-133q0 -47 -49 -47h-112q-48 0 -48 47v133h-405q-47 0 -47 43zM1427 352h254v299z" />
<glyph unicode="&#xbd;" horiz-adv-x="2064" d="M145 1212q-18 33 11 56l229 157q25 17 61 17h111q49 0 49 -47v-787q0 -47 -49 -47h-115q-47 0 -47 47v602l-137 -80q-43 -23 -65 11zM465 47l819 1352q27 43 68 43h123q51 0 24 -45l-819 -1352q-27 -45 -68 -45h-120q-54 0 -27 47zM1284 629q0 -39 6 -68q11 -35 47 -35 h103q43 0 43 39q0 18 -1 30t-1 26q0 100 131 100q135 0 135 -113q0 -58 -38 -122q-36 -61 -114 -125q-68 -56 -131 -102q-52 -38 -143 -95q-35 -23 -35 -45v-72q0 -47 49 -47h598q49 0 49 47v78q0 47 -49 47h-338q147 86 256 202q109 117 109 247q0 120 -82 196t-258 76 q-169 0 -253 -73q-83 -72 -83 -191z" />
<glyph unicode="&#xbe;" horiz-adv-x="2064" d="M84 662l31 77q17 45 63 27q105 -45 215 -45q160 0 160 108q0 101 -143 101h-103q-47 0 -47 49v61q0 50 47 50h101q131 0 131 98q0 96 -158 96q-97 0 -197 -41q-44 -18 -61 23l-31 80q-12 36 25 51q118 57 295 57q155 0 245 -59q93 -61 93 -178q0 -137 -121 -189 q137 -62 137 -205q0 -133 -91 -203q-92 -71 -255 -71q-188 0 -305 59q-43 21 -31 54zM571 47l820 1352q27 43 67 43h123q52 0 25 -45l-820 -1352q-27 -45 -67 -45h-121q-54 0 -27 47zM1229 223v84q0 27 18 45l426 502q23 27 51 27h117q49 0 49 -47v-482h82q49 0 49 -47v-78 q0 -47 -49 -47h-82v-133q0 -47 -49 -47h-112q-48 0 -48 47v133h-405q-47 0 -47 43zM1427 352h254v299z" />
<glyph unicode="&#xbf;" horiz-adv-x="1009" d="M84 35q0 -326 459 -326q236 0 403 82q44 23 29 59l-49 127q-17 46 -64 25q-145 -59 -276 -59q-127 0 -175 30q-49 31 -49 105q0 73 49 143t105 116q61 50 106 106q48 60 48 116v35q0 47 -49 47h-160q-49 0 -49 -47v-35q0 -39 -34 -79q-33 -38 -82 -80q-48 -40 -96 -87 q-47 -45 -82 -119q-34 -71 -34 -159zM397 834v198q0 47 47 47h201q47 0 47 -47v-201q0 -45 -49 -45h-197q-49 0 -49 48z" />
<glyph unicode="&#xc0;" horiz-adv-x="1400" d="M45 57l477 1338q17 47 62 47h233q45 0 62 -47l477 -1338q8 -25 -2 -41t-35 -16h-199q-44 0 -59 45l-94 268h-533l-94 -268q-15 -45 -57 -45h-199q-26 0 -38 16t-1 41zM392 1772q-2 12 6 21t24 9h207q39 0 57 -35l92 -180q7 -14 0 -26q-8 -13 -28 -13h-101q-36 0 -63 27 l-183 174q-9 9 -11 23zM496 555h407l-198 604h-7z" />
<glyph unicode="&#xc1;" horiz-adv-x="1400" d="M45 57l477 1338q17 47 62 47h233q45 0 62 -47l477 -1338q8 -25 -2 -41t-35 -16h-199q-44 0 -59 45l-94 268h-533l-94 -268q-15 -45 -57 -45h-199q-26 0 -38 16t-1 41zM496 555h407l-198 604h-7zM623 1561q-7 12 0 26l92 180q18 35 57 35h207q25 0 29 -18t-13 -35 l-180 -174q-27 -27 -63 -27h-101q-20 0 -28 13z" />
<glyph unicode="&#xc2;" horiz-adv-x="1400" d="M45 57l477 1338q17 47 62 47h233q45 0 62 -47l477 -1338q8 -25 -2 -41t-35 -16h-199q-44 0 -59 45l-94 268h-533l-94 -268q-15 -45 -57 -45h-199q-26 0 -38 16t-1 41zM384 1564q-5 15 9 29l187 195q29 29 65 29h111q38 0 65 -29l189 -195q14 -14 9 -29q-5 -16 -28 -16 h-96q-27 0 -57 25l-136 106l-139 -106q-34 -25 -57 -25h-94q-23 0 -28 16zM496 555h407l-198 604h-7z" />
<glyph unicode="&#xc3;" horiz-adv-x="1400" d="M45 57l477 1338q17 47 62 47h233q45 0 62 -47l477 -1338q8 -25 -2 -41t-35 -16h-199q-44 0 -59 45l-94 268h-533l-94 -268q-15 -45 -57 -45h-199q-26 0 -38 16t-1 41zM336 1604q0 79 42 125q42 47 124 47q69 0 174 -37l78 -29q69 -27 108 -27q43 0 49 39l2 17q5 33 48 33 h61q45 0 45 -64q0 -78 -40 -124t-122 -46q-83 0 -178 37l-72 27q-66 26 -114 26q-47 0 -49 -33l-3 -16q-6 -35 -47 -35h-63q-43 0 -43 60zM496 555h407l-198 604h-7z" />
<glyph unicode="&#xc4;" horiz-adv-x="1400" d="M45 57l477 1338q17 47 62 47h233q45 0 62 -47l477 -1338q8 -25 -2 -41t-35 -16h-199q-44 0 -59 45l-94 268h-533l-94 -268q-15 -45 -57 -45h-199q-26 0 -38 16t-1 41zM371 1595v129q0 48 45 48h153q49 0 49 -48v-129q0 -47 -49 -47h-153q-45 0 -45 47zM496 555h407 l-198 604h-7zM786 1595v129q0 48 45 48h154q47 0 47 -48v-129q0 -47 -47 -47h-154q-45 0 -45 47z" />
<glyph unicode="&#xc5;" horiz-adv-x="1400" d="M45 57l477 1338q0 2 2 4q-57 57 -57 149q0 97 65 156t170 59t170 -59q66 -60 66 -156q0 -94 -61 -151l2 -2l477 -1338q8 -25 -2 -41t-35 -16h-199q-44 0 -59 45l-94 268h-533l-94 -268q-15 -45 -57 -45h-199q-26 0 -38 16t-1 41zM496 555h407l-198 604h-7zM588 1548 q0 -50 30 -77t84 -27q51 0 81 27t30 77q0 48 -30 76q-31 29 -81 29q-53 0 -84 -29q-30 -28 -30 -76z" />
<glyph unicode="&#xc6;" horiz-adv-x="1828" d="M18 17q-10 18 0 40l629 1338q21 47 66 47h964q49 0 49 -49v-148q0 -49 -49 -49h-520v-342h496q47 0 47 -51v-135q0 -52 -47 -52h-496v-368h531q49 0 49 -49v-148q0 -51 -49 -51h-764q-50 0 -50 51v250h-432l-123 -256q-23 -45 -61 -45h-205q-25 0 -35 17zM524 543h348 v655h-45z" />
<glyph unicode="&#xc7;" horiz-adv-x="1265" d="M98 721q0 366 173 556q173 189 485 189q235 0 387 -92q43 -28 28 -63l-55 -125q-18 -47 -69 -25q-111 51 -246 51q-210 0 -311 -120t-101 -371q0 -249 104 -370q103 -120 318 -120q139 0 250 60q46 18 69 -29l58 -127q15 -34 -31 -61q-146 -96 -389 -97q127 -67 127 -174 q0 -81 -60 -124q-61 -44 -173 -44q-65 0 -101 13q-29 11 -29 33v71q0 29 31 29h64q100 0 100 67q0 82 -119 144q-244 44 -377 226t-133 503z" />
<glyph unicode="&#xc8;" horiz-adv-x="1157" d="M152 51v1342q0 49 49 49h807q51 0 51 -49v-146q0 -51 -51 -51h-574v-342h547q49 0 49 -51v-135q0 -52 -49 -52h-547v-370h582q51 0 51 -49v-146q0 -51 -51 -51h-813q-51 0 -51 51zM366 1772q-2 12 6 21t23 9h207q40 0 57 -35l93 -180q7 -14 0 -26q-8 -13 -29 -13h-100 q-37 0 -64 27l-182 174q-9 9 -11 23z" />
<glyph unicode="&#xc9;" horiz-adv-x="1157" d="M152 51v1342q0 49 49 49h807q51 0 51 -49v-146q0 -51 -51 -51h-574v-342h547q49 0 49 -51v-135q0 -52 -49 -52h-547v-370h582q51 0 51 -49v-146q0 -51 -51 -51h-813q-51 0 -51 51zM502 1561q-7 12 0 26l92 180q17 35 57 35h207q24 0 29 -18q4 -18 -13 -35l-180 -174 q-27 -27 -63 -27h-101q-20 0 -28 13z" />
<glyph unicode="&#xca;" horiz-adv-x="1157" d="M152 51v1342q0 49 49 49h807q51 0 51 -49v-146q0 -51 -51 -51h-574v-342h547q49 0 49 -51v-135q0 -52 -49 -52h-547v-370h582q51 0 51 -49v-146q0 -51 -51 -51h-813q-51 0 -51 51zM296 1564q-5 15 9 29l187 195q29 29 65 29h111q38 0 65 -29l189 -195q14 -14 9 -29 q-5 -16 -28 -16h-96q-27 0 -57 25l-136 106l-139 -106q-34 -25 -57 -25h-94q-23 0 -28 16z" />
<glyph unicode="&#xcb;" horiz-adv-x="1157" d="M152 51v1342q0 49 49 49h807q51 0 51 -49v-146q0 -51 -51 -51h-574v-342h547q49 0 49 -51v-135q0 -52 -49 -52h-547v-370h582q51 0 51 -49v-146q0 -51 -51 -51h-813q-51 0 -51 51zM281 1595v129q0 48 45 48h153q49 0 49 -48v-129q0 -47 -49 -47h-153q-45 0 -45 47z M696 1595v129q0 48 45 48h154q47 0 47 -48v-129q0 -47 -47 -47h-154q-45 0 -45 47z" />
<glyph unicode="&#xcc;" horiz-adv-x="612" d="M15 1772q-1 11 7 21q8 9 23 9h207q39 0 57 -35l92 -180q7 -14 0 -26q-8 -13 -28 -13h-101q-36 0 -63 27l-182 174q-10 10 -12 23zM164 51v1342q0 49 49 49h186q52 0 52 -49v-1342q0 -51 -52 -51h-186q-49 0 -49 51z" />
<glyph unicode="&#xcd;" horiz-adv-x="612" d="M164 51v1342q0 49 49 49h186q52 0 52 -49v-1342q0 -51 -52 -51h-186q-49 0 -49 51zM219 1561q-7 12 0 26l92 180q17 35 58 35h206q25 0 29 -18q5 -18 -12 -35l-180 -174q-27 -27 -64 -27h-100q-21 0 -29 13z" />
<glyph unicode="&#xce;" horiz-adv-x="612" d="M-13 1564q-5 15 9 29l186 195q29 29 66 29h110q39 0 66 -29l188 -195q14 -14 10 -29q-5 -16 -28 -16h-96q-28 0 -58 25l-135 106l-139 -106q-34 -25 -57 -25h-95q-22 0 -27 16zM164 51v1342q0 49 49 49h186q52 0 52 -49v-1342q0 -51 -52 -51h-186q-49 0 -49 51z" />
<glyph unicode="&#xcf;" horiz-adv-x="612" d="M-27 1595v129q0 48 45 48h154q49 0 49 -48v-129q0 -47 -49 -47h-154q-45 0 -45 47zM164 51v1342q0 49 49 49h186q52 0 52 -49v-1342q0 -51 -52 -51h-186q-49 0 -49 51zM389 1595v129q0 48 45 48h154q47 0 47 -48v-129q0 -47 -47 -47h-154q-45 0 -45 47z" />
<glyph unicode="&#xd0;" horiz-adv-x="1411" d="M27 680v86q0 39 36 39h93v588q0 49 49 49h395q360 0 538 -167q177 -167 177 -554q0 -385 -177 -553t-536 -168h-395q-51 0 -51 51v592h-93q-36 0 -36 37zM442 254h150q224 0 328 101t104 366t-105 366q-106 101 -329 101h-148v-383h250q37 0 37 -39v-86q0 -37 -37 -37 h-250v-389z" />
<glyph unicode="&#xd1;" horiz-adv-x="1452" d="M152 51v1342q0 49 51 49h180q48 0 66 -33l575 -930v914q0 49 49 49h178q49 0 49 -47v-1344q0 -51 -49 -51h-184q-42 0 -63 35l-576 928v-912q0 -51 -49 -51h-176q-51 0 -51 51zM360 1604q0 79 42 125q42 47 124 47q69 0 174 -37l78 -29q69 -27 109 -27q43 0 49 39l2 17 q4 33 47 33h62q45 0 45 -64q0 -78 -40 -124t-122 -46q-83 0 -178 37l-72 27q-66 26 -115 26q-47 0 -49 -33l-2 -16q-6 -35 -47 -35h-64q-43 0 -43 60z" />
<glyph unicode="&#xd2;" horiz-adv-x="1470" d="M96 721q0 367 167 557q166 188 472 188t472 -188q167 -190 167 -557q0 -368 -167 -556t-474 -188q-305 0 -471 189q-166 188 -166 555zM387 721q0 -494 348 -494q346 0 346 494q0 496 -346 496q-348 0 -348 -496zM447 1772q-1 11 7 21q8 9 23 9h207q40 0 57 -35l93 -180 q7 -14 0 -26q-8 -13 -29 -13h-100q-37 0 -64 27l-182 174q-10 10 -12 23z" />
<glyph unicode="&#xd3;" horiz-adv-x="1470" d="M96 721q0 367 167 557q166 188 472 188t472 -188q167 -190 167 -557q0 -368 -167 -556t-474 -188q-305 0 -471 189q-166 188 -166 555zM387 721q0 -494 348 -494q346 0 346 494q0 496 -346 496q-348 0 -348 -496zM647 1561q-7 12 0 26l92 180q18 35 58 35h207 q24 0 28 -18q5 -18 -12 -35l-180 -174q-27 -27 -64 -27h-100q-21 0 -29 13z" />
<glyph unicode="&#xd4;" horiz-adv-x="1470" d="M96 721q0 367 167 557q166 188 472 188t472 -188q167 -190 167 -557q0 -368 -167 -556t-474 -188q-305 0 -471 189q-166 188 -166 555zM387 721q0 -494 348 -494q346 0 346 494q0 496 -346 496q-348 0 -348 -496zM417 1564q-5 15 9 29l186 195q29 29 66 29h110 q39 0 66 -29l188 -195q14 -14 10 -29q-5 -16 -28 -16h-96q-28 0 -58 25l-135 106l-139 -106q-34 -25 -57 -25h-95q-22 0 -27 16z" />
<glyph unicode="&#xd5;" horiz-adv-x="1470" d="M96 721q0 367 167 557q166 188 472 188t472 -188q167 -190 167 -557q0 -368 -167 -556t-474 -188q-305 0 -471 189q-166 188 -166 555zM369 1604q0 79 42 125q42 47 124 47q69 0 174 -37l77 -29q69 -27 109 -27q43 0 49 39l2 17q4 33 47 33h62q45 0 45 -64 q0 -78 -40 -124t-122 -46q-83 0 -178 37l-72 27q-66 26 -115 26q-47 0 -49 -33l-2 -16q-6 -35 -47 -35h-63q-43 0 -43 60zM387 721q0 -494 348 -494q346 0 346 494q0 496 -346 496q-348 0 -348 -496z" />
<glyph unicode="&#xd6;" horiz-adv-x="1470" d="M96 721q0 367 167 557q166 188 472 188t472 -188q167 -190 167 -557q0 -368 -167 -556t-474 -188q-305 0 -471 189q-166 188 -166 555zM387 721q0 -494 348 -494q346 0 346 494q0 496 -346 496q-348 0 -348 -496zM403 1595v129q0 48 46 48h153q49 0 49 -48v-129 q0 -47 -49 -47h-153q-46 0 -46 47zM819 1595v129q0 48 45 48h154q47 0 47 -48v-129q0 -47 -47 -47h-154q-45 0 -45 47z" />
<glyph unicode="&#xd7;" d="M168 360q-33 33 0 66l281 281l-281 278q-33 30 0 68l98 98q35 33 68 0l278 -281l281 281q33 33 65 0l101 -98q35 -31 -2 -68l-281 -278l281 -281q31 -35 0 -66l-99 -100q-33 -30 -65 2l-281 279l-278 -281q-35 -35 -68 0z" />
<glyph unicode="&#xd8;" horiz-adv-x="1474" d="M98 721q0 367 167 557q166 188 472 188q239 0 398 -129l77 86q33 35 66 11l63 -50q38 -27 9 -65l-95 -111q121 -188 121 -487q0 -368 -167 -556t-472 -188q-252 0 -399 129l-82 -90q-31 -35 -66 -8l-63 51q-35 27 -6 62l96 112q-119 184 -119 488zM391 721 q0 -145 31 -232l547 635q-90 93 -232 93q-346 0 -346 -496zM502 317q92 -90 235 -90q348 0 348 494q0 131 -32 233z" />
<glyph unicode="&#xd9;" horiz-adv-x="1421" d="M141 522v871q0 49 52 49h184q51 0 51 -49v-846q0 -155 68 -235q67 -79 215 -79q282 0 282 314v846q0 49 49 49h187q49 0 49 -49v-871q0 -268 -142 -407q-143 -140 -425 -140q-281 0 -426 140q-144 139 -144 407zM443 1772q-1 11 7 21q8 9 23 9h207q40 0 57 -35l92 -180 q7 -14 0 -26q-8 -13 -28 -13h-101q-36 0 -63 27l-182 174q-10 10 -12 23z" />
<glyph unicode="&#xda;" horiz-adv-x="1421" d="M141 522v871q0 49 52 49h184q51 0 51 -49v-846q0 -155 68 -235q67 -79 215 -79q282 0 282 314v846q0 49 49 49h187q49 0 49 -49v-871q0 -268 -142 -407q-143 -140 -425 -140q-281 0 -426 140q-144 139 -144 407zM590 1561q-7 12 0 26l92 180q18 35 57 35h207q24 0 29 -18 t-12 -35l-181 -174q-27 -27 -63 -27h-101q-20 0 -28 13z" />
<glyph unicode="&#xdb;" horiz-adv-x="1421" d="M141 522v871q0 49 52 49h184q51 0 51 -49v-846q0 -155 68 -235q67 -79 215 -79q282 0 282 314v846q0 49 49 49h187q49 0 49 -49v-871q0 -268 -142 -407q-143 -140 -425 -140q-281 0 -426 140q-144 139 -144 407zM392 1564q-5 15 9 29l187 195q29 29 65 29h111 q38 0 65 -29l189 -195q14 -14 9 -29q-5 -16 -28 -16h-96q-27 0 -57 25l-135 106l-140 -106q-34 -25 -57 -25h-94q-23 0 -28 16z" />
<glyph unicode="&#xdc;" horiz-adv-x="1421" d="M141 522v871q0 49 52 49h184q51 0 51 -49v-846q0 -155 68 -235q67 -79 215 -79q282 0 282 314v846q0 49 49 49h187q49 0 49 -49v-871q0 -268 -142 -407q-143 -140 -425 -140q-281 0 -426 140q-144 139 -144 407zM379 1595v129q0 48 45 48h154q49 0 49 -48v-129 q0 -47 -49 -47h-154q-45 0 -45 47zM795 1595v129q0 48 45 48h153q47 0 47 -48v-129q0 -47 -47 -47h-153q-45 0 -45 47z" />
<glyph unicode="&#xdd;" horiz-adv-x="1357" d="M53 1423q11 19 37 19h197q45 0 67 -45l228 -434l96 -201h2l94 201l230 434q24 45 67 45h197q26 0 37 -19q10 -18 -2 -41l-482 -852v-479q0 -51 -49 -51h-186q-51 0 -51 51v479l-480 852q-12 23 -2 41zM590 1561q-7 12 0 26l92 180q18 35 57 35h207q24 0 29 -18t-12 -35 l-181 -174q-27 -27 -63 -27h-101q-20 0 -28 13z" />
<glyph unicode="&#xde;" horiz-adv-x="1318" d="M152 51v1342q0 49 51 49h182q51 0 51 -49v-119h193q300 0 445 -115t145 -381t-145 -381q-144 -114 -445 -114h-193v-232q0 -51 -51 -51h-184q-49 0 -49 51zM436 524h191q162 0 235 59q72 59 72 197q0 137 -73 195q-72 57 -234 57h-191v-508z" />
<glyph unicode="&#xdf;" horiz-adv-x="1343" d="M143 43v1018q0 207 137 306t386 99q222 0 344 -87q120 -86 120 -232q0 -76 -40 -137q-40 -60 -90 -90q-40 -24 -89 -60q-41 -30 -41 -53q0 -20 40 -44q21 -12 98 -55q57 -32 114 -75q58 -44 98 -121t40 -178q0 -350 -414 -350q-164 0 -221 20q-41 15 -41 37v113 q0 43 47 41q61 -7 100 -7q262 0 262 181q0 64 -40 116q-42 54 -95 90t-112 70q-55 32 -96 73q-40 40 -40 85q0 40 40 77t88 64t88 70t40 90q0 65 -53 110q-54 46 -168 46q-116 0 -180 -56t-64 -164v-997q0 -43 -47 -43h-164q-47 0 -47 43z" />
<glyph unicode="&#xe0;" horiz-adv-x="1177" d="M72 295q0 88 34 152q35 65 94 103q57 37 153 61q94 24 195 33q105 10 238 11v47q0 97 -55 142t-178 45q-148 0 -307 -62q-43 -15 -60 29l-36 113q-12 36 28 57q183 78 410 78q463 0 463 -389v-668q0 -47 -50 -47h-151q-42 0 -47 39l-8 111q-108 -168 -373 -168 q-163 0 -256 81q-94 82 -94 232zM323 1433q-1 11 6 20t23 9h207q39 0 55 -33l95 -180q7 -16 0 -27q-7 -12 -29 -12h-102q-37 0 -62 25l-182 176q-9 9 -11 22zM330 311q0 -65 47 -104t133 -39q136 0 206 66t70 174v88q-115 -5 -188 -12q-79 -8 -140 -26q-68 -20 -98 -56 t-30 -91z" />
<glyph unicode="&#xe1;" horiz-adv-x="1177" d="M72 295q0 88 34 152q35 65 94 103q57 37 153 61q94 24 195 33q105 10 238 11v47q0 97 -55 142t-178 45q-148 0 -307 -62q-43 -15 -60 29l-36 113q-12 36 28 57q183 78 410 78q463 0 463 -389v-668q0 -47 -50 -47h-151q-42 0 -47 39l-8 111q-108 -168 -373 -168 q-163 0 -256 81q-94 82 -94 232zM330 311q0 -65 47 -104t133 -39q136 0 206 66t70 174v88q-115 -5 -188 -12q-79 -8 -140 -26q-68 -20 -98 -56t-30 -91zM466 1222q-7 10 1 27l92 180q17 33 55 33h207q25 0 29 -18t-12 -33l-181 -176q-25 -25 -61 -25h-102q-20 0 -28 12z" />
<glyph unicode="&#xe2;" horiz-adv-x="1177" d="M72 295q0 88 34 152q35 65 94 103q57 37 153 61q94 24 195 33q105 10 238 11v47q0 97 -55 142t-178 45q-148 0 -307 -62q-43 -15 -60 29l-36 113q-12 36 28 57q183 78 410 78q463 0 463 -389v-668q0 -47 -50 -47h-151q-42 0 -47 39l-8 111q-108 -168 -373 -168 q-163 0 -256 81q-94 82 -94 232zM268 1226q-6 15 8 29l189 199q27 29 65 29h111q39 0 66 -29l188 -199q14 -14 9 -29q-5 -16 -27 -16h-95q-24 0 -55 25l-139 111l-142 -111q-31 -25 -55 -25h-94q-23 0 -29 16zM330 311q0 -65 47 -104t133 -39q136 0 206 66t70 174v88 q-115 -5 -188 -12q-79 -8 -140 -26q-68 -20 -98 -56t-30 -91z" />
<glyph unicode="&#xe3;" horiz-adv-x="1177" d="M72 295q0 88 34 152q35 65 94 103q57 37 153 61q94 24 195 33q105 10 238 11v47q0 97 -55 142t-178 45q-148 0 -307 -62q-43 -15 -60 29l-36 113q-12 36 28 57q183 78 410 78q463 0 463 -389v-668q0 -47 -50 -47h-151q-42 0 -47 39l-8 111q-108 -168 -373 -168 q-163 0 -256 81q-94 82 -94 232zM233 1268q0 166 154 166q72 0 172 -35l74 -27q67 -24 100 -24q39 0 45 36l2 15q4 33 45 33h64q41 0 41 -62q0 -164 -150 -164q-72 0 -174 35l-71 27q-136 51 -146 -8l-4 -17q-6 -31 -45 -31h-61q-25 0 -35 12q-11 13 -11 44zM330 311 q0 -65 47 -104t133 -39q136 0 206 66t70 174v88q-115 -5 -188 -12q-79 -8 -140 -26q-68 -20 -98 -56t-30 -91z" />
<glyph unicode="&#xe4;" horiz-adv-x="1177" d="M72 295q0 88 34 152q35 65 94 103q57 37 153 61q94 24 195 33q105 10 238 11v47q0 97 -55 142t-178 45q-148 0 -307 -62q-43 -15 -60 29l-36 113q-12 36 28 57q183 78 410 78q463 0 463 -389v-668q0 -47 -50 -47h-151q-42 0 -47 39l-8 111q-108 -168 -373 -168 q-163 0 -256 81q-94 82 -94 232zM258 1255v136q0 47 49 47h146q47 0 47 -47v-136q0 -45 -47 -45h-146q-49 0 -49 45zM330 311q0 -65 47 -104t133 -39q136 0 206 66t70 174v88q-115 -5 -188 -12q-79 -8 -140 -26q-68 -20 -98 -56t-30 -91zM664 1255v136q0 47 49 47h145 q47 0 47 -47v-136q0 -45 -47 -45h-145q-49 0 -49 45z" />
<glyph unicode="&#xe5;" horiz-adv-x="1177" d="M72 295q0 88 34 152q35 65 94 103q57 37 153 61q94 24 195 33q105 10 238 11v47q0 97 -55 142t-178 45q-148 0 -307 -62q-43 -15 -60 29l-36 113q-12 36 28 57q183 78 410 78q463 0 463 -389v-668q0 -47 -50 -47h-151q-42 0 -47 39l-8 111q-108 -168 -373 -168 q-163 0 -256 81q-94 82 -94 232zM330 311q0 -65 47 -104t133 -39q136 0 206 66t70 174v88q-115 -5 -188 -12q-79 -8 -140 -26q-68 -20 -98 -56t-30 -91zM360 1411q0 94 65 153q64 58 167 58q104 0 169 -58q66 -58 66 -153t-65 -154t-168 -59t-168 59q-66 60 -66 154z M479 1411q0 -49 31 -77q30 -27 84 -27q50 0 80 27q31 28 31 77q0 47 -31 75q-30 27 -82 27t-82 -27q-31 -28 -31 -75z" />
<glyph unicode="&#xe6;" horiz-adv-x="1863" d="M72 295q0 75 21 132q20 54 72 92q50 37 104 59q49 20 146 33q92 12 170 15q100 4 201 5v92q-4 166 -231 166q-152 0 -315 -62q-41 -17 -58 29l-39 113q-12 39 29 57q197 78 403 78q298 0 367 -182q47 86 144 134q98 48 223 48q217 0 341 -136t124 -362v-110 q0 -47 -50 -47h-675q17 -127 101 -199q86 -74 218 -74q114 0 262 64q45 21 62 -31l34 -98q11 -34 -30 -58q-55 -32 -154 -55q-98 -23 -194 -23q-163 0 -278 62t-155 160q-131 -215 -440 -215q-403 0 -403 313zM330 311q0 -141 188 -141q133 0 202 71q68 69 68 177v51 q-280 -6 -358 -33q-100 -33 -100 -125zM1042 621h486v14q0 127 -59 198q-58 70 -173 70q-113 0 -179 -72q-68 -74 -75 -210z" />
<glyph unicode="&#xe7;" horiz-adv-x="1052" d="M88 543q0 273 146 416q148 145 395 145q201 0 315 -70q44 -24 27 -63l-49 -111q-21 -43 -68 -22q-88 39 -192 39q-142 0 -220 -83q-77 -81 -77 -251q0 -171 77 -255q78 -85 215 -85q117 0 211 49q47 21 64 -23l49 -112q15 -35 -29 -64q-112 -71 -301 -76 q121 -60 121 -159q0 -160 -225 -160q-67 0 -96 12q-29 6 -29 31v68q0 26 31 26h61q98 0 98 64q0 73 -114 133q-194 38 -301 178q-109 142 -109 373z" />
<glyph unicode="&#xe8;" horiz-adv-x="1191" d="M88 539q0 269 140 416q141 149 382 149q237 0 365 -140q129 -141 129 -374v-101q0 -49 -49 -49h-699q16 -122 104 -193t228 -71q138 0 268 64q44 21 62 -29l35 -96q10 -39 -31 -60q-160 -80 -356 -80q-271 0 -425 149q-153 148 -153 415zM333 1433q-1 11 6 20t23 9h207 q40 0 56 -32l94 -181q7 -16 0 -27q-7 -12 -29 -12h-102q-37 0 -62 25l-182 176q-9 9 -11 22zM350 612h508v13q0 132 -62 204q-63 74 -182 74q-243 0 -264 -291z" />
<glyph unicode="&#xe9;" horiz-adv-x="1191" d="M88 539q0 269 140 416q141 149 382 149q237 0 365 -140q129 -141 129 -374v-101q0 -49 -49 -49h-699q16 -122 104 -193t228 -71q138 0 268 64q44 21 62 -29l35 -96q10 -39 -31 -60q-160 -80 -356 -80q-271 0 -425 149q-153 148 -153 415zM350 612h508v13q0 132 -62 204 q-63 74 -182 74q-243 0 -264 -291zM486 1222q-7 10 1 27l93 181q16 32 55 32h207q24 0 28 -18t-12 -33l-180 -176q-25 -25 -62 -25h-102q-20 0 -28 12z" />
<glyph unicode="&#xea;" horiz-adv-x="1191" d="M88 539q0 269 140 416q141 149 382 149q237 0 365 -140q129 -141 129 -374v-101q0 -49 -49 -49h-699q16 -122 104 -193t228 -71q138 0 268 64q44 21 62 -29l35 -96q10 -39 -31 -60q-160 -80 -356 -80q-271 0 -425 149q-153 148 -153 415zM289 1226q-6 15 8 29l188 199 q27 29 66 29h111q38 0 65 -29l188 -199q14 -14 10 -29q-5 -16 -28 -16h-94q-24 0 -55 25l-140 111l-141 -111q-31 -25 -55 -25h-95q-22 0 -28 16zM350 612h508v13q0 132 -62 204q-63 74 -182 74q-243 0 -264 -291z" />
<glyph unicode="&#xeb;" horiz-adv-x="1191" d="M88 539q0 269 140 416q141 149 382 149q237 0 365 -140q129 -141 129 -374v-101q0 -49 -49 -49h-699q16 -122 104 -193t228 -71q138 0 268 64q44 21 62 -29l35 -96q10 -39 -31 -60q-160 -80 -356 -80q-271 0 -425 149q-153 148 -153 415zM283 1255v136q0 47 49 47h145 q47 0 47 -47v-136q0 -45 -47 -45h-145q-49 0 -49 45zM350 612h508v13q0 132 -62 204q-63 74 -182 74q-243 0 -264 -291zM688 1255v136q0 47 49 47h146q47 0 47 -47v-136q0 -45 -47 -45h-146q-49 0 -49 45z" />
<glyph unicode="&#xec;" horiz-adv-x="559" d="M-13 1433q-1 11 6 20t23 9h207q40 0 56 -32l94 -181q7 -16 0 -27q-7 -12 -29 -12h-102q-37 0 -62 25l-182 176q-9 9 -11 22zM143 47v985q0 47 50 47h176q45 0 45 -47v-985q0 -47 -45 -47h-176q-50 0 -50 47z" />
<glyph unicode="&#xed;" horiz-adv-x="559" d="M143 47v985q0 47 50 47h176q45 0 45 -47v-985q0 -47 -45 -47h-176q-50 0 -50 47zM189 1222q-7 10 1 27l93 181q16 32 55 32h207q23 0 28 -18t-12 -33l-180 -176q-25 -25 -62 -25h-102q-21 0 -28 12z" />
<glyph unicode="&#xee;" horiz-adv-x="559" d="M-39 1226q-6 15 8 29l189 199q27 29 65 29h111q38 0 65 -29l189 -199q14 -14 9 -29q-5 -16 -28 -16h-94q-24 0 -55 25l-139 111l-142 -111q-31 -25 -55 -25h-94q-23 0 -29 16zM143 47v985q0 47 50 47h176q45 0 45 -47v-985q0 -47 -45 -47h-176q-50 0 -50 47z" />
<glyph unicode="&#xef;" horiz-adv-x="559" d="M-45 1255v136q0 47 49 47h146q47 0 47 -47v-136q0 -45 -47 -45h-146q-49 0 -49 45zM143 47v985q0 47 50 47h176q45 0 45 -47v-985q0 -47 -45 -47h-176q-50 0 -50 47zM360 1255v136q0 47 50 47h145q47 0 47 -47v-136q0 -45 -47 -45h-145q-50 0 -50 45z" />
<glyph unicode="&#xf0;" horiz-adv-x="1241" d="M88 535q0 267 142 410q143 145 372 145q154 0 227 -66q-40 84 -110 164h-291q-37 0 -37 39v51q0 39 37 39h184q-20 19 -58 47q-46 33 -56 37q-19 11 -15 29q5 18 25 18h174q41 0 66 -25q58 -48 108 -106h203q39 0 39 -39v-51q0 -39 -39 -39h-115q211 -295 211 -641 q0 -279 -142 -424q-143 -146 -392 -146q-248 0 -391 145q-142 143 -142 413zM365 535q0 -340 256 -340q258 0 258 340q0 173 -67 263q-66 89 -191 89q-256 0 -256 -352z" />
<glyph unicode="&#xf1;" horiz-adv-x="1245" d="M135 47v985q0 47 47 47h162q42 0 47 -41l10 -106q102 172 344 172q187 0 279 -105q92 -106 92 -294v-658q0 -47 -47 -47h-176q-49 0 -49 47v608q0 110 -46 162q-47 53 -153 53q-114 0 -177 -66q-62 -65 -62 -181v-576q0 -47 -48 -47h-176q-47 0 -47 47zM274 1268 q0 166 154 166q72 0 172 -35l74 -27q67 -24 100 -24q39 0 45 36l2 15q5 33 45 33h64q41 0 41 -62q0 -164 -150 -164q-72 0 -174 35l-72 27q-135 51 -145 -8l-4 -17q-6 -31 -45 -31h-62q-23 0 -34 12q-11 13 -11 44z" />
<glyph unicode="&#xf2;" horiz-adv-x="1243" d="M88 541q0 -273 142 -418q143 -146 391 -146q247 0 391 146q143 144 143 418q0 273 -143 417q-144 146 -391 146q-248 0 -391 -146q-142 -145 -142 -417zM341 1433q-1 11 6 20t24 9h207q39 0 55 -32l94 -181q7 -16 0 -27q-7 -12 -29 -12h-102q-36 0 -61 25l-183 176 q-9 9 -11 22zM365 541q0 346 256 346q258 0 258 -346t-258 -346q-256 0 -256 346z" />
<glyph unicode="&#xf3;" horiz-adv-x="1243" d="M88 541q0 -273 142 -418q143 -146 391 -146q247 0 391 146q143 144 143 418q0 273 -143 417q-144 146 -391 146q-248 0 -391 -146q-142 -145 -142 -417zM365 541q0 346 256 346q258 0 258 -346t-258 -346q-256 0 -256 346zM513 1222q-7 10 1 27l92 181q16 32 56 32h206 q24 0 29 -18t-12 -33l-180 -176q-25 -25 -62 -25h-102q-21 0 -28 12z" />
<glyph unicode="&#xf4;" horiz-adv-x="1243" d="M88 541q0 -273 142 -418q143 -146 391 -146q247 0 391 146q143 144 143 418q0 273 -143 417q-144 146 -391 146q-248 0 -391 -146q-142 -145 -142 -417zM303 1226q-6 15 8 29l189 199q27 29 65 29h111q38 0 65 -29l189 -199q14 -14 9 -29q-5 -16 -28 -16h-94 q-24 0 -55 25l-139 111l-142 -111q-31 -25 -55 -25h-94q-23 0 -29 16zM365 541q0 346 256 346q258 0 258 -346t-258 -346q-256 0 -256 346z" />
<glyph unicode="&#xf5;" horiz-adv-x="1243" d="M88 541q0 272 142 417q143 146 391 146q247 0 391 -146q143 -144 143 -417q0 -274 -143 -418q-144 -146 -391 -146q-248 0 -391 146q-142 145 -142 418zM272 1268q0 166 154 166q72 0 172 -35l74 -27q68 -24 100 -24q39 0 45 36l2 15q5 33 45 33h64q41 0 41 -62 q0 -164 -150 -164q-72 0 -174 35l-72 27q-135 51 -145 -8l-4 -17q-6 -31 -45 -31h-62q-23 0 -34 12q-11 13 -11 44zM365 541q0 -346 256 -346q258 0 258 346t-258 346q-256 0 -256 -346z" />
<glyph unicode="&#xf6;" horiz-adv-x="1243" d="M88 541q0 -273 142 -418q143 -146 391 -146q247 0 391 146q143 144 143 418q0 273 -143 417q-144 146 -391 146q-248 0 -391 -146q-142 -145 -142 -417zM297 1255v136q0 47 49 47h146q47 0 47 -47v-136q0 -45 -47 -45h-146q-49 0 -49 45zM365 541q0 346 256 346 q258 0 258 -346t-258 -346q-256 0 -256 346zM702 1255v136q0 47 50 47h145q47 0 47 -47v-136q0 -45 -47 -45h-145q-50 0 -50 45z" />
<glyph unicode="&#xf7;" d="M121 653v109q0 47 47 47h891q47 0 47 -47v-109q0 -47 -47 -47h-893q-45 0 -45 47zM477 219v182q0 45 49 45h174q50 0 50 -45v-182q0 -49 -48 -49h-178q-47 0 -47 49zM477 1014v182q0 47 49 47h174q50 0 50 -47v-182q0 -47 -48 -47h-178q-47 0 -47 47z" />
<glyph unicode="&#xf8;" horiz-adv-x="1251" d="M92 541q0 272 142 417q143 146 391 146q194 0 325 -92l51 59q33 37 68 8l43 -37q34 -28 6 -61l-61 -72q102 -140 102 -368q0 -274 -143 -418q-144 -146 -391 -146q-192 0 -324 91l-53 -62q-32 -37 -66 -6l-43 37q-35 30 -6 63l62 72q-103 141 -103 369zM369 541 q0 -100 28 -160l398 444q-57 62 -170 62q-256 0 -256 -346zM457 254q65 -59 168 -59q258 0 258 346q0 99 -29 157z" />
<glyph unicode="&#xf9;" horiz-adv-x="1230" d="M123 369v663q0 47 49 47h176q45 0 45 -47v-612q0 -106 43 -159q44 -54 148 -54q111 0 175 65t64 177v583q0 47 47 47h179q45 0 45 -47v-985q0 -47 -45 -47h-164q-45 0 -49 39l-9 111q-99 -173 -333 -173q-371 0 -371 392zM341 1433q-1 11 6 20t24 9h207q39 0 55 -32 l94 -181q7 -16 0 -27q-7 -12 -29 -12h-102q-36 0 -61 25l-183 176q-9 9 -11 22z" />
<glyph unicode="&#xfa;" horiz-adv-x="1230" d="M123 369v663q0 47 49 47h176q45 0 45 -47v-612q0 -106 43 -159q44 -54 148 -54q111 0 175 65t64 177v583q0 47 47 47h179q45 0 45 -47v-985q0 -47 -45 -47h-164q-45 0 -49 39l-9 111q-99 -173 -333 -173q-371 0 -371 392zM503 1222q-7 10 1 27l92 181q16 32 55 32h207 q24 0 29 -18q4 -17 -13 -33l-180 -176q-25 -25 -61 -25h-103q-20 0 -27 12z" />
<glyph unicode="&#xfb;" horiz-adv-x="1230" d="M123 369v663q0 47 49 47h176q45 0 45 -47v-612q0 -106 43 -159q44 -54 148 -54q111 0 175 65t64 177v583q0 47 47 47h179q45 0 45 -47v-985q0 -47 -45 -47h-164q-45 0 -49 39l-9 111q-99 -173 -333 -173q-371 0 -371 392zM297 1226q-6 15 8 29l189 199q27 29 65 29h111 q38 0 65 -29l189 -199q14 -14 9 -29q-5 -16 -28 -16h-94q-24 0 -55 25l-140 111l-141 -111q-31 -25 -55 -25h-94q-23 0 -29 16z" />
<glyph unicode="&#xfc;" horiz-adv-x="1230" d="M123 369v663q0 47 49 47h176q45 0 45 -47v-612q0 -106 43 -159q44 -54 148 -54q111 0 175 65t64 177v583q0 47 47 47h179q45 0 45 -47v-985q0 -47 -45 -47h-164q-45 0 -49 39l-9 111q-99 -173 -333 -173q-371 0 -371 392zM291 1255v136q0 47 49 47h145q47 0 47 -47v-136 q0 -45 -47 -45h-145q-49 0 -49 45zM696 1255v136q0 47 49 47h146q47 0 47 -47v-136q0 -45 -47 -45h-146q-49 0 -49 45z" />
<glyph unicode="&#xfd;" horiz-adv-x="1101" d="M45 1026q-21 53 35 53h184q38 0 55 -45l166 -479l90 -299h5l75 299l133 479q12 45 56 45h180q26 0 37 -15q10 -14 2 -38l-311 -936q-57 -186 -137 -257t-257 -71q-110 0 -194 23q-45 15 -41 47l14 117q6 38 43 37q2 0 42 -6q47 -7 75 -7q78 0 105 39q28 40 4 103z M441 1222q-7 10 1 27l93 181q16 32 55 32h207q23 0 28 -18t-12 -33l-180 -176q-25 -25 -62 -25h-102q-21 0 -28 12z" />
<glyph unicode="&#xfe;" horiz-adv-x="1298" d="M139 -178v1575q0 45 47 45h176q48 0 48 -45v-463q44 81 137 125q95 45 205 45q217 0 337 -142q119 -141 119 -421t-119 -421q-120 -143 -337 -143q-116 0 -207 42t-135 126v-323q0 -47 -48 -47h-176q-47 0 -47 47zM410 541q0 -344 264 -344q131 0 194 81q64 82 64 263 t-64 263q-63 81 -194 81q-264 0 -264 -344z" />
<glyph unicode="&#xff;" horiz-adv-x="1101" d="M45 1026q-21 53 35 53h184q38 0 55 -45l166 -479l90 -299h5l75 299l133 479q12 45 56 45h180q26 0 37 -15q10 -14 2 -38l-311 -936q-57 -186 -137 -257t-257 -71q-110 0 -194 23q-45 15 -41 47l14 117q6 38 43 37q2 0 42 -6q47 -7 75 -7q78 0 105 39q28 40 4 103z M227 1255v136q0 47 49 47h146q47 0 47 -47v-136q0 -45 -47 -45h-146q-49 0 -49 45zM633 1255v136q0 47 49 47h145q48 0 48 -47v-136q0 -45 -48 -45h-145q-49 0 -49 45z" />
<glyph unicode="&#x152;" horiz-adv-x="1908" d="M156 721q0 387 173 554t531 167h899q51 0 51 -49v-148q0 -49 -51 -49h-522v-342h496q49 0 49 -51v-135q0 -52 -49 -52h-496v-368h530q52 0 52 -49v-148q0 -51 -52 -51h-909q-357 0 -530 167q-172 166 -172 554zM446 721q0 -265 100 -367q99 -100 320 -100h90v934h-88 q-220 0 -321 -99t-101 -368z" />
<glyph unicode="&#x153;" horiz-adv-x="1925" d="M88 541q0 269 138 416t372 147q276 0 393 -189q114 189 373 189q217 0 344 -140t127 -364v-100q0 -47 -47 -47h-672q16 -126 101 -202q84 -75 215 -75q134 0 258 62q46 22 63 -27l35 -100q12 -33 -27 -56q-160 -80 -352 -80q-132 0 -245 54q-108 52 -169 145 q-56 -92 -157 -144q-103 -53 -232 -53q-237 0 -378 147q-140 146 -140 417zM365 541q0 -346 245 -346q120 0 184 87q64 86 64 259t-64 259q-64 87 -184 87q-245 0 -245 -346zM1110 623h479v12q0 122 -59 194q-60 74 -170 74q-108 0 -174 -72q-65 -71 -76 -208z" />
<glyph unicode="&#x178;" horiz-adv-x="1357" d="M53 1423q11 19 37 19h197q45 0 67 -45l228 -434l96 -201h2l94 201l230 434q24 45 67 45h197q26 0 37 -19q10 -18 -2 -41l-482 -852v-479q0 -51 -49 -51h-186q-51 0 -51 51v479l-480 852q-12 23 -2 41zM348 1595v129q0 48 45 48h154q49 0 49 -48v-129q0 -47 -49 -47h-154 q-45 0 -45 47zM764 1595v129q0 48 45 48h154q47 0 47 -48v-129q0 -47 -47 -47h-154q-45 0 -45 47z" />
<glyph unicode="&#x2c6;" horiz-adv-x="727" d="M45 1226q-6 15 8 29l189 199q27 29 65 29h111q38 0 65 -29l189 -199q14 -14 9 -29q-5 -16 -28 -16h-94q-24 0 -55 25l-139 111l-142 -111q-31 -25 -55 -25h-94q-23 0 -29 16z" />
<glyph unicode="&#x2dc;" horiz-adv-x="727" d="M14 1268q0 166 154 166q72 0 172 -35l74 -27q68 -24 100 -24q39 0 45 36l2 15q5 33 45 33h64q41 0 41 -62q0 -164 -150 -164q-72 0 -174 35l-72 27q-135 51 -145 -8l-4 -17q-6 -31 -45 -31h-62q-23 0 -34 12q-11 13 -11 44z" />
<glyph unicode="&#x2000;" horiz-adv-x="948" />
<glyph unicode="&#x2001;" horiz-adv-x="1896" />
<glyph unicode="&#x2002;" horiz-adv-x="948" />
<glyph unicode="&#x2003;" horiz-adv-x="1896" />
<glyph unicode="&#x2004;" horiz-adv-x="632" />
<glyph unicode="&#x2005;" horiz-adv-x="474" />
<glyph unicode="&#x2006;" horiz-adv-x="316" />
<glyph unicode="&#x2007;" horiz-adv-x="316" />
<glyph unicode="&#x2008;" horiz-adv-x="237" />
<glyph unicode="&#x2009;" horiz-adv-x="379" />
<glyph unicode="&#x200a;" horiz-adv-x="105" />
<glyph unicode="&#x2010;" horiz-adv-x="817" d="M82 492v129q0 45 47 45h557q47 0 47 -45v-129q0 -46 -47 -46h-557q-47 0 -47 46z" />
<glyph unicode="&#x2011;" horiz-adv-x="817" d="M82 492v129q0 45 47 45h557q47 0 47 -45v-129q0 -46 -47 -46h-557q-47 0 -47 46z" />
<glyph unicode="&#x2012;" horiz-adv-x="817" d="M82 492v129q0 45 47 45h557q47 0 47 -45v-129q0 -46 -47 -46h-557q-47 0 -47 46z" />
<glyph unicode="&#x2013;" horiz-adv-x="1099" d="M86 492v129q0 45 45 45h838q47 0 47 -45v-129q0 -46 -47 -46h-838q-45 0 -45 46z" />
<glyph unicode="&#x2014;" horiz-adv-x="1591" d="M86 492v129q0 45 45 45h1329q47 0 47 -45v-129q0 -46 -47 -46h-1329q-45 0 -45 46z" />
<glyph unicode="&#x2018;" horiz-adv-x="491" d="M113 979v172q0 34 12 61l102 215q15 27 41 27h60q36 0 24 -39l-69 -205h63q47 0 47 -47v-184q0 -45 -49 -45h-182q-49 0 -49 45z" />
<glyph unicode="&#x2019;" horiz-adv-x="491" d="M100 1219v182q0 47 50 47h180q51 0 51 -47v-170q0 -38 -12 -62l-103 -215q-15 -28 -43 -28h-59q-35 0 -23 41l70 204h-64q-47 0 -47 48z" />
<glyph unicode="&#x201a;" horiz-adv-x="491" d="M100 47v182q0 47 50 47h180q51 0 51 -47v-170q0 -37 -12 -61l-103 -215q-15 -29 -43 -29h-59q-35 0 -23 41l70 205h-64q-47 0 -47 47z" />
<glyph unicode="&#x201c;" horiz-adv-x="897" d="M113 979v172q0 34 12 61l102 215q15 27 41 27h60q36 0 24 -39l-69 -205h63q47 0 47 -47v-184q0 -45 -49 -45h-182q-49 0 -49 45zM516 979v172q0 34 14 61l103 215q15 27 41 27h59q39 0 23 -39l-68 -205h64q47 0 47 -47v-184q0 -45 -51 -45h-181q-51 0 -51 45z" />
<glyph unicode="&#x201d;" horiz-adv-x="897" d="M100 1217v184q0 47 50 47h180q51 0 51 -47v-170q0 -39 -12 -62l-103 -215q-12 -28 -43 -28h-59q-35 0 -23 41l70 204h-64q-47 0 -47 46zM506 1217v184q0 47 49 47h182q49 0 49 -47v-170q0 -39 -12 -62l-102 -215q-12 -28 -43 -28h-60q-19 0 -23 12q-5 13 1 29l69 204h-65 q-45 0 -45 46z" />
<glyph unicode="&#x201e;" horiz-adv-x="897" d="M100 45v184q0 47 50 47h180q51 0 51 -47v-170q0 -39 -12 -61l-103 -215q-12 -29 -43 -29h-59q-35 0 -23 41l70 205h-64q-47 0 -47 45zM506 45v184q0 47 49 47h182q49 0 49 -47v-170q0 -39 -12 -61l-102 -215q-12 -29 -43 -29h-60q-18 0 -23 13q-5 12 1 28l69 205h-65 q-45 0 -45 45z" />
<glyph unicode="&#x2022;" horiz-adv-x="827" d="M117 561q0 127 85 212t212 85t212 -85t85 -212q0 -128 -85 -213q-86 -86 -212 -86t-212 86q-85 85 -85 213z" />
<glyph unicode="&#x2026;" horiz-adv-x="1525" d="M113 47v197q0 45 51 45h180q51 0 51 -45v-197q0 -47 -47 -47h-188q-47 0 -47 47zM623 47v197q0 45 49 45h182q49 0 49 -45v-197q0 -47 -45 -47h-188q-47 0 -47 47zM1130 47v197q0 45 52 45h182q49 0 49 -45v-197q0 -47 -47 -47h-186q-50 0 -50 47z" />
<glyph unicode="&#x202f;" horiz-adv-x="379" />
<glyph unicode="&#x2039;" horiz-adv-x="583" d="M68 578q0 14 6 24l170 283q18 33 57 33h150q23 0 31 -14q7 -13 -5 -34l-174 -290l174 -289q12 -21 5 -35t-31 -14h-150q-40 0 -57 32l-170 283q-6 11 -6 21z" />
<glyph unicode="&#x203a;" horiz-adv-x="583" d="M101 256q-7 14 5 35l175 289l-175 290q-12 21 -5 34q8 14 32 14h150q39 0 57 -33l170 -283q6 -10 6 -24q0 -12 -6 -19l-170 -285q-20 -32 -57 -32h-150q-25 0 -32 14z" />
<glyph unicode="&#x205f;" horiz-adv-x="474" />
<glyph unicode="&#x20ac;" horiz-adv-x="1341" d="M43 537v71q0 39 37 39h117q-4 40 -4 74q0 47 4 76h-117q-37 0 -37 37v73q0 37 37 37h131q49 235 220 379q170 143 437 143q214 0 381 -96q41 -24 25 -61l-57 -127q-23 -46 -68 -25q-113 55 -246 55q-157 0 -256 -75q-100 -76 -139 -193h510q42 0 26 -43l-26 -70 q-15 -34 -53 -34h-478q-4 -21 -4 -76q0 -38 4 -74h394q20 0 27 -12q7 -11 -1 -31l-26 -69q-15 -35 -54 -35h-317q38 -117 137 -193q100 -76 260 -76q112 0 248 58q45 21 68 -29l59 -127q8 -25 2 -35q-5 -8 -27 -24q-153 -97 -385 -97q-268 0 -441 144t-222 379h-129 q-37 0 -37 37z" />
<glyph unicode="&#x2122;" horiz-adv-x="1533" d="M74 1331v78q0 33 32 33h457q35 0 35 -33v-78q0 -35 -35 -35h-141v-491q0 -33 -35 -33h-102q-37 0 -37 33v491h-142q-32 0 -32 35zM707 805v604q0 33 34 33h109q29 0 41 -23l180 -276l180 276q17 23 43 23h107q35 0 35 -33v-604q0 -33 -37 -33h-99q-34 0 -34 33v393 l-162 -244q-14 -20 -33 -20q-20 0 -31 20l-163 246v-395q0 -33 -35 -33h-99q-36 0 -36 33z" />
<glyph unicode="&#x25fc;" horiz-adv-x="1075" d="M0 0v1075h1075v-1075h-1075z" />
</font>
</defs>
</svg>
