<?xml version="1.0" standalone="no"?>
<!DOCTYPE svg PUBLIC "-//W3C//DTD SVG 1.1//EN" "http://www.w3.org/Graphics/SVG/1.1/DTD/svg11.dtd" >
<svg xmlns="http://www.w3.org/2000/svg" xmlns:xlink="http://www.w3.org/1999/xlink" version="1.1">
<metadata></metadata>
<defs>
<font id="amsipronarw-italiuploadedfile" horiz-adv-x="1083" >
<font-face units-per-em="2048" ascent="1751" descent="-297" />
<missing-glyph horiz-adv-x="499" />
<glyph unicode="&#xfb01;" horiz-adv-x="995" d="M115 31l159 905h-114q-31 0 -25 31l15 80q6 30 34 30h115l16 88q27 148 96 217q70 70 187 70q82 0 129 -18q16 -7 14 -31l-12 -70q-4 -33 -33 -28q-43 8 -86 8q-118 0 -145 -154l-12 -82h485q31 0 25 -30l-179 -1016q-6 -31 -36 -31h-95q-32 0 -26 31l159 905h-358 l-160 -905q-6 -31 -32 -31h-95q-32 0 -26 31zM844 1253l28 154q6 31 35 31h90q35 0 29 -31l-29 -154q-6 -28 -36 -28h-91q-32 0 -26 28z" />
<glyph unicode="&#xfb02;" horiz-adv-x="995" d="M115 31l159 905h-114q-31 0 -25 31l15 80q6 30 34 30h115l10 66q28 159 121 237q91 76 289 76q199 0 280 -37q28 -11 23 -35l-238 -1353q-6 -31 -34 -31h-95q-32 0 -26 31l225 1276q-54 10 -145 10q-119 0 -174 -42q-56 -42 -72 -136l-10 -62h155q31 0 25 -30l-15 -80 q-6 -31 -34 -31h-156l-160 -905q-6 -31 -32 -31h-95q-32 0 -26 31z" />
<glyph unicode="&#xfb03;" horiz-adv-x="1509" d="M115 31l159 905h-114q-31 0 -25 31l15 80q6 30 34 30h115l16 94q27 142 97 212q69 69 190 69q82 0 125 -18q16 -6 14 -31l-12 -70q-4 -34 -33 -28q-48 8 -82 8q-62 0 -96 -34t-49 -114l-14 -88h360l14 94q27 142 97 212q69 69 190 69q80 0 127 -18q18 -6 12 -31l-12 -70 q-4 -34 -31 -28q-48 8 -84 8q-62 0 -96 -34t-49 -114l-14 -88h481q33 0 27 -30l-181 -1016q-6 -31 -34 -31h-95q-32 0 -26 31l159 905h-356l-160 -905q-6 -31 -34 -31h-95q-32 0 -26 31l159 905h-360l-160 -905q-6 -31 -32 -31h-95q-32 0 -26 31zM1358 1253l28 154 q2 31 33 31h92q33 0 27 -31l-29 -154q-1 -28 -32 -28h-93q-32 0 -26 28z" />
<glyph unicode="&#xfb04;" horiz-adv-x="1509" d="M115 31l159 905h-114q-31 0 -25 31l15 80q6 30 34 30h115l16 94q27 142 97 212q69 69 190 69q82 0 125 -18q16 -6 14 -31l-12 -70q-4 -34 -33 -28q-48 8 -82 8q-62 0 -96 -34t-49 -114l-14 -88h360l10 66q28 160 120 237q91 76 288 76q193 0 280 -37q17 -6 21 -13 q4 -6 2 -24l-240 -1351q-6 -31 -32 -31h-97q-30 0 -24 31l223 1276q-53 10 -141 10q-119 0 -174 -42q-56 -42 -72 -136l-10 -62h153q31 0 25 -30l-12 -80q-6 -31 -37 -31h-154l-160 -905q-6 -31 -34 -31h-95q-32 0 -26 31l159 905h-360l-160 -905q-6 -31 -32 -31h-95 q-32 0 -26 31z" />
<glyph horiz-adv-x="0" />
<glyph unicode="&#xd;" horiz-adv-x="681" />
<glyph unicode=" "  horiz-adv-x="499" />
<glyph unicode="&#x09;" horiz-adv-x="499" />
<glyph unicode="&#xa0;" horiz-adv-x="499" />
<glyph unicode="!" horiz-adv-x="507" d="M80 31l29 157q6 31 34 31h131q31 0 25 -31l-29 -157q-6 -31 -32 -31h-132q-32 0 -26 31zM180 434l144 971q6 33 36 33h127q31 0 25 -33l-199 -971q-6 -31 -37 -31h-71q-31 0 -25 31z" />
<glyph unicode="&#x22;" horiz-adv-x="638" d="M233 973l21 301q1 32 14 129q16 72 90 72q79 0 64 -72q-6 -32 -31 -129l-84 -301h-74zM510 973l22 301q4 69 15 129q7 38 27 55t61 17q78 0 61 -74q-7 -56 -26 -127l-84 -301h-76z" />
<glyph unicode="#" horiz-adv-x="1144" d="M25 436l12 66q6 30 37 30h186l162 367h-150q-26 0 -24 31l12 65q6 31 35 31h182l178 408q12 28 41 22l68 -18q29 -6 14 -39l-164 -373h275l178 408q12 30 43 22l66 -18q31 -11 16 -39l-164 -373h152q16 0 21 -6t3 -25l-12 -65q-5 -31 -35 -31h-184l-164 -367h147 q32 0 27 -30l-12 -66q-6 -30 -37 -30h-182l-174 -402q-15 -29 -41 -22l-66 22q-31 8 -16 35l159 367h-274l-174 -402q-15 -29 -41 -22l-68 22q-28 6 -16 35l162 367h-152q-32 0 -26 30zM397 532h275l159 367h-272z" />
<glyph unicode="$" horiz-adv-x="976" d="M17 52q-5 8 1 26l37 82q12 32 45 20q132 -47 265 -47q138 0 245 71t107 206q0 21 -3 39q-3 15 -14 35q-4 7 -10 18t-7 13q-7 13 -26 30q-17 15 -28 25q-7 6 -35 27q-20 15 -36 25q-4 3 -18.5 11t-23.5 14l-41 25q-134 79 -205 158q-73 82 -73 212q0 170 111 277 q112 107 296 131l27 152q6 30 37 30h65q31 0 25 -30l-25 -146q129 -1 244 -47q31 -11 16 -41l-37 -80q-10 -37 -43 -22q-102 41 -229 41q-126 0 -220 -66q-95 -66 -95 -190q0 -22 6 -43t12 -36q6 -16 24 -35q5 -6 14 -16t13 -14q9 -9 36 -28q33 -23 36 -25q6 -3 43 -27 q8 -5 18.5 -11.5t15.5 -9.5t7 -5q78 -47 113 -73q42 -31 88 -77q47 -47 68 -104q22 -60 22 -127q0 -171 -110 -283q-108 -110 -292 -143l-28 -158q-5 -31 -35 -31h-66q-31 0 -26 31l26 148q-190 0 -313 55q-20 7 -24 13z" />
<glyph unicode="%" horiz-adv-x="1644" d="M160 909q0 58 12 127q74 416 356 416q118 0 185 -72q67 -71 67 -213q0 -57 -12 -131q-72 -411 -356 -411q-121 0 -186 71q-66 72 -66 213zM291 31l997 1382q19 25 43 25h99q14 0 17 -10q3 -8 -5 -21l-998 -1382q-22 -25 -43 -25h-98q-35 0 -12 31zM299 915 q0 -161 121 -161q156 0 207 282q12 69 12 123q0 164 -119 164q-158 0 -209 -287q-12 -69 -12 -121zM954 270q0 49 11 131q72 414 356 414q118 0 186 -71t68 -212q0 -34 -12 -133q-72 -411 -359 -411q-118 0 -183 71q-67 73 -67 211zM1092 279q0 -162 120 -162q158 0 209 284 q13 75 13 123q0 162 -121 162q-161 0 -207 -285q-14 -77 -14 -122z" />
<glyph unicode="&#x26;" horiz-adv-x="1273" d="M68 346q0 184 107 319q108 136 298 199l-29 51q-61 100 -61 213q0 161 103 246q104 86 282 86q130 0 211 -37q30 -15 22 -39l-34 -65q-15 -33 -47 -21q-72 25 -150 25q-98 0 -166 -45q-67 -45 -67 -143q0 -76 61 -183l360 -596q86 125 86 308q0 30 29 30h86q27 0 27 -45 q0 -219 -150 -416l127 -200q8 -15 2 -24t-20 -9h-119q-27 0 -33 10l-67 115q-159 -141 -406 -141q-204 0 -327 98q-125 99 -125 264zM236 369q0 -111 77 -176q78 -66 217 -66q206 0 320 111l-307 514q-133 -43 -220 -145t-87 -238z" />
<glyph unicode="'" horiz-adv-x="362" d="M233 973l21 301q1 32 14 129q16 72 90 72q79 0 64 -72q-6 -32 -31 -129l-84 -301h-74z" />
<glyph unicode="(" horiz-adv-x="622" d="M147 371q0 279 122 558q121 275 331 507q16 20 41 20h76q16 0 17 -11q1 -12 -7 -20q-188 -223 -302 -501q-114 -279 -114 -564q0 -304 129 -567q11 -31 -22 -31h-76q-23 0 -35 17q-160 282 -160 592z" />
<glyph unicode=")" horiz-adv-x="622" d="M-60 -227q-1 9 7 20q191 229 305 504q115 278 115 561q0 314 -134 567q-4 9 1 21q4 10 20 10h78q23 0 33 -20q159 -268 159 -586q0 -283 -121 -561q-122 -281 -329 -510q-17 -17 -41 -17h-78q-13 0 -15 11z" />
<glyph unicode="*" horiz-adv-x="761" d="M180 961q-7 26 0 41q8 16 41 34q26 14 102 44q81 32 113 46q-10 4 -33 15t-35 17q-56 26 -72 34q-29 14 -44 25q-45 29 -12 75q35 47 79 17q18 -10 75 -61q45 -40 81 -68q0 6 1 20.5l2 29t1 28.5q1 19 2.5 48t1.5 35q2 35 6 56q6 35 21 48q14 13 45 13t38 -13t1 -48 q-1 -8 -59 -217q29 18 72 48q19 13 77 50q33 21 53 31q58 30 76 -17q15 -51 -41 -78q-12 -7 -53 -23q-54 -21 -83 -32q-24 -9 -79 -31q33 -20 101 -51q65 -30 83 -41q25 -17 28 -31q3 -16 -17 -42q-33 -49 -78 -19q-19 12 -42 31q-47 39 -60 50q-46 40 -56 48q0 -6 -1 -21 t-2 -29.5t-1 -29.5q-1 -19 -2.5 -49t-1.5 -35q-1 -34 -6 -55q-8 -57 -62 -57q-31 0 -40 12q-9 13 -5 45q5 28 28 102q20 65 34 117q-36 -21 -103 -66q-81 -54 -98 -63q-58 -30 -76 17z" />
<glyph unicode="+" d="M139 674l15 78q1 26 34 26h334l64 367q8 29 37 29h86q30 0 24 -29l-65 -367h333q17 0 24 -6q6 -5 5 -20l-16 -78q-2 -29 -35 -29h-334l-65 -371q-6 -30 -35 -30h-86q-29 0 -27 30l68 371h-336q-27 0 -25 29z" />
<glyph unicode="," horiz-adv-x="413" d="M25 -184l75 184h-37q-30 0 -24 31l27 151q6 33 36 33h119q29 0 27 -33l-27 -141q-2 -11 -12 -39l-103 -195q-12 -18 -32 -18h-39q-27 0 -10 27z" />
<glyph unicode="-" horiz-adv-x="675" d="M84 504l14 78q6 28 33 28h459q34 0 28 -28l-14 -78q-6 -27 -37 -27h-461q-28 0 -22 27z" />
<glyph unicode="." horiz-adv-x="413" d="M39 31l27 151q6 33 36 33h119q29 0 27 -33l-29 -151q-6 -31 -33 -31h-123q-30 0 -24 31z" />
<glyph unicode="/" horiz-adv-x="739" d="M-57 35l786 1374q12 29 43 29h92q19 0 25 -11q6 -10 -4 -24l-789 -1374q-12 -29 -41 -29h-94q-39 0 -18 35z" />
<glyph unicode="0" horiz-adv-x="1169" d="M121 446q0 131 26 273q130 739 596 739q188 0 290 -117t102 -348q0 -125 -27 -270q-129 -739 -596 -739q-188 0 -290 115q-101 114 -101 347zM289 453q0 -320 235 -320q158 0 260 142q103 143 158 444q27 152 27 266q0 322 -238 322q-156 0 -258 -143 q-104 -146 -156 -443q-28 -147 -28 -268z" />
<glyph unicode="1" horiz-adv-x="806" d="M182 1114q-16 20 8 35l379 276q24 13 43 13h105q30 0 24 -33l-241 -1372q-6 -33 -35 -33h-100q-37 0 -31 33l213 1204l-279 -193q-24 -16 -37 3z" />
<glyph unicode="2" horiz-adv-x="1064" d="M20 33l13 67q6 28 30 43q134 97 180 132q69 53 179 143q108 88 180 165q65 69 142 169q72 94 106 185q35 94 35 185q0 187 -217 187q-146 0 -224 -82q-77 -81 -77 -219q0 -58 -33 -58h-94q-29 0 -29 56q0 197 137 325q136 127 330 127q188 0 281 -93q94 -94 94 -241 q0 -449 -744 -977h559q11 0 20 -9q8 -8 7 -23l-14 -82q-6 -33 -37 -33h-795q-35 0 -29 33z" />
<glyph unicode="3" horiz-adv-x="987" d="M-8 72l39 90q12 31 41 20q151 -53 278 -53q169 0 267 98q100 100 100 267q0 184 -232 184h-120q-35 0 -29 29l14 84q6 30 39 30h117q132 0 214 97q81 96 81 225q0 168 -219 168q-117 0 -301 -54q-16 -4 -25 1q-8 5 -6 20l-8 84q-2 24 30 35q167 61 322 61q171 0 274 -80 t103 -221q0 -135 -68 -245q-67 -110 -186 -150q76 -24 123 -91t47 -169q0 -252 -150 -385q-149 -133 -393 -133q-200 0 -334 57q-26 10 -18 31z" />
<glyph unicode="4" horiz-adv-x="1124" d="M49 356l17 82q2 23 18 41l788 934q25 25 46 25h106q33 0 27 -33l-166 -936h172q32 0 26 -33l-12 -80q-6 -32 -37 -32h-174l-51 -291q-6 -33 -37 -33h-100q-33 0 -27 33l51 291h-620q-28 0 -27 32zM244 469h479l129 723z" />
<glyph unicode="5" horiz-adv-x="1009" d="M2 80l37 82q10 32 41 20q136 -53 276 -53q189 0 292 118q104 119 104 308q0 97 -56 147t-182 50q-92 0 -182 -26t-92 -26q-15 0 -27 7l-41 16q-18 6 -10 35q104 393 149 647q6 33 39 33h625q35 0 29 -33l-15 -82q-6 -33 -39 -33h-518q-31 -148 -100 -434q102 39 213 39 q185 0 279 -90q96 -91 96 -244q0 -264 -155 -421q-155 -156 -411 -156q-210 0 -338 57q-24 15 -14 39z" />
<glyph unicode="6" horiz-adv-x="1103" d="M115 434q0 104 26 254q68 384 219 577t416 193q150 0 248 -43q28 -12 20 -33l-36 -88q-10 -33 -39 -22q-89 39 -191 39q-187 0 -298 -141q-111 -142 -171 -429q114 209 369 209q173 0 262 -99q88 -98 88 -259q0 -244 -140 -426t-372 -182q-198 0 -299 120 q-102 122 -102 330zM291 401q0 -111 59 -191q60 -81 174 -81q158 0 249 143t91 308q0 103 -53 165t-168 62q-155 0 -254 -126q-98 -125 -98 -280z" />
<glyph unicode="7" horiz-adv-x="972" d="M205 31q66 308 263 669q198 363 392 590h-612q-31 0 -25 33l15 82q2 33 36 33h758q33 0 27 -33l-15 -78q-2 -11 -28 -49q-221 -289 -406 -623q-183 -329 -235 -624q-6 -31 -37 -31h-107q-32 0 -26 31z" />
<glyph unicode="8" horiz-adv-x="1085" d="M70 295q0 168 105 285t271 168q-100 39 -159 117q-60 79 -60 182q0 196 140 304q138 107 335 107q178 0 279 -81q100 -81 100 -210q0 -154 -96 -259q-95 -104 -248 -160q110 -38 175 -118q67 -82 67 -202q0 -211 -150 -329q-148 -117 -360 -117q-187 0 -293 87t-106 226z M233 317q0 -89 65 -142q64 -52 187 -52q142 0 236 85t94 216q0 186 -235 252q-150 -46 -249 -136q-98 -89 -98 -223zM389 1053q0 -164 215 -238q316 108 316 334q0 80 -59 125t-171 45q-129 0 -216 -73q-85 -72 -85 -193z" />
<glyph unicode="9" horiz-adv-x="1103" d="M154 57l36 86q13 31 39 21q108 -39 193 -39q182 0 292 135q109 134 169 422q-43 -83 -137 -139t-232 -56q-173 0 -262 98q-88 97 -88 255q0 249 140 431q141 183 374 183q196 0 297 -120q100 -119 100 -333q0 -112 -24 -253q-69 -381 -217 -575q-146 -191 -412 -191 q-159 0 -250 41q-28 15 -18 34zM330 856q0 -102 54 -165q53 -62 169 -62q158 0 253 128t95 285q0 114 -59 189q-60 76 -176 76q-158 0 -247 -145t-89 -306z" />
<glyph unicode=":" horiz-adv-x="468" d="M66 31l28 151q6 33 35 33h121q30 0 24 -33l-26 -151q-6 -31 -35 -31h-121q-32 0 -26 31zM217 891l29 153q6 31 35 31h120q31 0 25 -31l-27 -153q-6 -29 -37 -29h-118q-33 0 -27 29z" />
<glyph unicode=";" horiz-adv-x="468" d="M51 -184l78 184h-37q-32 0 -26 31l28 151q6 33 35 33h121q30 0 24 -33l-24 -141q-5 -24 -14 -39l-101 -195q-12 -18 -35 -18h-39q-25 0 -10 27zM217 891l29 153q6 31 35 31h120q31 0 25 -31l-27 -153q-6 -29 -37 -29h-118q-33 0 -27 29z" />
<glyph unicode="&#x3c;" d="M168 711q4 16 22 28l762 566q28 23 45 0l45 -62q11 -23 -10 -41l-672 -491l500 -490q15 -20 -6 -41l-66 -65q-25 -19 -43 -2l-565 567q-14 14 -12 31z" />
<glyph unicode="=" d="M129 487l12 76q2 29 35 29h774q27 0 25 -29l-12 -76q-6 -28 -37 -28h-776q-27 0 -21 28zM193 860l14 76q6 31 35 31h774q30 0 24 -31l-14 -76q-1 -26 -33 -26h-776q-25 0 -24 26z" />
<glyph unicode="&#x3e;" d="M129 180q-15 23 8 41l674 490l-502 491q-18 18 6 41l62 62q24 21 43 2l567 -568q14 -11 12 -28q-1 -16 -20 -31l-770 -567q-26 -22 -43 2z" />
<glyph unicode="?" horiz-adv-x="897" d="M219 1364q0 18 31 33q126 61 309 61q176 0 268 -77q93 -78 93 -210q0 -95 -38 -180q-37 -82 -94 -144q-67 -72 -112 -115q-61 -57 -104 -112q-45 -57 -56 -114l-12 -74q-6 -29 -35 -29h-92q-31 0 -25 31l13 72q12 68 57 134t99 123q72 76 107 115q52 58 87 132 q35 75 35 151q0 148 -218 148q-90 0 -272 -52q-33 -7 -33 19zM258 31l29 157q6 31 37 31h129q30 0 24 -31l-26 -157q-6 -31 -35 -31h-131q-33 0 -27 31z" />
<glyph unicode="@" horiz-adv-x="1724" d="M102 293q0 250 116 462q115 211 331 342q214 130 483 130q312 0 461 -133t149 -351q0 -118 -32 -229q-34 -116 -94 -215q-62 -101 -167 -164t-235 -63h-108q-17 0 -27 7t-6 21l24 117q-112 -154 -272 -154q-121 0 -196 78q-74 77 -74 203q0 246 159 423t426 177 q141 0 258 -51q23 -11 17 -31l-217 -678h37q97 0 176 53q78 53 123 136q44 82 67 177t23 189q0 379 -500 379q-338 0 -570 -235q-233 -236 -233 -582q0 -416 557 -416q207 0 363 54q22 7 22 -17l2 -61q-2 -20 -18 -21q-156 -61 -375 -61q-317 0 -493 131q-177 132 -177 383z M606 356q0 -76 37 -120q38 -46 109 -46q198 0 288 269l109 342q-66 18 -123 18q-192 0 -306 -136q-114 -137 -114 -327z" />
<glyph unicode="A" horiz-adv-x="1150" d="M-27 35l656 1368q18 35 49 35h133q22 0 30 -8q7 -7 9 -27l172 -1368q6 -35 -31 -35h-104q-31 0 -33 31l-41 348h-500l-163 -348q-19 -31 -41 -31h-113q-34 0 -23 35zM387 530h406l-72 730h-4z" />
<glyph unicode="B" horiz-adv-x="1175" d="M68 33l241 1372q6 33 39 33h391q202 0 310 -75t108 -220q0 -133 -64 -240q-65 -108 -188 -149q81 -21 128 -88q48 -68 48 -177q0 -235 -149 -362t-408 -127h-428q-34 0 -28 33zM254 154h268q179 0 285 79t106 254q0 97 -66 139t-218 42h-285zM369 815h272q157 0 251 76 q95 77 95 233q0 87 -63 125q-62 37 -201 37h-268z" />
<glyph unicode="C" horiz-adv-x="1017" d="M117 457q0 112 24 262q67 383 228 562q159 177 428 177q169 0 272 -53q30 -17 18 -39l-36 -80q-15 -34 -45 -22q-87 41 -201 41q-203 0 -320 -137q-117 -136 -172 -449q-26 -153 -26 -248q0 -175 79 -255q80 -81 242 -81q111 0 219 45q33 16 37 -24l10 -80q0 -21 -34 -39 q-113 -55 -265 -55q-458 0 -458 475z" />
<glyph unicode="D" horiz-adv-x="1167" d="M68 33l241 1372q6 33 37 33h287q249 0 380 -108q130 -108 130 -353q0 -114 -23 -240q-73 -407 -240 -572q-166 -165 -462 -165h-322q-34 0 -28 33zM256 156h170q214 0 339 125q123 123 183 454q23 121 23 217q0 182 -87 256q-88 74 -266 74h-163z" />
<glyph unicode="E" horiz-adv-x="948" d="M68 33l241 1372q6 33 37 33h641q35 0 29 -33l-17 -88q-6 -33 -38 -33h-508l-82 -475h489q28 0 27 -33l-17 -82q-6 -32 -36 -32h-490l-90 -508h512q37 0 31 -31l-17 -88q-8 -35 -39 -35h-645q-34 0 -28 33z" />
<glyph unicode="F" horiz-adv-x="923" d="M68 33l241 1372q6 33 39 33h639q34 0 29 -31l-17 -88q-6 -33 -36 -33h-506l-88 -493h489q35 0 29 -33l-15 -84q-6 -33 -38 -33h-492l-109 -610q-6 -33 -36 -33h-101q-34 0 -28 33z" />
<glyph unicode="G" horiz-adv-x="1167" d="M119 451q0 117 24 270q69 390 237 564q167 173 466 173q178 0 289 -57q30 -15 20 -39l-37 -82q-14 -36 -47 -20q-105 45 -227 45q-237 0 -356 -133q-117 -131 -173 -451q-28 -156 -28 -256q0 -174 82 -252q83 -78 254 -78q119 0 202 37l90 508h-233q-35 0 -29 33l13 84 q6 32 41 32h366q33 0 27 -32l-121 -684q-8 -42 -45 -60q-127 -71 -328 -71q-244 0 -365 112q-122 113 -122 357z" />
<glyph unicode="H" horiz-adv-x="1196" d="M68 33l241 1372q6 33 39 33h101q32 0 26 -33l-102 -592h571l105 592q6 33 38 33h103q28 0 27 -33l-244 -1372q-6 -33 -35 -33h-102q-35 0 -29 33l111 624h-574l-111 -624q-6 -33 -36 -33h-101q-34 0 -28 33z" />
<glyph unicode="I" horiz-adv-x="481" d="M80 33l242 1372q6 33 38 33h101q34 0 28 -33l-241 -1372q-6 -33 -39 -33h-100q-35 0 -29 33z" />
<glyph unicode="J" horiz-adv-x="782" d="M-23 70l35 82q15 29 41 22q69 -39 168 -39q104 0 162 61q57 60 84 203l176 1006q6 33 39 33h100q33 0 27 -33l-180 -1022q-38 -207 -133 -304q-96 -97 -275 -97q-138 0 -223 43q-33 21 -21 45z" />
<glyph unicode="K" horiz-adv-x="1054" d="M68 33l241 1372q6 33 39 33h101q32 0 26 -33l-96 -547l569 555q25 25 51 25h148q17 0 22 -14q4 -13 -8 -25l-665 -635l432 -723q10 -15 3 -28t-26 -13h-123q-24 0 -41 29l-389 659l-119 -655q-6 -33 -36 -33h-101q-34 0 -28 33z" />
<glyph unicode="L" horiz-adv-x="905" d="M68 33l241 1372q6 33 39 33h101q32 0 26 -33l-219 -1249h485q35 0 29 -31l-16 -92q-6 -33 -37 -33h-621q-34 0 -28 33z" />
<glyph unicode="M" horiz-adv-x="1376" d="M68 33l241 1372q6 33 39 33h94q29 0 37 -21l242 -737l504 737q12 21 39 21h104q33 0 27 -33l-242 -1372q-6 -33 -37 -33h-100q-33 0 -27 33l191 1075l-467 -680q-10 -20 -37 -20q-21 0 -31 20l-223 680l-191 -1075q-6 -33 -36 -33h-99q-34 0 -28 33z" />
<glyph unicode="N" horiz-adv-x="1206" d="M68 33l241 1372q6 33 39 33h96q30 0 41 -25l385 -1104l193 1096q6 33 37 33h98q31 0 29 -31l-244 -1374q-6 -33 -37 -33h-98q-32 0 -39 27l-385 1101l-195 -1095q-6 -33 -34 -33h-99q-34 0 -28 33z" />
<glyph unicode="O" horiz-adv-x="1222" d="M115 453q0 113 24 266q67 383 222 561q154 178 409 178q426 0 426 -467q0 -110 -29 -272q-68 -383 -219 -560q-152 -177 -405 -177q-428 0 -428 471zM285 459q0 -326 266 -326q177 0 285 139q109 140 161 447q27 147 27 260q0 328 -266 328q-176 0 -284 -141t-163 -447 q-26 -142 -26 -260z" />
<glyph unicode="P" horiz-adv-x="1105" d="M68 33l241 1370q6 35 37 35h303q231 0 341 -80t110 -262q0 -74 -15 -158q-45 -271 -178 -383q-134 -113 -401 -113h-201l-72 -409q-6 -33 -36 -33h-101q-34 0 -28 33zM334 596h182q185 0 275 75t124 269q13 80 13 129q0 117 -69 166q-68 49 -222 49h-182z" />
<glyph unicode="Q" horiz-adv-x="1222" d="M117 453q0 115 24 268q67 379 223 559q154 178 406 178q428 0 428 -469q0 -121 -27 -268q-112 -627 -499 -709q85 -43 205 -43q20 0 34 1t27 1q20 0 27 -5q6 -4 4 -21l-15 -78q-6 -35 -61 -35q-264 0 -418 160q-358 27 -358 461zM285 459q0 -326 266 -326q178 0 285 140 t163 448q27 146 27 256q0 330 -268 330q-177 0 -285 -141q-109 -143 -160 -445q-28 -159 -28 -262z" />
<glyph unicode="R" horiz-adv-x="1107" d="M68 33l241 1372q6 33 39 33h318q224 0 334 -80t110 -248q0 -68 -12 -141q-38 -206 -137 -310q-101 -105 -273 -129l236 -489q8 -16 1 -28q-7 -13 -26 -13h-106q-29 0 -41 27l-234 487h-199l-86 -481q-6 -33 -36 -33h-101q-34 0 -28 33zM346 668h201q183 0 267 68 q86 69 114 237q12 66 12 112q0 109 -68 154t-221 45h-196z" />
<glyph unicode="S" horiz-adv-x="950" d="M9 44q-5 8 1 24l37 86q15 32 43 22q111 -43 260 -43q137 0 238 71q100 70 100 204q0 80 -55 136t-170 126q-123 74 -192 156q-68 81 -68 206q0 204 127 315q128 111 348 111q166 0 278 -41q31 -16 21 -39l-37 -84q-15 -32 -45 -20q-95 33 -217 33q-142 0 -225 -65 q-82 -64 -82 -193q0 -55 35 -104t66 -71q17 -12 108 -71q129 -83 204 -170q72 -84 72 -211q0 -210 -139 -324t-367 -114q-221 0 -317 45q-20 8 -24 15z" />
<glyph unicode="T" horiz-adv-x="927" d="M203 1315l16 90q1 33 35 33h756q34 0 28 -33l-14 -90q-6 -33 -39 -33h-295l-221 -1249q-6 -33 -37 -33h-100q-35 0 -29 33l221 1249h-295q-32 0 -26 33z" />
<glyph unicode="U" horiz-adv-x="1173" d="M121 330q0 64 12 133l168 942q1 33 37 33h100q35 0 29 -33l-164 -930q-12 -67 -12 -121q0 -114 56 -167q57 -54 179 -54q152 0 234 84q82 83 112 258l164 930q2 33 35 33h103q32 0 26 -33l-166 -942q-44 -245 -166 -364t-350 -119q-397 0 -397 350z" />
<glyph unicode="V" horiz-adv-x="1132" d="M227 1403q-5 35 31 35h109q29 0 30 -33l92 -889l21 -334h4l139 336l404 887q15 33 41 33h116q36 0 21 -35l-633 -1368q-21 -35 -49 -35h-137q-37 0 -39 35z" />
<glyph unicode="W" horiz-adv-x="1800" d="M238 1401q0 37 32 37h109q29 0 31 -33l43 -838l10 -381h6l154 383l344 836q12 33 49 33h106q38 0 39 -33l49 -836l21 -383h4l145 381l340 838q8 33 41 33h109q35 0 20 -37l-567 -1364q-16 -37 -49 -37h-141q-37 0 -39 35l-54 774l-16 356h-4l-143 -356l-324 -774 q-12 -35 -49 -35h-142q-35 0 -36 37z" />
<glyph unicode="X" horiz-adv-x="1079" d="M-23 12q-4 12 7 25l512 688l-265 676q-7 37 27 37h113q26 0 41 -29l198 -537l383 537q17 29 49 29h119q16 0 21 -13q4 -12 -6 -24l-500 -676l268 -688q4 -14 -3 -26q-7 -11 -21 -11h-111q-28 0 -43 29l-203 549l-399 -549q-18 -29 -49 -29h-117q-16 0 -21 12z" />
<glyph unicode="Y" horiz-adv-x="1101" d="M219 1401q-4 14 3 25q8 12 26 12h108q26 0 37 -31l139 -498l54 -215l131 215l317 498q19 31 43 31h115q38 0 16 -37l-561 -862l-92 -506q-1 -33 -37 -33h-100q-35 0 -29 33l90 506z" />
<glyph unicode="Z" horiz-adv-x="1005" d="M16 33l17 88q6 31 26 51l793 1110h-565q-33 0 -27 33l16 90q6 33 37 33h723q28 0 27 -33l-16 -88q-5 -25 -25 -51l-789 -1110h588q31 0 25 -33l-17 -90q-6 -33 -34 -33h-752q-33 0 -27 33z" />
<glyph unicode="[" horiz-adv-x="622" d="M74 -195l282 1602q6 31 35 31h287q33 0 27 -31l-15 -68q-2 -30 -33 -30h-165l-248 -1405h166q30 0 24 -29l-12 -70q-6 -30 -37 -30h-287q-30 0 -24 30z" />
<glyph unicode="\" horiz-adv-x="739" d="M188 1403q-5 35 31 35h82q29 0 35 -29l301 -1374q6 -35 -29 -35h-82q-28 0 -34 29z" />
<glyph unicode="]" horiz-adv-x="626" d="M-29 -195l13 70q6 29 36 29h166l248 1405h-166q-28 0 -26 30l14 68q6 31 33 31h286q35 0 29 -31l-282 -1602q-6 -30 -37 -30h-287q-32 0 -27 30z" />
<glyph unicode="^" d="M154 719q-4 9 8 24l463 668q18 27 45 27h84q26 0 37 -27l227 -668q6 -34 -29 -34h-96q-28 0 -35 26l-174 529l-356 -529q-23 -26 -47 -26h-107q-16 0 -20 10z" />
<glyph unicode="_" horiz-adv-x="880" d="M-70 -168l9 51q6 29 34 29h738q28 0 22 -29l-8 -51q-5 -29 -33 -29h-737q-30 0 -25 29z" />
<glyph unicode="`" horiz-adv-x="604" d="M317 1413q6 12 23 12h131q22 0 37 -24l70 -172q8 -27 -23 -27h-53q-22 0 -39 19l-144 170q-8 11 -2 22z" />
<glyph unicode="a" horiz-adv-x="956" d="M33 238q0 90 26 155q27 68 80 112t113 74q61 30 144 45q78 14 156 22q53 6 165 11l14 84q6 37 6 68q0 76 -44 112q-42 35 -142 35q-141 0 -281 -55q-32 -7 -32 23l-5 80q0 25 29 36q136 58 309 58q320 0 320 -264q0 -47 -8 -97l-125 -706q-6 -31 -35 -31h-88 q-31 0 -25 31l23 129q-114 -174 -328 -174q-130 0 -201 70t-71 182zM186 250q0 -60 39 -98q38 -37 115 -37q128 0 219 83t113 205l22 132q-72 -4 -171 -15q-67 -7 -137 -27q-69 -19 -110 -50q-42 -31 -65 -77q-25 -50 -25 -116z" />
<glyph unicode="b" horiz-adv-x="1073" d="M57 31l244 1376q6 31 35 31h94q33 0 27 -31l-88 -489q50 84 133 132q84 48 188 48q156 0 242 -92t86 -273q0 -80 -19 -192q-100 -559 -475 -559q-111 0 -191 47q-79 46 -97 133l-25 -131q-6 -31 -33 -31h-94q-33 0 -27 31zM287 381q0 -260 217 -260q133 0 214 100 t120 320q20 111 20 182q0 235 -207 235q-275 0 -348 -417q-16 -96 -16 -160z" />
<glyph unicode="c" horiz-adv-x="831" d="M82 360q0 62 18 181q46 273 178 416q130 141 330 141q149 0 228 -41q28 -12 18 -39l-37 -76q-13 -31 -43 -16q-65 28 -158 28q-143 0 -230 -100q-86 -100 -124 -313q-18 -102 -18 -170q0 -248 221 -248q95 0 190 39q31 16 31 -19l10 -77q0 -22 -34 -37q-96 -47 -205 -47 q-178 0 -276 97q-99 97 -99 281z" />
<glyph unicode="d" horiz-adv-x="1073" d="M80 350q0 84 18 191q99 557 480 557q107 0 187 -50q78 -49 95 -130l88 489q6 31 35 31h94q35 0 29 -31l-244 -1376q-6 -31 -37 -31h-94q-30 0 -24 31l22 129q-96 -178 -315 -178q-158 0 -246 93q-88 92 -88 275zM240 354q0 -233 206 -233q134 0 224 105q89 104 127 315 q14 64 14 157q0 260 -217 260q-133 0 -214 -99t-120 -318q-20 -113 -20 -187z" />
<glyph unicode="e" horiz-adv-x="964" d="M84 373q0 59 18 178q46 266 172 407q125 140 318 140q158 0 241 -90q82 -89 82 -248q0 -84 -14 -158l-16 -104q-6 -31 -39 -31h-604q-6 -33 -6 -86q0 -129 68 -197q69 -69 196 -69q108 0 219 45q14 6 25 0q12 -6 12 -21l8 -69q0 -24 -31 -39q-128 -51 -248 -51 q-193 0 -297 101t-104 292zM266 600h484l2 12q16 99 16 144q0 207 -186 207q-238 0 -316 -363z" />
<glyph unicode="f" horiz-adv-x="612" d="M115 31l159 905h-114q-31 0 -25 31l15 80q6 30 34 30h115l14 86q27 150 98 220q71 69 199 69q82 0 125 -18q19 -6 13 -31l-13 -70q-4 -34 -33 -28q-43 8 -81 8q-69 0 -104 -35q-32 -32 -48 -121l-14 -80h200q29 0 23 -30l-12 -80q-6 -31 -37 -31h-201l-160 -905 q-6 -31 -32 -31h-95q-32 0 -26 31z" />
<glyph unicode="g" horiz-adv-x="1024" d="M57 -164l35 78q15 35 39 23q107 -43 244 -43q127 0 207 63q79 62 100 182l20 121q-90 -174 -292 -174q-147 0 -232 85q-86 86 -86 255q0 84 14 164q45 251 160 380q114 128 287 128q97 0 174 -49t94 -123l21 123q6 28 39 28h92q30 0 24 -30l-161 -918q-66 -375 -463 -375 q-200 0 -297 47q-27 12 -19 35zM252 436q0 -219 192 -219q120 0 202 97q83 98 116 282q14 84 14 135q0 115 -52 173q-53 59 -149 59q-243 0 -309 -373q-14 -78 -14 -154z" />
<glyph unicode="h" horiz-adv-x="1036" d="M57 31l244 1376q6 31 35 31h94q33 0 27 -31l-84 -479q107 170 313 170q137 0 210 -73t73 -200q0 -45 -8 -88l-125 -706q-6 -31 -33 -31h-96q-33 0 -27 31l123 686q6 40 6 71q0 164 -172 164q-123 0 -206 -81q-83 -82 -107 -214l-111 -626q-6 -31 -35 -31h-94 q-33 0 -27 31z" />
<glyph unicode="i" horiz-adv-x="423" d="M57 31l179 1016q6 30 36 30h95q30 0 24 -30l-180 -1016q-6 -31 -33 -31h-96q-31 0 -25 31zM268 1245l27 152q6 30 35 30h100q31 0 25 -30l-27 -152q-6 -31 -35 -31h-100q-27 0 -25 31z" />
<glyph unicode="j" horiz-adv-x="446" d="M-141 -193l14 80q5 33 35 27q36 -4 61 -4q47 0 73 28t38 99l178 1010q6 30 35 30h96q29 0 23 -30l-181 -1024q-24 -142 -75 -199t-166 -57q-82 0 -111 10q-24 6 -20 30zM291 1245l26 152q6 30 35 30h101q32 0 26 -30l-28 -152q-2 -31 -35 -31h-101q-30 0 -24 31z" />
<glyph unicode="k" horiz-adv-x="880" d="M57 31l244 1376q6 31 35 31h94q33 0 27 -31l-125 -702l407 356q16 16 47 16h142q20 0 21 -13q2 -14 -15 -26l-512 -436l352 -563q8 -15 2 -27t-24 -12h-119q-27 0 -43 25l-293 487l-84 -481q-6 -31 -35 -31h-94q-33 0 -27 31z" />
<glyph unicode="l" horiz-adv-x="423" d="M57 31l244 1376q6 31 33 31h96q31 0 25 -31l-244 -1376q-6 -31 -33 -31h-96q-31 0 -25 31z" />
<glyph unicode="m" horiz-adv-x="1556" d="M51 31l178 1016q6 30 37 30h94q33 0 27 -28l-20 -121q96 170 290 170q219 0 246 -183q111 183 330 183q127 0 193 -71q67 -72 67 -196q0 -20 -8 -86l-127 -714q-6 -31 -35 -31h-94q-33 0 -27 31l123 694q8 61 8 80q0 147 -149 147q-108 0 -186 -74q-78 -73 -99 -188 l-117 -659q-6 -31 -34 -31h-95q-32 0 -26 31l123 696q8 61 8 80q0 145 -148 145q-112 0 -189 -78q-79 -80 -102 -204l-112 -639q-6 -31 -35 -31h-94q-33 0 -27 31z" />
<glyph unicode="n" horiz-adv-x="1019" d="M47 31l180 1016q6 30 35 30h94q31 0 25 -28l-19 -121q108 170 314 170q135 0 207 -72q71 -71 71 -197q0 -46 -8 -92l-125 -706q-6 -31 -35 -31h-94q-34 0 -28 31l122 686q9 68 9 78q0 157 -170 157q-121 0 -204 -81q-84 -82 -106 -214l-112 -626q-6 -31 -35 -31h-94 q-33 0 -27 31z" />
<glyph unicode="o" horiz-adv-x="1021" d="M82 356q0 77 16 185q99 557 510 557q169 0 263 -97t94 -280q0 -87 -17 -180q-99 -559 -508 -559q-172 0 -265 95t-93 279zM242 367q0 -246 207 -246q265 0 337 420q19 105 19 172q0 245 -209 245q-263 0 -336 -417q-18 -102 -18 -174z" />
<glyph unicode="p" horiz-adv-x="1067" d="M12 -195l217 1242q6 30 37 30h94q31 0 25 -28l-23 -131q46 83 132 132q84 48 190 48q155 0 241 -92q85 -91 85 -277q0 -74 -17 -188q-94 -559 -475 -559q-111 0 -191 47q-79 46 -96 133l-63 -357q-6 -30 -37 -30h-94q-31 0 -25 30zM281 381q0 -260 217 -260 q133 0 214 100q80 99 119 320q21 117 21 182q0 235 -207 235q-133 0 -222 -105t-126 -312q-16 -96 -16 -160z" />
<glyph unicode="q" horiz-adv-x="1067" d="M80 348q0 82 18 193q101 557 480 557q107 0 187 -50q79 -49 97 -133l23 134q6 28 37 28h94q30 0 24 -30l-217 -1242q-6 -30 -39 -30h-94q-30 0 -24 30l61 355q-96 -178 -315 -178q-155 0 -244 92q-88 91 -88 274zM240 354q0 -233 206 -233q134 0 224 105q89 104 127 315 q14 78 14 157q0 260 -217 260q-133 0 -214 -99t-120 -318q-20 -113 -20 -187z" />
<glyph unicode="r" horiz-adv-x="651" d="M51 31l178 1016q6 30 37 30h94q33 0 27 -28l-31 -170q39 79 127 144q84 62 195 62q15 0 22 -6.5t5 -19.5l-21 -119q-8 -27 -31 -27h-3.5t-5 0.5t-6.5 1t-7 0.5q-2 0 -13.5 1.5t-17.5 1.5q-100 0 -187 -105q-88 -106 -110 -248l-96 -534q-6 -31 -35 -31h-94q-33 0 -27 31z " />
<glyph unicode="s" horiz-adv-x="792" d="M-8 55l33 80q11 31 36 21q101 -39 226 -39q99 0 173 49q75 50 75 149q0 60 -43 97q-39 34 -146 92q-104 52 -161 112q-56 59 -56 156q0 159 101 242q102 84 274 84q161 0 254 -41q26 -6 18 -33l-33 -74q-10 -27 -34 -20q-84 33 -193 33q-94 0 -162 -39q-67 -39 -67 -133 q0 -49 35 -81q36 -33 120 -83l10 -6t9.5 -5.5t5.5 -3.5q114 -67 168 -128q55 -62 55 -158q0 -166 -108 -255q-109 -89 -289 -89q-175 0 -281 41q-30 11 -20 32z" />
<glyph unicode="t" horiz-adv-x="630" d="M121 967l14 80q6 30 37 30h121l43 244q2 31 35 31h88q28 0 26 -31l-43 -244h211q31 0 25 -30l-14 -80q-6 -31 -37 -31h-211l-111 -625q-10 -54 -10 -86q0 -51 27 -72q28 -22 90 -22q25 0 45 4t26 4q27 6 27 -24v-76q-1 -22 -29 -33q-44 -16 -104 -16q-121 0 -179 46 q-59 47 -59 152q0 42 13 109l110 639h-115q-32 0 -26 31z" />
<glyph unicode="u" horiz-adv-x="1007" d="M86 252q0 48 8 94l123 701q6 30 37 30h94q31 0 25 -30l-121 -680q-8 -61 -8 -78q0 -162 166 -162q115 0 197 79q85 81 108 212l110 629q6 30 37 30h94q31 0 25 -30l-180 -1016q-6 -31 -33 -31h-96q-33 0 -27 31l23 119q-106 -168 -303 -168q-138 0 -208 71 q-71 73 -71 199z" />
<glyph unicode="v" horiz-adv-x="886" d="M150 1044q-4 33 28 33h98q25 0 29 -28l62 -605l22 -262h4l113 262l272 605q16 28 41 28h105q32 0 16 -33l-477 -1015q-17 -29 -43 -29h-117q-30 0 -35 29z" />
<glyph unicode="w" horiz-adv-x="1431" d="M162 1044q0 33 31 33h94q24 0 28 -28l39 -643l2 -232h4l93 232l276 643q18 28 41 28h98q27 0 31 -28l51 -643l11 -232h4l84 232l264 643q12 28 39 28h102q36 0 19 -33l-431 -1013q-16 -31 -43 -31h-116q-33 0 -33 31l-49 587l-13 248h-6l-100 -248l-252 -587 q-17 -31 -43 -31h-117q-27 0 -32 31z" />
<glyph unicode="x" horiz-adv-x="890" d="M-34 11q-3 12 7 22l402 514l-217 495q-6 15 0 25t22 10h107q20 0 32 -22l160 -387l293 387q12 22 41 22h107q14 0 17 -10q3 -11 -7 -25l-389 -495l221 -514q4 -11 -1 -23q-4 -10 -20 -10h-108q-23 0 -35 23l-158 403l-305 -403q-15 -23 -39 -23h-112q-15 0 -18 11z" />
<glyph unicode="y" horiz-adv-x="884" d="M-20 -184l30 75q10 26 37 25q67 -12 94 -12q84 0 121 52q28 39 28 93q0 18 -3 37l-135 958q-5 33 28 33h99q24 0 28 -28l74 -611l22 -256h5l108 256l262 611q16 28 41 28h105q30 0 18 -33l-453 -974q-73 -170 -147 -236q-78 -70 -219 -70q-76 0 -125 19q-24 11 -18 33z " />
<glyph unicode="z" horiz-adv-x="854" d="M10 31l13 61q1 20 18 41l604 803h-434q-31 0 -25 29l15 82q6 30 37 30h598q30 0 24 -30l-12 -62q0 -17 -19 -45l-600 -797h441q34 0 28 -30l-16 -82q-6 -31 -35 -31h-610q-33 0 -27 31z" />
<glyph unicode="{" horiz-adv-x="622" d="M84 563l14 86q6 29 35 29h31q59 0 96 85q36 82 74 290q38 222 102 302q66 83 209 83h60q34 0 28 -31l-14 -70q-1 -30 -37 -30h-35q-71 0 -107 -62t-63 -217q-38 -214 -86 -306q-50 -95 -123 -116q88 -28 88 -184q0 -100 -26 -236q-19 -111 -19 -166q0 -61 21 -88 q20 -26 67 -26h37q28 0 27 -33l-12 -68q-6 -30 -39 -30h-62q-106 0 -150 44t-44 146q0 89 20 195q29 171 29 252q0 123 -68 123h-28q-31 0 -25 28z" />
<glyph unicode="|" horiz-adv-x="534" d="M193 -195v1643q0 31 32 31h86q31 0 31 -31v-1643q0 -30 -31 -30h-86q-32 0 -32 30z" />
<glyph unicode="}" horiz-adv-x="622" d="M-61 -195l12 68q6 33 39 33h35q74 0 108 61q35 63 62 219q38 214 86 306q49 93 125 114q-89 29 -89 187q0 82 25 235q20 111 20 166q0 113 -92 113h-34q-33 0 -27 30l14 70q2 31 35 31h66q106 0 150 -44t44 -147q0 -88 -20 -194q-31 -172 -31 -256q0 -119 65 -119h31 q31 0 25 -29l-15 -86q-6 -28 -34 -28h-31q-57 0 -95 -86q-37 -85 -75 -291q-38 -218 -102 -299q-66 -84 -209 -84h-62q-32 0 -26 30z" />
<glyph unicode="~" horiz-adv-x="1079" d="M152 670q72 202 233 202q71 0 176 -49l94 -41q84 -39 127 -39q59 0 103 62q7 7 26 43q12 27 41 12l58 -29q17 -10 10 -40q-72 -199 -234 -199q-70 0 -178 47l-92 43q-77 37 -125 37q-59 0 -106 -62l-25 -43q-15 -24 -41 -10l-57 27q-21 10 -10 39z" />
<glyph unicode="&#xa1;" horiz-adv-x="503" d="M41 -195l174 836q6 33 35 33h74q30 0 24 -33l-119 -836q-6 -30 -36 -30h-127q-31 0 -25 30zM231 889l27 158q6 30 35 30h131q31 0 25 -30l-29 -158q-6 -31 -35 -31h-129q-36 0 -25 31z" />
<glyph unicode="&#xa2;" horiz-adv-x="866" d="M86 367q0 89 14 172q90 508 475 557l27 145q2 31 33 31h67q33 0 27 -31l-27 -147q100 -5 166 -41q24 -15 17 -37l-35 -74q-15 -33 -41 -18q-69 30 -174 30q-152 0 -243 -100t-130 -315q-16 -81 -16 -164q0 -252 246 -252q99 0 192 35q35 15 35 -17l8 -75q1 -22 -31 -37 q-78 -37 -190 -43l-25 -150q-6 -31 -37 -31h-65q-31 0 -25 31l25 150q-135 17 -214 113q-79 97 -79 268z" />
<glyph unicode="&#xa3;" horiz-adv-x="1157" d="M18 76q-8 18 13 30q144 82 232 197q87 114 87 246q0 50 -16 110h-187q-30 0 -24 29l12 68q6 26 33 26h139q-39 144 -39 207q0 215 147 342q146 127 357 127q184 0 278 -78q95 -78 95 -229q0 -129 -41 -129h-100q-21 0 -21 22q0 11 7 43t7 64q0 158 -229 158 q-153 0 -245 -88q-93 -89 -93 -226q0 -43 41 -213h332q32 0 26 -26l-12 -68q-6 -29 -35 -29h-288q12 -56 12 -110q0 -122 -60 -227q-60 -106 -176 -168q74 24 152 24q70 0 159 -22q94 -23 150 -23q154 0 189 203q6 31 36 31h78q35 0 29 -39q-30 -165 -96 -253 q-66 -89 -205 -89q-88 0 -202 27q-118 28 -193 28q-151 0 -275 -53q-31 -13 -33 4z" />
<glyph unicode="&#xa4;" horiz-adv-x="1138" d="M125 180q-21 20 0 41l113 111q-62 100 -62 248t62 243l-113 115q-21 20 0 41l45 45q20 20 41 0l108 -109q95 95 250 95t250 -95l109 109q20 20 41 0l45 -45q20 -21 0 -41l-115 -115q62 -100 62 -243q0 -149 -62 -246l115 -113q20 -21 0 -41l-45 -45q-21 -21 -41 0 l-109 109q-91 -94 -250 -94t-250 94l-108 -109q-21 -21 -41 0zM309 580q0 -150 69 -228t191 -78q123 0 192 78q68 77 68 228q0 150 -68 227q-69 78 -192 78q-122 0 -191 -77q-69 -76 -69 -228z" />
<glyph unicode="&#xa5;" horiz-adv-x="1120" d="M106 393l9 64q6 28 35 28h329l8 47l-41 130h-266q-28 0 -22 28l10 64q6 28 33 28h213l-199 619q-7 37 29 37h110q19 0 25 -6t14 -25l207 -705h4l457 705q19 31 45 31h111q40 0 16 -37l-416 -619h213q29 0 23 -28l-11 -64q-6 -28 -34 -28h-267l-86 -130l-8 -47h330 q30 0 24 -28l-10 -64q-6 -28 -35 -28h-329l-60 -332q-6 -33 -37 -33h-102q-35 0 -29 33l60 332h-330q-29 0 -23 28z" />
<glyph unicode="&#xa6;" horiz-adv-x="534" d="M193 -195v619q0 31 32 31h86q31 0 31 -31v-619q0 -30 -31 -30h-86q-32 0 -32 30zM193 829v619q0 31 32 31h86q31 0 31 -31v-619q0 -30 -31 -30h-86q-32 0 -32 30z" />
<glyph unicode="&#xa7;" horiz-adv-x="1212" d="M111 -164l12 78q6 31 45 25q121 -31 268 -31q72 0 137 13q67 13 129 59q62 45 62 114q0 32 -16 57t-50 48q-38 26 -61 38q-16 8 -77 37q-44 21 -71 35q-150 77 -220 142q-70 66 -70 161q0 113 81 194q80 80 205 107q-137 101 -137 222q0 165 130 244t325 79 q155 0 295 -39q29 -8 24 -39l-16 -77q-6 -33 -43 -23q-125 33 -260 33q-61 0 -128 -16q-63 -15 -115 -58t-52 -109q0 -14 3 -27q3 -14 13 -27q3 -4 9.5 -11.5t9.5 -11.5q8 -11 26 -23q4 -3 10.5 -7.5t11 -7.5t8.5 -5q19 -12 39 -23q10 -6 24 -12.5t17 -8.5q20 -11 47 -24 q9 -4 20 -9.5l18 -9t12 -5.5q134 -68 212 -144q75 -74 75 -170q0 -110 -80 -182q-79 -72 -205 -105q148 -95 148 -229q0 -111 -76 -187q-77 -77 -181 -107q-105 -30 -229 -30q-210 0 -305 31q-17 6 -22 14q-4 6 -2 27zM350 625q0 -77 121 -140q24 -13 186 -88q80 7 168 60 q86 51 86 127q0 71 -74 123q-75 53 -231 120q-91 -5 -173 -58q-83 -54 -83 -144z" />
<glyph unicode="&#xa8;" horiz-adv-x="604" d="M199 1231l20 125q6 30 37 30h100q31 0 25 -30l-23 -125q-2 -29 -34 -29h-101q-30 0 -24 29zM514 1231l23 125q1 30 34 30h101q30 0 24 -30l-22 -125q-2 -29 -35 -29h-100q-31 0 -25 29z" />
<glyph unicode="&#xa9;" horiz-adv-x="1574" d="M98 719q0 317 178 528t510 211q173 0 304 -59q133 -60 217 -162q83 -100 127 -235q43 -130 43 -283q0 -316 -180 -528q-178 -209 -511 -209q-171 0 -302 59q-136 61 -217 161q-83 103 -126 233t-43 284zM209 719q0 -275 148 -453t429 -178q284 0 432 178t148 453 q0 276 -149 453q-151 180 -431 180q-279 0 -429 -180q-148 -178 -148 -453zM451 721q0 218 97 322q98 106 271 106q121 0 195 -41q22 -8 16 -27l-20 -71q-5 -29 -27 -17q-58 29 -143 29q-246 0 -246 -301q0 -299 244 -299q79 0 151 27q22 10 27 -15l20 -72q2 -18 -18 -28 q-88 -39 -197 -39q-174 0 -272 104t-98 322z" />
<glyph unicode="&#xaa;" horiz-adv-x="788" d="M180 1192q0 70 23 127q22 55 67 91q41 33 95 59q50 24 119 36q87 15 127 19q63 7 132 8l13 76q15 82 -21 118q-35 35 -129 35q-107 0 -227 -43q-33 -15 -35 17l-4 71q-2 19 22 31q136 53 259 53q278 0 278 -219q0 -31 -6 -69l-100 -572q-6 -33 -41 -33h-68q-33 0 -27 33 l15 82q-83 -125 -260 -125q-102 0 -167 57t-65 148zM317 1202q0 -100 123 -100q109 0 178 60q71 61 87 155l18 102q-406 -6 -406 -217z" />
<glyph unicode="&#xab;" horiz-adv-x="765" d="M82 557q6 10 10 14l187 277q18 22 40 22h89q28 0 12 -30l-197 -283l96 -283q11 -30 -24 -30h-86q-26 0 -33 22l-92 277q0 8 -2 14zM395 557l8 14l187 277q18 22 43 22h86q27 0 10 -30l-194 -283l94 -283q10 -30 -23 -30h-86q-21 0 -33 22l-90 277q-2 6 -2 14z" />
<glyph unicode="&#xac;" horiz-adv-x="1087" d="M147 678l13 82q6 28 37 28h761q31 0 25 -28l-76 -428q-2 -31 -37 -31h-88q-30 0 -24 31l55 315h-641q-33 0 -25 31z" />
<glyph unicode="&#xad;" horiz-adv-x="673" d="M84 504l14 78q6 28 33 28h459q34 0 28 -28l-14 -78q-6 -27 -37 -27h-461q-28 0 -22 27z" />
<glyph unicode="&#xae;" horiz-adv-x="862" d="M100 1100q0 155 85 256q86 102 245 102q160 0 245 -102q85 -101 85 -256q0 -154 -85 -257q-86 -104 -245 -104t-245 104q-85 103 -85 257zM166 1100q0 -133 64 -215t200 -82q135 0 201 82q65 81 65 215q0 133 -65 214q-66 83 -201 83q-133 0 -199 -82q-65 -81 -65 -215z M301 918v372q0 17 16 17h127q156 0 156 -138q0 -107 -92 -125l84 -124q5 -6 1 -12q-3 -5 -11 -5h-52q-12 0 -18 10l-82 123h-53v-118q0 -15 -15 -15h-45q-16 0 -16 15zM377 1100h55q54 0 73 15t19 54q0 40 -19 55t-71 15h-57v-139z" />
<glyph unicode="&#xaf;" horiz-adv-x="604" d="M164 1241l6 49q11 31 37 31h491q34 0 23 -31l-6 -49q-6 -29 -37 -29h-492q-28 0 -22 29z" />
<glyph unicode="&#xb0;" horiz-adv-x="684" d="M195 1137q0 128 89 225q88 96 224 96q107 0 170 -63t63 -160q0 -134 -88 -229q-89 -97 -223 -97q-106 0 -171 65q-64 64 -64 163zM305 1149q0 -61 37 -98t98 -37q83 0 137 60t54 147q0 59 -37 96t-98 37q-80 0 -135 -61t-56 -144z" />
<glyph unicode="&#xb1;" d="M27 29l10 63q6 31 35 31h813q34 0 28 -31l-12 -63q-6 -29 -35 -29h-815q-30 0 -24 29zM145 711l15 77q6 29 37 29h333l62 363q10 30 37 30h86q30 0 24 -30l-63 -363h334q30 0 24 -29l-12 -77q-6 -27 -35 -27h-336l-65 -371q-1 -28 -33 -28h-86q-15 0 -22.5 7t-6.5 21 l68 371h-334q-33 0 -27 27z" />
<glyph unicode="&#xb2;" horiz-adv-x="739" d="M184 1030l11 57q5 21 26 37q15 12 87 65q60 44 111 83q28 21 98 85q68 61 98 102q34 46 60 100q27 57 27 108q0 96 -118 96q-78 0 -121 -46t-43 -118q0 -43 -37 -43h-70q-30 0 -30 29q0 133 82 218t229 85q127 0 189 -59q63 -60 63 -154q0 -69 -33 -140t-71 -121 q-40 -52 -111 -115q-72 -63 -112 -92q-102 -74 -113 -81h325q39 0 29 -32l-10 -64q-6 -33 -39 -33h-498q-37 0 -29 33z" />
<glyph unicode="&#xb3;" horiz-adv-x="739" d="M129 1063l27 63q17 33 45 23q84 -35 172 -35q92 0 153 44q60 44 60 130q0 98 -137 98h-80q-31 0 -29 33l10 58q6 34 41 34h80q71 0 121 44q49 43 49 114q0 92 -154 92q-70 0 -172 -30q-35 -11 -36 18l-7 66q0 20 29 32q87 41 207 41q127 0 202 -51q74 -50 74 -145 q0 -78 -41 -143t-108 -95q96 -40 96 -160q0 -154 -100 -230q-101 -77 -252 -77q-70 0 -136 13q-70 14 -96 28q-26 16 -18 35z" />
<glyph unicode="&#xb4;" horiz-adv-x="604" d="M295 1229l125 172q18 24 43 24h139q18 0 19 -12q1 -11 -11 -22l-198 -170q-19 -19 -45 -19h-58q-29 0 -14 27z" />
<glyph unicode="&#xb5;" horiz-adv-x="1013" d="M12 -195l217 1242q6 30 37 30h94q33 0 27 -30l-111 -631q-6 -39 -6 -74q0 -99 55 -159q54 -58 150 -58q108 0 165 61q56 60 77 179l121 682q6 30 36 30h95q30 0 24 -30l-123 -705q-66 -362 -366 -362q-118 0 -188 50q-68 49 -89 117l-59 -342q-6 -30 -37 -30h-94 q-31 0 -25 30z" />
<glyph unicode="&#xb6;" horiz-adv-x="976" d="M176 932q0 219 142 362q142 144 372 144h404q34 0 28 -31l-12 -59q-6 -29 -35 -29h-76q-61 0 -90 -24q-29 -25 -41 -91l-211 -1200q-22 -127 -76 -182t-159 -55q-79 0 -121 16q-21 6 -16 31l12 57q5 30 35 25q3 0 30 -5q21 -4 39 -4q96 0 119 131l101 566h-41 q-179 0 -291 94q-113 95 -113 254z" />
<glyph unicode="&#xb7;" horiz-adv-x="413" d="M115 465l26 151q6 33 37 33h119q29 0 27 -33l-29 -151q-6 -31 -33 -31h-123q-30 0 -24 31z" />
<glyph unicode="&#xb8;" horiz-adv-x="604" d="M98 -268l8 49q4 20 23 20h53q99 0 99 74q0 73 -131 141h75q70 -18 116 -60q47 -42 48 -101q0 -75 -53 -116q-52 -40 -135 -40q-64 0 -88 8q-19 5 -15 25z" />
<glyph unicode="&#xb9;" horiz-adv-x="739" d="M330 1640q-11 25 18 46l248 180q21 12 43 12h66q36 0 30 -33l-143 -815q-6 -33 -39 -33h-72q-34 0 -28 33l116 664l-159 -111q-33 -23 -50 6z" />
<glyph unicode="&#xba;" horiz-adv-x="825" d="M217 1296q0 62 12 142q84 452 418 452q143 0 222 -78t79 -229q0 -57 -14 -145q-77 -451 -412 -451q-146 0 -225 78q-80 78 -80 231zM365 1307q0 -191 161 -191q205 0 262 322q15 90 15 133q0 190 -164 190q-205 0 -262 -323q-12 -60 -12 -131z" />
<glyph unicode="&#xbb;" horiz-adv-x="765" d="M68 274l192 283l-92 283q-6 15 1 22q8 8 21 8h86q25 0 29 -22l94 -277q2 -8 0 -14q0 -8 -6 -14l-188 -277q-16 -22 -39 -22h-86q-36 0 -12 30zM379 274l192 283l-92 283q-6 15 1 22q8 8 22 8h86q24 0 30 -22l93 -277q2 -8 0 -14q0 -8 -6 -14l-189 -277q-15 -22 -41 -22 h-86q-31 0 -10 30z" />
<glyph unicode="&#xbc;" horiz-adv-x="1732" d="M252 1200q-10 24 18 45l248 180q23 13 43 13h66q36 0 30 -33l-143 -815q-6 -33 -39 -33h-72q-34 0 -28 33l117 663l-160 -110q-33 -21 -49 6zM367 31l995 1382q23 25 43 25h98q32 0 15 -31l-998 -1382q-22 -25 -43 -25h-98q-37 0 -12 31zM991 227l8 58q1 14 21 34 l479 537q25 25 43 25h74q35 0 29 -33l-93 -526h80q33 0 27 -33l-10 -62q-6 -34 -39 -34h-80l-29 -160q-6 -33 -39 -33h-71q-35 0 -29 33l29 160h-373q-33 0 -27 34zM1161 322h252l66 366z" />
<glyph unicode="&#xbd;" horiz-adv-x="1732" d="M252 1200q-10 24 18 45l248 180q23 13 43 13h66q36 0 30 -33l-143 -815q-6 -33 -39 -33h-72q-34 0 -28 33l117 663l-160 -110q-33 -21 -49 6zM285 31l995 1382q23 25 43 25h98q32 0 15 -31l-998 -1382q-22 -25 -43 -25h-98q-37 0 -12 31zM1001 33q-7 -33 29 -33h498 q33 0 39 33l10 63q10 33 -29 33h-325q11 7 113 81q40 29 112 92q74 65 112 115q35 46 70 121q33 71 33 140q0 94 -62 153q-63 60 -190 60q-147 0 -229 -85t-82 -218q0 -29 30 -29h70q37 0 37 43q0 72 43 118t121 46q119 0 119 -96q0 -50 -28 -109q-26 -55 -59 -99 q-31 -41 -99 -103q-70 -64 -98 -85q-51 -39 -111 -83q-21 -15 -43.5 -32t-32 -23.5t-11.5 -8.5q-21 -16 -26 -37z" />
<glyph unicode="&#xbe;" horiz-adv-x="1732" d="M53 623l27 63q17 33 45 23q84 -35 172 -35q93 0 154 44q59 43 59 130q0 98 -137 98h-80q-31 0 -29 33l10 57q6 35 41 35h80q71 0 121 44q49 43 49 114q0 92 -153 92q-67 0 -172 -31q-35 -11 -37 19l-6 65q0 21 28 33q87 41 207 41q127 0 202 -51t75 -146q0 -77 -41 -142 t-109 -95q96 -41 96 -160q0 -154 -100 -230q-101 -77 -252 -77q-70 0 -136 13q-69 13 -95 28q-27 16 -19 35zM391 31l995 1382q23 25 44 25h98q31 0 14 -31l-997 -1382q-22 -25 -43 -25h-99q-37 0 -12 31zM991 227l8 58q1 14 21 34l479 537q25 25 43 25h74q35 0 29 -33 l-93 -526h80q33 0 27 -33l-10 -62q-6 -34 -39 -34h-80l-29 -160q-6 -33 -39 -33h-71q-35 0 -29 33l29 160h-373q-33 0 -27 34zM1161 322h252l66 366z" />
<glyph unicode="&#xbf;" horiz-adv-x="813" d="M4 6q0 -116 89 -181t251 -65q163 0 283 56q28 16 28 34l-6 89q0 26 -35 18q-129 -47 -237 -47q-107 0 -155 28q-46 27 -46 91q0 70 34 135q36 68 83 117q49 51 100 100q55 54 92 108q42 62 52 119l6 35q6 33 -27 33h-96q-31 0 -37 -33l-6 -35q-7 -52 -50 -107 q-41 -53 -96 -103q-47 -43 -105 -101q-52 -53 -87 -129q-35 -78 -35 -162zM412 889l26 158q6 30 37 30h131q29 0 23 -30l-27 -158q-6 -31 -37 -31h-129q-30 0 -24 31z" />
<glyph unicode="&#xc0;" horiz-adv-x="1150" d="M-27 35l656 1368q18 35 49 35h133q22 0 30 -8q7 -7 9 -27l172 -1368q6 -35 -31 -35h-104q-31 0 -33 31l-41 348h-500l-163 -348q-19 -31 -41 -31h-113q-34 0 -23 35zM387 530h406l-72 730h-4zM552 1746q7 13 23 13h134q22 0 34 -26l68 -170q4 -10 -2 -20q-6 -9 -21 -9 h-55q-20 0 -37 20l-141 170q-11 8 -3 22z" />
<glyph unicode="&#xc1;" horiz-adv-x="1150" d="M-27 35l656 1368q18 35 49 35h133q22 0 30 -8q7 -7 9 -27l172 -1368q6 -35 -31 -35h-104q-31 0 -33 31l-41 348h-500l-163 -348q-19 -31 -41 -31h-113q-34 0 -23 35zM387 530h406l-72 730h-4zM720 1543q-3 9 3 20l123 170q17 26 45 26h139q17 0 18 -13q2 -14 -12 -22 l-196 -170q-17 -20 -45 -20h-60q-12 0 -15 9z" />
<glyph unicode="&#xc2;" horiz-adv-x="1150" d="M-27 35l656 1368q18 35 49 35h133q22 0 30 -8q7 -7 9 -27l172 -1368q6 -35 -31 -35h-104q-31 0 -33 31l-41 348h-500l-163 -348q-19 -31 -41 -31h-113q-34 0 -23 35zM387 530h406l-72 730h-4zM513 1545q-1 11 11 22l193 172q21 20 45 20h80q25 0 41 -20l131 -172 q10 -10 4 -22q-6 -11 -21 -11h-71q-17 0 -37 20l-98 103l-136 -103q-27 -20 -45 -20h-80q-16 0 -17 11z" />
<glyph unicode="&#xc3;" horiz-adv-x="1150" d="M-27 35l656 1368q18 35 49 35h133q22 0 30 -8q7 -7 9 -27l172 -1368q6 -35 -31 -35h-104q-31 0 -33 31l-41 348h-500l-163 -348q-19 -31 -41 -31h-113q-34 0 -23 35zM387 530h406l-72 730h-4zM483 1571q22 139 154 139q55 0 151 -39l50 -22q55 -25 82 -25q38 0 49 41 l6 18q8 23 37 23h43q28 0 22 -39q-27 -139 -155 -139q-51 0 -150 37l-49 22q-46 19 -78 19q-49 0 -57 -35l-4 -15q-6 -24 -37 -24h-45q-27 0 -19 39z" />
<glyph unicode="&#xc4;" horiz-adv-x="1150" d="M-27 35l656 1368q18 35 49 35h133q22 0 30 -8q7 -7 9 -27l172 -1368q6 -35 -31 -35h-104q-31 0 -33 31l-41 348h-500l-163 -348q-19 -31 -41 -31h-113q-34 0 -23 35zM387 530h406l-72 730h-4zM524 1565l23 121q6 30 33 30h106q30 0 29 -30l-25 -121q-6 -31 -35 -31h-106 q-31 0 -25 31zM848 1565l22 121q6 30 33 30h107q34 0 28 -30l-22 -121q-6 -31 -37 -31h-107q-30 0 -24 31z" />
<glyph unicode="&#xc5;" horiz-adv-x="1150" d="M-27 35l650 1354q-58 46 -58 118q0 90 62 150q60 59 157 59q77 0 127 -44t50 -109q0 -127 -109 -183l170 -1345q6 -35 -31 -35h-104q-31 0 -33 31l-41 348h-500l-163 -348q-19 -31 -41 -31h-113q-34 0 -23 35zM387 530h406l-72 730h-4zM657 1513q0 -34 25 -54 q23 -19 68 -19q50 0 84 30t34 84q0 78 -92 78q-51 0 -85 -31t-34 -88z" />
<glyph unicode="&#xc6;" horiz-adv-x="1495" d="M-56 11q-5 13 1 24l809 1368q17 35 51 35h729q33 0 27 -33l-17 -90q-6 -33 -37 -33h-460l-82 -473h442q31 0 25 -33l-15 -82q-6 -32 -37 -32h-442l-90 -506h467q34 0 28 -33l-18 -90q-6 -33 -37 -33h-600q-35 0 -29 33l60 338h-402l-192 -340q-23 -31 -43 -31h-115 q-19 0 -23 11zM412 520h331l138 766h-41z" />
<glyph unicode="&#xc7;" horiz-adv-x="1017" d="M117 457q0 112 24 262q67 383 228 562q159 177 428 177q169 0 272 -53q30 -17 18 -39l-36 -80q-15 -34 -45 -22q-87 41 -201 41q-203 0 -320 -137q-117 -136 -172 -449q-26 -153 -26 -248q0 -175 79 -255q80 -81 242 -81q111 0 219 45q33 16 37 -24l10 -80q0 -21 -34 -39 q-113 -55 -265 -55h-26q86 -57 86 -144q0 -78 -60 -119q-61 -41 -149 -41q-56 0 -76 9q-21 7 -16 26l10 54q4 18 23 18h55q98 0 98 78q0 74 -98 135q-305 74 -305 459z" />
<glyph unicode="&#xc8;" horiz-adv-x="948" d="M68 33l241 1372q6 33 37 33h641q35 0 29 -33l-17 -88q-6 -33 -38 -33h-508l-82 -475h489q28 0 27 -33l-17 -82q-6 -32 -36 -32h-490l-90 -508h512q37 0 31 -31l-17 -88q-8 -35 -39 -35h-645q-34 0 -28 33zM542 1746q7 13 23 13h133q23 0 35 -26l68 -170q4 -10 -2 -20 q-6 -9 -21 -9h-55q-20 0 -37 20l-141 170q-11 8 -3 22z" />
<glyph unicode="&#xc9;" horiz-adv-x="948" d="M68 33l241 1372q6 33 37 33h641q35 0 29 -33l-17 -88q-6 -33 -38 -33h-508l-82 -475h489q28 0 27 -33l-17 -82q-6 -32 -36 -32h-490l-90 -508h512q37 0 31 -31l-17 -88q-8 -35 -39 -35h-645q-34 0 -28 33zM620 1543q-3 9 3 20l122 170q17 26 46 26h139q16 0 17 -13 q2 -14 -11 -22l-197 -170q-17 -20 -45 -20h-59q-12 0 -15 9z" />
<glyph unicode="&#xca;" horiz-adv-x="948" d="M68 33l241 1372q6 33 37 33h641q35 0 29 -33l-17 -88q-6 -33 -38 -33h-508l-82 -475h489q28 0 27 -33l-17 -82q-6 -32 -36 -32h-490l-90 -508h512q37 0 31 -31l-17 -88q-8 -35 -39 -35h-645q-34 0 -28 33zM447 1545q-1 10 12 22l192 172q21 20 45 20h80q25 0 41 -20 l131 -172q10 -10 4 -22q-6 -11 -20 -11h-72q-17 0 -37 20l-98 103l-135 -103q-27 -20 -45 -20h-80q-17 0 -18 11z" />
<glyph unicode="&#xcb;" horiz-adv-x="948" d="M68 33l241 1372q6 33 37 33h641q35 0 29 -33l-17 -88q-6 -33 -38 -33h-508l-82 -475h489q28 0 27 -33l-17 -82q-6 -32 -36 -32h-490l-90 -508h512q37 0 31 -31l-17 -88q-8 -35 -39 -35h-645q-34 0 -28 33zM457 1565l22 121q6 30 33 30h106q34 0 29 -30l-24 -121 q-6 -31 -35 -31h-107q-30 0 -24 31zM780 1565l23 121q6 30 33 30h106q35 0 29 -30l-23 -121q-6 -31 -37 -31h-106q-31 0 -25 31z" />
<glyph unicode="&#xcc;" horiz-adv-x="481" d="M80 33l242 1372q6 33 38 33h101q34 0 28 -33l-241 -1372q-6 -33 -39 -33h-100q-35 0 -29 33zM224 1746q7 13 24 13h133q23 0 35 -26l67 -170q4 -10 -2 -20q-6 -9 -20 -9h-55q-20 0 -37 20l-142 170q-11 8 -3 22z" />
<glyph unicode="&#xcd;" horiz-adv-x="481" d="M80 33l242 1372q6 33 38 33h101q34 0 28 -33l-241 -1372q-6 -33 -39 -33h-100q-35 0 -29 33zM378 1543q-3 9 3 20l123 170q17 26 45 26h139q17 0 18 -13q2 -14 -12 -22l-196 -170q-17 -20 -45 -20h-60q-12 0 -15 9z" />
<glyph unicode="&#xce;" horiz-adv-x="481" d="M80 33l242 1372q6 33 38 33h101q34 0 28 -33l-241 -1372q-6 -33 -39 -33h-100q-35 0 -29 33zM175 1545q-1 11 11 22l193 172q21 20 45 20h80q25 0 41 -20l131 -172q10 -10 4 -22q-6 -11 -21 -11h-71q-17 0 -37 20l-98 103l-136 -103q-27 -20 -45 -20h-79q-17 0 -18 11z " />
<glyph unicode="&#xcf;" horiz-adv-x="481" d="M80 33l242 1372q6 33 38 33h101q34 0 28 -33l-241 -1372q-6 -33 -39 -33h-100q-35 0 -29 33zM186 1565l23 121q6 30 33 30h106q34 0 29 -30l-25 -121q-6 -31 -35 -31h-106q-31 0 -25 31zM510 1565l22 121q6 30 33 30h107q34 0 28 -30l-22 -121q-6 -31 -37 -31h-106 q-31 0 -25 31z" />
<glyph unicode="&#xd0;" horiz-adv-x="1171" d="M72 33l110 626h-88q-28 0 -22 29l10 64q5 30 35 30h86l110 623q6 33 37 33h287q249 0 378 -109q128 -108 128 -358q0 -100 -25 -252q-67 -395 -234 -557q-166 -162 -462 -162h-322q-34 0 -28 33zM260 156h170q214 0 339 123q124 122 179 440q25 141 25 229q0 184 -88 259 q-89 75 -262 75h-164l-88 -500h237q30 0 25 -30l-12 -64q-6 -29 -33 -29h-240z" />
<glyph unicode="&#xd1;" horiz-adv-x="1206" d="M68 33l241 1372q6 33 39 33h96q30 0 41 -25l385 -1104l193 1096q6 33 37 33h98q31 0 29 -31l-244 -1374q-6 -33 -37 -33h-98q-32 0 -39 27l-385 1101l-195 -1095q-6 -33 -34 -33h-99q-34 0 -28 33zM510 1571q22 139 154 139q55 0 151 -39l49 -22q55 -25 82 -25 q38 0 49 41l6 18q8 23 37 23h43q29 0 23 -39q-27 -139 -156 -139q-50 0 -149 37l-49 22q-46 19 -78 19q-50 0 -58 -35l-4 -15q-6 -24 -37 -24h-45q-26 0 -18 39z" />
<glyph unicode="&#xd2;" horiz-adv-x="1222" d="M115 453q0 113 24 266q67 383 222 561q154 178 409 178q426 0 426 -467q0 -110 -29 -272q-68 -383 -219 -560q-152 -177 -405 -177q-428 0 -428 471zM285 459q0 -326 266 -326q177 0 285 139q109 140 161 447q27 147 27 260q0 328 -266 328q-176 0 -284 -141t-163 -447 q-26 -142 -26 -260zM605 1746q7 13 24 13h133q23 0 35 -26l67 -170q4 -10 -2 -20q-6 -9 -20 -9h-56q-19 0 -36 20l-142 170q-11 8 -3 22z" />
<glyph unicode="&#xd3;" horiz-adv-x="1222" d="M115 453q0 113 24 266q67 383 222 561q154 178 409 178q426 0 426 -467q0 -110 -29 -272q-68 -383 -219 -560q-152 -177 -405 -177q-428 0 -428 471zM285 459q0 -326 266 -326q177 0 285 139q109 140 161 447q27 147 27 260q0 328 -266 328q-176 0 -284 -141t-163 -447 q-26 -142 -26 -260zM749 1543q-3 9 3 20l123 170q17 26 45 26h139q16 0 17 -13q2 -14 -11 -22l-197 -170q-17 -20 -45 -20h-59q-12 0 -15 9z" />
<glyph unicode="&#xd4;" horiz-adv-x="1222" d="M115 453q0 113 24 266q67 383 222 561q154 178 409 178q426 0 426 -467q0 -110 -29 -272q-68 -383 -219 -560q-152 -177 -405 -177q-428 0 -428 471zM285 459q0 -326 266 -326q177 0 285 139q109 140 161 447q27 147 27 260q0 328 -266 328q-176 0 -284 -141t-163 -447 q-26 -142 -26 -260zM548 1545q-1 11 11 22l193 172q21 20 45 20h80q25 0 41 -20l131 -172q10 -10 4 -22q-5 -11 -21 -11h-71q-17 0 -37 20l-99 103l-135 -103q-27 -20 -45 -20h-80q-16 0 -17 11z" />
<glyph unicode="&#xd5;" horiz-adv-x="1222" d="M115 453q0 113 24 266q67 383 222 561q154 178 409 178q426 0 426 -467q0 -110 -29 -272q-68 -383 -219 -560q-152 -177 -405 -177q-428 0 -428 471zM285 459q0 -326 266 -326q177 0 285 139q109 140 161 447q27 147 27 260q0 328 -266 328q-176 0 -284 -141t-163 -447 q-26 -142 -26 -260zM518 1571q22 139 154 139q55 0 151 -39l49 -22q55 -25 82 -25q39 0 50 41l6 18q8 23 37 23h43q28 0 22 -39q-27 -139 -156 -139q-50 0 -149 37l-49 22q-46 19 -78 19q-49 0 -57 -35l-4 -15q-6 -24 -37 -24h-45q-27 0 -19 39z" />
<glyph unicode="&#xd6;" horiz-adv-x="1222" d="M115 453q0 113 24 266q67 383 222 561q154 178 409 178q426 0 426 -467q0 -110 -29 -272q-68 -383 -219 -560q-152 -177 -405 -177q-428 0 -428 471zM285 459q0 -326 266 -326q177 0 285 139q109 140 161 447q27 147 27 260q0 328 -266 328q-176 0 -284 -141t-163 -447 q-26 -142 -26 -260zM559 1565l23 121q6 30 32 30h107q33 0 29 -30l-25 -121q-6 -31 -35 -31h-106q-31 0 -25 31zM883 1565l22 121q6 30 33 30h106q35 0 29 -30l-22 -121q-6 -31 -37 -31h-107q-30 0 -24 31z" />
<glyph unicode="&#xd7;" d="M121 362q-17 23 4 41l362 308l-254 303q-16 21 9 43l65 53q25 25 43 0l250 -305l358 305q25 23 43 0l46 -53q19 -19 -9 -43l-358 -303l250 -308q15 -18 -6 -41l-66 -55q-24 -21 -41 2l-250 301l-360 -303q-27 -22 -43 0z" />
<glyph unicode="&#xd8;" horiz-adv-x="1228" d="M4 51q-18 19 2 39l139 154q-28 90 -28 209q0 113 24 266q67 381 223 561q154 178 408 178q236 0 342 -149l103 110q23 27 43 11l47 -44q21 -21 0 -43l-138 -149q29 -92 29 -203q0 -110 -29 -272q-68 -384 -220 -560q-153 -177 -406 -177q-237 0 -344 149l-107 -117 q-23 -25 -41 -8zM287 459q0 -40 2 -68l702 783q-61 133 -231 133q-176 0 -284 -141t-163 -447q-26 -142 -26 -260zM322 262q60 -129 231 -129q176 0 284 139q106 137 162 447q27 147 27 260q0 27 -4 63z" />
<glyph unicode="&#xd9;" horiz-adv-x="1173" d="M121 330q0 64 12 133l168 942q1 33 37 33h100q35 0 29 -33l-164 -930q-12 -67 -12 -121q0 -114 56 -167q57 -54 179 -54q152 0 234 84q82 83 112 258l164 930q2 33 35 33h103q32 0 26 -33l-166 -942q-44 -245 -166 -364t-350 -119q-397 0 -397 350zM591 1746q7 13 23 13 h134q22 0 34 -26l68 -170q4 -10 -2 -20q-6 -9 -21 -9h-55q-20 0 -37 20l-141 170q-11 8 -3 22z" />
<glyph unicode="&#xda;" horiz-adv-x="1173" d="M121 330q0 64 12 133l168 942q1 33 37 33h100q35 0 29 -33l-164 -930q-12 -67 -12 -121q0 -114 56 -167q57 -54 179 -54q152 0 234 84q82 83 112 258l164 930q2 33 35 33h103q32 0 26 -33l-166 -942q-44 -245 -166 -364t-350 -119q-397 0 -397 350zM703 1543q-3 8 4 20 l122 170q17 26 45 26h140q16 0 17 -13q2 -14 -11 -22l-197 -170q-17 -20 -45 -20h-59q-13 0 -16 9z" />
<glyph unicode="&#xdb;" horiz-adv-x="1173" d="M121 330q0 64 12 133l168 942q1 33 37 33h100q35 0 29 -33l-164 -930q-12 -67 -12 -121q0 -114 56 -167q57 -54 179 -54q152 0 234 84q82 83 112 258l164 930q2 33 35 33h103q32 0 26 -33l-166 -942q-44 -245 -166 -364t-350 -119q-397 0 -397 350zM523 1545q-1 10 12 22 l192 172q21 20 45 20h80q25 0 41 -20l131 -172q10 -10 4 -22q-6 -11 -20 -11h-72q-17 0 -37 20l-98 103l-135 -103q-27 -20 -45 -20h-80q-17 0 -18 11z" />
<glyph unicode="&#xdc;" horiz-adv-x="1173" d="M121 330q0 64 12 133l168 942q1 33 37 33h100q35 0 29 -33l-164 -930q-12 -67 -12 -121q0 -114 56 -167q57 -54 179 -54q152 0 234 84q82 83 112 258l164 930q2 33 35 33h103q32 0 26 -33l-166 -942q-44 -245 -166 -364t-350 -119q-397 0 -397 350zM535 1565l22 121 q6 30 33 30h106q34 0 29 -30l-25 -121q-6 -31 -34 -31h-107q-30 0 -24 31zM858 1565l23 121q6 30 32 30h107q35 0 29 -30l-23 -121q-6 -31 -37 -31h-106q-31 0 -25 31z" />
<glyph unicode="&#xdd;" horiz-adv-x="1101" d="M219 1401q-4 14 3 25q8 12 26 12h108q26 0 37 -31l139 -498l54 -215l131 215l317 498q19 31 43 31h115q38 0 16 -37l-561 -862l-92 -506q-1 -33 -37 -33h-100q-35 0 -29 33l90 506zM685 1543q-3 9 3 20l123 170q17 26 45 26h139q17 0 18 -13q2 -14 -12 -22l-196 -170 q-17 -20 -45 -20h-60q-12 0 -15 9z" />
<glyph unicode="&#xde;" horiz-adv-x="1069" d="M68 33l241 1372q6 33 39 33h101q32 0 26 -33l-22 -135h143q225 0 335 -78q109 -78 109 -256q0 -74 -14 -143q-47 -263 -176 -371q-130 -109 -387 -109h-178l-52 -280q-6 -33 -36 -33h-103q-32 0 -26 33zM311 467h162q179 0 264 72q86 73 119 256q12 51 12 112 q0 116 -67 162q-68 47 -215 47h-160z" />
<glyph unicode="&#xdf;" horiz-adv-x="1095" d="M57 31l191 1075q30 176 146 263t296 87q161 0 248 -73q86 -72 86 -181q0 -77 -49 -145q-50 -70 -107 -109q-45 -31 -106 -77q-49 -37 -49 -58q0 -22 29 -48q36 -33 72 -62q50 -41 84 -75q42 -42 72 -108q29 -64 29 -141q0 -180 -104 -287q-105 -107 -295 -106 q-30 0 -76 7q-59 9 -92 18q-43 12 -41 24l15 76q6 34 36 28q86 -12 244 57t158 177q0 67 -45 129q-43 59 -100 100q-53 38 -99 92q-45 52 -45 107q0 64 49 113q52 52 109 79q56 27 108 80q49 50 49 115q0 54 -47 92q-46 37 -145 37q-242 0 -281 -223l-188 -1063 q-2 -31 -33 -31h-92q-33 0 -27 31z" />
<glyph unicode="&#xe0;" horiz-adv-x="956" d="M33 238q0 90 26 155q27 68 80 112t113 74q61 30 144 45q78 14 156 22q53 6 165 11l14 84q6 37 6 68q0 76 -44 112q-42 35 -142 35q-141 0 -281 -55q-32 -7 -32 23l-5 80q0 25 29 36q136 58 309 58q320 0 320 -264q0 -47 -8 -97l-125 -706q-6 -31 -35 -31h-88 q-31 0 -25 31l23 129q-114 -174 -328 -174q-130 0 -201 70t-71 182zM186 250q0 -60 39 -98q38 -37 115 -37q128 0 219 83t113 205l22 132q-72 -4 -171 -15q-67 -7 -137 -27q-69 -19 -110 -50q-42 -31 -65 -77q-25 -50 -25 -116zM434 1413q6 12 23 12h131q22 0 37 -24 l69 -172q8 -27 -22 -27h-54q-21 0 -38 19l-144 170q-8 11 -2 22z" />
<glyph unicode="&#xe1;" horiz-adv-x="956" d="M33 238q0 90 26 155q27 68 80 112t113 74q61 30 144 45q78 14 156 22q53 6 165 11l14 84q6 37 6 68q0 76 -44 112q-42 35 -142 35q-141 0 -281 -55q-32 -7 -32 23l-5 80q0 25 29 36q136 58 309 58q320 0 320 -264q0 -47 -8 -97l-125 -706q-6 -31 -35 -31h-88 q-31 0 -25 31l23 129q-114 -174 -328 -174q-130 0 -201 70t-71 182zM186 250q0 -60 39 -98q38 -37 115 -37q128 0 219 83t113 205l22 132q-72 -4 -171 -15q-67 -7 -137 -27q-69 -19 -110 -50q-42 -31 -65 -77q-25 -50 -25 -116zM526 1229l125 172q18 24 43 24h140 q16 0 18 -12q1 -12 -10 -22l-199 -170q-19 -19 -45 -19h-57q-30 0 -15 27z" />
<glyph unicode="&#xe2;" horiz-adv-x="956" d="M33 238q0 90 26 155q27 68 80 112t113 74q61 30 144 45q78 14 156 22q53 6 165 11l14 84q6 37 6 68q0 76 -44 112q-42 35 -142 35q-141 0 -281 -55q-32 -7 -32 23l-5 80q0 25 29 36q136 58 309 58q320 0 320 -264q0 -47 -8 -97l-125 -706q-6 -31 -35 -31h-88 q-31 0 -25 31l23 129q-114 -174 -328 -174q-130 0 -201 70t-71 182zM186 250q0 -60 39 -98q38 -37 115 -37q128 0 219 83t113 205l22 132q-72 -4 -171 -15q-67 -7 -137 -27q-69 -19 -110 -50q-42 -31 -65 -77q-25 -50 -25 -116zM350 1212q-2 11 10 21l199 180q23 21 45 21 h80q24 0 41 -21l135 -180q8 -11 3 -21q-4 -10 -19 -10h-72q-18 0 -37 19l-102 110l-144 -110q-24 -19 -43 -19h-77q-18 0 -19 10z" />
<glyph unicode="&#xe3;" horiz-adv-x="956" d="M33 238q0 90 26 155q27 68 80 112t113 74q61 30 144 45q78 14 156 22q53 6 165 11l14 84q6 37 6 68q0 76 -44 112q-42 35 -142 35q-141 0 -281 -55q-32 -7 -32 23l-5 80q0 25 29 36q136 58 309 58q320 0 320 -264q0 -47 -8 -97l-125 -706q-6 -31 -35 -31h-88 q-31 0 -25 31l23 129q-114 -174 -328 -174q-130 0 -201 70t-71 182zM186 250q0 -60 39 -98q38 -37 115 -37q128 0 219 83t113 205l22 132q-72 -4 -171 -15q-67 -7 -137 -27q-69 -19 -110 -50q-42 -31 -65 -77q-25 -50 -25 -116zM334 1241q21 135 143 135q64 0 148 -39 l47 -22q40 -21 71 -21q40 0 52 41l2 15q7 22 37 22h45q26 0 20 -39q-24 -133 -143 -133q-73 0 -150 37l-43 23q-39 20 -69 20q-42 0 -54 -39l-4 -16q-12 -21 -37 -21h-43q-28 0 -22 37z" />
<glyph unicode="&#xe4;" horiz-adv-x="956" d="M33 238q0 90 26 155q27 68 80 112t113 74q61 30 144 45q78 14 156 22q53 6 165 11l14 84q6 37 6 68q0 76 -44 112q-42 35 -142 35q-141 0 -281 -55q-32 -7 -32 23l-5 80q0 25 29 36q136 58 309 58q320 0 320 -264q0 -47 -8 -97l-125 -706q-6 -31 -35 -31h-88 q-31 0 -25 31l23 129q-114 -174 -328 -174q-130 0 -201 70t-71 182zM186 250q0 -60 39 -98q38 -37 115 -37q128 0 219 83t113 205l22 132q-72 -4 -171 -15q-67 -7 -137 -27q-69 -19 -110 -50q-42 -31 -65 -77q-25 -50 -25 -116zM369 1231l20 125q6 30 37 30h100q31 0 25 -30 l-23 -125q-2 -29 -34 -29h-101q-30 0 -24 29zM684 1231l23 125q1 30 34 30h101q30 0 24 -30l-22 -125q-2 -29 -35 -29h-100q-31 0 -25 29z" />
<glyph unicode="&#xe5;" horiz-adv-x="956" d="M33 238q0 90 26 155q27 68 80 112t113 74q61 30 144 45q78 14 156 22q53 6 165 11l14 84q6 37 6 68q0 76 -44 112q-42 35 -142 35q-141 0 -281 -55q-32 -7 -32 23l-5 80q0 25 29 36q136 58 309 58q320 0 320 -264q0 -47 -8 -97l-125 -706q-6 -31 -35 -31h-88 q-31 0 -25 31l23 129q-114 -174 -328 -174q-130 0 -201 70t-71 182zM186 250q0 -60 39 -98q38 -37 115 -37q128 0 219 83t113 205l22 132q-72 -4 -171 -15q-67 -7 -137 -27q-69 -19 -110 -50q-42 -31 -65 -77q-25 -50 -25 -116zM434 1343q0 88 63 148q62 59 158 59 q77 0 127 -44q49 -43 49 -109q0 -91 -62 -149t-159 -58q-81 0 -128 43q-48 43 -48 110zM526 1352q0 -38 26 -59t69 -21q48 0 84 31q34 30 34 83q0 38 -24 59t-70 21q-49 0 -84 -30t-35 -84z" />
<glyph unicode="&#xe6;" horiz-adv-x="1536" d="M31 227q0 104 44 180q42 73 105 114q61 40 163 64q96 23 177 29q100 8 187 9l22 133q37 200 -178 200q-143 0 -287 -55q-31 -11 -31 23l-8 80q5 29 31 36q162 58 305 58q271 0 289 -174q112 174 330 174q150 0 229 -87q80 -88 80 -239q0 -82 -14 -151l-21 -111 q-5 -31 -39 -31h-586q-10 -63 -10 -102q0 -127 69 -195q68 -67 189 -67q105 0 217 47q30 15 35 -21l6 -73q2 -23 -28 -39q-105 -49 -244 -49q-145 0 -236 64q-92 65 -104 169q-128 -227 -393 -227q-143 0 -221 66t-78 175zM186 242q0 -123 166 -123q128 0 211 81t105 203 l16 93q-77 -3 -167 -10q-58 -4 -133 -20q-72 -15 -110 -41q-36 -24 -62 -72q-26 -47 -26 -111zM852 610h467l4 17q12 67 12 135q0 201 -176 201q-110 0 -190 -92q-79 -91 -117 -261z" />
<glyph unicode="&#xe7;" horiz-adv-x="831" d="M82 360q0 62 18 181q46 273 178 416q130 141 330 141q149 0 228 -41q28 -12 18 -39l-37 -76q-13 -31 -43 -16q-65 28 -158 28q-143 0 -230 -100q-86 -100 -124 -313q-18 -102 -18 -170q0 -248 221 -248q95 0 190 39q31 16 31 -19l10 -77q0 -22 -34 -37q-96 -47 -205 -47 q-10 0 -15 1t-14 1q82 -51 84 -129q0 -75 -53 -116q-52 -40 -135 -40q-64 0 -88 8q-19 5 -15 25l8 49q4 20 23 20h53q98 0 98 74q0 73 -131 141q-190 84 -190 344z" />
<glyph unicode="&#xe8;" horiz-adv-x="964" d="M84 373q0 59 18 178q46 266 172 407q125 140 318 140q158 0 241 -90q82 -89 82 -248q0 -84 -14 -158l-16 -104q-6 -31 -39 -31h-604q-6 -33 -6 -86q0 -129 68 -197q69 -69 196 -69q108 0 219 45q14 6 25 0q12 -6 12 -21l8 -69q0 -24 -31 -39q-128 -51 -248 -51 q-193 0 -297 101t-104 292zM266 600h484l2 12q16 99 16 144q0 207 -186 207q-238 0 -316 -363zM440 1413q6 12 23 12h131q22 0 37 -24l69 -172q8 -27 -22 -27h-53q-22 0 -39 19l-144 170q-8 11 -2 22z" />
<glyph unicode="&#xe9;" horiz-adv-x="964" d="M84 373q0 59 18 178q46 266 172 407q125 140 318 140q158 0 241 -90q82 -89 82 -248q0 -84 -14 -158l-16 -104q-6 -31 -39 -31h-604q-6 -33 -6 -86q0 -129 68 -197q69 -69 196 -69q108 0 219 45q14 6 25 0q12 -6 12 -21l8 -69q0 -24 -31 -39q-128 -51 -248 -51 q-193 0 -297 101t-104 292zM266 600h484l2 12q16 99 16 144q0 207 -186 207q-238 0 -316 -363zM551 1229l125 172q18 24 43 24h139q18 0 19 -12q1 -11 -11 -22l-198 -170q-19 -19 -45 -19h-58q-29 0 -14 27z" />
<glyph unicode="&#xea;" horiz-adv-x="964" d="M84 373q0 59 18 178q46 266 172 407q125 140 318 140q158 0 241 -90q82 -89 82 -248q0 -84 -14 -158l-16 -104q-6 -31 -39 -31h-604q-6 -33 -6 -86q0 -129 68 -197q69 -69 196 -69q108 0 219 45q14 6 25 0q12 -6 12 -21l8 -69q0 -24 -31 -39q-128 -51 -248 -51 q-193 0 -297 101t-104 292zM266 600h484l2 12q16 99 16 144q0 207 -186 207q-238 0 -316 -363zM369 1212q-2 11 10 21l199 180q22 21 45 21h79q24 0 41 -21l136 -180q7 -11 3 -21t-20 -10h-71q-18 0 -37 19l-103 110l-143 -110q-22 -19 -43 -19h-78q-17 0 -18 10z" />
<glyph unicode="&#xeb;" horiz-adv-x="964" d="M84 373q0 59 18 178q46 266 172 407q125 140 318 140q158 0 241 -90q82 -89 82 -248q0 -84 -14 -158l-16 -104q-6 -31 -39 -31h-604q-6 -33 -6 -86q0 -129 68 -197q69 -69 196 -69q108 0 219 45q14 6 25 0q12 -6 12 -21l8 -69q0 -24 -31 -39q-128 -51 -248 -51 q-193 0 -297 101t-104 292zM266 600h484l2 12q16 99 16 144q0 207 -186 207q-238 0 -316 -363zM391 1231l21 125q6 30 37 30h100q30 0 24 -30l-22 -125q-2 -29 -35 -29h-100q-31 0 -25 29zM707 1231l22 125q1 30 35 30h100q31 0 25 -30l-23 -125q-2 -29 -35 -29h-100 q-30 0 -24 29z" />
<glyph unicode="&#xec;" horiz-adv-x="423" d="M57 31l179 1016q6 30 36 30h95q30 0 24 -30l-180 -1016q-6 -31 -33 -31h-94q-33 0 -27 31zM145 1413q6 12 23 12h131q22 0 37 -24l70 -172q8 -27 -23 -27h-53q-22 0 -39 19l-144 170q-8 11 -2 22z" />
<glyph unicode="&#xed;" horiz-adv-x="423" d="M57 31l179 1016q6 30 36 30h95q30 0 24 -30l-180 -1016q-6 -31 -33 -31h-94q-33 0 -27 31zM289 1229l125 172q18 24 43 24h139q16 0 18 -12q1 -12 -10 -22l-198 -170q-19 -19 -46 -19h-57q-29 0 -14 27z" />
<glyph unicode="&#xee;" horiz-adv-x="423" d="M57 31l179 1016q6 30 36 30h95q30 0 24 -30l-180 -1016q-6 -31 -33 -31h-94q-33 0 -27 31zM86 1212q-2 11 10 21l199 180q23 21 45 21h80q24 0 41 -21l135 -180q8 -11 3 -21q-4 -10 -19 -10h-72q-18 0 -37 19l-102 110l-144 -110q-22 -19 -43 -19h-78q-17 0 -18 10z" />
<glyph unicode="&#xef;" horiz-adv-x="423" d="M57 31l179 1016q6 30 36 30h95q30 0 24 -30l-180 -1016q-6 -31 -33 -31h-94q-33 0 -27 31zM109 1231l20 125q6 30 37 30h100q31 0 25 -30l-23 -125q-2 -29 -35 -29h-100q-30 0 -24 29zM424 1231l22 125q2 30 35 30h101q30 0 24 -30l-22 -125q-2 -29 -35 -29h-100 q-31 0 -25 29z" />
<glyph unicode="&#xf0;" horiz-adv-x="1017" d="M82 356q0 78 16 183q49 274 177 415q128 142 325 142q145 0 205 -68q-22 97 -72 176h-237q-33 0 -27 29l8 41q6 29 37 29h164q-20 27 -105 106q-12 7 -7 18t20 11h112q28 0 43 -15q66 -74 93 -120h163q29 0 23 -29l-8 -41q-6 -29 -33 -29h-100q92 -204 92 -430 q0 -106 -23 -233q-99 -559 -504 -559q-172 0 -267 96q-95 97 -95 278zM242 365q0 -244 207 -244q264 0 337 418q19 105 19 174q0 245 -209 245q-263 0 -336 -419q-18 -102 -18 -174z" />
<glyph unicode="&#xf1;" horiz-adv-x="1019" d="M47 31l180 1016q6 30 35 30h94q31 0 25 -28l-19 -121q108 170 314 170q135 0 207 -72q71 -71 71 -197q0 -46 -8 -92l-125 -706q-6 -31 -35 -31h-94q-34 0 -28 31l122 686q9 68 9 78q0 157 -170 157q-121 0 -204 -81q-84 -82 -106 -214l-112 -626q-6 -31 -35 -31h-94 q-33 0 -27 31zM373 1241q21 135 143 135q64 0 148 -39l47 -22q40 -21 71 -21q40 0 52 41l2 15q7 22 36 22h46q26 0 20 -39q-24 -133 -143 -133q-73 0 -150 37l-43 23q-39 20 -70 20q-41 0 -53 -39l-4 -16q-12 -21 -37 -21h-43q-28 0 -22 37z" />
<glyph unicode="&#xf2;" horiz-adv-x="1021" d="M82 356q0 -184 93 -279t265 -95q409 0 508 559q17 93 17 180q0 183 -94 280t-263 97q-411 0 -510 -557q-16 -108 -16 -185zM242 367q0 72 18 174q73 417 336 417q209 0 209 -245q0 -67 -19 -172q-72 -420 -337 -420q-207 0 -207 246zM457 1413q6 12 22 12h131 q22 0 37 -24l70 -172q8 -27 -23 -27h-53q-22 0 -39 19l-143 170q-8 11 -2 22z" />
<glyph unicode="&#xf3;" horiz-adv-x="1021" d="M82 356q0 -184 93 -279t265 -95q409 0 508 559q17 93 17 180q0 183 -94 280t-263 97q-411 0 -510 -557q-16 -108 -16 -185zM242 367q0 72 18 174q73 417 336 417q209 0 209 -245q0 -67 -19 -172q-72 -420 -337 -420q-207 0 -207 246zM569 1229l125 172q18 24 43 24h140 q17 0 18 -12t-10 -22l-199 -170q-19 -19 -45 -19h-57q-30 0 -15 27z" />
<glyph unicode="&#xf4;" horiz-adv-x="1021" d="M82 356q0 -184 93 -279t265 -95q409 0 508 559q17 93 17 180q0 183 -94 280t-263 97q-411 0 -510 -557q-16 -108 -16 -185zM242 367q0 72 18 174q73 417 336 417q209 0 209 -245q0 -67 -19 -172q-72 -420 -337 -420q-207 0 -207 246zM385 1212q-2 11 10 21l199 180 q22 21 45 21h80q25 0 41 -21l135 -180q7 -11 3 -21t-19 -10h-72q-18 0 -37 19l-102 110l-144 -110q-22 -19 -43 -19h-78q-17 0 -18 10z" />
<glyph unicode="&#xf5;" horiz-adv-x="1021" d="M82 356q0 77 16 185q99 557 510 557q169 0 263 -97t94 -280q0 -87 -17 -180q-99 -559 -508 -559q-172 0 -265 95t-93 279zM242 367q0 -246 207 -246q265 0 337 420q19 105 19 172q0 245 -209 245q-263 0 -336 -417q-18 -102 -18 -174zM373 1241q21 135 143 135 q64 0 148 -39l47 -22q40 -21 71 -21q40 0 52 41l2 15q7 22 36 22h46q26 0 20 -39q-24 -133 -143 -133q-73 0 -150 37l-43 23q-39 20 -70 20q-41 0 -53 -39l-4 -16q-12 -21 -37 -21h-43q-28 0 -22 37z" />
<glyph unicode="&#xf6;" horiz-adv-x="1021" d="M82 356q0 -184 93 -279t265 -95q409 0 508 559q17 93 17 180q0 183 -94 280t-263 97q-411 0 -510 -557q-16 -108 -16 -185zM242 367q0 72 18 174q73 417 336 417q209 0 209 -245q0 -67 -19 -172q-72 -420 -337 -420q-207 0 -207 246zM408 1231l20 125q6 30 37 30h100 q31 0 25 -30l-23 -125q-2 -29 -35 -29h-100q-30 0 -24 29zM723 1231l22 125q1 30 35 30h101q30 0 24 -30l-22 -125q-2 -29 -35 -29h-100q-31 0 -25 29z" />
<glyph unicode="&#xf7;" d="M154 674l12 76q6 28 35 28h790q29 0 25 -28l-15 -76q-5 -29 -34 -29h-791q-28 0 -22 29zM418 279l24 151q6 31 37 31h119q33 0 27 -31l-27 -151q-6 -31 -37 -31h-119q-30 0 -24 31zM543 993l26 150q6 31 35 31h119q35 0 29 -31l-29 -150q-1 -30 -35 -30h-119 q-32 0 -26 30z" />
<glyph unicode="&#xf8;" horiz-adv-x="1030" d="M39 31q-23 17 0 39l82 92q-35 84 -35 194q0 80 18 185q96 557 508 557q175 0 267 -97l61 70q20 20 41 4l35 -26q22 -18 -2 -39l-82 -92q39 -84 39 -197q0 -72 -19 -180q-99 -559 -508 -559q-174 0 -266 96l-61 -70q-22 -26 -43 -8zM246 367q0 -34 4 -70l520 584 q-50 77 -168 77q-265 0 -338 -417q-18 -102 -18 -174zM285 199q51 -78 170 -78q265 0 338 420q18 99 18 172q0 37 -6 71z" />
<glyph unicode="&#xf9;" horiz-adv-x="1007" d="M86 252q0 48 8 94l123 701q6 30 37 30h94q31 0 25 -30l-121 -680q-8 -61 -8 -78q0 -162 166 -162q115 0 197 79q85 81 108 212l110 629q6 30 37 30h94q31 0 25 -30l-180 -1016q-6 -31 -33 -31h-96q-33 0 -27 31l23 119q-106 -168 -303 -168q-138 0 -208 71 q-71 73 -71 199zM461 1413q6 12 22 12h131q22 0 37 -24l70 -172q7 -27 -23 -27h-53q-22 0 -39 19l-143 170q-8 11 -2 22z" />
<glyph unicode="&#xfa;" horiz-adv-x="1007" d="M86 252q0 48 8 94l123 701q6 30 37 30h94q31 0 25 -30l-121 -680q-8 -61 -8 -78q0 -162 166 -162q115 0 197 79q85 81 108 212l110 629q6 30 37 30h94q31 0 25 -30l-180 -1016q-6 -31 -33 -31h-96q-33 0 -27 31l23 119q-106 -168 -303 -168q-138 0 -208 71 q-71 73 -71 199zM553 1229l125 172q18 24 43 24h139q18 0 19 -12q1 -11 -11 -22l-198 -170q-19 -19 -45 -19h-58q-29 0 -14 27z" />
<glyph unicode="&#xfb;" horiz-adv-x="1007" d="M86 252q0 48 8 94l123 701q6 30 37 30h94q31 0 25 -30l-121 -680q-8 -61 -8 -78q0 -162 166 -162q115 0 197 79q85 81 108 212l110 629q6 30 37 30h94q31 0 25 -30l-180 -1016q-6 -31 -33 -31h-96q-33 0 -27 31l23 119q-106 -168 -303 -168q-138 0 -208 71 q-71 73 -71 199zM379 1212q-2 11 10 21l199 180q22 21 45 21h80q25 0 41 -21l135 -180q7 -11 3 -21t-20 -10h-71q-18 0 -37 19l-102 110l-144 -110q-24 -19 -43 -19h-78q-17 0 -18 10z" />
<glyph unicode="&#xfc;" horiz-adv-x="1007" d="M86 252q0 48 8 94l123 701q6 30 37 30h94q31 0 25 -30l-121 -680q-8 -61 -8 -78q0 -162 166 -162q115 0 197 79q85 81 108 212l110 629q6 30 37 30h94q31 0 25 -30l-180 -1016q-6 -31 -33 -31h-96q-33 0 -27 31l23 119q-106 -168 -303 -168q-138 0 -208 71 q-71 73 -71 199zM401 1231l21 125q6 30 37 30h100q31 0 25 -30l-23 -125q-2 -29 -35 -29h-100q-31 0 -25 29zM717 1231l22 125q1 30 35 30h100q31 0 25 -30l-22 -125q-2 -29 -35 -29h-101q-30 0 -24 29z" />
<glyph unicode="&#xfd;" horiz-adv-x="884" d="M-20 -184l30 75q10 26 37 25q67 -12 94 -12q84 0 121 52t25 130l-135 958q-5 33 28 33h99q24 0 28 -28l74 -611l22 -256h5l108 256l262 611q16 28 41 28h105q30 0 18 -33l-453 -974q-73 -170 -147 -236q-78 -70 -219 -70q-76 0 -125 19q-24 11 -18 33zM510 1229l125 172 q18 24 43 24h139q17 0 19 -12q1 -11 -11 -22l-198 -170q-19 -19 -45 -19h-58q-29 0 -14 27z" />
<glyph unicode="&#xfe;" horiz-adv-x="1069" d="M14 -195l283 1602q6 31 33 31h96q33 0 27 -31l-88 -489q105 180 321 180q156 0 242 -92t86 -275q0 -77 -19 -194q-101 -555 -473 -555q-112 0 -192 47t-97 133l-63 -357q-6 -30 -37 -30h-94q-31 0 -25 30zM283 381q0 -260 217 -260q133 0 214 100t120 320q20 111 20 182 q0 235 -205 235q-274 0 -350 -417q-16 -80 -16 -160z" />
<glyph unicode="&#xff;" horiz-adv-x="884" d="M-20 -184l30 75q10 26 37 25q67 -12 94 -12q84 0 121 52t25 130l-135 958q-5 33 28 33h99q24 0 28 -28l74 -611l22 -256h5l108 256l262 611q16 28 41 28h105q30 0 18 -33l-453 -974q-73 -170 -147 -236q-78 -70 -219 -70q-76 0 -125 19q-24 11 -18 33zM338 1231l20 125 q6 30 37 30h101q30 0 24 -30l-22 -125q-2 -29 -35 -29h-101q-30 0 -24 29zM653 1231l23 125q2 30 35 30h100q31 0 25 -30l-23 -125q-2 -29 -35 -29h-100q-31 0 -25 29z" />
<glyph unicode="&#x152;" horiz-adv-x="1605" d="M154 469q0 124 22 250q69 397 236 558t462 161h773q32 0 26 -33l-14 -90q-6 -33 -39 -33h-481l-82 -473h461q32 0 26 -33l-16 -82q-6 -32 -37 -32h-463l-88 -506h487q33 0 27 -33l-16 -90q-6 -33 -37 -33h-748q-246 0 -373 109q-126 108 -126 360zM324 487 q0 -185 84 -258q83 -73 254 -73h116l199 1126h-113q-214 0 -338 -122q-122 -121 -178 -441q-24 -135 -24 -232z" />
<glyph unicode="&#x153;" horiz-adv-x="1597" d="M82 360q0 76 16 181q49 274 174 415q125 142 318 142q116 0 196 -50t109 -147q123 197 338 197q152 0 234 -91q83 -92 83 -245q0 -74 -14 -141l-18 -105q-6 -29 -39 -29h-582q-8 -78 -8 -98q0 -131 67 -202q68 -72 185 -72q95 0 213 45q14 7 25 2q12 -6 12 -21l8 -73 q2 -27 -27 -35q-129 -53 -248 -53q-132 0 -220 54q-91 55 -120 152q-130 -204 -356 -204q-163 0 -254 98q-92 100 -92 280zM242 362q0 -241 192 -241q250 0 322 420q18 102 18 176q0 241 -192 241q-246 0 -322 -417q-18 -105 -18 -179zM920 618h462l2 11q15 66 15 135 q0 199 -174 199q-108 0 -188 -89q-78 -86 -117 -256z" />
<glyph unicode="&#x178;" horiz-adv-x="1101" d="M219 1401q-4 14 3 25q8 12 26 12h108q26 0 37 -31l139 -498l54 -215l131 215l317 498q19 31 43 31h115q38 0 16 -37l-561 -862l-92 -506q-1 -33 -37 -33h-100q-35 0 -29 33l90 506zM498 1565l22 121q6 30 33 30h106q33 0 29 -30l-24 -121q-6 -31 -35 -31h-107 q-30 0 -24 31zM821 1565l23 121q6 30 33 30h106q35 0 29 -30l-23 -121q-6 -31 -37 -31h-106q-31 0 -25 31z" />
<glyph unicode="&#x2c6;" horiz-adv-x="604" d="M176 1212q-2 11 10 21l199 180q23 21 45 21h80q24 0 41 -21l135 -180q8 -11 3 -21q-4 -10 -19 -10h-72q-18 0 -37 19l-102 110l-144 -110q-22 -19 -43 -19h-77q-18 0 -19 10z" />
<glyph unicode="&#x2dc;" horiz-adv-x="604" d="M164 1241q21 135 143 135q64 0 148 -39l47 -22q40 -21 71 -21q40 0 52 41l2 15q7 22 37 22h45q26 0 20 -39q-24 -133 -143 -133q-73 0 -150 37l-43 23q-39 20 -69 20q-42 0 -54 -39l-4 -16q-12 -21 -37 -21h-43q-28 0 -22 37z" />
<glyph unicode="&#x2000;" horiz-adv-x="945" />
<glyph unicode="&#x2001;" horiz-adv-x="1890" />
<glyph unicode="&#x2002;" horiz-adv-x="945" />
<glyph unicode="&#x2003;" horiz-adv-x="1890" />
<glyph unicode="&#x2004;" horiz-adv-x="630" />
<glyph unicode="&#x2005;" horiz-adv-x="472" />
<glyph unicode="&#x2006;" horiz-adv-x="315" />
<glyph unicode="&#x2007;" horiz-adv-x="315" />
<glyph unicode="&#x2008;" horiz-adv-x="236" />
<glyph unicode="&#x2009;" horiz-adv-x="378" />
<glyph unicode="&#x200a;" horiz-adv-x="105" />
<glyph unicode="&#x2010;" horiz-adv-x="675" d="M84 504l14 78q6 28 33 28h459q34 0 28 -28l-14 -78q-6 -27 -37 -27h-461q-28 0 -22 27z" />
<glyph unicode="&#x2011;" horiz-adv-x="675" d="M84 504l14 78q6 28 33 28h459q34 0 28 -28l-14 -78q-6 -27 -37 -27h-461q-28 0 -22 27z" />
<glyph unicode="&#x2012;" horiz-adv-x="675" d="M84 504l14 78q6 28 33 28h459q34 0 28 -28l-14 -78q-6 -27 -37 -27h-461q-28 0 -22 27z" />
<glyph unicode="&#x2013;" horiz-adv-x="907" d="M86 504l14 78q6 28 33 28h688q33 0 27 -28l-14 -78q-6 -27 -35 -27h-690q-29 0 -23 27z" />
<glyph unicode="&#x2014;" horiz-adv-x="1333" d="M86 504l14 78q6 28 33 28h1114q33 0 27 -28l-14 -78q-6 -27 -35 -27h-1116q-29 0 -23 27z" />
<glyph unicode="&#x2018;" horiz-adv-x="391" d="M211 1049l25 141q5 26 14 41l104 192q15 21 33 21h39q26 0 14 -27l-86 -184h43q31 0 25 -33l-27 -151q-6 -29 -35 -29h-122q-33 0 -27 29z" />
<glyph unicode="&#x2019;" horiz-adv-x="391" d="M219 1038l86 187h-43q-30 0 -24 32l26 150q6 31 35 31h123q33 0 27 -31l-25 -141q-1 -22 -14 -39l-107 -195q-6 -20 -33 -20h-39q-24 0 -12 26z" />
<glyph unicode="&#x201a;" horiz-adv-x="391" d="M4 -186l86 186h-43q-30 0 -24 33l26 149q6 31 35 31h123q32 0 26 -31l-24 -141q-1 -22 -14 -39l-107 -195q-6 -20 -33 -20h-39q-24 0 -12 27z" />
<glyph unicode="&#x201c;" horiz-adv-x="700" d="M211 1049l25 141q5 26 14 41l104 192q15 21 33 21h39q26 0 14 -27l-86 -184h43q31 0 25 -33l-27 -151q-6 -29 -35 -29h-122q-33 0 -27 29zM518 1049l25 141q1 7 8 23q1 3 3 7.5t3.5 7t1.5 3.5l105 192q15 21 32 21h39q25 0 13 -27l-84 -184h41q32 0 26 -33l-26 -151 q-6 -29 -37 -29h-123q-29 0 -27 29z" />
<glyph unicode="&#x201d;" horiz-adv-x="700" d="M219 1036l84 187h-41q-30 0 -24 30l26 152q6 31 35 31h123q33 0 27 -31l-25 -141q-1 -17 -14 -39l-107 -195q-7 -20 -33 -20h-39q-24 0 -12 26zM526 1036l86 187h-43q-30 0 -24 30l26 152q8 31 35 31h125q31 0 25 -31l-25 -141q-1 -22 -12 -39l-107 -195q-7 -20 -32 -20 h-39q-27 0 -15 26z" />
<glyph unicode="&#x201e;" horiz-adv-x="700" d="M6 -186l84 186h-41q-30 0 -24 31l26 151q6 31 35 31h123q33 0 27 -31l-25 -141q-1 -17 -14 -39l-107 -195q-7 -20 -33 -20h-39q-24 0 -12 27zM313 -186l86 186h-43q-30 0 -24 31l26 151q8 31 35 31h125q31 0 25 -31l-25 -141q-2 -23 -12 -39l-107 -195q-7 -20 -32 -20 h-39q-27 0 -15 27z" />
<glyph unicode="&#x2022;" horiz-adv-x="704" d="M109 500q0 124 88 216q89 93 215 93q97 0 154 -56q59 -57 59 -149q0 -122 -87 -217q-87 -94 -216 -94q-96 0 -155 57q-58 57 -58 150z" />
<glyph unicode="&#x2026;" horiz-adv-x="1239" d="M39 31l27 151q6 33 36 33h119q29 0 27 -33l-29 -151q-6 -31 -33 -31h-123q-30 0 -24 31zM451 31l28 151q1 33 35 33h121q30 0 24 -33l-28 -151q-6 -31 -33 -31h-121q-32 0 -26 31zM864 31l27 151q6 33 37 33h121q25 0 24 -33l-29 -151q-6 -31 -32 -31h-121q-33 0 -27 31z " />
<glyph unicode="&#x202f;" horiz-adv-x="378" />
<glyph unicode="&#x2039;" horiz-adv-x="452" d="M82 557q6 10 10 14l187 277q18 22 40 22h89q28 0 12 -30l-197 -283l96 -283q11 -30 -24 -30h-86q-26 0 -33 22l-92 277q0 8 -2 14z" />
<glyph unicode="&#x203a;" horiz-adv-x="452" d="M68 274l192 283l-92 283q-6 15 1 22q8 8 21 8h86q25 0 29 -22l94 -277q2 -8 0 -14q0 -8 -6 -14l-188 -277q-16 -22 -39 -22h-86q-36 0 -12 30z" />
<glyph unicode="&#x205f;" horiz-adv-x="472" />
<glyph unicode="&#x20ac;" horiz-adv-x="1128" d="M63 537l13 65q6 29 33 29h122l13 88l20 90h-123q-30 0 -24 29l12 67q6 27 33 27h135q79 231 238 380q156 146 401 146q156 0 276 -55q25 -11 13 -37l-47 -84q-17 -30 -45 -20q-93 43 -195 43q-176 0 -296 -106q-118 -104 -175 -267h471q28 0 16 -31l-28 -63 q-12 -29 -43 -29h-451q-1 -5 -3.5 -16t-6.5 -32.5t-8 -41.5q-12 -70 -13 -88h383q31 0 19 -31l-29 -63q-11 -31 -43 -31h-338q-4 -161 78 -266q83 -105 264 -105q108 0 213 43q28 11 35 -22l18 -84q2 -25 -26 -35q-117 -55 -262 -55q-250 0 -373 150q-123 149 -121 374h-131 q-31 0 -25 31z" />
<glyph unicode="&#x2122;" horiz-adv-x="1232" d="M221 1358l10 59q1 21 23 21h369q19 0 18 -21l-12 -59q-5 -21 -25 -21h-127l-94 -542q-1 -21 -27 -21h-69q-21 0 -19 21l97 542h-129q-19 0 -15 21zM621 795l110 622q1 21 25 21h71q21 0 25 -15l113 -317l227 317q10 15 25 15h83q20 0 19 -21l-111 -622q-2 -21 -26 -21 h-68q-18 0 -16 21l82 460l-211 -290q-15 -15 -27 -15q-14 0 -18 15l-111 290l-80 -460q-1 -21 -24 -21h-70q-19 0 -18 21z" />
<glyph unicode="&#x25fc;" horiz-adv-x="1075" d="M0 0v1075h1075v-1075h-1075z" />
</font>
</defs>
</svg>
