<?xml version="1.0" standalone="no"?>
<!DOCTYPE svg PUBLIC "-//W3C//DTD SVG 1.1//EN" "http://www.w3.org/Graphics/SVG/1.1/DTD/svg11.dtd" >
<svg xmlns="http://www.w3.org/2000/svg" xmlns:xlink="http://www.w3.org/1999/xlink" version="1.1">
<metadata></metadata>
<defs>
<font id="amsiprocond-thinuploaded_file" horiz-adv-x="925" >
<font-face units-per-em="2048" ascent="1753" descent="-295" />
<missing-glyph horiz-adv-x="409" />
<glyph unicode="&#xfb01;" horiz-adv-x="737" d="M45 1038v19q0 12 12 12h123v115q0 135 40 196q41 62 134 62q31 0 60 -4q14 -1 14 -21v-10q0 -13 -18 -12q-25 4 -52 4q-75 0 -104 -50t-29 -171v-109h373q12 0 12 -12v-1045q0 -12 -12 -12h-20q-13 0 -13 12v1014h-340v-1014q0 -12 -12 -12h-20q-13 0 -13 12v1014h-123 q-12 0 -12 12zM561 1276v145q0 13 12 13h29q12 0 12 -13v-145q0 -12 -12 -12h-29q-12 0 -12 12z" />
<glyph unicode="&#xfb02;" horiz-adv-x="745" d="M45 1038v19q0 12 12 12h123v78q0 150 61 223q60 72 201 72q84 0 164 -17q12 -5 12 -18v-1395q0 -12 -12 -12h-20q-13 0 -13 12v1377q-64 10 -131 10q-121 0 -169 -63t-48 -197v-70h172q13 0 13 -12v-19q0 -12 -13 -12h-172v-1014q0 -12 -12 -12h-20q-13 0 -13 12v1014 h-123q-12 0 -12 12z" />
<glyph unicode="&#xfb03;" horiz-adv-x="1130" d="M45 1038v19q0 12 12 12h123v115q0 135 40 196q41 62 134 62q31 0 60 -4q14 -1 14 -21v-10q0 -13 -18 -12q-25 4 -52 4q-75 0 -104 -50t-29 -173v-107h348v115q0 135 40 196q41 62 135 62q30 0 59 -4q14 -1 14 -21v-10q0 -13 -18 -12q-25 4 -51 4q-76 0 -105 -50t-29 -173 v-107h373q13 0 13 -12v-1045q0 -12 -13 -12h-20q-13 0 -13 12v1014h-340v-1014q0 -12 -12 -12h-20q-13 0 -13 12v1014h-348v-1014q0 -12 -12 -12h-20q-13 0 -13 12v1014h-123q-12 0 -12 12zM954 1276v145q0 13 13 13h28q13 0 13 -13v-145q0 -12 -13 -12h-28q-13 0 -13 12z " />
<glyph unicode="&#xfb04;" horiz-adv-x="1138" d="M45 1038v19q0 12 12 12h123v115q0 135 40 196q41 62 134 62q31 0 60 -4q14 -1 14 -21v-8q0 -15 -18 -14q-25 4 -52 4q-75 0 -104 -50t-29 -173v-107h348v78q0 150 61 223q60 72 200 72q85 0 165 -17q13 -5 13 -18v-1395q0 -12 -13 -12h-20q-12 0 -12 12v1377 q-64 10 -131 10q-121 0 -169 -63q-49 -64 -49 -197v-70h173q12 0 12 -12v-19q0 -12 -12 -12h-173v-1014q0 -12 -12 -12h-20q-13 0 -13 12v1014h-348v-1014q0 -12 -12 -12h-20q-13 0 -13 12v1014h-123q-12 0 -12 12z" />
<glyph horiz-adv-x="0" />
<glyph unicode="&#xd;" horiz-adv-x="681" />
<glyph unicode=" "  horiz-adv-x="409" />
<glyph unicode="&#x09;" horiz-adv-x="409" />
<glyph unicode="&#xa0;" horiz-adv-x="409" />
<glyph unicode="!" horiz-adv-x="364" d="M143 12v113q0 12 13 12h53q12 0 12 -12v-113q0 -12 -12 -12h-53q-13 0 -13 12zM156 1421q0 13 12 13h29q12 0 12 -13l-6 -1044q0 -12 -13 -12h-16q-12 0 -12 12z" />
<glyph unicode="&#x22;" horiz-adv-x="499" d="M115 1409q0 31 5 43q4 10 23 10q20 0 24 -10q5 -12 5 -43q0 -36 -4 -127l-10 -254h-29l-10 254q-4 91 -4 127zM328 1409q0 34 5 44q5 9 25 9q19 0 23 -10q4 -9 4 -45q0 -34 -4 -125l-10 -254h-29l-10 254q-4 91 -4 127z" />
<glyph unicode="#" horiz-adv-x="942" d="M25 479v21q0 12 12 12h153l117 426h-143q-12 0 -12 12v21q0 12 12 12h155l125 455q1 10 15 8l22 -6q10 -4 8 -15l-120 -442h346l125 455q1 10 14 8l23 -6q10 -4 8 -15l-121 -442h141q13 0 13 -12v-21q0 -12 -13 -12h-153l-117 -426h143q13 0 13 -12v-21q0 -12 -13 -12 h-155l-129 -471q-4 -12 -15 -10l-22 6q-12 2 -8 16l124 459h-346l-129 -471q-4 -11 -14 -10l-23 6q-12 2 -8 16l125 459h-141q-12 0 -12 12zM240 512h346l116 426h-346z" />
<glyph unicode="$" horiz-adv-x="749" d="M90 33v14q0 16 16 12q90 -34 254 -34q126 0 189 76q63 77 63 216q0 26 -5 58q-2 13 -10 50q-4 20 -20 48q-3 6 -11.5 20.5t-11.5 20.5q-6 11 -32 41q-24 27 -30 36q-7 10 -38 37q-9 8 -18 15t-13.5 11t-5.5 5t-6 5t-15 12.5t-20 16.5q-36 30 -38 32q-73 58 -120 109 q-43 46 -84 128q-40 80 -40 171q0 143 61 224q60 79 205 91v158q0 12 13 12h22q13 0 13 -12v-156q113 -1 188 -23q14 -4 14 -18v-14q0 -17 -16 -13q-87 23 -186 23q-146 0 -207 -67q-60 -66 -60 -205q0 -83 36 -155t77 -116q37 -40 113 -100q140 -114 188 -168 q104 -123 104 -277q0 -150 -64 -235q-65 -86 -187 -98v-156q0 -12 -13 -12h-22q-13 0 -13 12v152q-161 0 -256 34q-14 4 -14 19z" />
<glyph unicode="%" horiz-adv-x="1294" d="M66 1055q0 391 231 391t231 -391t-231 -391t-231 391zM113 1055q0 -348 184 -348t184 348t-184 348t-184 -348zM283 16l680 1405q7 13 18 13h23q16 0 8 -17l-680 -1405q-6 -12 -19 -12h-22q-15 0 -8 16zM766 379q0 391 231 391q232 0 232 -391t-230 -391q-233 0 -233 391 zM813 379q0 -348 184 -348q185 0 185 348t-185 348q-184 0 -184 -348z" />
<glyph unicode="&#x26;" horiz-adv-x="1024" d="M94 406q0 151 70 280q68 126 205 178l-37 62q-94 158 -94 278q0 114 69 180t211 66q94 0 148 -20q14 -4 14 -19v-12q0 -17 -16 -13q-62 21 -146 21q-117 0 -174 -54t-57 -149q0 -116 86 -256l436 -706q39 96 39 211q0 72 -8 125q-4 12 12 12h22q12 0 13 -12 q10 -60 10 -125q0 -137 -59 -258l112 -181q10 -14 -6 -14h-29q-10 0 -16 10l-86 140q-112 -166 -326 -166q-188 0 -290 105q-103 106 -103 317zM143 406q0 -187 89 -282t255 -95q203 0 297 166l-393 632q-121 -46 -184 -165q-64 -120 -64 -256z" />
<glyph unicode="'" horiz-adv-x="286" d="M115 1409q0 31 5 43q4 10 23 10q20 0 24 -10q5 -12 5 -43q0 -36 -4 -127l-10 -254h-29l-10 254q-4 91 -4 127z" />
<glyph unicode="(" horiz-adv-x="454" d="M135 606q0 483 209 832q6 8 16 8h21q12 0 6 -12q-88 -149 -146 -373q-57 -219 -57 -455q0 -235 57 -454q58 -224 146 -373q6 -12 -6 -12h-21q-10 0 -16 8q-209 349 -209 831z" />
<glyph unicode=")" horiz-adv-x="454" d="M68 -221q88 149 146 373q56 215 56 454q0 240 -56 455q-58 224 -146 373q-6 12 6 12h20q11 0 17 -8q208 -347 208 -832q0 -484 -208 -831q-6 -8 -17 -8h-20q-12 0 -6 12z" />
<glyph unicode="*" horiz-adv-x="684" d="M96 1028q-12 22 25 43q36 22 196 98q-152 72 -196 99q-37 22 -25 43q15 22 51 2q24 -12 183 -121q-15 176 -15 219t27 43t27 -43t-15 -219q45 29 75 49q8 6 33 22.5t35 23.5q29 21 40 26q39 23 51 0q12 -24 -25 -45q-118 -62 -196 -99q127 -60 196 -98q37 -21 25 -45 q-10 -22 -51 0q-53 29 -183 121q15 -175 15 -219q0 -43 -27 -43t-27 43q0 44 15 219q-159 -109 -183 -121q-36 -20 -51 2z" />
<glyph unicode="+" d="M90 725v20q0 13 14 13h336v411q0 13 13 13h20q12 0 12 -13v-411h338q13 0 13 -13v-20q0 -12 -13 -12h-338v-412q0 -12 -12 -12h-20q-13 0 -13 12v412h-338q-12 0 -12 12z" />
<glyph unicode="," horiz-adv-x="299" d="M111 12v113q0 12 12 12h53q12 0 12 -12v-111q0 -6 -2 -16l-34 -154q-4 -12 -15 -12h-8q-14 0 -10 14l28 154h-24q-12 0 -12 12z" />
<glyph unicode="-" horiz-adv-x="544" d="M82 541v18q0 12 12 12h357q12 0 12 -12v-18q0 -13 -12 -13h-357q-12 0 -12 13z" />
<glyph unicode="." horiz-adv-x="299" d="M111 12v113q0 12 12 12h53q12 0 12 -12v-113q0 -12 -12 -12h-53q-12 0 -12 12z" />
<glyph unicode="/" horiz-adv-x="528" d="M18 12l445 1411q2 11 14 11h23q12 0 10 -13l-444 -1411q-1 -10 -15 -10h-22q-13 0 -11 12z" />
<glyph unicode="0" horiz-adv-x="897" d="M90 715q0 390 88 562q89 173 271 173q181 0 270 -174q88 -173 88 -563q0 -388 -88 -560q-89 -173 -270 -173q-182 0 -271 173q-88 172 -88 562zM139 715q0 -364 77 -529q76 -163 233 -163q156 0 232 163q77 165 77 527q0 365 -76 529q-76 165 -233 165q-156 0 -233 -164 q-77 -165 -77 -528z" />
<glyph unicode="1" horiz-adv-x="544" d="M55 1180q-11 10 0 18l256 229q7 7 17 7h20q12 0 12 -13v-1409q0 -12 -12 -12h-22q-13 0 -13 12v1356l-227 -205q-10 -10 -16 0z" />
<glyph unicode="2" horiz-adv-x="835" d="M86 12v21q0 12 8 20q117 131 147 168q63 76 145 187q96 130 146 222q52 96 95 221t43 236q0 318 -256 318q-133 0 -196 -80q-62 -78 -62 -217q0 -33 2 -61q0 -13 -13 -13h-22q-12 0 -12 13q-5 50 -5 63q0 151 77 246q76 94 233 94q156 0 229 -100q74 -101 74 -263 q0 -113 -44 -245q-44 -133 -96 -229q-48 -89 -148 -224q-89 -119 -144 -185q-41 -48 -140 -159h594q13 0 13 -12v-21q0 -12 -13 -12h-643q-12 0 -12 12z" />
<glyph unicode="3" horiz-adv-x="741" d="M45 29v12q0 16 16 12q111 -30 220 -30q329 0 329 370q0 336 -268 336h-86q-12 0 -12 12v21q0 12 12 12h86q104 0 173 81t69 241q0 161 -66 236t-221 75q-97 0 -205 -33q-16 -4 -16 12v13q0 14 14 18q105 33 207 33q180 0 258 -85t78 -269q0 -146 -58 -235 q-56 -86 -137 -107q96 -16 159 -105q62 -87 62 -256q0 -209 -92 -312q-91 -101 -286 -101q-114 0 -222 30q-14 4 -14 19z" />
<glyph unicode="4" horiz-adv-x="872" d="M57 385v18q0 11 6 23l541 997q6 11 19 11h26q13 0 13 -13v-1003h161q13 0 13 -12v-21q0 -12 -13 -12h-161v-361q0 -12 -13 -12h-22q-13 0 -13 12v361h-544q-13 0 -13 12zM113 418h501v925z" />
<glyph unicode="5" horiz-adv-x="761" d="M66 27v12q0 16 16 12q88 -28 207 -28q342 0 342 421q0 174 -60 276q-59 101 -213 101q-69 0 -117 -11q-55 -13 -78 -22q-24 -10 -30 -10q-5 0 -12 4l-12 9q-9 7 -9 20q20 275 31 610q0 13 12 13h463q12 0 12 -13v-20q0 -12 -12 -12h-430q-6 -295 -29 -562q90 37 211 37 q96 0 159 -31t99 -93q35 -61 50 -132q14 -67 14 -164q0 -464 -391 -464q-125 0 -209 28q-14 4 -14 19z" />
<glyph unicode="6" horiz-adv-x="839" d="M90 715q0 395 90 565t305 170q88 0 152 -23q14 -4 14 -18v-12q0 -17 -16 -13q-69 23 -150 23q-178 0 -262 -149q-84 -148 -84 -510q0 -74 2 -140q17 126 96 199q80 74 207 74q322 0 322 -453q0 -205 -80 -327q-79 -121 -233 -121q-193 0 -278 171q-85 170 -85 564z M160 436q0 -71 15 -140q15 -67 47 -132q32 -64 92 -103q58 -38 139 -38q131 0 197 111q67 113 67 294q0 410 -275 410q-282 0 -282 -402z" />
<glyph unicode="7" horiz-adv-x="753" d="M66 1401v20q0 13 12 13h594q12 0 12 -13v-20q0 -11 -6 -21q-163 -238 -290 -647q-128 -411 -128 -721q0 -12 -12 -12h-25q-12 0 -12 12q0 320 122 715q121 392 290 662h-545q-12 0 -12 12z" />
<glyph unicode="8" horiz-adv-x="835" d="M86 330q0 154 80 260q78 104 201 155q-265 122 -265 385q0 143 83 232q82 88 233 88q150 0 232 -88q83 -89 83 -232q0 -264 -264 -385q123 -51 201 -155q80 -106 80 -260q0 -164 -84 -257t-248 -93t-248 93t-84 257zM135 328q0 -144 72 -225q71 -80 211 -80t211 80 t71 225q0 152 -79 250q-78 97 -203 143q-125 -46 -203 -143q-80 -100 -80 -250zM152 1130q0 -259 266 -360q266 101 266 360q0 126 -71 202q-71 75 -195 75q-126 0 -196 -75q-70 -74 -70 -202z" />
<glyph unicode="9" horiz-adv-x="839" d="M74 1004q0 204 80 326t233 122q193 0 278 -171q85 -170 85 -564t-91 -565q-90 -170 -305 -170q-89 0 -151 22q-15 5 -15 19v12q0 17 17 12q66 -22 149 -22q178 0 262 148q84 149 84 511q0 73 -2 139q-17 -126 -95 -198q-80 -74 -208 -74q-321 0 -321 453zM123 1004 q0 -410 274 -410q283 0 283 401q0 72 -15 141q-14 64 -48 132q-31 63 -92 102q-60 39 -138 39q-131 0 -198 -112q-66 -111 -66 -293z" />
<glyph unicode=":" horiz-adv-x="356" d="M139 12v113q0 12 13 12h53q12 0 12 -12v-113q0 -12 -12 -12h-53q-13 0 -13 12zM139 936v111q0 14 13 14h53q12 0 12 -12v-113q0 -12 -12 -12h-53q-13 0 -13 12z" />
<glyph unicode=";" horiz-adv-x="356" d="M139 12v113q0 12 13 12h53q12 0 12 -12v-111q0 -6 -2 -16l-35 -154q-4 -12 -14 -12h-8q-15 0 -11 14l29 154h-24q-13 0 -13 12zM139 936v113q0 12 11 12h55q12 0 12 -12v-113q0 -12 -12 -12h-53q-13 0 -13 12z" />
<glyph unicode="&#x3c;" d="M135 733q0 6 6 12l551 551q8 11 19 0l16 -16q8 -8 0 -16l-530 -531l530 -530q9 -9 0 -17l-16 -16q-11 -11 -19 0l-551 551q-6 6 -6 12z" />
<glyph unicode="=" d="M102 516v21q0 12 13 12h696q12 0 12 -12v-21q0 -12 -12 -12h-696q-13 0 -13 12zM102 934v20q0 13 13 13h696q12 0 12 -13v-20q0 -12 -12 -12h-696q-13 0 -13 12z" />
<glyph unicode="&#x3e;" d="M199 186q-9 8 0 17l530 530l-530 531q-8 8 0 16l16 16q11 10 18 0l551 -551q7 -7 7 -12t-7 -12l-551 -551q-7 -10 -18 0z" />
<glyph unicode="?" horiz-adv-x="679" d="M78 1386v15q0 14 14 18q88 31 193 31q157 0 223 -79q65 -78 65 -232q0 -102 -37 -195q-36 -91 -82 -156t-82 -144q-38 -84 -38 -163v-102q0 -14 -12 -14h-25q-12 0 -12 12v104q0 85 38 173t81 149q47 66 82 152q38 93 38 184q0 131 -54 198q-54 68 -185 68 q-96 0 -191 -31q-16 -4 -16 12zM270 12v113q0 12 13 12h53q12 0 12 -12v-113q0 -12 -12 -12h-53q-13 0 -13 12z" />
<glyph unicode="@" horiz-adv-x="1486" d="M131 420q0 390 177 604q177 215 485 215q306 0 436 -148q131 -149 131 -444q0 -248 -106 -410q-105 -161 -289 -161h-35q-34 0 -33 33l10 133q-66 -179 -231 -179q-93 0 -146 91t-53 231q0 76 8 151q7 62 33 148q24 77 65 132q41 54 109 90q69 36 162 36q98 0 164 -18 q14 -5 12 -21l-92 -788h18q171 0 267 148q96 149 96 386q0 279 -120 414t-408 135q-289 0 -454 -201t-165 -577q0 -326 150 -458t444 -132q134 0 248 27q16 4 16 -13v-10q0 -17 -14 -18q-111 -27 -250 -27q-318 0 -476 142q-159 143 -159 489zM522 385q0 -126 43 -202 q44 -77 117 -77q103 0 169 102q67 103 83 249l49 432q-59 10 -127 10q-334 0 -334 -514z" />
<glyph unicode="A" horiz-adv-x="876" d="M55 14l353 1407q2 13 16 13h29q14 0 16 -13l352 -1407q1 -14 -10 -14h-23q-10 0 -14 12l-112 447h-447l-113 -447q-4 -12 -14 -12h-22q-12 0 -11 14zM225 504h426l-211 848h-4z" />
<glyph unicode="B" horiz-adv-x="864" d="M127 12v1409q0 13 12 13h258q179 0 270 -81t91 -270q0 -151 -63 -234q-64 -84 -160 -104q251 -40 251 -360q0 -206 -101 -295q-102 -90 -300 -90h-246q-12 0 -12 12zM174 45h211q178 0 265 78t87 262q0 174 -82 255q-83 81 -252 81h-229v-676zM174 766h219q161 0 240 77 q78 77 78 240q0 171 -76 238q-77 68 -240 68h-221v-623z" />
<glyph unicode="C" horiz-adv-x="757" d="M90 717q0 406 92 570q91 163 320 163q85 0 151 -20q15 -4 15 -19v-14q0 -18 -17 -13q-72 21 -149 21q-204 0 -283 -153q-80 -154 -80 -535q0 -383 81 -536q80 -152 286 -152q89 0 158 20q16 4 16 -12v-14q0 -15 -14 -19q-66 -20 -160 -20q-231 0 -323 162 q-93 164 -93 571z" />
<glyph unicode="D" horiz-adv-x="888" d="M127 12v1409q0 13 14 13h219q112 0 188 -33t135 -113q58 -79 87 -221q29 -143 29 -350t-29 -350t-87 -222t-135 -112q-76 -33 -188 -33h-221q-12 0 -12 12zM174 45h186q134 0 214 55q81 56 128 206q48 155 48 411q0 255 -48 410q-47 150 -128 206q-82 56 -214 56h-186 v-1344z" />
<glyph unicode="E" horiz-adv-x="716" d="M127 12v1409q0 13 14 13h477q13 0 13 -13v-20q0 -12 -13 -12h-444v-631h432q12 0 12 -13v-20q0 -12 -12 -12h-432v-668h449q12 0 12 -12v-23q0 -10 -12 -10h-484q-12 0 -12 12z" />
<glyph unicode="F" horiz-adv-x="688" d="M127 12v1409q0 13 12 13h471q13 0 13 -15v-18q0 -12 -13 -12h-436v-631h424q12 0 12 -13v-20q0 -12 -12 -12h-424v-701q0 -12 -12 -12h-23q-12 0 -12 12z" />
<glyph unicode="G" horiz-adv-x="819" d="M90 717q0 406 94 569q95 164 324 164q92 0 158 -20q14 -4 14 -19v-14q0 -17 -16 -13q-72 21 -156 21q-205 0 -287 -153q-82 -152 -82 -535q0 -381 83 -535q82 -153 288 -153q86 0 152 24v672h-273q-12 0 -12 12v21q0 12 12 12h307q13 0 13 -12v-719q0 -17 -17 -25 q-62 -30 -182 -30q-231 0 -325 163q-95 164 -95 570z" />
<glyph unicode="H" horiz-adv-x="892" d="M127 12v1409q0 13 12 13h23q12 0 12 -13v-663h545v663q0 13 12 13h23q12 0 12 -13v-1409q0 -12 -12 -12h-23q-12 0 -12 12v701h-545v-701q0 -12 -12 -12h-23q-12 0 -12 12z" />
<glyph unicode="I" horiz-adv-x="319" d="M137 12v1409q0 13 13 13h22q12 0 12 -13v-1409q0 -12 -12 -12h-22q-13 0 -13 12z" />
<glyph unicode="J" horiz-adv-x="544" d="M53 31v14q0 17 17 12q54 -20 125 -20q95 0 136 53q40 52 40 195v1136q0 13 12 13h23q12 0 12 -13v-1138q0 -163 -52 -227t-171 -64q-74 0 -127 20q-15 4 -15 19z" />
<glyph unicode="K" horiz-adv-x="757" d="M127 12v1409q0 13 12 13h23q12 0 12 -13v-657l483 659q6 11 17 11h33q17 0 6 -15l-504 -682l516 -723q10 -14 -6 -14h-33q-10 0 -16 10l-496 699v-697q0 -12 -12 -12h-23q-12 0 -12 12z" />
<glyph unicode="L" horiz-adv-x="663" d="M127 12v1409q0 13 12 13h23q12 0 12 -13v-1376h416q12 0 12 -14v-19q0 -12 -12 -12h-451q-12 0 -12 12z" />
<glyph unicode="M" horiz-adv-x="1036" d="M127 12v1409q0 13 12 13h25q11 0 16 -11l338 -882l338 882q5 11 16 11h25q12 0 12 -13v-1409q0 -12 -12 -12h-23q-12 0 -12 12v1303l-325 -842q-6 -12 -19 -12q-12 0 -18 12l-326 842v-1303q0 -12 -12 -12h-23q-12 0 -12 12z" />
<glyph unicode="N" horiz-adv-x="913" d="M127 12v1409q0 13 12 13h21q12 0 18 -13l561 -1308v1308q0 13 13 13h22q12 0 12 -15v-1407q0 -12 -12 -12h-20q-13 0 -19 12l-561 1309v-1309q0 -12 -12 -12h-23q-12 0 -12 12z" />
<glyph unicode="O" horiz-adv-x="937" d="M90 717q0 399 90 566t289 167t289 -167t90 -566q0 -400 -90 -566q-90 -167 -287 -167q-198 0 -290 167q-91 166 -91 566zM139 717q0 -378 78 -534t252 -156t252 156t78 534q0 377 -78 533q-79 157 -252 157t-252 -157q-78 -156 -78 -533z" />
<glyph unicode="P" horiz-adv-x="798" d="M127 12v1409q0 13 14 13h185q224 0 310 -103q85 -101 85 -375q0 -273 -85 -374q-86 -103 -308 -103h-154v-467q0 -12 -12 -12h-23q-12 0 -12 12zM174 524h154q200 0 272 90t72 344q0 250 -72 340q-73 91 -272 91h-154v-865z" />
<glyph unicode="Q" horiz-adv-x="937" d="M90 717q0 399 90 566t289 167q197 0 285 -166q89 -167 90 -567v-18q0 -375 -81 -538q-82 -166 -269 -177q112 -80 258 -80q17 0 29 1t24 1q18 0 18 -17v-12q0 -18 -30 -18q-226 0 -365 127q-177 15 -257 183q-81 169 -81 548zM139 717q0 -378 78 -534t252 -156t252 156 t78 534q0 375 -78 532q-78 158 -250 158q-175 0 -254 -157q-78 -156 -78 -533z" />
<glyph unicode="R" horiz-adv-x="835" d="M127 12v1409q0 13 12 13h197q227 0 316 -98t89 -351q0 -227 -68 -326q-69 -100 -235 -118l277 -527q6 -14 -8 -14h-27q-10 0 -16 10l-277 527h-213v-525q0 -12 -12 -12h-23q-12 0 -12 12zM174 582h176q188 0 265 86t77 317q0 233 -77 319q-76 85 -279 85h-162v-807z" />
<glyph unicode="S" horiz-adv-x="679" d="M74 1135q0 151 67 233t230 82q86 0 164 -23q14 -4 14 -18v-14q0 -18 -17 -13q-81 23 -163 23q-137 0 -193 -69q-55 -68 -55 -201q0 -124 53 -206q52 -80 160 -167q57 -46 100 -86q28 -25 79 -88q46 -56 66 -124q19 -64 19 -149q0 -335 -313 -335q-103 0 -191 22 q-14 4 -14 18v15q0 16 16 12q81 -22 189 -22q266 0 266 290q0 77 -17 134q-17 58 -60 111q-39 48 -74 82q-32 31 -95 83q-111 94 -172 183q-59 87 -59 227z" />
<glyph unicode="T" horiz-adv-x="661" d="M49 1401v20q0 13 14 13h537q12 0 12 -13v-20q0 -12 -12 -12h-246v-1377q0 -12 -12 -12h-23q-12 0 -12 12v1377h-246q-12 0 -12 12z" />
<glyph unicode="U" horiz-adv-x="880" d="M121 406v1015q0 13 12 13h23q12 0 12 -13v-1011q0 -213 59 -297q60 -86 213 -86t213 86q60 85 60 297v1011q0 13 12 13h23q12 0 12 -13v-1015q0 -229 -73 -326q-72 -96 -247 -96q-174 0 -246 96q-73 97 -73 326z" />
<glyph unicode="V" horiz-adv-x="843" d="M55 1419q-1 15 11 15h22q9 0 14 -13l234 -981l82 -360h8l82 358l233 983q5 13 15 13h22q12 0 10 -15l-333 -1407q-5 -12 -17 -12h-32q-12 0 -17 12z" />
<glyph unicode="W" horiz-adv-x="1302" d="M63 1419q-1 15 11 15h22q15 0 17 -13l180 -956l67 -383h9l69 383l189 956q2 13 14 13h21q12 0 14 -13l188 -956l70 -381h8l68 381l180 956q2 13 14 13h25q11 0 10 -15l-268 -1407q-5 -12 -17 -12h-32q-13 0 -17 12l-192 989l-60 322h-4l-59 -322l-193 -989 q-1 -12 -16 -12h-33q-12 0 -16 12z" />
<glyph unicode="X" horiz-adv-x="782" d="M51 14l316 721l-299 684q-6 15 8 15h26q13 0 15 -9l274 -637l275 637q2 9 14 9h27q14 0 8 -15l-299 -684l315 -721q6 -14 -8 -14h-27q-12 0 -14 8l-291 672l-291 -672q-2 -8 -14 -8h-27q-14 0 -8 14z" />
<glyph unicode="Y" horiz-adv-x="829" d="M59 1419q-4 15 11 15h22q9 0 14 -11l222 -565l84 -231h6l84 231l221 565q5 11 14 11h23q14 0 10 -15l-332 -850v-557q0 -12 -12 -12h-23q-12 0 -12 12v557z" />
<glyph unicode="Z" horiz-adv-x="729" d="M74 12v21q0 3 4 14l524 1342h-493q-13 0 -13 12v20q0 13 13 13h534q12 0 12 -13v-18q0 -6 -4 -17l-522 -1341h518q12 0 12 -12v-21q0 -12 -12 -12h-561q-12 0 -12 12z" />
<glyph unicode="[" horiz-adv-x="454" d="M164 -213v1634q0 13 12 13h184q13 0 13 -13v-18q0 -12 -13 -12h-151v-1573h151q13 0 13 -13v-18q0 -12 -13 -12h-184q-12 0 -12 12z" />
<glyph unicode="\" horiz-adv-x="528" d="M18 1421q-2 13 11 13h22q13 0 15 -11l444 -1411q2 -12 -10 -12h-23q-13 0 -14 10z" />
<glyph unicode="]" horiz-adv-x="454" d="M82 -195q0 13 12 13h152v1573h-152q-12 0 -12 12v18q0 13 12 13h185q12 0 12 -13v-1634q0 -12 -12 -12h-185q-12 0 -12 12v18z" />
<glyph unicode="^" d="M131 735l307 686q6 13 17 13h16q9 0 16 -13l308 -686q6 -14 -11 -14h-22q-11 0 -17 12l-282 621l-283 -621q-6 -12 -16 -12h-23q-16 0 -10 14z" />
<glyph unicode="_" horiz-adv-x="688" d="M41 -119q0 13 12 13h582q12 0 12 -13v-18q0 -13 -12 -13h-582q-12 0 -12 13v18z" />
<glyph unicode="`" horiz-adv-x="491" d="M158 1374q-16 19 8 19h33q13 0 24 -17l113 -172q7 -12 -6 -12h-15q-8 0 -14 8z" />
<glyph unicode="a" horiz-adv-x="720" d="M66 295q0 89 25 151t67 101q38 35 110 57q66 20 135 28q66 8 162 9v162q0 126 -45 183q-44 56 -153 56q-123 0 -228 -43q-14 -4 -14 11v12q0 16 14 20q104 43 232 43q125 0 182 -67q57 -68 57 -209v-797q0 -12 -12 -12h-20q-13 0 -13 12v172q-23 -80 -89 -138 q-63 -56 -171 -56q-119 0 -179 81t-60 224zM111 293q0 -260 198 -260q118 0 187 95t69 237v235q-75 -1 -148 -7q-53 -4 -122 -23q-65 -18 -101 -49t-60 -89q-23 -55 -23 -139z" />
<glyph unicode="b" horiz-adv-x="778" d="M115 12v1409q0 13 12 13h20q13 0 13 -13v-561q24 102 89 164q64 61 167 61q154 0 221 -139q68 -141 68 -411q0 -271 -68 -412q-67 -139 -221 -139q-103 0 -167 61q-65 62 -89 164v-197q0 -12 -13 -12h-20q-12 0 -12 12zM158 535q0 -508 258 -508q241 0 241 508 q0 507 -241 507q-258 0 -258 -507z" />
<glyph unicode="c" horiz-adv-x="591" d="M74 535q0 287 67 418q67 132 240 132q77 0 143 -24q15 -5 15 -21v-12q0 -18 -17 -10q-51 22 -139 22q-149 0 -206 -119q-56 -118 -56 -386q0 -269 56 -387q57 -119 208 -119q90 0 141 22q17 8 17 -10v-12q0 -17 -15 -21q-66 -24 -145 -24q-174 0 -242 132 q-67 131 -67 419z" />
<glyph unicode="d" horiz-adv-x="778" d="M74 535q0 273 67 411q67 139 221 139q103 0 167 -61q65 -62 89 -164v561q0 13 13 13h20q13 0 13 -13v-1409q0 -12 -13 -12h-20q-13 0 -13 12v197q-24 -102 -89 -164q-64 -61 -167 -61q-154 0 -221 139q-67 138 -67 412zM121 535q0 -508 241 -508q259 0 259 508 q0 507 -259 507q-241 0 -241 -507z" />
<glyph unicode="e" horiz-adv-x="700" d="M74 537q0 280 68 413q69 135 225 135q147 0 205 -129q59 -130 59 -376v-58q0 -12 -13 -12h-497q5 -259 67 -371q63 -112 224 -112q103 0 178 28q14 4 14 -10v-12q0 -17 -14 -21q-75 -28 -180 -28q-187 0 -262 130q-74 129 -74 423zM121 553h463v27q0 228 -47 346 q-46 116 -170 116q-131 0 -188 -119q-56 -119 -58 -370z" />
<glyph unicode="f" horiz-adv-x="466" d="M45 1038v19q0 12 12 12h123v94q0 153 40 215q41 64 147 64q36 0 61 -4q14 -1 14 -21v-10q0 -13 -18 -12q-21 4 -53 4q-88 0 -117 -53t-29 -191v-86h193q12 0 12 -12v-19q0 -12 -12 -12h-193v-1014q0 -12 -12 -12h-20q-13 0 -13 12v1014h-123q-12 0 -12 12z" />
<glyph unicode="g" horiz-adv-x="761" d="M74 580q0 505 278 505q101 0 165 -61q65 -62 89 -164v197q0 12 12 12h21q12 0 12 -12v-955q0 -183 -71 -263q-72 -81 -224 -81q-116 0 -206 45q-15 7 -15 21v12q0 14 15 10q99 -45 202 -45q134 0 195 70q59 68 59 235v193q-24 -102 -89 -164q-64 -61 -165 -61 q-278 0 -278 506zM121 580q0 -463 231 -463q125 0 191 122q65 120 65 341t-65 341q-66 121 -191 121q-231 0 -231 -462z" />
<glyph unicode="h" horiz-adv-x="778" d="M115 12v1409q0 13 12 13h20q13 0 13 -13v-532q28 79 96 138q67 58 172 58q122 0 181 -84q59 -85 59 -229v-760q0 -12 -13 -12h-20q-12 0 -12 12v760q0 270 -195 270q-115 0 -191 -91q-77 -92 -77 -238v-699q0 -14 -13 -14h-20q-12 0 -12 12z" />
<glyph unicode="i" horiz-adv-x="299" d="M123 1247v146q0 12 12 12h29q12 0 12 -12v-146q0 -12 -12 -12h-29q-12 0 -12 12zM127 12v1045q0 12 12 12h21q12 0 12 -12v-1045q0 -12 -12 -12h-21q-12 0 -12 12z" />
<glyph unicode="j" horiz-adv-x="311" d="M4 -199q0 15 14 11q14 -2 35 -2q52 0 69 33t17 116v1098q0 12 13 12h20q12 0 12 -12v-1100q0 -101 -28 -145q-28 -45 -105 -45q-17 0 -33 2q-14 1 -14 18v14zM135 1247v146q0 12 12 12h29q12 0 12 -12v-146q0 -12 -12 -12h-29q-12 0 -12 12z" />
<glyph unicode="k" horiz-adv-x="643" d="M115 12v1409q0 13 12 13h20q13 0 13 -13v-811l377 447q12 12 26 12h21q10 0 12 -6t-4 -12l-389 -457l401 -576q15 -18 -8 -18h-21q-19 0 -26 12l-389 563v-563q0 -12 -13 -12h-20q-12 0 -12 12z" />
<glyph unicode="l" horiz-adv-x="299" d="M127 12v1409q0 13 12 13h21q12 0 12 -13v-1409q0 -12 -12 -12h-21q-12 0 -12 12z" />
<glyph unicode="m" horiz-adv-x="1216" d="M111 12v1045q0 12 12 12h20q13 0 13 -12v-164q22 73 90 133q66 59 157 59q93 0 148 -54q55 -53 67 -150q17 76 92 141q72 63 169 63q115 0 171 -80t56 -225v-768q0 -12 -12 -12h-21q-12 0 -12 12v768q0 262 -182 262q-105 0 -177 -88q-71 -87 -71 -223v-719 q0 -12 -13 -12h-20q-12 0 -12 12v768q0 262 -183 262q-103 0 -175 -93t-72 -232v-705q0 -12 -13 -12h-20q-12 0 -12 12z" />
<glyph unicode="n" horiz-adv-x="774" d="M111 12v1045q0 12 12 12h20q13 0 13 -12v-172q23 73 94 138q68 62 174 62q122 0 181 -84q59 -85 59 -229v-760q0 -12 -13 -12h-20q-13 0 -13 12v760q0 270 -194 270q-116 0 -193 -95q-75 -93 -75 -236v-699q0 -12 -13 -12h-20q-12 0 -12 12z" />
<glyph unicode="o" horiz-adv-x="753" d="M74 535q0 280 69 415t234 135q164 0 233 -135q70 -137 70 -415q0 -279 -70 -416q-69 -135 -233 -135q-165 0 -234 135t-69 416zM121 535q0 -262 59 -384q60 -124 197 -124q136 0 196 124q60 125 60 384t-60 384q-59 123 -196 123q-138 0 -197 -123q-59 -122 -59 -384z " />
<glyph unicode="p" horiz-adv-x="774" d="M111 -213v1270q0 12 12 12h20q13 0 13 -12v-197q24 102 89 164q64 61 167 61q154 0 221 -139q67 -138 67 -411q0 -274 -67 -412q-67 -139 -221 -139q-103 0 -167 61q-65 62 -89 164v-422q0 -12 -13 -12h-20q-12 0 -12 12zM154 535q0 -508 258 -508q241 0 241 508 q0 507 -241 507q-258 0 -258 -507z" />
<glyph unicode="q" horiz-adv-x="774" d="M74 535q0 273 67 411q67 139 221 139q103 0 167 -61q65 -62 89 -164v197q0 12 13 12h20q13 0 13 -12v-1270q0 -12 -13 -12h-20q-13 0 -13 12v426q-24 -103 -90 -166t-166 -63q-154 0 -221 139q-67 138 -67 412zM121 535q0 -508 241 -508q259 0 259 508q0 507 -259 507 q-241 0 -241 -507z" />
<glyph unicode="r" horiz-adv-x="466" d="M111 12v1045q0 12 12 12h20q13 0 13 -12v-189q17 89 85 153t162 64q27 0 27 -18v-14q0 -17 -14 -17q-8 0 -16 1t-15 1q-91 0 -160 -97t-69 -249v-680q0 -12 -13 -12h-20q-12 0 -12 12z" />
<glyph unicode="s" horiz-adv-x="610" d="M61 35v12q0 15 17 10q92 -30 196 -30q230 0 230 243q0 30 -5 60q-4 23 -19 50q-18 31 -23 39q-11 16 -37 36l-40 30q-15 11 -50 34q-28 18 -51 34q-64 44 -109 80q-37 29 -68 84q-30 53 -30 119q0 249 264 249q74 0 153 -20q15 -5 15 -18v-13q0 -17 -17 -12 q-69 20 -151 20q-219 0 -219 -206q0 -56 24 -99q21 -38 54 -66q26 -22 92 -69q11 -7 20 -14q4 -3 12.5 -8.5t23.5 -15.5t26 -18q47 -32 61 -43q18 -15 46 -41q32 -30 42 -52t21 -60q10 -36 10 -80q0 -134 -69 -211q-68 -75 -206 -75q-116 0 -198 30q-15 4 -15 21z" />
<glyph unicode="t" horiz-adv-x="491" d="M41 1038v19q0 12 12 12h119v266q0 13 12 13h21q12 0 12 -13v-266h193q12 0 12 -12v-19q0 -12 -12 -12h-193v-782q0 -123 29 -167t102 -44q34 0 64 6q14 4 14 -10v-13q0 -19 -14 -20q-27 -6 -66 -6q-92 0 -133 53t-41 197v786h-119q-12 0 -12 12z" />
<glyph unicode="u" horiz-adv-x="765" d="M111 313v744q0 12 12 12h20q13 0 13 -12v-744q0 -286 206 -286q116 0 182 97t66 241v692q0 12 13 12h20q12 0 12 -12v-1045q0 -12 -12 -12h-20q-13 0 -13 12v172q-18 -76 -82 -139q-62 -61 -168 -61q-124 0 -187 87q-62 86 -62 242z" />
<glyph unicode="v" horiz-adv-x="663" d="M47 1055q-1 14 10 14h23q14 0 16 -12l183 -750l51 -221h4l51 221l182 750q1 12 17 12h22q11 0 10 -14l-258 -1043q-2 -12 -16 -12h-20q-16 0 -17 12z" />
<glyph unicode="w" horiz-adv-x="1040" d="M63 1055q-1 14 11 14h20q12 0 17 -12l143 -738l43 -239h4l41 239l152 740q1 10 14 10h24q14 0 15 -10l147 -740l41 -239h4l43 239l148 738q4 12 16 12h21q11 0 10 -14l-213 -1043q-2 -12 -16 -12h-21q-15 0 -16 12l-146 719l-43 250h-4l-43 -250l-149 -719 q-2 -12 -17 -12h-20q-15 0 -17 12z" />
<glyph unicode="x" horiz-adv-x="684" d="M55 16l262 527l-254 510q-7 16 9 16h22q10 0 15 -8l233 -473l233 473q5 8 15 8h22q16 0 9 -16l-254 -510l262 -527q7 -16 -8 -16h-23q-9 0 -14 8l-242 490l-242 -490q-5 -8 -14 -8h-23q-15 0 -8 16z" />
<glyph unicode="y" horiz-adv-x="679" d="M55 1055q-1 14 11 14h22q14 0 16 -12l191 -750l49 -217h4l49 217l183 750q2 12 16 12h22q12 0 11 -14l-252 -1037q-33 -137 -76 -196q-43 -60 -137 -60q-42 0 -86 13q-15 5 -15 20v12q0 16 17 11q50 -13 86 -13q86 0 125 87q27 61 27 110q0 22 -5 41z" />
<glyph unicode="z" horiz-adv-x="671" d="M78 12v13q0 9 4 16l442 985h-422q-12 0 -12 12v19q0 12 12 12h463q13 0 13 -12v-15q0 -8 -5 -16l-442 -983h451q12 0 12 -12v-19q0 -12 -12 -12h-492q-12 0 -12 12z" />
<glyph unicode="{" horiz-adv-x="454" d="M74 594v20q0 13 12 13h18q54 0 73 100q20 103 20 352q0 198 26 275q27 80 123 80h47q13 0 13 -13v-18q0 -12 -13 -12h-47q-63 0 -84 -70q-20 -66 -20 -242q0 -263 -21 -361t-78 -114q57 -16 78 -114t21 -361q0 -176 20 -242q21 -69 84 -69h47q13 0 13 -13v-18 q0 -12 -13 -12h-47q-96 0 -123 80q-26 77 -26 274q0 249 -20 352q-20 101 -73 101h-18q-12 0 -12 12z" />
<glyph unicode="|" horiz-adv-x="454" d="M205 -213v1675q0 13 12 13h21q12 0 12 -13v-1675q0 -12 -12 -12h-21q-12 0 -12 12z" />
<glyph unicode="}" horiz-adv-x="454" d="M49 -195q0 13 12 13h48q63 0 84 69q20 66 20 242q0 268 20 361q21 98 78 114q-57 16 -78 114q-20 93 -20 361q0 176 -20 242q-21 70 -84 70h-48q-12 0 -12 12v18q0 13 12 13h48q95 0 122 -80t27 -275q0 -249 20 -352q19 -100 72 -100h19q12 0 12 -13v-20q0 -12 -12 -12 h-19q-52 0 -72 -101q-20 -103 -20 -352q0 -195 -27 -274q-27 -80 -122 -80h-48q-12 0 -12 12v18z" />
<glyph unicode="~" d="M104 684q43 143 160 143q54 0 160 -45l98 -41q100 -41 144 -41q61 0 94 56q14 25 22 51q4 13 19 6l16 -8q8 -7 4 -17q-43 -143 -155 -143q-58 0 -164 45l-109 45q-83 37 -133 37q-61 0 -94 -55q-16 -29 -23 -51q-4 -14 -18 -7l-16 9q-9 7 -5 16z" />
<glyph unicode="&#xa1;" horiz-adv-x="364" d="M143 944v113q0 12 13 12h53q12 0 12 -12v-113q0 -12 -12 -12h-53q-13 0 -13 12zM156 -213l6 905q0 13 12 13h16q13 0 13 -13l6 -905q0 -12 -12 -12h-29q-12 0 -12 12z" />
<glyph unicode="&#xa2;" horiz-adv-x="630" d="M78 535q0 274 65 404q66 132 228 144v158q0 12 12 12h23q12 0 12 -12v-156q63 -1 137 -26q14 -4 14 -21v-12q0 -17 -16 -10q-57 24 -147 24q-159 0 -220 -120q-61 -121 -61 -385q0 -268 61 -387t222 -119q92 0 149 24q16 7 16 -10v-12q0 -17 -14 -21q-74 -25 -141 -26 v-156q0 -12 -12 -12h-23q-12 0 -12 12v158q-165 11 -229 143t-64 406z" />
<glyph unicode="&#xa3;" horiz-adv-x="884" d="M74 25q-7 10 4 16q213 141 213 389q0 102 -55 283h-144q-12 0 -12 12v18q0 13 12 13h129q-72 231 -72 366q0 153 80 241q79 87 242 87q153 0 225 -82t72 -219q0 -74 -16 -74h-23q-12 0 -12 12q2 28 2 62q0 256 -246 256q-274 0 -274 -283q0 -134 71 -366h260q13 0 13 -13 v-18q0 -12 -13 -12h-245q55 -184 55 -287q0 -108 -44 -205q-43 -96 -130 -158q84 35 131 35q66 0 161 -32q98 -33 154 -33q46 0 75 23t44 69q14 43 19 87q4 37 4 101q0 13 12 13h25q12 0 12 -13q0 -65 -6 -114t-24 -102t-58 -81t-103 -28q-68 0 -157 32q-91 33 -166 33 q-101 0 -187 -53q-10 -6 -16 4z" />
<glyph unicode="&#xa4;" horiz-adv-x="942" d="M84 207q-8 7 0 18l113 115q-37 93 -37 240q0 146 37 239l-113 115q-8 10 0 18l14 15q8 8 19 0l102 -103q80 146 252 146t252 -146l102 103q11 8 19 0l14 -15q8 -8 0 -18l-113 -115q37 -93 37 -239q0 -147 -37 -240l113 -115q8 -11 0 -18l-14 -14q-8 -8 -19 0l-102 102 q-79 -145 -252 -145t-252 145l-102 -102q-11 -8 -19 0zM203 580q0 -194 69 -293t199 -99t199 99t69 293q0 193 -69 292t-199 99q-127 0 -198 -99q-70 -98 -70 -292z" />
<glyph unicode="&#xa5;" horiz-adv-x="876" d="M59 1419q-4 15 11 15h22q9 0 14 -11l330 -833h4l330 833q5 11 14 11h23q15 0 10 -15l-266 -663h213q12 0 12 -13v-18q0 -12 -12 -12h-229l-74 -185v-55h303q12 0 12 -12v-19q0 -12 -12 -12h-303v-418q0 -12 -12 -12h-21q-12 0 -12 12v418h-303q-13 0 -13 12v19 q0 12 13 12h303v55l-74 185h-229q-13 0 -13 12v18q0 13 13 13h211z" />
<glyph unicode="&#xa6;" horiz-adv-x="454" d="M205 -213v651q0 13 12 13h21q12 0 12 -13v-651q0 -12 -12 -12h-21q-12 0 -12 12zM205 811v651q0 13 12 13h21q12 0 12 -13v-651q0 -12 -12 -12h-21q-12 0 -12 12z" />
<glyph unicode="&#xa7;" horiz-adv-x="942" d="M160 643q0 105 65 179t176 89q-89 61 -139 126q-49 64 -49 157q0 124 68 190q67 66 223 66q130 0 215 -31q14 -4 14 -20v-12q0 -15 -16 -11q-95 31 -213 31q-135 0 -191 -53q-55 -52 -55 -160q0 -63 38 -119q38 -57 78 -86q48 -36 118 -80l6 -3q1 -1 5 -3l6 -4q2 -1 5 -4 q48 -31 99 -67q41 -29 80 -68q44 -44 65 -90q20 -44 20 -103q0 -100 -62 -172q-63 -74 -169 -90q188 -124 188 -280q0 -120 -73 -189q-74 -69 -232 -69q-138 0 -221 30q-14 4 -14 21v12q0 14 16 10q91 -30 219 -30q260 0 260 215q0 52 -19 94q-19 43 -68 84q-46 39 -77 60 q-32 22 -100 63q-91 56 -133 87q-49 36 -90 96q-43 62 -43 134zM205 639q0 -25 8 -51q6 -18 16 -43q7 -17 31 -41q27 -27 36 -35q17 -15 47 -36q42 -29 47 -32q4 -2 11 -6.5t20 -12t23 -13.5l52 -31q105 5 171 73q66 69 66 160q0 47 -18 87q-17 37 -64 80q-45 40 -72 60 q-2 1 -96 62q-4 3 -14 10t-14 9q-109 0 -180 -71q-70 -70 -70 -169z" />
<glyph unicode="&#xa8;" horiz-adv-x="491" d="M100 1204v84q0 12 13 12h28q13 0 13 -12v-84q0 -12 -13 -12h-28q-13 0 -13 12zM338 1204v84q0 12 12 12h29q12 0 12 -12v-84q0 -12 -12 -12h-29q-12 0 -12 12z" />
<glyph unicode="&#xa9;" horiz-adv-x="1347" d="M119 717q0 129 17 228q18 104 59 200t103 161q63 66 159 105t217 39t217 -39t159 -105q62 -65 103 -161q40 -92 58 -200q18 -105 18 -228q0 -124 -18 -229q-18 -106 -58 -199q-41 -96 -103 -161q-63 -66 -159 -105t-217 -39t-217 39t-159 105q-62 65 -103 161 q-41 97 -59 199q-17 99 -17 229zM166 717q0 -148 25 -264q26 -122 82 -219q57 -100 158 -153q102 -54 243 -54q140 0 242 54q101 53 158 153q56 97 82 219q26 121 26 264t-26 264t-82 218q-58 101 -158 154q-102 54 -242 54q-141 0 -243 -54q-100 -53 -158 -154 q-56 -97 -82 -218q-25 -116 -25 -264zM451 717q0 225 60 325q60 101 202 101q67 0 121 -17q12 -2 12 -16v-16q0 -14 -15 -9q-39 15 -116 15q-121 0 -169 -87t-48 -296t48 -296t171 -87q78 0 119 14q12 4 12 -8v-16q0 -16 -10 -17q-51 -16 -123 -16q-144 0 -204 100t-60 326z " />
<glyph unicode="&#xaa;" horiz-adv-x="614" d="M66 1237q0 89 29 146q30 59 91 87q62 29 127 39q73 12 164 13v129q0 101 -39 144q-39 44 -127 44q-93 0 -186 -35q-12 -6 -12 8v17q0 13 12 18q83 33 190 33q205 0 205 -223v-645q0 -13 -12 -13h-19q-12 0 -12 13v137q-57 -158 -211 -158q-96 0 -148 66q-52 65 -52 180z M106 1237q0 -205 164 -205q94 0 151 75q56 74 56 189v187q-75 -2 -121 -6q-44 -4 -99 -20q-50 -14 -82 -40q-29 -23 -49 -69t-20 -111z" />
<glyph unicode="&#xab;" horiz-adv-x="524" d="M74 530q0 3 2 9l108 268q4 10 13 10h26q13 0 8 -12l-110 -275l110 -274q5 -12 -8 -12h-26q-9 0 -13 10l-108 268q-2 6 -2 8zM274 530q0 3 2 9l109 268q4 10 12 10h27q12 0 8 -12l-110 -277l110 -272q4 -12 -8 -12h-27q-8 0 -12 10l-109 268z" />
<glyph unicode="&#xac;" d="M115 725v20q0 13 12 13h627q12 0 12 -13v-362q0 -12 -12 -12h-21q-12 0 -12 12v330h-594q-12 0 -12 12z" />
<glyph unicode="&#xad;" horiz-adv-x="544" d="M82 541v18q0 12 12 12h357q12 0 12 -12v-18q0 -13 -12 -13h-357q-12 0 -12 13z" />
<glyph unicode="&#xae;" horiz-adv-x="774" d="M74 1092q0 148 86 254q85 104 227 104t227 -104q86 -106 86 -254t-86 -254q-86 -105 -227 -105t-227 105q-86 106 -86 254zM115 1092q0 -135 73 -226q74 -92 199 -92t199 92q73 91 73 226q0 134 -73 225q-74 92 -199 92t-199 -92q-73 -91 -73 -225zM287 905v383 q0 10 10 10h84q75 0 105 -29q32 -30 32 -98q0 -117 -94 -129l80 -133q7 -14 -8 -14h-21q-8 0 -14 10l-80 135h-51v-135q0 -10 -11 -10h-22q-10 0 -10 10zM330 1081h55q52 0 70 20q18 19 18 70q0 50 -18 68t-74 18h-51v-176z" />
<glyph unicode="&#xaf;" horiz-adv-x="491" d="M74 1221v14q0 12 12 12h320q12 0 12 -12v-14q0 -13 -12 -13h-320q-12 0 -12 13z" />
<glyph unicode="&#xb0;" horiz-adv-x="569" d="M70 1212q0 109 57 178q56 68 158 68q101 0 157 -68q58 -70 58 -178q0 -107 -58 -177q-56 -68 -157 -68q-102 0 -158 68q-57 69 -57 177zM115 1212q0 -92 46 -148t124 -56t124 56t46 148q0 93 -46 149t-124 56t-124 -56t-46 -149z" />
<glyph unicode="&#xb1;" d="M90 12v21q0 12 12 12h721q13 0 13 -12v-21q0 -12 -13 -12h-721q-12 0 -12 12zM90 725v20q0 13 12 13h338v411q0 13 13 13h20q12 0 12 -13v-411h338q13 0 13 -13v-20q0 -12 -13 -12h-338v-412q0 -12 -12 -12h-20q-13 0 -13 12v412h-338q-12 0 -12 12z" />
<glyph unicode="&#xb2;" horiz-adv-x="552" d="M61 1028v16q0 12 7 19q61 69 108 125q43 52 106 140q65 92 100 181q34 87 34 168q0 183 -152 183q-153 0 -153 -164q0 -20 4 -41q5 -13 -11 -13h-18q-12 0 -14 13q-4 15 -4 41q0 90 48 145t148 55q195 0 195 -219q0 -39 -7 -74q-7 -32 -17 -71q-9 -34 -30 -74l-18 -36 l-15 -30q-15 -28 -42 -68q-29 -43 -43 -61q-37 -48 -48 -61q-10 -11 -19.5 -23t-15.5 -19t-9 -10q-2 -3 -17 -19t-28 -31q-36 -41 -37 -43h346q12 0 12 -13v-16q0 -12 -12 -12h-385q-13 0 -13 12z" />
<glyph unicode="&#xb3;" horiz-adv-x="552" d="M66 1036v17q0 13 12 8q54 -19 131 -19q107 0 160 51q51 49 51 160q0 199 -172 199h-55q-13 0 -13 12v15q0 12 13 12h53q69 0 111 47q42 46 42 143q0 96 -43 136q-44 41 -137 41q-57 0 -123 -21q-12 -5 -12 8v19q0 7 8 12q49 20 127 20q117 0 170 -51t53 -164 q0 -91 -33 -141q-34 -52 -83 -67q55 -6 96 -64t41 -156q0 -249 -254 -249q-85 0 -135 20q-8 5 -8 12z" />
<glyph unicode="&#xb4;" horiz-adv-x="491" d="M156 1204l112 172q11 17 25 17h33q24 0 8 -19l-144 -174q-6 -8 -14 -8h-14q-14 0 -6 12z" />
<glyph unicode="&#xb5;" horiz-adv-x="765" d="M111 -213v1270q0 12 12 12h20q13 0 13 -12v-692q0 -144 66 -241t181 -97q207 0 207 286v744q0 12 13 12h20q12 0 12 -12v-744q0 -156 -62 -242q-63 -87 -187 -87q-106 0 -168 61q-64 63 -82 139v-397q0 -12 -13 -12h-20q-12 0 -12 12z" />
<glyph unicode="&#xb6;" horiz-adv-x="770" d="M90 1049q0 193 91 288q92 97 257 97h262q13 0 13 -13v-18q0 -12 -13 -12h-63q-61 0 -84 -29t-23 -100v-1289q0 -118 -36 -161q-38 -45 -138 -45q-30 0 -67 6q-15 1 -15 18v14q0 15 15 11q38 -6 69 -6q74 0 101 34q26 33 26 131v691h-45q-164 0 -257 97t-93 286z" />
<glyph unicode="&#xb7;" horiz-adv-x="299" d="M111 477v113q0 12 12 12h53q12 0 12 -12v-113q0 -12 -12 -12h-53q-12 0 -12 12z" />
<glyph unicode="&#xb8;" horiz-adv-x="491" d="M184 18h43q138 -80 138 -190q0 -102 -117 -102q-30 0 -47 6q-11 6 -11 16v12q0 13 13 13h39q75 0 75 61q0 99 -133 184z" />
<glyph unicode="&#xb9;" horiz-adv-x="552" d="M96 1659q-10 10 0 16l205 203q6 6 14 6h17q12 0 12 -12v-844q0 -12 -12 -12h-19q-12 0 -12 12v791l-174 -172q-8 -8 -16 0z" />
<glyph unicode="&#xba;" horiz-adv-x="630" d="M66 1434q0 225 59 334q61 112 190 112q130 0 191 -112q59 -109 59 -334q0 -226 -59 -335q-61 -112 -191 -112q-129 0 -190 112q-59 109 -59 335zM109 1434q0 -208 48 -308t158 -100q111 0 159 100t48 308q0 206 -48 307q-48 100 -157 100q-112 0 -160 -100 q-48 -101 -48 -307z" />
<glyph unicode="&#xbb;" horiz-adv-x="524" d="M92 256l111 274l-111 275q-5 12 8 12h27q8 0 12 -10l109 -268q2 -6 2 -9q0 -2 -2 -8l-109 -268q-4 -10 -12 -10h-27q-12 0 -8 12zM293 256l110 274l-110 275q-5 12 8 12h27q8 0 12 -10l109 -268q2 -6 2 -9q0 -2 -2 -8l-109 -268q-4 -10 -12 -10h-27q-13 0 -8 12z" />
<glyph unicode="&#xbc;" horiz-adv-x="1331" d="M96 1208q-11 11 0 17l205 202q7 7 14 7h17q12 0 12 -13v-843q0 -13 -12 -13h-19q-12 0 -12 13v790l-174 -172q-8 -8 -16 0zM342 16l680 1405q6 13 18 13h23q16 0 8 -17l-680 -1405q-6 -12 -18 -12h-23q-15 0 -8 16zM815 227v19q0 9 8 22l340 590q6 10 17 10h20 q12 0 12 -12v-600h95q12 0 12 -12v-17q0 -12 -12 -12h-95v-203q0 -12 -12 -12h-18q-13 0 -13 12v203h-342q-12 0 -12 12zM864 256h305v535z" />
<glyph unicode="&#xbd;" horiz-adv-x="1331" d="M96 1208q-11 11 0 17l205 202q7 7 14 7h17q12 0 12 -13v-843q0 -13 -12 -13h-19q-12 0 -12 13v790l-174 -172q-8 -8 -16 0zM260 16l680 1405q6 13 18 13h23q16 0 8 -17l-680 -1405q-6 -12 -18 -12h-23q-15 0 -8 16zM840 12q0 -12 12 -12h385q12 0 12 12v17q0 12 -12 12 h-346q1 2 37 43q13 15 28 31t17 19q3 3 9 10t15.5 19t19.5 23q11 13 48 61q14 18 43 61q27 40 42 68q5 9 16.5 31.5t17.5 34.5q19 36 29 74q11 39 17 71q7 35 7 75q0 219 -195 219q-100 0 -148 -56q-48 -55 -48 -145q0 -26 4 -41q2 -12 14 -12h19q14 0 10 12q-4 21 -4 41 q0 164 153 164q152 0 152 -182q0 -81 -34 -168q-36 -91 -100 -182q-63 -89 -106 -140q-47 -56 -108 -125q-6 -6 -6 -18v-17z" />
<glyph unicode="&#xbe;" horiz-adv-x="1331" d="M66 586v16q0 12 12 8q51 -18 131 -18q108 0 160 50q51 50 51 161q0 198 -172 198h-55q-13 0 -13 13v14q0 12 13 12h53q69 0 111 47t42 144q0 95 -43 135q-44 41 -137 41q-57 0 -123 -21q-12 -4 -12 9v18q0 7 8 12q51 21 127 21q117 0 170 -51t53 -164q0 -91 -33 -141 q-35 -54 -83 -68q55 -6 96 -64t41 -155q0 -250 -254 -250q-85 0 -135 20q-8 5 -8 13zM362 16l680 1405q6 13 19 13h22q17 0 9 -17l-680 -1405q-6 -12 -19 -12h-22q-16 0 -9 16zM815 227v19q0 9 8 22l340 590q6 10 17 10h20q12 0 12 -12v-600h95q12 0 12 -12v-17 q0 -12 -12 -12h-95v-203q0 -12 -12 -12h-18q-13 0 -13 12v203h-342q-12 0 -12 12zM864 256h305v535z" />
<glyph unicode="&#xbf;" horiz-adv-x="655" d="M98 47q0 -285 273 -285q101 0 192 31q15 5 15 19v12q0 19 -17 14q-95 -31 -190 -31q-224 0 -224 240q0 54 24 107q27 59 57 102q38 55 69 103q33 52 58 131q24 76 24 165v37q0 13 -12 13h-25q-12 0 -12 -13v-37q0 -100 -36 -190t-80 -146t-80 -128t-36 -144zM315 944v113 q0 12 13 12h53q12 0 12 -12v-113q0 -12 -12 -12h-53q-13 0 -13 12z" />
<glyph unicode="&#xc0;" horiz-adv-x="876" d="M55 14l353 1407q2 13 16 13h29q14 0 16 -13l352 -1407q1 -14 -10 -14h-23q-10 0 -14 12l-112 447h-447l-113 -447q-4 -12 -14 -12h-22q-12 0 -11 14zM225 504h426l-211 848h-4zM270 1704q-15 18 9 18h32q15 0 25 -16l108 -162q8 -12 -6 -12h-14q-8 0 -14 8z" />
<glyph unicode="&#xc1;" horiz-adv-x="876" d="M55 14l353 1407q2 13 16 13h29q14 0 16 -13l352 -1407q1 -14 -10 -14h-23q-10 0 -14 12l-112 447h-447l-113 -447q-4 -12 -14 -12h-22q-12 0 -11 14zM225 504h426l-211 848h-4zM432 1544l109 162q10 16 24 16h33q23 0 8 -18l-139 -164q-6 -8 -14 -8h-15q-14 0 -6 12z" />
<glyph unicode="&#xc2;" horiz-adv-x="876" d="M55 14l353 1407q2 13 16 13h29q14 0 16 -13l352 -1407q1 -14 -10 -14h-23q-10 0 -14 12l-112 447h-447l-113 -447q-4 -12 -14 -12h-22q-12 0 -11 14zM225 504h426l-211 848h-4zM264 1544l137 170q11 15 25 15h25q13 0 24 -15l137 -170q7 -12 -8 -12h-14q-7 0 -15 8 l-137 146l-137 -146q-8 -8 -14 -8h-15q-15 0 -8 12z" />
<glyph unicode="&#xc3;" horiz-adv-x="876" d="M55 14l353 1407q2 13 16 13h29q14 0 16 -13l352 -1407q1 -14 -10 -14h-23q-10 0 -14 12l-112 447h-447l-113 -447q-4 -12 -14 -12h-22q-12 0 -11 14zM225 504h426l-211 848h-4zM236 1546q0 51 28 85t72 34t90 -37l49 -37q32 -26 64 -26q25 0 41 16q15 15 20 43l2 16 q2 15 14 15h11q14 0 14 -15q0 -50 -29 -82t-71 -32q-44 0 -90 37l-60 43q-52 31 -80 13q-29 -18 -35 -56l-2 -17q-1 -14 -14 -14h-10q-14 0 -14 14z" />
<glyph unicode="&#xc4;" horiz-adv-x="876" d="M55 14l353 1407q2 13 16 13h29q14 0 16 -13l352 -1407q1 -14 -10 -14h-23q-10 0 -14 12l-112 447h-447l-113 -447q-4 -12 -14 -12h-22q-12 0 -11 14zM225 504h426l-211 848h-4zM293 1544v84q0 12 12 12h29q12 0 12 -12v-84q0 -12 -12 -12h-29q-12 0 -12 12zM530 1544v84 q0 12 13 12h28q13 0 13 -12v-84q0 -12 -13 -12h-28q-13 0 -13 12z" />
<glyph unicode="&#xc5;" horiz-adv-x="876" d="M55 14l346 1383q-116 22 -116 147q0 68 41 109t112 41q72 0 113 -41t41 -109q0 -58 -31 -98q-29 -38 -86 -49l346 -1383q1 -14 -10 -14h-23q-10 0 -14 12l-112 447h-447l-113 -447q-4 -12 -14 -12h-22q-12 0 -11 14zM225 504h426l-211 848h-4zM326 1544q0 -52 29 -81 t83 -29t83 29q30 30 30 81t-30 81t-83 30t-83 -30q-29 -29 -29 -81z" />
<glyph unicode="&#xc6;" horiz-adv-x="1105" d="M35 14l399 1407q5 13 17 13h557q12 0 12 -13v-20q0 -12 -12 -12h-408v-631h395q13 0 13 -13v-20q0 -12 -13 -12h-395v-668h412q12 0 12 -12v-21q0 -12 -12 -12h-447q-12 0 -12 12v441h-346l-125 -441q-4 -12 -14 -12h-23q-11 0 -10 14zM219 498h334v891h-82z" />
<glyph unicode="&#xc7;" horiz-adv-x="757" d="M90 717q0 406 92 570q91 163 320 163q85 0 151 -20q15 -4 15 -19v-14q0 -18 -17 -13q-72 21 -149 21q-204 0 -283 -153q-80 -154 -80 -535q0 -383 81 -536q80 -152 286 -152q89 0 158 20q16 4 16 -12v-14q0 -15 -14 -19q-66 -20 -160 -20q-23 0 -39 2q94 -73 94 -162 q0 -107 -125 -107q-36 0 -55 7q-10 6 -10 16v12q0 12 12 12h47q84 0 84 66q0 84 -100 162q-174 27 -249 193t-75 532z" />
<glyph unicode="&#xc8;" horiz-adv-x="716" d="M127 12v1409q0 13 14 13h477q13 0 13 -13v-20q0 -12 -13 -12h-444v-631h432q12 0 12 -13v-20q0 -12 -12 -12h-432v-668h449q12 0 12 -12v-23q0 -10 -12 -10h-484q-12 0 -12 12zM252 1704q-15 18 8 18h33q14 0 24 -16l109 -162q7 -12 -6 -12h-14q-9 0 -15 8z" />
<glyph unicode="&#xc9;" horiz-adv-x="716" d="M127 12v1409q0 13 14 13h477q13 0 13 -13v-20q0 -12 -13 -12h-444v-631h432q12 0 12 -13v-20q0 -12 -12 -12h-432v-668h449q12 0 12 -12v-23q0 -10 -12 -10h-484q-12 0 -12 12zM352 1544l109 162q10 16 24 16h33q23 0 8 -18l-139 -164q-6 -8 -14 -8h-15q-14 0 -6 12z" />
<glyph unicode="&#xca;" horiz-adv-x="716" d="M127 12v1409q0 13 14 13h477q13 0 13 -13v-20q0 -12 -13 -12h-444v-631h432q12 0 12 -13v-20q0 -12 -12 -12h-432v-668h449q12 0 12 -12v-23q0 -10 -12 -10h-484q-12 0 -12 12zM225 1544l137 170q10 15 25 15h25q14 0 24 -15l137 -170q8 -12 -8 -12h-14q-6 0 -14 8 l-138 146l-137 -146q-8 -8 -14 -8h-15q-15 0 -8 12z" />
<glyph unicode="&#xcb;" horiz-adv-x="716" d="M127 12v1409q0 13 14 13h477q13 0 13 -13v-20q0 -12 -13 -12h-444v-631h432q12 0 12 -13v-20q0 -12 -12 -12h-432v-668h449q12 0 12 -12v-23q0 -10 -12 -10h-484q-12 0 -12 12zM254 1544v84q0 12 12 12h29q12 0 12 -12v-84q0 -12 -12 -12h-29q-12 0 -12 12zM492 1544v84 q0 12 12 12h28q13 0 13 -12v-84q0 -12 -13 -12h-28q-12 0 -12 12z" />
<glyph unicode="&#xcc;" horiz-adv-x="319" d="M-4 1704q-15 18 8 18h33q14 0 24 -16l109 -162q8 -12 -6 -12h-14q-9 0 -15 8zM137 12v1409q0 13 13 13h22q12 0 12 -13v-1409q0 -12 -12 -12h-22q-13 0 -13 12z" />
<glyph unicode="&#xcd;" horiz-adv-x="319" d="M137 12v1409q0 13 13 13h22q12 0 12 -13v-1409q0 -12 -12 -12h-22q-13 0 -13 12zM150 1544l108 162q10 16 25 16h32q24 0 9 -18l-140 -164q-6 -8 -14 -8h-14q-14 0 -6 12z" />
<glyph unicode="&#xce;" horiz-adv-x="319" d="M-14 1544l137 170q11 15 24 15h25q14 0 25 -15l137 -170q8 -12 -8 -12h-15q-6 0 -14 8l-137 146l-137 -146q-8 -8 -15 -8h-14q-16 0 -8 12zM137 12v1409q0 13 13 13h22q12 0 12 -13v-1409q0 -12 -12 -12h-22q-13 0 -13 12z" />
<glyph unicode="&#xcf;" horiz-adv-x="319" d="M14 1544v84q0 12 13 12h28q13 0 13 -12v-84q0 -12 -13 -12h-28q-13 0 -13 12zM137 12v1409q0 13 13 13h22q12 0 12 -13v-1409q0 -12 -12 -12h-22q-13 0 -13 12zM252 1544v84q0 12 12 12h29q12 0 12 -12v-84q0 -12 -12 -12h-29q-12 0 -12 12z" />
<glyph unicode="&#xd0;" horiz-adv-x="892" d="M37 711v14q0 12 12 12h82v684q0 13 14 13h220q111 0 187 -33t135 -113q58 -79 87 -221q29 -143 29 -350t-29 -350t-87 -222t-135 -112q-76 -33 -187 -33h-222q-12 0 -12 12v686h-82q-12 0 -12 13zM178 45h187q134 0 214 55q81 56 128 206q47 152 47 411q0 258 -47 410 q-47 150 -128 206q-82 56 -214 56h-187v-652h191q12 0 12 -12v-14q0 -13 -12 -13h-191v-653z" />
<glyph unicode="&#xd1;" horiz-adv-x="913" d="M127 12v1409q0 13 12 13h21q12 0 18 -13l561 -1308v1308q0 13 13 13h22q12 0 12 -15v-1407q0 -12 -12 -12h-20q-13 0 -19 12l-561 1309v-1309q0 -12 -12 -12h-23q-12 0 -12 12zM254 1546q0 50 29 85q28 34 71 34q44 0 90 -37l50 -37q32 -26 63 -26q25 0 41 16 q15 15 20 43l3 16q1 15 14 15h10q14 0 14 -15q0 -51 -28 -82q-29 -32 -72 -32q-44 0 -90 37l-59 43q-52 31 -80 13q-29 -18 -35 -56l-2 -17q-1 -14 -14 -14h-11q-14 0 -14 14z" />
<glyph unicode="&#xd2;" horiz-adv-x="937" d="M90 717q0 399 90 566t289 167t289 -167t90 -566q0 -400 -90 -566q-90 -167 -287 -167q-198 0 -290 167q-91 166 -91 566zM139 717q0 -378 78 -534t252 -156t252 156t78 534q0 377 -78 533q-79 157 -252 157t-252 -157q-78 -156 -78 -533zM322 1704q-15 18 8 18h32 q15 0 25 -16l109 -162q7 -12 -7 -12h-14q-8 0 -14 8z" />
<glyph unicode="&#xd3;" horiz-adv-x="937" d="M90 717q0 399 90 566t289 167t289 -167t90 -566q0 -400 -90 -566q-90 -167 -287 -167q-198 0 -290 167q-91 166 -91 566zM139 717q0 -378 78 -534t252 -156t252 156t78 534q0 377 -78 533q-79 157 -252 157t-252 -157q-78 -156 -78 -533zM442 1544l109 162q10 16 24 16 h33q23 0 8 -18l-139 -164q-6 -8 -14 -8h-14q-15 0 -7 12z" />
<glyph unicode="&#xd4;" horiz-adv-x="937" d="M90 717q0 399 90 566t289 167t289 -167t90 -566q0 -400 -90 -566q-90 -167 -287 -167q-198 0 -290 167q-91 166 -91 566zM139 717q0 -378 78 -534t252 -156t252 156t78 534q0 377 -78 533q-79 157 -252 157t-252 -157q-78 -156 -78 -533zM295 1544l137 170q10 15 25 15 h24q15 0 25 -15l137 -170q8 -12 -8 -12h-14q-7 0 -15 8l-137 146l-137 -146q-8 -8 -15 -8h-14q-15 0 -8 12z" />
<glyph unicode="&#xd5;" horiz-adv-x="937" d="M90 717q0 399 90 566t289 167t289 -167t90 -566q0 -400 -90 -566q-90 -167 -287 -167q-198 0 -290 167q-91 166 -91 566zM139 717q0 -378 78 -534t252 -156t252 156t78 534q0 377 -78 533q-79 157 -252 157t-252 -157q-78 -156 -78 -533zM266 1546q0 50 29 85 q28 34 72 34t90 -37l49 -37q32 -26 63 -26q25 0 41 16q17 17 21 43l2 16q1 15 14 15h10q15 0 15 -15q0 -50 -29 -82t-72 -32q-44 0 -90 37l-59 43q-52 31 -80 13q-29 -18 -35 -56l-2 -17q-1 -14 -14 -14h-10q-15 0 -15 14z" />
<glyph unicode="&#xd6;" horiz-adv-x="937" d="M90 717q0 399 90 566t289 167t289 -167t90 -566q0 -400 -90 -566q-90 -167 -287 -167q-198 0 -290 167q-91 166 -91 566zM139 717q0 -378 78 -534t252 -156t252 156t78 534q0 377 -78 533q-79 157 -252 157t-252 -157q-78 -156 -78 -533zM324 1544v84q0 12 12 12h29 q12 0 12 -12v-84q0 -12 -12 -12h-29q-12 0 -12 12zM561 1544v84q0 12 12 12h29q12 0 12 -12v-84q0 -12 -12 -12h-29q-12 0 -12 12z" />
<glyph unicode="&#xd7;" d="M111 397q-8 8 0 19l319 319l-319 320q-7 11 0 18l14 14q11 11 18 0l320 -319l319 319q8 11 19 0l14 -14q7 -7 0 -18l-319 -320l319 -319q8 -11 0 -19l-14 -14q-11 -11 -19 0l-319 319l-320 -319q-7 -11 -18 0z" />
<glyph unicode="&#xd8;" horiz-adv-x="950" d="M61 43l99 172q-64 172 -64 502q0 399 90 566t289 167q201 0 291 -178l82 141q6 12 18 6l19 -12q11 -6 4 -16l-101 -174q66 -179 66 -500q0 -400 -90 -566q-90 -167 -289 -167q-202 0 -291 176l-82 -142q-6 -10 -18 -4l-18 11q-11 6 -5 18zM145 717q0 -289 48 -447 l544 951q-78 186 -262 186q-173 0 -252 -157q-78 -156 -78 -533zM213 211q76 -184 262 -184q174 0 252 156t78 534q0 287 -49 444z" />
<glyph unicode="&#xd9;" horiz-adv-x="880" d="M121 406v1015q0 13 12 13h23q12 0 12 -13v-1011q0 -213 59 -297q60 -86 213 -86t213 86q60 85 60 297v1011q0 13 12 13h23q12 0 12 -13v-1015q0 -229 -73 -326q-72 -96 -247 -96q-174 0 -246 96q-73 97 -73 326zM293 1704q-15 18 8 18h33q14 0 24 -16l109 -162 q7 -12 -6 -12h-15q-8 0 -14 8z" />
<glyph unicode="&#xda;" horiz-adv-x="880" d="M121 406v1015q0 13 12 13h23q12 0 12 -13v-1011q0 -213 59 -297q60 -86 213 -86t213 86q60 85 60 297v1011q0 13 12 13h23q12 0 12 -13v-1015q0 -229 -73 -326q-72 -96 -247 -96q-174 0 -246 96q-73 97 -73 326zM414 1544l108 162q10 16 25 16h33q23 0 8 -18l-139 -164 q-6 -8 -15 -8h-14q-13 0 -6 12z" />
<glyph unicode="&#xdb;" horiz-adv-x="880" d="M121 406v1015q0 13 12 13h23q12 0 12 -13v-1011q0 -213 59 -297q60 -86 213 -86t213 86q60 85 60 297v1011q0 13 12 13h23q12 0 12 -13v-1015q0 -229 -73 -326q-72 -96 -247 -96q-174 0 -246 96q-73 97 -73 326zM266 1544l137 170q11 15 25 15h25q13 0 24 -15l137 -170 q8 -12 -8 -12h-14q-6 0 -14 8l-138 146l-137 -146q-8 -8 -14 -8h-15q-16 0 -8 12z" />
<glyph unicode="&#xdc;" horiz-adv-x="880" d="M121 406v1015q0 13 12 13h23q12 0 12 -13v-1011q0 -213 59 -297q60 -86 213 -86t213 86q60 85 60 297v1011q0 13 12 13h23q12 0 12 -13v-1015q0 -229 -73 -326q-72 -96 -247 -96q-174 0 -246 96q-73 97 -73 326zM295 1544v84q0 12 12 12h29q12 0 12 -12v-84 q0 -12 -12 -12h-29q-12 0 -12 12zM532 1544v84q0 12 13 12h28q13 0 13 -12v-84q0 -12 -13 -12h-28q-13 0 -13 12z" />
<glyph unicode="&#xdd;" horiz-adv-x="829" d="M59 1419q-4 15 11 15h22q9 0 14 -11l222 -565l84 -231h6l84 231l221 565q5 11 14 11h23q14 0 10 -15l-332 -850v-557q0 -12 -12 -12h-23q-12 0 -12 12v557zM387 1544l109 162q10 16 24 16h33q23 0 8 -18l-139 -164q-6 -8 -14 -8h-15q-13 0 -6 12z" />
<glyph unicode="&#xde;" horiz-adv-x="770" d="M127 12v1409q0 13 12 13h23q12 0 12 -13v-159h137q205 0 291 -101t86 -342q0 -240 -86 -343q-85 -101 -291 -101h-137v-363q0 -12 -12 -12h-23q-12 0 -12 12zM174 420h137q180 0 254 89t74 310q0 219 -73 309q-72 89 -255 89h-137v-797z" />
<glyph unicode="&#xdf;" horiz-adv-x="798" d="M115 12v1110q0 166 75 242q77 78 199 78q132 0 195 -66t63 -162q0 -71 -32 -130t-69 -89q-41 -33 -70 -70q-32 -41 -32 -83q0 -41 30 -83t71 -83q44 -44 83 -90q41 -48 71 -125t30 -164q0 -303 -258 -303q-53 0 -92 6q-14 1 -14 20v13q0 10 16 10q74 -6 88 -6 q95 0 155 54t60 204q0 84 -30 156q-30 71 -71 120q-42 49 -83 92q-42 44 -71 87q-30 45 -30 90q0 52 32 99t71 77q38 29 70 83q32 53 32 115q0 80 -52 132q-53 53 -159 53q-101 0 -168 -67q-65 -65 -65 -218v-1102q0 -12 -13 -12h-20q-12 0 -12 12z" />
<glyph unicode="&#xe0;" horiz-adv-x="720" d="M66 295q0 89 25 151t67 101q38 35 110 57q66 20 135 28q66 8 162 9v162q0 126 -45 183q-44 56 -153 56q-123 0 -228 -43q-14 -4 -14 11v12q0 16 14 20q104 43 232 43q125 0 182 -67q57 -68 57 -209v-797q0 -12 -12 -12h-20q-13 0 -13 12v172q-23 -80 -89 -138 q-63 -56 -171 -56q-119 0 -179 81t-60 224zM111 293q0 -260 198 -260q118 0 187 95t69 237v235q-75 -1 -148 -7q-53 -4 -122 -23q-65 -18 -101 -49t-60 -89q-23 -55 -23 -139zM211 1374q-16 19 8 19h33q13 0 24 -17l113 -172q8 -12 -6 -12h-14q-9 0 -15 8z" />
<glyph unicode="&#xe1;" horiz-adv-x="720" d="M66 295q0 89 25 151t67 101q38 35 110 57q66 20 135 28q66 8 162 9v162q0 126 -45 183q-44 56 -153 56q-123 0 -228 -43q-14 -4 -14 11v12q0 16 14 20q104 43 232 43q125 0 182 -67q57 -68 57 -209v-797q0 -12 -12 -12h-20q-13 0 -13 12v172q-23 -80 -89 -138 q-63 -56 -171 -56q-119 0 -179 81t-60 224zM111 293q0 -260 198 -260q118 0 187 95t69 237v235q-75 -1 -148 -7q-53 -4 -122 -23q-65 -18 -101 -49t-60 -89q-23 -55 -23 -139zM332 1204l112 172q11 17 25 17h33q24 0 8 -19l-143 -174q-6 -8 -15 -8h-14q-14 0 -6 12z" />
<glyph unicode="&#xe2;" horiz-adv-x="720" d="M66 295q0 89 25 151t67 101q38 35 110 57q66 20 135 28q66 8 162 9v162q0 126 -45 183q-44 56 -153 56q-123 0 -228 -43q-14 -4 -14 11v12q0 16 14 20q104 43 232 43q125 0 182 -67q57 -68 57 -209v-797q0 -12 -12 -12h-20q-13 0 -13 12v172q-23 -80 -89 -138 q-63 -56 -171 -56q-119 0 -179 81t-60 224zM111 293q0 -260 198 -260q118 0 187 95t69 237v235q-75 -1 -148 -7q-53 -4 -122 -23q-65 -18 -101 -49t-60 -89q-23 -55 -23 -139zM190 1204l134 183q10 14 24 14h25q14 0 24 -14l133 -183q8 -12 -8 -12h-14q-6 0 -14 8l-134 158 l-133 -158q-8 -8 -14 -8h-14q-17 0 -9 12z" />
<glyph unicode="&#xe3;" horiz-adv-x="720" d="M66 295q0 89 25 151t67 101q38 35 110 57q66 20 135 28q66 8 162 9v162q0 126 -45 183q-44 56 -153 56q-123 0 -228 -43q-14 -4 -14 11v12q0 16 14 20q104 43 232 43q125 0 182 -67q57 -68 57 -209v-797q0 -12 -12 -12h-20q-13 0 -13 12v172q-23 -80 -89 -138 q-63 -56 -171 -56q-119 0 -179 81t-60 224zM111 293q0 -260 198 -260q118 0 187 95t69 237v235q-75 -1 -148 -7q-53 -4 -122 -23q-65 -18 -101 -49t-60 -89q-23 -55 -23 -139zM170 1206q0 50 27 85q27 34 69 34q44 0 90 -37l50 -37q33 -26 63 -26q25 0 40 19q16 20 17 40 l2 16q2 15 15 15h10q14 0 14 -15q0 -52 -26 -82q-27 -32 -70 -32q-46 0 -90 37l-53 39q-38 24 -60 24q-27 0 -41 -20t-16 -43l-2 -17q-1 -14 -14 -14h-11q-14 0 -14 14z" />
<glyph unicode="&#xe4;" horiz-adv-x="720" d="M66 295q0 89 25 151t67 101q38 35 110 57q66 20 135 28q66 8 162 9v162q0 126 -45 183q-44 56 -153 56q-123 0 -228 -43q-14 -4 -14 11v12q0 16 14 20q104 43 232 43q125 0 182 -67q57 -68 57 -209v-797q0 -12 -12 -12h-20q-13 0 -13 12v172q-23 -80 -89 -138 q-63 -56 -171 -56q-119 0 -179 81t-60 224zM111 293q0 -260 198 -260q118 0 187 95t69 237v235q-75 -1 -148 -7q-53 -4 -122 -23q-65 -18 -101 -49t-60 -89q-23 -55 -23 -139zM223 1204v84q0 12 13 12h28q12 0 12 -12v-84q0 -12 -12 -12h-28q-13 0 -13 12zM461 1204v84 q0 12 12 12h29q12 0 12 -12v-84q0 -12 -12 -12h-29q-12 0 -12 12z" />
<glyph unicode="&#xe5;" horiz-adv-x="720" d="M66 295q0 89 25 151t67 101q38 35 110 57q66 20 135 28q66 8 162 9v162q0 126 -45 183q-44 56 -153 56q-123 0 -228 -43q-14 -4 -14 11v12q0 16 14 20q104 43 232 43q125 0 182 -67q57 -68 57 -209v-797q0 -12 -12 -12h-20q-13 0 -13 12v172q-23 -80 -89 -138 q-63 -56 -171 -56q-119 0 -179 81t-60 224zM111 293q0 -260 198 -260q118 0 187 95t69 237v235q-75 -1 -148 -7q-53 -4 -122 -23q-65 -18 -101 -49t-60 -89q-23 -55 -23 -139zM217 1319q0 67 40 107t114 40q71 0 110 -40t39 -107q0 -68 -40 -108t-111 -40q-72 0 -112 40 t-40 108zM258 1319q0 -109 111 -109q110 0 110 109q0 52 -28 80t-80 28q-113 0 -113 -108z" />
<glyph unicode="&#xe6;" horiz-adv-x="1142" d="M66 276q0 83 23 138q24 57 61 91t102 53q67 20 131 27q66 7 162 9l2 172q1 150 -45 213q-47 63 -150 63q-104 0 -209 -43q-14 -4 -14 11v12q0 16 14 20q104 43 213 43q196 0 226 -194q57 194 239 194q138 0 195 -121q57 -122 57 -352v-49q0 -12 -12 -12h-471 q0 -283 62 -403q63 -121 214 -121q89 0 164 28q14 4 14 -10v-12q0 -17 -14 -21q-75 -28 -166 -28q-122 0 -191 66q-70 67 -100 204q-17 -114 -90 -189t-178 -75q-113 0 -176 79t-63 207zM111 276q0 -108 51 -176q51 -67 147 -67q110 0 173 94t63 238v186q-76 -1 -149 -7 q-46 -4 -117 -21q-62 -15 -94 -44t-53 -79t-21 -124zM590 594h436v18q0 212 -45 321t-160 109q-123 0 -176 -108q-54 -110 -55 -340z" />
<glyph unicode="&#xe7;" horiz-adv-x="591" d="M74 535q0 287 67 418q67 132 240 132q77 0 143 -24q15 -5 15 -21v-12q0 -18 -17 -10q-51 22 -139 22q-149 0 -206 -119q-56 -118 -56 -386q0 -269 56 -387q57 -119 208 -119q90 0 141 22q17 8 17 -10v-12q0 -17 -15 -21q-66 -24 -145 -24q-21 0 -35 2q88 -72 88 -158 q0 -102 -117 -102q-32 0 -47 6q-10 6 -10 16v12q0 13 12 13h39q76 0 76 61q0 84 -100 162q-119 33 -167 164q-48 130 -48 375z" />
<glyph unicode="&#xe8;" horiz-adv-x="700" d="M74 537q0 280 68 413q69 135 225 135q147 0 205 -129q59 -130 59 -376v-58q0 -12 -13 -12h-497q5 -259 67 -371q63 -112 224 -112q103 0 178 28q14 4 14 -10v-12q0 -17 -14 -21q-75 -28 -180 -28q-187 0 -262 130q-74 129 -74 423zM121 553h463v27q0 228 -47 346 q-46 116 -170 116q-131 0 -188 -119q-56 -119 -58 -370zM201 1374q-16 19 8 19h33q13 0 24 -17l113 -172q8 -12 -6 -12h-15q-8 0 -14 8z" />
<glyph unicode="&#xe9;" horiz-adv-x="700" d="M74 537q0 280 68 413q69 135 225 135q147 0 205 -129q59 -130 59 -376v-58q0 -12 -13 -12h-497q5 -259 67 -371q63 -112 224 -112q103 0 178 28q14 4 14 -10v-12q0 -17 -14 -21q-75 -28 -180 -28q-187 0 -262 130q-74 129 -74 423zM121 553h463v27q0 228 -47 346 q-46 116 -170 116q-131 0 -188 -119q-56 -119 -58 -370zM322 1204l112 172q11 17 25 17h33q24 0 8 -19l-144 -174q-6 -8 -14 -8h-14q-14 0 -6 12z" />
<glyph unicode="&#xea;" horiz-adv-x="700" d="M74 537q0 280 68 413q69 135 225 135q147 0 205 -129q59 -130 59 -376v-58q0 -12 -13 -12h-497q5 -259 67 -371q63 -112 224 -112q103 0 178 28q14 4 14 -10v-12q0 -17 -14 -21q-75 -28 -180 -28q-187 0 -262 130q-74 129 -74 423zM121 553h463v27q0 228 -47 346 q-46 116 -170 116q-131 0 -188 -119q-56 -119 -58 -370zM188 1204l134 182q10 15 24 15h25q13 0 24 -15l133 -182q8 -12 -8 -12h-14q-6 0 -14 8l-134 158l-133 -158q-8 -8 -14 -8h-14q-17 0 -9 12z" />
<glyph unicode="&#xeb;" horiz-adv-x="700" d="M74 537q0 280 68 413q69 135 225 135q147 0 205 -129q59 -130 59 -376v-58q0 -12 -13 -12h-497q5 -259 67 -371q63 -112 224 -112q103 0 178 28q14 4 14 -10v-12q0 -17 -14 -21q-75 -28 -180 -28q-187 0 -262 130q-74 129 -74 423zM121 553h463v27q0 228 -47 346 q-46 116 -170 116q-131 0 -188 -119q-56 -119 -58 -370zM213 1204v84q0 12 12 12h29q12 0 12 -12v-84q0 -12 -12 -12h-29q-12 0 -12 12zM451 1204v84q0 12 12 12h29q12 0 12 -12v-84q0 -12 -12 -12h-29q-12 0 -12 12z" />
<glyph unicode="&#xec;" horiz-adv-x="299" d="M-20 1374q-16 19 8 19h32q14 0 25 -17l113 -172q7 -12 -6 -12h-15q-8 0 -14 8zM127 12v1045q0 12 12 12h21q12 0 12 -12v-1045q0 -12 -12 -12h-21q-12 0 -12 12z" />
<glyph unicode="&#xed;" horiz-adv-x="299" d="M127 12v1045q0 12 12 12h21q12 0 12 -12v-1045q0 -12 -12 -12h-21q-12 0 -12 12zM141 1204l113 172q11 17 25 17h32q24 0 8 -19l-143 -174q-6 -8 -14 -8h-15q-13 0 -6 12z" />
<glyph unicode="&#xee;" horiz-adv-x="299" d="M-20 1204l133 182q11 15 24 15h25q14 0 24 -15l133 -182q8 -12 -8 -12h-14q-6 0 -14 8l-133 158l-134 -158q-8 -8 -14 -8h-14q-16 0 -8 12zM127 12v1045q0 12 12 12h21q12 0 12 -12v-1045q0 -12 -12 -12h-21q-12 0 -12 12z" />
<glyph unicode="&#xef;" horiz-adv-x="299" d="M4 1204v84q0 12 12 12h29q12 0 12 -12v-84q0 -12 -12 -12h-29q-12 0 -12 12zM127 12v1045q0 12 12 12h21q12 0 12 -12v-1045q0 -12 -12 -12h-21q-12 0 -12 12zM242 1204v84q0 12 12 12h29q12 0 12 -12v-84q0 -12 -12 -12h-29q-12 0 -12 12z" />
<glyph unicode="&#xf0;" horiz-adv-x="757" d="M74 535q0 280 69 415t234 135q132 0 205 -100q-37 120 -107 244h-164q-12 0 -12 12v14q0 13 12 13h140q-60 83 -125 153q-13 13 6 13h24q10 0 19 -9q80 -86 125 -157h131q12 0 12 -13v-14q0 -12 -12 -12h-107q156 -269 156 -694q0 -279 -70 -416q-69 -135 -233 -135 q-165 0 -234 135t-69 416zM121 535q0 -262 59 -384q60 -124 197 -124q136 0 196 124q60 125 60 384t-60 384q-59 123 -196 123q-138 0 -197 -123q-59 -122 -59 -384z" />
<glyph unicode="&#xf1;" horiz-adv-x="774" d="M111 12v1045q0 12 12 12h20q13 0 13 -12v-172q23 73 94 138q68 62 174 62q122 0 181 -84q59 -85 59 -229v-760q0 -12 -13 -12h-20q-13 0 -13 12v760q0 270 -194 270q-116 0 -193 -95q-75 -93 -75 -236v-699q0 -12 -13 -12h-20q-12 0 -12 12zM188 1206q0 50 27 85 q27 34 70 34q44 0 90 -37l49 -37q33 -26 63 -26q25 0 40 19q17 22 18 40l2 16q1 15 14 15h10q15 0 15 -15q0 -50 -27 -82t-70 -32q-44 0 -90 37l-53 39q-37 24 -59 24q-27 0 -41 -20q-16 -22 -17 -43l-2 -17q-1 -14 -14 -14h-10q-15 0 -15 14z" />
<glyph unicode="&#xf2;" horiz-adv-x="753" d="M74 535q0 -281 69 -416t234 -135q164 0 233 135q70 137 70 416q0 278 -70 415q-69 135 -233 135q-165 0 -234 -135t-69 -415zM121 535q0 262 59 384q59 123 197 123q137 0 196 -123q60 -125 60 -384t-60 -384q-60 -124 -196 -124q-137 0 -197 124q-59 122 -59 384z M227 1374q-16 19 9 19h32q14 0 25 -17l113 -172q7 -12 -7 -12h-14q-8 0 -14 8z" />
<glyph unicode="&#xf3;" horiz-adv-x="753" d="M74 535q0 -281 69 -416t234 -135q164 0 233 135q70 137 70 416q0 278 -70 415q-69 135 -233 135q-165 0 -234 -135t-69 -415zM121 535q0 262 59 384q59 123 197 123q137 0 196 -123q60 -125 60 -384t-60 -384q-60 -124 -196 -124q-137 0 -197 124q-59 122 -59 384z M348 1204l113 172q11 17 24 17h33q24 0 8 -19l-143 -174q-6 -8 -14 -8h-15q-14 0 -6 12z" />
<glyph unicode="&#xf4;" horiz-adv-x="753" d="M74 535q0 -281 69 -416t234 -135q164 0 233 135q70 137 70 416q0 278 -70 415q-69 135 -233 135q-165 0 -234 -135t-69 -415zM121 535q0 262 59 384q59 123 197 123q137 0 196 -123q60 -125 60 -384t-60 -384q-60 -124 -196 -124q-137 0 -197 124q-59 122 -59 384z M207 1204l133 182q11 15 25 15h24q15 0 25 -15l133 -182q7 -12 -8 -12h-15q-6 0 -14 8l-133 158l-133 -158q-8 -8 -15 -8h-14q-15 0 -8 12z" />
<glyph unicode="&#xf5;" horiz-adv-x="753" d="M74 535q0 280 69 415t234 135q164 0 233 -135q70 -137 70 -415q0 -279 -70 -416q-69 -135 -233 -135q-165 0 -234 135t-69 416zM121 535q0 -262 59 -384q60 -124 197 -124q136 0 196 124q60 125 60 384t-60 384q-59 123 -196 123q-138 0 -197 -123q-59 -122 -59 -384z M178 1206q0 50 27 85q27 34 69 34q45 0 91 -37l49 -37q33 -26 63 -26q25 0 40 19q17 22 18 40l2 16q1 15 14 15h10q14 0 14 -15q0 -52 -26 -82q-27 -32 -70 -32q-46 0 -90 37l-53 39q-38 24 -60 24q-26 0 -40 -20q-16 -22 -17 -43l-2 -17q-1 -14 -14 -14h-10q-15 0 -15 14z " />
<glyph unicode="&#xf6;" horiz-adv-x="753" d="M74 535q0 -281 69 -416t234 -135q164 0 233 135q70 137 70 416q0 278 -70 415q-69 135 -233 135q-165 0 -234 -135t-69 -415zM121 535q0 262 59 384q59 123 197 123q137 0 196 -123q60 -125 60 -384t-60 -384q-60 -124 -196 -124q-137 0 -197 124q-59 122 -59 384z M231 1204v84q0 12 13 12h28q13 0 13 -12v-84q0 -12 -13 -12h-28q-13 0 -13 12zM469 1204v84q0 12 12 12h29q12 0 12 -12v-84q0 -12 -12 -12h-29q-12 0 -12 12z" />
<glyph unicode="&#xf7;" d="M102 725v20q0 13 13 13h696q12 0 12 -13v-20q0 -12 -12 -12h-696q-13 0 -13 12zM424 381v113q0 12 12 12h53q13 0 13 -12v-113q0 -12 -13 -12h-53q-12 0 -12 12zM424 977v113q0 12 12 12h53q13 0 13 -12v-113q0 -12 -13 -12h-53q-12 0 -12 12z" />
<glyph unicode="&#xf8;" horiz-adv-x="761" d="M70 29l65 114q-57 129 -57 392q0 280 69 415t234 135q148 0 221 -116l53 94q6 10 17 4l14 -8q10 -6 4 -17l-65 -114q59 -131 59 -393q0 -279 -70 -416q-69 -135 -233 -135q-150 0 -223 116l-52 -92q-6 -12 -18 -6l-12 10q-13 8 -6 17zM125 535q0 -215 41 -338l409 725 q-61 120 -194 120q-138 0 -197 -123q-59 -122 -59 -384zM186 147q61 -120 195 -120q137 0 197 124q59 122 59 384q0 216 -43 339z" />
<glyph unicode="&#xf9;" horiz-adv-x="765" d="M111 313v744q0 12 12 12h20q13 0 13 -12v-744q0 -286 206 -286q116 0 182 97t66 241v692q0 12 13 12h20q12 0 12 -12v-1045q0 -12 -12 -12h-20q-13 0 -13 12v172q-18 -76 -82 -139q-62 -61 -168 -61q-124 0 -187 87q-62 86 -62 242zM233 1374q-16 19 9 19h32q14 0 25 -17 l113 -172q8 -12 -6 -12h-15q-8 0 -14 8z" />
<glyph unicode="&#xfa;" horiz-adv-x="765" d="M111 313v744q0 12 12 12h20q13 0 13 -12v-744q0 -286 206 -286q116 0 182 97t66 241v692q0 12 13 12h20q12 0 12 -12v-1045q0 -12 -12 -12h-20q-13 0 -13 12v172q-18 -76 -82 -139q-62 -61 -168 -61q-124 0 -187 87q-62 86 -62 242zM354 1204l113 172q11 17 25 17h32 q24 0 8 -19l-143 -174q-6 -8 -14 -8h-15q-14 0 -6 12z" />
<glyph unicode="&#xfb;" horiz-adv-x="765" d="M111 313v744q0 12 12 12h20q13 0 13 -12v-744q0 -286 206 -286q116 0 182 97t66 241v692q0 12 13 12h20q12 0 12 -12v-1045q0 -12 -12 -12h-20q-13 0 -13 12v172q-18 -76 -82 -139q-62 -61 -168 -61q-124 0 -187 87q-62 86 -62 242zM213 1204l133 182q10 15 25 15h24 q15 0 25 -15l133 -182q8 -12 -8 -12h-15q-6 0 -14 8l-133 158l-133 -158q-8 -8 -14 -8h-15q-16 0 -8 12z" />
<glyph unicode="&#xfc;" horiz-adv-x="765" d="M111 313v744q0 12 12 12h20q13 0 13 -12v-744q0 -286 206 -286q116 0 182 97t66 241v692q0 12 13 12h20q12 0 12 -12v-1045q0 -12 -12 -12h-20q-13 0 -13 12v172q-18 -76 -82 -139q-62 -61 -168 -61q-124 0 -187 87q-62 86 -62 242zM238 1204v84q0 12 12 12h29 q12 0 12 -12v-84q0 -12 -12 -12h-29q-12 0 -12 12zM475 1204v84q0 12 12 12h29q12 0 12 -12v-84q0 -12 -12 -12h-29q-12 0 -12 12z" />
<glyph unicode="&#xfd;" horiz-adv-x="679" d="M55 1055q-1 14 11 14h22q14 0 16 -12l191 -750l49 -217h4l49 217l183 750q2 12 16 12h22q12 0 11 -14l-252 -1037q-33 -137 -76 -196q-43 -60 -137 -60q-42 0 -86 13q-15 5 -15 20v12q0 16 17 11q50 -13 86 -13q86 0 125 87t22 151zM311 1204l113 172q11 17 25 17h32 q24 0 8 -19l-143 -174q-6 -8 -14 -8h-15q-13 0 -6 12z" />
<glyph unicode="&#xfe;" horiz-adv-x="778" d="M115 -213v1634q0 13 12 13h20q13 0 13 -13v-561q24 102 89 164q64 61 167 61q154 0 221 -139q68 -141 68 -411q0 -271 -68 -412q-67 -139 -221 -139q-103 0 -167 61q-65 62 -89 164v-422q0 -12 -13 -12h-20q-12 0 -12 12zM158 535q0 -508 258 -508q241 0 241 508 q0 507 -241 507q-258 0 -258 -507z" />
<glyph unicode="&#xff;" horiz-adv-x="679" d="M55 1055q-1 14 11 14h22q14 0 16 -12l191 -750l49 -217h4l49 217l183 750q2 12 16 12h22q12 0 11 -14l-252 -1037q-33 -137 -76 -196q-43 -60 -137 -60q-42 0 -86 13q-15 5 -15 20v12q0 16 17 11q50 -13 86 -13q86 0 125 87t22 151zM195 1204v84q0 12 12 12h29 q12 0 12 -12v-84q0 -12 -12 -12h-29q-12 0 -12 12zM432 1204v84q0 12 12 12h29q12 0 12 -12v-84q0 -12 -12 -12h-29q-12 0 -12 12z" />
<glyph unicode="&#x152;" horiz-adv-x="1269" d="M90 717q0 204 32 349q31 140 95 221q62 78 143 113q78 34 191 34h620q13 0 13 -13v-20q0 -12 -13 -12h-436v-631h424q12 0 12 -13v-20q0 -12 -12 -12h-424v-668h441q12 0 12 -12v-21q0 -12 -12 -12h-627q-90 0 -154 20q-68 21 -127 70q-60 49 -97 130q-38 82 -59 206 q-22 130 -22 291zM139 717q0 -254 54 -411q52 -152 139 -208q85 -55 219 -55h137v1346h-137q-133 0 -219 -56q-87 -56 -139 -207q-54 -156 -54 -409z" />
<glyph unicode="&#x153;" horiz-adv-x="1228" d="M74 535q0 282 68 415q69 135 225 135q219 0 272 -276q53 276 266 276q140 0 197 -129t57 -376v-58q0 -12 -12 -12h-483q5 -257 67 -370t219 -113q93 0 168 28q15 5 15 -10v-12q0 -17 -15 -21q-75 -28 -170 -28q-134 0 -207 66t-102 210q-27 -140 -92 -208t-180 -68 q-156 0 -225 135q-68 133 -68 416zM121 535q0 -259 57 -384q57 -124 189 -124q133 0 191 124q58 123 58 384t-58 384t-191 123t-189 -123q-57 -125 -57 -384zM664 553h448v27q0 226 -45 345q-44 117 -162 117q-127 0 -183 -120t-58 -369z" />
<glyph unicode="&#x178;" horiz-adv-x="829" d="M59 1419q-4 15 11 15h22q9 0 14 -11l222 -565l84 -231h6l84 231l221 565q5 11 14 11h23q14 0 10 -15l-332 -850v-557q0 -12 -12 -12h-23q-12 0 -12 12v557zM268 1544v84q0 12 13 12h28q13 0 13 -12v-84q0 -12 -13 -12h-28q-13 0 -13 12zM506 1544v84q0 12 12 12h29 q12 0 12 -12v-84q0 -12 -12 -12h-29q-12 0 -12 12z" />
<glyph unicode="&#x2c6;" horiz-adv-x="491" d="M76 1204l133 182q10 15 24 15h25q14 0 25 -15l133 -182q7 -12 -8 -12h-15q-6 0 -14 8l-133 158l-133 -158q-8 -8 -15 -8h-14q-16 0 -8 12z" />
<glyph unicode="&#x2dc;" horiz-adv-x="491" d="M47 1206q0 50 27 85q27 34 69 34q44 0 90 -37l50 -37q33 -26 63 -26q25 0 40 19q16 20 17 40l3 16q2 15 14 15h10q14 0 14 -15q0 -52 -26 -82q-27 -32 -70 -32q-46 0 -90 37l-53 39q-37 24 -60 24q-27 0 -41 -20t-16 -43l-2 -17q-1 -14 -14 -14h-11q-14 0 -14 14z" />
<glyph unicode="&#x2000;" horiz-adv-x="948" />
<glyph unicode="&#x2001;" horiz-adv-x="1896" />
<glyph unicode="&#x2002;" horiz-adv-x="948" />
<glyph unicode="&#x2003;" horiz-adv-x="1896" />
<glyph unicode="&#x2004;" horiz-adv-x="632" />
<glyph unicode="&#x2005;" horiz-adv-x="474" />
<glyph unicode="&#x2006;" horiz-adv-x="316" />
<glyph unicode="&#x2007;" horiz-adv-x="316" />
<glyph unicode="&#x2008;" horiz-adv-x="237" />
<glyph unicode="&#x2009;" horiz-adv-x="379" />
<glyph unicode="&#x200a;" horiz-adv-x="105" />
<glyph unicode="&#x2010;" horiz-adv-x="544" d="M82 541v18q0 12 12 12h357q12 0 12 -12v-18q0 -13 -12 -13h-357q-12 0 -12 13z" />
<glyph unicode="&#x2011;" horiz-adv-x="544" d="M82 541v18q0 12 12 12h357q12 0 12 -12v-18q0 -13 -12 -13h-357q-12 0 -12 13z" />
<glyph unicode="&#x2012;" horiz-adv-x="544" d="M82 541v18q0 12 12 12h357q12 0 12 -12v-18q0 -13 -12 -13h-357q-12 0 -12 13z" />
<glyph unicode="&#x2013;" horiz-adv-x="720" d="M78 541v18q0 12 12 12h541q12 0 12 -12v-18q0 -13 -12 -13h-541q-12 0 -12 13z" />
<glyph unicode="&#x2014;" horiz-adv-x="1048" d="M78 541v18q0 12 12 12h868q13 0 13 -12v-18q0 -13 -13 -13h-868q-12 0 -12 13z" />
<glyph unicode="&#x2018;" horiz-adv-x="294" d="M111 1124v111q0 6 2 16l39 170q5 13 14 13h8q14 0 10 -15l-32 -170h24q12 0 12 -12v-113q0 -12 -12 -12h-53q-12 0 -12 12z" />
<glyph unicode="&#x2019;" horiz-adv-x="294" d="M106 1309v112q0 13 13 13h53q12 0 12 -13v-110q0 -7 -2 -17l-39 -170q-5 -12 -14 -12h-8q-14 0 -10 14l32 170h-24q-13 0 -13 13z" />
<glyph unicode="&#x201a;" horiz-adv-x="294" d="M106 12v113q0 12 13 12h53q12 0 12 -12v-111q0 -6 -2 -16l-39 -170q-5 -12 -14 -12h-8q-14 0 -10 14l32 170h-24q-13 0 -13 12z" />
<glyph unicode="&#x201c;" horiz-adv-x="507" d="M111 1124v111q0 6 2 16l39 170q5 13 14 13h8q14 0 10 -15l-32 -170h24q12 0 12 -12v-113q0 -12 -12 -12h-53q-12 0 -12 12zM324 1124v111q0 6 2 16l39 170q5 13 14 13h8q15 0 10 -15l-32 -170h24q12 0 12 -12v-113q0 -12 -12 -12h-53q-12 0 -12 12z" />
<glyph unicode="&#x201d;" horiz-adv-x="507" d="M106 1309v112q0 13 13 13h53q12 0 12 -13v-110q0 -7 -2 -17l-39 -170q-5 -12 -14 -12h-8q-14 0 -10 14l32 170h-24q-13 0 -13 13zM319 1309v112q0 13 13 13h53q12 0 12 -13v-110q0 -7 -2 -17l-39 -170q-4 -12 -14 -12h-8q-14 0 -10 14l32 170h-24q-13 0 -13 13z" />
<glyph unicode="&#x201e;" horiz-adv-x="507" d="M106 12v113q0 12 13 12h53q12 0 12 -12v-111q0 -6 -2 -16l-39 -170q-5 -12 -14 -12h-8q-14 0 -10 14l32 170h-24q-13 0 -13 12zM319 12v113q0 12 13 12h53q12 0 12 -12v-111q0 -6 -2 -16l-39 -170q-4 -12 -14 -12h-8q-14 0 -10 14l32 170h-24q-13 0 -13 12z" />
<glyph unicode="&#x2022;" horiz-adv-x="602" d="M94 539q0 92 59 149t148 57q91 0 149 -57t58 -149q0 -93 -58 -150t-149 -57q-89 0 -148 57t-59 150z" />
<glyph unicode="&#x2026;" horiz-adv-x="897" d="M111 12v113q0 12 12 12h53q12 0 12 -12v-113q0 -12 -12 -12h-53q-12 0 -12 12zM410 12v113q0 12 12 12h53q12 0 12 -12v-113q0 -12 -12 -12h-53q-12 0 -12 12zM709 12v113q0 12 12 12h53q12 0 12 -12v-113q0 -12 -12 -12h-53q-12 0 -12 12z" />
<glyph unicode="&#x202f;" horiz-adv-x="379" />
<glyph unicode="&#x2039;" horiz-adv-x="323" d="M74 530q0 3 2 9l108 268q4 10 13 10h26q13 0 8 -12l-110 -275l110 -274q5 -12 -8 -12h-26q-9 0 -13 10l-108 268q-2 6 -2 8z" />
<glyph unicode="&#x203a;" horiz-adv-x="323" d="M92 256l111 274l-111 275q-5 12 8 12h27q8 0 12 -10l109 -268q2 -6 2 -9q0 -2 -2 -8l-109 -268q-4 -10 -12 -10h-27q-12 0 -8 12z" />
<glyph unicode="&#x205f;" horiz-adv-x="474" />
<glyph unicode="&#x20ac;" horiz-adv-x="888" d="M61 584v18q0 12 13 12h139q-2 44 -2 103q0 58 2 102h-139q-13 0 -13 12v19q0 12 13 12h139q16 307 117 448q100 140 313 140q90 0 156 -20q16 -6 14 -19l-2 -16q-2 -15 -18 -11q-72 21 -150 21q-188 0 -276 -130t-103 -413h467q12 0 12 -12l-2 -19q0 -12 -12 -12h-467 q-2 -44 -2 -102q0 -59 2 -103h440q13 0 13 -12l-2 -18q0 -13 -13 -13h-436q16 -281 105 -412q88 -130 276 -130q78 0 156 22q17 5 18 -10l2 -14q2 -15 -14 -21q-75 -22 -162 -22q-213 0 -313 140q-101 141 -117 447h-141q-13 0 -13 13z" />
<glyph unicode="&#x2122;" horiz-adv-x="946" d="M61 1403v20q0 11 11 11h284q11 0 11 -11v-20q0 -10 -11 -10h-120v-609q0 -10 -11 -10h-22q-10 0 -10 10v609h-121q-11 0 -11 10zM434 784v639q0 11 10 11h33q7 0 8 -4l156 -394l156 394q1 4 8 4h33q10 0 10 -11v-639q0 -10 -10 -10h-21q-10 0 -10 10v574l-148 -365 q-7 -14 -18 -14t-18 14l-148 363v-572q0 -10 -10 -10h-21q-10 0 -10 10z" />
<glyph unicode="&#x25fc;" horiz-adv-x="1064" d="M0 0v1065h1065v-1065h-1065z" />
</font>
</defs>
</svg>
