<?xml version="1.0" standalone="no"?>
<!DOCTYPE svg PUBLIC "-//W3C//DTD SVG 1.1//EN" "http://www.w3.org/Graphics/SVG/1.1/DTD/svg11.dtd" >
<svg xmlns="http://www.w3.org/2000/svg" xmlns:xlink="http://www.w3.org/1999/xlink" version="1.1">
<metadata></metadata>
<defs>
<font id="amsipronarw-lightuploadedfile" horiz-adv-x="1122" >
<font-face units-per-em="2048" ascent="1751" descent="-297" />
<missing-glyph horiz-adv-x="509" />
<glyph unicode="&#xfb01;" horiz-adv-x="948" d="M47 989v53q0 25 23 25h131v100q0 281 229 281q64 0 105 -14q18 -6 18 -27v-45q0 -22 -27 -21q-72 7 -82 7q-69 0 -102 -43t-33 -144v-94h473q23 0 23 -25v-1019q0 -23 -23 -23h-65q-25 0 -25 23v944h-383v-944q0 -23 -20 -23h-66q-22 0 -22 23v944h-131q-23 0 -23 22z M694 1257v156q0 23 23 23h65q23 0 23 -23v-156q0 -22 -23 -22h-65q-23 0 -23 22z" />
<glyph unicode="&#xfb02;" horiz-adv-x="952" d="M47 989v53q0 25 23 25h131v74q0 157 77 234t261 77q140 0 245 -31q23 -8 23 -28v-1370q0 -23 -21 -23h-67q-23 0 -23 23v1316q-89 13 -157 13q-128 0 -179 -53t-51 -162v-70h178q23 0 23 -25v-53q0 -22 -23 -22h-178v-944q0 -23 -20 -23h-66q-22 0 -22 23v944h-131 q-23 0 -23 22z" />
<glyph unicode="&#xfb03;" horiz-adv-x="1443" d="M47 989v53q0 25 23 25h131v104q0 277 231 277q68 0 103 -14q18 -4 18 -27v-45q0 -27 -25 -21q-40 7 -82 7q-71 0 -104 -43t-33 -140v-98h387v104q0 277 234 277q59 0 102 -14q19 -6 19 -27v-45q0 -27 -25 -21q-39 7 -82 7q-71 0 -104 -42t-33 -141v-98h471q25 0 25 -25 v-1019q0 -23 -25 -23h-66q-20 0 -20 23v944h-385v-944q0 -23 -21 -23h-67q-23 0 -23 23v944h-387v-944q0 -23 -20 -23h-66q-22 0 -22 23v944h-131q-23 0 -23 22zM1190 1257v156q0 23 24 23h64q25 0 25 -23v-156q0 -22 -25 -22h-64q-24 0 -24 22z" />
<glyph unicode="&#xfb04;" horiz-adv-x="1447" d="M47 989v53q0 25 23 25h131v104q0 277 231 277q60 0 103 -14q18 -4 18 -27v-45q0 -27 -25 -21q-40 7 -82 7q-71 0 -104 -43t-33 -140v-98h387v74q0 157 77 234t261 77q141 0 246 -31q25 -8 25 -30v-1368q0 -23 -23 -23h-65q-23 0 -23 23v1316q-93 13 -158 13 q-126 0 -178 -52q-51 -51 -51 -163v-70h178q23 0 23 -25v-53q0 -22 -23 -22h-178v-944q0 -23 -21 -23h-67q-23 0 -23 23v944h-387v-944q0 -23 -20 -23h-66q-22 0 -22 23v944h-131q-23 0 -23 22z" />
<glyph horiz-adv-x="0" />
<glyph unicode="&#xd;" horiz-adv-x="681" />
<glyph unicode=" "  horiz-adv-x="509" />
<glyph unicode="&#x09;" horiz-adv-x="509" />
<glyph unicode="&#xa0;" horiz-adv-x="509" />
<glyph unicode="!" horiz-adv-x="479" d="M166 23v141q0 22 22 22h105q20 0 20 -22v-141q0 -23 -20 -23h-105q-22 0 -22 23zM172 1413q0 23 25 23h88q22 0 22 -23l-20 -1001q0 -25 -23 -25h-49q-22 0 -22 25z" />
<glyph unicode="&#x22;" horiz-adv-x="593" d="M113 1405q0 34 12 49q11 14 43 14q34 0 45 -14q12 -15 12 -49q0 -66 -6 -129l-22 -283h-56l-22 283q-6 63 -6 129zM369 1405q0 34 12 49q11 14 45 14q29 0 42 -14t13 -51q0 -64 -6 -127l-20 -283h-58l-22 283q0 5 -2 41q-1 27 -3 48q-1 14 -1 40z" />
<glyph unicode="#" horiz-adv-x="1126" d="M31 446v46q0 24 24 24h189l108 406h-159q-23 0 -23 22v45q0 25 23 25h184l115 422q6 22 26 16l51 -12q23 -6 17 -29l-107 -397h326l113 422q6 22 28 16l51 -12q23 -6 17 -29l-107 -397h164q23 0 23 -25v-45q0 -22 -23 -22h-188l-111 -406h162q22 0 22 -24v-46 q0 -22 -22 -22h-186l-113 -422q-6 -24 -27 -20l-51 16q-22 7 -16 29l106 397h-328l-110 -422q-6 -26 -29 -20l-51 16q-22 7 -16 29l106 397h-164q-24 0 -24 22zM344 516h328l108 406h-325z" />
<glyph unicode="$" horiz-adv-x="952" d="M92 63l17 58q6 23 32 16q132 -49 293 -49q147 0 231 67q83 66 83 193q0 60 -23 111q-22 48 -63 86q-33 30 -88 66t-105 63l-12 6q-5 2 -11 6t-12 6l-101 59q-37 21 -87 61q-55 44 -79 79q-25 36 -46 94q-21 57 -21 123q0 148 84 238q83 89 254 104v158q0 22 25 22h47 q25 0 25 -22v-154q139 -1 253 -43q25 -8 17 -31l-17 -55q-6 -26 -30 -18q-115 41 -240 41q-297 0 -297 -240q0 -60 21 -107q23 -50 69 -88q55 -45 83 -62q61 -37 110 -65q69 -38 78 -44q5 -4 14 -9.5t26 -16t30 -18.5q52 -33 72 -51q23 -21 54 -55q34 -37 49 -70t27 -78 t12 -96q0 -160 -87 -250t-240 -108v-162q0 -23 -25 -23h-47q-23 0 -23 23v154q-199 0 -329 51q-27 11 -23 30z" />
<glyph unicode="%" horiz-adv-x="1597" d="M78 1040q0 200 74 306q73 104 210 104q136 0 210 -104q75 -105 75 -306q0 -200 -75 -304q-75 -103 -210 -103q-137 0 -210 103q-74 104 -74 304zM178 1040q0 -315 184 -315q185 0 185 315q0 316 -185 316q-184 0 -184 -316zM360 25l764 1392q11 19 33 19h68q28 0 12 -25 l-768 -1391q-10 -20 -31 -20h-65q-29 0 -13 25zM948 395q0 200 75 305t212 105q135 0 210 -105t75 -305q0 -198 -75 -303q-74 -104 -210 -104q-138 0 -212 104q-75 105 -75 303zM1053 395q0 -313 182 -313q184 0 184 313q0 316 -184 316q-182 0 -182 -316z" />
<glyph unicode="&#x26;" horiz-adv-x="1253" d="M92 420q0 159 87 279t239 165l-41 54q-107 140 -107 270q0 268 332 268q116 0 201 -35q28 -10 22 -30l-16 -45q-8 -27 -37 -15q-73 27 -164 27q-231 0 -231 -170q0 -97 108 -238l496 -645q45 90 45 211q0 13 -2 41q-1 20 -6 43q-4 22 -6 35q-4 24 20 24h60q17 0 24 -22 q12 -51 12 -125q0 -167 -77 -293l157 -194q9 -9 4 -17t-14 -8h-84q-24 0 -35 14l-92 125q-136 -155 -401 -155q-228 0 -361 114t-133 322zM211 422q0 -154 101 -245t276 -91q224 0 330 133l-433 565q-135 -39 -205 -134q-69 -94 -69 -228z" />
<glyph unicode="'" horiz-adv-x="339" d="M113 1405q0 34 12 49q11 14 43 14q34 0 45 -14q12 -15 12 -49q0 -66 -6 -129l-22 -283h-56l-22 283q-6 63 -6 129z" />
<glyph unicode="(" horiz-adv-x="600" d="M158 608q0 237 78 451q79 218 196 379q11 14 31 14h53q24 0 12 -22q-112 -155 -184 -375q-72 -219 -72 -447q0 -385 256 -821q6 -8 3 -16q-4 -9 -15 -9h-53q-16 0 -31 15q-119 150 -196 369q-78 220 -78 462z" />
<glyph unicode=")" horiz-adv-x="600" d="M71 -229q-3 8 3 16q112 155 184 375q72 219 72 446q0 228 -72 447q-72 220 -184 375q-6 6 -3 14t15 8h53q20 0 31 -14q119 -164 197 -379q77 -212 77 -451q0 -243 -77 -461t-197 -370q-15 -15 -31 -15h-53q-11 0 -15 9z" />
<glyph unicode="*" horiz-adv-x="747" d="M98 975q-21 34 25 63q15 10 49 25q6 3 33.5 15.5t45.5 20.5l77 36q-9 4 -21 9.5t-29 13t-28 12.5q-25 11 -79 37q-28 14 -48 26q-47 27 -25 61q21 38 66 11q19 -10 89 -61q4 -3 97 -68q-1 13 -10 117q-8 88 -8 108q0 29 8 42q7 11 33 11t33 -11q8 -13 8 -42q0 -18 -3 -54 q-1 -13 -4 -42t-4 -45q-5 -51 -6 -84q151 107 187 129q44 24 65 -9q21 -38 -24 -65q-13 -9 -48 -25q-26 -12 -80 -36l-77 -33q10 -5 114 -55q87 -42 91 -44q45 -28 24 -61q-21 -39 -65 -12q-35 22 -46 30q-30 21 -72 51t-69 48q21 -220 21 -226q0 -51 -43 -51q-26 0 -34 11 q-9 12 -9 40q0 16 20 226q-9 -6 -100 -70q-70 -50 -88 -59q-45 -27 -66 10z" />
<glyph unicode="+" horiz-adv-x="1067" d="M106 690v55q0 23 23 23h350v385q0 25 25 25h59q23 0 23 -25v-385h352q23 0 23 -23v-55q0 -20 -23 -20h-352v-391q0 -21 -23 -21h-59q-25 0 -25 21v391h-350q-23 0 -23 20z" />
<glyph unicode="," horiz-adv-x="385" d="M121 23v137q0 24 24 24h95q24 0 24 -24v-129q0 -20 -4 -31l-57 -186q-6 -17 -23 -17h-28q-19 0 -13 23l39 180h-33q-24 0 -24 23z" />
<glyph unicode="-" horiz-adv-x="671" d="M82 514v55q0 21 24 21h459q23 0 23 -21v-55q0 -20 -23 -20h-461q-22 0 -22 20z" />
<glyph unicode="." horiz-adv-x="385" d="M121 23v137q0 24 24 24h95q24 0 24 -24v-137q0 -23 -22 -23h-97q-24 0 -24 23z" />
<glyph unicode="/" horiz-adv-x="708" d="M20 27l553 1388q7 21 33 21h64q28 0 18 -27l-555 -1386q-8 -23 -31 -23h-63q-29 0 -19 27z" />
<glyph unicode="0" horiz-adv-x="1142" d="M106 717q0 739 463 739q465 0 465 -737t-465 -737q-463 0 -463 735zM227 717q0 -323 85 -475q86 -154 257 -154q346 0 346 629q0 631 -346 631q-171 0 -257 -155q-85 -154 -85 -476z" />
<glyph unicode="1" horiz-adv-x="749" d="M72 1135q-14 14 2 26l319 264q13 11 31 11h74q22 0 22 -23v-1388q0 -25 -22 -25h-70q-25 0 -25 25v1267l-262 -207q-18 -12 -28 2z" />
<glyph unicode="2" horiz-adv-x="1052" d="M106 25v47q0 19 17 34q73 60 175 149q76 66 177 173q99 105 165 198q68 95 113 205q46 111 46 216q0 303 -285 303q-148 0 -214 -74q-67 -75 -67 -193q0 -8 4 -48q3 -30 3 -40q0 -22 -23 -22h-65q-17 0 -23 26q-8 53 -8 91q0 160 100 263t295 103q209 0 305 -111 q97 -112 97 -294q0 -419 -625 -945h625q24 0 24 -24v-57q0 -25 -24 -25h-787q-25 0 -25 25z" />
<glyph unicode="3" horiz-adv-x="962" d="M63 63l17 58q6 27 29 16q144 -51 292 -51q336 0 336 322q0 290 -293 290h-118q-27 0 -27 23v57q0 23 27 23h116q122 0 192 69q71 69 71 213q0 267 -287 267q-137 0 -287 -52q-19 -8 -27 17l-20 55q-4 16 20 27q137 59 314 59q198 0 302 -92q103 -91 103 -272 q0 -270 -202 -330q105 -24 171 -110t66 -244q0 -426 -457 -426q-147 0 -319 57q-23 8 -19 24z" />
<glyph unicode="4" horiz-adv-x="1101" d="M72 369v55q0 19 10 35l643 958q13 19 33 19h73q23 0 23 -23v-967h186q25 0 25 -22v-55q0 -25 -25 -25h-186v-319q0 -25 -23 -25h-69q-23 0 -23 25v319h-645q-22 0 -22 25zM201 446h538v816z" />
<glyph unicode="5" horiz-adv-x="985" d="M76 70l20 53q7 21 27 16q138 -53 291 -53q352 0 352 365q0 156 -69 242q-69 85 -234 85q-104 0 -189 -26l-88 -27q-6 0 -22 6l-33 14q-14 4 -12 29q31 351 37 637q0 25 24 25h608q27 0 27 -23v-57q0 -25 -27 -25h-532q-7 -285 -29 -493q105 43 246 43q414 0 414 -430 q0 -227 -120 -349q-119 -120 -347 -120q-188 0 -326 55q-26 11 -18 33z" />
<glyph unicode="6" horiz-adv-x="1075" d="M106 692q0 764 500 764q122 0 230 -41q24 -11 20 -26l-18 -58q-6 -24 -29 -16q-95 37 -195 37q-205 0 -300 -164t-93 -514q27 112 120 184t243 72q206 0 304 -128q97 -127 97 -335q0 -220 -107 -352q-108 -133 -305 -133q-467 0 -467 710zM254 461q0 -139 82 -257 t235 -118q143 0 220 104t77 275q0 162 -70 263t-229 101q-147 0 -231 -94q-84 -95 -84 -274z" />
<glyph unicode="7" horiz-adv-x="952" d="M78 1356v57q0 23 24 23h744q22 0 22 -23v-55q0 -14 -16 -37q-177 -252 -313 -626q-137 -376 -138 -672q0 -23 -24 -23h-74q-24 0 -24 23q12 312 151 686q140 376 307 622h-635q-24 0 -24 25z" />
<glyph unicode="8" horiz-adv-x="1054" d="M96 352q0 155 90 254q89 98 232 142q-293 105 -293 366q0 156 103 249q104 93 300 93q194 0 299 -93t105 -249q0 -260 -295 -366q142 -44 231 -142q90 -99 90 -254q0 -170 -111 -270q-110 -100 -319 -100q-207 0 -319 100q-113 101 -113 270zM213 358q0 -126 81 -201 t234 -75q154 0 234 75t80 201q0 252 -314 336q-315 -84 -315 -336zM240 1114q0 -227 288 -317q289 91 289 317q0 112 -75 177q-76 65 -214 65q-141 0 -215 -65q-73 -64 -73 -177z" />
<glyph unicode="9" horiz-adv-x="1075" d="M90 971q0 219 108 351t304 132q467 0 467 -711q0 -377 -119 -570q-118 -191 -377 -191q-119 0 -229 38q-25 6 -19 29l17 55q6 24 28 17q127 -37 195 -37q202 0 299 160q96 158 94 508q-22 -104 -118 -175q-95 -71 -248 -71q-205 0 -304 129q-98 128 -98 336zM207 973 q0 -160 71 -263q70 -102 228 -102q146 0 232 92q85 91 85 273q0 146 -82 261q-83 116 -235 116q-143 0 -221 -104t-78 -273z" />
<glyph unicode=":" horiz-adv-x="444" d="M150 23v137q0 24 24 24h96q23 0 23 -24v-137q0 -23 -23 -23h-96q-24 0 -24 23zM150 905v137q0 25 24 25h96q23 0 23 -25v-137q0 -22 -23 -22h-96q-24 0 -24 22z" />
<glyph unicode=";" horiz-adv-x="444" d="M150 23v137q0 24 24 24h96q23 0 23 -24v-129q0 -20 -4 -31l-56 -186q-6 -17 -24 -17h-27q-21 0 -16 23l41 180h-33q-24 0 -24 23zM150 905v137q0 25 24 25h96q23 0 23 -25v-137q0 -22 -23 -22h-96q-24 0 -24 22z" />
<glyph unicode="&#x3c;" horiz-adv-x="1067" d="M131 719q0 15 14 22l666 564q18 18 33 2l37 -45q15 -18 -2 -31l-609 -512l609 -514q17 -15 2 -31l-37 -47q-17 -12 -31 -2l-668 567q-14 7 -14 27z" />
<glyph unicode="=" horiz-adv-x="1067" d="M125 496v53q0 22 22 22h773q22 0 22 -22v-53q0 -23 -22 -23h-775q-20 0 -20 23zM125 889v53q0 21 22 21h773q22 0 22 -21v-53q0 -23 -22 -23h-775q-20 0 -20 23z" />
<glyph unicode="&#x3e;" horiz-adv-x="1067" d="M186 174q-15 18 2 31l611 514l-611 512q-15 12 -2 31l33 45q12 18 33 2l670 -568q14 -14 14 -22q0 -13 -14 -27l-670 -567q-21 -16 -33 2z" />
<glyph unicode="?" horiz-adv-x="876" d="M70 1370q-4 16 18 27q117 59 301 59q194 0 289 -89q94 -88 94 -245q0 -86 -31 -165q-29 -74 -74 -133q-28 -36 -88 -107q-46 -54 -75 -109q-31 -59 -31 -114v-82q0 -25 -24 -25h-62q-22 0 -22 25v82q0 78 45 161q44 81 99 142t99 146q45 87 45 175q0 232 -268 232 q-40 0 -88 -8q-49 -8 -67 -12q-25 -5 -66 -19l-45 -15q-25 -8 -31 17zM342 23v141q0 22 23 22h102q22 0 22 -22v-141q0 -23 -22 -23h-102q-23 0 -23 23z" />
<glyph unicode="@" horiz-adv-x="1695" d="M129 424q0 368 206 588q205 219 564 219q668 0 668 -606q0 -251 -110 -402q-109 -149 -316 -149h-80q-17 0 -26 6q-8 6 -7 22l10 134q-84 -173 -270 -173q-134 0 -210 94q-75 93 -75 246q0 140 44 260q42 115 155 199q110 82 272 82q127 0 244 -43q18 -6 16 -27 l-104 -718h35q170 0 253 125t83 346q0 250 -133 386t-451 136q-317 0 -499 -194q-181 -193 -181 -531q0 -298 157 -431q156 -132 486 -132q151 0 340 51q20 7 21 -14l10 -41q2 -13 -14 -19q-134 -55 -357 -55q-366 0 -548 151q-183 152 -183 490zM590 410q0 -116 49 -184 t141 -68q112 0 181 83t90 226l51 364q-69 21 -150 21q-184 0 -273 -126q-89 -127 -89 -316z" />
<glyph unicode="A" d="M55 27l428 1384q8 25 33 25h90q25 0 31 -25l430 -1384q6 -27 -20 -27h-74q-23 0 -29 23l-117 389h-530l-119 -389q-6 -23 -26 -23h-78q-25 0 -19 27zM330 520h463l-230 780h-4z" />
<glyph unicode="B" horiz-adv-x="1142" d="M152 25v1388q0 23 26 23h385q225 0 335 -86t110 -275q0 -141 -61 -222q-59 -78 -152 -101q252 -50 252 -355q0 -211 -120 -304t-366 -93h-383q-26 0 -26 25zM270 109h285q199 0 287 66t88 228q0 155 -82 221t-277 66h-301v-581zM270 797h291q175 0 252 64q78 65 78 206 q0 146 -77 203q-76 57 -255 57h-289v-530z" />
<glyph unicode="C" horiz-adv-x="997" d="M102 719q0 380 130 558q131 179 395 179q154 0 256 -51q25 -12 20 -31l-18 -53q-10 -26 -31 -16q-100 41 -213 41q-217 0 -316 -149q-100 -150 -100 -478q0 -331 101 -480t321 -149q114 0 219 45q21 8 31 -18l21 -54q6 -16 -21 -28q-126 -53 -262 -53q-272 0 -402 178 q-131 179 -131 559z" />
<glyph unicode="D" horiz-adv-x="1142" d="M152 25v1388q0 23 24 23h287q291 0 435 -159t144 -546q0 -210 -37 -352t-115 -226t-179 -118q-103 -35 -246 -35h-287q-26 0 -26 25zM270 111h195q115 0 194 27q82 28 141 96q60 69 90 192t30 305q0 335 -112 465q-111 129 -345 129h-193v-1214z" />
<glyph unicode="E" horiz-adv-x="923" d="M152 25v1388q0 23 24 23h625q24 0 24 -23v-61q0 -25 -24 -25h-531v-539h514q25 0 25 -24v-57q0 -25 -25 -25h-514v-573h537q24 0 24 -23v-61q0 -25 -24 -25h-629q-26 0 -26 25z" />
<glyph unicode="F" horiz-adv-x="897" d="M152 25v1388q0 23 26 23h621q22 0 22 -23v-61q0 -25 -22 -25h-529v-549h514q27 0 27 -24v-58q0 -24 -27 -24h-514v-647q0 -25 -24 -25h-68q-26 0 -26 25z" />
<glyph unicode="G" horiz-adv-x="1130" d="M102 719q0 386 137 562q136 175 427 175q150 0 272 -55q29 -11 23 -29l-21 -55q-11 -27 -33 -17q-124 46 -235 46q-241 0 -344 -145t-103 -482q0 -336 103 -483q102 -146 338 -146q119 0 219 41v567h-279q-24 0 -24 23v59q0 25 24 25h369q24 0 24 -25v-686q0 -33 -26 -47 q-112 -65 -314 -65q-286 0 -421 174q-136 175 -136 563z" />
<glyph unicode="H" horiz-adv-x="1171" d="M152 25v1388q0 23 26 23h68q24 0 24 -23v-622h629v622q0 23 27 23h69q23 0 23 -23v-1388q0 -25 -23 -25h-69q-27 0 -27 25v655h-629v-655q0 -25 -24 -25h-68q-26 0 -26 25z" />
<glyph unicode="I" horiz-adv-x="448" d="M166 25v1388q0 23 22 23h70q27 0 27 -23v-1388q0 -25 -27 -25h-70q-22 0 -22 25z" />
<glyph unicode="J" horiz-adv-x="759" d="M51 61l17 58q7 26 30 14q84 -41 185 -41q112 0 162 67q51 68 51 212v1042q0 23 24 23h70q24 0 24 -23v-1051q0 -196 -78 -286q-80 -92 -247 -92q-132 0 -217 43q-27 16 -21 34z" />
<glyph unicode="K" horiz-adv-x="1011" d="M152 25v1388q0 23 26 23h68q24 0 24 -23v-598l535 602q19 19 37 19h92q14 0 19 -10q4 -9 -3 -19l-585 -649l596 -727q8 -13 5 -22t-18 -9h-96q-21 0 -37 20l-545 670v-665q0 -25 -24 -25h-68q-26 0 -26 25z" />
<glyph unicode="L" horiz-adv-x="880" d="M152 25v1388q0 23 26 23h68q24 0 24 -23v-1302h512q25 0 25 -25v-61q0 -25 -25 -25h-604q-26 0 -26 25z" />
<glyph unicode="M" horiz-adv-x="1345" d="M152 25v1388q0 23 26 23h70q23 0 31 -17l393 -803l395 803q6 17 29 17h71q23 0 23 -23v-1388q0 -25 -23 -25h-69q-23 0 -23 25v1183l-373 -762q-10 -16 -30 -16q-19 0 -29 16l-373 762v-1183q0 -25 -24 -25h-68q-26 0 -26 25z" />
<glyph unicode="N" horiz-adv-x="1181" d="M152 25v1388q0 23 26 23h68q29 0 37 -19l630 -1204v1200q0 23 25 23h66q24 0 24 -23v-1388q0 -25 -24 -25h-70q-25 0 -35 20l-631 1203v-1198q0 -25 -22 -25h-68q-26 0 -26 25z" />
<glyph unicode="O" horiz-adv-x="1200" d="M100 719q0 376 125 557q125 180 375 180t375 -180q125 -181 125 -557q0 -379 -125 -558t-375 -179t-375 179t-125 558zM223 719q0 -327 92 -479t285 -152t285 152t92 479q0 325 -92 477t-285 152t-285 -152t-92 -477z" />
<glyph unicode="P" horiz-adv-x="1069" d="M152 25v1386q0 25 24 25h293q269 0 383 -111q115 -112 115 -379t-115 -379q-113 -110 -381 -110h-201v-432q0 -25 -24 -25h-68q-26 0 -26 25zM270 567h201q210 0 292 82q83 83 83 297q0 216 -84 298q-85 83 -291 83h-201v-760z" />
<glyph unicode="Q" horiz-adv-x="1200" d="M100 719q0 376 125 557q125 180 375 180q248 0 373 -179q126 -180 127 -558q0 -656 -408 -719q113 -61 258 -61q19 0 32 1t26 1q30 0 30 -23v-51q0 -29 -49 -29q-264 0 -438 150q-226 17 -338 194q-113 179 -113 537zM223 719q0 -327 92 -479t285 -152t285 152t92 479 q0 325 -92 477t-285 152t-285 -152t-92 -477z" />
<glyph unicode="R" horiz-adv-x="1085" d="M152 25v1388q0 23 26 23h309q262 0 377 -106t115 -351q0 -210 -87 -315q-87 -104 -267 -127l342 -506q8 -11 4 -21t-19 -10h-82q-22 0 -34 18l-340 506h-226v-499q0 -25 -24 -25h-68q-26 0 -26 25zM270 633h219q205 0 287 78t82 268q0 194 -83 271t-290 77h-215v-694z " />
<glyph unicode="S" horiz-adv-x="915" d="M84 55l20 58q10 24 29 16q115 -41 268 -41t232 68q78 68 78 190q0 66 -21 116q-22 53 -68 94q-52 47 -87 70q-31 20 -115 68q-80 45 -123 75q-42 29 -96 80q-53 50 -77 115q-24 64 -24 146q0 346 396 346q148 0 260 -41q26 -7 20 -31l-18 -55q-7 -22 -31 -16 q-93 35 -225 35q-153 0 -219 -60t-66 -178q0 -60 19 -109q18 -47 63 -87q40 -36 78 -62q46 -31 104 -64q93 -53 107 -62q33 -21 89 -66q60 -48 84 -83q26 -38 47 -101t21 -134q0 -174 -109 -267q-110 -93 -317 -93q-201 0 -296 43q-27 15 -23 30z" />
<glyph unicode="T" horiz-adv-x="892" d="M55 1350v63q0 23 25 23h735q23 0 23 -23v-63q0 -25 -23 -25h-309v-1300q0 -25 -25 -25h-67q-27 0 -27 25v1300h-307q-25 0 -25 25z" />
<glyph unicode="U" horiz-adv-x="1150" d="M143 457v956q0 23 25 23h68q26 0 26 -23v-946q0 -194 73 -287q72 -92 240 -92q169 0 241 92q73 93 73 287v946q0 23 24 23h70q23 0 23 -23v-956q0 -241 -104 -360q-102 -117 -327 -117q-223 0 -327 117q-105 119 -105 360z" />
<glyph unicode="V" horiz-adv-x="1097" d="M66 1409q-6 27 18 27h76q22 0 28 -23l267 -928l92 -348h4l92 350l268 926q6 23 29 23h76q24 0 18 -27l-405 -1384q-8 -25 -33 -25h-92q-27 0 -35 25z" />
<glyph unicode="W" horiz-adv-x="1726" d="M78 1407q-6 29 18 29h74q23 0 29 -23l207 -889l81 -385h7l88 389l213 885q6 23 30 23h74q27 0 33 -23l211 -885l88 -389h6l84 385l207 889q6 23 28 23h74q27 0 21 -29l-334 -1380q-6 -27 -33 -27h-96q-27 0 -33 25l-211 874l-80 344h-4l-80 -344l-209 -874 q-6 -25 -32 -25h-97q-28 0 -34 27z" />
<glyph unicode="X" horiz-adv-x="1042" d="M61 27l396 700l-385 682q-6 8 -2 17q5 10 18 10h80q22 0 33 -19l321 -588l318 588q8 19 32 19h82q12 0 17 -10q4 -9 -2 -17l-385 -682l397 -700q7 -11 2 -19t-16 -8h-78q-26 0 -37 20l-330 607l-332 -607q-14 -20 -34 -20h-80q-30 0 -15 27z" />
<glyph unicode="Y" horiz-adv-x="1069" d="M61 1409q-12 27 17 27h78q20 0 30 -21l250 -532l96 -226h3l100 226l248 532q11 21 32 21h76q25 0 17 -27l-412 -860v-524q0 -25 -27 -25h-69q-23 0 -23 25v524z" />
<glyph unicode="Z" horiz-adv-x="974" d="M96 25v59q0 13 13 39l626 1202h-596q-24 0 -24 25v63q0 23 24 23h707q22 0 22 -23v-61q0 -16 -12 -39l-623 -1202h619q27 0 27 -23v-63q0 -25 -27 -25h-733q-23 0 -23 25z" />
<glyph unicode="[" horiz-adv-x="600" d="M199 -203v1616q0 23 24 23h262q23 0 23 -23v-49q0 -23 -23 -23h-176v-1472h176q23 0 23 -23v-49q0 -22 -23 -22h-262q-24 0 -24 22z" />
<glyph unicode="\" horiz-adv-x="708" d="M20 1409q-8 27 19 27h63q24 0 31 -21l555 -1388q10 -27 -18 -27h-64q-25 0 -33 23z" />
<glyph unicode="]" horiz-adv-x="604" d="M94 -154q0 23 25 23h176v1472h-176q-25 0 -25 23v49q0 23 25 23h262q22 0 22 -23v-1616q0 -22 -22 -22h-262q-25 0 -25 22v49z" />
<glyph unicode="^" horiz-adv-x="1067" d="M125 735l350 680q11 21 31 21h55q23 0 33 -21l350 -680q10 -26 -18 -26h-70q-20 0 -31 20l-293 578l-290 -578q-14 -20 -33 -20h-68q-32 0 -16 26z" />
<glyph unicode="_" horiz-adv-x="847" d="M43 -117q0 21 23 21h718q21 0 21 -21v-37q0 -24 -21 -24h-718q-23 0 -23 24v37z" />
<glyph unicode="`" horiz-adv-x="591" d="M163 1406q3 9 17 9h94q26 0 37 -20l109 -176q12 -21 -12 -21h-41q-17 0 -31 14l-168 174q-8 11 -5 20z" />
<glyph unicode="a" horiz-adv-x="929" d="M74 287q0 89 31 151q31 63 82 101q47 35 135 59t168 32q91 10 204 11v109q0 124 -54 181q-53 56 -179 56q-133 0 -277 -55q-20 -10 -26 14l-15 53q-6 18 17 29q127 59 309 59q175 0 254 -82q80 -83 80 -251v-731q0 -23 -25 -23h-59q-23 0 -23 23v155q-80 -192 -325 -192 q-143 0 -220 81q-77 82 -77 220zM182 291q0 -98 51 -155q50 -56 156 -56q143 0 224 89t81 222v160q-81 -1 -166 -7q-60 -4 -138 -22q-72 -17 -112 -43q-42 -28 -68 -73q-28 -48 -28 -115z" />
<glyph unicode="b" horiz-adv-x="1036" d="M139 23v1390q0 23 25 23h65q23 0 23 -23v-536q34 96 117 154q81 56 196 56q187 0 284 -141q97 -140 97 -411q0 -273 -97 -413t-284 -140q-115 0 -198 54t-117 154v-167q0 -23 -21 -23h-65q-25 0 -25 23zM252 535q0 -453 297 -453q282 0 282 453q0 452 -282 452 q-144 0 -221 -115q-76 -113 -76 -337z" />
<glyph unicode="c" horiz-adv-x="808" d="M90 535q0 270 103 412q101 140 303 140q130 0 219 -40q24 -12 18 -33l-18 -49q-8 -28 -33 -15q-74 33 -174 33q-155 0 -229 -110t-74 -338q0 -451 301 -451q110 0 188 39q21 11 29 -12l18 -54q4 -16 -20 -28q-91 -47 -215 -47q-206 0 -310 140q-106 142 -106 413z" />
<glyph unicode="d" horiz-adv-x="1036" d="M90 535q0 271 97 411q97 141 282 141q117 0 198 -56q83 -58 117 -154v536q0 23 23 23h63q25 0 25 -23v-1390q0 -23 -25 -23h-63q-21 0 -21 23v165q-34 -98 -117 -152t-200 -54q-185 0 -282 140t-97 413zM205 535q0 -453 282 -453q146 0 223 115q76 113 76 338 q0 224 -77 337q-79 115 -222 115q-282 0 -282 -452z" />
<glyph unicode="e" horiz-adv-x="933" d="M90 535q0 270 99 411t292 141q184 0 276 -134q91 -133 91 -365v-82q0 -25 -27 -25h-620q12 -403 336 -403q123 0 219 45q25 12 32 -14l15 -48q6 -22 -19 -30q-112 -51 -254 -51q-440 0 -440 555zM201 575h536v19q0 395 -256 395q-268 0 -280 -414z" />
<glyph unicode="f" horiz-adv-x="589" d="M47 989v53q0 25 23 25h131v94q0 148 57 217q58 70 180 70q62 0 105 -14q18 -6 18 -27v-45q0 -27 -24 -21q-40 7 -82 7q-77 0 -112 -44q-34 -43 -34 -149v-88h217q23 0 23 -25v-53q0 -22 -23 -22h-217v-944q0 -23 -20 -23h-66q-22 0 -22 23v944h-131q-23 0 -23 22z" />
<glyph unicode="g" horiz-adv-x="991" d="M90 584q0 242 92 373q91 130 267 130q107 0 186 -55q81 -56 110 -143v155q0 23 25 23h64q22 0 22 -25v-915q0 -187 -100 -280t-289 -93q-163 0 -283 53q-21 10 -16 27l16 51q6 24 27 17q123 -47 254 -47q280 0 280 278v152q-31 -94 -109 -147q-80 -54 -185 -54 q-173 0 -267 129q-94 128 -94 371zM203 584q0 -406 264 -406q133 0 207 108q74 109 74 304q0 194 -74 297q-74 102 -207 102q-264 0 -264 -405z" />
<glyph unicode="h" horiz-adv-x="1007" d="M139 23v1390q0 23 25 23h65q23 0 23 -23v-516q29 76 110 134q78 56 205 56q154 0 232 -93t78 -257v-714q0 -23 -21 -23h-65q-25 0 -25 23v702q0 258 -225 258q-130 0 -209 -88q-80 -89 -80 -227v-643q0 -25 -23 -25h-65q-25 0 -25 23z" />
<glyph unicode="i" horiz-adv-x="397" d="M141 1239v156q0 22 23 22h69q23 0 23 -22v-156q0 -22 -23 -22h-69q-23 0 -23 22zM143 23v1019q0 25 23 25h65q23 0 23 -25v-1019q0 -23 -23 -23h-65q-23 0 -23 23z" />
<glyph unicode="j" horiz-adv-x="415" d="M-20 -145q0 23 24 18q30 -6 64 -6q51 0 72 34q22 36 22 113v1028q0 25 22 25h66q22 0 22 -25v-1038q0 -125 -43 -181t-145 -56q-36 0 -84 8q-20 1 -20 24v56zM160 1239v156q0 22 22 22h70q22 0 22 -22v-156q0 -22 -22 -22h-70q-22 0 -22 22z" />
<glyph unicode="k" horiz-adv-x="839" d="M139 23v1390q0 23 25 23h65q23 0 23 -23v-756l397 396q17 14 37 14h90q10 0 15 -5q4 -4 2 -12q-1 -6 -9 -14l-454 -440l473 -565q11 -11 6 -21q-4 -10 -18 -10h-93q-22 0 -34 18l-412 506v-501q0 -23 -23 -23h-65q-25 0 -25 23z" />
<glyph unicode="l" horiz-adv-x="397" d="M143 23v1390q0 23 23 23h65q23 0 23 -23v-1390q0 -23 -23 -23h-65q-23 0 -23 23z" />
<glyph unicode="m" horiz-adv-x="1533" d="M133 23v1019q0 25 25 25h65q23 0 23 -23v-145q27 75 101 132q74 56 190 56q217 0 266 -200q33 87 112 143q79 57 201 57q141 0 215 -92t74 -250v-722q0 -23 -23 -23h-65q-23 0 -23 23v710q0 250 -202 250q-117 0 -192 -81t-75 -206v-673q0 -23 -22 -23h-66q-22 0 -22 23 v710q0 250 -201 250q-118 0 -193 -85q-75 -86 -75 -220v-655q0 -23 -23 -23h-65q-25 0 -25 23z" />
<glyph unicode="n" horiz-adv-x="995" d="M133 23v1019q0 25 23 25h63q23 0 23 -23l2 -147q34 77 111 134q75 56 200 56q155 0 233 -93t78 -257v-714q0 -23 -24 -23h-64q-22 0 -22 23v702q0 258 -224 258q-129 0 -208 -88q-80 -89 -80 -225v-647q0 -23 -23 -23h-65q-23 0 -23 23z" />
<glyph unicode="o" horiz-adv-x="989" d="M90 535q0 270 103 412q101 140 301 140q199 0 302 -140t103 -412q0 -273 -103 -413t-302 -140q-200 0 -301 140q-103 142 -103 413zM205 535q0 -453 289 -453q290 0 290 453q0 452 -290 452q-289 0 -289 -452z" />
<glyph unicode="p" horiz-adv-x="1030" d="M133 -203v1245q0 25 25 25h63q23 0 23 -23v-167q34 96 117 154q81 56 198 56q187 0 284 -141q97 -140 97 -411q0 -273 -97 -413t-284 -140q-241 0 -313 208v-393q0 -22 -23 -22h-65q-25 0 -25 22zM246 535q0 -223 77 -338t220 -115q282 0 282 453q0 452 -282 452 q-143 0 -220 -115t-77 -337z" />
<glyph unicode="q" horiz-adv-x="1030" d="M90 535q0 271 97 411q97 141 282 141q116 0 199 -56q84 -57 118 -154v167q0 23 21 23h63q25 0 25 -25v-1245q0 -22 -25 -22h-63q-23 0 -23 22v391q-34 -99 -116 -152q-82 -54 -199 -54q-185 0 -282 140t-97 413zM205 535q0 -453 282 -453q146 0 223 115q76 113 76 338 q0 224 -77 337q-79 115 -222 115q-282 0 -282 -452z" />
<glyph unicode="r" horiz-adv-x="618" d="M133 23v1019q0 25 25 25h65q23 0 23 -23v-190q24 87 103 155q78 68 192 68q26 0 26 -22v-78q0 -23 -22 -23h-2q-2 1 -6.5 1.5t-8.5 0.5q-20 2 -24 2q-106 0 -182 -107t-76 -257v-571q0 -23 -23 -23h-65q-25 0 -25 23z" />
<glyph unicode="s" horiz-adv-x="776" d="M70 51l14 53q8 23 29 15q108 -39 239 -39q238 0 238 194q0 38 -15 69q-18 39 -26 50q-12 18 -59 47q-49 30 -61 36q-38 19 -83 42q-146 74 -186 111q-80 74 -80 190q0 268 319 268q117 0 238 -40q23 -6 18 -27l-14 -47q-6 -24 -27 -17q-99 33 -204 33q-117 0 -169 -40 q-53 -41 -53 -130q0 -37 13 -70q12 -29 53 -60q42 -31 64 -42l98 -49q65 -31 112 -59q36 -21 86 -63q44 -37 66 -88q20 -47 20 -114q0 -143 -88 -218q-87 -74 -254 -74q-157 0 -268 43q-22 7 -20 26z" />
<glyph unicode="t" horiz-adv-x="612" d="M35 989v53q0 25 24 25h131v258q0 25 25 25h59q25 0 25 -25v-258h227q23 0 23 -25v-53q0 -22 -23 -22h-227v-676q0 -116 31 -159q30 -42 119 -42q16 0 75 10q17 2 23 -20l12 -49q2 -21 -18 -27q-32 -14 -111 -14q-130 0 -186 63q-56 64 -56 228v686h-129q-24 0 -24 22z " />
<glyph unicode="u" horiz-adv-x="983" d="M125 338v704q0 25 25 25h63q23 0 23 -25v-688q0 -270 225 -270q123 0 199 88q77 89 77 225v645q0 25 23 25h65q23 0 23 -25v-1019q0 -23 -23 -23h-65q-23 0 -23 23v149q-28 -77 -102 -134q-72 -56 -197 -56q-157 0 -235 94q-78 95 -78 262z" />
<glyph unicode="v" horiz-adv-x="849" d="M51 1040q-6 27 19 27h69q21 0 27 -25l182 -634l76 -271h4l74 271l184 634q6 25 27 25h69q25 0 19 -27l-307 -1017q-6 -23 -29 -23h-78q-25 0 -31 23z" />
<glyph unicode="w" horiz-adv-x="1368" d="M68 1040q-6 27 18 27h68q20 0 26 -25l164 -686l47 -225h4l51 225l179 688q6 23 24 23h68q22 0 28 -23l177 -688l51 -225h4l47 225l164 686q6 25 26 25h68q27 0 21 -27l-256 -1017q-6 -23 -31 -23h-76q-25 0 -31 23l-168 651l-55 239h-4l-53 -239l-170 -651 q-6 -23 -31 -23h-76q-22 0 -28 23z" />
<glyph unicode="x" horiz-adv-x="858" d="M52 8q-3 8 3 19l314 514l-306 497q-18 29 11 29h82q14 0 26 -16l248 -418l244 418q12 16 31 16h75q12 0 17 -8q4 -7 -4 -21l-304 -497l314 -514q12 -27 -12 -27h-80q-17 0 -27 16l-256 435l-254 -435q-10 -16 -27 -16h-81q-11 0 -14 8z" />
<glyph unicode="y" horiz-adv-x="854" d="M55 1040q-10 27 17 27h69q18 0 29 -25l195 -641l75 -264h4l72 264l174 641q6 25 27 25h69q25 0 19 -27l-289 -993q-45 -154 -102 -218q-57 -65 -181 -65q-69 0 -118 19q-23 6 -21 24l12 52q6 20 29 18q73 -12 94 -12q88 0 124 67q22 41 22 83q0 28 -10 57z" />
<glyph unicode="z" horiz-adv-x="835" d="M90 23v43q0 12 8 30l498 869h-471q-23 0 -23 22v55q0 25 23 25h588q24 0 24 -25v-43q0 -16 -10 -30l-494 -869h486q24 0 24 -20v-57q0 -23 -24 -23h-606q-23 0 -23 23z" />
<glyph unicode="{" horiz-adv-x="600" d="M78 575v60q0 22 22 22h29q61 0 87 94q26 95 26 310q0 209 42 292t173 83h59q25 0 25 -23v-49q0 -25 -25 -25h-43q-78 0 -102 -64q-25 -67 -25 -231q0 -224 -30 -322t-97 -116q67 -18 97 -117t30 -323q0 -162 25 -231q24 -66 102 -66h43q25 0 25 -23v-49q0 -22 -25 -22 h-59q-131 0 -173 83q-42 82 -42 294q0 213 -26 309q-25 94 -87 94h-29q-22 0 -22 20z" />
<glyph unicode="|" horiz-adv-x="509" d="M203 -203v1655q0 25 22 25h62q22 0 22 -25v-1655q0 -22 -22 -22h-62q-22 0 -22 22z" />
<glyph unicode="}" horiz-adv-x="600" d="M59 -154q0 23 25 23h45q77 0 101 65q24 66 24 232q0 220 31 322q30 100 96 118q-66 18 -96 117q-31 102 -31 321q0 166 -24 231q-24 64 -101 64h-45q-25 0 -25 25v49q0 23 25 23h61q129 0 172 -84q43 -83 43 -291q0 -215 26 -310q26 -94 87 -94h29q20 0 20 -22v-60 q0 -20 -20 -20h-29q-62 0 -87 -94q-26 -96 -26 -309q0 -210 -43 -293q-43 -84 -172 -84h-61q-25 0 -25 22v49z" />
<glyph unicode="~" horiz-adv-x="1064" d="M127 672q43 178 186 178q63 0 181 -47l98 -41q96 -39 141 -39q62 0 96 59q15 22 21 47q7 20 31 9l45 -19q16 -6 10 -31q-39 -176 -184 -176q-70 0 -181 45l-100 43q-87 37 -139 37q-62 0 -99 -59q-12 -23 -18 -47q-8 -19 -31 -8l-45 20q-14 7 -12 29z" />
<glyph unicode="&#xa1;" horiz-adv-x="475" d="M164 903v139q0 25 22 25h105q20 0 20 -25v-139q0 -22 -20 -22h-103q-24 0 -24 22zM170 -203l20 856q0 27 23 27h51q21 0 21 -27l20 -856q0 -22 -22 -22h-88q-25 0 -25 22z" />
<glyph unicode="&#xa2;" horiz-adv-x="843" d="M92 532q0 515 373 553v152q0 25 22 25h48q24 0 24 -25v-152q99 -5 189 -45q22 -10 16 -28l-16 -49q-8 -27 -31 -15q-79 35 -189 35q-162 0 -242 -111q-79 -110 -79 -340q0 -228 78 -338t243 -110q114 0 197 39q24 13 31 -14l16 -50q4 -18 -18 -30q-79 -39 -195 -45v-156 q0 -23 -24 -23h-48q-22 0 -22 23v158q-373 35 -373 546z" />
<glyph unicode="&#xa3;" horiz-adv-x="1132" d="M92 53q-11 17 4 25q258 147 258 377q0 91 -57 225h-184q-21 0 -21 25v47q0 20 21 20h147q-84 196 -84 313q0 165 108 268q107 103 318 103q195 0 293 -91t98 -243q0 -84 -26 -84h-60q-11 0 -18 5q-6 4 -4 16q4 36 4 61q0 103 -71 166q-72 64 -212 64q-153 0 -233 -74 t-80 -195q0 -107 86 -309h342q22 0 22 -20v-47q0 -25 -22 -25h-309q57 -129 57 -229q0 -104 -49 -193q-50 -91 -144 -143q77 28 158 28q73 0 176 -26q107 -27 172 -27q95 0 130 64q34 62 34 172q0 24 25 24h55q25 0 25 -28q0 -155 -53 -246q-53 -90 -191 -90q-90 0 -203 29 q-117 30 -198 30q-143 0 -250 -55q-22 -8 -29 4z" />
<glyph unicode="&#xa4;" d="M129 176q-18 18 0 33l113 113q-64 102 -64 258q0 158 64 256l-113 114q-15 18 0 33l31 31q18 18 33 0l110 -113q95 109 258 109t258 -109l113 113q15 15 31 0l32 -31q18 -15 0 -33l-116 -116q63 -96 63 -254q0 -160 -63 -256l116 -115q18 -18 0 -33l-32 -31 q-16 -15 -31 0l-113 113q-95 -108 -258 -108t-258 108l-110 -113q-15 -18 -33 0zM272 580q0 -167 76 -252q77 -86 213 -86q134 0 211 86q76 85 76 252q0 166 -76 251q-78 87 -211 87q-135 0 -213 -87q-76 -85 -76 -251z" />
<glyph unicode="&#xa5;" horiz-adv-x="1097" d="M59 1409q-15 27 17 27h76q20 0 30 -21l365 -762h4l367 762q12 21 30 21h74q28 0 16 -27l-315 -639h231q25 0 25 -20v-45q0 -23 -25 -23h-272l-74 -152v-53h346q25 0 25 -20v-45q0 -23 -25 -23h-346v-364q0 -25 -24 -25h-70q-25 0 -25 25v364h-348q-20 0 -20 23v45 q0 20 20 20h348v53l-73 152h-275q-20 0 -20 23v45q0 20 20 20h232z" />
<glyph unicode="&#xa6;" horiz-adv-x="509" d="M203 -203v631q0 25 22 25h62q22 0 22 -25v-631q0 -22 -22 -22h-62q-22 0 -22 22zM203 821v631q0 25 22 25h62q22 0 22 -25v-631q0 -22 -22 -22h-62q-22 0 -22 22z" />
<glyph unicode="&#xa7;" horiz-adv-x="1196" d="M184 643q0 103 69 180q68 75 189 90q-98 61 -146 118q-50 59 -50 145q0 139 88 208q90 70 291 70q153 0 293 -39q24 -6 24 -29l-2 -51q-4 -27 -29 -16q-110 35 -272 35q-154 0 -216 -46q-63 -46 -63 -139q0 -79 71 -132q68 -51 239 -130q91 -42 134 -67q48 -28 103 -70 t78 -90q25 -52 25 -109q0 -96 -68 -167q-67 -70 -190 -91q209 -113 209 -268q0 -281 -412 -281q-165 0 -289 33q-24 7 -24 33v49q0 26 28 19q136 -33 275 -33q307 0 307 186q0 29 -9 53q-9 25 -31 48q-17 19 -42 38q-21 17 -56 37q-30 17 -59 31q-24 11 -65 31 q-33 16 -62 28l-96 48q-27 12 -78 42q-52 31 -72 49q-12 11 -47 50q-26 28 -35 63q-10 37 -10 74zM293 647q0 -97 129 -170q50 -27 225 -104q111 6 183 63q73 58 73 129q0 39 -20 72q-22 37 -46 59q-30 29 -81 56q-72 39 -93 49q-37 18 -114 51q-115 -2 -185 -61 q-71 -60 -71 -144z" />
<glyph unicode="&#xa8;" horiz-adv-x="591" d="M84 1221v118q0 23 25 23h71q21 0 21 -23v-118q0 -23 -21 -23h-71q-25 0 -25 23zM389 1221v118q0 23 23 23h71q23 0 23 -23v-118q0 -23 -23 -23h-71q-23 0 -23 23z" />
<glyph unicode="&#xa9;" horiz-adv-x="1548" d="M113 719q0 153 40 282q43 137 118 234q80 102 208 162q127 59 295 59q221 0 373 -103q153 -103 222 -267t69 -367q0 -154 -40 -283q-40 -130 -120 -234q-79 -103 -209 -162q-128 -58 -295 -58t-295 58t-208 162q-76 99 -118 234q-40 129 -40 283zM195 719q0 -186 58 -329 q59 -145 192 -236q136 -93 329 -93t329 93q133 91 192 236t59 329q0 133 -35 252q-35 118 -102 209t-182 144q-113 52 -261 52t-261 -52t-181 -144q-69 -93 -103 -209q-34 -115 -34 -252zM457 721q0 216 91 320q92 106 259 106q97 0 186 -39q22 -8 17 -21l-19 -49 q-6 -19 -22 -12q-53 29 -150 29q-258 0 -258 -334q0 -336 258 -336q96 0 154 29q16 6 22 -11l19 -49q4 -11 -15 -22q-81 -37 -190 -37q-169 0 -260 105q-92 106 -92 321z" />
<glyph unicode="&#xaa;" horiz-adv-x="776" d="M61 1233q0 73 28 127q27 52 72 83q43 30 114 48q73 19 138 23q104 7 160 8v94q0 96 -44 137t-146 41q-112 0 -227 -47q-19 -11 -27 12l-16 51q-4 15 16 25q123 51 256 51q289 0 289 -264v-598q0 -27 -27 -27h-47q-27 0 -27 27v109q-62 -146 -262 -146q-117 0 -184 67 q-66 66 -66 179zM158 1235q0 -164 168 -164q118 0 183 69q64 68 64 175v125q-211 -1 -313 -42q-102 -40 -102 -163z" />
<glyph unicode="&#xab;" horiz-adv-x="702" d="M74 543q0 6 2 14l141 272q6 19 29 19h59q27 0 14 -25l-143 -280l143 -277q12 -24 -14 -24h-59q-22 0 -29 18l-141 272q-2 8 -2 11zM354 543q0 6 2 14l140 272q8 19 28 19h60q30 0 14 -25l-143 -278l143 -279q15 -24 -14 -24h-60q-21 0 -28 18l-140 272q-2 6 -2 11z" />
<glyph unicode="&#xac;" horiz-adv-x="1069" d="M115 694v56q0 22 24 22h746q24 0 24 -22v-400q0 -24 -24 -24h-62q-22 0 -22 24v320h-662q-24 0 -24 24z" />
<glyph unicode="&#xad;" horiz-adv-x="669" d="M82 514v55q0 21 24 21h459q23 0 23 -21v-55q0 -20 -23 -20h-461q-22 0 -22 20z" />
<glyph unicode="&#xae;" horiz-adv-x="858" d="M100 1096q0 153 86 257q85 103 244 103q158 0 243 -103t85 -257q0 -150 -86 -256q-86 -105 -242 -105q-158 0 -244 105q-86 106 -86 256zM154 1096q0 -133 69 -220q70 -88 207 -88q135 0 205 88t70 220t-70 220q-69 87 -205 87q-138 0 -207 -87t-69 -220zM307 913v377 q0 13 15 13h114q154 0 154 -132q0 -111 -96 -127l88 -129q10 -16 -11 -16h-36q-13 0 -19 10l-86 131h-61v-127q0 -14 -13 -14h-34q-15 0 -15 14zM369 1094h59q59 0 79 16q21 16 21 61q0 43 -21 60q-20 16 -77 16h-61v-153z" />
<glyph unicode="&#xaf;" horiz-adv-x="591" d="M47 1233v37q0 22 21 22h454q23 0 23 -22v-37q0 -21 -23 -21h-454q-21 0 -21 21z" />
<glyph unicode="&#xb0;" horiz-adv-x="659" d="M78 1194q0 118 68 190q69 74 186 74q114 0 183 -74q69 -73 69 -190q0 -116 -69 -190t-183 -74q-117 0 -186 74q-68 72 -68 190zM160 1194q0 -85 46 -135q46 -51 126 -51q78 0 123 51t45 135t-45 135t-123 51q-80 0 -126 -51q-46 -50 -46 -135z" />
<glyph unicode="&#xb1;" horiz-adv-x="1067" d="M106 23v45q0 22 23 22h809q23 0 23 -22v-45q0 -23 -23 -23h-809q-23 0 -23 23zM106 715v53q0 20 23 20h350v386q0 24 25 24h59q23 0 23 -24v-386h352q23 0 23 -20v-53q0 -23 -23 -23h-352v-389q0 -22 -23 -22h-59q-25 0 -25 22v389h-350q-23 0 -23 23z" />
<glyph unicode="&#xb2;" horiz-adv-x="712" d="M86 1024v39q0 18 14 29q79 65 133 114q47 42 123 125q75 81 112 157q38 78 38 148q0 158 -162 158q-160 0 -160 -143q0 -3 2 -25t2 -27q0 -24 -24 -24h-47q-21 0 -25 22q-6 18 -6 56q0 104 64 168q63 63 196 63q137 0 199 -66q61 -65 61 -178q0 -246 -373 -548h363 q27 0 27 -27v-41q0 -27 -27 -27h-485q-25 0 -25 27z" />
<glyph unicode="&#xb3;" horiz-adv-x="712" d="M74 1053l14 43q7 24 29 16q87 -35 180 -35q205 0 205 170q0 158 -176 158h-78q-27 0 -27 27v38q0 25 27 25h78q70 0 114 39q43 39 43 117q0 143 -186 143q-64 0 -166 -31q-25 -8 -31 13l-14 45q-4 14 18 26q87 37 201 37q281 0 281 -227q0 -152 -121 -197 q139 -39 139 -213q0 -260 -301 -260q-128 0 -211 39q-22 10 -18 27z" />
<glyph unicode="&#xb4;" horiz-adv-x="591" d="M172 1219l109 176q11 20 36 20h97q12 0 15 -9t-5 -20l-168 -174q-14 -14 -33 -14h-39q-24 0 -12 21z" />
<glyph unicode="&#xb5;" horiz-adv-x="989" d="M133 -203v1245q0 25 25 25h65q23 0 23 -25v-647q0 -136 77 -225q76 -88 199 -88q226 0 226 270v690q0 25 22 25h66q22 0 22 -25v-704q0 -169 -77 -264q-76 -94 -236 -94q-125 0 -196 56q-74 59 -103 134v-373q0 -22 -23 -22h-65q-25 0 -25 22z" />
<glyph unicode="&#xb6;" horiz-adv-x="925" d="M94 1020q0 202 114 309q115 107 316 107h344q25 0 25 -23v-41q0 -22 -25 -22h-71q-62 0 -86 -26q-25 -27 -25 -93v-1241q0 -119 -46 -171t-148 -52q-58 0 -101 14q-18 6 -18 24l4 39q1 21 24 19q6 0 30 -4t44 -4q61 0 85 33q26 35 26 112v606h-56q-197 0 -317 109 q-119 108 -119 305z" />
<glyph unicode="&#xb7;" horiz-adv-x="385" d="M121 465v137q0 25 24 25h95q24 0 24 -25v-137q0 -23 -22 -23h-97q-24 0 -24 23z" />
<glyph unicode="&#xb8;" horiz-adv-x="591" d="M233 16h64q79 -24 128 -75q50 -52 50 -111q0 -123 -162 -123q-48 0 -63 6q-14 4 -14 23v35q0 14 16 14h47q92 0 92 61q0 93 -158 170z" />
<glyph unicode="&#xb9;" horiz-adv-x="712" d="M131 1645q-14 17 4 32l219 187q10 10 33 10h45q25 0 25 -27v-823q0 -27 -25 -27h-49q-25 0 -25 27v715l-163 -135q-20 -14 -37 4z" />
<glyph unicode="&#xba;" horiz-adv-x="808" d="M68 1436q0 221 86 336q86 114 252 114q164 0 249 -114q86 -115 86 -336q0 -220 -86 -335q-85 -114 -249 -114q-166 0 -252 114q-86 115 -86 335zM172 1436q0 -357 234 -357q229 0 229 357q0 358 -229 358q-234 0 -234 -358z" />
<glyph unicode="&#xbb;" horiz-adv-x="702" d="M106 266l142 277l-142 280q-16 25 13 25h61q17 0 25 -19l141 -272q4 -5 4 -14q0 -6 -4 -11l-141 -272q-7 -18 -25 -18h-61q-28 0 -13 24zM385 266l141 277l-141 280q-16 25 12 25h62q15 0 26 -19l140 -272q4 -5 4 -14q0 -6 -4 -11l-140 -272q-11 -18 -26 -18h-62 q-27 0 -12 24z" />
<glyph unicode="&#xbc;" horiz-adv-x="1687" d="M131 1206q-15 18 4 33l219 186q11 11 33 11h45q25 0 25 -27v-823q0 -27 -25 -27h-49q-25 0 -25 27v714l-163 -135q-20 -14 -37 4zM436 25l766 1392q13 19 33 19h65q11 0 16 -8q4 -7 -1 -17l-768 -1391q-14 -20 -31 -20h-65q-27 0 -15 25zM1020 229v39q0 14 12 31l395 559 q16 19 31 19h49q27 0 27 -27v-555h96q25 0 25 -25v-41q0 -26 -25 -26h-96v-176q0 -27 -27 -27h-47q-26 0 -26 27v176h-390q-24 0 -24 26zM1137 295h297v438z" />
<glyph unicode="&#xbd;" horiz-adv-x="1687" d="M131 1206q-15 18 4 33l219 186q11 11 33 11h45q25 0 25 -27v-823q0 -27 -25 -27h-49q-25 0 -25 27v714l-163 -135q-20 -14 -37 4zM354 25l766 1392q13 19 33 19h66q10 0 15 -8q4 -7 -1 -17l-768 -1391q-14 -20 -31 -20h-65q-27 0 -15 25zM1063 27q0 -27 24 -27h486 q26 0 26 27v41q0 26 -26 26h-363q373 302 373 549q0 112 -61 177q-62 67 -199 67q-135 0 -198 -63q-62 -62 -62 -169q0 -37 6 -55q4 -22 25 -22h47q24 0 24 24q0 3 -2 25t-2 26q0 144 160 144q162 0 162 -158q0 -71 -38 -149q-36 -74 -112 -156q-76 -83 -123 -125 q-66 -60 -133 -115q-14 -11 -14 -28v-39z" />
<glyph unicode="&#xbe;" horiz-adv-x="1687" d="M74 614l14 43q8 25 29 17q90 -35 180 -35q205 0 205 170q0 158 -176 158h-78q-27 0 -27 26v39q0 25 27 25h78q70 0 114 39q43 39 43 116q0 144 -186 144q-64 0 -166 -31q-25 -8 -31 12l-14 45q-4 15 18 27q87 37 201 37q281 0 281 -227q0 -152 -121 -197 q139 -39 139 -213q0 -260 -301 -260q-128 0 -211 39q-22 10 -18 26zM465 25l766 1392q13 19 33 19h65q11 0 16 -8q4 -7 -2 -17l-768 -1391q-14 -20 -30 -20h-66q-27 0 -14 25zM1020 229v39q0 14 12 31l395 559q16 19 31 19h49q27 0 27 -27v-555h96q25 0 25 -25v-41 q0 -26 -25 -26h-96v-176q0 -27 -27 -27h-47q-26 0 -26 27v176h-390q-24 0 -24 26zM1137 295h297v438z" />
<glyph unicode="&#xbf;" horiz-adv-x="804" d="M94 57q0 -152 85 -224q87 -73 263 -73q153 0 281 54q26 10 20 26l-20 60q-6 22 -29 14q-129 -47 -233 -47q-133 0 -189 46q-57 47 -57 153q0 72 43 142q46 74 94 121q49 47 94 127q43 76 43 160v39q0 25 -22 25h-70q-22 0 -22 -25v-39q0 -72 -44 -145q-43 -71 -97 -122 q-52 -49 -96 -129t-44 -163zM358 903v139q0 25 23 25h102q23 0 23 -25v-139q0 -22 -23 -22h-102q-23 0 -23 22z" />
<glyph unicode="&#xc0;" d="M55 27l428 1384q8 25 33 25h90q25 0 31 -25l430 -1384q6 -27 -20 -27h-74q-23 0 -29 23l-117 389h-530l-119 -389q-6 -23 -26 -23h-78q-25 0 -19 27zM330 520h463l-230 780h-4zM330 1743q4 10 16 10h94q22 0 37 -24l109 -168q7 -8 2 -16q-4 -7 -17 -7h-41q-16 0 -30 14 l-166 172q-8 8 -4 19z" />
<glyph unicode="&#xc1;" d="M55 27l428 1384q8 25 33 25h90q25 0 31 -25l430 -1384q6 -27 -20 -27h-74q-23 0 -29 23l-117 389h-530l-119 -389q-6 -23 -26 -23h-78q-25 0 -19 27zM330 520h463l-230 780h-4zM532 1545q-4 7 3 16l108 168q17 24 35 24h96q13 0 16 -10t-4 -19l-165 -172q-11 -14 -33 -14 h-39q-13 0 -17 7z" />
<glyph unicode="&#xc2;" d="M55 27l428 1384q8 25 33 25h90q25 0 31 -25l430 -1384q6 -27 -20 -27h-74q-23 0 -29 23l-117 389h-530l-119 -389q-6 -23 -26 -23h-78q-25 0 -19 27zM330 520h463l-230 780h-4zM331 1545q-3 7 5 18l162 174q15 16 34 16h58q21 0 37 -16l161 -174q8 -12 6 -18 q-3 -7 -16 -7h-51q-12 0 -33 14l-131 123l-135 -123q-17 -14 -33 -14h-51q-10 0 -13 7z" />
<glyph unicode="&#xc3;" d="M55 27l428 1384q8 25 33 25h90q25 0 31 -25l430 -1384q6 -27 -20 -27h-74q-23 0 -29 23l-117 389h-530l-119 -389q-6 -23 -26 -23h-78q-25 0 -19 27zM293 1565q0 59 32 97t91 38q57 0 139 -43l51 -27q49 -26 88 -26q52 0 58 51l2 16q0 23 26 23h29q25 0 25 -31 q0 -57 -32 -95t-93 -38q-56 0 -140 39l-53 26q-44 23 -82 23q-55 0 -61 -43l-2 -19q0 -20 -25 -20h-31q-22 0 -22 29zM330 520h463l-230 780h-4z" />
<glyph unicode="&#xc4;" d="M55 27l428 1384q8 25 33 25h90q25 0 31 -25l430 -1384q6 -27 -20 -27h-74q-23 0 -29 23l-117 389h-530l-119 -389q-6 -23 -26 -23h-78q-25 0 -19 27zM330 520h463l-230 780h-4zM346 1561v114q0 23 23 23h75q23 0 23 -23v-114q0 -23 -23 -23h-75q-23 0 -23 23zM657 1561 v114q0 23 23 23h74q24 0 24 -23v-114q0 -23 -24 -23h-74q-23 0 -23 23z" />
<glyph unicode="&#xc5;" d="M55 27l420 1359q-96 40 -96 158q0 79 49 125q50 47 135 47q84 0 134 -47q51 -48 51 -125q0 -116 -103 -160l422 -1357q6 -27 -20 -27h-74q-23 0 -29 23l-117 389h-530l-119 -389q-6 -23 -26 -23h-78q-25 0 -19 27zM330 520h463l-230 780h-4zM449 1544q0 -106 114 -106 q111 0 111 106q0 49 -29 78t-82 29q-54 0 -85 -29q-29 -28 -29 -78z" />
<glyph unicode="&#xc6;" horiz-adv-x="1452" d="M29 27l565 1384q8 25 37 25h696q25 0 25 -23v-63q0 -25 -25 -25h-483v-537h465q26 0 26 -24v-57q0 -25 -26 -25h-465v-571h489q25 0 25 -23v-63q0 -25 -25 -25h-581q-25 0 -25 25v374h-424l-145 -376q-11 -23 -29 -23h-82q-30 0 -18 27zM354 506h371v821h-53z" />
<glyph unicode="&#xc7;" horiz-adv-x="997" d="M102 719q0 380 130 558q131 179 395 179q154 0 256 -51q25 -12 20 -31l-18 -53q-10 -26 -31 -16q-100 41 -213 41q-217 0 -316 -149q-100 -150 -100 -478q0 -331 101 -480t321 -149q114 0 219 45q21 8 31 -18l21 -54q6 -16 -21 -28q-126 -53 -262 -53h-25 q107 -66 107 -160q0 -131 -172 -131q-49 0 -64 6q-18 7 -18 22v37q0 17 18 17h54q94 0 94 63q0 87 -113 156q-209 35 -311 213q-103 180 -103 514z" />
<glyph unicode="&#xc8;" horiz-adv-x="923" d="M152 25v1388q0 23 24 23h625q24 0 24 -23v-61q0 -25 -24 -25h-531v-539h514q25 0 25 -24v-57q0 -25 -25 -25h-514v-573h537q24 0 24 -23v-61q0 -25 -24 -25h-629q-26 0 -26 25zM328 1743q4 10 16 10h94q22 0 37 -24l109 -168q7 -8 2 -16q-4 -7 -17 -7h-41q-16 0 -30 14 l-166 172q-8 8 -4 19z" />
<glyph unicode="&#xc9;" horiz-adv-x="923" d="M152 25v1388q0 23 24 23h625q24 0 24 -23v-61q0 -25 -24 -25h-531v-539h514q25 0 25 -24v-57q0 -25 -25 -25h-514v-573h537q24 0 24 -23v-61q0 -25 -24 -25h-629q-26 0 -26 25zM434 1545q-5 8 2 16l109 168q17 24 35 24h96q12 0 15 -10q3 -11 -3 -19l-166 -172 q-11 -14 -33 -14h-38q-13 0 -17 7z" />
<glyph unicode="&#xca;" horiz-adv-x="923" d="M152 25v1388q0 23 24 23h625q24 0 24 -23v-61q0 -25 -24 -25h-531v-539h514q25 0 25 -24v-57q0 -25 -25 -25h-514v-573h537q24 0 24 -23v-61q0 -25 -24 -25h-629q-26 0 -26 25zM271 1545q-3 7 5 18l162 174q15 16 35 16h57q21 0 37 -16l162 -174q8 -11 5 -18t-15 -7h-51 q-13 0 -33 14l-131 123l-135 -123q-17 -14 -33 -14h-51q-11 0 -14 7z" />
<glyph unicode="&#xcb;" horiz-adv-x="923" d="M152 25v1388q0 23 24 23h625q24 0 24 -23v-61q0 -25 -24 -25h-531v-539h514q25 0 25 -24v-57q0 -25 -25 -25h-514v-573h537q24 0 24 -23v-61q0 -25 -24 -25h-629q-26 0 -26 25zM287 1561v114q0 23 22 23h76q23 0 23 -23v-114q0 -23 -23 -23h-76q-22 0 -22 23zM598 1561 v114q0 23 23 23h73q25 0 25 -23v-114q0 -23 -25 -23h-73q-23 0 -23 23z" />
<glyph unicode="&#xcc;" horiz-adv-x="448" d="M4 1743q4 10 16 10h95q22 0 37 -24l108 -168q7 -8 2 -16q-4 -7 -16 -7h-41q-17 0 -31 14l-166 172q-9 8 -4 19zM166 25v1388q0 23 22 23h70q27 0 27 -23v-1388q0 -25 -27 -25h-70q-22 0 -22 25z" />
<glyph unicode="&#xcd;" horiz-adv-x="448" d="M166 25v1388q0 23 22 23h70q27 0 27 -23v-1388q0 -25 -27 -25h-70q-22 0 -22 25zM186 1545q-5 8 2 16l109 168q17 24 35 24h96q12 0 15 -10q3 -11 -3 -19l-166 -172q-11 -14 -32 -14h-39q-13 0 -17 7z" />
<glyph unicode="&#xce;" horiz-adv-x="448" d="M-9 1545q-3 7 5 18l162 174q15 16 35 16h57q21 0 37 -16l162 -174q8 -11 5 -18t-16 -7h-51q-12 0 -33 14l-131 123l-135 -123q-17 -14 -33 -14h-51q-10 0 -13 7zM166 25v1388q0 23 22 23h70q27 0 27 -23v-1388q0 -25 -27 -25h-70q-22 0 -22 25z" />
<glyph unicode="&#xcf;" horiz-adv-x="448" d="M6 1561v114q0 23 23 23h75q23 0 23 -23v-114q0 -23 -23 -23h-75q-23 0 -23 23zM166 25v1388q0 23 22 23h70q27 0 27 -23v-1388q0 -25 -27 -25h-70q-22 0 -22 25zM317 1561v114q0 23 23 23h74q24 0 24 -23v-114q0 -23 -24 -23h-74q-23 0 -23 23z" />
<glyph unicode="&#xd0;" horiz-adv-x="1146" d="M39 696v45q0 23 22 23h95v649q0 23 24 23h287q292 0 436 -161t144 -556q0 -397 -144 -558t-434 -161h-287q-26 0 -26 25v651h-95q-22 0 -22 20zM274 111h195q154 0 249 50q94 49 150 186q56 138 56 372q0 343 -112 475q-111 131 -345 131h-193v-561h250q21 0 21 -23v-45 q0 -20 -21 -20h-250v-565z" />
<glyph unicode="&#xd1;" horiz-adv-x="1181" d="M152 25v1388q0 23 26 23h68q29 0 37 -19l630 -1204v1200q0 23 25 23h66q24 0 24 -23v-1388q0 -25 -24 -25h-70q-25 0 -35 20l-631 1203v-1198q0 -25 -22 -25h-68q-26 0 -26 25zM322 1565q0 60 31 97q32 38 91 38q58 0 140 -43l51 -27q49 -26 88 -26q51 0 57 51l2 16 q0 23 27 23h29q24 0 24 -31q0 -57 -32 -95t-93 -38q-55 0 -139 39l-53 26q-44 23 -82 23q-56 0 -62 -43l-2 -19q0 -20 -24 -20h-31q-22 0 -22 29z" />
<glyph unicode="&#xd2;" horiz-adv-x="1200" d="M100 719q0 376 125 557q125 180 375 180t375 -180q125 -181 125 -557q0 -379 -125 -558t-375 -179t-375 179t-125 558zM223 719q0 -327 92 -479t285 -152t285 152t92 479q0 325 -92 477t-285 152t-285 -152t-92 -477zM397 1743q4 10 17 10h94q22 0 37 -24l108 -168 q7 -8 2 -16q-4 -7 -16 -7h-41q-17 0 -31 14l-166 172q-9 8 -4 19z" />
<glyph unicode="&#xd3;" horiz-adv-x="1200" d="M100 719q0 376 125 557q125 180 375 180t375 -180q125 -181 125 -557q0 -379 -125 -558t-375 -179t-375 179t-125 558zM223 719q0 -327 92 -479t285 -152t285 152t92 479q0 325 -92 477t-285 152t-285 -152t-92 -477zM555 1545q-5 8 2 16l109 168q16 24 34 24h97 q12 0 15 -10q3 -11 -3 -19l-166 -172q-11 -14 -33 -14h-39q-12 0 -16 7z" />
<glyph unicode="&#xd4;" horiz-adv-x="1200" d="M100 719q0 376 125 557q125 180 375 180t375 -180q125 -181 125 -557q0 -379 -125 -558t-375 -179t-375 179t-125 558zM223 719q0 -327 92 -479t285 -152t285 152t92 479q0 325 -92 477t-285 152t-285 -152t-92 -477zM368 1545q-3 7 5 18l162 174q15 16 34 16h58 q21 0 37 -16l161 -174q8 -11 5 -18t-15 -7h-51q-12 0 -33 14l-131 123l-135 -123q-17 -14 -33 -14h-51q-10 0 -13 7z" />
<glyph unicode="&#xd5;" horiz-adv-x="1200" d="M100 719q0 376 125 557q125 180 375 180t375 -180q125 -181 125 -557q0 -379 -125 -558t-375 -179t-375 179t-125 558zM223 719q0 -327 92 -479t285 -152t285 152t92 479q0 325 -92 477t-285 152t-285 -152t-92 -477zM330 1565q0 60 31 97q32 38 92 38q57 0 139 -43 l51 -27q49 -26 88 -26q51 0 57 51l3 16q0 23 26 23h29q24 0 24 -31q0 -58 -31 -95q-32 -38 -94 -38q-55 0 -139 39l-53 26q-44 23 -82 23q-55 0 -61 -43l-2 -19q0 -20 -25 -20h-31q-22 0 -22 29z" />
<glyph unicode="&#xd6;" horiz-adv-x="1200" d="M100 719q0 376 125 557q125 180 375 180t375 -180q125 -181 125 -557q0 -379 -125 -558t-375 -179t-375 179t-125 558zM223 719q0 -327 92 -479t285 -152t285 152t92 479q0 325 -92 477t-285 152t-285 -152t-92 -477zM383 1561v114q0 23 23 23h75q23 0 23 -23v-114 q0 -23 -23 -23h-75q-23 0 -23 23zM694 1561v114q0 23 23 23h74q24 0 24 -23v-114q0 -23 -24 -23h-74q-23 0 -23 23z" />
<glyph unicode="&#xd7;" horiz-adv-x="1067" d="M143 399l320 318l-320 317q-17 21 0 33l41 37q18 15 33 0l315 -316l318 316q15 15 33 0l37 -37q18 -15 0 -33l-316 -317l316 -318q14 -16 0 -30l-37 -41q-15 -16 -33 2l-318 315l-315 -317q-17 -16 -33 0l-39 41q-15 17 -2 30z" />
<glyph unicode="&#xd8;" horiz-adv-x="1208" d="M74 78l112 158q-80 171 -80 483q0 380 124 558q125 179 374 179q238 0 359 -168l92 125q15 20 30 8l41 -32q16 -12 4 -33l-110 -156q82 -185 82 -481q0 -380 -124 -558q-125 -179 -374 -179q-244 0 -360 165l-94 -129q-15 -18 -31 -4l-41 33q-18 15 -4 31zM227 719 q0 -253 47 -379l613 852q-90 156 -283 156t-285 -152t-92 -477zM319 242q50 -79 118 -117q65 -37 167 -37q193 0 285 152t92 479q0 237 -49 377z" />
<glyph unicode="&#xd9;" horiz-adv-x="1150" d="M143 457v956q0 23 25 23h68q26 0 26 -23v-946q0 -194 73 -287q72 -92 240 -92q169 0 241 92q73 93 73 287v946q0 23 24 23h70q23 0 23 -23v-956q0 -241 -104 -360q-102 -117 -327 -117q-223 0 -327 117q-105 119 -105 360zM383 1743q4 10 16 10h95q21 0 36 -24l109 -168 q7 -8 2 -16q-4 -7 -16 -7h-41q-17 0 -31 14l-166 172q-9 8 -4 19z" />
<glyph unicode="&#xda;" horiz-adv-x="1150" d="M143 457v956q0 23 25 23h68q26 0 26 -23v-946q0 -194 73 -287q72 -92 240 -92q169 0 241 92q73 93 73 287v946q0 23 24 23h70q23 0 23 -23v-956q0 -241 -104 -360q-102 -117 -327 -117q-223 0 -327 117q-105 119 -105 360zM510 1545q-5 8 2 16l109 168q17 24 34 24h97 q12 0 15 -10q3 -11 -3 -19l-166 -172q-11 -14 -33 -14h-39q-12 0 -16 7z" />
<glyph unicode="&#xdb;" horiz-adv-x="1150" d="M143 457v956q0 23 25 23h68q26 0 26 -23v-946q0 -194 73 -287q72 -92 240 -92q169 0 241 92q73 93 73 287v946q0 23 24 23h70q23 0 23 -23v-956q0 -241 -104 -360q-102 -117 -327 -117q-223 0 -327 117q-105 119 -105 360zM343 1545q-3 7 5 18l162 174q15 16 35 16h57 q21 0 37 -16l162 -174q8 -11 5 -18t-15 -7h-52q-11 0 -32 14l-132 123l-135 -123q-17 -14 -32 -14h-52q-10 0 -13 7z" />
<glyph unicode="&#xdc;" horiz-adv-x="1150" d="M143 457v956q0 23 25 23h68q26 0 26 -23v-946q0 -194 73 -287q72 -92 240 -92q169 0 241 92q73 93 73 287v946q0 23 24 23h70q23 0 23 -23v-956q0 -241 -104 -360q-102 -117 -327 -117q-223 0 -327 117q-105 119 -105 360zM358 1561v114q0 23 23 23h76q22 0 22 -23v-114 q0 -23 -22 -23h-76q-23 0 -23 23zM670 1561v114q0 23 22 23h74q25 0 25 -23v-114q0 -23 -25 -23h-74q-22 0 -22 23z" />
<glyph unicode="&#xdd;" horiz-adv-x="1069" d="M61 1409q-12 27 17 27h78q20 0 30 -21l250 -532l96 -226h3l100 226l248 532q11 21 32 21h76q25 0 17 -27l-412 -860v-524q0 -25 -27 -25h-69q-23 0 -23 25v524zM487 1545q-5 8 2 16l109 168q16 24 35 24h96q12 0 15 -10q3 -11 -3 -19l-166 -172q-11 -14 -32 -14h-39 q-13 0 -17 7z" />
<glyph unicode="&#xde;" horiz-adv-x="1026" d="M152 25v1388q0 23 26 23h68q24 0 24 -23v-147h176q252 0 365 -107t113 -356q0 -248 -113 -356q-111 -107 -362 -107h-179v-315q0 -25 -24 -25h-70q-24 0 -24 25zM270 449h179q192 0 274 79t82 277q0 194 -82 273t-274 79h-179v-708z" />
<glyph unicode="&#xdf;" horiz-adv-x="1048" d="M137 23v1083q0 174 103 260t274 86q172 0 257 -76t85 -186q0 -64 -26 -114q-27 -53 -61 -81q-39 -33 -73 -57q-37 -27 -62 -53q-26 -28 -26 -54q0 -30 37 -64q37 -35 90 -72q57 -41 107 -85q52 -46 90 -125q37 -77 37 -174q0 -174 -92 -248q-91 -73 -267 -73 q-59 0 -118 10q-31 6 -31 27v47q0 24 24 20q53 -8 113 -8q256 0 256 233q0 101 -56 179q-57 80 -123 123q-69 46 -123 98q-56 55 -56 108q0 47 39 91q38 42 86 70q45 26 86 78q38 48 38 110q0 74 -57 126q-56 52 -178 52q-115 0 -187 -63q-73 -64 -73 -197v-1071 q0 -23 -23 -23h-65q-25 0 -25 23z" />
<glyph unicode="&#xe0;" horiz-adv-x="929" d="M74 287q0 89 31 151q31 63 82 101q47 35 135 59t168 32q91 10 204 11v109q0 124 -54 181q-53 56 -179 56q-133 0 -277 -55q-20 -10 -26 14l-15 53q-6 18 17 29q127 59 309 59q175 0 254 -82q80 -83 80 -251v-731q0 -23 -25 -23h-59q-23 0 -23 23v155q-80 -192 -325 -192 q-143 0 -220 81q-77 82 -77 220zM182 291q0 -98 51 -155q50 -56 156 -56q143 0 224 89t81 222v160q-81 -1 -166 -7q-60 -4 -138 -22q-72 -17 -112 -43q-42 -28 -68 -73q-28 -48 -28 -115zM273 1406q3 9 18 9h94q26 0 37 -20l108 -176q12 -21 -12 -21h-41q-17 0 -31 14 l-167 174q-9 12 -6 20z" />
<glyph unicode="&#xe1;" horiz-adv-x="929" d="M74 287q0 89 31 151q31 63 82 101q47 35 135 59t168 32q91 10 204 11v109q0 124 -54 181q-53 56 -179 56q-133 0 -277 -55q-20 -10 -26 14l-15 53q-6 18 17 29q127 59 309 59q175 0 254 -82q80 -83 80 -251v-731q0 -23 -25 -23h-59q-23 0 -23 23v155q-80 -192 -325 -192 q-143 0 -220 81q-77 82 -77 220zM182 291q0 -98 51 -155q50 -56 156 -56q143 0 224 89t81 222v160q-81 -1 -166 -7q-60 -4 -138 -22q-72 -17 -112 -43q-42 -28 -68 -73q-28 -48 -28 -115zM397 1219l109 176q11 20 37 20h96q12 0 15 -9t-5 -20l-168 -174q-14 -14 -32 -14h-39 q-25 0 -13 21z" />
<glyph unicode="&#xe2;" horiz-adv-x="929" d="M74 287q0 89 31 151q31 63 82 101q47 35 135 59t168 32q91 10 204 11v109q0 124 -54 181q-53 56 -179 56q-133 0 -277 -55q-20 -10 -26 14l-15 53q-6 18 17 29q127 59 309 59q175 0 254 -82q80 -83 80 -251v-731q0 -23 -25 -23h-59q-23 0 -23 23v155q-80 -192 -325 -192 q-143 0 -220 81q-77 82 -77 220zM182 291q0 -98 51 -155q50 -56 156 -56q143 0 224 89t81 222v160q-81 -1 -166 -7q-60 -4 -138 -22q-72 -17 -112 -43q-42 -28 -68 -73q-28 -48 -28 -115zM230 1205q-3 7 6 16l163 184q16 16 35 16h58q20 0 36 -16l164 -184q6 -7 4 -16 q-1 -7 -14 -7h-51q-16 0 -31 14l-135 134l-137 -134q-15 -14 -31 -14h-51q-13 0 -16 7z" />
<glyph unicode="&#xe3;" horiz-adv-x="929" d="M74 287q0 89 31 151q31 63 82 101q47 35 135 59t168 32q91 10 204 11v109q0 124 -54 181q-53 56 -179 56q-133 0 -277 -55q-20 -10 -26 14l-15 53q-6 18 17 29q127 59 309 59q175 0 254 -82q80 -83 80 -251v-731q0 -23 -25 -23h-59q-23 0 -23 23v155q-80 -192 -325 -192 q-143 0 -220 81q-77 82 -77 220zM182 291q0 -98 51 -155q50 -56 156 -56q143 0 224 89t81 222v160q-81 -1 -166 -7q-60 -4 -138 -22q-72 -17 -112 -43q-42 -28 -68 -73q-28 -48 -28 -115zM207 1229q0 56 29 93q29 36 83 36t138 -41l51 -25q53 -24 80 -24q45 0 51 47l2 16 q1 21 25 21h32q21 0 21 -31q0 -55 -29 -90t-84 -35q-64 0 -137 39l-49 25q-45 24 -74 24q-49 0 -57 -47l-2 -18q-5 -19 -27 -19h-31q-22 0 -22 29z" />
<glyph unicode="&#xe4;" horiz-adv-x="929" d="M74 287q0 89 31 151q31 63 82 101q47 35 135 59t168 32q91 10 204 11v109q0 124 -54 181q-53 56 -179 56q-133 0 -277 -55q-20 -10 -26 14l-15 53q-6 18 17 29q127 59 309 59q175 0 254 -82q80 -83 80 -251v-731q0 -23 -25 -23h-59q-23 0 -23 23v155q-80 -192 -325 -192 q-143 0 -220 81q-77 82 -77 220zM182 291q0 -98 51 -155q50 -56 156 -56q143 0 224 89t81 222v160q-81 -1 -166 -7q-60 -4 -138 -22q-72 -17 -112 -43q-42 -28 -68 -73q-28 -48 -28 -115zM252 1221v118q0 23 24 23h72q21 0 21 -23v-118q0 -23 -21 -23h-72q-24 0 -24 23z M557 1221v118q0 23 23 23h71q23 0 23 -23v-118q0 -23 -23 -23h-71q-23 0 -23 23z" />
<glyph unicode="&#xe5;" horiz-adv-x="929" d="M74 287q0 89 31 151q31 63 82 101q47 35 135 59t168 32q91 10 204 11v109q0 124 -54 181q-53 56 -179 56q-133 0 -277 -55q-20 -10 -26 14l-15 53q-6 18 17 29q127 59 309 59q175 0 254 -82q80 -83 80 -251v-731q0 -23 -25 -23h-59q-23 0 -23 23v155q-80 -192 -325 -192 q-143 0 -220 81q-77 82 -77 220zM182 291q0 -98 51 -155q50 -56 156 -56q143 0 224 89t81 222v160q-81 -1 -166 -7q-60 -4 -138 -22q-72 -17 -112 -43q-42 -28 -68 -73q-28 -48 -28 -115zM281 1354q0 77 49 123q50 47 133 47q84 0 134 -47t50 -123q0 -79 -49 -125 q-50 -47 -133 -47q-85 0 -135 47q-49 46 -49 125zM350 1354q0 -107 115 -107q110 0 110 107q0 104 -112 104q-53 0 -83 -27t-30 -77z" />
<glyph unicode="&#xe6;" horiz-adv-x="1503" d="M74 279q0 84 30 144q29 58 79 94q46 33 133 53q89 20 166 26q89 7 204 8v146q0 122 -56 179q-57 58 -175 58q-124 0 -273 -55q-20 -7 -26 14l-17 53q-6 21 19 29q145 59 297 59q264 0 307 -200q73 200 305 200q174 0 260 -128t86 -347v-88q0 -22 -24 -22h-596 q12 -424 321 -424q117 0 213 45q25 8 31 -14l16 -50q6 -15 -18 -30q-98 -49 -246 -49q-144 0 -237 68q-95 69 -128 188q-38 -116 -129 -183t-229 -67q-156 0 -234 77q-79 78 -79 216zM182 281q0 -94 52 -146q53 -53 161 -53q139 0 215 88t76 223v117q-12 0 -141 -4 q-39 -1 -119 -10q-65 -7 -103 -23q-35 -14 -73 -39q-37 -24 -52 -63q-16 -42 -16 -90zM791 596h514v18q0 375 -244 375q-258 0 -270 -393z" />
<glyph unicode="&#xe7;" horiz-adv-x="808" d="M90 535q0 270 103 412q101 140 303 140q130 0 219 -40q24 -12 18 -33l-18 -49q-8 -28 -33 -15q-74 33 -174 33q-155 0 -229 -110t-74 -338q0 -451 301 -451q110 0 188 39q21 11 29 -12l18 -54q4 -16 -20 -28q-91 -47 -215 -47h-23q103 -62 103 -152q0 -123 -162 -123 q-49 0 -64 6q-14 4 -14 23v35q0 14 16 14h48q92 0 92 61q0 81 -119 150q-293 78 -293 539z" />
<glyph unicode="&#xe8;" horiz-adv-x="933" d="M90 535q0 270 99 411t292 141q184 0 276 -134q91 -133 91 -365v-82q0 -25 -27 -25h-620q12 -403 336 -403q123 0 219 45q25 12 32 -14l15 -48q6 -22 -19 -30q-112 -51 -254 -51q-440 0 -440 555zM201 575h536v19q0 395 -256 395q-268 0 -280 -414zM275 1406q3 9 18 9h94 q26 0 37 -20l108 -176q12 -21 -12 -21h-41q-16 0 -30 14l-168 174q-9 12 -6 20z" />
<glyph unicode="&#xe9;" horiz-adv-x="933" d="M90 535q0 270 99 411t292 141q184 0 276 -134q91 -133 91 -365v-82q0 -25 -27 -25h-620q12 -403 336 -403q123 0 219 45q25 12 32 -14l15 -48q6 -22 -19 -30q-112 -51 -254 -51q-440 0 -440 555zM201 575h536v19q0 395 -256 395q-268 0 -280 -414zM414 1219l108 176 q11 20 37 20h96q13 0 16 -9t-5 -20l-168 -174q-14 -14 -33 -14h-39q-24 0 -12 21z" />
<glyph unicode="&#xea;" horiz-adv-x="933" d="M90 535q0 270 99 411t292 141q184 0 276 -134q91 -133 91 -365v-82q0 -25 -27 -25h-620q12 -403 336 -403q123 0 219 45q25 12 32 -14l15 -48q6 -22 -19 -30q-112 -51 -254 -51q-440 0 -440 555zM201 575h536v19q0 395 -256 395q-268 0 -280 -414zM245 1205q-3 8 5 16 l164 184q16 16 35 16h57q21 0 37 -16l164 -184q6 -7 4 -16q-1 -7 -15 -7h-51q-16 0 -31 14l-135 134l-137 -134q-15 -14 -31 -14h-51q-12 0 -15 7z" />
<glyph unicode="&#xeb;" horiz-adv-x="933" d="M90 535q0 270 99 411t292 141q184 0 276 -134q91 -133 91 -365v-82q0 -25 -27 -25h-620q12 -403 336 -403q123 0 219 45q25 12 32 -14l15 -48q6 -22 -19 -30q-112 -51 -254 -51q-440 0 -440 555zM201 575h536v19q0 395 -256 395q-268 0 -280 -414zM266 1221v118 q0 23 25 23h71q21 0 21 -23v-118q0 -23 -21 -23h-71q-25 0 -25 23zM571 1221v118q0 23 23 23h72q22 0 22 -23v-118q0 -23 -22 -23h-72q-23 0 -23 23z" />
<glyph unicode="&#xec;" horiz-adv-x="397" d="M-19 1406q3 9 17 9h94q26 0 37 -20l109 -176q12 -21 -13 -21h-41q-16 0 -30 14l-168 174q-8 11 -5 20zM143 23v1019q0 25 25 25h63q23 0 23 -25v-1019q0 -23 -23 -23h-63q-25 0 -25 23z" />
<glyph unicode="&#xed;" horiz-adv-x="397" d="M143 23v1019q0 25 25 25h63q23 0 23 -25v-1019q0 -23 -23 -23h-63q-25 0 -25 23zM162 1219l108 176q11 20 37 20h96q13 0 16 -9t-5 -20l-168 -174q-14 -14 -33 -14h-39q-24 0 -12 21z" />
<glyph unicode="&#xee;" horiz-adv-x="397" d="M-34 1205q-3 8 5 16l164 184q16 16 35 16h57q21 0 37 -16l164 -184q6 -7 4 -16q-1 -7 -14 -7h-51q-16 0 -31 14l-135 134l-138 -134q-15 -14 -30 -14h-51q-13 0 -16 7zM143 23v1019q0 25 25 25h63q23 0 23 -25v-1019q0 -23 -23 -23h-63q-25 0 -25 23z" />
<glyph unicode="&#xef;" horiz-adv-x="397" d="M-12 1221v118q0 23 24 23h72q20 0 20 -23v-118q0 -23 -20 -23h-72q-24 0 -24 23zM143 23v1019q0 25 25 25h63q23 0 23 -25v-1019q0 -23 -23 -23h-63q-25 0 -25 23zM293 1221v118q0 23 22 23h72q23 0 23 -23v-118q0 -23 -23 -23h-72q-22 0 -22 23z" />
<glyph unicode="&#xf0;" horiz-adv-x="989" d="M90 535q0 268 103 410q101 140 296 140q156 0 234 -90q-39 105 -121 219h-235q-23 0 -23 21v31q0 20 23 20h180q-26 34 -129 125q-10 7 -7 16q4 9 15 9h72q21 0 37 -13q78 -74 124 -137h164q23 0 23 -20v-31q0 -21 -23 -21h-114q190 -290 190 -679q0 -272 -102 -413 q-101 -140 -303 -140q-200 0 -301 140q-103 142 -103 413zM205 535q0 -453 289 -453q290 0 290 453q0 452 -290 452q-289 0 -289 -452z" />
<glyph unicode="&#xf1;" horiz-adv-x="995" d="M133 23v1019q0 25 23 25h63q23 0 23 -23l2 -147q34 77 111 134q75 56 200 56q155 0 233 -93t78 -257v-714q0 -23 -24 -23h-64q-22 0 -22 23v702q0 258 -224 258q-129 0 -208 -88q-80 -89 -80 -225v-647q0 -23 -23 -23h-65q-23 0 -23 23zM242 1229q0 58 28 93q28 36 84 36 q54 0 138 -41l51 -25q53 -24 80 -24q45 0 51 47l2 16q2 21 24 21h33q21 0 21 -31q0 -55 -29 -90t-84 -35q-63 0 -137 39l-49 25q-47 24 -74 24q-49 0 -57 -47l-2 -18q-2 -19 -27 -19h-31q-22 0 -22 29z" />
<glyph unicode="&#xf2;" horiz-adv-x="989" d="M90 535q0 -271 103 -413q101 -140 301 -140q199 0 302 140t103 413q0 272 -103 412t-302 140q-200 0 -301 -140q-103 -142 -103 -412zM205 535q0 452 289 452q290 0 290 -452q0 -453 -290 -453q-289 0 -289 453zM296 1406q3 9 17 9h95q25 0 36 -20l109 -176 q12 -21 -12 -21h-41q-17 0 -31 14l-168 174q-8 11 -5 20z" />
<glyph unicode="&#xf3;" horiz-adv-x="989" d="M90 535q0 -271 103 -413q101 -140 301 -140q199 0 302 140t103 413q0 272 -103 412t-302 140q-200 0 -301 -140q-103 -142 -103 -412zM205 535q0 452 289 452q290 0 290 -452q0 -453 -290 -453q-289 0 -289 453zM434 1219l109 176q11 20 37 20h96q12 0 15 -9t-5 -20 l-168 -174q-14 -14 -33 -14h-39q-24 0 -12 21z" />
<glyph unicode="&#xf4;" horiz-adv-x="989" d="M90 535q0 -271 103 -413q101 -140 301 -140q199 0 302 140t103 413q0 272 -103 412t-302 140q-200 0 -301 -140q-103 -142 -103 -412zM205 535q0 452 289 452q290 0 290 -452q0 -453 -290 -453q-289 0 -289 453zM261 1205q-3 8 5 16l164 184q16 16 35 16h57q21 0 37 -16 l164 -184q6 -7 4 -16q-1 -7 -14 -7h-51q-16 0 -31 14l-135 134l-138 -134q-15 -14 -30 -14h-52q-12 0 -15 7z" />
<glyph unicode="&#xf5;" horiz-adv-x="989" d="M90 535q0 270 103 412q101 140 301 140q199 0 302 -140t103 -412q0 -273 -103 -413t-302 -140q-200 0 -301 140q-103 142 -103 413zM205 535q0 -453 289 -453q290 0 290 453q0 452 -290 452q-289 0 -289 -452zM238 1229q0 58 28 93q28 36 84 36q53 0 137 -41l52 -25 q51 -24 79 -24q46 0 52 47l2 16q2 21 24 21h33q21 0 21 -31q0 -55 -29 -90t-84 -35q-63 0 -137 39l-49 25q-45 24 -74 24q-50 0 -58 -47l-2 -18q-2 -19 -26 -19h-31q-22 0 -22 29z" />
<glyph unicode="&#xf6;" horiz-adv-x="989" d="M90 535q0 -271 103 -413q101 -140 301 -140q199 0 302 140t103 413q0 272 -103 412t-302 140q-200 0 -301 -140q-103 -142 -103 -412zM205 535q0 452 289 452q290 0 290 -452q0 -453 -290 -453q-289 0 -289 453zM283 1221v118q0 23 24 23h72q20 0 20 -23v-118 q0 -23 -20 -23h-72q-24 0 -24 23zM588 1221v118q0 23 22 23h72q23 0 23 -23v-118q0 -23 -23 -23h-72q-22 0 -22 23z" />
<glyph unicode="&#xf7;" horiz-adv-x="1067" d="M117 692v51q0 25 22 25h787q22 0 22 -25v-51q0 -22 -22 -22h-789q-20 0 -20 22zM463 313v133q0 25 22 25h97q22 0 22 -25v-133q0 -24 -22 -24h-97q-22 0 -22 24zM463 987v135q0 25 22 25h97q22 0 22 -25v-135q0 -22 -22 -22h-97q-22 0 -22 22z" />
<glyph unicode="&#xf8;" horiz-adv-x="997" d="M94 535q0 270 103 412q101 140 301 140q175 0 274 -108l53 78q15 22 35 6l27 -21q16 -12 6 -26l-70 -103q80 -131 80 -378q0 -273 -103 -413t-302 -140q-172 0 -271 106l-55 -80q-15 -22 -35 -6l-24 23q-19 19 -9 30l70 101q-80 130 -80 379zM209 535q0 -189 41 -285 l452 641q-68 96 -204 96q-289 0 -289 -452zM297 176q72 -94 201 -94q290 0 290 453q0 183 -40 282z" />
<glyph unicode="&#xf9;" horiz-adv-x="983" d="M125 338v704q0 25 25 25h63q23 0 23 -25v-688q0 -270 225 -270q123 0 199 88q77 89 77 225v645q0 25 23 25h65q23 0 23 -25v-1019q0 -23 -23 -23h-65q-23 0 -23 23v149q-28 -77 -102 -134q-72 -56 -197 -56q-157 0 -235 94q-78 95 -78 262zM298 1406q3 9 17 9h95 q25 0 36 -20l109 -176q12 -21 -12 -21h-41q-17 0 -31 14l-168 174q-8 11 -5 20z" />
<glyph unicode="&#xfa;" horiz-adv-x="983" d="M125 338v704q0 25 25 25h63q23 0 23 -25v-688q0 -270 225 -270q123 0 199 88q77 89 77 225v645q0 25 23 25h65q23 0 23 -25v-1019q0 -23 -23 -23h-65q-23 0 -23 23v149q-28 -77 -102 -134q-72 -56 -197 -56q-157 0 -235 94q-78 95 -78 262zM426 1219l109 176q11 20 36 20 h97q12 0 15 -9t-5 -20l-168 -174q-14 -14 -33 -14h-39q-24 0 -12 21z" />
<glyph unicode="&#xfb;" horiz-adv-x="983" d="M125 338v704q0 25 25 25h63q23 0 23 -25v-688q0 -270 225 -270q123 0 199 88q77 89 77 225v645q0 25 23 25h65q23 0 23 -25v-1019q0 -23 -23 -23h-65q-23 0 -23 23v149q-28 -77 -102 -134q-72 -56 -197 -56q-157 0 -235 94q-78 95 -78 262zM259 1205q-3 8 5 16l164 184 q16 16 35 16h57q21 0 37 -16l164 -184q6 -7 4 -16q-1 -7 -14 -7h-52q-15 0 -30 14l-135 134l-138 -134q-15 -14 -30 -14h-52q-12 0 -15 7z" />
<glyph unicode="&#xfc;" horiz-adv-x="983" d="M125 338v704q0 25 25 25h63q23 0 23 -25v-688q0 -270 225 -270q123 0 199 88q77 89 77 225v645q0 25 23 25h65q23 0 23 -25v-1019q0 -23 -23 -23h-65q-23 0 -23 23v149q-28 -77 -102 -134q-72 -56 -197 -56q-157 0 -235 94q-78 95 -78 262zM281 1221v118q0 23 24 23h72 q20 0 20 -23v-118q0 -23 -20 -23h-72q-24 0 -24 23zM586 1221v118q0 23 22 23h72q22 0 22 -23v-118q0 -23 -22 -23h-72q-22 0 -22 23z" />
<glyph unicode="&#xfd;" horiz-adv-x="854" d="M55 1040q-10 27 17 27h69q18 0 29 -25l195 -641l75 -264h4l72 264l174 641q6 25 27 25h69q25 0 19 -27l-289 -993q-45 -154 -102 -218q-57 -65 -181 -65q-69 0 -118 19q-23 6 -21 24l12 52q6 20 29 18q73 -12 94 -12q88 0 124 67q36 68 12 140zM373 1219l108 176 q11 20 37 20h96q13 0 16 -9t-5 -20l-168 -174q-14 -14 -33 -14h-39q-24 0 -12 21z" />
<glyph unicode="&#xfe;" horiz-adv-x="1034" d="M137 -203v1616q0 23 25 23h65q23 0 23 -23v-536q33 95 118 154q81 56 197 56q185 0 282 -141q97 -140 97 -411q0 -273 -97 -413t-282 -140q-117 0 -199 54q-83 55 -116 154v-393q0 -22 -23 -22h-65q-25 0 -25 22zM250 535q0 -453 297 -453q282 0 282 453q0 452 -282 452 q-144 0 -221 -115q-76 -113 -76 -337z" />
<glyph unicode="&#xff;" horiz-adv-x="854" d="M55 1040q-10 27 17 27h69q18 0 29 -25l195 -641l75 -264h4l72 264l174 641q6 25 27 25h69q25 0 19 -27l-289 -993q-45 -154 -102 -218q-57 -65 -181 -65q-69 0 -118 19q-23 6 -21 24l12 52q6 20 29 18q73 -12 94 -12q88 0 124 67q36 68 12 140zM215 1221v118q0 23 25 23 h71q21 0 21 -23v-118q0 -23 -21 -23h-71q-25 0 -25 23zM520 1221v118q0 23 23 23h71q23 0 23 -23v-118q0 -23 -23 -23h-71q-23 0 -23 23z" />
<glyph unicode="&#x152;" horiz-adv-x="1583" d="M139 719q0 395 144 556t434 161h743q25 0 25 -23v-63q0 -25 -25 -25h-502v-537h486q22 0 22 -24v-57q0 -25 -22 -25h-486v-571h508q25 0 25 -23v-63q0 -25 -25 -25h-751q-290 0 -433 161t-143 558zM260 719q0 -177 30 -299t90 -189q60 -68 140 -95t195 -27h129v1216h-127 q-231 0 -344 -131t-113 -475z" />
<glyph unicode="&#x153;" horiz-adv-x="1579" d="M90 535q0 271 100 411q100 141 291 141q253 0 336 -243q79 243 320 243q174 0 264 -133q90 -134 90 -356v-82q0 -22 -25 -22h-598q12 -416 324 -416q115 0 211 45q23 8 33 -14l16 -50q6 -18 -16 -28q-117 -51 -250 -51q-281 0 -369 249q-79 -247 -336 -247 q-191 0 -291 141q-100 140 -100 412zM205 535q0 -453 276 -453q279 0 279 453q0 452 -279 452q-276 0 -276 -452zM868 588h512v16q0 385 -241 385q-261 0 -271 -401z" />
<glyph unicode="&#x178;" horiz-adv-x="1069" d="M61 1409q-12 27 17 27h78q20 0 30 -21l250 -532l96 -226h3l100 226l248 532q11 21 32 21h76q25 0 17 -27l-412 -860v-524q0 -25 -27 -25h-69q-23 0 -23 25v524zM319 1561v114q0 23 23 23h76q22 0 22 -23v-114q0 -23 -22 -23h-76q-23 0 -23 23zM631 1561v114q0 23 22 23 h74q25 0 25 -23v-114q0 -23 -25 -23h-74q-22 0 -22 23z" />
<glyph unicode="&#x2c6;" horiz-adv-x="591" d="M62 1205q-3 7 6 16l163 184q16 16 35 16h58q20 0 36 -16l164 -184q6 -7 4 -16q-1 -7 -14 -7h-51q-16 0 -31 14l-135 134l-137 -134q-15 -14 -31 -14h-51q-13 0 -16 7z" />
<glyph unicode="&#x2dc;" horiz-adv-x="591" d="M39 1229q0 56 29 93q28 36 84 36q53 0 137 -41l51 -25q52 -24 80 -24q45 0 51 47l2 16q1 21 25 21h32q21 0 21 -31q0 -55 -29 -90t-84 -35q-64 0 -137 39l-49 25q-45 24 -74 24q-49 0 -57 -47l-2 -18q-5 -19 -27 -19h-31q-22 0 -22 29z" />
<glyph unicode="&#x2000;" horiz-adv-x="943" />
<glyph unicode="&#x2001;" horiz-adv-x="1886" />
<glyph unicode="&#x2002;" horiz-adv-x="943" />
<glyph unicode="&#x2003;" horiz-adv-x="1886" />
<glyph unicode="&#x2004;" horiz-adv-x="628" />
<glyph unicode="&#x2005;" horiz-adv-x="471" />
<glyph unicode="&#x2006;" horiz-adv-x="314" />
<glyph unicode="&#x2007;" horiz-adv-x="314" />
<glyph unicode="&#x2008;" horiz-adv-x="235" />
<glyph unicode="&#x2009;" horiz-adv-x="377" />
<glyph unicode="&#x200a;" horiz-adv-x="104" />
<glyph unicode="&#x2010;" horiz-adv-x="671" d="M82 514v55q0 21 24 21h459q23 0 23 -21v-55q0 -20 -23 -20h-461q-22 0 -22 20z" />
<glyph unicode="&#x2011;" horiz-adv-x="671" d="M82 514v55q0 21 24 21h459q23 0 23 -21v-55q0 -20 -23 -20h-461q-22 0 -22 20z" />
<glyph unicode="&#x2012;" horiz-adv-x="671" d="M82 514v55q0 21 24 21h459q23 0 23 -21v-55q0 -20 -23 -20h-461q-22 0 -22 20z" />
<glyph unicode="&#x2013;" horiz-adv-x="894" d="M84 514v55q0 21 20 21h684q23 0 23 -21v-55q0 -20 -23 -20h-684q-20 0 -20 20z" />
<glyph unicode="&#x2014;" horiz-adv-x="1312" d="M84 514v55q0 21 20 21h1100q27 0 27 -21v-55q0 -20 -27 -20h-1100q-20 0 -20 20z" />
<glyph unicode="&#x2018;" horiz-adv-x="366" d="M115 1075v129q0 13 6 31l61 186q6 19 25 19h26q20 0 15 -23l-45 -182h37q22 0 22 -25v-135q0 -24 -22 -24h-99q-26 0 -26 24z" />
<glyph unicode="&#x2019;" horiz-adv-x="366" d="M106 1276v137q0 23 25 23h98q23 0 23 -23v-129q0 -20 -4 -31l-62 -188q-6 -18 -22 -18h-29q-19 0 -14 24l47 182h-37q-25 0 -25 23z" />
<glyph unicode="&#x201a;" horiz-adv-x="366" d="M106 23v137q0 22 25 22h98q23 0 23 -22v-129q0 -20 -4 -31l-62 -188q-6 -19 -22 -19h-29q-19 0 -14 25l47 182h-37q-25 0 -25 23z" />
<glyph unicode="&#x201c;" horiz-adv-x="647" d="M115 1075v129q0 19 6 31l61 186q6 19 25 19h26q20 0 15 -23l-45 -182h37q22 0 22 -25v-135q0 -24 -22 -24h-99q-26 0 -26 24zM395 1075v129q0 20 4 31l62 186q6 19 24 19h27q19 0 14 -23l-45 -182h37q23 0 23 -25v-135q0 -24 -23 -24h-100q-23 0 -23 24z" />
<glyph unicode="&#x201d;" horiz-adv-x="647" d="M106 1276v137q0 23 25 23h98q23 0 23 -23v-131q0 -20 -4 -29l-62 -188q-6 -16 -22 -16h-29q-18 0 -14 20l45 184h-35q-25 0 -25 23zM387 1276v137q0 23 21 23h100q22 0 22 -23v-131q0 -20 -4 -29l-61 -188q-6 -16 -23 -16h-28q-21 0 -15 20l47 184h-38q-21 0 -21 23z" />
<glyph unicode="&#x201e;" horiz-adv-x="647" d="M106 23v137q0 22 25 22h98q23 0 23 -22v-131q0 -20 -4 -29l-62 -188q-6 -17 -22 -17h-29q-18 0 -14 21l45 184h-35q-25 0 -25 23zM387 23v137q0 22 21 22h100q22 0 22 -22v-131q0 -20 -4 -29l-61 -188q-6 -17 -23 -17h-28q-21 0 -15 21l47 184h-38q-21 0 -21 23z" />
<glyph unicode="&#x2022;" horiz-adv-x="684" d="M100 549q0 107 69 174q70 68 173 68q104 0 172 -68t68 -174q0 -107 -69 -176q-70 -70 -171 -70q-103 0 -173 70q-69 69 -69 176z" />
<glyph unicode="&#x2026;" horiz-adv-x="1157" d="M121 23v137q0 24 24 24h95q24 0 24 -24v-137q0 -23 -22 -23h-97q-24 0 -24 23zM508 23v137q0 24 22 24h99q20 0 20 -24v-137q0 -23 -20 -23h-99q-22 0 -22 23zM893 23v137q0 24 22 24h99q20 0 20 -24v-137q0 -23 -20 -23h-99q-22 0 -22 23z" />
<glyph unicode="&#x202f;" horiz-adv-x="377" />
<glyph unicode="&#x2039;" horiz-adv-x="421" d="M74 543q0 6 2 14l141 272q8 19 29 19h59q27 0 14 -25l-143 -280l143 -277q12 -24 -14 -24h-59q-22 0 -29 18l-141 272q-2 8 -2 11z" />
<glyph unicode="&#x203a;" horiz-adv-x="421" d="M106 266l142 277l-142 280q-16 25 13 25h61q17 0 25 -19l141 -272q4 -5 4 -14q0 -6 -4 -11l-141 -272q-7 -18 -25 -18h-61q-28 0 -13 24z" />
<glyph unicode="&#x205f;" horiz-adv-x="471" />
<glyph unicode="&#x20ac;" horiz-adv-x="1110" d="M55 555v45q0 21 23 21h137q-4 55 -4 98q0 49 4 96h-137q-23 0 -23 23v47q0 20 23 20h143q33 256 167 404q134 147 376 147q146 0 258 -53q26 -10 18 -29l-24 -57q-11 -24 -33 -14q-98 43 -209 43q-195 0 -300 -118q-106 -120 -130 -323h508q22 0 16 -24l-12 -43 q-5 -23 -27 -23h-495q-2 -40 -2 -96q0 -58 2 -98h432q20 0 14 -23l-10 -43q-8 -25 -31 -25h-395q27 -203 132 -322q105 -118 300 -118q112 0 215 47q22 8 33 -18l23 -56q6 -18 -15 -28q-120 -53 -264 -53q-244 0 -379 147t-168 401h-143q-23 0 -23 25z" />
<glyph unicode="&#x2122;" horiz-adv-x="1189" d="M70 1376v43q0 17 18 17h352q17 0 17 -17v-43q0 -16 -17 -16h-133v-569q0 -17 -18 -17h-51q-17 0 -17 17v569h-133q-18 0 -18 16zM549 791v628q0 17 16 17h60q14 0 20 -11l178 -352l178 352q6 11 21 11h57q17 0 17 -17v-628q0 -17 -17 -17h-49q-16 0 -16 17v509l-170 -323 q-12 -12 -21 -12q-12 0 -20 12l-172 326v-512q0 -17 -17 -17h-49q-16 0 -16 17z" />
<glyph unicode="&#x25fc;" horiz-adv-x="1064" d="M0 0v1065h1065v-1065h-1065z" />
</font>
</defs>
</svg>
