<?xml version="1.0" standalone="no"?>
<!DOCTYPE svg PUBLIC "-//W3C//DTD SVG 1.1//EN" "http://www.w3.org/Graphics/SVG/1.1/DTD/svg11.dtd" >
<svg xmlns="http://www.w3.org/2000/svg" xmlns:xlink="http://www.w3.org/1999/xlink" version="1.1">
<metadata></metadata>
<defs>
<font id="amsipronarw-blackuploadedfile" horiz-adv-x="1122" >
<font-face units-per-em="2048" ascent="1753" descent="-295" />
<missing-glyph horiz-adv-x="473" />
<glyph unicode="&#xfb01;" horiz-adv-x="1159" d="M78 51l133 758h-70q-53 0 -45 51l27 154q8 53 57 53h76l14 84q28 165 107 238q77 71 233 71q110 0 158 -16q44 -15 37 -53l-21 -117q-6 -53 -55 -49q-16 0 -30 1t-31 1q-40 0 -65 -22q-23 -20 -34 -79l-10 -59h547q57 0 47 -55l-170 -959q-8 -53 -59 -53h-205 q-55 0 -47 53l135 756h-291l-135 -758q-8 -51 -59 -51h-197q-59 0 -47 51zM883 1249l24 144q12 53 60 53h204q58 0 50 -53l-27 -144q-8 -51 -59 -51h-205q-54 0 -47 51z" />
<glyph unicode="&#xfb02;" horiz-adv-x="1161" d="M78 51l133 758h-70q-53 0 -45 51l27 154q8 53 57 53h76l6 39q38 198 149 278q112 80 377 80q234 0 383 -41q51 -16 43 -63l-231 -1307q-8 -53 -59 -53h-203q-55 0 -47 53l205 1164q-70 8 -129 8q-86 0 -130 -28q-42 -27 -53 -91l-8 -39h98q57 0 45 -55l-24 -150 q-12 -53 -62 -53h-100l-135 -758q-8 -51 -59 -51h-197q-59 0 -47 51z" />
<glyph unicode="&#xfb03;" horiz-adv-x="1755" d="M78 51l133 758h-72q-51 0 -43 51l27 154q8 53 57 53h76l14 86q28 167 108 237q79 70 236 70q108 0 150 -16q44 -15 37 -53l-21 -117q-6 -53 -55 -49q-15 0 -28 1t-29 1q-40 0 -65 -22q-24 -21 -32 -77l-10 -61h291l16 86q28 167 108 237q79 70 236 70q101 0 152 -16 q43 -15 39 -53l-21 -117q-8 -53 -57 -49q-15 0 -29 1t-30 1q-42 0 -66 -22q-22 -21 -33 -77l-10 -61h545q54 0 47 -55l-170 -959q-8 -53 -59 -53h-205q-57 0 -45 53l133 756h-291l-133 -758q-12 -51 -59 -51h-199q-55 0 -47 51l133 758h-291l-135 -758q-8 -51 -59 -51h-197 q-59 0 -47 51zM1479 1249l24 144q12 53 62 53h204q56 0 48 -53l-27 -144q-8 -51 -59 -51h-205q-55 0 -47 51z" />
<glyph unicode="&#xfb04;" horiz-adv-x="1757" d="M78 51l133 758h-70q-53 0 -45 51l27 154q8 53 57 53h76l14 86q28 167 108 237q79 70 236 70q99 0 150 -16q44 -15 37 -53l-21 -117q-6 -53 -55 -49q-15 0 -28 1t-29 1q-40 0 -65 -22q-24 -21 -32 -77l-10 -61h291l8 39q34 197 147 278q112 80 377 80q217 0 383 -41 q50 -15 43 -63l-231 -1307q-8 -53 -57 -53h-205q-55 0 -47 53l205 1164q-70 8 -127 8q-88 0 -130 -27q-43 -27 -53 -92l-8 -39h96q57 0 47 -55l-26 -150q-8 -53 -62 -53h-100l-133 -758q-12 -51 -59 -51h-199q-55 0 -47 51l133 758h-291l-135 -758q-8 -51 -59 -51h-197 q-59 0 -47 51z" />
<glyph horiz-adv-x="0" />
<glyph unicode="&#xd;" horiz-adv-x="681" />
<glyph unicode=" "  horiz-adv-x="473" />
<glyph unicode="&#x09;" horiz-adv-x="473" />
<glyph unicode="&#xa0;" horiz-adv-x="473" />
<glyph unicode="!" horiz-adv-x="575" d="M51 55l39 215q11 54 66 54h209q60 0 49 -54l-37 -215q-12 -55 -64 -55h-213q-59 0 -49 55zM166 508l102 881q6 57 62 57h254q59 0 47 -57l-207 -881q-17 -53 -68 -53h-143q-58 0 -47 53z" />
<glyph unicode="&#x22;" horiz-adv-x="768" d="M231 909l5 363q0 64 8 123q11 55 43 78q33 24 100 24q69 0 95 -26t16 -76q-5 -31 -35 -123l-125 -363h-107zM584 909l2 363q0 74 10 123q18 102 143 102q68 0 94 -26q25 -25 15 -76q-6 -37 -33 -123l-125 -363h-106z" />
<glyph unicode="#" horiz-adv-x="1177" d="M25 442l12 68q8 53 63 53h150l141 318h-106q-53 0 -45 53l12 67q8 54 61 54h154l162 364q24 52 71 37l74 -18q52 -15 29 -68l-141 -315h237l162 364q25 52 72 37l73 -18q50 -15 29 -68l-141 -315h102q53 0 45 -54l-12 -67q-8 -53 -62 -53h-151l-139 -318h106q53 0 45 -53 l-12 -68q-12 -53 -64 -53h-153l-160 -362q-25 -52 -72 -37l-73 20q-53 15 -29 66l139 313h-237l-160 -362q-23 -53 -72 -37l-74 20q-50 15 -26 66l139 313h-104q-53 0 -45 53zM444 563h238l139 318h-235z" />
<glyph unicode="$" horiz-adv-x="1069" d="M10 71q-8 15 2 44l62 157q21 61 80 37q124 -45 243 -45q104 0 184 37q81 37 81 123q0 34 -29 66q-30 33 -59 52q-27 18 -109 64q-138 73 -215 160q-78 88 -78 238q0 198 119 312q118 114 338 144l22 129q7 51 58 51h86q51 0 43 -51l-23 -125q165 -12 252 -53 q50 -18 29 -70l-58 -155q-23 -56 -80 -39q-93 35 -227 35q-88 0 -153 -34q-66 -34 -66 -110q0 -35 31 -72q32 -38 64 -59q12 -8 98 -59q150 -84 223 -166t73 -223q0 -189 -119 -308t-321 -157l-24 -137q-8 -52 -58 -52h-84q-51 0 -43 52l21 125q-208 6 -326 63 q-29 12 -37 26z" />
<glyph unicode="%" horiz-adv-x="1746" d="M143 909q0 67 11 125q73 426 389 426q138 0 211 -79t73 -222q0 -61 -12 -129q-72 -424 -387 -424q-138 0 -211 79q-74 80 -74 224zM336 51l938 1350q30 45 76 45h129q26 0 32 -14q6 -15 -10 -37l-940 -1350q-33 -45 -76 -45h-129q-58 0 -20 51zM371 911q0 -110 75 -110 q51 0 84 53t56 178q12 78 12 123q0 109 -74 109q-52 0 -86 -54q-31 -50 -53 -178q-14 -64 -14 -121zM1010 289q0 59 12 127q74 426 389 426q138 0 211 -79q74 -80 74 -224q0 -54 -13 -129q-73 -424 -389 -424q-135 0 -210 80q-74 78 -74 223zM1237 289q0 -107 74 -107 q52 0 87 54q32 49 54 178q14 67 14 125q0 106 -73 106q-101 0 -142 -231q-14 -85 -14 -125z" />
<glyph unicode="&#x26;" horiz-adv-x="1329" d="M51 356q0 176 102 306q103 131 279 198l-22 43q-54 103 -54 211q0 176 125 265t324 89q143 0 250 -36q51 -21 39 -72l-41 -121q-18 -58 -80 -43q-78 21 -144 21q-182 0 -182 -127q0 -45 49 -127l265 -465q55 95 55 231q0 64 59 64h162q41 0 41 -70q0 -241 -184 -461 l120 -207q12 -22 3 -38q-10 -17 -33 -17h-209q-49 0 -66 25l-37 63q-157 -106 -352 -106q-208 0 -339 99q-130 99 -130 275zM379 410q0 -72 52 -115t157 -43q96 0 164 47l-205 360q-76 -39 -121 -101q-47 -65 -47 -148z" />
<glyph unicode="'" horiz-adv-x="415" d="M231 909l5 363q0 64 8 123q11 55 43 78q33 24 100 24q69 0 95 -26t16 -76q-5 -31 -35 -123l-125 -363h-107z" />
<glyph unicode="(" horiz-adv-x="679" d="M109 379q0 286 120 562q123 284 332 495q30 30 68 30h145q27 0 31 -19q5 -20 -12 -38q-178 -229 -280 -508q-101 -276 -101 -565q0 -278 100 -518q8 -22 -2 -39q-11 -19 -37 -19h-145q-41 0 -56 29q-163 251 -163 590z" />
<glyph unicode=")" horiz-adv-x="679" d="M-75 -220q-3 19 14 38q175 230 277 510q101 276 101 563q0 288 -100 518q-8 22 2 39q10 18 37 18h147q38 0 56 -30q162 -257 162 -586q0 -285 -120 -564q-120 -280 -333 -497q-29 -29 -66 -29h-147q-27 0 -30 20z" />
<glyph unicode="*" horiz-adv-x="821" d="M168 911q-33 79 49 119q26 14 100 34q73 19 103 32q-17 8 -91 32q-70 22 -89 35q-37 24 -37 54q0 27 30 65q33 45 62 53t61 -14q25 -17 68 -69q42 -50 61 -68q2 30 -3 101q-5 75 -1 99q7 45 31 65q22 19 76 19q51 0 66 -19q15 -20 8 -65q-6 -30 -36 -101q-31 -76 -38 -99 q31 21 87 68q62 52 91 67q40 22 67 14q26 -8 44 -51q17 -48 5 -72q-13 -26 -55 -49q-27 -14 -103 -34q-80 -21 -101 -29q26 -14 94 -34t88 -34q37 -27 37 -53t-31 -66q-60 -80 -123 -37q-25 16 -68 66q-40 47 -63 68q-2 -32 4 -105q6 -76 0 -94q-6 -43 -30 -63 q-23 -19 -74 -19t-68 18q-16 17 -8 64q6 29 36 98t38 101q-23 -16 -86 -68q-61 -51 -90 -66q-82 -43 -111 37z" />
<glyph unicode="+" d="M121 643l29 150q6 51 59 51h276l52 299q12 53 61 53h178q55 0 47 -53l-53 -299h270q54 0 47 -51l-26 -150q-8 -53 -60 -53h-276l-55 -307q-8 -54 -60 -54h-178q-55 0 -47 54l55 307h-272q-53 0 -47 53z" />
<glyph unicode="," horiz-adv-x="479" d="M1 -229q-4 14 7 34l107 195h-56q-59 0 -49 55l39 207q7 55 64 55h194q61 0 51 -55l-32 -184q-5 -39 -25 -68l-149 -221q-23 -33 -52 -33h-73q-22 0 -26 15z" />
<glyph unicode="-" horiz-adv-x="694" d="M74 508l26 149q8 52 60 52h452q55 0 47 -52l-26 -149q-8 -53 -60 -53h-454q-53 0 -45 53z" />
<glyph unicode="." horiz-adv-x="479" d="M10 55l39 207q7 55 64 55h194q61 0 51 -55l-36 -207q-10 -55 -62 -55h-201q-59 0 -49 55z" />
<glyph unicode="/" horiz-adv-x="825" d="M-51 63l719 1334q28 49 75 49h187q32 0 43 -19q11 -18 -6 -47l-721 -1331q-28 -49 -74 -49h-188q-70 0 -35 63z" />
<glyph unicode="0" horiz-adv-x="1212" d="M100 459q0 105 27 264q69 392 226 569q156 176 409 176q210 0 323 -117q115 -120 115 -366q0 -112 -24 -262q-69 -391 -229 -568q-159 -175 -408 -175q-439 0 -439 479zM430 473q0 -207 141 -207q98 0 163 104q65 105 110 353q28 164 28 248q0 211 -143 211 q-98 0 -163 -105q-63 -103 -107 -354q-29 -153 -29 -250z" />
<glyph unicode="1" horiz-adv-x="915" d="M166 1083q-25 36 14 60l383 280q34 23 78 23h215q56 0 49 -57l-235 -1332q-8 -57 -64 -57h-211q-63 0 -51 57l182 1039l-213 -142q-43 -24 -63 4z" />
<glyph unicode="2" horiz-adv-x="1120" d="M4 55l23 133q11 46 55 70q131 82 236 163q123 94 228 193q113 106 184 229q69 120 69 230q0 121 -135 121q-96 0 -143 -65q-46 -64 -46 -156q0 -82 -57 -82h-193q-49 0 -49 74q0 230 149 367q148 136 377 136q216 0 323 -98q108 -99 108 -250q0 -128 -60 -259 q-60 -130 -160 -239q-102 -111 -199 -192t-212 -156h438q27 0 40 -14q13 -15 9 -41l-28 -164q-10 -55 -64 -55h-844q-61 0 -49 55z" />
<glyph unicode="3" horiz-adv-x="1060" d="M-16 111l59 161q21 56 72 35q146 -49 272 -49q124 0 198 59t74 175q0 122 -167 122h-132q-55 0 -47 56l29 151q8 53 64 53h120q94 0 153 56q58 55 58 143q0 121 -180 121q-125 0 -276 -49q-55 -15 -60 35l-4 153q-1 45 51 66q173 67 371 67q186 0 307 -76t121 -229 q0 -130 -66 -235t-180 -150q73 -27 117 -95q45 -69 45 -171q0 -262 -159 -396q-160 -134 -418 -134q-124 0 -230 20q-114 21 -166 47q-44 18 -26 64z" />
<glyph unicode="4" horiz-adv-x="1185" d="M35 348l28 158q5 39 33 72l705 831q30 37 71 37h218q58 0 51 -57l-148 -832h119q59 0 49 -55l-26 -154q-7 -55 -64 -55h-123l-43 -236q-12 -57 -63 -57h-209q-61 0 -49 57l41 236h-543q-54 0 -47 55zM330 557h342l90 510z" />
<glyph unicode="5" horiz-adv-x="1083" d="M-8 115l59 159q21 51 72 35q140 -51 278 -51q136 0 215 73q78 72 78 204q0 141 -182 141q-76 0 -156 -20q-76 -19 -92 -19q-11 0 -33 8l-71 27q-29 12 -17 55q103 383 152 659q12 60 63 60h686q57 0 50 -55l-29 -164q-8 -56 -66 -56h-475q-41 -191 -67 -278q84 27 186 27 q189 0 285 -90q94 -88 94 -244q0 -295 -170 -451q-168 -155 -453 -155q-238 0 -381 67q-44 21 -26 68z" />
<glyph unicode="6" horiz-adv-x="1163" d="M94 444q0 96 21 230q60 388 227 591t477 203q155 0 264 -41q48 -18 33 -61l-49 -158q-17 -50 -72 -39q-107 29 -182 29q-152 0 -231 -82q-80 -83 -119 -260q111 111 285 111q178 0 269 -102q91 -101 91 -263q0 -258 -157 -441q-156 -181 -404 -181q-228 0 -340 124 q-113 125 -113 340zM408 428q0 -76 41 -126t124 -50q111 0 172 98q62 100 62 215q0 71 -41 115q-40 43 -119 43q-113 0 -176 -91q-63 -92 -63 -204z" />
<glyph unicode="7" horiz-adv-x="1038" d="M150 55q62 277 242 598q177 317 366 518h-520q-60 0 -48 58l29 160q7 57 64 57h809q56 0 49 -57l-25 -142q-6 -27 -53 -88q-187 -231 -353 -532t-223 -572q-12 -55 -65 -55h-223q-61 0 -49 55z" />
<glyph unicode="8" horiz-adv-x="1163" d="M49 315q0 159 90 268q90 110 242 167q-85 38 -130 111q-46 74 -46 169q0 222 154 330t382 108q204 0 320 -85q117 -85 117 -232q0 -143 -80 -246q-80 -102 -215 -155q88 -34 146 -113q56 -77 56 -188q0 -161 -85 -270t-209 -154q-125 -45 -281 -45q-220 0 -341 92 q-120 92 -120 243zM379 371q0 -62 43 -99q42 -36 123 -36q97 0 157 60t60 153q0 130 -150 190q-233 -90 -233 -268zM518 1030q0 -120 131 -176q209 86 209 254q0 119 -145 119q-93 0 -144 -56q-51 -55 -51 -141z" />
<glyph unicode="9" horiz-adv-x="1163" d="M137 82l49 156q16 46 72 38q103 -28 184 -28q152 0 231 79q77 77 115 257q-108 -105 -280 -105q-180 0 -272 101q-93 102 -93 260q0 260 154 444q152 182 410 182q228 0 339 -123t111 -342q0 -119 -27 -272q-68 -372 -229 -560q-162 -189 -461 -189q-178 0 -270 38 q-48 19 -33 64zM444 887q0 -72 42 -118t120 -46q114 0 176 89t62 204q0 78 -42 128t-126 50q-107 0 -169 -98q-63 -99 -63 -209z" />
<glyph unicode=":" horiz-adv-x="546" d="M45 55l37 207q7 55 63 55h197q58 0 51 -55l-39 -207q-10 -55 -61 -55h-199q-56 0 -49 55zM184 846l37 207q7 55 66 55h194q58 0 51 -55l-36 -207q-12 -55 -64 -55h-201q-54 0 -47 55z" />
<glyph unicode=";" horiz-adv-x="546" d="M35 -229q-6 14 6 34l109 195h-56q-56 0 -49 55l37 207q7 55 63 55h197q58 0 51 -55l-35 -184q-5 -41 -24 -68l-148 -221q-23 -33 -53 -33h-72q-20 0 -26 15zM184 846l37 207q7 55 66 55h194q58 0 51 -55l-36 -207q-12 -55 -64 -55h-201q-54 0 -47 55z" />
<glyph unicode="&#x3c;" d="M158 715q5 30 30 47l738 561q46 39 75 -2l89 -123q27 -39 -17 -74l-547 -413l400 -410q33 -33 -8 -74l-130 -121q-44 -37 -77 -4l-539 566q-20 20 -14 47z" />
<glyph unicode="=" d="M117 418l24 143q7 51 60 51h766q57 0 45 -51l-25 -143q-7 -51 -59 -51h-766q-52 0 -45 51zM197 874l24 142q11 53 62 53h764q58 0 47 -53l-27 -142q-8 -53 -59 -53h-766q-53 0 -45 53z" />
<glyph unicode="&#x3e;" d="M121 229q-27 41 16 74l547 412l-399 411q-33 33 8 74l125 121q45 39 76 4l544 -563q17 -19 17 -47q-7 -24 -33 -47l-743 -566q-46 -39 -74 4z" />
<glyph unicode="?" horiz-adv-x="948" d="M215 1341q-1 43 49 64q140 61 326 61q198 0 299 -76q102 -77 102 -221q0 -91 -35 -175q-34 -80 -86 -142q-51 -60 -103 -112q-53 -52 -93 -102q-42 -51 -49 -93l-7 -37q-8 -53 -63 -53h-178q-60 0 -49 53l8 37q12 56 50 114q39 59 81 104q42 44 86 95q45 51 71 108 q27 58 27 119q0 103 -143 103q-101 0 -229 -43q-60 -17 -60 35zM225 55l37 215q11 54 66 54h209q62 0 51 -54l-39 -215q-10 -55 -62 -55h-213q-61 0 -49 55z" />
<glyph unicode="@" horiz-adv-x="1767" d="M88 295q0 402 271 679t694 277q318 0 485 -134q166 -133 166 -367q0 -111 -35 -230q-35 -118 -97 -220q-63 -104 -167 -169q-103 -65 -229 -65h-125q-52 0 -58 38l-8 95q-103 -136 -254 -136q-117 0 -196 74q-78 73 -78 197q0 254 160 436t430 182q172 0 290 -61 q37 -18 25 -53l-197 -619h41q85 0 151 54t104 139q40 89 58 172q19 86 19 168q0 176 -120 264q-119 88 -376 88q-337 0 -561 -223q-225 -223 -225 -580q0 -203 138 -297q137 -94 425 -94q199 0 383 45q17 6 26 -1t7 -26l-2 -69q-2 -24 -31 -35q-190 -57 -389 -57 q-347 0 -535 133q-190 134 -190 395zM719 387q0 -113 92 -113q129 0 195 207l79 254q-44 13 -86 13q-126 0 -203 -112t-77 -249z" />
<glyph unicode="A" horiz-adv-x="1220" d="M-38 18q-12 18 1 48l586 1323q24 57 82 57h297q62 0 67 -57l119 -1323q1 -6 1 -11q0 -55 -56 -55h-219q-58 0 -58 53l-18 228h-365l-96 -228q-24 -53 -72 -53h-229q-28 0 -40 18zM498 563h266l-31 557h-6z" />
<glyph unicode="B" horiz-adv-x="1212" d="M35 57l235 1332q8 57 64 57h432q455 0 455 -303q0 -123 -60 -223q-60 -101 -178 -150q75 -24 118 -96q44 -73 44 -176q0 -240 -156 -369t-416 -129h-487q-53 0 -53 40q0 8 2 17zM397 270h183q111 0 174 57t63 167q0 120 -174 120h-186zM502 868h170q96 0 156 51 q59 50 59 150q0 58 -38 82q-39 25 -122 25h-170z" />
<glyph unicode="C" horiz-adv-x="1077" d="M94 459q0 99 27 266q72 404 238 573q167 170 464 170q181 0 299 -61q37 -15 37 -45q0 -12 -6 -27l-63 -153q-18 -41 -54 -41q-12 0 -26 4q-79 29 -170 29q-167 0 -253 -98q-85 -97 -130 -351q-23 -138 -23 -209q0 -132 61 -188t195 -56q100 0 182 33q16 5 28 5 q35 0 38 -44l12 -153q2 -45 -55 -72q-134 -61 -293 -61q-251 0 -379 113q-129 114 -129 366z" />
<glyph unicode="D" horiz-adv-x="1218" d="M35 57l235 1332q8 57 66 57h348q265 0 398 -112q132 -111 132 -365q0 -100 -22 -238q-67 -400 -239 -566q-171 -165 -486 -165h-383q-51 0 -51 40q0 8 2 17zM408 293h90q149 0 232 92t128 346q21 133 21 195q0 126 -57 176q-56 49 -177 49h-88z" />
<glyph unicode="E" horiz-adv-x="1015" d="M35 57l235 1332q8 57 64 57h713q52 0 52 -44q0 -6 -1 -13l-31 -175q-7 -57 -66 -57h-446l-49 -283h418q50 0 50 -45q0 -6 -1 -12l-29 -164q-10 -55 -63 -55h-424l-56 -309h451q52 0 52 -45q0 -6 -1 -13l-31 -174q-12 -57 -65 -57h-721q-53 0 -53 40q0 8 2 17z" />
<glyph unicode="F" horiz-adv-x="983" d="M35 59l233 1327q12 60 68 60h702q50 0 50 -45q0 -6 -1 -12l-30 -175q-7 -57 -64 -57h-434l-57 -315h411q52 0 52 -41q0 -8 -2 -17l-29 -172q-12 -55 -66 -55h-415l-88 -498q-12 -59 -68 -59h-211q-52 0 -52 47q0 6 1 12z" />
<glyph unicode="G" horiz-adv-x="1222" d="M94 463q0 99 27 266q72 406 251 573q178 166 505 166q216 0 329 -67q36 -17 36 -47q0 -12 -5 -25l-59 -155q-17 -40 -57 -40q-13 0 -29 5q-102 35 -211 35q-199 0 -289 -95t-135 -354q-23 -143 -23 -215q0 -132 61 -188t189 -56q66 0 115 19l61 340h-135q-52 0 -52 41 q0 6 1 14l26 145q11 58 64 58h377q51 0 51 -41q0 -8 -2 -17l-121 -686q-8 -52 -63 -80q-149 -79 -392 -79q-255 0 -387 113q-133 114 -133 370z" />
<glyph unicode="H" horiz-adv-x="1230" d="M35 57l235 1332q8 57 64 57h215q52 0 52 -44q0 -6 -1 -13l-88 -504h354l90 504q6 57 64 57h215q52 0 52 -44q0 -6 -1 -13l-235 -1332q-12 -57 -64 -57h-215q-53 0 -53 40q0 8 2 17l94 531h-356l-94 -531q-7 -57 -64 -57h-215q-53 0 -53 40q0 8 2 17z" />
<glyph unicode="I" horiz-adv-x="565" d="M45 57l236 1332q7 57 63 57h215q52 0 52 -44q0 -6 -1 -13l-235 -1332q-12 -57 -64 -57h-217q-51 0 -51 40q0 8 2 17z" />
<glyph unicode="J" horiz-adv-x="845" d="M-29 109l62 159q17 43 52 43q8 0 17 -2q64 -26 136 -26q143 0 176 186l161 920q7 57 64 57h215q52 0 52 -45q0 -6 -1 -12l-170 -963q-41 -238 -153 -340q-113 -102 -322 -102q-155 0 -256 49q-39 18 -39 49q0 13 6 27z" />
<glyph unicode="K" horiz-adv-x="1159" d="M35 57l235 1332q8 57 64 57h215q52 0 52 -44q0 -6 -1 -13l-80 -451l385 457q40 51 86 51h254q30 0 38 -23t-13 -49l-510 -594l293 -708q10 -28 -2 -50q-13 -22 -43 -22h-228q-50 0 -71 53l-240 592l-104 -588q-7 -57 -64 -57h-215q-53 0 -53 40q0 8 2 17z" />
<glyph unicode="L" horiz-adv-x="958" d="M35 57l235 1332q8 57 64 57h215q52 0 52 -44q0 -6 -1 -13l-192 -1090h395q52 0 52 -44q0 -6 -1 -13l-33 -185q-12 -57 -65 -57h-670q-53 0 -53 40q0 8 2 17z" />
<glyph unicode="M" horiz-adv-x="1456" d="M35 57l235 1332q8 57 64 57h192q54 0 66 -39l192 -584l400 584q27 39 73 39h203q50 0 50 -45q0 -6 -1 -12l-233 -1332q-12 -57 -66 -57h-206q-52 0 -52 40q0 8 2 17l142 803l-332 -483q-22 -37 -59 -37q-36 0 -46 37l-161 483l-142 -803q-12 -57 -63 -57h-207 q-53 0 -53 40q0 8 2 17z" />
<glyph unicode="N" horiz-adv-x="1253" d="M35 57l235 1332q8 57 64 57h196q55 0 70 -41l252 -784l135 768q7 57 64 57h204q53 0 53 -46q0 -5 -1 -11l-236 -1332q-7 -57 -63 -57h-197q-55 0 -70 43l-252 782l-135 -768q-12 -57 -63 -57h-205q-53 0 -53 40q0 8 2 17z" />
<glyph unicode="O" horiz-adv-x="1259" d="M92 455q0 105 29 270q72 404 232 573q161 170 433 170q469 0 469 -475q0 -109 -26 -272q-72 -403 -233 -573q-159 -168 -433 -168q-229 0 -350 112t-121 363zM428 477q0 -110 41 -160q40 -49 125 -49q116 0 185 101t114 354q27 153 27 246q0 109 -41 159t-125 50 q-117 0 -186 -101q-67 -98 -111 -354q-29 -169 -29 -246z" />
<glyph unicode="P" horiz-adv-x="1175" d="M35 57l235 1332q8 57 64 57h377q248 0 366 -85q119 -86 119 -282q0 -81 -14 -155q-46 -289 -190 -405q-143 -116 -427 -116h-141l-59 -346q-12 -57 -66 -57h-213q-52 0 -52 45q0 6 1 12zM475 690h119q120 0 176 50q55 49 78 184q12 57 12 100q0 73 -43 103 q-44 30 -139 30h-121z" />
<glyph unicode="Q" horiz-adv-x="1257" d="M96 469q0 117 27 262q69 396 229 567q159 170 432 170q471 0 471 -473q0 -124 -26 -266q-96 -523 -408 -659q46 -17 105 -17q22 0 43 4t32 4q40 0 40 -33q0 -5 -1 -12l-26 -145q-10 -61 -78 -61q-273 0 -455 188q-181 10 -283 126t-102 345zM430 489q0 -107 41 -157 q40 -49 125 -49q116 0 184 99t111 349q29 162 29 236q0 211 -168 211q-115 0 -183 -101q-66 -99 -110 -346q-29 -169 -29 -242z" />
<glyph unicode="R" horiz-adv-x="1183" d="M35 57l235 1332q8 57 64 57h391q245 0 367 -83q120 -81 120 -271q0 -83 -14 -152q-60 -346 -340 -434l172 -434q14 -26 2 -49t-45 -23h-207q-58 0 -73 47l-154 410h-119l-69 -400q-12 -57 -66 -57h-213q-53 0 -53 40q0 8 2 17zM483 731h133q120 0 175 48q53 46 75 163 q8 70 8 86q0 72 -41 100q-43 29 -143 29h-133z" />
<glyph unicode="S" horiz-adv-x="1030" d="M3 65q-7 12 1 46l62 157q16 44 52 44q12 0 27 -5q107 -43 240 -43q99 0 170 37q72 37 72 123q0 46 -42 87q-40 39 -136 95q-124 69 -199 159q-74 89 -74 224q0 236 139 357q138 120 398 120q210 0 321 -51q29 -12 36 -25q8 -14 -3 -44l-59 -158q-16 -41 -55 -41 q-12 0 -25 4q-91 31 -209 31q-203 0 -203 -146q0 -53 42 -95t126 -93q138 -83 211 -168q72 -84 72 -213q0 -228 -154 -358q-153 -129 -401 -129q-252 0 -373 59q-28 12 -36 26z" />
<glyph unicode="T" horiz-adv-x="997" d="M172 1206l33 183q7 57 65 57h795q50 0 50 -44q0 -6 -1 -13l-31 -183q-12 -59 -67 -59h-234l-192 -1090q-8 -57 -64 -57h-215q-53 0 -53 40q0 8 2 17l193 1090h-230q-52 0 -52 44q0 7 1 15z" />
<glyph unicode="U" horiz-adv-x="1214" d="M88 344q0 57 12 129l164 916q7 57 64 57h215q52 0 52 -44q0 -6 -1 -13l-156 -879q-10 -54 -10 -92q0 -142 143 -142q97 0 147 56q51 57 73 176l153 881q8 57 64 57h217q50 0 50 -44q0 -6 -1 -13l-162 -916q-45 -257 -180 -376q-133 -117 -389 -117q-455 0 -455 364z" />
<glyph unicode="V" horiz-adv-x="1206" d="M199 1380v10q0 56 55 56h227q56 0 60 -55l28 -744l2 -305h7l110 305l293 744q18 55 72 55h237q27 0 40 -19q12 -17 -1 -47l-573 -1319q-27 -61 -82 -61h-301q-60 0 -66 61z" />
<glyph unicode="W" horiz-adv-x="1851" d="M205 1380q0 66 55 66h225q56 0 60 -55l10 -654l-2 -329h6l115 331l241 654q21 53 74 53h201q58 0 63 -53l9 -654l2 -331h6l114 329l240 654q18 55 70 55h233q30 0 41 -18q10 -17 -2 -48l-526 -1319q-27 -61 -82 -61h-262q-65 0 -66 61l-24 523l-2 317h-7l-114 -317 l-205 -523q-22 -61 -82 -61h-262q-65 0 -66 61z" />
<glyph unicode="X" horiz-adv-x="1181" d="M-37 23q-8 23 10 47l478 663l-238 643q-8 28 4 48q13 22 41 22h234q54 0 71 -51l123 -383l258 383q33 51 84 51h234q29 0 37 -23q7 -22 -11 -47l-463 -643l242 -663q8 -28 -5 -48q-14 -22 -42 -22h-229q-53 0 -70 51l-133 400l-273 -400q-35 -51 -84 -51h-229 q-31 0 -39 23z" />
<glyph unicode="Y" horiz-adv-x="1185" d="M199 1376q-8 25 5 47q14 23 46 23h223q57 0 68 -53l82 -377l24 -197h6l97 197l215 377q29 53 79 53h230q34 0 41 -24q8 -25 -8 -46l-537 -837l-84 -482q-12 -57 -65 -57h-215q-53 0 -53 44q0 6 1 13l86 482z" />
<glyph unicode="Z" horiz-adv-x="1081" d="M6 57l31 174q8 42 45 91l645 825h-448q-51 0 -51 43q0 7 1 16l33 183q8 57 64 57h770q52 0 52 -45q0 -5 -1 -12l-31 -175q-7 -43 -45 -88l-643 -829h481q51 0 51 -38q0 -8 -2 -17l-32 -185q-8 -57 -64 -57h-807q-51 0 -51 40q0 8 2 17z" />
<glyph unicode="[" horiz-adv-x="679" d="M35 -172l276 1565q8 53 60 53h362q59 0 47 -53l-22 -131q-8 -54 -60 -54h-129l-211 -1196h123q55 0 47 -53l-22 -131q-8 -53 -62 -53h-362q-55 0 -47 53z" />
<glyph unicode="\" horiz-adv-x="825" d="M190 1380q-10 66 54 66h166q53 0 63 -49l250 -1334q11 -63 -53 -63h-172q-50 0 -56 49z" />
<glyph unicode="]" horiz-adv-x="679" d="M-51 -172l22 131q12 53 62 53h129l211 1196h-123q-55 0 -49 54l24 131q8 53 60 53h362q55 0 47 -53l-276 -1565q-8 -53 -60 -53h-362q-55 0 -47 53z" />
<glyph unicode="^" d="M139 728q-8 20 13 48l415 627q30 43 74 43h178q54 0 66 -43l196 -627q8 -30 -5 -48q-13 -19 -42 -19h-172q-51 0 -63 47l-115 383l-250 -383q-30 -47 -76 -47h-180q-32 0 -39 19z" />
<glyph unicode="_" horiz-adv-x="968" d="M-84 -188l10 65q8 53 60 53h800q56 0 48 -53l-13 -65q-8 -54 -59 -54h-803q-51 0 -43 54z" />
<glyph unicode="`" horiz-adv-x="651" d="M272 1438q7 20 33 20h227q44 0 54 -37l45 -166q10 -43 -37 -43h-113q-44 0 -67 29l-135 160q-15 16 -7 37z" />
<glyph unicode="a" horiz-adv-x="1024" d="M16 246q0 106 36 184q36 79 93 125q58 47 147 76q88 28 176 39q74 9 202 14l10 59q4 21 4 39q0 41 -24 63q-35 32 -123 32q-105 0 -261 -48q-14 -4 -24 -4q-35 0 -35 41l2 140q0 47 49 63q153 59 338 59q383 0 382 -276q0 -48 -7 -94l-125 -705q-8 -53 -57 -53h-166 q-49 0 -53 45l4 72q-111 -131 -287 -131q-130 0 -205 68q-76 69 -76 192zM319 295q0 -92 99 -92q86 0 136 53q49 52 64 141l21 109q-155 -6 -238 -54q-82 -48 -82 -157z" />
<glyph unicode="b" horiz-adv-x="1132" d="M27 53l235 1340q12 53 60 53h204q48 0 48 -40q0 -6 -1 -13l-69 -387q100 124 274 124q322 0 322 -366q0 -97 -21 -211q-52 -299 -167 -437q-114 -136 -302 -136q-93 0 -170 38q-79 39 -100 99l-23 -72q-17 -45 -61 -45h-182q-48 0 -48 40q0 6 1 13zM408 406 q0 -170 133 -170q88 0 139 72t84 247q18 121 18 162q0 157 -129 157q-88 0 -143 -74q-56 -76 -86 -245q-16 -77 -16 -149z" />
<glyph unicode="c" horiz-adv-x="888" d="M63 377q0 76 19 182q96 571 563 571q171 0 256 -49q30 -15 30 -41q0 -11 -5 -24l-60 -146q-12 -34 -46 -34q-12 0 -27 4q-70 22 -131 22q-110 0 -173 -69q-64 -70 -92 -236q-14 -73 -14 -137q0 -92 42 -132q41 -40 128 -40q83 0 152 26q16 5 27 5q31 0 32 -35l6 -146v-6 q0 -36 -47 -61q-102 -51 -240 -51q-198 0 -309 99t-111 298z" />
<glyph unicode="d" horiz-adv-x="1132" d="M61 342q0 99 21 213q51 296 167 436t304 140q88 0 164 -36q75 -35 98 -89l70 387q8 53 59 53h203q49 0 49 -37q0 -7 -2 -16l-236 -1340q-8 -53 -59 -53h-182q-53 0 -53 45l6 72q-46 -63 -122 -100q-75 -37 -163 -37q-324 0 -324 362zM381 391q0 -155 127 -155 q88 0 144 74q57 75 87 245q17 97 17 150q0 170 -135 170q-88 0 -140 -73q-52 -74 -82 -247q-18 -101 -18 -164z" />
<glyph unicode="e" horiz-adv-x="1038" d="M63 385q0 52 19 180q100 565 551 565q187 0 282 -94q97 -95 97 -270q0 -63 -17 -160l-18 -112q-11 -58 -70 -58h-540q-5 -45 -5 -51q2 -168 218 -168q115 0 225 43q29 10 45 0t16 -37v-121q0 -44 -53 -67q-129 -55 -285 -55q-465 0 -465 405zM395 633h322l4 20 q12 83 12 109q0 137 -123 137q-83 0 -132 -61q-50 -63 -83 -205z" />
<glyph unicode="f" horiz-adv-x="684" d="M78 51l133 758h-70q-46 0 -46 39q0 5 1 12l27 154q8 53 57 53h76l14 78q30 174 113 245q82 70 246 70q102 0 153 -16q36 -10 36 -41q0 -6 -1 -12l-22 -125q-6 -54 -50 -54h-8q-37 5 -59 5q-52 0 -77 -23q-24 -22 -34 -82l-6 -45h141q48 0 48 -38q0 -8 -2 -17l-25 -150 q-12 -53 -61 -53h-146l-135 -758q-8 -51 -59 -51h-197q-49 0 -49 35q0 7 2 16z" />
<glyph unicode="g" horiz-adv-x="1081" d="M35 -131l45 129q12 41 47 41q11 0 25 -4q112 -39 235 -39q114 0 173 46q61 47 79 142l12 70q-89 -123 -258 -123q-313 0 -313 322q0 89 16 176q88 499 439 499q91 0 158 -38q68 -39 93 -97l21 72q17 45 63 45h174q45 0 45 -39q0 -7 -2 -16l-153 -881q-39 -215 -168 -317 q-130 -103 -367 -103q-232 0 -336 49q-32 16 -32 45q0 10 4 21zM395 502q0 -140 117 -140q154 0 199 267q12 67 12 114q0 148 -121 148q-76 0 -123 -64t-71 -200q-13 -80 -13 -125z" />
<glyph unicode="h" horiz-adv-x="1091" d="M27 53l235 1340q12 53 60 53h204q48 0 48 -40q0 -6 -1 -13l-67 -389q107 126 278 126q135 0 204 -70t69 -204q0 -48 -13 -119l-120 -684q-8 -53 -60 -53h-202q-49 0 -49 41q0 6 1 12l113 633q6 38 6 66q0 102 -98 102q-155 0 -193 -207l-104 -594q-12 -53 -62 -53h-202 q-48 0 -48 40q0 6 1 13z" />
<glyph unicode="i" horiz-adv-x="516" d="M29 53l178 1002q10 55 59 55h205q46 0 46 -43q0 -6 -1 -12l-176 -1002q-12 -53 -59 -53h-205q-48 0 -48 40q0 6 1 13zM240 1264l22 125q7 55 60 55h210q48 0 48 -38q0 -8 -2 -17l-23 -125q-8 -54 -59 -54h-211q-46 0 -46 41q0 6 1 13z" />
<glyph unicode="j" horiz-adv-x="555" d="M-133 -170l27 152q6 47 48 47h7q11 0 22 -1t27 -1q36 0 56 21q21 22 28 77l164 930q7 55 61 55h203q48 0 48 -43q0 -6 -1 -12l-172 -977q-33 -178 -106 -246q-75 -70 -232 -70q-99 0 -143 15q-38 11 -38 43q0 5 1 10zM279 1264l22 125q12 55 59 55h211q48 0 48 -43 q0 -6 -1 -12l-22 -125q-8 -54 -59 -54h-211q-48 0 -48 41q0 6 1 13z" />
<glyph unicode="k" horiz-adv-x="1015" d="M27 53l235 1340q12 53 60 53h204q48 0 48 -40q0 -6 -1 -13l-110 -627l276 303q30 41 80 41h238q31 0 37 -23q6 -22 -19 -47l-405 -432l248 -540q12 -28 1 -48t-40 -20h-215q-53 0 -74 45l-180 422l-72 -414q-12 -53 -59 -53h-205q-48 0 -48 40q0 6 1 13z" />
<glyph unicode="l" horiz-adv-x="516" d="M29 53l237 1340q8 53 58 53h204q48 0 48 -40q0 -6 -1 -13l-235 -1340q-12 -53 -59 -53h-205q-48 0 -48 40q0 6 1 13z" />
<glyph unicode="m" horiz-adv-x="1619" d="M23 53l176 1002q10 55 61 55h182q54 0 54 -45l-2 -74q112 139 276 139q199 0 238 -153q130 153 319 153q260 0 260 -266q0 -48 -10 -112l-125 -699q-8 -53 -57 -53h-201q-50 0 -50 41q0 6 1 12l115 639q6 38 6 68q0 96 -88 96q-71 0 -118 -53q-46 -53 -63 -141l-106 -609 q-12 -53 -60 -53h-198q-49 0 -49 37q0 7 2 16l112 639q7 47 7 70q0 94 -87 94q-144 0 -182 -203l-106 -600q-8 -53 -60 -53h-200q-49 0 -49 37q0 7 2 16z" />
<glyph unicode="n" horiz-adv-x="1083" d="M20 53l179 1002q10 55 59 55h182q54 0 54 -45l-2 -74q111 139 286 139q271 0 271 -274q0 -44 -11 -115l-123 -688q-8 -53 -59 -53h-203q-48 0 -48 40q0 6 1 13l111 635q8 53 8 68q0 98 -98 98q-153 0 -191 -207l-104 -594q-12 -53 -62 -53h-202q-49 0 -49 41q0 5 1 12z " />
<glyph unicode="o" horiz-adv-x="1085" d="M63 375q0 71 17 182q51 294 189 434q138 139 370 139q200 0 305 -98q107 -99 107 -299q0 -87 -17 -180q-52 -293 -190 -434q-136 -139 -369 -139q-200 0 -305 98q-107 99 -107 297zM377 387q0 -154 123 -154q86 0 136 74t83 248q18 108 18 168q0 154 -123 154 q-86 0 -136 -74q-51 -76 -81 -248q-20 -97 -20 -168z" />
<glyph unicode="p" horiz-adv-x="1128" d="M-18 -172l217 1227q10 55 61 55h180q54 0 54 -45l-7 -74q47 62 122 101q73 38 161 38q324 0 324 -368q0 -84 -19 -209q-51 -297 -165 -435t-302 -138q-92 0 -167 34q-77 34 -99 90l-49 -276q-8 -53 -62 -53h-202q-48 0 -48 40q0 6 1 13zM403 406q0 -170 134 -170 q87 0 139 72q54 74 84 247q16 102 16 162q0 82 -31 121q-29 36 -96 36q-88 0 -144 -75q-57 -77 -87 -244q-15 -84 -15 -149z" />
<glyph unicode="q" horiz-adv-x="1128" d="M61 346q0 97 21 211q52 298 169 436q116 137 304 137q90 0 163 -38q75 -39 105 -101l21 74q16 45 63 45h183q46 0 46 -43q0 -5 -1 -12l-217 -1227q-6 -53 -60 -53h-205q-46 0 -46 40q0 6 1 13l47 276q-85 -124 -270 -124q-324 0 -324 366zM381 391q0 -155 127 -155 q88 0 144 75q57 77 87 244q15 84 15 150q0 169 -133 169q-89 0 -140 -72q-52 -74 -82 -247q-18 -101 -18 -164z" />
<glyph unicode="r" horiz-adv-x="745" d="M23 53l176 1002q10 55 61 55h186q52 0 50 -51l-11 -115q46 72 118 123q76 53 165 53q31 0 40 -12t3 -41l-39 -231q-11 -48 -53 -48q-4 0 -32 4q-21 3 -38 3q-88 0 -148 -66q-61 -67 -79 -174l-90 -502q-8 -53 -60 -53h-202q-49 0 -49 37q0 7 2 16z" />
<glyph unicode="s" horiz-adv-x="860" d="M-14 86l45 137q12 41 43 41q12 0 26 -6q95 -31 201 -31q67 0 125 25q55 24 55 78q0 38 -35 65q-36 28 -116 66q-110 50 -168 110q-60 61 -60 172q0 195 117 291t328 96q189 0 284 -40q34 -11 34 -39q0 -10 -5 -23l-43 -135q-14 -40 -47 -40q-9 0 -20 3q-84 27 -177 27 q-161 0 -161 -99q0 -26 23 -49q25 -25 48 -38q7 -4 19 -10.5t32.5 -17t36.5 -18.5q105 -52 162 -121q55 -67 55 -168q0 -197 -123 -289q-125 -93 -341 -93q-190 0 -308 45q-34 11 -34 39q0 10 4 22z" />
<glyph unicode="t" horiz-adv-x="698" d="M86 860l27 154q12 53 59 53h80l41 236q7 51 61 51h191q48 0 48 -39q0 -6 -1 -12l-41 -236h149q49 0 49 -40q0 -7 -1 -15l-27 -150q-8 -53 -62 -53h-151l-78 -438q-7 -34 -7 -57q0 -27 9 -40q16 -24 74 -24q5 0 29 2t28 2q23 2 33 -10t6 -39l-20 -146q-4 -43 -54 -55 q-66 -18 -135 -18q-146 0 -216 52q-71 53 -71 177q0 45 13 117l84 477h-70q-48 0 -48 39q0 6 1 12z" />
<glyph unicode="u" horiz-adv-x="1075" d="M57 244q0 40 11 104l127 707q6 55 59 55h203q48 0 48 -43q0 -6 -1 -12l-113 -635q-6 -38 -6 -68q0 -100 96 -100q147 0 185 201l106 602q10 55 62 55h202q48 0 48 -40q0 -7 -1 -15l-178 -1002q-8 -53 -59 -53h-182q-54 0 -54 45l2 74q-94 -139 -270 -139q-285 0 -285 264 z" />
<glyph unicode="v" horiz-adv-x="997" d="M131 1049q-1 6 -1 11q0 50 50 50h209q53 0 53 -53l21 -486l4 -233h8l86 233l189 486q23 53 71 53h219q30 0 37 -16q8 -18 -6 -45l-459 -1000q-24 -49 -73 -49h-240q-55 0 -61 49z" />
<glyph unicode="w" horiz-adv-x="1542" d="M139 1049v8q0 53 49 53h207q56 0 56 -53l8 -486l-6 -223h6l80 223l192 490q21 49 64 49h161q48 0 52 -49l22 -490v-223h4l74 223l178 486q18 53 70 53h219q40 0 40 -28q0 -13 -9 -33l-412 -994q-22 -55 -74 -55h-213q-57 0 -63 55l-25 389l-4 256h-6l-96 -256l-162 -389 q-22 -55 -76 -55h-213q-55 0 -61 55z" />
<glyph unicode="x" horiz-adv-x="1003" d="M-47 19q-6 20 14 42l383 502l-200 484q-11 25 -2 44t36 19h207q58 0 70 -43l94 -274l193 274q27 43 77 43h211q28 0 32 -19q5 -20 -13 -44l-369 -484l205 -502q11 -23 0 -42q-10 -19 -35 -19h-213q-53 0 -70 41l-94 287l-198 -287q-24 -41 -76 -41h-219q-27 0 -33 19z " />
<glyph unicode="y" horiz-adv-x="995" d="M-27 -166l33 143q11 48 60 48q7 0 25 -3q25 -4 35 -5q12 -1 38 -1q102 0 102 88q0 14 -2 29l-129 916q-1 9 -1 17q0 44 48 44h209q55 0 55 -53l33 -490l6 -239h9l79 239l177 490q18 53 67 53h217q29 0 38 -16t-3 -45l-420 -965q-78 -185 -164 -254q-87 -70 -272 -70 q-137 0 -203 21q-38 14 -38 43q0 5 1 10z" />
<glyph unicode="z" horiz-adv-x="927" d="M-4 53l20 119q8 40 35 70l500 602h-346q-48 0 -48 39q0 6 1 12l28 160q10 55 62 55h657q48 0 48 -40q0 -7 -1 -15l-20 -119q-7 -39 -39 -74l-494 -596h367q48 0 48 -40q0 -6 -1 -13l-29 -160q-8 -53 -59 -53h-682q-49 0 -49 37q0 7 2 16z" />
<glyph unicode="{" horiz-adv-x="679" d="M47 532l29 156q8 53 61 53h23q46 0 80 67q32 64 61 230q44 247 119 327q77 81 254 81h86q53 0 45 -53l-25 -129q-6 -54 -63 -54h-25q-47 0 -69 -46q-23 -47 -45 -175q-30 -175 -88 -265t-148 -114q119 -38 119 -211q0 -77 -17 -168q-18 -96 -18 -147q0 -74 55 -74h25 q53 0 45 -53l-23 -129q-8 -53 -63 -53h-88q-136 0 -193 45t-57 164q0 71 23 198q22 128 22 193q0 104 -57 104h-25q-51 0 -43 53z" />
<glyph unicode="|" horiz-adv-x="614" d="M166 -172v1606q0 53 53 53h176q54 0 54 -53v-1606q0 -53 -54 -53h-176q-53 0 -53 53z" />
<glyph unicode="}" horiz-adv-x="679" d="M-76 -172l23 129q8 53 63 53h27q46 0 69 47q23 48 44 174q34 181 89 266q57 89 148 113q-119 38 -119 211q0 77 17 168q18 96 18 148q0 73 -55 73h-27q-51 0 -45 54l25 129q8 53 61 53h88q136 0 194 -44q56 -43 56 -165q0 -90 -20 -199q-23 -138 -23 -196q0 -101 57 -101 h23q51 0 43 -53l-27 -156q-8 -53 -63 -53h-23q-46 0 -77 -65q-32 -68 -62 -232q-44 -244 -119 -325q-76 -82 -254 -82h-86q-53 0 -45 53z" />
<glyph unicode="~" d="M119 668q34 122 104 196q69 74 174 74q98 0 193 -51l94 -49q59 -31 102 -31q61 0 95 61q12 12 20 37q25 41 68 19l102 -56q35 -19 25 -71q-34 -120 -105 -194q-70 -73 -174 -73q-91 0 -192 52l-95 51q-58 29 -100 29q-57 0 -98 -62l-19 -35q-23 -44 -67 -20l-103 55 q-35 23 -24 68z" />
<glyph unicode="&#xa1;" horiz-adv-x="569" d="M-12 -207l190 809q12 53 64 53h145q55 0 49 -53l-94 -809q-6 -57 -61 -57h-248q-61 0 -45 57zM186 840l39 213q11 57 62 57h215q58 0 47 -57l-37 -213q-12 -56 -66 -56h-208q-63 0 -52 56z" />
<glyph unicode="&#xa2;" horiz-adv-x="925" d="M68 385q0 91 16 172q91 522 504 567l22 129q8 52 58 52h86q51 0 43 -52l-23 -129q103 -15 160 -45q40 -21 22 -63l-59 -146q-21 -47 -72 -32q-66 24 -145 24q-117 0 -183 -70q-68 -73 -98 -237q-12 -73 -12 -129q0 -94 46 -136t140 -42q82 0 160 24q56 18 62 -30l8 -144 q2 -41 -47 -67q-67 -33 -183 -45l-22 -129q-8 -52 -59 -52h-84q-51 0 -43 52l22 131q-148 18 -233 118q-86 101 -86 279z" />
<glyph unicode="&#xa3;" horiz-adv-x="1187" d="M18 164q-18 35 21 59q262 163 262 365q0 29 -6 59h-156q-44 0 -37 43l13 74q8 41 49 41h92q-27 99 -27 162q0 234 157 368q155 133 390 133q201 0 307 -81q109 -83 109 -238q0 -170 -70 -170h-190q-41 0 -41 31q0 13 8 45t8 49q0 96 -147 96q-106 0 -162 -70 q-55 -68 -55 -174q0 -54 20 -151h275q45 0 39 -41l-15 -74q-6 -43 -49 -43h-229q21 -252 -185 -383q67 19 119 19q39 0 109 -16q66 -15 102 -15q99 0 127 127q12 47 66 47h147q62 0 51 -68q-33 -187 -104 -280q-72 -94 -215 -94q-88 0 -205 31q-120 32 -190 32 q-136 0 -240 -49q-51 -21 -64 4z" />
<glyph unicode="&#xa4;" horiz-adv-x="1150" d="M143 197q-30 30 0 59l88 88q-53 97 -53 238q0 138 53 235l-88 88q-31 31 0 62l47 47q31 29 60 0l78 -80q100 80 247 80q151 0 246 -80l80 80q29 29 60 0l49 -47q28 -31 0 -62l-92 -90q55 -100 55 -233q0 -141 -55 -236l92 -90q29 -29 0 -59l-49 -47q-31 -31 -60 0l-80 79 q-89 -82 -246 -82q-153 0 -247 82l-78 -79q-29 -31 -60 0zM408 582q0 -110 45 -167t122 -57q79 0 122 57q44 58 44 167t-44 167q-43 56 -122 56q-80 0 -123 -56q-44 -58 -44 -167z" />
<glyph unicode="&#xa5;" horiz-adv-x="1175" d="M100 379l11 72q7 43 49 43h268l4 30l-31 115h-211q-44 0 -36 45l12 70q6 43 49 43h143l-163 579q-8 28 5 48q14 22 46 22h225q59 0 70 -53l108 -559h6l308 559q30 53 79 53h226q33 0 41 -23t-9 -47l-368 -579h141q44 0 37 -43l-12 -70q-6 -45 -49 -45h-215l-72 -115 l-4 -30h262q44 0 37 -43l-13 -72q-6 -43 -49 -43h-266l-49 -279q-12 -57 -64 -57h-217q-61 0 -49 57l49 279h-262q-47 0 -37 43z" />
<glyph unicode="&#xa6;" horiz-adv-x="614" d="M166 -172v582q0 53 53 53h176q54 0 54 -53v-582q0 -53 -54 -53h-176q-53 0 -53 53zM166 852v582q0 53 53 53h176q54 0 54 -53v-582q0 -53 -54 -53h-176q-53 0 -53 53z" />
<glyph unicode="&#xa7;" horiz-adv-x="1200" d="M47 -129l39 143q16 56 78 39q111 -30 260 -30q35 0 78 5q42 5 81 16q41 12 67 36t26 59q0 23 -12 41q-12 19 -37 34q-24 15 -48 27q-9 5 -32 14.5t-30 12.5q-37 16 -60 27q-175 78 -249 140q-77 65 -77 171q0 98 57 178q58 80 154 121q-78 82 -78 178q0 201 144 293 q145 92 366 92q198 0 330 -43q51 -18 35 -69l-39 -144q-16 -52 -78 -36q-106 28 -231 28q-205 0 -211 -114q0 -23 10 -40t36 -34q26 -16 45 -27q17 -9 61 -28q35 -15 65 -29q160 -69 239 -141q80 -72 80 -181q0 -177 -209 -288q86 -72 86 -181q0 -103 -49 -179 q-50 -78 -133 -119q-80 -40 -179 -62q-94 -21 -200 -21q-228 0 -348 41q-30 11 -37 25q-7 15 0 45zM428 645q0 -52 56 -86q57 -34 200 -94q21 -8 25 -10q42 16 75 47q35 33 35 73q0 57 -65 97q-66 40 -215 100q-41 -11 -77 -47q-34 -34 -34 -80z" />
<glyph unicode="&#xa8;" horiz-adv-x="651" d="M135 1264l23 120q8 52 57 52h168q55 0 47 -52l-22 -120q-8 -52 -58 -52h-170q-53 0 -45 52zM522 1264l23 120q8 52 57 52h170q53 0 45 -52l-20 -120q-12 -52 -60 -52h-170q-53 0 -45 52z" />
<glyph unicode="&#xa9;" horiz-adv-x="1624" d="M94 723q0 321 188 533t531 212q344 0 532 -212q187 -211 187 -533t-187 -533q-186 -210 -532 -210q-345 0 -531 210q-188 212 -188 533zM266 723q0 -263 136 -424q136 -162 411 -162t410 162t135 424t-135 424t-410 162t-411 -162q-136 -161 -136 -424zM465 733 q1 226 98 329q95 101 285 101q110 0 192 -39q34 -12 27 -49l-27 -104q-7 -37 -49 -25q-47 19 -110 19q-89 0 -133 -53q-43 -52 -43 -179q0 -129 44 -182t134 -53q64 0 114 20q44 12 50 -24l26 -105q7 -34 -26 -49q-83 -39 -197 -39q-189 0 -286 101q-98 102 -99 331z" />
<glyph unicode="&#xaa;" horiz-adv-x="823" d="M172 1202q0 86 30 149q30 62 76 98q47 36 118 57q74 22 141 29q68 8 157 9l11 53q8 53 -18 76t-93 23q-84 0 -211 -39q-51 -15 -51 33l-2 108q0 34 41 51q143 49 270 49q311 0 311 -225q0 -35 -6 -76l-96 -544q-8 -47 -55 -47h-129q-45 0 -45 38l2 43q-90 -94 -226 -94 q-94 0 -160 58q-65 57 -65 151zM420 1241q0 -72 78 -72q64 0 105 41q39 39 50 107l17 84q-250 -4 -250 -160z" />
<glyph unicode="&#xab;" horiz-adv-x="968" d="M76 594q6 16 10 24l193 287q24 39 65 39h174q58 0 25 -53l-201 -297l96 -297q15 -53 -41 -53h-172q-45 0 -57 39l-90 286q-4 17 -2 25zM492 594q6 16 12 24l190 287q24 39 68 39h172q57 0 24 -53l-198 -297l94 -297q15 -53 -39 -53h-174q-45 0 -57 39l-88 286q-4 9 -4 25 z" />
<glyph unicode="&#xac;" horiz-adv-x="1150" d="M129 645l27 154q8 53 59 53h817q55 0 47 -53l-92 -514q-8 -56 -61 -56h-195q-56 0 -45 54l55 309h-567q-53 0 -45 53z" />
<glyph unicode="&#xad;" horiz-adv-x="692" d="M74 508l26 149q8 52 60 52h452q55 0 47 -52l-26 -149q-8 -53 -60 -53h-454q-53 0 -45 53z" />
<glyph unicode="&#xae;" horiz-adv-x="876" d="M88 1108q0 153 92 257q91 103 258 103q168 0 259 -103t91 -257t-91 -257t-259 -103q-167 0 -258 103q-92 104 -92 257zM172 1108q0 -126 67 -205q66 -78 199 -78q134 0 200 78q67 79 67 205t-67 205q-66 78 -200 78q-133 0 -199 -78q-67 -79 -67 -205zM299 934v358 q0 23 23 23h129q163 0 163 -144q0 -96 -75 -122l69 -113q4 -10 0 -17q-5 -8 -14 -8h-72q-15 0 -26 17l-60 104h-26v-98q0 -23 -23 -23h-65q-23 0 -23 23zM410 1120h34q36 0 48 12t12 39q0 28 -12 40t-48 12h-34v-103z" />
<glyph unicode="&#xaf;" horiz-adv-x="651" d="M137 1272l15 84q7 49 55 49h561q50 0 43 -49l-14 -84q-10 -49 -58 -49h-559q-53 0 -43 49z" />
<glyph unicode="&#xb0;" horiz-adv-x="735" d="M180 1110q0 145 101 249q100 103 251 103q120 0 194 -70q75 -70 75 -182q0 -144 -102 -248t-253 -104q-115 0 -191 71q-75 71 -75 181zM340 1130q0 -54 35 -89q33 -33 92 -33q72 0 121 52t49 132q0 54 -34 88q-35 35 -91 35q-72 0 -121 -54t-51 -131z" />
<glyph unicode="&#xb1;" d="M18 53l19 103q8 53 59 53h832q59 0 47 -53l-19 -103q-8 -53 -59 -53h-831q-60 0 -48 53zM139 737l27 150q8 51 59 51h277l49 283q8 53 59 53h181q57 0 45 -53l-50 -283h273q57 0 45 -51l-27 -150q-8 -53 -59 -53h-277l-51 -291q-8 -51 -59 -51h-180q-53 0 -45 51l51 291 h-273q-53 0 -45 53z" />
<glyph unicode="&#xb2;" horiz-adv-x="770" d="M178 1051l17 90q6 24 41 47q74 50 126 87q55 40 128 102q74 64 117 131q41 65 46 130q5 72 -71 72q-105 0 -105 -125q0 -49 -45 -49h-127q-39 0 -39 43q0 149 92 235q90 84 252 84q138 0 209 -61q72 -61 72 -162q0 -243 -375 -479h258q47 0 41 -45l-18 -100 q-7 -45 -52 -45h-528q-47 0 -39 45z" />
<glyph unicode="&#xb3;" horiz-adv-x="770" d="M156 1083l39 105q14 42 59 24q84 -28 168 -28q149 0 149 119q0 65 -94 65h-84q-45 0 -39 45l17 84q6 45 49 45h84q49 0 85 28q34 27 34 77q0 65 -119 65q-67 0 -162 -31q-42 -15 -47 25l-4 104q0 30 37 45q98 43 235 43q130 0 213 -50q82 -49 82 -146q0 -78 -42 -142 q-42 -65 -111 -92q98 -37 98 -161q0 -157 -103 -236q-102 -78 -260 -78q-177 0 -262 43q-34 16 -22 47z" />
<glyph unicode="&#xb4;" horiz-adv-x="651" d="M294 1225q-8 12 3 30l98 166q22 37 60 37h233q18 0 25 -9q8 -9 5 -24q-2 -12 -16 -24l-182 -160q-31 -29 -74 -29h-122q-22 0 -30 13z" />
<glyph unicode="&#xb5;" horiz-adv-x="1077" d="M-18 -172l217 1227q10 55 61 55h203q57 0 47 -55l-107 -598q-6 -37 -6 -66q0 -139 123 -139q69 0 100 40t46 124l112 639q7 55 62 55h202q55 0 48 -55l-129 -721q-30 -181 -114 -269q-82 -85 -243 -85q-102 0 -170 40t-96 97l-47 -291q-7 -51 -62 -51h-200q-55 0 -47 53z " />
<glyph unicode="&#xb6;" horiz-adv-x="1064" d="M160 907q0 235 147 387t395 152h439q55 0 45 -49l-12 -68q-8 -47 -56 -47h-67q-59 0 -87 -26q-27 -26 -38 -89l-203 -1151q-24 -132 -78 -193q-53 -59 -172 -59q-103 0 -149 21q-30 12 -23 45l12 70q1 32 43 32q12 0 38 -3t40 -3q43 0 66 25q21 22 32 88l89 500h-41 q-188 0 -304 98t-116 270z" />
<glyph unicode="&#xb7;" horiz-adv-x="479" d="M80 461l39 207q7 55 63 55h195q61 0 51 -55l-37 -207q-10 -55 -61 -55h-201q-59 0 -49 55z" />
<glyph unicode="&#xb8;" horiz-adv-x="651" d="M76 -285l12 74q6 27 35 27h65q37 0 61 18q23 17 23 51q0 77 -133 140h101q81 -21 138 -73q56 -52 56 -120q0 -83 -61 -123q-62 -41 -156 -41q-83 0 -119 13q-23 7 -22 34z" />
<glyph unicode="&#xb9;" horiz-adv-x="770" d="M307 1640q-19 31 17 56l241 174q26 16 62 16h133q54 0 43 -47l-139 -786q-11 -47 -54 -47h-135q-49 0 -43 47l105 583l-123 -77q-42 -23 -60 6z" />
<glyph unicode="&#xba;" horiz-adv-x="862" d="M209 1307q0 72 14 141q40 232 150 343q108 110 293 110q158 0 243 -78q86 -78 86 -236q0 -74 -14 -143q-41 -235 -148 -342q-109 -109 -292 -109q-332 0 -332 314zM461 1319q0 -121 98 -121q67 0 108 57q39 55 62 191q14 69 14 129q0 119 -96 119q-66 0 -107 -58 t-65 -190q-14 -69 -14 -127z" />
<glyph unicode="&#xbb;" horiz-adv-x="968" d="M46 258q-8 15 9 39l197 297l-92 297q-17 53 39 53h174q47 0 55 -39l90 -287q6 -15 2 -24q0 -14 -10 -25l-191 -286q-27 -39 -67 -39h-174q-25 0 -32 14zM462 258q-8 15 9 39l199 297l-95 297q-17 53 39 53h172q48 0 60 -39l88 -287q6 -15 2 -24q0 -14 -10 -25l-191 -286 q-24 -39 -67 -39h-174q-25 0 -32 14z" />
<glyph unicode="&#xbc;" horiz-adv-x="1804" d="M231 1200q-18 30 17 55l241 175q26 16 62 16h133q54 0 43 -47l-139 -787q-11 -47 -53 -47h-136q-49 0 -43 47l105 584l-123 -78q-41 -23 -59 6zM397 51l936 1350q30 45 74 45h129q27 0 33 -14q6 -15 -10 -37l-936 -1350q-33 -45 -76 -45h-129q-58 0 -21 51zM1024 217 l16 102q6 26 25 50l430 483q24 29 53 29h140q54 0 43 -47l-84 -476h53q48 0 41 -45l-17 -92q-6 -47 -51 -47h-59l-23 -127q-11 -47 -53 -47h-133q-52 0 -41 47l22 127h-325q-43 0 -37 43zM1233 358h186l47 269z" />
<glyph unicode="&#xbd;" horiz-adv-x="1804" d="M231 1200q-18 30 17 55l241 175q26 16 62 16h133q54 0 43 -47l-139 -787q-11 -47 -53 -47h-136q-49 0 -43 47l105 584l-123 -78q-41 -23 -59 6zM334 51l936 1350q30 45 73 45h130q26 0 32 -14q6 -15 -10 -37l-936 -1350q-33 -45 -76 -45h-129q-58 0 -20 51zM1040 45 q-8 -45 39 -45h529q44 0 51 45l18 100q6 45 -41 45h-258q375 236 375 480q0 100 -72 161q-73 62 -208 62q-161 0 -252 -85q-93 -87 -93 -235q0 -43 39 -43h127q45 0 45 50q0 125 105 125q76 0 72 -72q-5 -63 -47 -130q-44 -69 -116 -131q-79 -68 -128 -103q-36 -26 -127 -87 q-35 -23 -41 -47z" />
<glyph unicode="&#xbe;" horiz-adv-x="1804" d="M78 643l39 105q14 42 59 24q87 -29 168 -29q150 0 150 119q0 66 -95 66h-84q-45 0 -39 45l17 84q6 45 49 45h84q50 0 85 27q34 27 34 77q0 66 -119 66q-67 0 -162 -31q-42 -15 -47 25l-4 104q0 30 37 45q98 43 235 43q130 0 213 -50q82 -49 82 -146q0 -78 -42 -143 q-42 -64 -111 -91q98 -37 98 -162q0 -157 -102 -235t-261 -78q-177 0 -262 43q-34 16 -22 47zM422 51l936 1350q30 45 74 45h129q26 0 32 -14q6 -15 -10 -37l-936 -1350q-33 -45 -76 -45h-129q-58 0 -20 51zM1024 217l16 102q6 26 25 50l430 483q24 29 53 29h140 q54 0 43 -47l-84 -476h53q48 0 41 -45l-17 -92q-6 -47 -51 -47h-59l-23 -127q-11 -47 -53 -47h-133q-52 0 -41 47l22 127h-325q-43 0 -37 43zM1233 358h186l47 269z" />
<glyph unicode="&#xbf;" horiz-adv-x="888" d="M-16 -14q0 -129 101 -197q103 -70 284 -70q179 0 329 60q48 22 47 65l-2 162q-4 51 -59 33q-129 -41 -219 -41q-139 0 -139 88q0 65 44 133q44 69 98 118q53 49 104 118t61 127l2 18q7 55 -49 55h-183q-53 0 -63 -55l-2 -18q-8 -48 -48 -99t-90 -99q-58 -57 -100 -102 q-47 -51 -83 -131q-33 -73 -33 -165zM373 840l37 213q12 57 63 57h215q58 0 47 -57l-39 -215q-11 -54 -63 -54h-209q-59 0 -51 56z" />
<glyph unicode="&#xc0;" horiz-adv-x="1220" d="M-38 18q-12 18 1 48l586 1323q24 57 82 57h297q62 0 67 -57l119 -1323q6 -66 -55 -66h-219q-58 0 -58 53l-18 228h-365l-96 -228q-24 -53 -72 -53h-229q-28 0 -40 18zM498 563h266l-31 557h-6zM546 1762q9 22 34 22h231q43 0 53 -39l43 -166q6 -43 -37 -43h-122 q-41 0 -68 29l-129 161q-14 14 -5 36z" />
<glyph unicode="&#xc1;" horiz-adv-x="1220" d="M-38 18q-12 18 1 48l586 1323q24 57 82 57h297q62 0 67 -57l119 -1323q6 -66 -55 -66h-219q-58 0 -58 53l-18 228h-365l-96 -228q-24 -53 -72 -53h-229q-28 0 -40 18zM498 563h266l-31 557h-6zM707 1579l98 166q24 39 63 39h234q16 0 23 -10t4 -24t-15 -24l-184 -161 q-31 -29 -76 -29h-123q-48 0 -24 43z" />
<glyph unicode="&#xc2;" horiz-adv-x="1220" d="M-38 18q-12 18 1 48l586 1323q24 57 82 57h297q62 0 67 -57l119 -1323q6 -66 -55 -66h-219q-58 0 -58 53l-18 228h-365l-96 -228q-24 -53 -72 -53h-229q-28 0 -40 18zM489 1553q-4 17 17 34l201 180q35 29 73 29h123q44 0 68 -29l137 -180q14 -16 5 -34q-9 -17 -34 -17 h-106q-34 0 -62 31l-88 92l-121 -92q-36 -31 -69 -31h-115q-25 0 -29 17zM498 563h266l-31 557h-6z" />
<glyph unicode="&#xc3;" horiz-adv-x="1220" d="M-38 18q-12 18 1 48l586 1323q24 57 82 57h297q62 0 67 -57l119 -1323q6 -66 -55 -66h-219q-58 0 -58 53l-18 228h-365l-96 -228q-24 -53 -72 -53h-229q-28 0 -40 18zM471 1602q30 170 184 170q69 0 154 -31l63 -29q111 -51 127 10l7 13q15 32 53 32h67q49 0 39 -71 q-28 -166 -182 -166q-73 0 -154 31l-63 28q-47 19 -80 19q-40 0 -51 -29l-4 -12q-15 -33 -53 -33h-70q-26 0 -34 14q-9 15 -3 54zM498 563h266l-31 557h-6z" />
<glyph unicode="&#xc4;" horiz-adv-x="1220" d="M-38 18q-12 18 1 48l586 1323q24 57 82 57h297q62 0 67 -57l119 -1323q6 -66 -55 -66h-219q-58 0 -58 53l-18 228h-365l-96 -228q-24 -53 -72 -53h-229q-28 0 -40 18zM471 1587l21 119q8 51 57 51h172q55 0 47 -51l-23 -119q-7 -51 -59 -51h-172q-50 0 -43 51zM498 563 h266l-31 557h-6zM866 1587l23 119q7 51 57 51h172q54 0 47 -51l-22 -119q-7 -51 -60 -51h-172q-53 0 -45 51z" />
<glyph unicode="&#xc5;" horiz-adv-x="1220" d="M-38 18q-12 18 1 48l586 1323q15 33 35 47q-15 28 -15 67q0 105 72 172q73 68 180 68q91 0 149 -49t58 -127q0 -80 -45 -142q7 -7 12 -36l119 -1323q6 -66 -55 -66h-219q-58 0 -58 53l-18 228h-365l-96 -228q-24 -53 -72 -53h-229q-28 0 -40 18zM498 563h266l-31 557h-6z M705 1520q0 -33 22 -54q21 -20 59 -20h9q42 4 70 32t28 72q0 33 -23 54q-21 20 -59 20q-45 0 -76 -29q-30 -29 -30 -75z" />
<glyph unicode="&#xc6;" horiz-adv-x="1593" d="M-56 18q-12 19 3 48l657 1323q24 57 84 57h936q56 0 49 -57l-31 -177q-10 -57 -63 -57h-408l-51 -281h381q57 0 49 -57l-28 -164q-10 -55 -64 -55h-385l-55 -307h412q59 0 51 -58l-33 -176q-8 -57 -64 -57h-679q-64 0 -52 57l39 224h-297l-108 -228q-29 -53 -74 -53h-229 q-28 0 -40 18zM512 561h229l107 596h-53z" />
<glyph unicode="&#xc7;" horiz-adv-x="1077" d="M94 459q0 99 27 266q72 404 238 573q167 170 464 170q181 0 299 -61q52 -21 31 -72l-63 -153q-24 -55 -80 -37q-79 29 -170 29q-167 0 -253 -98q-85 -97 -130 -351q-23 -138 -23 -209q0 -132 61 -188t195 -56q100 0 182 33q62 21 66 -39l12 -153q2 -45 -55 -72 q-128 -59 -287 -61q90 -60 90 -146q0 -92 -66 -138q-65 -46 -167 -46q-85 0 -119 12q-28 10 -22 39l14 76q1 26 33 26h69q90 0 90 74q0 60 -79 115q-357 62 -357 467z" />
<glyph unicode="&#xc8;" horiz-adv-x="1015" d="M35 57l235 1332q8 57 64 57h713q59 0 51 -57l-31 -175q-7 -57 -66 -57h-446l-49 -283h418q56 0 49 -57l-29 -164q-10 -55 -63 -55h-424l-56 -309h451q59 0 51 -58l-31 -174q-12 -57 -65 -57h-721q-63 0 -51 57zM501 1762q9 22 34 22h231q42 0 53 -39l43 -166 q6 -43 -37 -43h-123q-40 0 -67 29l-129 161q-14 14 -5 36z" />
<glyph unicode="&#xc9;" horiz-adv-x="1015" d="M35 57l235 1332q8 57 64 57h713q59 0 51 -57l-31 -175q-7 -57 -66 -57h-446l-49 -283h418q56 0 49 -57l-29 -164q-10 -55 -63 -55h-424l-56 -309h451q59 0 51 -58l-31 -174q-12 -57 -65 -57h-721q-63 0 -51 57zM596 1579l98 166q24 39 64 39h233q17 0 24 -10t4 -24 t-15 -24l-185 -161q-31 -29 -76 -29h-122q-49 0 -25 43z" />
<glyph unicode="&#xca;" horiz-adv-x="1015" d="M35 57l235 1332q8 57 64 57h713q59 0 51 -57l-31 -175q-7 -57 -66 -57h-446l-49 -283h418q56 0 49 -57l-29 -164q-10 -55 -63 -55h-424l-56 -309h451q59 0 51 -58l-31 -174q-12 -57 -65 -57h-721q-63 0 -51 57zM410 1553q-4 18 16 34l201 180q35 29 73 29h123 q44 0 68 -29l137 -180q14 -16 5 -34q-9 -17 -34 -17h-106q-34 0 -62 31l-88 92l-120 -92q-36 -31 -70 -31h-115q-24 0 -28 17z" />
<glyph unicode="&#xcb;" horiz-adv-x="1015" d="M35 57l235 1332q8 57 64 57h713q59 0 51 -57l-31 -175q-7 -57 -66 -57h-446l-49 -283h418q56 0 49 -57l-29 -164q-10 -55 -63 -55h-424l-56 -309h451q59 0 51 -58l-31 -174q-12 -57 -65 -57h-721q-63 0 -51 57zM389 1587l21 119q8 51 57 51h172q55 0 47 -51l-22 -119 q-8 -51 -60 -51h-172q-50 0 -43 51zM784 1587l23 119q7 51 57 51h172q54 0 47 -51l-22 -119q-7 -51 -60 -51h-172q-53 0 -45 51z" />
<glyph unicode="&#xcc;" horiz-adv-x="565" d="M45 57l236 1332q7 57 63 57h215q59 0 51 -57l-235 -1332q-12 -57 -64 -57h-217q-61 0 -49 57zM226 1762q9 22 34 22h232q42 0 53 -39l43 -166q6 -43 -37 -43h-123q-41 0 -68 29l-129 161q-14 14 -5 36z" />
<glyph unicode="&#xcd;" horiz-adv-x="565" d="M45 57l236 1332q7 57 63 57h215q59 0 51 -57l-235 -1332q-12 -57 -64 -57h-217q-61 0 -49 57zM375 1579l98 166q24 39 64 39h233q17 0 24 -10t4 -24q-3 -12 -16 -24l-184 -161q-31 -29 -76 -29h-123q-48 0 -24 43z" />
<glyph unicode="&#xce;" horiz-adv-x="565" d="M45 57l236 1332q7 57 63 57h215q59 0 51 -57l-235 -1332q-12 -57 -64 -57h-217q-61 0 -49 57zM162 1553q-4 18 16 34l201 180q35 29 74 29h122q44 0 68 -29l137 -180q14 -16 5 -34q-9 -17 -33 -17h-107q-33 0 -61 31l-88 92l-121 -92q-36 -31 -70 -31h-115q-24 0 -28 17z " />
<glyph unicode="&#xcf;" horiz-adv-x="565" d="M45 57l236 1332q7 57 63 57h215q59 0 51 -57l-235 -1332q-12 -57 -64 -57h-217q-61 0 -49 57zM143 1587l21 119q8 51 57 51h172q55 0 47 -51l-22 -119q-8 -51 -60 -51h-172q-50 0 -43 51zM539 1587l22 119q7 51 57 51h173q55 0 47 -51l-23 -119q-7 -51 -59 -51h-172 q-52 0 -45 51z" />
<glyph unicode="&#xd0;" horiz-adv-x="1222" d="M39 57l102 578h-53q-45 0 -39 45l17 88q8 45 51 45h55l102 576q8 57 66 57h348q265 0 397 -112t132 -369q0 -93 -23 -242q-66 -395 -236 -559t-487 -164h-383q-61 0 -49 57zM412 293h90q151 0 233 91q81 90 125 339q21 117 21 201q0 128 -57 177q-58 50 -175 50h-88 l-59 -338h155q45 0 39 -45l-16 -88q-8 -45 -51 -45h-158z" />
<glyph unicode="&#xd1;" horiz-adv-x="1253" d="M35 57l235 1332q8 57 64 57h196q55 0 70 -41l252 -784l135 768q7 57 64 57h204q59 0 52 -57l-236 -1332q-7 -57 -63 -57h-197q-55 0 -70 43l-252 782l-135 -768q-12 -57 -63 -57h-205q-63 0 -51 57zM487 1602q30 170 185 170q68 0 153 -31l64 -29q111 -51 127 10l6 13 q15 32 53 32h68q49 0 39 -71q-28 -166 -183 -166q-72 0 -153 31l-64 28q-48 19 -80 19q-40 0 -51 -29l-4 -12q-15 -33 -53 -33h-70q-26 0 -34 14q-9 15 -3 54z" />
<glyph unicode="&#xd2;" horiz-adv-x="1259" d="M92 455q0 105 29 270q72 404 232 573q161 170 433 170q469 0 469 -475q0 -109 -26 -272q-72 -403 -233 -573q-159 -168 -433 -168q-229 0 -350 112t-121 363zM428 477q0 -110 41 -160q40 -49 125 -49q116 0 185 101t114 354q27 153 27 246q0 109 -41 159t-125 50 q-117 0 -186 -101q-67 -98 -111 -354q-29 -169 -29 -246zM572 1762q9 22 34 22h232q42 0 53 -39l43 -166q7 -43 -37 -43h-123q-40 0 -67 29l-129 161q-15 15 -6 36z" />
<glyph unicode="&#xd3;" horiz-adv-x="1259" d="M92 455q0 105 29 270q72 404 232 573q161 170 433 170q469 0 469 -475q0 -109 -26 -272q-72 -403 -233 -573q-159 -168 -433 -168q-229 0 -350 112t-121 363zM428 477q0 -110 41 -160q40 -49 125 -49q116 0 185 101t114 354q27 153 27 246q0 109 -41 159t-125 50 q-117 0 -186 -101q-67 -98 -111 -354q-29 -169 -29 -246zM719 1579l98 166q24 39 64 39h233q17 0 24 -10t4 -24q-3 -12 -16 -24l-184 -161q-31 -29 -76 -29h-123q-48 0 -24 43z" />
<glyph unicode="&#xd4;" horiz-adv-x="1259" d="M92 455q0 105 29 270q72 404 232 573q161 170 433 170q469 0 469 -475q0 -109 -26 -272q-72 -403 -233 -573q-159 -168 -433 -168q-229 0 -350 112t-121 363zM428 477q0 -110 41 -160q40 -49 125 -49q116 0 185 101t114 354q27 153 27 246q0 109 -41 159t-125 50 q-117 0 -186 -101q-67 -98 -111 -354q-29 -169 -29 -246zM508 1553q-4 18 16 34l201 180q35 29 74 29h123q43 0 67 -29l137 -180q15 -16 6 -34q-8 -17 -34 -17h-107q-33 0 -61 31l-88 92l-121 -92q-36 -31 -70 -31h-114q-25 0 -29 17z" />
<glyph unicode="&#xd5;" horiz-adv-x="1259" d="M92 455q0 105 29 270q72 404 232 573q161 170 433 170q469 0 469 -475q0 -109 -26 -272q-72 -403 -233 -573q-159 -168 -433 -168q-229 0 -350 112t-121 363zM428 477q0 -110 41 -160q40 -49 125 -49q116 0 185 101t114 354q27 153 27 246q0 109 -41 159t-125 50 q-117 0 -186 -101q-67 -98 -111 -354q-29 -169 -29 -246zM489 1602q30 170 185 170q68 0 153 -31l64 -29q111 -51 127 10l6 13q15 32 53 32h68q49 0 39 -71q-28 -166 -183 -166q-72 0 -153 31l-64 28q-49 19 -79 19q-41 0 -52 -29l-4 -12q-15 -33 -53 -33h-70q-25 0 -33 14 q-10 16 -4 54z" />
<glyph unicode="&#xd6;" horiz-adv-x="1259" d="M92 455q0 105 29 270q72 404 232 573q161 170 433 170q469 0 469 -475q0 -109 -26 -272q-72 -403 -233 -573q-159 -168 -433 -168q-229 0 -350 112t-121 363zM428 477q0 -110 41 -160q40 -49 125 -49q116 0 185 101t114 354q27 153 27 246q0 109 -41 159t-125 50 q-117 0 -186 -101q-67 -98 -111 -354q-29 -169 -29 -246zM489 1587l21 119q8 51 57 51h172q55 0 47 -51l-22 -119q-8 -51 -59 -51h-173q-50 0 -43 51zM885 1587l22 119q7 51 58 51h172q55 0 47 -51l-23 -119q-7 -51 -59 -51h-172q-52 0 -45 51z" />
<glyph unicode="&#xd7;" d="M104 387q-30 37 13 74l297 252l-209 252q-29 35 14 73l135 117q46 38 76 0l207 -252l297 252q45 35 74 0l96 -117q29 -37 -14 -73l-295 -252l206 -252q28 -37 -12 -74l-137 -117q-45 -39 -74 0l-207 252l-297 -252q-43 -37 -75 0z" />
<glyph unicode="&#xd8;" horiz-adv-x="1269" d="M33 45q-37 27 2 70l96 108q-37 95 -37 232q0 105 29 270q69 403 230 573t435 170q228 0 342 -108l64 72q37 40 74 12l53 -43q40 -31 0 -72l-98 -112q34 -93 34 -224q0 -113 -28 -272q-69 -401 -230 -573q-158 -168 -434 -168q-231 0 -342 104l-63 -72q-38 -39 -72 -12z M434 557l469 533q-34 88 -147 88q-117 0 -186 -101q-68 -99 -113 -354q-19 -120 -23 -166zM451 350q34 -82 145 -82q116 0 185 101t114 354q19 150 20 160z" />
<glyph unicode="&#xd9;" horiz-adv-x="1214" d="M88 344q0 57 12 129l164 916q7 57 64 57h215q59 0 51 -57l-156 -879q-10 -54 -10 -92q0 -142 143 -142q97 0 147 56q51 57 73 176l153 881q8 57 64 57h217q57 0 49 -57l-162 -916q-45 -257 -180 -376q-133 -117 -389 -117q-455 0 -455 364zM560 1762q9 22 34 22h231 q43 0 54 -39l43 -166q7 -43 -37 -43h-123q-41 0 -68 29l-129 161q-14 14 -5 36z" />
<glyph unicode="&#xda;" horiz-adv-x="1214" d="M88 344q0 57 12 129l164 916q7 57 64 57h215q59 0 51 -57l-156 -879q-10 -54 -10 -92q0 -142 143 -142q97 0 147 56q51 57 73 176l153 881q8 57 64 57h217q57 0 49 -57l-162 -916q-45 -257 -180 -376q-133 -117 -389 -117q-455 0 -455 364zM684 1579l98 166q24 39 64 39 h233q17 0 24 -10t4 -24t-15 -24l-185 -161q-31 -29 -76 -29h-122q-49 0 -25 43z" />
<glyph unicode="&#xdb;" horiz-adv-x="1214" d="M88 344q0 57 12 129l164 916q7 57 64 57h215q59 0 51 -57l-156 -879q-10 -54 -10 -92q0 -142 143 -142q97 0 147 56q51 57 73 176l153 881q8 57 64 57h217q57 0 49 -57l-162 -916q-45 -257 -180 -376q-133 -117 -389 -117q-455 0 -455 364zM487 1553q-4 17 17 34l201 180 q35 29 73 29h123q44 0 68 -29l137 -180q14 -16 5 -34q-9 -17 -34 -17h-106q-34 0 -62 31l-88 92l-121 -92q-36 -31 -69 -31h-115q-25 0 -29 17z" />
<glyph unicode="&#xdc;" horiz-adv-x="1214" d="M88 344q0 57 12 129l164 916q7 57 64 57h215q59 0 51 -57l-156 -879q-10 -54 -10 -92q0 -142 143 -142q97 0 147 56q51 57 73 176l153 881q8 57 64 57h217q57 0 49 -57l-162 -916q-45 -257 -180 -376q-133 -117 -389 -117q-455 0 -455 364zM469 1587l20 119q7 51 58 51 h172q55 0 47 -51l-23 -119q-7 -51 -59 -51h-172q-50 0 -43 51zM864 1587l23 119q7 51 57 51h172q54 0 47 -51l-22 -119q-7 -51 -60 -51h-172q-53 0 -45 51z" />
<glyph unicode="&#xdd;" horiz-adv-x="1185" d="M199 1376q-8 25 5 47q14 23 46 23h223q57 0 68 -53l82 -377l24 -197h6l97 197l215 377q29 53 79 53h230q34 0 41 -24q8 -25 -8 -46l-537 -837l-84 -482q-12 -57 -65 -57h-215q-60 0 -52 57l86 482zM678 1579l98 166q24 39 64 39h233q17 0 24 -10t4 -24q-3 -12 -16 -24 l-184 -161q-31 -29 -76 -29h-123q-48 0 -24 43z" />
<glyph unicode="&#xde;" horiz-adv-x="1163" d="M35 57l235 1332q8 57 64 57h215q57 0 49 -57l-18 -111h104q237 0 354 -81t117 -273q0 -82 -14 -156q-50 -283 -189 -394q-141 -112 -417 -112h-136l-34 -205q-12 -57 -66 -57h-215q-61 0 -49 57zM451 545h112q117 0 170 48q54 50 78 177q8 53 8 90q0 73 -41 103 q-40 30 -135 30h-115z" />
<glyph unicode="&#xdf;" horiz-adv-x="1163" d="M27 51l180 1016q69 397 514 397q194 0 304 -79q112 -80 112 -205q0 -72 -38 -140q-36 -64 -82 -109q-57 -55 -82 -82q-38 -41 -38 -63q0 -28 47 -75q48 -48 95 -123q48 -76 48 -176q0 -199 -99 -313q-99 -113 -306 -115q-86 0 -162 18q-38 9 -55 21.5t-14 29.5l28 154 q12 51 62 49q70 -2 156 46q87 48 87 124q2 71 -96 173t-98 171q0 54 37 100q40 50 80 76q39 26 79 75q37 46 37 97q0 99 -133 99q-160 0 -190 -175l-174 -991q-12 -51 -62 -51h-190q-54 0 -47 51z" />
<glyph unicode="&#xe0;" horiz-adv-x="1024" d="M16 246q0 106 36 184q36 79 93 125q58 47 147 76q88 28 176 39q74 9 202 14l10 59q15 70 -20 102t-123 32q-105 0 -261 -48q-59 -16 -59 37l2 140q0 47 49 63q153 59 338 59q383 0 383 -276q0 -48 -8 -94l-125 -705q-8 -53 -57 -53h-166q-49 0 -53 45l4 72 q-111 -131 -287 -131q-130 0 -205 68q-76 69 -76 192zM319 295q0 -92 99 -92q86 0 136 53q49 52 64 141l21 109q-155 -6 -238 -54q-82 -48 -82 -157zM424 1438q7 20 33 20h227q43 0 53 -37l45 -166q10 -43 -37 -43h-112q-45 0 -68 29l-135 160q-14 15 -6 37z" />
<glyph unicode="&#xe1;" horiz-adv-x="1024" d="M16 246q0 106 36 184q36 79 93 125q58 47 147 76q88 28 176 39q74 9 202 14l10 59q15 70 -20 102t-123 32q-105 0 -261 -48q-59 -16 -59 37l2 140q0 47 49 63q153 59 338 59q383 0 383 -276q0 -48 -8 -94l-125 -705q-8 -53 -57 -53h-166q-49 0 -53 45l4 72 q-111 -131 -287 -131q-130 0 -205 68q-76 69 -76 192zM319 295q0 -92 99 -92q86 0 136 53q49 52 64 141l21 109q-155 -6 -238 -54q-82 -48 -82 -157zM517 1225q-7 12 3 30l98 166q22 37 60 37h233q18 0 25 -9q8 -9 5 -24q-3 -13 -15 -24l-183 -160q-31 -29 -73 -29h-123 q-22 0 -30 13z" />
<glyph unicode="&#xe2;" horiz-adv-x="1024" d="M16 246q0 106 36 184q36 79 93 125q58 47 147 76q88 28 176 39q74 9 202 14l10 59q15 70 -20 102t-123 32q-105 0 -261 -48q-59 -16 -59 37l2 140q0 47 49 63q153 59 338 59q383 0 383 -276q0 -48 -8 -94l-125 -705q-8 -53 -57 -53h-166q-49 0 -53 45l4 72 q-111 -131 -287 -131q-130 0 -205 68q-76 69 -76 192zM319 295q0 -92 99 -92q86 0 136 53q49 52 64 141l21 109q-155 -6 -238 -54q-82 -48 -82 -157zM338 1230q-4 17 14 34l199 182q31 29 74 29h123q46 0 67 -29l137 -182q12 -16 4 -34q-7 -18 -32 -18h-105q-39 0 -63 29 l-86 96l-121 -96q-35 -29 -68 -29h-114q-25 0 -29 18z" />
<glyph unicode="&#xe3;" horiz-adv-x="1024" d="M16 246q0 106 36 184q36 79 93 125q58 47 147 76q88 28 176 39q74 9 202 14l10 59q15 70 -20 102t-123 32q-105 0 -261 -48q-59 -16 -59 37l2 140q0 47 49 63q153 59 338 59q383 0 383 -276q0 -48 -8 -94l-125 -705q-8 -53 -57 -53h-166q-49 0 -53 45l4 72 q-111 -131 -287 -131q-130 0 -205 68q-76 69 -76 192zM319 295q0 -92 99 -92q86 0 136 53q49 52 64 141l21 109q-155 -6 -238 -54q-82 -48 -82 -157zM324 1278q28 168 178 168q70 0 149 -31l66 -28q46 -19 74 -19q41 0 49 31l4 12q16 31 51 31h70q47 0 36 -70 q-29 -164 -174 -164q-88 0 -153 31l-64 27q-45 18 -73 18q-40 0 -52 -29l-4 -12q-15 -31 -51 -31h-68q-26 0 -36 15q-9 14 -2 51z" />
<glyph unicode="&#xe4;" horiz-adv-x="1024" d="M16 246q0 106 36 184q36 79 93 125q58 47 147 76q88 28 176 39q74 9 202 14l10 59q15 70 -20 102t-123 32q-105 0 -261 -48q-59 -16 -59 37l2 140q0 47 49 63q153 59 338 59q383 0 383 -276q0 -48 -8 -94l-125 -705q-8 -53 -57 -53h-166q-49 0 -53 45l4 72 q-111 -131 -287 -131q-130 0 -205 68q-76 69 -76 192zM319 295q0 -92 99 -92q86 0 136 53q49 52 64 141l21 109q-155 -6 -238 -54q-82 -48 -82 -157zM319 1264l23 120q8 52 57 52h168q55 0 47 -52l-22 -120q-8 -52 -57 -52h-170q-54 0 -46 52zM707 1264l22 120q8 52 57 52 h170q53 0 45 -52l-20 -120q-12 -52 -59 -52h-170q-53 0 -45 52z" />
<glyph unicode="&#xe5;" horiz-adv-x="1024" d="M16 246q0 106 36 184q36 79 93 125q58 47 147 76q88 28 176 39q74 9 202 14l10 59q15 70 -20 102t-123 32q-105 0 -261 -48q-59 -16 -59 37l2 140q0 47 49 63q153 59 338 59q383 0 383 -276q0 -48 -8 -94l-125 -705q-8 -53 -57 -53h-166q-49 0 -53 45l4 72 q-111 -131 -287 -131q-130 0 -205 68q-76 69 -76 192zM319 295q0 -92 99 -92q86 0 136 53q49 52 64 141l21 109q-155 -6 -238 -54q-82 -48 -82 -157zM455 1374q0 105 70 172q71 68 184 68q89 0 148 -51q58 -51 58 -129q0 -106 -71 -171q-73 -67 -185 -67q-89 0 -147 50 q-57 50 -57 128zM588 1391q0 -34 24 -55t62 -21q44 0 76 28t32 74q0 36 -23 56t-63 20q-43 0 -76 -28q-32 -27 -32 -74z" />
<glyph unicode="&#xe6;" horiz-adv-x="1587" d="M16 248q0 78 21 139q21 63 52 102q34 43 84 72q55 31 102 47q46 15 124 28q65 11 130 14q72 4 137 5l16 95q10 61 -24 94q-35 33 -119 33q-109 0 -265 -48q-59 -16 -59 37v140q0 47 49 63q165 59 336 59q234 0 289 -124q116 126 309 126q176 0 271 -90q96 -91 96 -256 q0 -77 -17 -159l-20 -117q-10 -57 -70 -57h-524q-6 -33 -6 -62q0 -172 207 -172q101 0 221 43q28 10 45 0q16 -10 14 -37l2 -123q0 -42 -53 -65q-129 -55 -281 -55q-289 0 -356 178q-147 -172 -381 -172q-158 0 -244 69t-86 193zM319 293q0 -88 105 -88q84 0 133 54 q49 53 64 144l14 72q-64 -2 -104 -6q-48 -5 -85 -14q-45 -11 -69 -30q-25 -21 -41 -52q-17 -34 -17 -80zM958 647h310l4 21q10 63 10 104q0 127 -117 127q-78 0 -126 -57q-47 -56 -81 -195z" />
<glyph unicode="&#xe7;" horiz-adv-x="888" d="M68 377q0 81 18 182q96 571 563 571q171 0 256 -49q43 -21 25 -65l-60 -146q-16 -46 -73 -30q-70 22 -131 22q-109 0 -172 -69q-65 -71 -93 -236q-14 -73 -14 -137q0 -92 42 -132q41 -40 128 -40q83 0 152 26q58 18 59 -30l6 -146q4 -40 -47 -67q-102 -51 -240 -51h-6 q92 -60 92 -148q0 -83 -61 -123q-62 -41 -156 -41q-82 0 -118 13q-24 8 -23 34l12 74q6 27 35 27h66q36 0 60 18t24 51q0 62 -86 115q-258 72 -258 377z" />
<glyph unicode="&#xe8;" horiz-adv-x="1038" d="M63 385q0 52 19 180q100 565 551 565q187 0 282 -94q97 -95 97 -270q0 -63 -17 -160l-18 -112q-11 -58 -70 -58h-540q-5 -45 -5 -51q2 -168 218 -168q115 0 225 43q29 10 45 0t16 -37v-121q0 -44 -53 -67q-129 -55 -285 -55q-465 0 -465 405zM395 633h322l4 20 q12 83 12 109q0 137 -123 137q-83 0 -132 -61q-50 -63 -83 -205zM426 1438q7 20 33 20h227q43 0 53 -37l45 -166q10 -43 -36 -43h-113q-45 0 -68 29l-135 160q-14 15 -6 37z" />
<glyph unicode="&#xe9;" horiz-adv-x="1038" d="M63 385q0 52 19 180q100 565 551 565q187 0 282 -94q97 -95 97 -270q0 -63 -17 -160l-18 -112q-11 -58 -70 -58h-540q-5 -45 -5 -51q2 -168 218 -168q115 0 225 43q29 10 45 0t16 -37v-121q0 -44 -53 -67q-129 -55 -285 -55q-465 0 -465 405zM395 633h322l4 20 q12 83 12 109q0 137 -123 137q-83 0 -132 -61q-50 -63 -83 -205zM534 1225q-8 12 3 30l98 166q22 37 59 37h234q16 0 24 -9t5 -24q-3 -13 -15 -24l-182 -160q-31 -29 -74 -29h-123q-21 0 -29 13z" />
<glyph unicode="&#xea;" horiz-adv-x="1038" d="M63 385q0 52 19 180q100 565 551 565q187 0 282 -94q97 -95 97 -270q0 -63 -17 -160l-18 -112q-11 -58 -70 -58h-540q-5 -45 -5 -51q2 -168 218 -168q115 0 225 43q29 10 45 0t16 -37v-121q0 -44 -53 -67q-129 -55 -285 -55q-465 0 -465 405zM352 1230q-4 16 15 34 l198 182q31 29 74 29h123q46 0 67 -29l138 -182q12 -16 4 -34q-7 -18 -33 -18h-104q-40 0 -64 29l-86 96l-121 -96q-35 -29 -67 -29h-115q-25 0 -29 18zM395 633h322l4 20q12 83 12 109q0 137 -123 137q-83 0 -132 -61q-50 -63 -83 -205z" />
<glyph unicode="&#xeb;" horiz-adv-x="1038" d="M63 385q0 52 19 180q100 565 551 565q187 0 282 -94q97 -95 97 -270q0 -63 -17 -160l-18 -112q-11 -58 -70 -58h-540q-5 -45 -5 -51q2 -168 218 -168q115 0 225 43q29 10 45 0t16 -37v-121q0 -44 -53 -67q-129 -55 -285 -55q-465 0 -465 405zM336 1264l22 120q8 52 58 52 h168q55 0 47 -52l-23 -120q-8 -52 -57 -52h-170q-53 0 -45 52zM395 633h322l4 20q12 83 12 109q0 137 -123 137q-83 0 -132 -61q-50 -63 -83 -205zM723 1264l22 120q8 52 58 52h170q53 0 45 -52l-21 -120q-12 -52 -59 -52h-170q-53 0 -45 52z" />
<glyph unicode="&#xec;" horiz-adv-x="518" d="M31 53l176 1002q10 55 61 55h203q57 0 47 -55l-178 -1002q-8 -53 -59 -53h-203q-55 0 -47 53zM143 1438q7 20 33 20h227q44 0 54 -37l45 -166q10 -43 -37 -43h-113q-44 0 -67 29l-135 160q-15 16 -7 37z" />
<glyph unicode="&#xed;" horiz-adv-x="518" d="M31 53l176 1002q10 55 61 55h203q57 0 47 -55l-178 -1002q-8 -53 -59 -53h-203q-55 0 -47 53zM292 1225q-8 12 3 30l98 166q22 37 60 37h233q18 0 25 -9q8 -9 5 -24q-2 -12 -16 -24l-182 -160q-31 -29 -74 -29h-122q-22 0 -30 13z" />
<glyph unicode="&#xee;" horiz-adv-x="518" d="M31 53l176 1002q10 55 61 55h203q57 0 47 -55l-178 -1002q-8 -53 -59 -53h-203q-55 0 -47 53zM86 1230q-4 17 14 34l199 182q31 29 74 29h123q46 0 67 -29l137 -182q12 -17 5 -34q-7 -18 -33 -18h-105q-39 0 -63 29l-86 96l-121 -96q-35 -29 -68 -29h-114q-25 0 -29 18z " />
<glyph unicode="&#xef;" horiz-adv-x="518" d="M31 53l176 1002q10 55 61 55h203q57 0 47 -55l-178 -1002q-8 -53 -59 -53h-203q-55 0 -47 53zM70 1264l22 120q8 52 58 52h167q56 0 48 -52l-23 -120q-8 -52 -57 -52h-170q-53 0 -45 52zM457 1264l22 120q8 52 58 52h170q53 0 45 -52l-21 -120q-12 -52 -59 -52h-170 q-53 0 -45 52z" />
<glyph unicode="&#xf0;" horiz-adv-x="1083" d="M61 371q0 70 19 178q50 285 185 425q136 140 339 140q117 0 172 -43q-18 67 -47 119h-233q-49 0 -39 43l10 61q7 43 49 43h127l-21 22q-5 5 -15.5 15t-15.5 15q-4 4 -8.5 8t-6.5 6l-3 2q-15 12 -7 29q7 16 28 16h197q40 0 59 -25q8 -11 63 -88h170q45 0 39 -43l-12 -61 q-7 -43 -47 -43h-84q76 -168 76 -387q0 -129 -23 -246q-52 -297 -190 -438q-136 -139 -369 -139q-197 0 -304 98q-108 99 -108 293zM383 352q0 -68 27 -93q28 -26 90 -26q94 0 133 54q36 50 74 221q28 115 28 207q0 155 -123 155q-91 0 -144 -92t-77 -266q-8 -72 -8 -160z " />
<glyph unicode="&#xf1;" horiz-adv-x="1083" d="M20 53l179 1002q10 55 59 55h182q54 0 54 -45l-2 -74q111 139 286 139q271 0 271 -274q0 -44 -11 -115l-123 -688q-8 -53 -59 -53h-203q-55 0 -47 53l111 635q8 53 8 68q0 98 -98 98q-153 0 -191 -207l-104 -594q-12 -53 -62 -53h-202q-56 0 -48 53zM354 1278 q28 168 178 168q71 0 150 -31l66 -29q43 -18 73 -18q38 0 49 31l4 12q16 31 52 31h69q48 0 37 -70q-29 -164 -174 -164q-85 0 -153 31l-64 27q-45 18 -74 18q-39 0 -51 -29l-4 -12q-16 -31 -51 -31h-68q-27 0 -37 15q-9 14 -2 51z" />
<glyph unicode="&#xf2;" horiz-adv-x="1085" d="M63 375q0 -198 107 -297q105 -98 305 -98q233 0 369 139q138 141 190 434q17 93 17 180q0 200 -107 299q-105 98 -305 98q-232 0 -370 -139q-138 -140 -189 -434q-17 -111 -17 -182zM377 387q0 71 20 168q30 172 81 248q50 74 136 74q123 0 123 -154q0 -60 -18 -168 q-33 -174 -83 -248t-136 -74q-123 0 -123 154zM438 1438q7 20 33 20h227q44 0 54 -37l45 -166q10 -43 -37 -43h-113q-44 0 -67 29l-136 160q-14 15 -6 37z" />
<glyph unicode="&#xf3;" horiz-adv-x="1085" d="M63 375q0 -198 107 -297q105 -98 305 -98q233 0 369 139q138 141 190 434q17 93 17 180q0 200 -107 299q-105 98 -305 98q-232 0 -370 -139q-138 -140 -189 -434q-17 -111 -17 -182zM377 387q0 71 20 168q30 172 81 248q50 74 136 74q123 0 123 -154q0 -60 -18 -168 q-33 -174 -83 -248t-136 -74q-123 0 -123 154zM560 1225q-8 12 3 30l99 166q22 37 59 37h233q18 0 25 -9q8 -9 5 -24q-3 -13 -15 -24l-183 -160q-31 -29 -73 -29h-123q-22 0 -30 13z" />
<glyph unicode="&#xf4;" horiz-adv-x="1085" d="M63 375q0 -198 107 -297q105 -98 305 -98q233 0 369 139q138 141 190 434q17 93 17 180q0 200 -107 299q-105 98 -305 98q-232 0 -370 -139q-138 -140 -189 -434q-17 -111 -17 -182zM369 1230q-4 17 14 34l199 182q31 29 73 29h123q47 0 68 -29l137 -182q12 -16 4 -34 t-33 -18h-104q-40 0 -64 29l-86 96l-120 -96q-35 -29 -68 -29h-115q-23 0 -28 18zM377 387q0 71 20 168q30 172 81 248q50 74 136 74q123 0 123 -154q0 -60 -18 -168q-33 -174 -83 -248t-136 -74q-123 0 -123 154z" />
<glyph unicode="&#xf5;" horiz-adv-x="1085" d="M63 375q0 71 17 182q51 294 189 434q138 139 370 139q200 0 305 -98q107 -99 107 -299q0 -87 -17 -180q-52 -293 -190 -434q-136 -139 -369 -139q-200 0 -305 98q-107 99 -107 297zM354 1278q28 168 178 168q71 0 150 -31l66 -29q43 -18 73 -18q38 0 49 31l4 12 q16 31 52 31h69q48 0 37 -70q-29 -164 -174 -164q-85 0 -153 31l-64 27q-45 18 -74 18q-39 0 -51 -29l-4 -12q-16 -31 -51 -31h-68q-27 0 -37 15q-9 14 -2 51zM377 387q0 -154 123 -154q86 0 136 74t83 248q18 108 18 168q0 154 -123 154q-86 0 -136 -74q-51 -76 -81 -248 q-20 -97 -20 -168z" />
<glyph unicode="&#xf6;" horiz-adv-x="1085" d="M63 375q0 -198 107 -297q105 -98 305 -98q233 0 369 139q138 141 190 434q17 93 17 180q0 200 -107 299q-105 98 -305 98q-232 0 -370 -139q-138 -140 -189 -434q-17 -111 -17 -182zM352 1264l23 120q8 52 57 52h168q55 0 47 -52l-22 -120q-8 -52 -58 -52h-170 q-53 0 -45 52zM377 387q0 71 20 168q30 172 81 248q50 74 136 74q123 0 123 -154q0 -60 -18 -168q-33 -174 -83 -248t-136 -74q-123 0 -123 154zM739 1264l23 120q8 52 57 52h170q53 0 45 -52l-20 -120q-12 -52 -60 -52h-170q-53 0 -45 52z" />
<glyph unicode="&#xf7;" d="M143 653l23 129q6 52 59 52h797q53 0 47 -52l-22 -129q-12 -53 -62 -53h-797q-57 0 -45 53zM367 227l32 191q10 55 66 55h188q59 0 52 -55l-35 -191q-10 -55 -64 -55h-192q-57 0 -47 55zM506 1016l33 190q12 56 65 56h189q59 0 51 -56l-35 -190q-10 -55 -64 -55h-192 q-57 0 -47 55z" />
<glyph unicode="&#xf8;" horiz-adv-x="1093" d="M31 35q-33 33 4 65l69 74q-36 79 -36 201q0 80 18 182q51 294 189 434q138 139 370 139q181 0 287 -86l53 58q37 37 68 8l39 -35q28 -28 -5 -65l-71 -76q39 -88 39 -201q0 -87 -17 -180q-51 -294 -189 -434q-138 -139 -370 -139q-188 0 -289 83l-53 -55q-39 -38 -67 -10z M385 457l338 360q-27 60 -105 60q-86 0 -136 -74q-51 -76 -81 -248zM399 291q27 -58 107 -58q84 0 135 74q52 75 82 248l14 98z" />
<glyph unicode="&#xf9;" horiz-adv-x="1075" d="M57 244q0 40 11 104l127 707q6 55 59 55h203q54 0 47 -55l-113 -635q-6 -38 -6 -68q0 -100 96 -100q147 0 185 201l106 602q10 55 62 55h202q57 0 47 -55l-178 -1002q-8 -53 -59 -53h-182q-54 0 -54 45l2 74q-94 -139 -270 -139q-285 0 -285 264zM436 1438q7 20 33 20 h227q44 0 54 -37l45 -166q10 -43 -37 -43h-113q-44 0 -67 29l-136 160q-14 15 -6 37z" />
<glyph unicode="&#xfa;" horiz-adv-x="1075" d="M57 244q0 40 11 104l127 707q6 55 59 55h203q54 0 47 -55l-113 -635q-6 -38 -6 -68q0 -100 96 -100q147 0 185 201l106 602q10 55 62 55h202q57 0 47 -55l-178 -1002q-8 -53 -59 -53h-182q-54 0 -54 45l2 74q-94 -139 -270 -139q-285 0 -285 264zM552 1225q-8 12 3 30 l98 166q22 37 60 37h233q18 0 25 -9q8 -9 5 -24q-3 -13 -15 -24l-183 -160q-31 -29 -73 -29h-123q-22 0 -30 13z" />
<glyph unicode="&#xfb;" horiz-adv-x="1075" d="M57 244q0 40 11 104l127 707q6 55 59 55h203q54 0 47 -55l-113 -635q-6 -38 -6 -68q0 -100 96 -100q147 0 185 201l106 602q10 55 62 55h202q57 0 47 -55l-178 -1002q-8 -53 -59 -53h-182q-54 0 -54 45l2 74q-94 -139 -270 -139q-285 0 -285 264zM365 1230q-4 17 14 34 l199 182q31 29 73 29h123q47 0 68 -29l137 -182q12 -16 4 -34q-7 -18 -33 -18h-104q-40 0 -64 29l-86 96l-121 -96q-35 -29 -67 -29h-115q-23 0 -28 18z" />
<glyph unicode="&#xfc;" horiz-adv-x="1075" d="M57 244q0 40 11 104l127 707q6 55 59 55h203q54 0 47 -55l-113 -635q-6 -38 -6 -68q0 -100 96 -100q147 0 185 201l106 602q10 55 62 55h202q57 0 47 -55l-178 -1002q-8 -53 -59 -53h-182q-54 0 -54 45l2 74q-94 -139 -270 -139q-285 0 -285 264zM348 1264l23 120 q8 52 57 52h168q55 0 47 -52l-22 -120q-8 -52 -58 -52h-170q-53 0 -45 52zM735 1264l23 120q8 52 57 52h170q53 0 45 -52l-20 -120q-12 -52 -60 -52h-170q-53 0 -45 52z" />
<glyph unicode="&#xfd;" horiz-adv-x="995" d="M-27 -166l33 143q11 48 60 48q7 0 25 -3q25 -4 35 -5q12 -1 38 -1q118 0 100 117l-129 916q-10 61 47 61h209q55 0 55 -53l33 -490l6 -239h9l79 239l177 490q18 53 67 53h217q29 0 38 -16t-3 -45l-420 -965q-78 -185 -164 -254q-87 -70 -272 -70q-137 0 -203 21 q-44 16 -37 53zM519 1225q-7 12 3 30l99 166q22 37 59 37h233q17 0 25 -9t5 -24q-3 -13 -15 -24l-183 -160q-31 -29 -73 -29h-123q-22 0 -30 13z" />
<glyph unicode="&#xfe;" horiz-adv-x="1130" d="M-16 -172l276 1565q8 53 59 53h203q57 0 49 -53l-69 -394q44 60 115 96q70 35 157 35q324 0 324 -364q0 -96 -21 -213q-52 -296 -167 -435q-114 -138 -302 -138q-89 0 -166 34t-98 90l-49 -276q-8 -53 -62 -53h-202q-55 0 -47 53zM406 406q0 -170 133 -170q87 0 139 72 q54 74 84 247q16 102 16 162q0 84 -30 121q-29 36 -97 36q-88 0 -144 -74q-57 -75 -87 -245q-14 -78 -14 -149z" />
<glyph unicode="&#xff;" horiz-adv-x="995" d="M-27 -166l33 143q11 48 60 48q7 0 25 -3q25 -4 35 -5q12 -1 38 -1q118 0 100 117l-129 916q-10 61 47 61h209q55 0 55 -53l33 -490l6 -239h9l79 239l177 490q18 53 67 53h217q29 0 38 -16t-3 -45l-420 -965q-78 -185 -164 -254q-87 -70 -272 -70q-137 0 -203 21 q-44 16 -37 53zM307 1264l23 120q8 52 57 52h168q55 0 47 -52l-22 -120q-8 -52 -58 -52h-170q-53 0 -45 52zM694 1264l23 120q8 52 57 52h170q53 0 45 -52l-20 -120q-12 -52 -60 -52h-170q-53 0 -45 52z" />
<glyph unicode="&#x152;" horiz-adv-x="1646" d="M117 475q0 109 24 250q69 396 238 559q168 162 479 162h821q58 0 52 -57l-33 -177q-10 -57 -64 -57h-415l-50 -281h387q57 0 50 -57l-31 -164q-10 -55 -64 -55h-391l-55 -307h420q61 0 49 -58l-31 -176q-12 -57 -63 -57h-801q-259 0 -391 112q-131 111 -131 363zM455 516 q0 -124 54 -174q53 -49 169 -49h63l152 858h-59q-152 0 -233 -90q-80 -89 -124 -338q-22 -116 -22 -207z" />
<glyph unicode="&#x153;" horiz-adv-x="1644" d="M63 373q0 91 17 184q51 295 187 434t360 139q220 0 299 -135q129 135 327 135q179 0 272 -94t93 -264q0 -84 -14 -158l-21 -114q-11 -56 -67 -56h-525q-6 -34 -6 -55q1 -172 207 -172q109 0 219 43q62 18 62 -37l2 -123q0 -45 -52 -63q-137 -57 -282 -57q-248 0 -338 141 q-135 -141 -340 -141q-191 0 -295 98q-105 99 -105 295zM377 383q0 -150 117 -150q82 0 132 74q51 76 81 248q20 97 20 168q0 154 -121 154q-79 0 -129 -74t-80 -248q-20 -100 -20 -172zM1016 639h307l4 18q12 85 12 109q0 133 -114 133q-78 0 -127 -61q-48 -60 -82 -199z " />
<glyph unicode="&#x178;" horiz-adv-x="1185" d="M199 1376q-8 25 5 47q14 23 46 23h223q57 0 68 -53l82 -377l24 -197h6l97 197l215 377q29 53 79 53h230q34 0 41 -24q8 -25 -8 -46l-537 -837l-84 -482q-12 -57 -65 -57h-215q-60 0 -52 57l86 482zM455 1587l20 119q7 51 57 51h173q54 0 47 -51l-23 -119q-7 -51 -59 -51 h-172q-50 0 -43 51zM850 1587l22 119q7 51 58 51h172q54 0 47 -51l-23 -119q-8 -51 -59 -51h-172q-53 0 -45 51z" />
<glyph unicode="&#x2c6;" horiz-adv-x="651" d="M152 1230q-4 17 14 34l199 182q31 29 73 29h123q47 0 68 -29l137 -182q12 -16 4 -34t-33 -18h-104q-40 0 -64 29l-86 96l-121 -96q-35 -29 -67 -29h-115q-24 0 -28 18z" />
<glyph unicode="&#x2dc;" horiz-adv-x="651" d="M137 1278q29 168 178 168q71 0 150 -31l65 -29q44 -18 74 -18q41 0 49 31l4 12q15 31 52 31h69q48 0 37 -70q-29 -164 -174 -164q-86 0 -154 31l-63 27q-47 18 -74 18q-39 0 -51 -29l-4 -12q-15 -31 -51 -31h-68q-26 0 -37 15q-9 14 -2 51z" />
<glyph unicode="&#x2000;" horiz-adv-x="950" />
<glyph unicode="&#x2001;" horiz-adv-x="1901" />
<glyph unicode="&#x2002;" horiz-adv-x="950" />
<glyph unicode="&#x2003;" horiz-adv-x="1901" />
<glyph unicode="&#x2004;" horiz-adv-x="633" />
<glyph unicode="&#x2005;" horiz-adv-x="475" />
<glyph unicode="&#x2006;" horiz-adv-x="316" />
<glyph unicode="&#x2007;" horiz-adv-x="316" />
<glyph unicode="&#x2008;" horiz-adv-x="237" />
<glyph unicode="&#x2009;" horiz-adv-x="380" />
<glyph unicode="&#x200a;" horiz-adv-x="105" />
<glyph unicode="&#x2010;" horiz-adv-x="694" d="M74 508l26 149q8 52 60 52h452q55 0 47 -52l-26 -149q-8 -53 -60 -53h-454q-53 0 -45 53z" />
<glyph unicode="&#x2011;" horiz-adv-x="694" d="M74 508l26 149q8 52 60 52h452q55 0 47 -52l-26 -149q-8 -53 -60 -53h-454q-53 0 -45 53z" />
<glyph unicode="&#x2012;" horiz-adv-x="694" d="M74 508l26 149q8 52 60 52h452q55 0 47 -52l-26 -149q-8 -53 -60 -53h-454q-53 0 -45 53z" />
<glyph unicode="&#x2013;" horiz-adv-x="948" d="M74 508l26 149q8 52 60 52h706q55 0 47 -52l-26 -149q-8 -53 -60 -53h-708q-53 0 -45 53z" />
<glyph unicode="&#x2014;" horiz-adv-x="1374" d="M74 508l26 149q8 52 60 52h1132q55 0 49 -52l-26 -149q-12 -53 -62 -53h-1134q-53 0 -45 53z" />
<glyph unicode="&#x2018;" horiz-adv-x="475" d="M174 961l31 182q7 37 26 67l140 213q25 31 53 31h70q44 0 22 -45l-108 -195h59q59 0 47 -55l-33 -198q-8 -54 -65 -54h-193q-57 0 -49 54z" />
<glyph unicode="&#x2019;" horiz-adv-x="475" d="M203 911q-6 15 4 31l108 197h-59q-59 0 -49 55l37 197q6 55 63 55h193q61 0 51 -55l-33 -181q-5 -38 -26 -67l-142 -213q-21 -33 -51 -33h-72q-18 0 -24 14z" />
<glyph unicode="&#x201a;" horiz-adv-x="475" d="M4 -227q-6 15 4 30l109 197h-60q-56 0 -49 55l37 197q6 55 64 55h192q58 0 51 -55l-33 -180q-5 -40 -26 -68l-141 -213q-21 -33 -52 -33h-71q-19 0 -25 15z" />
<glyph unicode="&#x201c;" horiz-adv-x="884" d="M174 956l31 183q6 37 24 67l142 213q25 31 53 31h70q44 0 22 -45l-108 -195h59q57 0 47 -55l-33 -199q-12 -53 -65 -53h-193q-61 0 -49 53zM584 956l30 183q6 37 27 67l141 213q23 31 52 31h71q41 0 23 -45l-109 -195h60q54 0 47 -55l-35 -199q-8 -53 -66 -53h-192 q-57 0 -49 53z" />
<glyph unicode="&#x201d;" horiz-adv-x="884" d="M203 909q-6 15 4 31l106 197h-59q-57 0 -47 55l37 197q6 55 63 55h193q61 0 51 -55l-33 -181q-5 -38 -26 -67l-142 -213q-23 -33 -53 -33h-70q-18 0 -24 14zM612 909q-6 15 6 31l107 197h-59q-55 0 -48 55l35 197q10 55 64 55h194q60 0 50 -55l-31 -181q-7 -37 -27 -67 l-141 -213q-22 -33 -53 -33h-70q-21 0 -27 14z" />
<glyph unicode="&#x201e;" horiz-adv-x="884" d="M4 -227q-6 15 4 30l107 197h-60q-54 0 -47 55l37 197q6 55 64 55h192q58 0 51 -55l-33 -180q-5 -40 -26 -68l-141 -213q-23 -33 -54 -33h-69q-19 0 -25 15zM414 -227q-6 14 6 30l106 197h-59q-57 0 -47 55l35 197q7 55 63 55h195q56 0 49 -55l-31 -180q-7 -40 -26 -68 l-142 -213q-23 -33 -53 -33h-70q-20 0 -26 15z" />
<glyph unicode="&#x2022;" horiz-adv-x="794" d="M109 508q0 143 102 251q101 107 252 107q112 0 184 -69t72 -179q0 -139 -103 -248q-102 -108 -251 -108q-112 0 -185 70q-71 68 -71 176z" />
<glyph unicode="&#x2026;" horiz-adv-x="1439" d="M10 55l39 207q7 55 64 55h194q61 0 51 -55l-36 -207q-10 -55 -62 -55h-201q-59 0 -49 55zM492 55l36 207q7 55 64 55h196q62 0 50 -55l-37 -207q-10 -55 -62 -55h-198q-61 0 -49 55zM971 55l37 207q12 55 65 55h195q58 0 51 -55l-39 -207q-10 -55 -59 -55h-201 q-56 0 -49 55z" />
<glyph unicode="&#x202f;" horiz-adv-x="380" />
<glyph unicode="&#x2039;" horiz-adv-x="552" d="M76 594q7 19 10 24l193 287q24 39 65 39h174q58 0 25 -53l-201 -297l96 -297q15 -53 -41 -53h-172q-45 0 -57 39l-90 286q-4 17 -2 25z" />
<glyph unicode="&#x203a;" horiz-adv-x="552" d="M46 258q-8 15 9 39l197 297l-92 297q-17 53 39 53h174q47 0 55 -39l90 -287q6 -15 2 -24q-5 -18 -10 -23l-191 -288q-27 -39 -67 -39h-174q-25 0 -32 14z" />
<glyph unicode="&#x205f;" horiz-adv-x="475" />
<glyph unicode="&#x20ac;" horiz-adv-x="1171" d="M47 543l12 71q10 43 50 43h98l8 68l14 68h-92q-45 0 -39 43l15 71q6 43 47 43h110q85 261 247 390q161 128 415 128q190 0 317 -63q48 -25 23 -72l-78 -153q-27 -53 -80 -35q-79 29 -168 29q-242 0 -334 -224h402q44 0 26 -47l-34 -72q-18 -38 -60 -38h-383 q-7 -27 -14 -68q-9 -52 -10 -68h331q45 0 27 -47l-35 -71q-18 -39 -57 -39h-270q11 -224 253 -224q99 0 181 31q59 16 65 -37l25 -153q5 -29 -7 -43q-12 -15 -40 -27q-130 -63 -299 -63q-261 0 -395 131t-128 385h-104q-45 0 -39 43z" />
<glyph unicode="&#x2122;" horiz-adv-x="1359" d="M203 1317l16 92q6 37 39 37h406q40 0 34 -37l-18 -92q-6 -37 -41 -37h-107l-83 -471q-6 -37 -41 -37h-119q-39 0 -33 37l82 471h-105q-36 0 -30 37zM670 809l108 600q4 37 39 37h115q32 0 45 -25l90 -252l180 252q13 25 43 25h123q39 0 33 -37l-107 -600q-6 -37 -41 -37 h-114q-39 0 -33 37l61 348l-149 -205q-18 -24 -37 -24q-18 0 -29 24l-75 205l-62 -348q-6 -37 -41 -37h-114q-41 0 -35 37z" />
<glyph unicode="&#x25fc;" horiz-adv-x="1105" d="M0 0v1106h1106v-1106h-1106z" />
</font>
</defs>
</svg>
