<?xml version="1.0" standalone="no"?>
<!DOCTYPE svg PUBLIC "-//W3C//DTD SVG 1.1//EN" "http://www.w3.org/Graphics/SVG/1.1/DTD/svg11.dtd" >
<svg xmlns="http://www.w3.org/2000/svg" xmlns:xlink="http://www.w3.org/1999/xlink" version="1.1">
<metadata></metadata>
<defs>
<font id="amsipronarw-thiniuploadedfile" horiz-adv-x="1044" >
<font-face units-per-em="2048" ascent="1751" descent="-297" />
<missing-glyph horiz-adv-x="520" />
<glyph unicode="&#xfb01;" horiz-adv-x="882" d="M133 12l174 996h-151q-12 0 -11 12l2 18q5 13 17 13h151l21 118q24 139 83 207t163 68q61 0 94 -10q15 -1 10 -19l-6 -14q-4 -11 -18 -10q-36 10 -80 10q-89 0 -135 -56q-45 -55 -66 -180l-21 -114h455q13 0 8 -13l-178 -1026q-1 -12 -14 -12h-21q-12 0 -10 12l174 996 h-422l-174 -996q-2 -12 -14 -12h-21q-11 0 -10 12zM817 1262l29 159q2 13 14 13h25q12 0 10 -13l-29 -159q-2 -13 -14 -13h-25q-12 0 -10 13z" />
<glyph unicode="&#xfb02;" horiz-adv-x="886" d="M133 12l174 996h-151q-12 0 -11 12l2 18q5 13 17 13h151l15 88q27 156 104 230q78 75 240 75q131 0 209 -21q15 -1 10 -18l-244 -1393q-1 -12 -14 -12h-21q-12 0 -10 12l242 1374q-85 15 -172 15q-142 0 -209 -65q-66 -64 -90 -201l-15 -84h209q13 0 11 -13l-2 -18 q-4 -12 -15 -12h-211l-174 -996q-2 -12 -14 -12h-21q-11 0 -10 12z" />
<glyph unicode="&#xfb03;" horiz-adv-x="1353" d="M133 12l174 996h-151q-12 0 -11 12l2 18q5 13 17 13h151l21 118q24 139 83 207t163 68q40 0 94 -10q15 -1 10 -19l-6 -14q-4 -11 -18 -10q-36 10 -80 10q-88 0 -135 -58q-45 -55 -66 -180l-21 -112h426l21 118q24 139 83 207t163 68q61 0 94 -10q15 -1 10 -19l-6 -14 q-4 -11 -18 -10q-36 10 -78 10q-89 0 -135 -56q-47 -58 -68 -182l-21 -112h455q12 0 10 -13l-180 -1026q-2 -12 -14 -12h-21q-11 0 -10 12l176 996h-424l-174 -996q-1 -12 -14 -12h-21q-12 0 -10 12l174 996h-426l-174 -996q-2 -12 -14 -12h-21q-11 0 -10 12zM1288 1262 l29 159q2 13 14 13h25q12 0 10 -13l-29 -159q0 -13 -14 -13h-25q-10 0 -10 13z" />
<glyph unicode="&#xfb04;" horiz-adv-x="1357" d="M133 12l174 996h-151q-12 0 -11 12l2 18q5 13 17 13h151l21 118q24 139 83 207t163 68q61 0 94 -10q15 -1 10 -19l-6 -12q-4 -13 -18 -12q-36 10 -80 10q-88 0 -135 -58q-45 -55 -66 -180l-21 -112h426l15 88q27 156 104 230q78 75 240 75q131 0 209 -21q14 -1 12 -18 l-246 -1393q-2 -12 -14 -12h-21q-11 0 -10 12l242 1374q-86 15 -172 15q-142 0 -209 -65q-66 -64 -90 -201l-15 -84h211q11 0 9 -13l-2 -18q-5 -12 -15 -12h-211l-184 -983q-5 -13 -14 -13h-21q-15 0 -10 13l174 995h-426l-174 -995q-5 -13 -14 -13h-21z" />
<glyph horiz-adv-x="0" />
<glyph unicode="&#xd;" horiz-adv-x="681" />
<glyph unicode=" "  horiz-adv-x="520" />
<glyph unicode="&#x09;" horiz-adv-x="520" />
<glyph unicode="&#xa0;" horiz-adv-x="520" />
<glyph unicode="!" horiz-adv-x="442" d="M98 12l19 113q1 12 14 12h62q11 0 10 -12l-19 -113q-4 -12 -14 -12h-61q-15 0 -11 12zM184 377l176 1044q5 13 15 13h33q15 0 10 -13l-193 -1044q-5 -12 -14 -12h-16q-15 0 -11 12z" />
<glyph unicode="&#x22;" horiz-adv-x="530" d="M233 1024l35 254q11 76 21 131q5 33 11 40q8 9 26 9t22 -10t0 -39q-10 -54 -15 -74q-3 -14 -6.5 -27.5t-5.5 -20.5t-2 -9l-55 -254h-31zM459 1024l35 254q14 100 20 131q5 33 11 40q7 9 28 9q16 0 20 -10q5 -11 0 -41l-28 -129l-56 -254h-30z" />
<glyph unicode="#" horiz-adv-x="1101" d="M27 6l198 440h-184q-12 0 -10 13l4 20q0 13 14 13h197l203 458h-181q-10 0 -10 13l4 20q4 12 14 12h193l201 445q5 10 16 8l21 -6q13 -2 6 -15l-195 -432h400l200 445q2 13 15 8l22 -6q8 -2 6 -15l-194 -432h182q15 0 10 -12l-4 -20q0 -13 -14 -13h-195l-205 -458h181 q12 0 10 -13l-4 -20q0 -13 -15 -13h-192l-205 -452q-6 -11 -16 -10l-21 6q-10 1 -6 16l199 440h-400l-202 -452q-6 -12 -17 -10l-22 6q-10 4 -4 16zM293 492h399l205 458h-399z" />
<glyph unicode="$" horiz-adv-x="917" d="M27 45l6 18q6 15 18 9q112 -47 320 -47q156 0 269 100q114 101 114 258q0 58 -20 109q-19 49 -64 91q-40 37 -78 65q-39 28 -96 65q-2 1 -23 14q-79 51 -124 88q-47 37 -87 105q-41 68 -41 147q0 167 110 268q109 100 292 115l30 166q1 12 15 12h20q14 0 10 -12l-28 -164 q140 -1 243 -41q12 -6 11 -16l-9 -19q-1 -14 -16 -8q-100 39 -244 39q-165 0 -275 -88q-112 -89 -112 -252q0 -53 17 -98q17 -43 60 -84q40 -37 69 -59q8 -6 92 -62q66 -42 85 -56q14 -10 74 -58q51 -41 73 -75q22 -35 42 -83q21 -51 21 -107q0 -162 -109 -274 q-107 -110 -282 -127l-29 -166q-5 -13 -14 -13h-21q-15 0 -10 13l29 162q-214 0 -330 49q-14 6 -8 16z" />
<glyph unicode="%" horiz-adv-x="1529" d="M174 907q0 63 12 137q69 402 332 402q104 0 160 -68q55 -67 55 -196q0 -60 -12 -138q-73 -401 -332 -401q-102 0 -159 69q-56 68 -56 195zM219 905q0 -217 170 -217q219 0 285 356q14 85 14 140q0 219 -172 219q-217 0 -283 -359q-14 -84 -14 -139zM264 16l1036 1405 q11 13 23 13h23q18 0 6 -17l-1035 -1405q-12 -12 -22 -12h-25q-18 0 -6 16zM885 248q0 63 12 141q34 194 119 298q84 104 213 104q101 0 157 -69q56 -70 56 -196q0 -78 -12 -139q-69 -399 -332 -399q-103 0 -158 67t-55 193zM930 250q0 -219 170 -219q221 0 282 358 q15 72 15 137q0 219 -170 219q-222 0 -283 -356q-14 -88 -14 -139z" />
<glyph unicode="&#x26;" horiz-adv-x="1224" d="M84 322q0 189 121 338q122 151 311 206l-33 60q-73 121 -73 227q0 140 97 219q98 80 251 80q137 0 215 -35q14 -6 8 -16l-6 -15q-6 -12 -21 -10q-72 33 -192 33q-128 0 -217 -66q-88 -66 -88 -190q0 -85 71 -205l412 -710q102 150 102 337q0 35 11 35h22q15 0 15 -37 q0 -205 -127 -378l108 -181q4 -14 -10 -14h-27q-16 0 -37 33l-69 121q-164 -170 -424 -170q-194 0 -307 90t-113 248zM133 324q0 -143 98 -219t275 -76q254 0 399 166l-368 634q-171 -47 -287 -187q-117 -141 -117 -318z" />
<glyph unicode="'" horiz-adv-x="305" d="M233 1024l35 254q11 76 21 131q5 33 11 40q8 9 26 9t22 -10t0 -39q-10 -54 -15 -74q-3 -14 -6.5 -27.5t-5.5 -20.5t-2 -9l-55 -254h-31z" />
<glyph unicode="(" horiz-adv-x="569" d="M174 338q0 293 114 584q115 294 318 516q10 10 21 10h24q8 -2 4 -12q-202 -218 -315 -509q-115 -295 -115 -591q0 -335 137 -559q6 -13 -8 -13h-24q-11 0 -17 11q-139 239 -139 563z" />
<glyph unicode=")" horiz-adv-x="569" d="M-39 -223q198 218 315 508q117 291 117 587q0 334 -139 564q-6 12 8 12h25q12 0 16 -10q141 -243 141 -566q0 -292 -114 -583q-113 -289 -320 -514q-8 -11 -20 -11h-25q-11 0 -4 13z" />
<glyph unicode="*" horiz-adv-x="727" d="M195 997q-8 23 32 43q51 29 228 107q-169 93 -191 108q-30 21 -16 43q17 23 51 2q13 -8 174 -127q21 189 29 234q7 43 33 43q16 0 19 -9q3 -10 -1 -34q-7 -56 -53 -234q171 101 219 127q43 22 51 0q10 -24 -33 -45q-116 -60 -227 -106q130 -71 190 -109q35 -21 17 -45 q-17 -21 -51 0q-47 29 -174 127q-16 -165 -29 -233q-5 -26 -10 -34q-6 -9 -23 -9q-15 0 -20 8t0 35q18 85 55 233q-171 -101 -219 -127q-40 -21 -51 2z" />
<glyph unicode="+" d="M152 717l4 20q5 13 16 13h377l74 417q0 13 14 13h20q11 0 11 -13l-74 -417h379q10 0 10 -13l-4 -20q-5 -12 -14 -12h-379l-74 -418q-5 -13 -14 -13h-21q-15 0 -10 13l74 418h-379q-10 0 -10 12z" />
<glyph unicode="," horiz-adv-x="348" d="M25 -176l63 176h-27q-11 0 -10 12l19 113q4 12 14 12h61q15 0 11 -12l-19 -111l-6 -16l-72 -176q-6 -12 -16 -12h-10q-12 0 -8 14z" />
<glyph unicode="-" horiz-adv-x="665" d="M100 528l4 19q0 12 15 12h461q10 0 10 -12l-4 -19q-4 -12 -15 -12h-460q-13 0 -11 12z" />
<glyph unicode="." horiz-adv-x="348" d="M51 12l19 113q4 12 14 12h61q15 0 11 -12l-19 -113q-1 -12 -14 -12h-62q-11 0 -10 12z" />
<glyph unicode="/" horiz-adv-x="665" d="M-57 12l819 1411q8 11 20 11h21q15 0 8 -13l-821 -1411q-6 -10 -19 -10h-22q-13 0 -6 12z" />
<glyph unicode="0" horiz-adv-x="1103" d="M125 420q0 135 29 295q127 737 563 737q348 0 348 -440q0 -137 -29 -297q-66 -374 -203 -554q-138 -181 -360 -181q-348 0 -348 440zM172 416q0 -393 301 -393q391 0 514 690q31 180 31 303q0 391 -301 391q-393 0 -514 -690q-31 -164 -31 -301z" />
<glyph unicode="1" horiz-adv-x="673" d="M197 1161q-11 11 4 17l354 249q9 7 18 7h23q15 0 10 -13l-248 -1409q-2 -12 -14 -12h-22q-16 0 -11 12l240 1358l-328 -227q-11 -10 -16 2z" />
<glyph unicode="2" horiz-adv-x="1036" d="M37 12l2 21q0 10 14 20q369 285 527 443q365 363 366 657q0 254 -276 254q-171 0 -278 -104t-107 -279q0 -18 -13 -18h-22q-14 0 -14 22q0 189 123 306q124 118 313 118q165 0 244 -82t79 -217q0 -371 -553 -846q-105 -88 -329 -262h714q15 -1 15 -4q-4 -4 -4 -8l-2 -21 q0 -12 -15 -12h-774q-10 0 -10 12z" />
<glyph unicode="3" horiz-adv-x="923" d="M-8 51l8 17q6 14 18 8q130 -53 289 -53q205 0 330 131t125 333q0 242 -279 242h-114q-15 0 -11 12l4 21q2 12 15 12h115q162 0 262 124t100 284q0 225 -293 225q-162 0 -291 -49q-16 -6 -16 8l-2 16q0 11 14 17q138 53 295 53q342 0 342 -264q0 -154 -81 -278 q-80 -123 -218 -158q91 -15 149 -78q58 -62 58 -182q0 -234 -138 -373t-364 -139q-186 0 -309 55q-10 5 -8 16z" />
<glyph unicode="4" horiz-adv-x="1069" d="M59 383l4 20q4 15 11 23l848 997q8 11 18 11h27q12 0 10 -13l-178 -1005h205q12 0 10 -13l-2 -20q-4 -12 -15 -12h-204l-64 -359q-5 -12 -14 -12h-23q-12 0 -10 12l63 359h-675q-11 0 -11 12zM123 416h629l166 934z" />
<glyph unicode="5" horiz-adv-x="950" d="M14 49l9 17q6 15 18 10q120 -53 289 -53q226 0 350 154q125 155 125 380q0 260 -287 260q-82 0 -147 -13q-69 -14 -107 -27t-45 -13q-3 0 -14 4l-12 8q-11 6 -7 21q97 360 148 624q2 13 16 13h584q12 0 10 -13l-4 -20q-2 -12 -14 -12h-553q-63 -305 -137 -580 q141 53 282 53q174 0 255 -82t81 -223q0 -253 -140 -415t-384 -162q-184 0 -307 53q-10 6 -9 16z" />
<glyph unicode="6" horiz-adv-x="1034" d="M121 408q0 114 29 290q68 377 217 565q150 189 393 189q125 0 203 -37q9 -4 8 -16l-6 -15q-6 -15 -19 -10q-74 33 -192 33q-472 0 -574 -838q39 136 154 236q113 98 284 98q168 0 250 -90q82 -89 82 -240q0 -147 -54 -280t-165 -223t-256 -90q-174 0 -264 108t-90 320z M176 348q0 -133 75 -229t226 -96q133 0 233 89q99 88 144 212q45 123 45 251q0 131 -68 208t-215 77q-193 0 -317 -160q-123 -159 -123 -352z" />
<glyph unicode="7" horiz-adv-x="923" d="M199 12q67 317 282 712q219 402 451 665h-672q-14 0 -10 12l4 20q5 13 14 13h723q12 0 10 -13l-4 -20q0 -7 -14 -21q-227 -253 -451 -661q-222 -405 -284 -707q-2 -12 -15 -12h-24q-11 0 -10 12z" />
<glyph unicode="8" horiz-adv-x="1011" d="M70 268q0 177 125 302q124 124 303 175q-262 94 -262 314q0 181 130 287t308 106q162 0 248 -74t86 -192q0 -162 -114 -273t-282 -168q128 -39 205 -121q80 -86 80 -214q0 -195 -139 -313q-138 -117 -332 -117q-172 0 -263 78q-93 80 -93 210zM119 268q0 -113 79 -179 q80 -66 230 -66q177 0 297 110q121 111 121 275q0 122 -81 200q-82 79 -214 113q-184 -52 -309 -168q-123 -114 -123 -285zM287 1061q0 -209 272 -291q170 52 286 157q113 103 113 255q0 105 -72 165t-214 60q-164 0 -274 -98q-111 -99 -111 -248z" />
<glyph unicode="9" horiz-adv-x="1034" d="M150 33l8 16q6 14 18 8q76 -32 193 -32q469 0 571 839q-38 -138 -156 -237q-117 -99 -286 -99q-168 0 -248 90q-80 91 -80 242q0 229 131 411q130 181 346 181q352 0 352 -428q0 -122 -28 -291q-66 -374 -213 -563q-146 -188 -391 -188q-134 0 -209 34q-14 6 -8 17z M221 862q0 -289 283 -289q194 0 317 159t123 349q0 135 -74 232q-74 96 -225 96q-133 0 -233 -90q-101 -90 -146 -212q-45 -121 -45 -245z" />
<glyph unicode=":" horiz-adv-x="407" d="M82 12l18 113q2 12 15 12h61q12 0 10 -12l-18 -113q-4 -12 -14 -12h-62q-14 0 -10 12zM240 922l20 112q2 13 14 13h62q12 0 10 -13l-20 -112q0 -13 -15 -13h-61q-10 0 -10 13z" />
<glyph unicode=";" horiz-adv-x="407" d="M55 -176l64 176h-27q-14 0 -10 12l18 113q2 12 15 12h61q12 0 10 -12l-18 -111l-6 -16l-72 -176q-6 -12 -16 -12h-11q-12 0 -8 14zM240 922l20 112q2 13 14 13h62q12 0 10 -13l-20 -112q0 -13 -15 -13h-61q-10 0 -10 13z" />
<glyph unicode="&#x3c;" d="M184 725q0 10 13 18l768 564q12 6 18 -2l12 -19q4 -10 -6 -16l-745 -545l553 -545q8 -8 0 -16l-19 -19q-8 -8 -18 -2l-570 566q-8 8 -6 16z" />
<glyph unicode="=" d="M131 510l4 20q0 13 15 13h772q13 0 8 -13l-2 -20q-2 -12 -15 -12h-772q-15 0 -10 12zM205 924l4 20q0 12 14 12h770q11 0 11 -12l-5 -20q-5 -13 -14 -13h-770q-15 0 -10 13z" />
<glyph unicode="&#x3e;" d="M139 164q-7 8 6 16l744 545l-551 545q-8 8 0 16l18 19q8 8 19 2l569 -564q6 -6 6 -18q-1 -10 -12 -16l-768 -566q-12 -6 -18 2z" />
<glyph unicode="?" horiz-adv-x="845" d="M242 1380q0 13 14 17q132 55 291 55q309 0 309 -244q0 -100 -40 -184q-42 -88 -99 -148q-60 -63 -121 -121q-65 -62 -112 -130q-49 -71 -64 -148l-19 -98q-1 -14 -14 -14h-22q-13 0 -11 12l19 100q15 81 64 155q47 71 111 135q60 60 120 123q58 61 99 143q40 80 40 173 q0 201 -260 201q-150 0 -289 -51q-14 -7 -14 8zM270 12l19 113q1 12 14 12h64q15 0 10 -12l-19 -113q-2 -12 -14 -12h-63q-15 0 -11 12z" />
<glyph unicode="@" horiz-adv-x="1654" d="M113 246q0 185 62 358q65 181 173 318q112 142 283 227q174 86 375 86q557 0 557 -440q0 -120 -32 -243q-32 -122 -93 -230q-62 -110 -168 -178q-105 -68 -240 -68h-59q-28 0 -21 28l49 160q-121 -201 -317 -201q-98 0 -153 64q-54 63 -54 170q0 144 62 291 q61 145 187 250q125 104 286 104q126 0 227 -37q10 -5 8 -16l-248 -772h33q122 0 219 62q100 64 156 164q57 103 87 218q30 117 30 234q0 195 -119 297t-397 102q-249 0 -446 -133q-198 -133 -301 -347q-103 -213 -103 -464q0 -224 138 -323t423 -99q187 0 330 47 q14 6 14 -8l2 -14q0 -13 -14 -17q-134 -49 -332 -49q-303 0 -454 110q-150 110 -150 349zM522 301q0 -195 166 -195q124 0 225 104t156 269l125 393q-89 27 -188 27q-211 0 -347 -186q-137 -187 -137 -412z" />
<glyph unicode="A" horiz-adv-x="1083" d="M-18 14l698 1407q8 13 18 13h25q14 0 14 -13l205 -1407q0 -14 -12 -14h-23q-10 0 -14 12l-64 447h-577l-221 -447q-6 -12 -17 -12h-26q-12 0 -6 14zM274 504h549l-123 854h-4z" />
<glyph unicode="B" horiz-adv-x="1103" d="M86 12l248 1409q2 13 14 13h348q381 0 381 -269q0 -152 -83 -271t-234 -149q233 -33 233 -268q0 -237 -145 -357q-146 -120 -402 -120h-350q-14 0 -10 12zM137 45h309q226 0 363 105t137 329q0 128 -85 186t-271 58h-332zM264 768h328q199 0 318 100q120 101 120 299 q0 119 -81 170q-83 52 -255 52h-319z" />
<glyph unicode="C" horiz-adv-x="970" d="M125 432q0 131 29 285q66 381 216 558t412 177q136 0 236 -47q12 -6 8 -16l-8 -17q-6 -16 -19 -10q-85 45 -219 45q-238 0 -376 -166q-138 -167 -201 -524q-31 -172 -31 -287q0 -206 91 -304q91 -99 282 -99q130 0 241 45q15 6 15 -9l2 -16q0 -10 -15 -16 q-105 -49 -245 -49q-418 0 -418 450z" />
<glyph unicode="D" horiz-adv-x="1110" d="M86 12l248 1409q2 13 14 13h258q228 0 348 -100q119 -99 119 -345q0 -103 -29 -272q-38 -211 -97 -350q-61 -144 -148 -222t-191 -112q-102 -33 -239 -33h-273q-14 0 -10 12zM137 45h232q123 0 221 31q93 29 175 104q79 72 137 206q56 130 91 329q29 154 29 274 q0 222 -104 310q-107 90 -312 90h-231z" />
<glyph unicode="E" horiz-adv-x="892" d="M86 12l248 1409q2 13 14 13h600q15 0 10 -13l-4 -20q-4 -12 -14 -12h-565l-111 -631h549q10 0 10 -13l-4 -20q-5 -12 -14 -12h-549l-119 -668h570q15 0 10 -12l-2 -23q-4 -10 -15 -10h-604q-14 0 -10 12z" />
<glyph unicode="F" horiz-adv-x="862" d="M86 12l248 1409q2 13 14 13h592q12 0 10 -15l-4 -18q-4 -12 -14 -12h-557l-111 -631h547q10 0 10 -13l-4 -20q-1 -12 -14 -12h-547l-123 -701q-1 -12 -14 -12h-23q-14 0 -10 12z" />
<glyph unicode="G" horiz-adv-x="1083" d="M125 434q0 129 29 283q67 384 222 560q154 175 427 175q151 0 252 -49q13 -6 8 -17l-8 -16q-4 -17 -19 -10q-86 47 -235 47q-250 0 -392 -163q-143 -164 -206 -527q-29 -159 -29 -285q0 -209 94 -307t295 -98q153 0 264 51l115 647h-340q-16 0 -12 12l4 21q2 12 16 12 h373q17 0 12 -12l-123 -688q-2 -24 -24 -31q-114 -57 -285 -57q-223 0 -330 110q-108 111 -108 342z" />
<glyph unicode="H" horiz-adv-x="1138" d="M86 12l248 1409q2 13 14 13h23q15 0 10 -13l-117 -663h713l117 663q5 13 14 13h22q13 0 11 -13l-248 -1409q-5 -12 -14 -12h-23q-12 0 -10 12l123 701h-713l-123 -701q-1 -12 -14 -12h-23q-14 0 -10 12z" />
<glyph unicode="I" horiz-adv-x="399" d="M96 12l248 1409q5 13 14 13h23q12 0 10 -13l-248 -1409q-5 -12 -14 -12h-23q-12 0 -10 12z" />
<glyph unicode="J" horiz-adv-x="729" d="M-16 55l8 17q7 14 20 8q82 -49 191 -49q129 0 196 71q69 73 97 232l194 1087q2 13 15 13h22q15 0 10 -13l-194 -1089q-33 -185 -112 -265q-79 -81 -228 -81q-131 0 -209 51q-12 6 -10 18z" />
<glyph unicode="K" horiz-adv-x="950" d="M86 12l248 1409q2 13 14 13h23q15 0 10 -13l-115 -645l725 647q16 11 21 11h35q19 0 2 -17l-754 -672l524 -729q12 -16 -6 -16h-25q-12 0 -22 10l-508 711l-125 -709q-1 -12 -14 -12h-23q-14 0 -10 12z" />
<glyph unicode="L" horiz-adv-x="849" d="M86 12l248 1409q2 13 14 13h23q15 0 10 -13l-244 -1376h549q11 0 10 -14l-2 -19q-2 -12 -14 -12h-584q-14 0 -10 12z" />
<glyph unicode="M" horiz-adv-x="1300" d="M86 12l248 1409q2 13 14 13h27q14 0 16 -11l271 -891l583 891q8 11 21 11h28q13 0 11 -13l-248 -1409q-5 -12 -15 -12h-22q-12 0 -10 12l231 1323l-567 -860q-7 -14 -25 -14q-13 0 -20 14l-264 860l-232 -1323q-1 -12 -14 -12h-23q-14 0 -10 12z" />
<glyph unicode="N" horiz-adv-x="1150" d="M86 12l248 1409q2 13 14 13h23q13 0 18 -13l483 -1327l234 1327q5 13 14 13h23q11 0 10 -15l-248 -1407q-5 -12 -14 -12h-23q-14 0 -20 12l-481 1327l-234 -1327q-1 -12 -14 -12h-23q-14 0 -10 12z" />
<glyph unicode="O" horiz-adv-x="1171" d="M123 428q0 130 29 289q66 379 212 556q147 179 388 179q383 0 383 -444q0 -115 -29 -291q-68 -378 -213 -556q-146 -179 -385 -179q-385 0 -385 446zM170 424q0 -199 83 -299q82 -98 255 -98q218 0 352 167t197 523q30 191 30 295q0 201 -82 298t-253 97 q-220 0 -354 -167t-197 -523q-31 -174 -31 -293z" />
<glyph unicode="P" horiz-adv-x="1019" d="M86 12l248 1409q2 13 14 13h252q222 0 321 -72t99 -242q0 -65 -16 -164q-46 -263 -171 -370t-387 -107h-231l-82 -467q-1 -12 -14 -12h-23q-14 0 -10 12zM223 524h226q242 0 352 94q109 93 153 340q17 85 17 162q0 148 -86 208q-87 61 -285 61h-225z" />
<glyph unicode="Q" horiz-adv-x="1171" d="M123 428q0 130 29 289q66 379 212 556q147 179 388 179q381 0 381 -442q0 -114 -29 -293q-63 -366 -206 -545q-142 -177 -374 -188q121 -88 303 -88q17 0 30 1t26 1t17 -3q5 -3 3 -14l-2 -14q-2 -19 -47 -19q-259 0 -395 136q-336 22 -336 444zM170 424q0 -199 83 -299 q82 -98 255 -98q218 0 352 168q134 169 197 522q30 191 30 295q0 395 -335 395q-220 0 -354 -167t-197 -523q-31 -174 -31 -293z" />
<glyph unicode="R" horiz-adv-x="1050" d="M86 12l248 1409q2 13 14 13h264q223 0 327 -71q103 -70 103 -233q0 -70 -14 -143q-39 -222 -148 -323q-110 -102 -319 -119l279 -529q7 -16 -11 -16h-20q-14 0 -21 10l-278 533h-285l-92 -531q-1 -12 -14 -12h-23q-14 0 -10 12zM233 588h246q234 0 347 88q114 89 153 311 q12 79 12 139q0 143 -89 203q-88 60 -290 60h-237z" />
<glyph unicode="S" horiz-adv-x="868" d="M18 37l9 18q4 15 18 8q94 -38 264 -38q172 0 285 100q115 101 115 270q0 59 -19 110q-18 49 -66 92t-75 63q-49 35 -98 67q-61 42 -92 66q-30 24 -72 67q-40 42 -58 91t-18 110q0 181 114 286t306 105q145 0 239 -39q12 -6 11 -16l-9 -19q-4 -15 -18 -8q-93 37 -225 37 q-165 0 -268 -90t-103 -256q0 -55 15 -98q14 -41 55 -80q42 -40 66 -59q24 -18 87 -58q77 -49 103 -70q40 -31 83 -73q47 -46 69 -103q22 -58 22 -123q0 -186 -125 -302q-124 -115 -324 -115q-179 0 -280 40q-16 6 -11 17z" />
<glyph unicode="T" horiz-adv-x="847" d="M223 1401l4 20q2 13 15 13h704q12 0 10 -13l-4 -20q-2 -12 -14 -12h-328l-241 -1377q-5 -12 -15 -12h-22q-12 0 -10 12l241 1377h-330q-11 0 -10 12z" />
<glyph unicode="U" horiz-adv-x="1122" d="M137 293q0 75 15 153l172 975q5 13 14 13h22q13 0 11 -13l-170 -970q-17 -94 -17 -156q0 -140 71 -206t226 -66q195 0 295 102q100 101 139 326l170 970q5 13 15 13h22q13 0 11 -13l-172 -975q-44 -242 -154 -354q-111 -112 -324 -112q-179 0 -262 76q-84 76 -84 237z " />
<glyph unicode="V" horiz-adv-x="1052" d="M238 1419q-4 15 12 15h22q13 0 13 -13l125 -981l43 -370h6l172 368l473 983q2 13 16 13h23q15 0 8 -15l-674 -1407q-6 -12 -18 -12h-29q-12 0 -16 12z" />
<glyph unicode="W" horiz-adv-x="1628" d="M250 1419q-2 15 12 15h23q14 0 14 -13l61 -960l21 -393h6l162 397l403 956q5 13 19 13h26q15 0 15 -13l65 -956l23 -397h6l158 393l401 960q7 13 16 13h25q14 0 8 -15l-588 -1407q-6 -12 -20 -12h-31q-14 0 -14 12l-72 1012l-18 326h-4l-131 -326l-428 -1012 q-4 -12 -19 -12h-31q-16 0 -16 12z" />
<glyph unicode="X" horiz-adv-x="989" d="M-16 14l530 717l-266 688q-6 15 10 15h25q14 0 14 -9l250 -647l479 647q7 9 18 9h27q13 0 6 -15l-512 -688l281 -717q4 -14 -10 -14h-25q-10 0 -16 8l-263 676l-499 -676q-6 -8 -17 -8h-26q-16 0 -6 14z" />
<glyph unicode="Y" horiz-adv-x="1026" d="M240 1419q-6 15 10 15h22q15 0 15 -11l180 -579l68 -234h4l149 234l385 579q6 11 19 11h24q14 0 6 -15l-569 -860l-96 -547q-1 -12 -15 -12h-22q-14 0 -10 12l96 547z" />
<glyph unicode="Z" horiz-adv-x="933" d="M20 12l3 21q1 3 10 18l901 1338h-641q-15 0 -10 12l4 20q5 13 14 13h684q15 0 10 -13l-4 -18q0 -3 -8 -21l-901 -1337h663q13 0 11 -12l-2 -21q-4 -12 -15 -12h-708q-16 0 -11 12z" />
<glyph unicode="[" horiz-adv-x="569" d="M94 -213l289 1634q2 13 14 13h226q12 0 10 -13l-4 -18q0 -12 -15 -12h-192l-277 -1573h193q10 0 10 -13l-4 -18q-4 -12 -14 -12h-226q-15 0 -10 12z" />
<glyph unicode="\" horiz-adv-x="665" d="M193 1421q-5 13 10 13h18q15 0 15 -11l325 -1411q0 -12 -12 -12h-17q-15 0 -16 10z" />
<glyph unicode="]" horiz-adv-x="569" d="M-16 -213l4 18q0 13 14 13h193l276 1573h-192q-11 0 -11 12l4 18q2 13 15 13h225q12 0 10 -13l-289 -1634q-5 -12 -14 -12h-225q-14 0 -10 12z" />
<glyph unicode="^" d="M184 725l480 696q8 13 20 13h16q13 0 15 -13l235 -696q1 -14 -12 -14h-20q-16 0 -17 12l-221 645l-447 -645q-11 -12 -22 -12h-18q-20 0 -9 14z" />
<glyph unicode="_" horiz-adv-x="802" d="M-61 -137l2 18q2 13 14 13h688q12 0 10 -13l-2 -18q-5 -13 -16 -13h-688q-13 0 -8 13z" />
<glyph unicode="`" horiz-adv-x="571" d="M346 1382q-10 21 10 21h33q16 0 27 -17l102 -180q4 -4 1 -9t-9 -5h-10q-13 0 -15 8z" />
<glyph unicode="a" horiz-adv-x="894" d="M39 211q0 79 22 138q23 61 58 102t93 71q56 29 112 48q50 17 133 28q61 8 138 14q59 5 142 6l25 138q8 50 8 92q0 94 -51 137q-50 43 -166 43q-159 0 -295 -57q-16 -4 -16 8v16q0 11 14 17q147 59 299 59q258 0 258 -221q0 -44 -8 -94l-129 -744q-4 -12 -14 -12h-21 q-15 0 -10 12l33 191q-114 -215 -371 -215q-124 0 -189 59t-65 164zM84 211q0 -180 211 -180q158 0 265 98t134 248l35 201q-22 0 -44 -1l-44 -2t-32 -1q-52 -2 -121 -10q-76 -9 -123 -22t-108 -41q-56 -26 -92 -65q-33 -35 -57 -95q-24 -59 -24 -130z" />
<glyph unicode="b" horiz-adv-x="985" d="M72 12l247 1409q5 13 15 13h20q16 0 11 -13l-107 -600q121 250 367 250q144 0 221 -89q76 -88 76 -257q0 -94 -21 -199q-99 -544 -455 -544q-124 0 -201 66q-76 65 -91 181l-37 -217q-1 -12 -15 -12h-20q-12 0 -10 12zM186 338q0 -313 260 -313q161 0 263 129 q101 128 145 372q20 100 20 199q0 303 -249 303q-162 0 -270 -128q-106 -125 -150 -374q-19 -111 -19 -188z" />
<glyph unicode="c" horiz-adv-x="776" d="M84 326q0 99 20 202q46 270 161 407q114 136 310 136q125 0 207 -45q13 -7 9 -18l-7 -15q-7 -16 -20 -8q-67 43 -189 43q-173 0 -277 -125q-102 -123 -146 -375q-23 -127 -23 -204q0 -297 268 -297q129 0 211 43q17 6 17 -9l2 -16q-4 -11 -15 -16q-96 -47 -215 -47 q-313 0 -313 344z" />
<glyph unicode="d" horiz-adv-x="985" d="M84 328q0 98 20 198q101 545 453 545q125 0 201 -66q76 -65 94 -184l104 600q2 13 15 13h20q12 0 10 -13l-247 -1409q-4 -12 -15 -12h-20q-15 0 -10 12l36 219q-116 -249 -364 -249q-297 0 -297 346zM131 326q0 -301 250 -301q161 0 268 128t152 373q18 105 18 187 q0 315 -262 315q-320 0 -405 -502q-21 -108 -21 -200z" />
<glyph unicode="e" horiz-adv-x="890" d="M84 328q0 95 20 198q95 545 455 545q140 0 209 -85q70 -87 70 -234q0 -75 -19 -183l-10 -55q-1 -12 -14 -12h-650q-14 -83 -14 -170q0 -309 291 -309q136 0 246 49q14 6 14 -9v-14q0 -13 -12 -18q-117 -51 -250 -51q-336 0 -336 348zM154 545h614l4 24q19 128 19 189 q0 270 -232 270q-315 0 -405 -483z" />
<glyph unicode="f" horiz-adv-x="557" d="M133 12l174 996h-151q-12 0 -11 12l2 18q5 13 17 13h151l19 108q27 148 86 216q60 69 170 69q63 0 92 -10q15 -1 10 -19l-4 -14q-6 -11 -20 -10q-33 10 -80 10q-92 0 -139 -59q-48 -60 -70 -189l-19 -102h238q12 0 10 -13l-2 -18q-4 -12 -14 -12h-240l-174 -996 q-2 -12 -14 -12h-21q-11 0 -10 12z" />
<glyph unicode="g" horiz-adv-x="946" d="M57 -170l6 14q6 15 19 9q112 -56 250 -56q156 0 245 78q89 79 119 252l33 192q-51 -113 -141 -177q-89 -64 -209 -64q-139 0 -211 85t-72 243q0 82 17 169q41 236 148 366q108 130 278 130q119 0 192 -63t90 -172l35 202q5 13 16 13h21q13 0 8 -13l-162 -915 q-63 -369 -405 -369q-160 0 -268 58q-13 11 -9 18zM143 403q0 -282 236 -282q151 0 256 122q104 120 143 339q15 78 15 151q0 142 -65 219q-64 76 -189 76q-150 0 -245 -119t-134 -334q-17 -87 -17 -172z" />
<glyph unicode="h" horiz-adv-x="968" d="M72 12l247 1409q5 13 15 13h20q16 0 11 -13l-101 -569q50 91 139 155t226 64q127 0 190 -64q64 -66 64 -182q0 -41 -9 -90l-126 -723q-2 -12 -15 -12h-20q-13 0 -11 12l127 723q9 49 9 88q0 205 -211 205q-144 0 -255 -96q-112 -97 -139 -248l-116 -670q-1 -14 -15 -14 h-20q-12 0 -10 12z" />
<glyph unicode="i" horiz-adv-x="358" d="M78 12l178 1026q2 13 16 13h21q10 0 8 -13l-178 -1026q-5 -12 -14 -12h-21q-14 0 -10 12zM289 1233l28 160q1 12 15 12h24q12 0 11 -12l-29 -160q0 -12 -14 -12h-25q-10 0 -10 12z" />
<glyph unicode="j" horiz-adv-x="370" d="M-131 -209l6 16q2 13 16 9q29 -6 56 -6q61 0 91 40q29 39 46 130l184 1058q2 13 17 13h20q10 0 8 -13l-186 -1063q-18 -105 -59 -157q-41 -51 -125 -51q-37 0 -64 6q-15 1 -10 18zM301 1233l29 160q2 12 14 12h25q11 0 10 -12l-29 -160q0 -12 -14 -12h-25q-10 0 -10 12z " />
<glyph unicode="k" horiz-adv-x="778" d="M72 12l247 1409q5 13 15 13h20q16 0 11 -13l-142 -803l527 422q16 11 26 11h35q7 0 9 -5t-7 -12l-561 -446l401 -570q11 -18 -8 -18h-20q-13 0 -23 10l-387 559l-98 -557q-1 -12 -15 -12h-20q-12 0 -10 12z" />
<glyph unicode="l" horiz-adv-x="358" d="M78 12l248 1409q2 13 14 13h20q13 0 11 -13l-248 -1409q-5 -12 -14 -12h-21q-14 0 -10 12z" />
<glyph unicode="m" horiz-adv-x="1503" d="M66 12l178 1026q2 13 16 13h21q10 0 8 -13l-31 -180q39 82 130 148q90 65 210 65q115 0 174 -58q57 -55 57 -156v-7q43 89 137 156q92 65 218 65q117 0 176 -62t59 -175q0 -45 -8 -91l-129 -731q-4 -12 -14 -12h-21q-15 0 -10 12l129 731q8 46 8 91q0 194 -192 194 q-130 0 -234 -91t-131 -235l-121 -690q-4 -12 -14 -12h-20q-16 0 -11 12l129 733q8 46 8 91q0 192 -192 192q-130 0 -236 -96q-107 -96 -131 -242l-118 -678q-5 -12 -15 -12h-20q-14 0 -10 12z" />
<glyph unicode="n" horiz-adv-x="960" d="M66 12l178 1026q2 13 16 13h21q10 0 8 -13l-31 -188q45 89 137 155t226 66q129 0 192 -66q64 -67 64 -184q0 -12 -9 -86l-129 -723q-1 -12 -14 -12h-20q-13 0 -11 12l129 723q8 66 8 86q0 207 -210 207q-145 0 -255 -98q-112 -100 -139 -246l-116 -672q-5 -12 -15 -12 h-20q-14 0 -10 12z" />
<glyph unicode="o" horiz-adv-x="944" d="M84 328q0 81 20 198q95 545 467 545q154 0 232 -89q78 -88 78 -259q0 -74 -21 -197q-94 -544 -467 -544q-309 0 -309 346zM131 328q0 -303 262 -303q332 0 420 501q21 105 21 199q0 303 -263 303q-331 0 -419 -502q-21 -108 -21 -198z" />
<glyph unicode="p" horiz-adv-x="978" d="M25 -213l219 1251q2 13 16 13h21q10 0 8 -13l-37 -217q121 250 366 250q145 0 222 -89q75 -87 75 -257q0 -99 -20 -199q-96 -544 -455 -544q-124 0 -200 66t-93 181l-77 -442q-4 -12 -15 -12h-20q-15 0 -10 12zM180 338q0 -313 260 -313q323 0 408 501q20 100 20 199 q0 303 -250 303q-161 0 -269 -128q-106 -125 -150 -374q-19 -111 -19 -188z" />
<glyph unicode="q" horiz-adv-x="978" d="M84 328q0 98 20 198q95 545 453 545q125 0 201 -66q76 -65 94 -184l37 217q5 13 14 13h21q15 0 10 -13l-221 -1251q-5 -12 -15 -12h-20q-14 0 -10 12l80 444q-118 -249 -367 -249q-297 0 -297 346zM131 326q0 -301 250 -301q161 0 269 128q107 127 151 373q18 105 18 187 q0 315 -262 315q-320 0 -405 -502q-21 -108 -21 -200z" />
<glyph unicode="r" horiz-adv-x="571" d="M66 12l178 1026q2 13 16 13h21q10 0 8 -13l-39 -225q40 94 138 172t216 78q10 0 14 -3q5 -3 3 -11l-5 -19q0 -14 -14 -14q-7 0 -13 1t-14 1q-112 0 -221 -112q-108 -111 -135 -265l-108 -629q-5 -12 -15 -12h-20q-14 0 -10 12z" />
<glyph unicode="s" horiz-adv-x="753" d="M4 45l8 14q6 15 17 9q107 -43 247 -43q130 0 224 73t94 205q0 20 -3 38q-3 17 -12 34q-3 5 -8.5 14t-7.5 13q-7 13 -23 27q-7 6 -16 13.5t-11 9.5q-4 3 -34 22q-32 20 -34 21q-9 5 -39 21q-20 11 -41 23q-45 24 -84 49q-23 14 -66 49q-35 28 -53 69q-17 39 -17 85 q0 131 96 206q95 74 240 74q133 0 228 -39q10 -5 8 -16l-6 -15q-6 -12 -21 -10q-81 37 -209 37q-121 0 -206 -61t-85 -179q0 -47 27 -86q26 -37 57 -59q24 -17 97 -55q2 -1 22 -13q143 -81 182 -118q64 -67 64 -152q0 -146 -103 -234q-104 -89 -260 -89t-262 45 q-15 6 -10 18z" />
<glyph unicode="t" horiz-adv-x="583" d="M137 1020l2 18q5 13 15 13h149l49 282q5 13 15 13h20q15 0 10 -13l-49 -282h254q13 0 8 -13l-2 -18q-2 -12 -14 -12h-254l-131 -746q-12 -66 -12 -106q0 -70 31 -97q30 -26 106 -26q50 0 92 8q14 4 14 -8v-15q0 -14 -16 -18q-36 -10 -92 -10q-92 0 -136 38t-44 130 q0 37 10 100l133 750h-148q-11 0 -10 12z" />
<glyph unicode="u" horiz-adv-x="948" d="M104 236q0 38 11 98l123 704q5 13 16 13h20q14 0 9 -13l-123 -704q-8 -50 -8 -96q0 -213 215 -213q140 0 244 100q106 102 130 248l117 665q2 13 16 13h21q10 0 8 -13l-178 -1026q-5 -12 -14 -12h-21q-14 0 -10 12l31 191q-39 -89 -126 -155t-218 -66q-130 0 -196 66 q-67 67 -67 188z" />
<glyph unicode="v" horiz-adv-x="800" d="M156 1036q0 15 14 15h20q13 0 13 -11l86 -678l37 -290h4l141 290l322 678q6 11 18 11h25q14 0 6 -15l-496 -1024q-6 -12 -16 -12h-23q-14 0 -14 12z" />
<glyph unicode="w" horiz-adv-x="1282" d="M174 1036q0 15 14 15h21q12 0 12 -11l58 -766l10 -206h4l86 206l334 766q5 11 16 11h27q12 0 12 -11l63 -766l11 -206h4l84 206l327 766q6 11 19 11h22q13 0 7 -15l-443 -1024q-6 -12 -16 -12h-23q-14 0 -14 12l-66 744l-12 223h-4l-88 -223l-330 -744q-6 -12 -16 -12 h-23q-14 0 -14 12z" />
<glyph unicode="x" horiz-adv-x="811" d="M-20 16l409 519l-219 499q-8 17 10 17h23q12 0 14 -9l205 -469l371 469q9 9 16 9h27q16 0 4 -17l-398 -499l228 -519q7 -16 -8 -16h-25q-9 0 -14 8l-213 488l-383 -488q-8 -8 -17 -8h-24q-18 0 -6 16z" />
<glyph unicode="y" horiz-adv-x="811" d="M-23 -203l7 15q2 12 18 8q42 -13 92 -13q95 0 158 89q54 77 54 135q0 9 -1 18l-143 987q0 15 12 15h23q12 0 12 -11l96 -678l39 -288h4l137 288l316 678q6 11 18 11h25q14 0 6 -15l-481 -1018q-67 -138 -125 -195q-61 -59 -154 -59q-63 0 -102 15q-15 2 -11 18z" />
<glyph unicode="z" horiz-adv-x="811" d="M14 12l2 15q0 7 9 16l716 965h-528q-11 0 -10 12l2 18q5 13 16 13h574q13 0 8 -13l-2 -16q0 -3 -8 -16l-717 -963h551q11 0 10 -12l-2 -19q-5 -12 -14 -12h-596q-13 0 -11 12z" />
<glyph unicode="{" horiz-adv-x="569" d="M117 594l2 20q5 13 14 13h25q67 0 113 103q47 104 87 337q38 205 83 285q46 82 161 82h57q13 0 11 -13l-4 -18q0 -12 -15 -12h-53q-86 0 -124 -72q-38 -73 -71 -252q-44 -244 -88 -344q-45 -103 -106 -119q67 -18 67 -160q0 -98 -34 -303q-25 -147 -25 -198q0 -66 24 -96 q23 -29 81 -29h53q15 0 10 -13l-4 -18q-5 -12 -14 -12h-52q-77 0 -110 39t-33 120q0 60 25 207q32 179 32 293q0 148 -77 148h-25q-11 0 -10 12z" />
<glyph unicode="|" horiz-adv-x="475" d="M215 -213v1673q0 13 12 13h21q12 0 12 -13v-1673q0 -12 -12 -12h-21q-12 0 -12 12z" />
<glyph unicode="}" horiz-adv-x="569" d="M-53 -213l4 18q0 13 14 13h53q86 0 123 70q38 71 72 253q41 242 87 344q47 102 110 119q-70 18 -70 162q0 109 35 301q24 141 24 199q0 66 -23 95q-24 30 -81 30h-53q-12 0 -11 12l5 18q2 13 14 13h51q78 0 111 -39q32 -38 32 -121q0 -66 -24 -207q-33 -185 -33 -293 q0 -147 78 -147h24q16 0 11 -13l-2 -20q-2 -12 -15 -12h-24q-67 0 -114 -104t-87 -337q-37 -200 -84 -283t-160 -83h-57q-14 0 -10 12z" />
<glyph unicode="~" d="M182 674q69 143 193 143q57 0 164 -45l88 -37q111 -43 147 -43q62 0 113 60q14 20 31 51q6 12 20 6l14 -8q6 -6 0 -17q-67 -143 -190 -143q-59 0 -166 45l-94 39q-91 41 -140 41q-63 0 -112 -59q-15 -19 -31 -52q-6 -12 -20 -6l-15 8q-7 5 -2 17z" />
<glyph unicode="&#xa1;" horiz-adv-x="438" d="M70 -213l163 887q5 12 15 12h18q12 0 10 -12l-149 -887q-5 -12 -14 -12h-33q-15 0 -10 12zM256 926l18 112q5 13 17 13h61q12 0 10 -13l-20 -112q0 -13 -14 -13h-62q-12 0 -10 13z" />
<glyph unicode="&#xa2;" horiz-adv-x="813" d="M86 328q0 77 20 198q88 524 465 545l29 162q2 12 14 12h21q11 0 10 -12l-29 -162q110 -1 195 -47q14 -6 8 -18l-6 -15q-4 -18 -18 -8q-76 45 -199 45q-184 0 -292 -126q-106 -124 -150 -376q-21 -108 -21 -198q0 -301 285 -301q136 0 221 45q16 6 16 -9v-16 q0 -12 -14 -16q-84 -43 -215 -49l-29 -164q-5 -13 -14 -13h-23q-12 0 -10 13l29 166q-293 12 -293 344z" />
<glyph unicode="&#xa3;" horiz-adv-x="1099" d="M16 18q-6 10 7 17q344 164 344 487q0 84 -29 191h-180q-16 0 -11 12l5 18q5 13 14 13h160q-35 160 -35 235q0 207 127 334t334 127q160 0 242 -70q81 -69 81 -182q0 -60 -10 -99q-10 -40 -25 -40h-22q-12 0 -12 12q0 3 5 20q5 15 9 42q4 24 4 63q0 94 -67 152 q-66 57 -205 57q-192 0 -302 -120q-110 -121 -110 -302q0 -73 39 -229h371q12 0 10 -13l-4 -18q-2 -12 -15 -12h-352q25 -103 25 -185q0 -314 -279 -467q96 33 178 33q72 0 194 -31q119 -30 191 -30q109 0 157 73q48 74 71 205q2 15 16 15h23q11 0 10 -15q-11 -65 -28 -120 q-16 -51 -45 -100q-30 -50 -83 -77q-51 -26 -127 -26q-81 0 -189 30q-112 31 -194 31q-152 0 -268 -55q-14 -6 -18 4z" />
<glyph unicode="&#xa4;" horiz-adv-x="1101" d="M131 172q-7 8 0 18l117 119q-68 101 -68 271q0 167 68 270l-117 119q-7 11 0 18l14 14q8 8 19 0l110 -112q99 121 277 121q179 0 274 -123l115 114q8 7 18 0l15 -14q7 -7 0 -18l-119 -121q68 -107 68 -268q0 -162 -68 -269l119 -121q6 -10 0 -18l-15 -14q-10 -8 -18 0 l-115 112q-90 -120 -274 -120q-182 0 -277 120l-110 -112q-11 -8 -19 0zM223 580q0 -188 86 -289t242 -101q155 0 241 101q85 100 85 289q0 188 -85 288q-86 101 -241 101q-156 0 -242 -101t-86 -288z" />
<glyph unicode="&#xa5;" horiz-adv-x="1067" d="M119 436l2 19q1 12 14 12h375l10 61l-57 185h-283q-12 0 -10 12l4 18q0 13 14 13h261l-213 663q-6 15 10 15h22q15 0 15 -11l268 -843h2l563 843q11 11 19 11h24q13 0 8 -15l-448 -663h262q10 0 10 -13l-4 -18q-5 -12 -14 -12h-283l-123 -185l-12 -61h373q14 0 10 -12 l-2 -19q-2 -12 -14 -12h-373l-72 -412q-1 -12 -14 -12h-23q-15 0 -10 12l72 412h-373q-15 0 -10 12z" />
<glyph unicode="&#xa6;" horiz-adv-x="475" d="M215 -213v649q0 13 12 13h21q12 0 12 -13v-649q0 -12 -12 -12h-21q-12 0 -12 12zM215 811v649q0 13 12 13h21q12 0 12 -13v-649q0 -12 -12 -12h-21q-12 0 -12 12z" />
<glyph unicode="&#xa7;" horiz-adv-x="1179" d="M141 -182l2 12q1 15 19 10q108 -33 266 -33q62 0 120 12q61 12 117 37q58 25 94 75t36 118q0 43 -22 84q-20 37 -70 76q-47 37 -79 55q-18 10 -96 53q-2 1 -22 13q-89 46 -112 60q-34 20 -83 59q-43 34 -61 73q-19 41 -19 86q0 124 106 210q105 85 245 102 q-94 59 -139 111q-50 58 -50 132q0 145 112 216t277 71q172 0 287 -37q12 -6 10 -18l-2 -13q-1 -14 -16 -10q-126 35 -277 35q-85 0 -157 -18q-71 -18 -129 -76t-58 -148q0 -78 68 -138q69 -61 207 -134q130 -69 203 -137q71 -67 71 -160q0 -119 -103 -197 q-103 -77 -243 -100q197 -111 197 -250q0 -98 -64 -165q-63 -66 -152 -92q-87 -25 -196 -25q-198 0 -276 30q-12 6 -11 21zM279 610q0 -45 20 -79q19 -33 74 -72q54 -38 92 -59q39 -21 129 -66q116 6 233 78t117 184q0 85 -78 148q-80 64 -233 141q-125 -2 -240 -77 q-114 -75 -114 -198z" />
<glyph unicode="&#xa8;" horiz-adv-x="571" d="M244 1204l20 111q2 12 15 12h30q15 0 10 -12l-20 -111q-5 -12 -14 -12h-31q-12 0 -10 12zM530 1204l19 111q5 12 14 12h31q12 0 10 -12l-18 -111q-4 -12 -15 -12h-30q-13 0 -11 12z" />
<glyph unicode="&#xa9;" horiz-adv-x="1513" d="M129 717q0 151 36 281q36 132 109 234q74 104 198 162q123 58 286 58q162 0 285 -58q125 -59 197 -162q74 -106 109 -234q35 -127 35 -281q0 -155 -35 -282q-35 -126 -109 -233q-72 -103 -197 -162q-123 -58 -285 -58q-163 0 -286 58q-124 58 -198 162q-73 103 -109 233 q-36 131 -36 282zM174 717q0 -143 33 -264t99 -220q64 -96 182 -153q114 -55 270 -55q155 0 268 55q117 57 181 153q68 102 100 220t32 264t-32 264q-32 116 -100 219q-65 98 -181 154q-113 55 -268 55q-156 0 -270 -55q-117 -56 -182 -154q-67 -100 -99 -219 q-33 -121 -33 -264zM469 719q0 426 322 426q104 0 174 -35q10 -1 10 -14l-4 -17q-2 -13 -15 -8q-64 31 -163 31q-141 0 -209 -93q-68 -94 -68 -290q0 -385 275 -385q101 0 170 33q12 2 14 -7l4 -18q0 -8 -8 -14q-79 -35 -180 -35q-322 0 -322 426z" />
<glyph unicode="&#xaa;" horiz-adv-x="761" d="M199 1178q0 65 19 113t50 84q30 34 81 59q47 23 96 37q50 15 112 23q71 10 113 11q7 0 46.5 1.5t65.5 2.5l21 111q6 39 6 72q0 78 -43 112q-44 35 -137 35q-128 0 -248 -47q-14 -6 -14 6v17q0 12 14 18q118 47 248 47q223 0 223 -186q0 -32 -6 -72l-107 -608 q-1 -15 -16 -15h-14q-15 0 -13 15l25 145q-95 -170 -305 -170q-105 0 -161 52t-56 137zM244 1178q0 -67 44 -108q43 -40 132 -40q130 0 219 80q88 79 109 201l28 159q-58 -2 -92 -3q-49 -2 -98 -8q-71 -8 -104 -17q-40 -10 -90 -33q-52 -24 -79 -52q-28 -29 -49 -76 q-20 -44 -20 -103z" />
<glyph unicode="&#xab;" horiz-adv-x="610" d="M92 520q-2 6 0 8q0 3 2 9l187 268q10 10 18 10h23q7 0 9 -5q1 -4 -3 -9l-189 -273l92 -272q6 -14 -10 -14h-24q-9 0 -13 10zM324 520v8l4 9l184 268q10 10 18 10h23q7 0 9 -5q2 -4 -3 -9l-188 -275l92 -270q7 -14 -10 -14h-25q-8 0 -12 10z" />
<glyph unicode="&#xac;" d="M166 717l4 18q0 13 14 13h725q11 0 11 -13l-66 -362q0 -13 -14 -13h-21q-10 0 -10 13l59 332h-692q-12 0 -10 12z" />
<glyph unicode="&#xad;" horiz-adv-x="665" d="M100 528l4 19q0 12 15 12h461q10 0 10 -12l-4 -19q-4 -12 -15 -12h-460q-13 0 -11 12z" />
<glyph unicode="&#xae;" horiz-adv-x="854" d="M98 1092q0 154 87 257t243 103q154 0 241 -103t87 -257t-87 -257q-87 -104 -241 -104q-156 0 -243 104q-87 103 -87 257zM137 1092q0 -137 76 -229q77 -93 215 -93q136 0 213 93q76 92 76 229q0 136 -76 228q-77 93 -213 93q-138 0 -215 -93q-76 -92 -76 -228zM315 905 v383q0 10 11 10h100q152 0 152 -127q0 -113 -107 -124l96 -138q6 -14 -6 -14h-24q-9 0 -15 10l-94 139h-72v-139q0 -10 -10 -10h-20q-11 0 -11 10zM356 1081h68q63 0 87 21t24 69q0 49 -24 69q-25 20 -85 20h-70v-179z" />
<glyph unicode="&#xaf;" horiz-adv-x="571" d="M205 1223l4 16q0 12 14 12h404q10 0 10 -12l-4 -16q-2 -13 -15 -13h-403q-15 0 -10 13z" />
<glyph unicode="&#xb0;" horiz-adv-x="628" d="M207 1155q0 121 78 211t200 90q93 0 145 -54q52 -53 52 -140q0 -120 -77 -212t-199 -92q-93 0 -146 56t-53 141zM254 1159q0 -75 40 -116q40 -42 114 -42q95 0 161 77q66 76 66 182q0 72 -40 113q-41 42 -114 42q-93 0 -159 -77q-67 -77 -68 -179z" />
<glyph unicode="&#xb1;" d="M29 12l2 21q1 12 14 12h803q12 0 10 -12l-2 -21q-4 -12 -14 -12h-803q-15 0 -10 12zM152 717l4 20q5 13 14 13h379l74 417q0 13 14 13h20q11 0 11 -13l-74 -417h379q10 0 10 -13l-4 -20q-5 -12 -14 -12h-379l-74 -418q-5 -13 -14 -13h-21q-15 0 -10 13l74 418h-379 q-10 0 -10 12z" />
<glyph unicode="&#xb2;" horiz-adv-x="677" d="M178 1014l2 14q0 9 10 19q1 0 64 49q19 14 42 32t29 22q9 7 69 56q45 37 74 64q24 22 66 63q37 35 64 70q26 33 52 68q29 39 44 74q14 33 25 74q10 39 10 77q0 145 -164 145q-99 0 -162 -60t-63 -157q0 -22 -14 -22h-19q-12 0 -12 20q0 117 79 187q80 71 193 71 q107 0 156 -51q49 -50 49 -135q0 -42 -11 -81q-14 -49 -25 -77q-13 -33 -44 -78q-10 -14 -26.5 -37t-22.5 -32q-20 -30 -64 -71q-43 -41 -65 -64q-9 -10 -72 -62q-33 -27 -66 -53q-40 -31 -70 -54q-55 -42 -58 -45h418q12 0 10 -12l-2 -14q0 -15 -17 -15h-469q-12 0 -10 15z " />
<glyph unicode="&#xb3;" horiz-adv-x="677" d="M180 1036l6 17q5 13 17 8q69 -33 176 -33q122 0 201 71q77 70 77 189q0 148 -174 148h-71q-7 0 -10.5 3t-2.5 9l2 14q5 13 17 13h71q100 0 160 69t60 166q0 129 -181 129q-89 0 -176 -31q-16 -6 -16 7l-2 16q0 9 12 16q83 33 182 33q226 0 226 -170q0 -89 -46 -160 q-46 -72 -124 -94q50 -10 85 -54q33 -42 33 -116q0 -143 -92 -221t-231 -78q-118 0 -193 35q-7 4 -6 14z" />
<glyph unicode="&#xb4;" horiz-adv-x="571" d="M313 1206l164 180q17 17 31 17h35q10 0 11 -7t-7 -14l-197 -182q-11 -8 -20 -8h-15q-10 1 -2 14z" />
<glyph unicode="&#xb5;" horiz-adv-x="950" d="M25 -213l219 1251q2 13 16 13h21q10 0 8 -13l-117 -667q-6 -39 -6 -76q0 -122 68 -197t190 -75q262 0 315 309l125 706q5 13 17 13h20q13 0 8 -13l-125 -706q-60 -352 -360 -352q-135 0 -203 67q-69 68 -80 154l-71 -414q-4 -12 -15 -12h-20q-15 0 -10 12z" />
<glyph unicode="&#xb6;" horiz-adv-x="858" d="M188 950q0 200 135 343q134 141 347 141h297q12 0 10 -13l-4 -18q-1 -12 -15 -12h-71q-60 0 -90 -28q-29 -27 -41 -97l-228 -1293q-21 -113 -67 -159q-47 -47 -144 -47q-59 0 -88 10q-14 1 -10 16l6 17q6 10 17 8q40 -8 77 -8q74 0 111 37q36 36 53 130l117 658h-49 q-164 0 -263 84q-100 85 -100 231z" />
<glyph unicode="&#xb7;" horiz-adv-x="348" d="M131 469l19 113q2 12 14 12h61q13 0 11 -12l-19 -113q-5 -12 -14 -12h-62q-15 0 -10 12z" />
<glyph unicode="&#xb8;" horiz-adv-x="571" d="M115 -260l2 14q1 10 14 10h45q43 0 76 21t33 68q0 96 -129 165h49q127 -61 127 -170q0 -60 -44 -95q-43 -34 -112 -34q-38 0 -55 7q-10 4 -6 14z" />
<glyph unicode="&#xb9;" horiz-adv-x="677" d="M340 1649q-6 11 6 18l258 195q10 6 19 6h14q13 0 12 -15l-147 -839q-2 -15 -19 -15h-14q-13 0 -12 15l139 788l-227 -168q-13 -8 -19 2z" />
<glyph unicode="&#xba;" horiz-adv-x="786" d="M231 1276q0 64 17 158q76 446 387 446q260 0 260 -291q0 -81 -14 -155q-79 -447 -392 -447q-126 0 -192 74q-66 73 -66 215zM276 1276q0 -250 216 -250q270 0 344 408q16 92 16 157q0 250 -215 250q-275 0 -344 -407q-17 -82 -17 -158z" />
<glyph unicode="&#xbb;" horiz-adv-x="610" d="M72 256l188 272l-92 273q-4 4 -1 9t11 5h23q10 0 14 -10l92 -268v-9q0 -4 -4 -8l-186 -268q-6 -10 -17 -10h-24q-14 0 -4 14zM303 256l189 272l-93 273q-4 14 11 14h24q12 0 12 -10l93 -268v-9q0 -4 -4 -8l-185 -268q-6 -10 -18 -10h-23q-13 0 -6 14z" />
<glyph unicode="&#xbc;" horiz-adv-x="1630" d="M266 1214q-6 11 6 19l258 194q12 7 19 7h14q13 0 12 -15l-147 -839q-2 -15 -18 -15h-15q-13 0 -12 15l139 788l-227 -168q-13 -8 -19 2zM348 16l1032 1405q13 13 23 13h24q18 0 7 -17l-1035 -1405q-11 -12 -24 -12h-23q-16 0 -4 16zM956 227l2 19q1 2 13 20l514 592 q14 10 20 10h17q13 0 12 -14l-107 -598h121q14 0 13 -14l-2 -15q-1 -12 -19 -12h-119l-35 -201q-1 -14 -18 -14h-14q-14 0 -13 14l35 201h-409q-13 0 -11 12zM1014 256h370l95 535z" />
<glyph unicode="&#xbd;" horiz-adv-x="1630" d="M266 16l1032 1405q13 13 23 13h25q17 0 6 -17l-1035 -1405q-11 -12 -24 -12h-23q-16 0 -4 16zM266 1214q-6 11 6 19l258 194q12 7 19 7h14q13 0 12 -15l-147 -839q-2 -15 -18 -15h-15q-13 0 -12 15l139 788l-227 -168q-13 -8 -19 2zM956 14q-1 -14 11 -14h469q16 0 16 14 l2 15q2 12 -10 12h-418q3 3 58 45l32 24t25 19t13 10q30 23 67 54q59 49 71 62q15 16 65 63q44 41 64 71q6 10 23 33.5t26 36.5q31 45 44 78q12 31 25 76q11 38 11 81q0 85 -49 135q-50 52 -155 52q-114 0 -194 -71q-79 -70 -79 -187q0 -21 12 -21h19q14 0 14 23 q0 95 64 156t161 61q164 0 164 -146q0 -37 -10 -76q-12 -47 -24 -74q-14 -32 -45 -74q-38 -51 -52 -69q-24 -31 -64 -69q-11 -11 -34 -33.5t-32 -30.5q-21 -19 -74 -63q-60 -49 -69 -56q-2 -1 -26.5 -20.5t-44.5 -34.5q-56 -42 -63 -49q-11 -11 -11 -18z" />
<glyph unicode="&#xbe;" horiz-adv-x="1630" d="M106 602l7 16q5 13 16 9q69 -33 176 -33q122 0 201 71q78 71 78 189q0 147 -174 147h-72q-14 0 -12 13l2 14q4 12 16 12h72q98 0 159 70q60 69 60 166q0 129 -180 129q-89 0 -176 -31q-17 -6 -17 6l-2 17q0 9 12 16q82 33 183 33q225 0 225 -170q0 -89 -46 -160 q-46 -72 -124 -94q50 -10 85 -54q34 -43 34 -116q0 -143 -92 -221q-91 -78 -232 -78q-117 0 -192 35q-8 5 -7 14zM379 16l1032 1405q13 13 23 13h24q17 0 6 -17l-1034 -1405q-8 -12 -24 -12h-23q-16 0 -4 16zM956 227l2 19q1 2 13 20l514 592q14 10 20 10h17q13 0 12 -14 l-107 -598h121q14 0 13 -14l-2 -15q-1 -12 -19 -12h-119l-35 -201q-1 -14 -18 -14h-14q-14 0 -13 14l35 201h-409q-13 0 -11 12zM1014 256h370l95 535z" />
<glyph unicode="&#xbf;" horiz-adv-x="790" d="M33 -25q0 -213 284 -213q136 0 261 52q14 4 14 16l-2 14q0 17 -15 11q-133 -48 -258 -48q-235 0 -235 168q0 74 36 143q35 68 90 124q60 61 109 108q55 52 101 121q45 67 57 137l12 66q4 12 -10 12h-22q-13 0 -15 -12l-12 -66q-11 -67 -55 -129t-102 -115 q-47 -44 -110 -108q-52 -54 -91 -128q-37 -71 -37 -153zM465 926l18 112q5 13 17 13h61q12 0 10 -13l-20 -112q-2 -13 -14 -13h-62q-12 0 -10 13z" />
<glyph unicode="&#xc0;" horiz-adv-x="1083" d="M-18 14l698 1407q8 13 18 13h25q14 0 14 -13l205 -1407q0 -14 -12 -14h-23q-10 0 -14 12l-64 447h-577l-221 -447q-6 -12 -17 -12h-26q-12 0 -6 14zM274 504h549l-123 854h-4zM559 1731q0 4 3 7t9 3h33q19 0 25 -17l102 -168q4 -4 1 -9t-9 -5h-10q-11 0 -17 8l-135 172 q-2 6 -2 9z" />
<glyph unicode="&#xc1;" horiz-adv-x="1083" d="M-18 14l698 1407q8 13 18 13h25q14 0 14 -13l205 -1407q0 -14 -12 -14h-23q-10 0 -14 12l-64 447h-577l-221 -447q-6 -12 -17 -12h-26q-12 0 -6 14zM274 504h549l-123 854h-4zM735 1556l158 168q12 17 31 17h37q7 0 9 -6t-7 -13l-191 -172q-6 -8 -20 -8h-15q-10 1 -2 14z " />
<glyph unicode="&#xc2;" horiz-adv-x="1083" d="M-18 14l698 1407q8 13 18 13h25q14 0 14 -13l205 -1407q0 -14 -12 -14h-23q-10 0 -14 12l-64 447h-577l-221 -447q-6 -12 -17 -12h-26q-12 0 -6 14zM274 504h549l-123 854h-4zM532 1554l195 175q14 14 27 14h24q15 0 25 -14l129 -175q7 -12 -10 -12h-17q-8 0 -14 8 l-129 148l-182 -148q-8 -8 -19 -8h-22q-15 0 -7 12z" />
<glyph unicode="&#xc3;" horiz-adv-x="1083" d="M-18 14l698 1407q8 13 18 13h25q14 0 14 -13l205 -1407q0 -14 -12 -14h-23q-10 0 -14 12l-64 447h-577l-221 -447q-6 -12 -17 -12h-26q-12 0 -6 14zM274 504h549l-123 854h-4zM489 1554q11 57 48 91t88 34q46 0 110 -41l43 -30q41 -29 86 -29q59 0 80 55l6 19q6 18 21 18 h12q16 0 10 -16q-11 -54 -46 -88q-37 -35 -87 -35t-108 41l-50 33q-40 28 -79 28q-64 0 -82 -55l-6 -23q-7 -18 -23 -18h-10q-14 0 -13 16z" />
<glyph unicode="&#xc4;" horiz-adv-x="1083" d="M-18 14l698 1407q8 13 18 13h25q14 0 14 -13l205 -1407q0 -14 -12 -14h-23q-10 0 -14 12l-64 447h-577l-221 -447q-6 -12 -17 -12h-26q-12 0 -6 14zM274 504h549l-123 854h-4zM557 1554l21 107q0 12 14 12h33q10 0 10 -12l-21 -107q0 -12 -14 -12h-33q-10 0 -10 12z M850 1554l18 107q4 12 17 12h33q12 0 8 -12l-19 -107q0 -12 -14 -12h-33q-10 0 -10 12z" />
<glyph unicode="&#xc5;" horiz-adv-x="1083" d="M-18 14l686 1383q-51 8 -80 44q-29 37 -29 87q0 80 55 132t142 52q70 0 108 -37q39 -37 39 -94q0 -71 -45 -124q-44 -51 -117 -62l201 -1381q0 -14 -12 -14h-23q-10 0 -14 12l-64 447h-577l-221 -447q-6 -12 -17 -12h-26q-12 0 -6 14zM274 504h549l-123 854h-4zM602 1528 q0 -94 109 -94q61 0 104 40t43 107q0 90 -106 90q-63 0 -107 -39q-43 -39 -43 -104z" />
<glyph unicode="&#xc6;" horiz-adv-x="1390" d="M-43 14l821 1407q8 13 21 13h647q12 0 10 -13l-4 -20q-2 -12 -14 -12h-516l-111 -631h500q10 0 10 -13l-4 -20q-1 -12 -14 -12h-500l-119 -668h520q12 0 10 -12l-2 -21q-4 -12 -14 -12h-555q-11 0 -10 12l74 428h-453l-246 -428q-6 -12 -16 -12h-29q-12 0 -6 14zM281 485 h434l159 904h-63z" />
<glyph unicode="&#xc7;" horiz-adv-x="970" d="M125 432q0 131 29 285q66 381 216 558t412 177q136 0 236 -47q12 -6 8 -16l-8 -17q-6 -16 -19 -10q-85 45 -219 45q-238 0 -376 -166q-138 -167 -201 -524q-31 -172 -31 -287q0 -206 91 -304q91 -99 282 -99q130 0 241 45q15 6 15 -9l2 -16q0 -10 -15 -16 q-105 -49 -245 -49q-16 0 -28 1t-26 1q76 -61 76 -144q0 -65 -46 -99t-118 -34q-52 0 -59 4q-10 6 -8 17l2 14q0 10 14 10h49q119 0 119 94q0 79 -88 146q-305 51 -305 440z" />
<glyph unicode="&#xc8;" horiz-adv-x="892" d="M86 12l248 1409q2 13 14 13h600q15 0 10 -13l-4 -20q-4 -12 -14 -12h-565l-111 -631h549q10 0 10 -13l-4 -20q-5 -12 -14 -12h-549l-119 -668h570q15 0 10 -12l-2 -23q-4 -10 -15 -10h-604q-14 0 -10 12zM565 1731q0 4 3 7t10 3h32q19 0 25 -17l102 -168q4 -4 1 -9t-9 -5 h-10q-11 0 -17 8l-135 172q-2 6 -2 9z" />
<glyph unicode="&#xc9;" horiz-adv-x="892" d="M86 12l248 1409q2 13 14 13h600q15 0 10 -13l-4 -20q-4 -12 -14 -12h-565l-111 -631h549q10 0 10 -13l-4 -20q-5 -12 -14 -12h-549l-119 -668h570q15 0 10 -12l-2 -23q-4 -10 -15 -10h-604q-14 0 -10 12zM639 1556l158 168q12 17 30 17h37q8 0 9 -6q2 -6 -7 -13 l-190 -172q-6 -8 -21 -8h-14q-10 1 -2 14z" />
<glyph unicode="&#xca;" horiz-adv-x="892" d="M86 12l248 1409q2 13 14 13h600q15 0 10 -13l-4 -20q-4 -12 -14 -12h-565l-111 -631h549q10 0 10 -13l-4 -20q-5 -12 -14 -12h-549l-119 -668h570q15 0 10 -12l-2 -23q-4 -10 -15 -10h-604q-14 0 -10 12zM483 1554l195 175q14 14 27 14h24q15 0 25 -14l129 -175 q8 -12 -11 -12h-16q-8 0 -14 8l-129 148l-183 -148q-8 -8 -18 -8h-23q-13 0 -6 12z" />
<glyph unicode="&#xcb;" horiz-adv-x="892" d="M86 12l248 1409q2 13 14 13h600q15 0 10 -13l-4 -20q-4 -12 -14 -12h-565l-111 -631h549q10 0 10 -13l-4 -20q-5 -12 -14 -12h-549l-119 -668h570q15 0 10 -12l-2 -23q-4 -10 -15 -10h-604q-14 0 -10 12zM508 1554l20 107q0 12 15 12h32q11 0 11 -12l-21 -107 q0 -12 -14 -12h-33q-10 0 -10 12zM801 1554l18 107q5 12 17 12h32q14 0 9 -12l-19 -107q0 -12 -14 -12h-33q-10 0 -10 12z" />
<glyph unicode="&#xcc;" horiz-adv-x="399" d="M96 12l248 1409q5 13 14 13h23q12 0 10 -13l-248 -1409q-5 -12 -14 -12h-23q-12 0 -10 12zM229 1731q0 4 3 7t10 3h32q19 0 25 -17l102 -168q4 -4 1 -9t-9 -5h-10q-10 0 -16 8l-136 172q-2 6 -2 9z" />
<glyph unicode="&#xcd;" horiz-adv-x="399" d="M96 12l248 1409q5 13 14 13h23q12 0 10 -13l-248 -1409q-5 -12 -14 -12h-23q-12 0 -10 12zM379 1556l158 168q12 17 30 17h37q8 0 9 -6q2 -6 -7 -13l-190 -172q-6 -8 -21 -8h-14q-10 1 -2 14z" />
<glyph unicode="&#xce;" horiz-adv-x="399" d="M96 12l248 1409q5 13 14 13h23q12 0 10 -13l-248 -1409q-5 -12 -14 -12h-23q-12 0 -10 12zM190 1554l195 175q14 14 27 14h24q15 0 25 -14l129 -175q8 -12 -10 -12h-17q-8 0 -14 8l-129 148l-182 -148q-8 -8 -19 -8h-22q-15 0 -7 12z" />
<glyph unicode="&#xcf;" horiz-adv-x="399" d="M96 12l248 1409q5 13 14 13h23q12 0 10 -13l-248 -1409q-5 -12 -14 -12h-23q-12 0 -10 12zM215 1554l21 107q0 12 14 12h33q10 0 10 -12l-21 -107q0 -12 -14 -12h-33q-10 0 -10 12zM508 1554l18 107q2 12 17 12h32q11 0 9 -12l-19 -107q0 -12 -14 -12h-33q-10 0 -10 12z " />
<glyph unicode="&#xd0;" horiz-adv-x="1114" d="M90 12l119 686h-111q-13 0 -8 13l2 16q0 12 14 12h111l121 682q2 13 14 13h258q228 0 348 -100q119 -99 119 -345q0 -108 -28 -272q-37 -207 -98 -350q-61 -144 -148 -222t-191 -112q-102 -33 -239 -33h-273q-14 0 -10 12zM141 45h232q124 0 220 31q92 30 174 104 q81 74 138 207q58 135 92 330q29 153 29 270q0 224 -104 312q-107 90 -312 90h-231l-115 -650h266q16 0 11 -12l-2 -16q-2 -13 -17 -13h-266z" />
<glyph unicode="&#xd1;" horiz-adv-x="1150" d="M86 12l248 1409q2 13 14 13h23q13 0 18 -13l483 -1327l234 1327q5 13 14 13h23q11 0 10 -15l-248 -1407q-5 -12 -14 -12h-23q-14 0 -20 12l-481 1327l-234 -1327q-1 -12 -14 -12h-23q-14 0 -10 12zM522 1554q11 58 47 91q37 34 88 34q47 0 111 -41l43 -30q41 -29 86 -29 q59 0 80 55l6 19q6 18 21 18h12q16 0 10 -16q-11 -54 -46 -88q-37 -35 -87 -35q-51 0 -109 41l-49 33q-40 28 -80 28q-64 0 -82 -55l-6 -23q-7 -18 -22 -18h-10q-14 0 -13 16z" />
<glyph unicode="&#xd2;" horiz-adv-x="1171" d="M123 428q0 130 29 289q66 379 212 556q147 179 388 179q383 0 383 -444q0 -115 -29 -291q-68 -378 -213 -556q-146 -179 -385 -179q-385 0 -385 446zM170 424q0 -199 83 -299q82 -98 255 -98q218 0 352 167t197 523q30 191 30 295q0 201 -82 298t-253 97 q-220 0 -354 -167t-197 -523q-31 -174 -31 -293zM643 1731q0 4 3 7t9 3h33q19 0 25 -17l102 -168q4 -4 1 -9t-9 -5h-10q-11 0 -17 8l-135 172q-2 6 -2 9z" />
<glyph unicode="&#xd3;" horiz-adv-x="1171" d="M123 428q0 130 29 289q66 379 212 556q147 179 388 179q383 0 383 -444q0 -115 -29 -291q-68 -378 -213 -556q-146 -179 -385 -179q-385 0 -385 446zM170 424q0 -199 83 -299q82 -98 255 -98q218 0 352 167t197 523q30 191 30 295q0 201 -82 298t-253 97 q-220 0 -354 -167t-197 -523q-31 -174 -31 -293zM748 1556l157 168q12 17 31 17h37q7 0 9 -6t-7 -13l-191 -172q-6 -8 -20 -8h-14q-10 1 -2 14z" />
<glyph unicode="&#xd4;" horiz-adv-x="1171" d="M123 428q0 130 29 289q66 379 212 556q147 179 388 179q383 0 383 -444q0 -115 -29 -291q-68 -378 -213 -556q-146 -179 -385 -179q-385 0 -385 446zM170 424q0 -199 83 -299q82 -98 255 -98q218 0 352 167t197 523q30 191 30 295q0 201 -82 298t-253 97 q-220 0 -354 -167t-197 -523q-31 -174 -31 -293zM575 1554l195 175q14 14 27 14h24q15 0 25 -14l129 -175q7 -12 -10 -12h-17q-8 0 -14 8l-129 148l-182 -148q-8 -8 -19 -8h-22q-14 0 -7 12z" />
<glyph unicode="&#xd5;" horiz-adv-x="1171" d="M123 428q0 130 29 289q66 379 212 556q147 179 388 179q383 0 383 -444q0 -115 -29 -291q-68 -378 -213 -556q-146 -179 -385 -179q-385 0 -385 446zM170 424q0 -199 83 -299q82 -98 255 -98q218 0 352 167t197 523q30 191 30 295q0 201 -82 298t-253 97 q-220 0 -354 -167t-197 -523q-31 -174 -31 -293zM532 1554q11 57 48 91t88 34q46 0 110 -41l43 -30q41 -29 86 -29q59 0 80 55l6 19q6 18 21 18h12q16 0 10 -16q-11 -54 -46 -88q-37 -35 -87 -35t-108 41l-50 33q-40 28 -79 28q-64 0 -82 -55l-6 -23q-8 -18 -23 -18h-10 q-14 0 -13 16z" />
<glyph unicode="&#xd6;" horiz-adv-x="1171" d="M123 428q0 130 29 289q66 379 212 556q147 179 388 179q383 0 383 -444q0 -115 -29 -291q-68 -378 -213 -556q-146 -179 -385 -179q-385 0 -385 446zM170 424q0 -199 83 -299q82 -98 255 -98q218 0 352 167t197 523q30 191 30 295q0 201 -82 298t-253 97 q-220 0 -354 -167t-197 -523q-31 -174 -31 -293zM600 1554l21 107q0 12 14 12h33q10 0 10 -12l-21 -107q0 -12 -14 -12h-33q-10 0 -10 12zM893 1554l18 107q1 12 17 12h33q9 0 8 -12l-19 -107q0 -12 -14 -12h-33q-10 0 -10 12z" />
<glyph unicode="&#xd7;" d="M137 373q-6 8 4 18l394 336l-277 334q-6 11 4 18l17 15q13 8 20 -2l274 -332l394 334q12 8 18 0l12 -15q6 -11 -4 -18l-393 -334l274 -336q8 -8 -2 -18l-18 -15q-10 -10 -18 0l-275 336l-393 -336q-8 -10 -18 0z" />
<glyph unicode="&#xd8;" horiz-adv-x="1181" d="M4 39q-10 6 0 16l150 164q-29 92 -29 209q0 113 29 289q67 378 213 557q145 178 387 178q256 0 342 -197l135 148q10 10 18 4l15 -12q8 -9 -2 -19l-150 -166q27 -92 27 -202q0 -119 -31 -291q-66 -379 -211 -556q-146 -179 -387 -179q-255 0 -340 192l-133 -145 q-11 -11 -19 -2zM174 424q0 -101 16 -162l869 955q-66 190 -305 190q-220 0 -354 -167t-197 -523q-29 -179 -29 -293zM205 215q69 -188 305 -188q221 0 353 167q133 168 196 523q31 178 31 295q0 78 -17 157z" />
<glyph unicode="&#xd9;" horiz-adv-x="1122" d="M137 293q0 75 15 153l172 975q5 13 14 13h22q13 0 11 -13l-170 -970q-17 -94 -17 -156q0 -140 71 -206t226 -66q195 0 295 102q100 101 139 326l170 970q5 13 15 13h22q13 0 11 -13l-172 -975q-44 -242 -154 -354q-111 -112 -324 -112q-179 0 -262 76q-84 76 -84 237z M629 1731q0 4 3 7t9 3h33q18 0 24 -17l103 -168q4 -4 1 -9t-9 -5h-11q-10 0 -16 8l-135 172q-2 6 -2 9z" />
<glyph unicode="&#xda;" horiz-adv-x="1122" d="M137 293q0 75 15 153l172 975q5 13 14 13h22q13 0 11 -13l-170 -970q-17 -94 -17 -156q0 -140 71 -206t226 -66q195 0 295 102q100 101 139 326l170 970q5 13 15 13h22q13 0 11 -13l-172 -975q-44 -242 -154 -354q-111 -112 -324 -112q-179 0 -262 76q-84 76 -84 237z M702 1556l158 168q12 17 31 17h37q8 0 9 -6q2 -6 -7 -13l-191 -172q-6 -8 -20 -8h-14q-11 2 -3 14z" />
<glyph unicode="&#xdb;" horiz-adv-x="1122" d="M137 293q0 75 15 153l172 975q5 13 14 13h22q13 0 11 -13l-170 -970q-17 -94 -17 -156q0 -140 71 -206t226 -66q195 0 295 102q100 101 139 326l170 970q5 13 15 13h22q13 0 11 -13l-172 -975q-44 -242 -154 -354q-111 -112 -324 -112q-179 0 -262 76q-84 76 -84 237z M551 1554l194 175q14 14 27 14h25q14 0 24 -14l129 -175q8 -12 -10 -12h-16q-9 0 -15 8l-129 148l-182 -148q-8 -8 -18 -8h-23q-13 0 -6 12z" />
<glyph unicode="&#xdc;" horiz-adv-x="1122" d="M137 293q0 75 15 153l172 975q5 13 14 13h22q13 0 11 -13l-170 -970q-17 -94 -17 -156q0 -140 71 -206t226 -66q195 0 295 102q100 101 139 326l170 970q5 13 15 13h22q13 0 11 -13l-172 -975q-44 -242 -154 -354q-111 -112 -324 -112q-179 0 -262 76q-84 76 -84 237z M575 1554l21 107q0 12 14 12h33q10 0 10 -12l-20 -107q0 -12 -15 -12h-32q-11 0 -11 12zM868 1554l19 107q1 12 16 12h33q10 0 8 -12l-18 -107q0 -12 -15 -12h-32q-11 0 -11 12z" />
<glyph unicode="&#xdd;" horiz-adv-x="1026" d="M240 1419q-6 15 10 15h22q15 0 15 -11l180 -579l68 -234h4l149 234l385 579q6 11 19 11h24q14 0 6 -15l-569 -860l-96 -547q-1 -12 -15 -12h-22q-14 0 -10 12l96 547zM674 1556l157 168q12 17 31 17h37q7 0 9 -6t-7 -13l-190 -172q-6 -8 -21 -8h-14q-10 1 -2 14z" />
<glyph unicode="&#xde;" horiz-adv-x="964" d="M86 12l248 1409q2 13 14 13h23q15 0 10 -13l-29 -159h191q202 0 298 -73q95 -72 95 -233q0 -53 -14 -137q-39 -238 -160 -341t-361 -103h-204l-64 -363q-1 -12 -14 -12h-23q-14 0 -10 12zM203 420h198q217 0 324 91q108 92 147 308q15 90 15 135q0 140 -82 201 q-83 62 -264 62h-197z" />
<glyph unicode="&#xdf;" horiz-adv-x="999" d="M72 12l194 1106q28 166 136 248q107 82 257 82q142 0 208 -60q67 -61 67 -149q0 -81 -53 -146q-52 -64 -116 -99t-116 -78q-53 -44 -53 -89q0 -37 46 -82q50 -48 101 -87q57 -43 102 -119q46 -77 46 -172q0 -183 -113 -279q-112 -96 -293 -96q-58 0 -112 8q-13 2 -13 18 l2 15q4 14 19 10q55 -12 111 -12q151 0 252 85q102 85 102 251q0 69 -31 133q-29 59 -75 102q-51 47 -87 76q-42 33 -73 72t-31 73q0 49 35 90q36 42 85 72q18 11 53 33t48 30q53 33 86 80q35 50 35 111q0 71 -56 118q-57 48 -178 48q-125 0 -224 -70q-97 -69 -124 -221 l-192 -1102q-1 -12 -15 -12h-20q-12 0 -10 12z" />
<glyph unicode="&#xe0;" horiz-adv-x="894" d="M39 211q0 79 22 138q23 61 58 102t93 71q56 29 112 48q50 17 133 28q61 8 138 14q59 5 142 6l25 138q8 50 8 92q0 94 -51 137q-50 43 -166 43q-159 0 -295 -57q-16 -4 -16 8v16q0 11 14 17q147 59 299 59q258 0 258 -221q0 -44 -8 -94l-129 -744q-4 -12 -14 -12h-21 q-15 0 -10 12l33 191q-114 -215 -371 -215q-124 0 -189 59t-65 164zM84 211q0 -180 211 -180q158 0 265 98t134 248l35 201q-22 0 -44 -1l-44 -2t-32 -1q-52 -2 -121 -10q-76 -9 -123 -22t-108 -41q-56 -26 -92 -65q-33 -35 -57 -95q-24 -59 -24 -130zM446 1382 q-10 21 11 21h32q16 0 27 -17l102 -180q5 -5 2 -9q-3 -5 -10 -5h-10q-12 0 -14 8z" />
<glyph unicode="&#xe1;" horiz-adv-x="894" d="M39 211q0 79 22 138q23 61 58 102t93 71q56 29 112 48q50 17 133 28q61 8 138 14q59 5 142 6l25 138q8 50 8 92q0 94 -51 137q-50 43 -166 43q-159 0 -295 -57q-16 -4 -16 8v16q0 11 14 17q147 59 299 59q258 0 258 -221q0 -44 -8 -94l-129 -744q-4 -12 -14 -12h-21 q-15 0 -10 12l33 191q-114 -215 -371 -215q-124 0 -189 59t-65 164zM84 211q0 -180 211 -180q158 0 265 98t134 248l35 201q-22 0 -44 -1l-44 -2t-32 -1q-52 -2 -121 -10q-76 -9 -123 -22t-108 -41q-56 -26 -92 -65q-33 -35 -57 -95q-24 -59 -24 -130zM537 1206l163 180 q17 17 31 17h35q10 0 11 -7t-7 -14l-197 -182q-11 -8 -20 -8h-14q-10 1 -2 14z" />
<glyph unicode="&#xe2;" horiz-adv-x="894" d="M39 211q0 79 22 138q23 61 58 102t93 71q56 29 112 48q50 17 133 28q61 8 138 14q59 5 142 6l25 138q8 50 8 92q0 94 -51 137q-50 43 -166 43q-159 0 -295 -57q-16 -4 -16 8v16q0 11 14 17q147 59 299 59q258 0 258 -221q0 -44 -8 -94l-129 -744q-4 -12 -14 -12h-21 q-15 0 -10 12l33 191q-114 -215 -371 -215q-124 0 -189 59t-65 164zM84 211q0 -180 211 -180q158 0 265 98t134 248l35 201q-22 0 -44 -1l-44 -2t-32 -1q-52 -2 -121 -10q-76 -9 -123 -22t-108 -41q-56 -26 -92 -65q-33 -35 -57 -95q-24 -59 -24 -130zM379 1204l194 187 q14 14 27 14h25q14 0 24 -14l125 -187q4 -4 1 -8t-11 -4h-14q-7 0 -15 8l-127 162l-184 -162l-18 -8h-21q-18 0 -6 12z" />
<glyph unicode="&#xe3;" horiz-adv-x="894" d="M39 211q0 79 22 138q23 61 58 102t93 71q56 29 112 48q50 17 133 28q61 8 138 14q59 5 142 6l25 138q8 50 8 92q0 94 -51 137q-50 43 -166 43q-159 0 -295 -57q-16 -4 -16 8v16q0 11 14 17q147 59 299 59q258 0 258 -221q0 -44 -8 -94l-129 -744q-4 -12 -14 -12h-21 q-15 0 -10 12l33 191q-114 -215 -371 -215q-124 0 -189 59t-65 164zM84 211q0 -180 211 -180q158 0 265 98t134 248l35 201q-22 0 -44 -1l-44 -2t-32 -1q-52 -2 -121 -10q-76 -9 -123 -22t-108 -41q-56 -26 -92 -65q-33 -35 -57 -95q-24 -59 -24 -130zM350 1208q11 53 45 86 q35 33 84 33q46 0 105 -37l41 -30q39 -27 75 -27q60 0 78 51l8 19q4 16 21 16h12q11 0 10 -14q-11 -55 -44 -85q-35 -32 -83 -32q-49 0 -104 37l-43 32q-34 25 -74 25q-57 0 -78 -49l-10 -23q-6 -16 -20 -16h-13q-11 0 -10 14z" />
<glyph unicode="&#xe4;" horiz-adv-x="894" d="M39 211q0 79 22 138q23 61 58 102t93 71q56 29 112 48q50 17 133 28q61 8 138 14q59 5 142 6l25 138q8 50 8 92q0 94 -51 137q-50 43 -166 43q-159 0 -295 -57q-16 -4 -16 8v16q0 11 14 17q147 59 299 59q258 0 258 -221q0 -44 -8 -94l-129 -744q-4 -12 -14 -12h-21 q-15 0 -10 12l33 191q-114 -215 -371 -215q-124 0 -189 59t-65 164zM84 211q0 -180 211 -180q158 0 265 98t134 248l35 201q-22 0 -44 -1l-44 -2t-32 -1q-52 -2 -121 -10q-76 -9 -123 -22t-108 -41q-56 -26 -92 -65q-33 -35 -57 -95q-24 -59 -24 -130zM410 1204l20 111 q4 12 14 12h31q11 0 10 -12l-20 -111q-1 -12 -14 -12h-31q-14 0 -10 12zM696 1204l19 111q1 12 14 12h31q14 0 10 -12l-18 -111q-2 -12 -15 -12h-30q-15 0 -11 12z" />
<glyph unicode="&#xe5;" horiz-adv-x="894" d="M39 211q0 79 22 138q23 61 58 102t93 71q56 29 112 48q50 17 133 28q61 8 138 14q59 5 142 6l25 138q8 50 8 92q0 94 -51 137q-50 43 -166 43q-159 0 -295 -57q-16 -4 -16 8v16q0 11 14 17q147 59 299 59q258 0 258 -221q0 -44 -8 -94l-129 -744q-4 -12 -14 -12h-21 q-15 0 -10 12l33 191q-114 -215 -371 -215q-124 0 -189 59t-65 164zM84 211q0 -180 211 -180q158 0 265 98t134 248l35 201q-22 0 -44 -1l-44 -2t-32 -1q-52 -2 -121 -10q-76 -9 -123 -22t-108 -41q-56 -26 -92 -65q-33 -35 -57 -95q-24 -59 -24 -130zM430 1300q0 81 55 135 t144 54q67 0 107 -37t40 -94q0 -81 -55 -133q-57 -54 -141 -54q-68 0 -109 36t-41 93zM477 1303q0 -91 107 -91q58 0 102 39q43 39 43 105q0 92 -104 92q-62 0 -105 -40t-43 -105z" />
<glyph unicode="&#xe6;" horiz-adv-x="1460" d="M39 217q0 59 14 102q16 50 35 81q22 36 58 62t71 45q33 18 88 30q39 8 94 19q31 6 105 11q31 2 103 5q36 1 106 3l28 162q13 84 13 107q0 91 -49 137q-50 47 -162 47q-147 0 -283 -57q-16 -4 -16 8v16q0 11 14 17q148 59 289 59q134 0 194 -59q62 -60 56 -178 q111 237 346 237q130 0 198 -83t68 -224q0 -72 -16 -168l-9 -51q-5 -13 -14 -13h-618q-21 -108 -21 -196q0 -313 273 -313q123 0 231 47q14 7 14 -9l2 -14q0 -12 -14 -18q-111 -49 -236 -49q-283 0 -311 294q-43 -124 -148 -205t-253 -81q-123 0 -186 62q-64 63 -64 167z M84 217q0 -87 52 -136q53 -50 157 -50q155 0 256 98q102 99 129 248l27 155q-88 0 -113 -1q-36 -1 -115 -6q-80 -5 -121 -16q-43 -12 -102 -34q-60 -22 -91 -55q-31 -32 -55 -85t-24 -118zM758 575h583l5 21q16 115 16 170q0 262 -219 262q-297 0 -385 -453z" />
<glyph unicode="&#xe7;" horiz-adv-x="776" d="M84 326q0 99 20 202q46 270 161 407q114 136 310 136q125 0 207 -45q13 -7 9 -18l-7 -15q-7 -16 -20 -8q-67 43 -189 43q-173 0 -277 -125q-102 -123 -146 -375q-23 -127 -23 -204q0 -297 268 -297q129 0 211 43q17 6 17 -9l2 -16q-4 -11 -15 -16q-96 -47 -215 -47 q-12 0 -22 1t-21 1q72 -57 72 -136q0 -60 -44 -95q-43 -34 -112 -34q-38 0 -55 7q-10 4 -6 14l2 14q1 10 14 10h45q43 0 76 21t33 68q0 77 -90 143q-205 51 -205 330z" />
<glyph unicode="&#xe8;" horiz-adv-x="890" d="M84 328q0 95 20 198q95 545 455 545q140 0 209 -85q70 -87 70 -234q0 -75 -19 -183l-10 -55q-1 -12 -14 -12h-650q-14 -83 -14 -170q0 -309 291 -309q136 0 246 49q14 6 14 -9v-14q0 -13 -12 -18q-117 -51 -250 -51q-336 0 -336 348zM154 545h614l4 24q19 128 19 189 q0 270 -232 270q-315 0 -405 -483zM444 1382q-10 21 11 21h32q17 0 27 -16l102 -181q4 -4 1 -9t-9 -5h-10q-12 0 -14 8z" />
<glyph unicode="&#xe9;" horiz-adv-x="890" d="M84 328q0 95 20 198q95 545 455 545q140 0 209 -85q70 -87 70 -234q0 -75 -19 -183l-10 -55q-1 -12 -14 -12h-650q-14 -83 -14 -170q0 -309 291 -309q136 0 246 49q14 6 14 -9v-14q0 -13 -12 -18q-117 -51 -250 -51q-336 0 -336 348zM154 545h614l4 24q19 128 19 189 q0 270 -232 270q-315 0 -405 -483zM535 1206l163 181q16 16 31 16h35q10 0 11 -7t-7 -14l-197 -182q-11 -8 -20 -8h-14q-10 1 -2 14z" />
<glyph unicode="&#xea;" horiz-adv-x="890" d="M84 328q0 95 20 198q95 545 455 545q140 0 209 -85q70 -87 70 -234q0 -75 -19 -183l-10 -55q-1 -12 -14 -12h-650q-14 -83 -14 -170q0 -309 291 -309q136 0 246 49q14 6 14 -9v-14q0 -13 -12 -18q-117 -51 -250 -51q-336 0 -336 348zM154 545h614l4 24q19 128 19 189 q0 270 -232 270q-315 0 -405 -483zM385 1204l195 187q14 14 26 14h25q14 0 24 -14l125 -187q4 -4 1 -8t-11 -4h-14q-7 0 -15 8l-127 162l-184 -162l-18 -8h-21q-18 0 -6 12z" />
<glyph unicode="&#xeb;" horiz-adv-x="890" d="M84 328q0 95 20 198q95 545 455 545q140 0 209 -85q70 -87 70 -234q0 -75 -19 -183l-10 -55q-1 -12 -14 -12h-650q-14 -83 -14 -170q0 -309 291 -309q136 0 246 49q14 6 14 -9v-14q0 -13 -12 -18q-117 -51 -250 -51q-336 0 -336 348zM154 545h614l4 24q19 128 19 189 q0 270 -232 270q-315 0 -405 -483zM412 1204l20 111q2 12 14 12h31q14 0 10 -12l-20 -111q-5 -12 -14 -12h-31q-12 0 -10 12zM698 1204l19 111q5 12 14 12h31q12 0 10 -12l-18 -111q-4 -12 -15 -12h-30q-13 0 -11 12z" />
<glyph unicode="&#xec;" horiz-adv-x="358" d="M78 12l178 1026q2 13 16 13h21q10 0 8 -13l-178 -1026q-5 -12 -14 -12h-21q-14 0 -10 12zM147 1382q-11 21 11 21h32q16 0 27 -17l102 -180q5 -5 2 -9q-3 -5 -10 -5h-10q-12 0 -14 8z" />
<glyph unicode="&#xed;" horiz-adv-x="358" d="M78 12l178 1026q2 13 16 13h21q10 0 8 -13l-178 -1026q-5 -12 -14 -12h-21q-14 0 -10 12zM299 1206l164 180q17 17 31 17h34q11 0 12 -7t-8 -14l-196 -182q-11 -8 -21 -8h-14q-10 1 -2 14z" />
<glyph unicode="&#xee;" horiz-adv-x="358" d="M78 12l178 1026q2 13 16 13h21q10 0 8 -13l-178 -1026q-5 -12 -14 -12h-21q-14 0 -10 12zM111 1204l194 187q14 14 27 14h24q15 0 25 -14l125 -187q4 -4 1 -8t-11 -4h-15q-6 0 -14 8l-127 162l-184 -162q-18 -8 -19 -8h-20q-18 0 -6 12z" />
<glyph unicode="&#xef;" horiz-adv-x="358" d="M78 12l178 1026q2 13 16 13h21q10 0 8 -13l-178 -1026q-5 -12 -14 -12h-21q-14 0 -10 12zM137 1204l21 111q2 12 14 12h31q15 0 10 -12l-20 -111q-5 -12 -15 -12h-31q-11 0 -10 12zM424 1204l18 111q4 12 15 12h30q13 0 11 -12l-19 -111q-5 -12 -14 -12h-31q-12 0 -10 12 z" />
<glyph unicode="&#xf0;" horiz-adv-x="948" d="M84 328q0 81 20 198q95 545 467 545q198 0 265 -145q-28 173 -99 301h-235q-14 0 -10 12l4 16q5 13 14 13h205q-51 80 -111 147q-8 9 -7 13q2 6 11 6h19q14 0 22 -11q68 -78 115 -155h160q15 0 10 -13l-4 -16q-4 -12 -15 -12h-129q99 -189 99 -434q0 -120 -25 -267 q-94 -544 -467 -544q-309 0 -309 346zM131 328q0 -303 262 -303q332 0 420 501q21 105 21 199q0 303 -263 303q-331 0 -419 -502q-21 -108 -21 -198z" />
<glyph unicode="&#xf1;" horiz-adv-x="960" d="M66 12l178 1026q2 13 16 13h21q10 0 8 -13l-31 -188q45 89 137 155t226 66q129 0 192 -66q64 -67 64 -184q0 -12 -9 -86l-129 -723q-1 -12 -14 -12h-20q-13 0 -11 12l129 723q8 66 8 86q0 207 -210 207q-145 0 -255 -98q-112 -100 -139 -246l-116 -672q-5 -12 -15 -12 h-20q-14 0 -10 12zM379 1208q11 53 45 86t84 33q45 0 104 -37l41 -30q39 -27 76 -27q60 0 78 51l8 19q4 16 21 16h12q11 0 10 -14q-11 -55 -44 -85q-35 -32 -83 -32q-49 0 -104 37l-43 32q-34 25 -74 25q-57 0 -78 -49l-10 -23q-6 -16 -21 -16h-12q-11 0 -10 14z" />
<glyph unicode="&#xf2;" horiz-adv-x="944" d="M84 328q0 -346 309 -346q373 0 467 544q21 123 21 197q0 171 -78 259q-78 89 -232 89q-372 0 -467 -545q-20 -117 -20 -198zM131 328q0 90 21 198q88 502 419 502q263 0 263 -303q0 -94 -21 -199q-88 -501 -420 -501q-262 0 -262 303zM471 1382q-11 21 10 21h33 q16 0 27 -17l102 -180q4 -4 1 -9t-9 -5h-10q-13 0 -15 8z" />
<glyph unicode="&#xf3;" horiz-adv-x="944" d="M84 328q0 -346 309 -346q373 0 467 544q21 123 21 197q0 171 -78 259q-78 89 -232 89q-372 0 -467 -545q-20 -117 -20 -198zM131 328q0 90 21 198q88 502 419 502q263 0 263 -303q0 -94 -21 -199q-88 -501 -420 -501q-262 0 -262 303zM561 1206l164 180q17 17 31 17h35 q10 0 11 -7t-7 -14l-197 -182q-11 -8 -20 -8h-15q-10 1 -2 14z" />
<glyph unicode="&#xf4;" horiz-adv-x="944" d="M84 328q0 -346 309 -346q373 0 467 544q21 123 21 197q0 171 -78 259q-78 89 -232 89q-372 0 -467 -545q-20 -117 -20 -198zM131 328q0 90 21 198q88 502 419 502q263 0 263 -303q0 -94 -21 -199q-88 -501 -420 -501q-262 0 -262 303zM403 1204l195 187q14 14 27 14h24 q15 0 25 -14l125 -187q4 -4 1 -8t-12 -4h-14q-6 0 -14 8l-127 162l-184 -162q-18 -8 -19 -8h-20q-19 0 -7 12z" />
<glyph unicode="&#xf5;" horiz-adv-x="944" d="M84 328q0 81 20 198q95 545 467 545q154 0 232 -89q78 -88 78 -259q0 -74 -21 -197q-94 -544 -467 -544q-309 0 -309 346zM131 328q0 -303 262 -303q332 0 420 501q21 105 21 199q0 303 -263 303q-331 0 -419 -502q-21 -108 -21 -198zM371 1208q11 53 45 86t84 33 q45 0 104 -37l41 -30q39 -27 76 -27q60 0 78 51l8 19q4 16 20 16h13q11 0 10 -14q-11 -55 -44 -85q-35 -32 -83 -32q-49 0 -104 37l-44 32q-34 25 -73 25q-57 0 -78 -49l-10 -23q-6 -16 -21 -16h-12q-11 0 -10 14z" />
<glyph unicode="&#xf6;" horiz-adv-x="944" d="M84 328q0 -346 309 -346q373 0 467 544q21 123 21 197q0 171 -78 259q-78 89 -232 89q-372 0 -467 -545q-20 -117 -20 -198zM131 328q0 90 21 198q88 502 419 502q263 0 263 -303q0 -94 -21 -199q-88 -501 -420 -501q-262 0 -262 303zM430 1204l21 111q4 12 14 12h31 q12 0 10 -12l-21 -111q-1 -12 -14 -12h-31q-15 0 -10 12zM717 1204l18 111q1 12 15 12h30q15 0 11 -12l-19 -111q-2 -12 -14 -12h-31q-15 0 -10 12z" />
<glyph unicode="&#xf7;" d="M162 717l4 20q0 13 14 13h783q10 0 10 -13l-4 -20q-1 -12 -15 -12h-782q-12 0 -10 12zM459 358l20 115q5 12 15 12h61q15 0 10 -12l-20 -115q0 -12 -15 -12h-61q-10 0 -10 12zM569 979l19 115q2 12 14 12h62q12 0 10 -12l-19 -115q-5 -12 -14 -12h-61q-16 0 -11 12z" />
<glyph unicode="&#xf8;" horiz-adv-x="952" d="M18 29l101 112q-33 72 -33 187q0 81 20 198q95 545 467 545q182 0 258 -127l91 103q8 11 16 2l14 -9q6 -6 -2 -18l-100 -115q33 -74 33 -184q0 -80 -19 -197q-99 -544 -467 -544q-183 0 -260 122l-90 -100q-8 -8 -16 -2l-11 12q-8 8 -2 15zM133 328q0 -88 21 -148 l645 729q-63 119 -226 119q-331 0 -419 -502q-21 -127 -21 -198zM170 143q63 -118 227 -118q330 0 420 501q21 123 21 199q0 85 -21 145z" />
<glyph unicode="&#xf9;" horiz-adv-x="948" d="M104 236q0 38 11 98l123 704q5 13 16 13h20q14 0 9 -13l-123 -704q-8 -50 -8 -96q0 -213 215 -213q140 0 244 100q106 102 130 248l117 665q2 13 16 13h21q10 0 8 -13l-178 -1026q-5 -12 -14 -12h-21q-14 0 -10 12l31 191q-39 -89 -126 -155t-218 -66q-130 0 -196 66 q-67 67 -67 188zM473 1382q-11 21 10 21h33q16 0 27 -17l102 -180q4 -4 1 -9t-9 -5h-10q-13 0 -15 8z" />
<glyph unicode="&#xfa;" horiz-adv-x="948" d="M104 236q0 38 11 98l123 704q5 13 16 13h20q14 0 9 -13l-123 -704q-8 -50 -8 -96q0 -213 215 -213q140 0 244 100q106 102 130 248l117 665q2 13 16 13h21q10 0 8 -13l-178 -1026q-5 -12 -14 -12h-21q-14 0 -10 12l31 191q-39 -89 -126 -155t-218 -66q-130 0 -196 66 q-67 67 -67 188zM563 1206l164 180q17 17 31 17h35q10 0 11 -7t-7 -14l-197 -182q-11 -8 -20 -8h-15q-10 1 -2 14z" />
<glyph unicode="&#xfb;" horiz-adv-x="948" d="M104 236q0 38 11 98l123 704q5 13 16 13h20q14 0 9 -13l-123 -704q-8 -50 -8 -96q0 -213 215 -213q140 0 244 100q106 102 130 248l117 665q2 13 16 13h21q10 0 8 -13l-178 -1026q-5 -12 -14 -12h-21q-14 0 -10 12l31 191q-39 -89 -126 -155t-218 -66q-130 0 -196 66 q-67 67 -67 188zM406 1204l194 187q14 14 27 14h24q15 0 25 -14l125 -187q4 -4 1 -8t-11 -4h-15q-6 0 -14 8l-127 162l-184 -162q-18 -8 -19 -8h-20q-18 0 -6 12z" />
<glyph unicode="&#xfc;" horiz-adv-x="948" d="M104 236q0 38 11 98l123 704q5 13 16 13h20q14 0 9 -13l-123 -704q-8 -50 -8 -96q0 -213 215 -213q140 0 244 100q106 102 130 248l117 665q2 13 16 13h21q10 0 8 -13l-178 -1026q-5 -12 -14 -12h-21q-14 0 -10 12l31 191q-39 -89 -126 -155t-218 -66q-130 0 -196 66 q-67 67 -67 188zM432 1204l21 111q1 12 14 12h31q14 0 10 -12l-21 -111q-5 -12 -14 -12h-31q-12 0 -10 12zM719 1204l18 111q5 12 15 12h30q12 0 11 -12l-19 -111q-4 -12 -14 -12h-31q-11 0 -10 12z" />
<glyph unicode="&#xfd;" horiz-adv-x="811" d="M-23 -203l7 15q2 12 18 8q42 -13 92 -13q95 0 158 89t53 153l-143 987q0 15 12 15h23q12 0 12 -11l96 -678l39 -288h4l137 288l316 678q6 11 18 11h25q14 0 6 -15l-481 -1018q-67 -138 -125 -195q-61 -59 -154 -59q-63 0 -102 15q-15 2 -11 18zM494 1206l163 180 q17 17 31 17h35q10 0 11 -7t-7 -14l-197 -182q-11 -8 -20 -8h-14q-10 1 -2 14z" />
<glyph unicode="&#xfe;" horiz-adv-x="985" d="M31 -213l288 1634q5 13 15 13h20q16 0 11 -13l-107 -600q121 250 367 250q144 0 221 -89q76 -88 76 -257q0 -92 -21 -203q-99 -540 -455 -540q-124 0 -201 66q-76 65 -91 181l-78 -442q-2 -12 -15 -12h-20q-11 0 -10 12zM186 338q0 -313 260 -313q161 0 263 129 q101 128 145 372q20 100 20 199q0 303 -249 303q-163 0 -271 -128q-109 -128 -149 -374q-19 -131 -19 -188z" />
<glyph unicode="&#xff;" horiz-adv-x="811" d="M-23 -203l7 15q2 12 18 8q42 -13 92 -13q95 0 158 89t53 153l-143 987q0 15 12 15h23q12 0 12 -11l96 -678l39 -288h4l137 288l316 678q6 11 18 11h25q14 0 6 -15l-481 -1018q-67 -138 -125 -195q-61 -59 -154 -59q-63 0 -102 15q-15 2 -11 18zM362 1204l21 111 q1 12 14 12h31q14 0 10 -12l-20 -111q-4 -12 -15 -12h-30q-13 0 -11 12zM649 1204l19 111q4 12 14 12h31q11 0 10 -12l-18 -111q-5 -12 -15 -12h-31q-11 0 -10 12z" />
<glyph unicode="&#x152;" horiz-adv-x="1554" d="M164 459q0 111 24 258q37 204 101 349q63 142 153 222q91 80 195 113q105 33 242 33h731q12 0 10 -13l-4 -20q-2 -12 -14 -12h-533l-111 -631h517q12 0 10 -13l-4 -20q-1 -12 -15 -12h-516l-119 -668h537q12 0 10 -12l-2 -21q0 -12 -14 -12h-723q-232 0 -353 103 q-122 104 -122 356zM213 457q0 -230 108 -322q109 -92 318 -92h145l238 1346h-145q-125 0 -223 -31q-93 -29 -179 -105q-84 -73 -142 -206q-59 -133 -93 -330q-27 -145 -27 -260z" />
<glyph unicode="&#x153;" horiz-adv-x="1556" d="M84 328q0 81 20 198q95 545 457 545q137 0 212 -79q75 -80 81 -230q123 309 387 309q131 0 197 -84q65 -83 65 -233q0 -78 -20 -185l-10 -55q-1 -12 -15 -12h-624q-15 -111 -15 -170q0 -309 281 -309q125 0 233 47q13 6 13 -9l2 -14q0 -13 -13 -18q-116 -49 -239 -49 q-304 0 -320 311q-122 -309 -395 -309q-145 0 -221 88t-76 258zM131 326q0 -301 252 -301q322 0 410 501q20 103 20 201q0 301 -254 301q-319 0 -407 -502q-21 -108 -21 -200zM842 545h590l6 28q18 118 18 187q0 268 -217 268q-307 0 -397 -483z" />
<glyph unicode="&#x178;" horiz-adv-x="1026" d="M240 1419q-6 15 10 15h22q15 0 15 -11l180 -579l68 -234h4l149 234l385 579q6 11 19 11h24q14 0 6 -15l-569 -860l-96 -547q-1 -12 -15 -12h-22q-14 0 -10 12l96 547zM526 1554l21 107q0 12 14 12h33q10 0 10 -12l-20 -107q0 -12 -15 -12h-32q-11 0 -11 12zM819 1554 l19 107q2 12 16 12h33q9 0 8 -12l-18 -107q0 -12 -15 -12h-33q-10 0 -10 12z" />
<glyph unicode="&#x2c6;" horiz-adv-x="571" d="M217 1204l195 187q14 14 26 14h25q14 0 24 -14l125 -187q4 -4 1 -8t-11 -4h-14q-7 0 -15 8l-127 162l-184 -162l-18 -8h-21q-18 0 -6 12z" />
<glyph unicode="&#x2dc;" horiz-adv-x="571" d="M184 1208q11 53 45 86q35 33 84 33q46 0 105 -37l41 -30q39 -27 76 -27q59 0 77 51l9 19q4 16 20 16h12q12 0 11 -14q-11 -55 -44 -85q-35 -32 -83 -32q-50 0 -105 37l-43 32q-34 25 -74 25q-56 0 -77 -49l-11 -23q-6 -16 -20 -16h-12q-12 0 -11 14z" />
<glyph unicode="&#x2000;" horiz-adv-x="940" />
<glyph unicode="&#x2001;" horiz-adv-x="1880" />
<glyph unicode="&#x2002;" horiz-adv-x="940" />
<glyph unicode="&#x2003;" horiz-adv-x="1880" />
<glyph unicode="&#x2004;" horiz-adv-x="626" />
<glyph unicode="&#x2005;" horiz-adv-x="470" />
<glyph unicode="&#x2006;" horiz-adv-x="313" />
<glyph unicode="&#x2007;" horiz-adv-x="313" />
<glyph unicode="&#x2008;" horiz-adv-x="235" />
<glyph unicode="&#x2009;" horiz-adv-x="376" />
<glyph unicode="&#x200a;" horiz-adv-x="104" />
<glyph unicode="&#x2010;" horiz-adv-x="665" d="M100 528l4 19q0 12 15 12h461q10 0 10 -12l-4 -19q-4 -12 -15 -12h-460q-13 0 -11 12z" />
<glyph unicode="&#x2011;" horiz-adv-x="665" d="M100 528l4 19q0 12 15 12h461q10 0 10 -12l-4 -19q-4 -12 -15 -12h-460q-13 0 -11 12z" />
<glyph unicode="&#x2012;" horiz-adv-x="665" d="M100 528l4 19q0 12 15 12h461q10 0 10 -12l-4 -19q-4 -12 -15 -12h-460q-13 0 -11 12z" />
<glyph unicode="&#x2013;" horiz-adv-x="874" d="M98 528l4 19q0 12 15 12h676q10 0 10 -12l-4 -19q-5 -12 -15 -12h-675q-15 0 -11 12z" />
<glyph unicode="&#x2014;" horiz-adv-x="1284" d="M98 528l4 19q0 12 15 12h1083q10 0 10 -12l-4 -19q-2 -12 -14 -12h-1083q-15 0 -11 12z" />
<glyph unicode="&#x2018;" horiz-adv-x="333" d="M240 1118l20 113q0 4 6 16l78 178q6 13 16 13h11q13 0 8 -15l-66 -178h27q12 0 10 -12l-20 -115q0 -12 -15 -12h-65q-10 0 -10 12z" />
<glyph unicode="&#x2019;" horiz-adv-x="333" d="M236 1116l65 180h-27q-12 0 -10 13l21 112q2 13 14 13h66q12 0 10 -13l-21 -110q0 -4 -4 -19l-80 -178q-4 -12 -16 -12h-10q-12 0 -8 14z" />
<glyph unicode="&#x201a;" horiz-adv-x="333" d="M8 -180l66 180h-27q-15 0 -10 12l20 113q5 12 15 12h65q15 0 10 -12l-20 -111q0 -3 -4 -18l-80 -178q-2 -13 -16 -13h-11q-13 0 -8 15z" />
<glyph unicode="&#x201c;" horiz-adv-x="567" d="M240 1118l20 113q0 4 6 16l78 178q6 13 16 13h11q13 0 8 -15l-68 -178h29q12 0 10 -12l-20 -115q0 -12 -15 -12h-65q-10 0 -10 12zM475 1118l21 113q0 4 6 16l78 178q6 13 16 13h10q13 0 8 -15l-67 -178h28q15 0 11 -12l-21 -115q0 -12 -14 -12h-66q-10 0 -10 12z" />
<glyph unicode="&#x201d;" horiz-adv-x="567" d="M236 1120l69 178h-31q-12 0 -10 13l21 114q2 13 14 13h66q12 0 10 -13l-21 -112q0 -10 -4 -17l-80 -178q-4 -12 -16 -12h-10q-12 0 -8 14zM471 1120l70 178h-31q-15 0 -10 13l20 114q5 13 15 13h65q15 0 10 -13l-20 -112q0 -10 -4 -17l-80 -178q-2 -12 -17 -12h-10 q-12 0 -8 14z" />
<glyph unicode="&#x201e;" horiz-adv-x="567" d="M8 -178l70 178h-31q-15 0 -10 12l20 115q5 12 15 12h65q15 0 10 -12l-20 -113q0 -9 -4 -16l-80 -178q-2 -13 -16 -13h-11q-13 0 -8 15zM244 -178l69 178h-30q-13 0 -11 12l21 115q1 12 14 12h66q11 0 10 -12l-21 -113q0 -9 -4 -16l-79 -178q-5 -13 -17 -13h-10 q-12 0 -8 15z" />
<glyph unicode="&#x2022;" horiz-adv-x="651" d="M113 500q0 105 74 183q75 79 186 79q85 0 137 -51q53 -51 53 -131q0 -106 -76 -183q-77 -78 -184 -78q-83 0 -137 52q-53 51 -53 129z" />
<glyph unicode="&#x2026;" horiz-adv-x="1042" d="M51 12l19 113q4 12 14 12h61q15 0 11 -12l-19 -113q-1 -12 -14 -12h-62q-11 0 -10 12zM397 12l19 113q2 12 14 12h62q12 0 10 -12l-19 -113q-5 -12 -14 -12h-61q-16 0 -11 12zM745 12l19 113q2 12 14 12h62q12 0 10 -12l-19 -113q-5 -12 -14 -12h-61q-16 0 -11 12z" />
<glyph unicode="&#x202f;" horiz-adv-x="376" />
<glyph unicode="&#x2039;" horiz-adv-x="378" d="M92 520q-2 6 0 8q0 3 2 9l187 268q10 10 18 10h23q7 0 9 -5q1 -4 -3 -9l-189 -273l92 -272q6 -14 -10 -14h-24q-9 0 -13 10z" />
<glyph unicode="&#x203a;" horiz-adv-x="378" d="M72 256l188 272l-92 273q-4 4 -1 9t11 5h23q10 0 14 -10l92 -268v-9q0 -4 -4 -8l-186 -268q-6 -10 -17 -10h-24q-14 0 -4 14z" />
<glyph unicode="&#x205f;" horiz-adv-x="470" />
<glyph unicode="&#x20ac;" horiz-adv-x="1083" d="M82 578l2 18q2 12 14 12h154l16 109q5 30 23 106h-156q-12 0 -10 13l4 18q0 12 14 12h158q152 586 612 586q139 0 240 -49q13 -6 8 -17l-8 -18q-6 -14 -20 -8q-86 47 -220 47q-421 0 -561 -541h561q13 0 7 -12l-9 -18q-7 -13 -16 -13h-555q-17 -72 -23 -106l-16 -109h492 q14 0 8 -12l-8 -18q-7 -13 -19 -13h-475q-4 -33 -4 -106q0 -216 92 -325q91 -107 289 -107q134 0 244 49q16 6 16 -8l2 -17q0 -12 -14 -18q-123 -51 -250 -51q-430 0 -430 477q0 73 4 106h-158q-13 0 -8 13z" />
<glyph unicode="&#x2122;" horiz-adv-x="1126" d="M246 1403l4 20q5 11 12 11h328q13 0 8 -11l-4 -20q0 -10 -12 -10h-142l-106 -609q0 -10 -12 -10h-23q-8 0 -8 10l106 609h-143q-8 0 -8 10zM582 784l112 639q5 11 13 11h30q9 0 11 -7l122 -393l263 393q5 7 12 7h31q13 0 8 -11l-113 -639q0 -10 -12 -10h-21q-8 0 -8 10 l103 580l-250 -371l-6 -6q-8 -8 -15 -8q-12 0 -16 14l-121 371l-102 -580q0 -10 -13 -10h-20q-8 0 -8 10z" />
<glyph unicode="&#x25fc;" horiz-adv-x="1054" d="M0 0v1055h1055v-1055h-1055z" />
</font>
</defs>
</svg>
